<?xml version="1.0" encoding="us-ascii" standalone="no"?><svg xmlns="http://www.w3.org/2000/svg" xmlns:xlink="http://www.w3.org/1999/xlink" contentStyleType="text/css" height="349px" preserveAspectRatio="none" style="width:586px;height:349px;background:#FFFFFF;" version="1.1" viewBox="0 0 586 349" width="586px" zoomAndPan="magnify"><defs/><g><!--class Service Task--><g id="elem_Service Task"><rect fill="#F1F1F1" height="48" id="Service Task" rx="2.5" ry="2.5" style="stroke:#181818;stroke-width:0.5;" width="119" x="7" y="7"/><ellipse cx="22" cy="23" fill="#ADD1B2" rx="11" ry="11" style="stroke:#181818;stroke-width:1.0;"/><path d="M25.5156,27.0313 L25.5156,29.0625 Q24.0313,29.6719 22.2031,29.6719 Q19.4844,29.6719 18.0313,27.9375 Q16.5781,26.1875 16.5781,23.0781 Q16.5781,20.0781 18.1563,18.2969 Q19.7344,16.5 22.4531,16.5 Q24.3594,16.5 26.0938,17.4219 L25.1406,19.3281 Q23.6406,18.5469 22.4531,18.5469 Q20.8438,18.5469 19.8594,19.7656 Q18.8906,20.9688 18.8906,23.0938 Q18.8906,25.3438 19.7969,26.4844 Q20.7188,27.625 22.4531,27.625 Q23.4844,27.625 25.5156,27.0313 Z " fill="#000000"/><text fill="#000000" font-family="sans-serif" font-size="14" lengthAdjust="spacing" textLength="87" x="36" y="27.8467">Service Task</text><line style="stroke:#181818;stroke-width:0.5;" x1="8" x2="125" y1="39" y2="39"/><line style="stroke:#181818;stroke-width:0.5;" x1="8" x2="125" y1="47" y2="47"/></g><!--class Repair Task--><g id="elem_Repair Task"><rect codeLine="5" fill="#F9E79F" height="210.9688" id="Repair Task" rx="2.5" ry="2.5" style="stroke:#181818;stroke-width:0.5;" width="159" x="183" y="132"/><ellipse cx="218.7" cy="148" fill="#ADD1B2" rx="11" ry="11" style="stroke:#181818;stroke-width:1.0;"/><path d="M222.2156,152.0313 L222.2156,154.0625 Q220.7313,154.6719 218.9031,154.6719 Q216.1844,154.6719 214.7313,152.9375 Q213.2781,151.1875 213.2781,148.0781 Q213.2781,145.0781 214.8563,143.2969 Q216.4344,141.5 219.1531,141.5 Q221.0594,141.5 222.7938,142.4219 L221.8406,144.3281 Q220.3406,143.5469 219.1531,143.5469 Q217.5438,143.5469 216.5594,144.7656 Q215.5906,145.9688 215.5906,148.0938 Q215.5906,150.3438 216.4969,151.4844 Q217.4188,152.625 219.1531,152.625 Q220.1844,152.625 222.2156,152.0313 Z " fill="#000000"/><text fill="#000000" font-family="sans-serif" font-size="14" lengthAdjust="spacing" textLength="81" x="237.3" y="152.8467">Repair Task</text><line style="stroke:#181818;stroke-width:0.5;" x1="184" x2="341" y1="164" y2="164"/><text fill="#000000" font-family="sans-serif" font-size="14" lengthAdjust="spacing" textLength="106" x="189" y="180.9951">task_type : Link</text><text fill="#000000" font-family="sans-serif" font-size="14" lengthAdjust="spacing" textLength="120" x="189" y="197.292">description : Text</text><text fill="#000000" font-family="sans-serif" font-size="14" lengthAdjust="spacing" textLength="111" x="189" y="213.5889">technician : Link</text><text fill="#000000" font-family="sans-serif" font-size="14" lengthAdjust="spacing" textLength="115" x="189" y="229.8857">est_hours : Float</text><text fill="#000000" font-family="sans-serif" font-size="14" lengthAdjust="spacing" textLength="134" x="189" y="246.1826">actual_hours : Float</text><text fill="#000000" font-family="sans-serif" font-size="14" lengthAdjust="spacing" textLength="147" x="189" y="262.4795">parts_cost : Currency</text><text fill="#000000" font-family="sans-serif" font-size="14" lengthAdjust="spacing" textLength="99" x="189" y="278.7764">status : Select</text><text fill="#000000" font-family="sans-serif" font-size="14" lengthAdjust="spacing" textLength="61" x="189" y="295.0732">log : Link</text><text fill="#000000" font-family="sans-serif" font-size="14" lengthAdjust="spacing" textLength="101" x="189" y="311.3701">images : Table</text><text fill="#000000" font-family="sans-serif" font-size="14" lengthAdjust="spacing" textLength="139" x="189" y="327.667">remarks : Small Text</text><line style="stroke:#181818;stroke-width:0.5;" x1="184" x2="341" y1="334.9688" y2="334.9688"/></g><!--class User--><g id="elem_User"><rect fill="#F1F1F1" height="48" id="User" rx="2.5" ry="2.5" style="stroke:#181818;stroke-width:0.5;" width="64" x="161.5" y="7"/><ellipse cx="176.5" cy="23" fill="#ADD1B2" rx="11" ry="11" style="stroke:#181818;stroke-width:1.0;"/><path d="M180.0156,27.0313 L180.0156,29.0625 Q178.5313,29.6719 176.7031,29.6719 Q173.9844,29.6719 172.5313,27.9375 Q171.0781,26.1875 171.0781,23.0781 Q171.0781,20.0781 172.6563,18.2969 Q174.2344,16.5 176.9531,16.5 Q178.8594,16.5 180.5938,17.4219 L179.6406,19.3281 Q178.1406,18.5469 176.9531,18.5469 Q175.3438,18.5469 174.3594,19.7656 Q173.3906,20.9688 173.3906,23.0938 Q173.3906,25.3438 174.2969,26.4844 Q175.2188,27.625 176.9531,27.625 Q177.9844,27.625 180.0156,27.0313 Z " fill="#000000"/><text fill="#000000" font-family="sans-serif" font-size="14" lengthAdjust="spacing" textLength="32" x="190.5" y="27.8467">User</text><line style="stroke:#181818;stroke-width:0.5;" x1="162.5" x2="224.5" y1="39" y2="39"/><line style="stroke:#181818;stroke-width:0.5;" x1="162.5" x2="224.5" y1="47" y2="47"/></g><!--class Repair Task Log--><g id="elem_Repair Task Log"><rect fill="#F1F1F1" height="48" id="Repair Task Log" rx="2.5" ry="2.5" style="stroke:#181818;stroke-width:0.5;" width="142" x="260.5" y="7"/><ellipse cx="275.5" cy="23" fill="#ADD1B2" rx="11" ry="11" style="stroke:#181818;stroke-width:1.0;"/><path d="M279.0156,27.0313 L279.0156,29.0625 Q277.5313,29.6719 275.7031,29.6719 Q272.9844,29.6719 271.5313,27.9375 Q270.0781,26.1875 270.0781,23.0781 Q270.0781,20.0781 271.6563,18.2969 Q273.2344,16.5 275.9531,16.5 Q277.8594,16.5 279.5938,17.4219 L278.6406,19.3281 Q277.1406,18.5469 275.9531,18.5469 Q274.3438,18.5469 273.3594,19.7656 Q272.3906,20.9688 272.3906,23.0938 Q272.3906,25.3438 273.2969,26.4844 Q274.2188,27.625 275.9531,27.625 Q276.9844,27.625 279.0156,27.0313 Z " fill="#000000"/><text fill="#000000" font-family="sans-serif" font-size="14" lengthAdjust="spacing" textLength="110" x="289.5" y="27.8467">Repair Task Log</text><line style="stroke:#181818;stroke-width:0.5;" x1="261.5" x2="401.5" y1="39" y2="39"/><line style="stroke:#181818;stroke-width:0.5;" x1="261.5" x2="401.5" y1="47" y2="47"/></g><!--class Image Log Entry--><g id="elem_Image Log Entry"><rect fill="#F1F1F1" height="48" id="Image Log Entry" rx="2.5" ry="2.5" style="stroke:#181818;stroke-width:0.5;" width="142" x="437.5" y="7"/><ellipse cx="452.5" cy="23" fill="#ADD1B2" rx="11" ry="11" style="stroke:#181818;stroke-width:1.0;"/><path d="M456.0156,27.0313 L456.0156,29.0625 Q454.5313,29.6719 452.7031,29.6719 Q449.9844,29.6719 448.5313,27.9375 Q447.0781,26.1875 447.0781,23.0781 Q447.0781,20.0781 448.6563,18.2969 Q450.2344,16.5 452.9531,16.5 Q454.8594,16.5 456.5938,17.4219 L455.6406,19.3281 Q454.1406,18.5469 452.9531,18.5469 Q451.3438,18.5469 450.3594,19.7656 Q449.3906,20.9688 449.3906,23.0938 Q449.3906,25.3438 450.2969,26.4844 Q451.2188,27.625 452.9531,27.625 Q453.9844,27.625 456.0156,27.0313 Z " fill="#000000"/><text fill="#000000" font-family="sans-serif" font-size="14" lengthAdjust="spacing" textLength="110" x="466.5" y="27.8467">Image Log Entry</text><line style="stroke:#181818;stroke-width:0.5;" x1="438.5" x2="578.5" y1="39" y2="39"/><line style="stroke:#181818;stroke-width:0.5;" x1="438.5" x2="578.5" y1="47" y2="47"/></g><!--reverse link Service Task to Repair Task--><g id="link_Service Task_Repair Task"><path codeLine="1" d="M97.84,64.69 C120.78,88.64 153,122.25 182.86,153.41 " fill="none" id="Service Task-backto-Repair Task" style="stroke:#181818;stroke-width:1.0;"/><polygon fill="#181818" points="88.6,55.06,89.86,62.1602,96.8986,63.728,95.6386,56.6278,88.6,55.06" style="stroke:#181818;stroke-width:1.0;"/><text fill="#000000" font-family="sans-serif" font-size="13" lengthAdjust="spacing" textLength="62" x="131.5" y="98.0669">task_type</text></g><!--reverse link User to Repair Task--><g id="link_User_Repair Task"><path codeLine="2" d="M205.49,67.55 C211.58,85.59 219.33,108.56 227.14,131.71 " fill="none" id="User-backto-Repair Task" style="stroke:#181818;stroke-width:1.0;"/><polygon fill="#181818" points="201.28,55.06,199.4092,62.0242,205.1182,66.4296,206.989,59.4654,201.28,55.06" style="stroke:#181818;stroke-width:1.0;"/><text fill="#000000" font-family="sans-serif" font-size="13" lengthAdjust="spacing" textLength="65" x="217.5" y="98.0669">technician</text></g><!--reverse link Repair Task Log to Repair Task--><g id="link_Repair Task Log_Repair Task"><path codeLine="3" d="M319.51,67.55 C313.42,85.59 305.67,108.56 297.86,131.71 " fill="none" id="Repair Task Log-backto-Repair Task" style="stroke:#181818;stroke-width:1.0;"/><polygon fill="#181818" points="323.72,55.06,318.011,59.4654,319.8818,66.4296,325.5908,62.0242,323.72,55.06" style="stroke:#181818;stroke-width:1.0;"/><text fill="#000000" font-family="sans-serif" font-size="13" lengthAdjust="spacing" textLength="19" x="313.5" y="98.0669">log</text></g><!--reverse link Image Log Entry to Repair Task--><g id="link_Image Log Entry_Repair Task"><path codeLine="4" d="M470.75,63.38 C436.62,91.75 385.26,134.45 342.09,170.34 " fill="none" id="Image Log Entry-backto-Repair Task" style="stroke:#181818;stroke-width:1.0;"/><polygon fill="#181818" points="480.76,55.06,473.5891,55.8202,471.5327,62.7318,478.7036,61.9717,480.76,55.06" style="stroke:#181818;stroke-width:1.0;"/><text fill="#000000" font-family="sans-serif" font-size="13" lengthAdjust="spacing" textLength="47" x="443.5" y="98.0669">images</text></g><!--SRC=[TO_1IWD138RlynJ3U1DwbdgLBWWzsNfUOXgsmyxEB4bMNAJltamhhcWz1RvyF_aJTiJl4SdlGVhWxrSh7rveXCXVvD6hpLRdaLnu5U9_9C9ZZXWXkvyhlotTxK0gdGlF0tHK7R_9olDjCrP972OG-RMyQzQRXtNZFvrVQbfa6tDlw42274UD9HlSquTMxxlf8f9eUomJYw4c5QWUe4wG_k0HMAN58chmQMAcZBDnKT2fYZjAXDMq3vSBroTg2tXBP81f0EulWG5IkhOxdG40]--></g></svg>