<?xml version="1.0" encoding="us-ascii" standalone="no"?><svg xmlns="http://www.w3.org/2000/svg" xmlns:xlink="http://www.w3.org/1999/xlink" contentStyleType="text/css" height="317px" preserveAspectRatio="none" style="width:409px;height:317px;background:#FFFFFF;" version="1.1" viewBox="0 0 409 317" width="409px" zoomAndPan="magnify"><defs/><g><!--class Instrument Profile--><g id="elem_Instrument Profile"><rect fill="#F1F1F1" height="48" id="Instrument Profile" rx="2.5" ry="2.5" style="stroke:#181818;stroke-width:0.5;" width="153" x="7" y="7"/><ellipse cx="22" cy="23" fill="#ADD1B2" rx="11" ry="11" style="stroke:#181818;stroke-width:1.0;"/><path d="M25.5156,27.0313 L25.5156,29.0625 Q24.0313,29.6719 22.2031,29.6719 Q19.4844,29.6719 18.0313,27.9375 Q16.5781,26.1875 16.5781,23.0781 Q16.5781,20.0781 18.1563,18.2969 Q19.7344,16.5 22.4531,16.5 Q24.3594,16.5 26.0938,17.4219 L25.1406,19.3281 Q23.6406,18.5469 22.4531,18.5469 Q20.8438,18.5469 19.8594,19.7656 Q18.8906,20.9688 18.8906,23.0938 Q18.8906,25.3438 19.7969,26.4844 Q20.7188,27.625 22.4531,27.625 Q23.4844,27.625 25.5156,27.0313 Z " fill="#000000"/><text fill="#000000" font-family="sans-serif" font-size="14" lengthAdjust="spacing" textLength="121" x="36" y="27.8467">Instrument Profile</text><line style="stroke:#181818;stroke-width:0.5;" x1="8" x2="159" y1="39" y2="39"/><line style="stroke:#181818;stroke-width:0.5;" x1="8" x2="159" y1="47" y2="47"/></g><!--class Service Log--><g id="elem_Service Log"><rect codeLine="4" fill="#76D7C4" height="178.375" id="Service Log" rx="2.5" ry="2.5" style="stroke:#181818;stroke-width:0.5;" width="176" x="153.5" y="132"/><ellipse cx="197.75" cy="148" fill="#ADD1B2" rx="11" ry="11" style="stroke:#181818;stroke-width:1.0;"/><path d="M201.2656,152.0313 L201.2656,154.0625 Q199.7813,154.6719 197.9531,154.6719 Q195.2344,154.6719 193.7813,152.9375 Q192.3281,151.1875 192.3281,148.0781 Q192.3281,145.0781 193.9063,143.2969 Q195.4844,141.5 198.2031,141.5 Q200.1094,141.5 201.8438,142.4219 L200.8906,144.3281 Q199.3906,143.5469 198.2031,143.5469 Q196.5938,143.5469 195.6094,144.7656 Q194.6406,145.9688 194.6406,148.0938 Q194.6406,150.3438 195.5469,151.4844 Q196.4688,152.625 198.2031,152.625 Q199.2344,152.625 201.2656,152.0313 Z " fill="#000000"/><text fill="#000000" font-family="sans-serif" font-size="14" lengthAdjust="spacing" textLength="79" x="218.25" y="152.8467">Service Log</text><line style="stroke:#181818;stroke-width:0.5;" x1="154.5" x2="328.5" y1="164" y2="164"/><text fill="#000000" font-family="sans-serif" font-size="14" lengthAdjust="spacing" textLength="164" x="159.5" y="180.9951">instrument_profile : Link</text><text fill="#000000" font-family="sans-serif" font-size="14" lengthAdjust="spacing" textLength="160" x="159.5" y="197.292">description : Small Text</text><text fill="#000000" font-family="sans-serif" font-size="14" lengthAdjust="spacing" textLength="131" x="159.5" y="213.5889">service_type : Data</text><text fill="#000000" font-family="sans-serif" font-size="14" lengthAdjust="spacing" textLength="135" x="159.5" y="229.8857">performed_by : Link</text><text fill="#000000" font-family="sans-serif" font-size="14" lengthAdjust="spacing" textLength="77" x="159.5" y="246.1826">date : Date</text><text fill="#000000" font-family="sans-serif" font-size="14" lengthAdjust="spacing" textLength="146" x="159.5" y="262.4795">log_entry : Small Text</text><text fill="#000000" font-family="sans-serif" font-size="14" lengthAdjust="spacing" textLength="149" x="159.5" y="278.7764">timestamp : Datetime</text><text fill="#000000" font-family="sans-serif" font-size="14" lengthAdjust="spacing" textLength="111" x="159.5" y="295.0732">logged_by : Link</text><line style="stroke:#181818;stroke-width:0.5;" x1="154.5" x2="328.5" y1="302.375" y2="302.375"/></g><!--class User--><g id="elem_User"><rect fill="#F1F1F1" height="48" id="User" rx="2.5" ry="2.5" style="stroke:#181818;stroke-width:0.5;" width="64" x="274.5" y="7"/><ellipse cx="289.5" cy="23" fill="#ADD1B2" rx="11" ry="11" style="stroke:#181818;stroke-width:1.0;"/><path d="M293.0156,27.0313 L293.0156,29.0625 Q291.5313,29.6719 289.7031,29.6719 Q286.9844,29.6719 285.5313,27.9375 Q284.0781,26.1875 284.0781,23.0781 Q284.0781,20.0781 285.6563,18.2969 Q287.2344,16.5 289.9531,16.5 Q291.8594,16.5 293.5938,17.4219 L292.6406,19.3281 Q291.1406,18.5469 289.9531,18.5469 Q288.3438,18.5469 287.3594,19.7656 Q286.3906,20.9688 286.3906,23.0938 Q286.3906,25.3438 287.2969,26.4844 Q288.2188,27.625 289.9531,27.625 Q290.9844,27.625 293.0156,27.0313 Z " fill="#000000"/><text fill="#000000" font-family="sans-serif" font-size="14" lengthAdjust="spacing" textLength="32" x="303.5" y="27.8467">User</text><line style="stroke:#181818;stroke-width:0.5;" x1="275.5" x2="337.5" y1="39" y2="39"/><line style="stroke:#181818;stroke-width:0.5;" x1="275.5" x2="337.5" y1="47" y2="47"/></g><!--reverse link Instrument Profile to Service Log--><g id="link_Instrument Profile_Service Log"><path codeLine="1" d="M91.32,68 C94.83,79.46 99.75,91.8 106.5,102 C119.31,121.33 136.09,139.41 153.46,155.32 " fill="none" id="Instrument Profile-backto-Service Log" style="stroke:#181818;stroke-width:1.0;"/><polygon fill="#181818" points="87.82,55.13,85.5364,61.97,90.9718,66.7087,93.2555,59.8687,87.82,55.13" style="stroke:#181818;stroke-width:1.0;"/><text fill="#000000" font-family="sans-serif" font-size="13" lengthAdjust="spacing" textLength="116" x="107.5" y="98.0669">instrument_profile</text></g><!--reverse link User to Service Log--><g id="link_User_Service Log"><path codeLine="2" d="M263.29,56.2 C253.34,64.01 244.05,73.64 238.5,85 C231.5,99.32 228.44,115.56 227.7,131.69 " fill="none" id="User-backto-Service Log" style="stroke:#181818;stroke-width:1.0;"/><polygon fill="#181818" points="274.21,48.45,267.002,48.6632,264.4265,55.3986,271.6345,55.1855,274.21,48.45" style="stroke:#181818;stroke-width:1.0;"/><text fill="#000000" font-family="sans-serif" font-size="13" lengthAdjust="spacing" textLength="89" x="239.5" y="98.0669">performed_by</text></g><!--reverse link User to Service Log--><g id="link_User_Service Log"><path codeLine="3" d="M330.19,67.06 C334.95,78.17 337.44,90.54 333.5,102 C330,112.19 325.21,122.19 319.65,131.77 " fill="none" id="User-backto-Service Log-1" style="stroke:#181818;stroke-width:1.0;"/><polygon fill="#181818" points="324.07,55.17,323.2635,62.3359,329.568,65.8364,330.3745,58.6705,324.07,55.17" style="stroke:#181818;stroke-width:1.0;"/><text fill="#000000" font-family="sans-serif" font-size="13" lengthAdjust="spacing" textLength="65" x="336.5" y="98.0669">logged_by</text></g><!--SRC=[VOx12i8m44JlViKIRq9lOi6hlGWz2DLpYEqs19Cc9AjOn7yt9KLgAHvtvitii6CNoDyDTWGdRrkbaS4cou1Lw1-gHYYjPB07zUMuIzoANGBwPTgXRwqtsF1h_u_JLie4rLg4CFFN-Qx83rjuhM3XVuoNghj5hy5GU-L8sIwAbH5QmncV5AsG-ZZrRWWKWaHKf_CcDO961kCLf_7upVVpIb860mdZHdQu4oz_2jyV]--></g></svg>