<?xml version="1.0" encoding="us-ascii" standalone="no"?><svg xmlns="http://www.w3.org/2000/svg" xmlns:xlink="http://www.w3.org/1999/xlink" contentStyleType="text/css" height="268px" preserveAspectRatio="none" style="width:249px;height:268px;background:#FFFFFF;" version="1.1" viewBox="0 0 249 268" width="249px" zoomAndPan="magnify"><defs/><g><!--class Instrument--><g id="elem_Instrument"><rect fill="#F1F1F1" height="48" id="Instrument" rx="2.5" ry="2.5" style="stroke:#181818;stroke-width:0.5;" width="107" x="9" y="7"/><ellipse cx="24" cy="23" fill="#ADD1B2" rx="11" ry="11" style="stroke:#181818;stroke-width:1.0;"/><path d="M27.5156,27.0313 L27.5156,29.0625 Q26.0313,29.6719 24.2031,29.6719 Q21.4844,29.6719 20.0313,27.9375 Q18.5781,26.1875 18.5781,23.0781 Q18.5781,20.0781 20.1563,18.2969 Q21.7344,16.5 24.4531,16.5 Q26.3594,16.5 28.0938,17.4219 L27.1406,19.3281 Q25.6406,18.5469 24.4531,18.5469 Q22.8438,18.5469 21.8594,19.7656 Q20.8906,20.9688 20.8906,23.0938 Q20.8906,25.3438 21.7969,26.4844 Q22.7188,27.625 24.4531,27.625 Q25.4844,27.625 27.5156,27.0313 Z " fill="#000000"/><text fill="#000000" font-family="sans-serif" font-size="14" lengthAdjust="spacing" textLength="75" x="38" y="27.8467">Instrument</text><line style="stroke:#181818;stroke-width:0.5;" x1="10" x2="115" y1="39" y2="39"/><line style="stroke:#181818;stroke-width:0.5;" x1="10" x2="115" y1="47" y2="47"/></g><!--class Instrument Condition Record--><g id="elem_Instrument Condition Record"><rect codeLine="3" fill="#F5CBA7" height="129.4844" id="Instrument Condition Record" rx="2.5" ry="2.5" style="stroke:#181818;stroke-width:0.5;" width="231" x="7" y="132"/><ellipse cx="22" cy="148" fill="#ADD1B2" rx="11" ry="11" style="stroke:#181818;stroke-width:1.0;"/><path d="M25.5156,152.0313 L25.5156,154.0625 Q24.0313,154.6719 22.2031,154.6719 Q19.4844,154.6719 18.0313,152.9375 Q16.5781,151.1875 16.5781,148.0781 Q16.5781,145.0781 18.1563,143.2969 Q19.7344,141.5 22.4531,141.5 Q24.3594,141.5 26.0938,142.4219 L25.1406,144.3281 Q23.6406,143.5469 22.4531,143.5469 Q20.8438,143.5469 19.8594,144.7656 Q18.8906,145.9688 18.8906,148.0938 Q18.8906,150.3438 19.7969,151.4844 Q20.7188,152.625 22.4531,152.625 Q23.4844,152.625 25.5156,152.0313 Z " fill="#000000"/><text fill="#000000" font-family="sans-serif" font-size="14" lengthAdjust="spacing" textLength="199" x="36" y="152.8467">Instrument Condition Record</text><line style="stroke:#181818;stroke-width:0.5;" x1="8" x2="237" y1="164" y2="164"/><text fill="#000000" font-family="sans-serif" font-size="14" lengthAdjust="spacing" textLength="115" x="13" y="180.9951">instrument : Link</text><text fill="#000000" font-family="sans-serif" font-size="14" lengthAdjust="spacing" textLength="120" x="13" y="197.292">condition : Select</text><text fill="#000000" font-family="sans-serif" font-size="14" lengthAdjust="spacing" textLength="149" x="13" y="213.5889">date_of_record : Date</text><text fill="#000000" font-family="sans-serif" font-size="14" lengthAdjust="spacing" textLength="126" x="13" y="229.8857">recorded_by : Link</text><text fill="#000000" font-family="sans-serif" font-size="14" lengthAdjust="spacing" textLength="83" x="13" y="246.1826">notes : Text</text><line style="stroke:#181818;stroke-width:0.5;" x1="8" x2="237" y1="253.4844" y2="253.4844"/></g><!--class User--><g id="elem_User"><rect fill="#F1F1F1" height="48" id="User" rx="2.5" ry="2.5" style="stroke:#181818;stroke-width:0.5;" width="64" x="151.5" y="7"/><ellipse cx="166.5" cy="23" fill="#ADD1B2" rx="11" ry="11" style="stroke:#181818;stroke-width:1.0;"/><path d="M170.0156,27.0313 L170.0156,29.0625 Q168.5313,29.6719 166.7031,29.6719 Q163.9844,29.6719 162.5313,27.9375 Q161.0781,26.1875 161.0781,23.0781 Q161.0781,20.0781 162.6563,18.2969 Q164.2344,16.5 166.9531,16.5 Q168.8594,16.5 170.5938,17.4219 L169.6406,19.3281 Q168.1406,18.5469 166.9531,18.5469 Q165.3438,18.5469 164.3594,19.7656 Q163.3906,20.9688 163.3906,23.0938 Q163.3906,25.3438 164.2969,26.4844 Q165.2188,27.625 166.9531,27.625 Q167.9844,27.625 170.0156,27.0313 Z " fill="#000000"/><text fill="#000000" font-family="sans-serif" font-size="14" lengthAdjust="spacing" textLength="32" x="180.5" y="27.8467">User</text><line style="stroke:#181818;stroke-width:0.5;" x1="152.5" x2="214.5" y1="39" y2="39"/><line style="stroke:#181818;stroke-width:0.5;" x1="152.5" x2="214.5" y1="47" y2="47"/></g><!--reverse link Instrument to Instrument Condition Record--><g id="link_Instrument_Instrument Condition Record"><path codeLine="1" d="M62.6,68.41 C63.44,79.4 65.16,91.36 68.5,102 C71.65,112.01 76,122.12 80.89,131.8 " fill="none" id="Instrument-backto-Instrument Condition Record" style="stroke:#181818;stroke-width:1.0;"/><polygon fill="#181818" points="61.97,55.19,58.2648,61.3764,62.5502,67.176,66.2554,60.9896,61.97,55.19" style="stroke:#181818;stroke-width:1.0;"/><text fill="#000000" font-family="sans-serif" font-size="13" lengthAdjust="spacing" textLength="70" x="69.5" y="98.0669">instrument</text></g><!--reverse link User to Instrument Condition Record--><g id="link_User_Instrument Condition Record"><path codeLine="2" d="M170.34,67.28 C163.29,86.16 154.4,110 146.2,131.98 " fill="none" id="User-backto-Instrument Condition Record" style="stroke:#181818;stroke-width:1.0;"/><polygon fill="#181818" points="174.89,55.08,169.0461,59.3048,170.6982,66.3241,176.5421,62.0993,174.89,55.08" style="stroke:#181818;stroke-width:1.0;"/><text fill="#000000" font-family="sans-serif" font-size="13" lengthAdjust="spacing" textLength="79" x="162.5" y="98.0669">recorded_by</text></g><!--SRC=[ZOsx2W9134Nx-OeGEs5B4RRJ5K6myb4Fwqo4mJK3amYA-Ey6XTtjj4lEvTw36nOjjokn8aoh2d00q6IEILDcs5789IBKaFhOuL6e_DSgdukYFprSw5gH7ut9UjOi5tDuEXWPRMYR-68iz8qQzjHHK8EnLVBvxByoIrO6Z8_amm9d9R7tG7TrhpS0]--></g></svg>