<?xml version="1.0" encoding="us-ascii" standalone="no"?><svg xmlns="http://www.w3.org/2000/svg" xmlns:xlink="http://www.w3.org/1999/xlink" contentStyleType="text/css" height="431px" preserveAspectRatio="none" style="width:1010px;height:431px;background:#FFFFFF;" version="1.1" viewBox="0 0 1010 431" width="1010px" zoomAndPan="magnify"><defs/><g><!--class Quality Procedure--><g id="elem_Quality Procedure"><rect fill="#F1F1F1" height="48" id="Quality Procedure" rx="2.5" ry="2.5" style="stroke:#181818;stroke-width:0.5;" width="154" x="7" y="7"/><ellipse cx="22" cy="23" fill="#ADD1B2" rx="11" ry="11" style="stroke:#181818;stroke-width:1.0;"/><path d="M25.5156,27.0313 L25.5156,29.0625 Q24.0313,29.6719 22.2031,29.6719 Q19.4844,29.6719 18.0313,27.9375 Q16.5781,26.1875 16.5781,23.0781 Q16.5781,20.0781 18.1563,18.2969 Q19.7344,16.5 22.4531,16.5 Q24.3594,16.5 26.0938,17.4219 L25.1406,19.3281 Q23.6406,18.5469 22.4531,18.5469 Q20.8438,18.5469 19.8594,19.7656 Q18.8906,20.9688 18.8906,23.0938 Q18.8906,25.3438 19.7969,26.4844 Q20.7188,27.625 22.4531,27.625 Q23.4844,27.625 25.5156,27.0313 Z " fill="#000000"/><text fill="#000000" font-family="sans-serif" font-size="14" lengthAdjust="spacing" textLength="122" x="36" y="27.8467">Quality Procedure</text><line style="stroke:#181818;stroke-width:0.5;" x1="8" x2="160" y1="39" y2="39"/><line style="stroke:#181818;stroke-width:0.5;" x1="8" x2="160" y1="47" y2="47"/></g><!--class Inspection Report--><g id="elem_Inspection Report"><rect codeLine="6" fill="#AED6F1" height="292.4531" id="Inspection Report" rx="2.5" ry="2.5" style="stroke:#181818;stroke-width:0.5;" width="256" x="336" y="132"/><ellipse cx="398.25" cy="148" fill="#ADD1B2" rx="11" ry="11" style="stroke:#181818;stroke-width:1.0;"/><path d="M401.7656,152.0313 L401.7656,154.0625 Q400.2813,154.6719 398.4531,154.6719 Q395.7344,154.6719 394.2813,152.9375 Q392.8281,151.1875 392.8281,148.0781 Q392.8281,145.0781 394.4063,143.2969 Q395.9844,141.5 398.7031,141.5 Q400.6094,141.5 402.3438,142.4219 L401.3906,144.3281 Q399.8906,143.5469 398.7031,143.5469 Q397.0938,143.5469 396.1094,144.7656 Q395.1406,145.9688 395.1406,148.0938 Q395.1406,150.3438 396.0469,151.4844 Q396.9688,152.625 398.7031,152.625 Q399.7344,152.625 401.7656,152.0313 Z " fill="#000000"/><text fill="#000000" font-family="sans-serif" font-size="14" lengthAdjust="spacing" textLength="123" x="418.75" y="152.8467">Inspection Report</text><line style="stroke:#181818;stroke-width:0.5;" x1="337" x2="591" y1="164" y2="164"/><text fill="#000000" font-family="sans-serif" font-size="14" lengthAdjust="spacing" textLength="156" x="342" y="180.9951">inspection_date : Date</text><text fill="#000000" font-family="sans-serif" font-size="14" lengthAdjust="spacing" textLength="139" x="342" y="197.292">instrument_id : Data</text><text fill="#000000" font-family="sans-serif" font-size="14" lengthAdjust="spacing" textLength="157" x="342" y="213.5889">customer_name : Data</text><text fill="#000000" font-family="sans-serif" font-size="14" lengthAdjust="spacing" textLength="165" x="342" y="229.8857">inspection_type : Select</text><text fill="#000000" font-family="sans-serif" font-size="14" lengthAdjust="spacing" textLength="112" x="342" y="246.1826">procedure : Link</text><text fill="#000000" font-family="sans-serif" font-size="14" lengthAdjust="spacing" textLength="99" x="342" y="262.4795">status : Select</text><text fill="#000000" font-family="sans-serif" font-size="14" lengthAdjust="spacing" textLength="216" x="342" y="278.7764">preliminary_estimate : Currency</text><text fill="#000000" font-family="sans-serif" font-size="14" lengthAdjust="spacing" textLength="164" x="342" y="295.0732">clarinet_intake_ref : Link</text><text fill="#000000" font-family="sans-serif" font-size="14" lengthAdjust="spacing" textLength="244" x="342" y="311.3701">legacy_clarinet_inspection_id : Data</text><text fill="#000000" font-family="sans-serif" font-size="14" lengthAdjust="spacing" textLength="191" x="342" y="327.667">inspection_checklist : Table</text><text fill="#000000" font-family="sans-serif" font-size="14" lengthAdjust="spacing" textLength="184" x="342" y="343.9639">inspection_findings : Table</text><text fill="#000000" font-family="sans-serif" font-size="14" lengthAdjust="spacing" textLength="148" x="342" y="360.2607">qc_certificate : Attach</text><text fill="#000000" font-family="sans-serif" font-size="14" lengthAdjust="spacing" textLength="214" x="342" y="376.5576">non_conformance_report : Link</text><text fill="#000000" font-family="sans-serif" font-size="14" lengthAdjust="spacing" textLength="191" x="342" y="392.8545">digital_signature : Signature</text><text fill="#000000" font-family="sans-serif" font-size="14" lengthAdjust="spacing" textLength="199" x="342" y="409.1514">flag_for_reinspection : Check</text><line style="stroke:#181818;stroke-width:0.5;" x1="337" x2="591" y1="416.4531" y2="416.4531"/></g><!--class Clarinet Intake--><g id="elem_Clarinet Intake"><rect fill="#F1F1F1" height="48" id="Clarinet Intake" rx="2.5" ry="2.5" style="stroke:#181818;stroke-width:0.5;" width="130" x="196" y="7"/><ellipse cx="211" cy="23" fill="#ADD1B2" rx="11" ry="11" style="stroke:#181818;stroke-width:1.0;"/><path d="M214.5156,27.0313 L214.5156,29.0625 Q213.0313,29.6719 211.2031,29.6719 Q208.4844,29.6719 207.0313,27.9375 Q205.5781,26.1875 205.5781,23.0781 Q205.5781,20.0781 207.1563,18.2969 Q208.7344,16.5 211.4531,16.5 Q213.3594,16.5 215.0938,17.4219 L214.1406,19.3281 Q212.6406,18.5469 211.4531,18.5469 Q209.8438,18.5469 208.8594,19.7656 Q207.8906,20.9688 207.8906,23.0938 Q207.8906,25.3438 208.7969,26.4844 Q209.7188,27.625 211.4531,27.625 Q212.4844,27.625 214.5156,27.0313 Z " fill="#000000"/><text fill="#000000" font-family="sans-serif" font-size="14" lengthAdjust="spacing" textLength="98" x="225" y="27.8467">Clarinet Intake</text><line style="stroke:#181818;stroke-width:0.5;" x1="197" x2="325" y1="39" y2="39"/><line style="stroke:#181818;stroke-width:0.5;" x1="197" x2="325" y1="47" y2="47"/></g><!--class Inspection Checklist Item--><g id="elem_Inspection Checklist Item"><rect fill="#F1F1F1" height="48" id="Inspection Checklist Item" rx="2.5" ry="2.5" style="stroke:#181818;stroke-width:0.5;" width="205" x="361.5" y="7"/><ellipse cx="376.5" cy="23" fill="#ADD1B2" rx="11" ry="11" style="stroke:#181818;stroke-width:1.0;"/><path d="M380.0156,27.0313 L380.0156,29.0625 Q378.5313,29.6719 376.7031,29.6719 Q373.9844,29.6719 372.5313,27.9375 Q371.0781,26.1875 371.0781,23.0781 Q371.0781,20.0781 372.6563,18.2969 Q374.2344,16.5 376.9531,16.5 Q378.8594,16.5 380.5938,17.4219 L379.6406,19.3281 Q378.1406,18.5469 376.9531,18.5469 Q375.3438,18.5469 374.3594,19.7656 Q373.3906,20.9688 373.3906,23.0938 Q373.3906,25.3438 374.2969,26.4844 Q375.2188,27.625 376.9531,27.625 Q377.9844,27.625 380.0156,27.0313 Z " fill="#000000"/><text fill="#000000" font-family="sans-serif" font-size="14" lengthAdjust="spacing" textLength="173" x="390.5" y="27.8467">Inspection Checklist Item</text><line style="stroke:#181818;stroke-width:0.5;" x1="362.5" x2="565.5" y1="39" y2="39"/><line style="stroke:#181818;stroke-width:0.5;" x1="362.5" x2="565.5" y1="47" y2="47"/></g><!--class Inspection Finding--><g id="elem_Inspection Finding"><rect fill="#F1F1F1" height="48" id="Inspection Finding" rx="2.5" ry="2.5" style="stroke:#181818;stroke-width:0.5;" width="158" x="602" y="7"/><ellipse cx="617" cy="23" fill="#ADD1B2" rx="11" ry="11" style="stroke:#181818;stroke-width:1.0;"/><path d="M620.5156,27.0313 L620.5156,29.0625 Q619.0313,29.6719 617.2031,29.6719 Q614.4844,29.6719 613.0313,27.9375 Q611.5781,26.1875 611.5781,23.0781 Q611.5781,20.0781 613.1563,18.2969 Q614.7344,16.5 617.4531,16.5 Q619.3594,16.5 621.0938,17.4219 L620.1406,19.3281 Q618.6406,18.5469 617.4531,18.5469 Q615.8438,18.5469 614.8594,19.7656 Q613.8906,20.9688 613.8906,23.0938 Q613.8906,25.3438 614.7969,26.4844 Q615.7188,27.625 617.4531,27.625 Q618.4844,27.625 620.5156,27.0313 Z " fill="#000000"/><text fill="#000000" font-family="sans-serif" font-size="14" lengthAdjust="spacing" textLength="126" x="631" y="27.8467">Inspection Finding</text><line style="stroke:#181818;stroke-width:0.5;" x1="603" x2="759" y1="39" y2="39"/><line style="stroke:#181818;stroke-width:0.5;" x1="603" x2="759" y1="47" y2="47"/></g><!--class Non Conformance Report--><g id="elem_Non Conformance Report"><rect fill="#F1F1F1" height="48" id="Non Conformance Report" rx="2.5" ry="2.5" style="stroke:#181818;stroke-width:0.5;" width="208" x="795" y="7"/><ellipse cx="810" cy="23" fill="#ADD1B2" rx="11" ry="11" style="stroke:#181818;stroke-width:1.0;"/><path d="M813.5156,27.0313 L813.5156,29.0625 Q812.0313,29.6719 810.2031,29.6719 Q807.4844,29.6719 806.0313,27.9375 Q804.5781,26.1875 804.5781,23.0781 Q804.5781,20.0781 806.1563,18.2969 Q807.7344,16.5 810.4531,16.5 Q812.3594,16.5 814.0938,17.4219 L813.1406,19.3281 Q811.6406,18.5469 810.4531,18.5469 Q808.8438,18.5469 807.8594,19.7656 Q806.8906,20.9688 806.8906,23.0938 Q806.8906,25.3438 807.7969,26.4844 Q808.7188,27.625 810.4531,27.625 Q811.4844,27.625 813.5156,27.0313 Z " fill="#000000"/><text fill="#000000" font-family="sans-serif" font-size="14" lengthAdjust="spacing" textLength="176" x="824" y="27.8467">Non Conformance Report</text><line style="stroke:#181818;stroke-width:0.5;" x1="796" x2="1002" y1="39" y2="39"/><line style="stroke:#181818;stroke-width:0.5;" x1="796" x2="1002" y1="47" y2="47"/></g><!--reverse link Quality Procedure to Inspection Report--><g id="link_Quality Procedure_Inspection Report"><path codeLine="1" d="M130.72,62.12 C181.62,94.94 265.24,148.85 335.99,194.47 " fill="none" id="Quality Procedure-backto-Inspection Report" style="stroke:#181818;stroke-width:1.0;"/><polygon fill="#181818" points="119.75,55.05,122.6266,61.6625,129.8369,61.5504,126.9602,54.9379,119.75,55.05" style="stroke:#181818;stroke-width:1.0;"/><text fill="#000000" font-family="sans-serif" font-size="13" lengthAdjust="spacing" textLength="65" x="187" y="98.0669">procedure</text></g><!--reverse link Clarinet Intake to Inspection Report--><g id="link_Clarinet Intake_Inspection Report"><path codeLine="2" d="M288.54,65.23 C303.46,83.24 323.05,106.89 343.72,131.83 " fill="none" id="Clarinet Intake-backto-Inspection Report" style="stroke:#181818;stroke-width:1.0;"/><polygon fill="#181818" points="280.1,55.05,280.843,62.2227,287.7497,64.2956,287.0067,57.1229,280.1,55.05" style="stroke:#181818;stroke-width:1.0;"/><text fill="#000000" font-family="sans-serif" font-size="13" lengthAdjust="spacing" textLength="117" x="316" y="98.0669">clarinet_intake_ref</text></g><!--reverse link Inspection Checklist Item to Inspection Report--><g id="link_Inspection Checklist Item_Inspection Report"><path codeLine="3" d="M464,68.07 C464,85.69 464,108.18 464,131.83 " fill="none" id="Inspection Checklist Item-backto-Inspection Report" style="stroke:#181818;stroke-width:1.0;"/><polygon fill="#181818" points="464,55.05,460,61.05,464,67.05,468,61.05,464,55.05" style="stroke:#181818;stroke-width:1.0;"/><text fill="#000000" font-family="sans-serif" font-size="13" lengthAdjust="spacing" textLength="127" x="465" y="98.0669">inspection_checklist</text></g><!--reverse link Inspection Finding to Inspection Report--><g id="link_Inspection Finding_Inspection Report"><path codeLine="4" d="M651.95,64.79 C635.83,83 614.53,107.05 592.07,132.4 " fill="none" id="Inspection Finding-backto-Inspection Report" style="stroke:#181818;stroke-width:1.0;"/><polygon fill="#181818" points="660.59,55.05,653.6162,56.8846,652.6275,64.0276,659.6013,62.193,660.59,55.05" style="stroke:#181818;stroke-width:1.0;"/><text fill="#000000" font-family="sans-serif" font-size="13" lengthAdjust="spacing" textLength="121" x="629" y="98.0669">inspection_findings</text></g><!--reverse link Non Conformance Report to Inspection Report--><g id="link_Non Conformance Report_Inspection Report"><path codeLine="5" d="M846.54,61.55 C783.93,96.81 677.05,157.01 592.15,204.82 " fill="none" id="Non Conformance Report-backto-Inspection Report" style="stroke:#181818;stroke-width:1.0;"/><polygon fill="#181818" points="858.08,55.05,850.8895,54.5048,847.6207,60.9325,854.8112,61.4777,858.08,55.05" style="stroke:#181818;stroke-width:1.0;"/><text fill="#000000" font-family="sans-serif" font-size="13" lengthAdjust="spacing" textLength="161" x="794" y="98.0669">non_conformance_report</text></g><!--SRC=[ZL4xJyCm4DxpAwom8NLWOM2hMYfLgX1GTiiub_HK-nBion0X_ZldXZmgIiLawtlvEr_-qXg7tAddK5iesW2vkbqiLBwbs81bh4czGbC7pjM3QWPHbg-S2KZ0QajiZbTTzaUgyIJL0SfihbmTm1uTHibYyDUIS0Ir7KndKHka0gdwPqRPgsEMFwKQDPLry8OiZFA_OoXrc1moL68ocJN6YvQRvUFwVdEdFZCrxr0O1ebRoz4J75eF99zLzB0HsBQHQmz1a_4mmRCOxff4xC498DIuAG5tI4U18Xjkuxa877ea4peDaT7tNLPj242sIm__NjqKwA0ojjCppLXdNlxIqeHzC-yEpkbX7pFsmseBWR54svTRCXjx4ERo0gPs1LR8nkc85SdWfv_O3tVXIsSgBMunJXNIzAbZzlKD]--></g></svg>