<?xml version="1.0" encoding="us-ascii" standalone="no"?><svg xmlns="http://www.w3.org/2000/svg" xmlns:xlink="http://www.w3.org/1999/xlink" contentStyleType="text/css" height="166px" preserveAspectRatio="none" style="width:193px;height:166px;background:#FFFFFF;" version="1.1" viewBox="0 0 193 166" width="193px" zoomAndPan="magnify"><defs/><g><!--class Client Profile Type--><g id="elem_Client Profile Type"><rect codeLine="1" fill="#D2B4DE" height="145.7813" id="Client Profile Type" rx="2.5" ry="2.5" style="stroke:#181818;stroke-width:0.5;" width="172" x="7" y="7"/><ellipse cx="29.65" cy="23" fill="#ADD1B2" rx="11" ry="11" style="stroke:#181818;stroke-width:1.0;"/><path d="M33.1656,27.0313 L33.1656,29.0625 Q31.6813,29.6719 29.8531,29.6719 Q27.1344,29.6719 25.6813,27.9375 Q24.2281,26.1875 24.2281,23.0781 Q24.2281,20.0781 25.8063,18.2969 Q27.3844,16.5 30.1031,16.5 Q32.0094,16.5 33.7438,17.4219 L32.7906,19.3281 Q31.2906,18.5469 30.1031,18.5469 Q28.4938,18.5469 27.5094,19.7656 Q26.5406,20.9688 26.5406,23.0938 Q26.5406,25.3438 27.4469,26.4844 Q28.3688,27.625 30.1031,27.625 Q31.1344,27.625 33.1656,27.0313 Z " fill="#000000"/><text fill="#000000" font-family="sans-serif" font-size="14" lengthAdjust="spacing" textLength="123" x="45.35" y="27.8467">Client Profile Type</text><line style="stroke:#181818;stroke-width:0.5;" x1="8" x2="178" y1="39" y2="39"/><text fill="#000000" font-family="sans-serif" font-size="14" lengthAdjust="spacing" textLength="145" x="13" y="55.9951">naming_series : Data</text><text fill="#000000" font-family="sans-serif" font-size="14" lengthAdjust="spacing" textLength="121" x="13" y="72.292">type_name : Data</text><text fill="#000000" font-family="sans-serif" font-size="14" lengthAdjust="spacing" textLength="122" x="13" y="88.5889">is_default : Check</text><text fill="#000000" font-family="sans-serif" font-size="14" lengthAdjust="spacing" textLength="145" x="13" y="104.8857">portal_visible : Check</text><text fill="#000000" font-family="sans-serif" font-size="14" lengthAdjust="spacing" textLength="160" x="13" y="121.1826">description : Small Text</text><text fill="#000000" font-family="sans-serif" font-size="14" lengthAdjust="spacing" textLength="83" x="13" y="137.4795">color : Color</text><line style="stroke:#181818;stroke-width:0.5;" x1="8" x2="178" y1="144.7813" y2="144.7813"/></g><!--SRC=[JSen3i8m38NXlQUmoWqG4oCDEnBT8vEwOE4cLUmY4EBkk1DCJ_h-bmHLeUs4AHkSQXbP2FhNJ2rimlQm2qTuDm0P9yxNg5IP5FOGqD3P_1YzqOzOuq0ZBc9ktOtItN4krL3YWvKlGdzX84sLP-EINSyJYa1FJ_EKYfIwNjTjFby0]--></g></svg>