<?xml version="1.0" encoding="us-ascii" standalone="no"?><svg xmlns="http://www.w3.org/2000/svg" xmlns:xlink="http://www.w3.org/1999/xlink" contentStyleType="text/css" height="101px" preserveAspectRatio="none" style="width:220px;height:101px;background:#FFFFFF;" version="1.1" viewBox="0 0 220 101" width="220px" zoomAndPan="magnify"><defs/><g><!--class Upgrade Option--><g id="elem_Upgrade Option"><rect codeLine="1" fill="#A9DFBF" height="80.5938" id="Upgrade Option" rx="2.5" ry="2.5" style="stroke:#181818;stroke-width:0.5;" width="199" x="7" y="7"/><ellipse cx="48.1" cy="23" fill="#ADD1B2" rx="11" ry="11" style="stroke:#181818;stroke-width:1.0;"/><path d="M51.6156,27.0313 L51.6156,29.0625 Q50.1313,29.6719 48.3031,29.6719 Q45.5844,29.6719 44.1313,27.9375 Q42.6781,26.1875 42.6781,23.0781 Q42.6781,20.0781 44.2563,18.2969 Q45.8344,16.5 48.5531,16.5 Q50.4594,16.5 52.1938,17.4219 L51.2406,19.3281 Q49.7406,18.5469 48.5531,18.5469 Q46.9438,18.5469 45.9594,19.7656 Q44.9906,20.9688 44.9906,23.0938 Q44.9906,25.3438 45.8969,26.4844 Q46.8188,27.625 48.5531,27.625 Q49.5844,27.625 51.6156,27.0313 Z " fill="#000000"/><text fill="#000000" font-family="sans-serif" font-size="14" lengthAdjust="spacing" textLength="109" x="67.9" y="27.8467">Upgrade Option</text><line style="stroke:#181818;stroke-width:0.5;" x1="8" x2="205" y1="39" y2="39"/><text fill="#000000" font-family="sans-serif" font-size="14" lengthAdjust="spacing" textLength="187" x="13" y="55.9951">upgrade_description : Data</text><text fill="#000000" font-family="sans-serif" font-size="14" lengthAdjust="spacing" textLength="123" x="13" y="72.292">notes : Small Text</text><line style="stroke:#181818;stroke-width:0.5;" x1="8" x2="205" y1="79.5938" y2="79.5938"/></g><!--SRC=[Iyv9B2vMK0ejI2zAJ4bLy2yeoSpFKr9GThHqSNDoKwZcKb0eXSZ5fwGM9nTbWXKeM2cu99Oa0YNpyajIYu7SuDp4d1o5aDIA4gvQ0000]--></g></svg>