<?xml version="1.0" encoding="us-ascii" standalone="no"?><svg xmlns="http://www.w3.org/2000/svg" xmlns:xlink="http://www.w3.org/1999/xlink" contentStyleType="text/css" height="117px" preserveAspectRatio="none" style="width:190px;height:117px;background:#FFFFFF;" version="1.1" viewBox="0 0 190 117" width="190px" zoomAndPan="magnify"><defs/><g><!--class Qa Checklist Item--><g id="elem_Qa Checklist Item"><rect codeLine="1" fill="#F7DC6F" height="96.8906" id="Qa Checklist Item" rx="2.5" ry="2.5" style="stroke:#181818;stroke-width:0.5;" width="169" x="7" y="7"/><ellipse cx="29.65" cy="23" fill="#ADD1B2" rx="11" ry="11" style="stroke:#181818;stroke-width:1.0;"/><path d="M33.1656,27.0313 L33.1656,29.0625 Q31.6813,29.6719 29.8531,29.6719 Q27.1344,29.6719 25.6813,27.9375 Q24.2281,26.1875 24.2281,23.0781 Q24.2281,20.0781 25.8063,18.2969 Q27.3844,16.5 30.1031,16.5 Q32.0094,16.5 33.7438,17.4219 L32.7906,19.3281 Q31.2906,18.5469 30.1031,18.5469 Q28.4938,18.5469 27.5094,19.7656 Q26.5406,20.9688 26.5406,23.0938 Q26.5406,25.3438 27.4469,26.4844 Q28.3688,27.625 30.1031,27.625 Q31.1344,27.625 33.1656,27.0313 Z " fill="#000000"/><text fill="#000000" font-family="sans-serif" font-size="14" lengthAdjust="spacing" textLength="120" x="45.35" y="27.8467">Qa Checklist Item</text><line style="stroke:#181818;stroke-width:0.5;" x1="8" x2="175" y1="39" y2="39"/><text fill="#000000" font-family="sans-serif" font-size="14" lengthAdjust="spacing" textLength="124" x="13" y="55.9951">check_item : Data</text><text fill="#000000" font-family="sans-serif" font-size="14" lengthAdjust="spacing" textLength="108" x="13" y="72.292">passed : Check</text><text fill="#000000" font-family="sans-serif" font-size="14" lengthAdjust="spacing" textLength="157" x="13" y="88.5889">comments : Small Text</text><line style="stroke:#181818;stroke-width:0.5;" x1="8" x2="175" y1="95.8906" y2="95.8906"/></g><!--SRC=[Iyv9B2vMK0fCL73EI4tEpiaiBb7mB4dDLL9GTZDtSJPpKwZcKb181id5PmB55QmKN19B4e5Y1K2DgIb0FbWZI55-RcvgNaanK2WuDp4dHo4ajQA4gnO0]--></g></svg>