<?xml version="1.0" encoding="us-ascii" standalone="no"?><svg xmlns="http://www.w3.org/2000/svg" xmlns:xlink="http://www.w3.org/1999/xlink" contentStyleType="text/css" height="235px" preserveAspectRatio="none" style="width:171px;height:235px;background:#FFFFFF;" version="1.1" viewBox="0 0 171 235" width="171px" zoomAndPan="magnify"><defs/><g><!--class User--><g id="elem_User"><rect fill="#F1F1F1" height="48" id="User" rx="2.5" ry="2.5" style="stroke:#181818;stroke-width:0.5;" width="64" x="53.5" y="7"/><ellipse cx="68.5" cy="23" fill="#ADD1B2" rx="11" ry="11" style="stroke:#181818;stroke-width:1.0;"/><path d="M72.0156,27.0313 L72.0156,29.0625 Q70.5313,29.6719 68.7031,29.6719 Q65.9844,29.6719 64.5313,27.9375 Q63.0781,26.1875 63.0781,23.0781 Q63.0781,20.0781 64.6563,18.2969 Q66.2344,16.5 68.9531,16.5 Q70.8594,16.5 72.5938,17.4219 L71.6406,19.3281 Q70.1406,18.5469 68.9531,18.5469 Q67.3438,18.5469 66.3594,19.7656 Q65.3906,20.9688 65.3906,23.0938 Q65.3906,25.3438 66.2969,26.4844 Q67.2188,27.625 68.9531,27.625 Q69.9844,27.625 72.0156,27.0313 Z " fill="#000000"/><text fill="#000000" font-family="sans-serif" font-size="14" lengthAdjust="spacing" textLength="32" x="82.5" y="27.8467">User</text><line style="stroke:#181818;stroke-width:0.5;" x1="54.5" x2="116.5" y1="39" y2="39"/><line style="stroke:#181818;stroke-width:0.5;" x1="54.5" x2="116.5" y1="47" y2="47"/></g><!--class Repair Note--><g id="elem_Repair Note"><rect codeLine="2" fill="#F7DC6F" height="96.8906" id="Repair Note" rx="2.5" ry="2.5" style="stroke:#181818;stroke-width:0.5;" width="157" x="7" y="132"/><ellipse cx="41.8" cy="148" fill="#ADD1B2" rx="11" ry="11" style="stroke:#181818;stroke-width:1.0;"/><path d="M45.3156,152.0313 L45.3156,154.0625 Q43.8313,154.6719 42.0031,154.6719 Q39.2844,154.6719 37.8313,152.9375 Q36.3781,151.1875 36.3781,148.0781 Q36.3781,145.0781 37.9563,143.2969 Q39.5344,141.5 42.2531,141.5 Q44.1594,141.5 45.8938,142.4219 L44.9406,144.3281 Q43.4406,143.5469 42.2531,143.5469 Q40.6438,143.5469 39.6594,144.7656 Q38.6906,145.9688 38.6906,148.0938 Q38.6906,150.3438 39.5969,151.4844 Q40.5188,152.625 42.2531,152.625 Q43.2844,152.625 45.3156,152.0313 Z " fill="#000000"/><text fill="#000000" font-family="sans-serif" font-size="14" lengthAdjust="spacing" textLength="81" x="60.2" y="152.8467">Repair Note</text><line style="stroke:#181818;stroke-width:0.5;" x1="8" x2="163" y1="164" y2="164"/><text fill="#000000" font-family="sans-serif" font-size="14" lengthAdjust="spacing" textLength="145" x="13" y="180.9951">note_time : Datetime</text><text fill="#000000" font-family="sans-serif" font-size="14" lengthAdjust="spacing" textLength="108" x="13" y="197.292">note_text : Text</text><text fill="#000000" font-family="sans-serif" font-size="14" lengthAdjust="spacing" textLength="85" x="13" y="213.5889">author : Link</text><line style="stroke:#181818;stroke-width:0.5;" x1="8" x2="163" y1="220.8906" y2="220.8906"/></g><!--reverse link User to Repair Note--><g id="link_User_Repair Note"><path codeLine="1" d="M85.5,68.11 C85.5,87.32 85.5,111.2 85.5,131.92 " fill="none" id="User-backto-Repair Note" style="stroke:#181818;stroke-width:1.0;"/><polygon fill="#181818" points="85.5,55.05,81.5,61.05,85.5,67.05,89.5,61.05,85.5,55.05" style="stroke:#181818;stroke-width:1.0;"/><text fill="#000000" font-family="sans-serif" font-size="13" lengthAdjust="spacing" textLength="42" x="86.5" y="98.0669">author</text></g><!--SRC=[KmejJYrIKj3IrLLG2aejICmiKl3BBqbLKh1II2mjoSWluahEIImkHfDKTZDtSJPpKwZcKb380uh4bsJcfWArk2IMf8AOSE7KYXAWS0YG0Wf130JoVJBpihbg0G00]--></g></svg>