<?xml version="1.0" encoding="us-ascii" standalone="no"?><svg xmlns="http://www.w3.org/2000/svg" xmlns:xlink="http://www.w3.org/1999/xlink" contentStyleType="text/css" height="301px" preserveAspectRatio="none" style="width:495px;height:301px;background:#FFFFFF;" version="1.1" viewBox="0 0 495 301" width="495px" zoomAndPan="magnify"><defs/><g><!--class Instrument Profile--><g id="elem_Instrument Profile"><rect fill="#F1F1F1" height="48" id="Instrument Profile" rx="2.5" ry="2.5" style="stroke:#181818;stroke-width:0.5;" width="153" x="7" y="7"/><ellipse cx="22" cy="23" fill="#ADD1B2" rx="11" ry="11" style="stroke:#181818;stroke-width:1.0;"/><path d="M25.5156,27.0313 L25.5156,29.0625 Q24.0313,29.6719 22.2031,29.6719 Q19.4844,29.6719 18.0313,27.9375 Q16.5781,26.1875 16.5781,23.0781 Q16.5781,20.0781 18.1563,18.2969 Q19.7344,16.5 22.4531,16.5 Q24.3594,16.5 26.0938,17.4219 L25.1406,19.3281 Q23.6406,18.5469 22.4531,18.5469 Q20.8438,18.5469 19.8594,19.7656 Q18.8906,20.9688 18.8906,23.0938 Q18.8906,25.3438 19.7969,26.4844 Q20.7188,27.625 22.4531,27.625 Q23.4844,27.625 25.5156,27.0313 Z " fill="#000000"/><text fill="#000000" font-family="sans-serif" font-size="14" lengthAdjust="spacing" textLength="121" x="36" y="27.8467">Instrument Profile</text><line style="stroke:#181818;stroke-width:0.5;" x1="8" x2="159" y1="39" y2="39"/><line style="stroke:#181818;stroke-width:0.5;" x1="8" x2="159" y1="47" y2="47"/></g><!--class Reed Match Result--><g id="elem_Reed Match Result"><rect codeLine="4" fill="#F5CBA7" height="162.0781" id="Reed Match Result" rx="2.5" ry="2.5" style="stroke:#181818;stroke-width:0.5;" width="227" x="141" y="132"/><ellipse cx="184.8" cy="148" fill="#ADD1B2" rx="11" ry="11" style="stroke:#181818;stroke-width:1.0;"/><path d="M188.3156,152.0313 L188.3156,154.0625 Q186.8313,154.6719 185.0031,154.6719 Q182.2844,154.6719 180.8313,152.9375 Q179.3781,151.1875 179.3781,148.0781 Q179.3781,145.0781 180.9563,143.2969 Q182.5344,141.5 185.2531,141.5 Q187.1594,141.5 188.8938,142.4219 L187.9406,144.3281 Q186.4406,143.5469 185.2531,143.5469 Q183.6438,143.5469 182.6594,144.7656 Q181.6906,145.9688 181.6906,148.0938 Q181.6906,150.3438 182.5969,151.4844 Q183.5188,152.625 185.2531,152.625 Q186.2844,152.625 188.3156,152.0313 Z " fill="#000000"/><text fill="#000000" font-family="sans-serif" font-size="14" lengthAdjust="spacing" textLength="131" x="205.2" y="152.8467">Reed Match Result</text><line style="stroke:#181818;stroke-width:0.5;" x1="142" x2="367" y1="164" y2="164"/><text fill="#000000" font-family="sans-serif" font-size="14" lengthAdjust="spacing" textLength="115" x="147" y="180.9951">instrument : Link</text><text fill="#000000" font-family="sans-serif" font-size="14" lengthAdjust="spacing" textLength="81" x="147" y="197.292">player : Link</text><text fill="#000000" font-family="sans-serif" font-size="14" lengthAdjust="spacing" textLength="123" x="147" y="213.5889">repair_order : Link</text><text fill="#000000" font-family="sans-serif" font-size="14" lengthAdjust="spacing" textLength="147" x="147" y="229.8857">session_type : Select</text><text fill="#000000" font-family="sans-serif" font-size="14" lengthAdjust="spacing" textLength="147" x="147" y="246.1826">json_data : Long Text</text><text fill="#000000" font-family="sans-serif" font-size="14" lengthAdjust="spacing" textLength="215" x="147" y="262.4795">plot_attachment : Attach Image</text><text fill="#000000" font-family="sans-serif" font-size="14" lengthAdjust="spacing" textLength="194" x="147" y="278.7764">recommended_reeds : Data</text><line style="stroke:#181818;stroke-width:0.5;" x1="142" x2="367" y1="286.0781" y2="286.0781"/></g><!--class Player Profile--><g id="elem_Player Profile"><rect fill="#F1F1F1" height="48" id="Player Profile" rx="2.5" ry="2.5" style="stroke:#181818;stroke-width:0.5;" width="119" x="195" y="7"/><ellipse cx="210" cy="23" fill="#ADD1B2" rx="11" ry="11" style="stroke:#181818;stroke-width:1.0;"/><path d="M213.5156,27.0313 L213.5156,29.0625 Q212.0313,29.6719 210.2031,29.6719 Q207.4844,29.6719 206.0313,27.9375 Q204.5781,26.1875 204.5781,23.0781 Q204.5781,20.0781 206.1563,18.2969 Q207.7344,16.5 210.4531,16.5 Q212.3594,16.5 214.0938,17.4219 L213.1406,19.3281 Q211.6406,18.5469 210.4531,18.5469 Q208.8438,18.5469 207.8594,19.7656 Q206.8906,20.9688 206.8906,23.0938 Q206.8906,25.3438 207.7969,26.4844 Q208.7188,27.625 210.4531,27.625 Q211.4844,27.625 213.5156,27.0313 Z " fill="#000000"/><text fill="#000000" font-family="sans-serif" font-size="14" lengthAdjust="spacing" textLength="87" x="224" y="27.8467">Player Profile</text><line style="stroke:#181818;stroke-width:0.5;" x1="196" x2="313" y1="39" y2="39"/><line style="stroke:#181818;stroke-width:0.5;" x1="196" x2="313" y1="47" y2="47"/></g><!--class Repair Request--><g id="elem_Repair Request"><rect fill="#F1F1F1" height="48" id="Repair Request" rx="2.5" ry="2.5" style="stroke:#181818;stroke-width:0.5;" width="139" x="349" y="7"/><ellipse cx="364" cy="23" fill="#ADD1B2" rx="11" ry="11" style="stroke:#181818;stroke-width:1.0;"/><path d="M367.5156,27.0313 L367.5156,29.0625 Q366.0313,29.6719 364.2031,29.6719 Q361.4844,29.6719 360.0313,27.9375 Q358.5781,26.1875 358.5781,23.0781 Q358.5781,20.0781 360.1563,18.2969 Q361.7344,16.5 364.4531,16.5 Q366.3594,16.5 368.0938,17.4219 L367.1406,19.3281 Q365.6406,18.5469 364.4531,18.5469 Q362.8438,18.5469 361.8594,19.7656 Q360.8906,20.9688 360.8906,23.0938 Q360.8906,25.3438 361.7969,26.4844 Q362.7188,27.625 364.4531,27.625 Q365.4844,27.625 367.5156,27.0313 Z " fill="#000000"/><text fill="#000000" font-family="sans-serif" font-size="14" lengthAdjust="spacing" textLength="107" x="378" y="27.8467">Repair Request</text><line style="stroke:#181818;stroke-width:0.5;" x1="350" x2="487" y1="39" y2="39"/><line style="stroke:#181818;stroke-width:0.5;" x1="350" x2="487" y1="47" y2="47"/></g><!--reverse link Instrument Profile to Reed Match Result--><g id="link_Instrument Profile_Reed Match Result"><path codeLine="1" d="M114.6,64.74 C132.51,83.59 155.88,108.19 178.37,131.86 " fill="none" id="Instrument Profile-backto-Reed Match Result" style="stroke:#181818;stroke-width:1.0;"/><polygon fill="#181818" points="105.51,55.16,106.7425,62.265,113.775,63.86,112.5425,56.755,105.51,55.16" style="stroke:#181818;stroke-width:1.0;"/><text fill="#000000" font-family="sans-serif" font-size="13" lengthAdjust="spacing" textLength="70" x="150.5" y="98.0669">instrument</text></g><!--reverse link Player Profile to Reed Match Result--><g id="link_Player Profile_Reed Match Result"><path codeLine="2" d="M254.5,68.19 C254.5,86.54 254.5,109.61 254.5,131.86 " fill="none" id="Player Profile-backto-Reed Match Result" style="stroke:#181818;stroke-width:1.0;"/><polygon fill="#181818" points="254.5,55.16,250.5,61.16,254.5,67.16,258.5,61.16,254.5,55.16" style="stroke:#181818;stroke-width:1.0;"/><text fill="#000000" font-family="sans-serif" font-size="13" lengthAdjust="spacing" textLength="39" x="255.5" y="98.0669">player</text></g><!--reverse link Repair Request to Reed Match Result--><g id="link_Repair Request_Reed Match Result"><path codeLine="3" d="M388.44,65 C371.29,83.82 348.99,108.3 327.52,131.86 " fill="none" id="Repair Request-backto-Reed Match Result" style="stroke:#181818;stroke-width:1.0;"/><polygon fill="#181818" points="397.4,55.16,390.4012,56.897,389.3128,64.0255,396.3116,62.2885,397.4,55.16" style="stroke:#181818;stroke-width:1.0;"/><text fill="#000000" font-family="sans-serif" font-size="13" lengthAdjust="spacing" textLength="78" x="370.5" y="98.0669">repair_order</text></g><!--SRC=[ZOv1Qm8n48Nl-ok6U2juB0LlMYa8BInhxs58HasRJTRCB5J4_-uqBTM3I8_ptlVU6xDAB6NiAGcq9Mz290CFqocOZiZ36uhRGKSyHZ4mW_17DwQDUA3odzHGoKRD0KDHOpyIoxr4gQJDnMlEHMI-2KvU7fyNyoSuDd3rckPVG_fKxMVuSb_NNbGcvf2JbSD0ggufaXFLFrX5ZuBVQ4vRUASlgQrPB8gWs_tEpUi1gnwtL6TSxjNov6tHhrcHfVOqfpC0]--></g></svg>