<?xml version="1.0" encoding="us-ascii" standalone="no"?><svg xmlns="http://www.w3.org/2000/svg" xmlns:xlink="http://www.w3.org/1999/xlink" contentStyleType="text/css" height="268px" preserveAspectRatio="none" style="width:251px;height:268px;background:#FFFFFF;" version="1.1" viewBox="0 0 251 268" width="251px" zoomAndPan="magnify"><defs/><g><!--class Repair Order--><g id="elem_Repair Order"><rect fill="#F1F1F1" height="48" id="Repair Order" rx="2.5" ry="2.5" style="stroke:#181818;stroke-width:0.5;" width="119" x="7" y="7"/><ellipse cx="22" cy="23" fill="#ADD1B2" rx="11" ry="11" style="stroke:#181818;stroke-width:1.0;"/><path d="M25.5156,27.0313 L25.5156,29.0625 Q24.0313,29.6719 22.2031,29.6719 Q19.4844,29.6719 18.0313,27.9375 Q16.5781,26.1875 16.5781,23.0781 Q16.5781,20.0781 18.1563,18.2969 Q19.7344,16.5 22.4531,16.5 Q24.3594,16.5 26.0938,17.4219 L25.1406,19.3281 Q23.6406,18.5469 22.4531,18.5469 Q20.8438,18.5469 19.8594,19.7656 Q18.8906,20.9688 18.8906,23.0938 Q18.8906,25.3438 19.7969,26.4844 Q20.7188,27.625 22.4531,27.625 Q23.4844,27.625 25.5156,27.0313 Z " fill="#000000"/><text fill="#000000" font-family="sans-serif" font-size="14" lengthAdjust="spacing" textLength="87" x="36" y="27.8467">Repair Order</text><line style="stroke:#181818;stroke-width:0.5;" x1="8" x2="125" y1="39" y2="39"/><line style="stroke:#181818;stroke-width:0.5;" x1="8" x2="125" y1="47" y2="47"/></g><!--class Pulse Update--><g id="elem_Pulse Update"><rect codeLine="3" fill="#F9E79F" height="129.4844" id="Pulse Update" rx="2.5" ry="2.5" style="stroke:#181818;stroke-width:0.5;" width="161" x="49" y="132"/><ellipse cx="80.65" cy="148" fill="#ADD1B2" rx="11" ry="11" style="stroke:#181818;stroke-width:1.0;"/><path d="M84.1656,152.0313 L84.1656,154.0625 Q82.6813,154.6719 80.8531,154.6719 Q78.1344,154.6719 76.6813,152.9375 Q75.2281,151.1875 75.2281,148.0781 Q75.2281,145.0781 76.8063,143.2969 Q78.3844,141.5 81.1031,141.5 Q83.0094,141.5 84.7438,142.4219 L83.7906,144.3281 Q82.2906,143.5469 81.1031,143.5469 Q79.4938,143.5469 78.5094,144.7656 Q77.5406,145.9688 77.5406,148.0938 Q77.5406,150.3438 78.4469,151.4844 Q79.3688,152.625 81.1031,152.625 Q82.1344,152.625 84.1656,152.0313 Z " fill="#000000"/><text fill="#000000" font-family="sans-serif" font-size="14" lengthAdjust="spacing" textLength="92" x="98.35" y="152.8467">Pulse Update</text><line style="stroke:#181818;stroke-width:0.5;" x1="50" x2="209" y1="164" y2="164"/><text fill="#000000" font-family="sans-serif" font-size="14" lengthAdjust="spacing" textLength="123" x="55" y="180.9951">repair_order : Link</text><text fill="#000000" font-family="sans-serif" font-size="14" lengthAdjust="spacing" textLength="99" x="55" y="197.292">status : Select</text><text fill="#000000" font-family="sans-serif" font-size="14" lengthAdjust="spacing" textLength="115" x="55" y="213.5889">note : Small Text</text><text fill="#000000" font-family="sans-serif" font-size="14" lengthAdjust="spacing" textLength="149" x="55" y="229.8857">timestamp : Datetime</text><text fill="#000000" font-family="sans-serif" font-size="14" lengthAdjust="spacing" textLength="118" x="55" y="246.1826">entered_by : Link</text><line style="stroke:#181818;stroke-width:0.5;" x1="50" x2="209" y1="253.4844" y2="253.4844"/></g><!--class User--><g id="elem_User"><rect fill="#F1F1F1" height="48" id="User" rx="2.5" ry="2.5" style="stroke:#181818;stroke-width:0.5;" width="64" x="161.5" y="7"/><ellipse cx="176.5" cy="23" fill="#ADD1B2" rx="11" ry="11" style="stroke:#181818;stroke-width:1.0;"/><path d="M180.0156,27.0313 L180.0156,29.0625 Q178.5313,29.6719 176.7031,29.6719 Q173.9844,29.6719 172.5313,27.9375 Q171.0781,26.1875 171.0781,23.0781 Q171.0781,20.0781 172.6563,18.2969 Q174.2344,16.5 176.9531,16.5 Q178.8594,16.5 180.5938,17.4219 L179.6406,19.3281 Q178.1406,18.5469 176.9531,18.5469 Q175.3438,18.5469 174.3594,19.7656 Q173.3906,20.9688 173.3906,23.0938 Q173.3906,25.3438 174.2969,26.4844 Q175.2188,27.625 176.9531,27.625 Q177.9844,27.625 180.0156,27.0313 Z " fill="#000000"/><text fill="#000000" font-family="sans-serif" font-size="14" lengthAdjust="spacing" textLength="32" x="190.5" y="27.8467">User</text><line style="stroke:#181818;stroke-width:0.5;" x1="162.5" x2="224.5" y1="39" y2="39"/><line style="stroke:#181818;stroke-width:0.5;" x1="162.5" x2="224.5" y1="47" y2="47"/></g><!--reverse link Repair Order to Pulse Update--><g id="link_Repair Order_Pulse Update"><path codeLine="1" d="M65.13,68.46 C65.63,79.45 67.11,91.4 70.5,102 C73.75,112.15 78.36,122.29 83.6,131.95 " fill="none" id="Repair Order-backto-Pulse Update" style="stroke:#181818;stroke-width:1.0;"/><polygon fill="#181818" points="64.94,55.23,61.0261,61.2865,65.1114,67.2288,69.0253,61.1723,64.94,55.23" style="stroke:#181818;stroke-width:1.0;"/><text fill="#000000" font-family="sans-serif" font-size="13" lengthAdjust="spacing" textLength="78" x="71.5" y="98.0669">repair_order</text></g><!--reverse link User to Pulse Update--><g id="link_User_Pulse Update"><path codeLine="2" d="M179.69,67.28 C172.3,86.16 162.97,110 154.36,131.98 " fill="none" id="User-backto-Pulse Update" style="stroke:#181818;stroke-width:1.0;"/><polygon fill="#181818" points="184.47,55.08,178.5605,59.2125,180.1022,66.2569,186.0117,62.1244,184.47,55.08" style="stroke:#181818;stroke-width:1.0;"/><text fill="#000000" font-family="sans-serif" font-size="13" lengthAdjust="spacing" textLength="72" x="171.5" y="98.0669">entered_by</text></g><!--SRC=[TOt12i8m44Jl-OebteIUfPwr9q6fzbnYEuTWaePa2uhuxsu44GMFy_RDh6uHZKsqJoEIfcLLaJxCBeEwE1g6fZMbbz9FHL6wotz514R2s9zlQd0cvrzZqTJRLTtGNT7Ng5HtDbo4PZOyPyb7E0mi94oCahrnZawu5iRMGqmVvR2HvP85Vzw_1nzF]--></g></svg>