<?xml version="1.0" encoding="us-ascii" standalone="no"?><svg xmlns="http://www.w3.org/2000/svg" xmlns:xlink="http://www.w3.org/1999/xlink" contentStyleType="text/css" height="117px" preserveAspectRatio="none" style="width:195px;height:117px;background:#FFFFFF;" version="1.1" viewBox="0 0 195 117" width="195px" zoomAndPan="magnify"><defs/><g><!--class Setup Checklist Item--><g id="elem_Setup Checklist Item"><rect codeLine="1" fill="#F9E79F" height="96.8906" id="Setup Checklist Item" rx="2.5" ry="2.5" style="stroke:#181818;stroke-width:0.5;" width="174" x="7" y="7"/><ellipse cx="22" cy="23" fill="#ADD1B2" rx="11" ry="11" style="stroke:#181818;stroke-width:1.0;"/><path d="M25.5156,27.0313 L25.5156,29.0625 Q24.0313,29.6719 22.2031,29.6719 Q19.4844,29.6719 18.0313,27.9375 Q16.5781,26.1875 16.5781,23.0781 Q16.5781,20.0781 18.1563,18.2969 Q19.7344,16.5 22.4531,16.5 Q24.3594,16.5 26.0938,17.4219 L25.1406,19.3281 Q23.6406,18.5469 22.4531,18.5469 Q20.8438,18.5469 19.8594,19.7656 Q18.8906,20.9688 18.8906,23.0938 Q18.8906,25.3438 19.7969,26.4844 Q20.7188,27.625 22.4531,27.625 Q23.4844,27.625 25.5156,27.0313 Z " fill="#000000"/><text fill="#000000" font-family="sans-serif" font-size="14" lengthAdjust="spacing" textLength="142" x="36" y="27.8467">Setup Checklist Item</text><line style="stroke:#181818;stroke-width:0.5;" x1="8" x2="180" y1="39" y2="39"/><text fill="#000000" font-family="sans-serif" font-size="14" lengthAdjust="spacing" textLength="74" x="13" y="55.9951">task : Data</text><text fill="#000000" font-family="sans-serif" font-size="14" lengthAdjust="spacing" textLength="131" x="13" y="72.292">completed : Check</text><text fill="#000000" font-family="sans-serif" font-size="14" lengthAdjust="spacing" textLength="83" x="13" y="88.5889">notes : Text</text><line style="stroke:#181818;stroke-width:0.5;" x1="8" x2="180" y1="95.8906" y2="95.8906"/></g><!--SRC=[Iyv9B2vMK0fEBIajK73EI4tEpiaiBb7mB4dDLL9GThDqDRTqKwZcKb0eIIpELh1IS4aiIGJoalDp2t9IIr9JW49WNK2nlFoIr68WFoIreeIh5W00]--></g></svg>