<?xml version="1.0" encoding="us-ascii" standalone="no"?><svg xmlns="http://www.w3.org/2000/svg" xmlns:xlink="http://www.w3.org/1999/xlink" contentStyleType="text/css" height="301px" preserveAspectRatio="none" style="width:677px;height:301px;background:#FFFFFF;" version="1.1" viewBox="0 0 677 301" width="677px" zoomAndPan="magnify"><defs/><g><!--class Instrument Profile--><g id="elem_Instrument Profile"><rect fill="#F1F1F1" height="48" id="Instrument Profile" rx="2.5" ry="2.5" style="stroke:#181818;stroke-width:0.5;" width="153" x="7" y="7"/><ellipse cx="22" cy="23" fill="#ADD1B2" rx="11" ry="11" style="stroke:#181818;stroke-width:1.0;"/><path d="M25.5156,27.0313 L25.5156,29.0625 Q24.0313,29.6719 22.2031,29.6719 Q19.4844,29.6719 18.0313,27.9375 Q16.5781,26.1875 16.5781,23.0781 Q16.5781,20.0781 18.1563,18.2969 Q19.7344,16.5 22.4531,16.5 Q24.3594,16.5 26.0938,17.4219 L25.1406,19.3281 Q23.6406,18.5469 22.4531,18.5469 Q20.8438,18.5469 19.8594,19.7656 Q18.8906,20.9688 18.8906,23.0938 Q18.8906,25.3438 19.7969,26.4844 Q20.7188,27.625 22.4531,27.625 Q23.4844,27.625 25.5156,27.0313 Z " fill="#000000"/><text fill="#000000" font-family="sans-serif" font-size="14" lengthAdjust="spacing" textLength="121" x="36" y="27.8467">Instrument Profile</text><line style="stroke:#181818;stroke-width:0.5;" x1="8" x2="159" y1="39" y2="39"/><line style="stroke:#181818;stroke-width:0.5;" x1="8" x2="159" y1="47" y2="47"/></g><!--class Impedance Snapshot--><g id="elem_Impedance Snapshot"><rect codeLine="5" fill="#F5CBA7" height="162.0781" id="Impedance Snapshot" rx="2.5" ry="2.5" style="stroke:#181818;stroke-width:0.5;" width="227" x="223" y="132"/><ellipse cx="259.6" cy="148" fill="#ADD1B2" rx="11" ry="11" style="stroke:#181818;stroke-width:1.0;"/><path d="M263.1156,152.0313 L263.1156,154.0625 Q261.6313,154.6719 259.8031,154.6719 Q257.0844,154.6719 255.6313,152.9375 Q254.1781,151.1875 254.1781,148.0781 Q254.1781,145.0781 255.7563,143.2969 Q257.3344,141.5 260.0531,141.5 Q261.9594,141.5 263.6938,142.4219 L262.7406,144.3281 Q261.2406,143.5469 260.0531,143.5469 Q258.4438,143.5469 257.4594,144.7656 Q256.4906,145.9688 256.4906,148.0938 Q256.4906,150.3438 257.3969,151.4844 Q258.3188,152.625 260.0531,152.625 Q261.0844,152.625 263.1156,152.0313 Z " fill="#000000"/><text fill="#000000" font-family="sans-serif" font-size="14" lengthAdjust="spacing" textLength="147" x="278.4" y="152.8467">Impedance Snapshot</text><line style="stroke:#181818;stroke-width:0.5;" x1="224" x2="449" y1="164" y2="164"/><text fill="#000000" font-family="sans-serif" font-size="14" lengthAdjust="spacing" textLength="115" x="229" y="180.9951">instrument : Link</text><text fill="#000000" font-family="sans-serif" font-size="14" lengthAdjust="spacing" textLength="81" x="229" y="197.292">player : Link</text><text fill="#000000" font-family="sans-serif" font-size="14" lengthAdjust="spacing" textLength="123" x="229" y="213.5889">repair_order : Link</text><text fill="#000000" font-family="sans-serif" font-size="14" lengthAdjust="spacing" textLength="147" x="229" y="229.8857">session_type : Select</text><text fill="#000000" font-family="sans-serif" font-size="14" lengthAdjust="spacing" textLength="147" x="229" y="246.1826">json_data : Long Text</text><text fill="#000000" font-family="sans-serif" font-size="14" lengthAdjust="spacing" textLength="215" x="229" y="262.4795">plot_attachment : Attach Image</text><text fill="#000000" font-family="sans-serif" font-size="14" lengthAdjust="spacing" textLength="93" x="229" y="278.7764">peaks : Table</text><line style="stroke:#181818;stroke-width:0.5;" x1="224" x2="449" y1="286.0781" y2="286.0781"/></g><!--class Player Profile--><g id="elem_Player Profile"><rect fill="#F1F1F1" height="48" id="Player Profile" rx="2.5" ry="2.5" style="stroke:#181818;stroke-width:0.5;" width="119" x="195" y="7"/><ellipse cx="210" cy="23" fill="#ADD1B2" rx="11" ry="11" style="stroke:#181818;stroke-width:1.0;"/><path d="M213.5156,27.0313 L213.5156,29.0625 Q212.0313,29.6719 210.2031,29.6719 Q207.4844,29.6719 206.0313,27.9375 Q204.5781,26.1875 204.5781,23.0781 Q204.5781,20.0781 206.1563,18.2969 Q207.7344,16.5 210.4531,16.5 Q212.3594,16.5 214.0938,17.4219 L213.1406,19.3281 Q211.6406,18.5469 210.4531,18.5469 Q208.8438,18.5469 207.8594,19.7656 Q206.8906,20.9688 206.8906,23.0938 Q206.8906,25.3438 207.7969,26.4844 Q208.7188,27.625 210.4531,27.625 Q211.4844,27.625 213.5156,27.0313 Z " fill="#000000"/><text fill="#000000" font-family="sans-serif" font-size="14" lengthAdjust="spacing" textLength="87" x="224" y="27.8467">Player Profile</text><line style="stroke:#181818;stroke-width:0.5;" x1="196" x2="313" y1="39" y2="39"/><line style="stroke:#181818;stroke-width:0.5;" x1="196" x2="313" y1="47" y2="47"/></g><!--class Repair Request--><g id="elem_Repair Request"><rect fill="#F1F1F1" height="48" id="Repair Request" rx="2.5" ry="2.5" style="stroke:#181818;stroke-width:0.5;" width="139" x="349" y="7"/><ellipse cx="364" cy="23" fill="#ADD1B2" rx="11" ry="11" style="stroke:#181818;stroke-width:1.0;"/><path d="M367.5156,27.0313 L367.5156,29.0625 Q366.0313,29.6719 364.2031,29.6719 Q361.4844,29.6719 360.0313,27.9375 Q358.5781,26.1875 358.5781,23.0781 Q358.5781,20.0781 360.1563,18.2969 Q361.7344,16.5 364.4531,16.5 Q366.3594,16.5 368.0938,17.4219 L367.1406,19.3281 Q365.6406,18.5469 364.4531,18.5469 Q362.8438,18.5469 361.8594,19.7656 Q360.8906,20.9688 360.8906,23.0938 Q360.8906,25.3438 361.7969,26.4844 Q362.7188,27.625 364.4531,27.625 Q365.4844,27.625 367.5156,27.0313 Z " fill="#000000"/><text fill="#000000" font-family="sans-serif" font-size="14" lengthAdjust="spacing" textLength="107" x="378" y="27.8467">Repair Request</text><line style="stroke:#181818;stroke-width:0.5;" x1="350" x2="487" y1="39" y2="39"/><line style="stroke:#181818;stroke-width:0.5;" x1="350" x2="487" y1="47" y2="47"/></g><!--class Impedance Peak--><g id="elem_Impedance Peak"><rect fill="#F1F1F1" height="48" id="Impedance Peak" rx="2.5" ry="2.5" style="stroke:#181818;stroke-width:0.5;" width="147" x="523" y="7"/><ellipse cx="538" cy="23" fill="#ADD1B2" rx="11" ry="11" style="stroke:#181818;stroke-width:1.0;"/><path d="M541.5156,27.0313 L541.5156,29.0625 Q540.0313,29.6719 538.2031,29.6719 Q535.4844,29.6719 534.0313,27.9375 Q532.5781,26.1875 532.5781,23.0781 Q532.5781,20.0781 534.1563,18.2969 Q535.7344,16.5 538.4531,16.5 Q540.3594,16.5 542.0938,17.4219 L541.1406,19.3281 Q539.6406,18.5469 538.4531,18.5469 Q536.8438,18.5469 535.8594,19.7656 Q534.8906,20.9688 534.8906,23.0938 Q534.8906,25.3438 535.7969,26.4844 Q536.7188,27.625 538.4531,27.625 Q539.4844,27.625 541.5156,27.0313 Z " fill="#000000"/><text fill="#000000" font-family="sans-serif" font-size="14" lengthAdjust="spacing" textLength="115" x="552" y="27.8467">Impedance Peak</text><line style="stroke:#181818;stroke-width:0.5;" x1="524" x2="669" y1="39" y2="39"/><line style="stroke:#181818;stroke-width:0.5;" x1="524" x2="669" y1="47" y2="47"/></g><!--reverse link Instrument Profile to Impedance Snapshot--><g id="link_Instrument Profile_Impedance Snapshot"><path codeLine="1" d="M126.97,62.93 C153.79,82.01 189.51,107.42 223.86,131.86 " fill="none" id="Instrument Profile-backto-Impedance Snapshot" style="stroke:#181818;stroke-width:1.0;"/><polygon fill="#181818" points="116.06,55.16,118.6295,61.8978,125.8373,62.1174,123.2678,55.3796,116.06,55.16" style="stroke:#181818;stroke-width:1.0;"/><text fill="#000000" font-family="sans-serif" font-size="13" lengthAdjust="spacing" textLength="70" x="181.5" y="98.0669">instrument</text></g><!--reverse link Player Profile to Impedance Snapshot--><g id="link_Player Profile_Impedance Snapshot"><path codeLine="2" d="M270.5,67.11 C278.93,85.63 289.65,109.17 299.99,131.86 " fill="none" id="Player Profile-backto-Impedance Snapshot" style="stroke:#181818;stroke-width:1.0;"/><polygon fill="#181818" points="265.05,55.16,263.8959,62.2781,270.0226,66.0812,271.1767,58.9631,265.05,55.16" style="stroke:#181818;stroke-width:1.0;"/><text fill="#000000" font-family="sans-serif" font-size="13" lengthAdjust="spacing" textLength="39" x="286.5" y="98.0669">player</text></g><!--reverse link Repair Request to Impedance Snapshot--><g id="link_Repair Request_Impedance Snapshot"><path codeLine="3" d="M402.5,67.11 C394.07,85.63 383.35,109.17 373.01,131.86 " fill="none" id="Repair Request-backto-Impedance Snapshot" style="stroke:#181818;stroke-width:1.0;"/><polygon fill="#181818" points="407.95,55.16,401.8233,58.9631,402.9774,66.0812,409.1041,62.2781,407.95,55.16" style="stroke:#181818;stroke-width:1.0;"/><text fill="#000000" font-family="sans-serif" font-size="13" lengthAdjust="spacing" textLength="78" x="394.5" y="98.0669">repair_order</text></g><!--reverse link Impedance Peak to Impedance Snapshot--><g id="link_Impedance Peak_Impedance Snapshot"><path codeLine="4" d="M552,62.81 C523.89,82.27 486.2,108.36 450.2,133.28 " fill="none" id="Impedance Peak-backto-Impedance Snapshot" style="stroke:#181818;stroke-width:1.0;"/><polygon fill="#181818" points="563.04,55.16,555.83,55.2875,553.1746,61.9919,560.3846,61.8644,563.04,55.16" style="stroke:#181818;stroke-width:1.0;"/><text fill="#000000" font-family="sans-serif" font-size="13" lengthAdjust="spacing" textLength="38" x="520.5" y="98.0669">peaks</text></g><!--SRC=[ZO_12i8m38RlVOfGRu974Rof80my3FK-uXQrshMrYQ28xsutnNaGyPYFxq_-wConn7DDJY2FVciiQUWF1g2pEb25hYHOEGoyzw9X3EQjAvrRl5ByAnPQLUab1JGHbdGw4ylFI6pLmiUg2NPEJdZyVIi9h4gBpD-Ltdmucqv6S5FmyKzABemx9lOisysVJJhAn6oyA-GQAD4LMIebyGCdMA5WetgtWpLTfDtgfK0HBFUlSvDsWAp67JL2qplXDMuigVi3]--></g></svg>