<?xml version="1.0" encoding="us-ascii" standalone="no"?><svg xmlns="http://www.w3.org/2000/svg" xmlns:xlink="http://www.w3.org/1999/xlink" contentStyleType="text/css" height="252px" preserveAspectRatio="none" style="width:184px;height:252px;background:#FFFFFF;" version="1.1" viewBox="0 0 184 252" width="184px" zoomAndPan="magnify"><defs/><g><!--class Employee--><g id="elem_Employee"><rect fill="#F1F1F1" height="48" id="Employee" rx="2.5" ry="2.5" style="stroke:#181818;stroke-width:0.5;" width="100" x="40.5" y="7"/><ellipse cx="55.5" cy="23" fill="#ADD1B2" rx="11" ry="11" style="stroke:#181818;stroke-width:1.0;"/><path d="M59.0156,27.0313 L59.0156,29.0625 Q57.5313,29.6719 55.7031,29.6719 Q52.9844,29.6719 51.5313,27.9375 Q50.0781,26.1875 50.0781,23.0781 Q50.0781,20.0781 51.6563,18.2969 Q53.2344,16.5 55.9531,16.5 Q57.8594,16.5 59.5938,17.4219 L58.6406,19.3281 Q57.1406,18.5469 55.9531,18.5469 Q54.3438,18.5469 53.3594,19.7656 Q52.3906,20.9688 52.3906,23.0938 Q52.3906,25.3438 53.2969,26.4844 Q54.2188,27.625 55.9531,27.625 Q56.9844,27.625 59.0156,27.0313 Z " fill="#000000"/><text fill="#000000" font-family="sans-serif" font-size="14" lengthAdjust="spacing" textLength="68" x="69.5" y="27.8467">Employee</text><line style="stroke:#181818;stroke-width:0.5;" x1="41.5" x2="139.5" y1="39" y2="39"/><line style="stroke:#181818;stroke-width:0.5;" x1="41.5" x2="139.5" y1="47" y2="47"/></g><!--class Tool Calibration Log--><g id="elem_Tool Calibration Log"><rect codeLine="2" fill="#AED6F1" height="113.1875" id="Tool Calibration Log" rx="2.5" ry="2.5" style="stroke:#181818;stroke-width:0.5;" width="167" x="7" y="132"/><ellipse cx="22" cy="148" fill="#ADD1B2" rx="11" ry="11" style="stroke:#181818;stroke-width:1.0;"/><path d="M25.5156,152.0313 L25.5156,154.0625 Q24.0313,154.6719 22.2031,154.6719 Q19.4844,154.6719 18.0313,152.9375 Q16.5781,151.1875 16.5781,148.0781 Q16.5781,145.0781 18.1563,143.2969 Q19.7344,141.5 22.4531,141.5 Q24.3594,141.5 26.0938,142.4219 L25.1406,144.3281 Q23.6406,143.5469 22.4531,143.5469 Q20.8438,143.5469 19.8594,144.7656 Q18.8906,145.9688 18.8906,148.0938 Q18.8906,150.3438 19.7969,151.4844 Q20.7188,152.625 22.4531,152.625 Q23.4844,152.625 25.5156,152.0313 Z " fill="#000000"/><text fill="#000000" font-family="sans-serif" font-size="14" lengthAdjust="spacing" textLength="135" x="36" y="152.8467">Tool Calibration Log</text><line style="stroke:#181818;stroke-width:0.5;" x1="8" x2="173" y1="164" y2="164"/><text fill="#000000" font-family="sans-serif" font-size="14" lengthAdjust="spacing" textLength="117" x="13" y="180.9951">tool_name : Data</text><text fill="#000000" font-family="sans-serif" font-size="14" lengthAdjust="spacing" textLength="154" x="13" y="197.292">calibration_date : Date</text><text fill="#000000" font-family="sans-serif" font-size="14" lengthAdjust="spacing" textLength="130" x="13" y="213.5889">calibrated_by : Link</text><text fill="#000000" font-family="sans-serif" font-size="14" lengthAdjust="spacing" textLength="110" x="13" y="229.8857">next_due : Date</text><line style="stroke:#181818;stroke-width:0.5;" x1="8" x2="173" y1="237.1875" y2="237.1875"/></g><!--reverse link Employee to Tool Calibration Log--><g id="link_Employee_Tool Calibration Log"><path codeLine="1" d="M90.5,68.39 C90.5,87.25 90.5,110.68 90.5,131.75 " fill="none" id="Employee-backto-Tool Calibration Log" style="stroke:#181818;stroke-width:1.0;"/><polygon fill="#181818" points="90.5,55.28,86.5,61.28,90.5,67.28,94.5,61.28,90.5,55.28" style="stroke:#181818;stroke-width:1.0;"/><text fill="#000000" font-family="sans-serif" font-size="13" lengthAdjust="spacing" textLength="85" x="91.5" y="98.0669">calibrated_by</text></g><!--SRC=[KtBDBSZ9hqnDLLBGqjLLK0h9pyzHS4xCoKmgIYp9pCzJyCbFLrAmKaY62gMcn2TLSYNd91ONurAixEZgOkPcg53DfQ1G0bGHdvUOcmeqmYMn914eb8nG7vy2D10Yauea0xO3AEoJcPSD5CvBhIY9Joc5Awm50000]--></g></svg>