<?xml version="1.0" encoding="us-ascii" standalone="no"?><svg xmlns="http://www.w3.org/2000/svg" xmlns:xlink="http://www.w3.org/1999/xlink" contentStyleType="text/css" height="134px" preserveAspectRatio="none" style="width:190px;height:134px;background:#FFFFFF;" version="1.1" viewBox="0 0 190 134" width="190px" zoomAndPan="magnify"><defs/><g><!--class Measurement Entry--><g id="elem_Measurement Entry"><rect codeLine="1" fill="#F5CBA7" height="113.1875" id="Measurement Entry" rx="2.5" ry="2.5" style="stroke:#181818;stroke-width:0.5;" width="169" x="7" y="7"/><ellipse cx="22.9" cy="23" fill="#ADD1B2" rx="11" ry="11" style="stroke:#181818;stroke-width:1.0;"/><path d="M26.4156,27.0313 L26.4156,29.0625 Q24.9313,29.6719 23.1031,29.6719 Q20.3844,29.6719 18.9313,27.9375 Q17.4781,26.1875 17.4781,23.0781 Q17.4781,20.0781 19.0563,18.2969 Q20.6344,16.5 23.3531,16.5 Q25.2594,16.5 26.9938,17.4219 L26.0406,19.3281 Q24.5406,18.5469 23.3531,18.5469 Q21.7438,18.5469 20.7594,19.7656 Q19.7906,20.9688 19.7906,23.0938 Q19.7906,25.3438 20.6969,26.4844 Q21.6188,27.625 23.3531,27.625 Q24.3844,27.625 26.4156,27.0313 Z " fill="#000000"/><text fill="#000000" font-family="sans-serif" font-size="14" lengthAdjust="spacing" textLength="135" x="37.1" y="27.8467">Measurement Entry</text><line style="stroke:#181818;stroke-width:0.5;" x1="8" x2="175" y1="39" y2="39"/><text fill="#000000" font-family="sans-serif" font-size="14" lengthAdjust="spacing" textLength="116" x="13" y="55.9951">parameter : Data</text><text fill="#000000" font-family="sans-serif" font-size="14" lengthAdjust="spacing" textLength="82" x="13" y="72.292">value : Float</text><text fill="#000000" font-family="sans-serif" font-size="14" lengthAdjust="spacing" textLength="71" x="13" y="88.5889">unit : Data</text><text fill="#000000" font-family="sans-serif" font-size="14" lengthAdjust="spacing" textLength="157" x="13" y="104.8857">comments : Small Text</text><line style="stroke:#181818;stroke-width:0.5;" x1="8" x2="175" y1="112.1875" y2="112.1875"/></g><!--SRC=[Iyv9B2vMKF9DJImkBKhDJSqhKN3DAocgL59GTZDrTd8qLwZcKb0eI2nAp4qjIIrIi59mIIn910gL9UQKfWAvRZdvYIL0VcbUPWb2DZa_5sHMCL0aE3Sn9qSX9BMYXAiM0000]--></g></svg>