<?xml version="1.0" encoding="us-ascii" standalone="no"?><svg xmlns="http://www.w3.org/2000/svg" xmlns:xlink="http://www.w3.org/1999/xlink" contentStyleType="text/css" height="252px" preserveAspectRatio="none" style="width:404px;height:252px;background:#FFFFFF;" version="1.1" viewBox="0 0 404 252" width="404px" zoomAndPan="magnify"><defs/><g><!--class Customer--><g id="elem_Customer"><rect fill="#F1F1F1" height="48" id="Customer" rx="2.5" ry="2.5" style="stroke:#181818;stroke-width:0.5;" width="100" x="7" y="7"/><ellipse cx="22" cy="23" fill="#ADD1B2" rx="11" ry="11" style="stroke:#181818;stroke-width:1.0;"/><path d="M25.5156,27.0313 L25.5156,29.0625 Q24.0313,29.6719 22.2031,29.6719 Q19.4844,29.6719 18.0313,27.9375 Q16.5781,26.1875 16.5781,23.0781 Q16.5781,20.0781 18.1563,18.2969 Q19.7344,16.5 22.4531,16.5 Q24.3594,16.5 26.0938,17.4219 L25.1406,19.3281 Q23.6406,18.5469 22.4531,18.5469 Q20.8438,18.5469 19.8594,19.7656 Q18.8906,20.9688 18.8906,23.0938 Q18.8906,25.3438 19.7969,26.4844 Q20.7188,27.625 22.4531,27.625 Q23.4844,27.625 25.5156,27.0313 Z " fill="#000000"/><text fill="#000000" font-family="sans-serif" font-size="14" lengthAdjust="spacing" textLength="68" x="36" y="27.8467">Customer</text><line style="stroke:#181818;stroke-width:0.5;" x1="8" x2="106" y1="39" y2="39"/><line style="stroke:#181818;stroke-width:0.5;" x1="8" x2="106" y1="47" y2="47"/></g><!--class Customer Upgrade Request--><g id="elem_Customer Upgrade Request"><rect codeLine="4" fill="#A9DFBF" height="113.1875" id="Customer Upgrade Request" rx="2.5" ry="2.5" style="stroke:#181818;stroke-width:0.5;" width="226" x="60" y="132"/><ellipse cx="75" cy="148" fill="#ADD1B2" rx="11" ry="11" style="stroke:#181818;stroke-width:1.0;"/><path d="M78.5156,152.0313 L78.5156,154.0625 Q77.0313,154.6719 75.2031,154.6719 Q72.4844,154.6719 71.0313,152.9375 Q69.5781,151.1875 69.5781,148.0781 Q69.5781,145.0781 71.1563,143.2969 Q72.7344,141.5 75.4531,141.5 Q77.3594,141.5 79.0938,142.4219 L78.1406,144.3281 Q76.6406,143.5469 75.4531,143.5469 Q73.8438,143.5469 72.8594,144.7656 Q71.8906,145.9688 71.8906,148.0938 Q71.8906,150.3438 72.7969,151.4844 Q73.7188,152.625 75.4531,152.625 Q76.4844,152.625 78.5156,152.0313 Z " fill="#000000"/><text fill="#000000" font-family="sans-serif" font-size="14" lengthAdjust="spacing" textLength="194" x="89" y="152.8467">Customer Upgrade Request</text><line style="stroke:#181818;stroke-width:0.5;" x1="61" x2="285" y1="164" y2="164"/><text fill="#000000" font-family="sans-serif" font-size="14" lengthAdjust="spacing" textLength="106" x="66" y="180.9951">customer : Link</text><text fill="#000000" font-family="sans-serif" font-size="14" lengthAdjust="spacing" textLength="112" x="66" y="197.292">item_code : Link</text><text fill="#000000" font-family="sans-serif" font-size="14" lengthAdjust="spacing" textLength="196" x="66" y="213.5889">requested_upgrades : Table</text><text fill="#000000" font-family="sans-serif" font-size="14" lengthAdjust="spacing" textLength="123" x="66" y="229.8857">notes : Small Text</text><line style="stroke:#181818;stroke-width:0.5;" x1="61" x2="285" y1="237.1875" y2="237.1875"/></g><!--class Item--><g id="elem_Item"><rect fill="#F1F1F1" height="48" id="Item" rx="2.5" ry="2.5" style="stroke:#181818;stroke-width:0.5;" width="62" x="142" y="7"/><ellipse cx="157" cy="23" fill="#ADD1B2" rx="11" ry="11" style="stroke:#181818;stroke-width:1.0;"/><path d="M160.5156,27.0313 L160.5156,29.0625 Q159.0313,29.6719 157.2031,29.6719 Q154.4844,29.6719 153.0313,27.9375 Q151.5781,26.1875 151.5781,23.0781 Q151.5781,20.0781 153.1563,18.2969 Q154.7344,16.5 157.4531,16.5 Q159.3594,16.5 161.0938,17.4219 L160.1406,19.3281 Q158.6406,18.5469 157.4531,18.5469 Q155.8438,18.5469 154.8594,19.7656 Q153.8906,20.9688 153.8906,23.0938 Q153.8906,25.3438 154.7969,26.4844 Q155.7188,27.625 157.4531,27.625 Q158.4844,27.625 160.5156,27.0313 Z " fill="#000000"/><text fill="#000000" font-family="sans-serif" font-size="14" lengthAdjust="spacing" textLength="30" x="171" y="27.8467">Item</text><line style="stroke:#181818;stroke-width:0.5;" x1="143" x2="203" y1="39" y2="39"/><line style="stroke:#181818;stroke-width:0.5;" x1="143" x2="203" y1="47" y2="47"/></g><!--class Upgrade Option--><g id="elem_Upgrade Option"><rect fill="#F1F1F1" height="48" id="Upgrade Option" rx="2.5" ry="2.5" style="stroke:#181818;stroke-width:0.5;" width="141" x="239.5" y="7"/><ellipse cx="254.5" cy="23" fill="#ADD1B2" rx="11" ry="11" style="stroke:#181818;stroke-width:1.0;"/><path d="M258.0156,27.0313 L258.0156,29.0625 Q256.5313,29.6719 254.7031,29.6719 Q251.9844,29.6719 250.5313,27.9375 Q249.0781,26.1875 249.0781,23.0781 Q249.0781,20.0781 250.6563,18.2969 Q252.2344,16.5 254.9531,16.5 Q256.8594,16.5 258.5938,17.4219 L257.6406,19.3281 Q256.1406,18.5469 254.9531,18.5469 Q253.3438,18.5469 252.3594,19.7656 Q251.3906,20.9688 251.3906,23.0938 Q251.3906,25.3438 252.2969,26.4844 Q253.2188,27.625 254.9531,27.625 Q255.9844,27.625 258.0156,27.0313 Z " fill="#000000"/><text fill="#000000" font-family="sans-serif" font-size="14" lengthAdjust="spacing" textLength="109" x="268.5" y="27.8467">Upgrade Option</text><line style="stroke:#181818;stroke-width:0.5;" x1="240.5" x2="379.5" y1="39" y2="39"/><line style="stroke:#181818;stroke-width:0.5;" x1="240.5" x2="379.5" y1="47" y2="47"/></g><!--reverse link Customer to Customer Upgrade Request--><g id="link_Customer_Customer Upgrade Request"><path codeLine="1" d="M77.82,66.2 C85.17,77.77 93.68,90.64 102,102 C109.18,111.81 117.13,121.96 125.03,131.71 " fill="none" id="Customer-backto-Customer Upgrade Request" style="stroke:#181818;stroke-width:1.0;"/><polygon fill="#181818" points="70.91,55.17,70.7056,62.3782,77.2807,65.3393,77.4851,58.1311,70.91,55.17" style="stroke:#181818;stroke-width:1.0;"/><text fill="#000000" font-family="sans-serif" font-size="13" lengthAdjust="spacing" textLength="61" x="103" y="98.0669">customer</text></g><!--reverse link Item to Customer Upgrade Request--><g id="link_Item_Customer Upgrade Request"><path codeLine="2" d="M173,68.39 C173,87.25 173,110.68 173,131.75 " fill="none" id="Item-backto-Customer Upgrade Request" style="stroke:#181818;stroke-width:1.0;"/><polygon fill="#181818" points="173,55.28,169,61.28,173,67.28,177,61.28,173,55.28" style="stroke:#181818;stroke-width:1.0;"/><text fill="#000000" font-family="sans-serif" font-size="13" lengthAdjust="spacing" textLength="67" x="174" y="98.0669">item_code</text></g><!--reverse link Upgrade Option to Customer Upgrade Request--><g id="link_Upgrade Option_Customer Upgrade Request"><path codeLine="3" d="M281.71,65.34 C271.75,76.99 260.43,90.12 250,102 C241.56,111.6 232.53,121.75 223.73,131.57 " fill="none" id="Upgrade Option-backto-Customer Upgrade Request" style="stroke:#181818;stroke-width:1.0;"/><polygon fill="#181818" points="290.41,55.14,283.4734,57.1106,282.6244,64.2715,289.5611,62.301,290.41,55.14" style="stroke:#181818;stroke-width:1.0;"/><text fill="#000000" font-family="sans-serif" font-size="13" lengthAdjust="spacing" textLength="132" x="264" y="98.0669">requested_upgrades</text></g><!--SRC=[Kt8kBIx9pqqjKbBGqjLLK89n5K8BqeiIKr8LWb8BIrEBIvGKh1IIeN9SIfubgRb4QCW4AejFpaz9vLA2oVeNb6Jcvn6XjmZ2J4s9BuL85dCbvoGM5-FJfUnewUBcvAPGpQK0TopGA9_Cl6oW2Dmr225CIu1o8Ob9EQb0oRpy4Z0_E3Sn9qSX9BMYXAiM0000]--></g></svg>