<?xml version="1.0" encoding="us-ascii" standalone="no"?><svg xmlns="http://www.w3.org/2000/svg" xmlns:xlink="http://www.w3.org/1999/xlink" contentStyleType="text/css" height="134px" preserveAspectRatio="none" style="width:175px;height:134px;background:#FFFFFF;" version="1.1" viewBox="0 0 175 134" width="175px" zoomAndPan="magnify"><defs/><g><!--class Intake Entry--><g id="elem_Intake Entry"><rect codeLine="1" fill="#F5CBA7" height="113.1875" id="Intake Entry" rx="2.5" ry="2.5" style="stroke:#181818;stroke-width:0.5;" width="154" x="7" y="7"/><ellipse cx="40.45" cy="23" fill="#ADD1B2" rx="11" ry="11" style="stroke:#181818;stroke-width:1.0;"/><path d="M43.9656,27.0313 L43.9656,29.0625 Q42.4813,29.6719 40.6531,29.6719 Q37.9344,29.6719 36.4813,27.9375 Q35.0281,26.1875 35.0281,23.0781 Q35.0281,20.0781 36.6063,18.2969 Q38.1844,16.5 40.9031,16.5 Q42.8094,16.5 44.5438,17.4219 L43.5906,19.3281 Q42.0906,18.5469 40.9031,18.5469 Q39.2938,18.5469 38.3094,19.7656 Q37.3406,20.9688 37.3406,23.0938 Q37.3406,25.3438 38.2469,26.4844 Q39.1688,27.625 40.9031,27.625 Q41.9344,27.625 43.9656,27.0313 Z " fill="#000000"/><text fill="#000000" font-family="sans-serif" font-size="14" lengthAdjust="spacing" textLength="81" x="58.55" y="27.8467">Intake Entry</text><line style="stroke:#181818;stroke-width:0.5;" x1="8" x2="160" y1="39" y2="39"/><text fill="#000000" font-family="sans-serif" font-size="14" lengthAdjust="spacing" textLength="142" x="13" y="55.9951">serial_number : Data</text><text fill="#000000" font-family="sans-serif" font-size="14" lengthAdjust="spacing" textLength="137" x="13" y="72.292">manufacturer : Data</text><text fill="#000000" font-family="sans-serif" font-size="14" lengthAdjust="spacing" textLength="83" x="13" y="88.5889">notes : Text</text><text fill="#000000" font-family="sans-serif" font-size="14" lengthAdjust="spacing" textLength="99" x="13" y="104.8857">image : Attach</text><line style="stroke:#181818;stroke-width:0.5;" x1="8" x2="160" y1="112.1875" y2="112.1875"/></g><!--SRC=[Iyv9B2vMKFBCAqdCJbLmpIifgbHIK7OpTNPoD5Uevb9GA4ujoapCYSyhpKrABLAmKd19B4a42kScvfMc9IQNb1OXY-RbbwGM0xaXgHKbG6vcRc9wAf3hM5AIc9p1LGi0]--></g></svg>