<?xml version="1.0" encoding="us-ascii" standalone="no"?><svg xmlns="http://www.w3.org/2000/svg" xmlns:xlink="http://www.w3.org/1999/xlink" contentStyleType="text/css" height="252px" preserveAspectRatio="none" style="width:173px;height:252px;background:#FFFFFF;" version="1.1" viewBox="0 0 173 252" width="173px" zoomAndPan="magnify"><defs/><g><!--class User--><g id="elem_User"><rect fill="#F1F1F1" height="48" id="User" rx="2.5" ry="2.5" style="stroke:#181818;stroke-width:0.5;" width="64" x="54.5" y="7"/><ellipse cx="69.5" cy="23" fill="#ADD1B2" rx="11" ry="11" style="stroke:#181818;stroke-width:1.0;"/><path d="M73.0156,27.0313 L73.0156,29.0625 Q71.5313,29.6719 69.7031,29.6719 Q66.9844,29.6719 65.5313,27.9375 Q64.0781,26.1875 64.0781,23.0781 Q64.0781,20.0781 65.6563,18.2969 Q67.2344,16.5 69.9531,16.5 Q71.8594,16.5 73.5938,17.4219 L72.6406,19.3281 Q71.1406,18.5469 69.9531,18.5469 Q68.3438,18.5469 67.3594,19.7656 Q66.3906,20.9688 66.3906,23.0938 Q66.3906,25.3438 67.2969,26.4844 Q68.2188,27.625 69.9531,27.625 Q70.9844,27.625 73.0156,27.0313 Z " fill="#000000"/><text fill="#000000" font-family="sans-serif" font-size="14" lengthAdjust="spacing" textLength="32" x="83.5" y="27.8467">User</text><line style="stroke:#181818;stroke-width:0.5;" x1="55.5" x2="117.5" y1="39" y2="39"/><line style="stroke:#181818;stroke-width:0.5;" x1="55.5" x2="117.5" y1="47" y2="47"/></g><!--class Consent Log Entry--><g id="elem_Consent Log Entry"><rect codeLine="2" fill="#D2B4DE" height="113.1875" id="Consent Log Entry" rx="2.5" ry="2.5" style="stroke:#181818;stroke-width:0.5;" width="159" x="7" y="132"/><ellipse cx="22" cy="148" fill="#ADD1B2" rx="11" ry="11" style="stroke:#181818;stroke-width:1.0;"/><path d="M25.5156,152.0313 L25.5156,154.0625 Q24.0313,154.6719 22.2031,154.6719 Q19.4844,154.6719 18.0313,152.9375 Q16.5781,151.1875 16.5781,148.0781 Q16.5781,145.0781 18.1563,143.2969 Q19.7344,141.5 22.4531,141.5 Q24.3594,141.5 26.0938,142.4219 L25.1406,144.3281 Q23.6406,143.5469 22.4531,143.5469 Q20.8438,143.5469 19.8594,144.7656 Q18.8906,145.9688 18.8906,148.0938 Q18.8906,150.3438 19.7969,151.4844 Q20.7188,152.625 22.4531,152.625 Q23.4844,152.625 25.5156,152.0313 Z " fill="#000000"/><text fill="#000000" font-family="sans-serif" font-size="14" lengthAdjust="spacing" textLength="127" x="36" y="152.8467">Consent Log Entry</text><line style="stroke:#181818;stroke-width:0.5;" x1="8" x2="165" y1="164" y2="164"/><text fill="#000000" font-family="sans-serif" font-size="14" lengthAdjust="spacing" textLength="119" x="13" y="180.9951">entry_date : Date</text><text fill="#000000" font-family="sans-serif" font-size="14" lengthAdjust="spacing" textLength="110" x="13" y="197.292">method : Select</text><text fill="#000000" font-family="sans-serif" font-size="14" lengthAdjust="spacing" textLength="111" x="13" y="213.5889">technician : Link</text><text fill="#000000" font-family="sans-serif" font-size="14" lengthAdjust="spacing" textLength="123" x="13" y="229.8857">notes : Small Text</text><line style="stroke:#181818;stroke-width:0.5;" x1="8" x2="165" y1="237.1875" y2="237.1875"/></g><!--reverse link User to Consent Log Entry--><g id="link_User_Consent Log Entry"><path codeLine="1" d="M86.5,68.39 C86.5,87.25 86.5,110.68 86.5,131.75 " fill="none" id="User-backto-Consent Log Entry" style="stroke:#181818;stroke-width:1.0;"/><polygon fill="#181818" points="86.5,55.28,82.5,61.28,86.5,67.28,90.5,61.28,86.5,55.28" style="stroke:#181818;stroke-width:1.0;"/><text fill="#000000" font-family="sans-serif" font-size="13" lengthAdjust="spacing" textLength="65" x="87.5" y="98.0669">technician</text></g><!--SRC=[RSon2W8n40JGFbynn4wuHgmiDTTTfzOISeCNp6tWieKY_hjxbOtLCe-PzTV6nMFRTV2dAesY6EeTlUZoyZX0cIR9AKTngSJM_jOsONVSXnvl1t2bsnYLjWvsp6RgL4VBPnOcDVczDHsoFCoaAjjQccCfkF2fxlC5]--></g></svg>