<?xml version="1.0" encoding="us-ascii" standalone="no"?><svg xmlns="http://www.w3.org/2000/svg" xmlns:xlink="http://www.w3.org/1999/xlink" contentStyleType="text/css" height="447px" preserveAspectRatio="none" style="width:1441px;height:447px;background:#FFFFFF;" version="1.1" viewBox="0 0 1441 447" width="1441px" zoomAndPan="magnify"><defs/><g><!--class Instrument Profile--><g id="elem_Instrument Profile"><rect fill="#F1F1F1" height="48" id="Instrument Profile" rx="2.5" ry="2.5" style="stroke:#181818;stroke-width:0.5;" width="153" x="7" y="7"/><ellipse cx="22" cy="23" fill="#ADD1B2" rx="11" ry="11" style="stroke:#181818;stroke-width:1.0;"/><path d="M25.5156,27.0313 L25.5156,29.0625 Q24.0313,29.6719 22.2031,29.6719 Q19.4844,29.6719 18.0313,27.9375 Q16.5781,26.1875 16.5781,23.0781 Q16.5781,20.0781 18.1563,18.2969 Q19.7344,16.5 22.4531,16.5 Q24.3594,16.5 26.0938,17.4219 L25.1406,19.3281 Q23.6406,18.5469 22.4531,18.5469 Q20.8438,18.5469 19.8594,19.7656 Q18.8906,20.9688 18.8906,23.0938 Q18.8906,25.3438 19.7969,26.4844 Q20.7188,27.625 22.4531,27.625 Q23.4844,27.625 25.5156,27.0313 Z " fill="#000000"/><text fill="#000000" font-family="sans-serif" font-size="14" lengthAdjust="spacing" textLength="121" x="36" y="27.8467">Instrument Profile</text><line style="stroke:#181818;stroke-width:0.5;" x1="8" x2="159" y1="39" y2="39"/><line style="stroke:#181818;stroke-width:0.5;" x1="8" x2="159" y1="47" y2="47"/></g><!--class Clarinet Initial Setup--><g id="elem_Clarinet Initial Setup"><rect codeLine="9" fill="#F9E79F" height="308.75" id="Clarinet Initial Setup" rx="2.5" ry="2.5" style="stroke:#181818;stroke-width:0.5;" width="216" x="570.5" y="132"/><ellipse cx="607.55" cy="148" fill="#ADD1B2" rx="11" ry="11" style="stroke:#181818;stroke-width:1.0;"/><path d="M611.0656,152.0313 L611.0656,154.0625 Q609.5813,154.6719 607.7531,154.6719 Q605.0344,154.6719 603.5813,152.9375 Q602.1281,151.1875 602.1281,148.0781 Q602.1281,145.0781 603.7063,143.2969 Q605.2844,141.5 608.0031,141.5 Q609.9094,141.5 611.6438,142.4219 L610.6906,144.3281 Q609.1906,143.5469 608.0031,143.5469 Q606.3938,143.5469 605.4094,144.7656 Q604.4406,145.9688 604.4406,148.0938 Q604.4406,150.3438 605.3469,151.4844 Q606.2688,152.625 608.0031,152.625 Q609.0344,152.625 611.0656,152.0313 Z " fill="#000000"/><text fill="#000000" font-family="sans-serif" font-size="14" lengthAdjust="spacing" textLength="135" x="626.45" y="152.8467">Clarinet Initial Setup</text><line style="stroke:#181818;stroke-width:0.5;" x1="571.5" x2="785.5" y1="164" y2="164"/><text fill="#000000" font-family="sans-serif" font-size="14" lengthAdjust="spacing" textLength="164" x="576.5" y="180.9951">instrument_profile : Link</text><text fill="#000000" font-family="sans-serif" font-size="14" lengthAdjust="spacing" textLength="187" x="576.5" y="197.292">instrument_category : Data</text><text fill="#000000" font-family="sans-serif" font-size="14" lengthAdjust="spacing" textLength="88" x="576.5" y="213.5889">model : Data</text><text fill="#000000" font-family="sans-serif" font-size="14" lengthAdjust="spacing" textLength="142" x="576.5" y="229.8857">serial_number : Data</text><text fill="#000000" font-family="sans-serif" font-size="14" lengthAdjust="spacing" textLength="112" x="576.5" y="246.1826">inspection : Link</text><text fill="#000000" font-family="sans-serif" font-size="14" lengthAdjust="spacing" textLength="148" x="576.5" y="262.4795">setup_template : Link</text><text fill="#000000" font-family="sans-serif" font-size="14" lengthAdjust="spacing" textLength="124" x="576.5" y="278.7764">setup_date : Date</text><text fill="#000000" font-family="sans-serif" font-size="14" lengthAdjust="spacing" textLength="111" x="576.5" y="295.0732">technician : Link</text><text fill="#000000" font-family="sans-serif" font-size="14" lengthAdjust="spacing" textLength="112" x="576.5" y="311.3701">checklist : Table</text><text fill="#000000" font-family="sans-serif" font-size="14" lengthAdjust="spacing" textLength="155" x="576.5" y="327.667">materials_used : Table</text><text fill="#000000" font-family="sans-serif" font-size="14" lengthAdjust="spacing" textLength="204" x="576.5" y="343.9639">operations_performed : Table</text><text fill="#000000" font-family="sans-serif" font-size="14" lengthAdjust="spacing" textLength="192" x="576.5" y="360.2607">work_photos : Attach Image</text><text fill="#000000" font-family="sans-serif" font-size="14" lengthAdjust="spacing" textLength="165" x="576.5" y="376.5576">technical_tags : Tag List</text><text fill="#000000" font-family="sans-serif" font-size="14" lengthAdjust="spacing" textLength="127" x="576.5" y="392.8545">labor_hours : Float</text><text fill="#000000" font-family="sans-serif" font-size="14" lengthAdjust="spacing" textLength="99" x="576.5" y="409.1514">status : Select</text><text fill="#000000" font-family="sans-serif" font-size="14" lengthAdjust="spacing" textLength="136" x="576.5" y="425.4482">qa_inspection : Link</text><line style="stroke:#181818;stroke-width:0.5;" x1="571.5" x2="785.5" y1="432.75" y2="432.75"/></g><!--class Clarinet Inspection--><g id="elem_Clarinet Inspection"><rect fill="#F1F1F1" height="48" id="Clarinet Inspection" rx="2.5" ry="2.5" style="stroke:#181818;stroke-width:0.5;" width="160" x="195.5" y="7"/><ellipse cx="210.5" cy="23" fill="#ADD1B2" rx="11" ry="11" style="stroke:#181818;stroke-width:1.0;"/><path d="M214.0156,27.0313 L214.0156,29.0625 Q212.5313,29.6719 210.7031,29.6719 Q207.9844,29.6719 206.5313,27.9375 Q205.0781,26.1875 205.0781,23.0781 Q205.0781,20.0781 206.6563,18.2969 Q208.2344,16.5 210.9531,16.5 Q212.8594,16.5 214.5938,17.4219 L213.6406,19.3281 Q212.1406,18.5469 210.9531,18.5469 Q209.3438,18.5469 208.3594,19.7656 Q207.3906,20.9688 207.3906,23.0938 Q207.3906,25.3438 208.2969,26.4844 Q209.2188,27.625 210.9531,27.625 Q211.9844,27.625 214.0156,27.0313 Z " fill="#000000"/><text fill="#000000" font-family="sans-serif" font-size="14" lengthAdjust="spacing" textLength="128" x="224.5" y="27.8467">Clarinet Inspection</text><line style="stroke:#181818;stroke-width:0.5;" x1="196.5" x2="354.5" y1="39" y2="39"/><line style="stroke:#181818;stroke-width:0.5;" x1="196.5" x2="354.5" y1="47" y2="47"/></g><!--class Setup Template--><g id="elem_Setup Template"><rect fill="#F1F1F1" height="48" id="Setup Template" rx="2.5" ry="2.5" style="stroke:#181818;stroke-width:0.5;" width="142" x="390.5" y="7"/><ellipse cx="405.5" cy="23" fill="#ADD1B2" rx="11" ry="11" style="stroke:#181818;stroke-width:1.0;"/><path d="M409.0156,27.0313 L409.0156,29.0625 Q407.5313,29.6719 405.7031,29.6719 Q402.9844,29.6719 401.5313,27.9375 Q400.0781,26.1875 400.0781,23.0781 Q400.0781,20.0781 401.6563,18.2969 Q403.2344,16.5 405.9531,16.5 Q407.8594,16.5 409.5938,17.4219 L408.6406,19.3281 Q407.1406,18.5469 405.9531,18.5469 Q404.3438,18.5469 403.3594,19.7656 Q402.3906,20.9688 402.3906,23.0938 Q402.3906,25.3438 403.2969,26.4844 Q404.2188,27.625 405.9531,27.625 Q406.9844,27.625 409.0156,27.0313 Z " fill="#000000"/><text fill="#000000" font-family="sans-serif" font-size="14" lengthAdjust="spacing" textLength="110" x="419.5" y="27.8467">Setup Template</text><line style="stroke:#181818;stroke-width:0.5;" x1="391.5" x2="531.5" y1="39" y2="39"/><line style="stroke:#181818;stroke-width:0.5;" x1="391.5" x2="531.5" y1="47" y2="47"/></g><!--class User--><g id="elem_User"><rect fill="#F1F1F1" height="48" id="User" rx="2.5" ry="2.5" style="stroke:#181818;stroke-width:0.5;" width="64" x="567.5" y="7"/><ellipse cx="582.5" cy="23" fill="#ADD1B2" rx="11" ry="11" style="stroke:#181818;stroke-width:1.0;"/><path d="M586.0156,27.0313 L586.0156,29.0625 Q584.5313,29.6719 582.7031,29.6719 Q579.9844,29.6719 578.5313,27.9375 Q577.0781,26.1875 577.0781,23.0781 Q577.0781,20.0781 578.6563,18.2969 Q580.2344,16.5 582.9531,16.5 Q584.8594,16.5 586.5938,17.4219 L585.6406,19.3281 Q584.1406,18.5469 582.9531,18.5469 Q581.3438,18.5469 580.3594,19.7656 Q579.3906,20.9688 579.3906,23.0938 Q579.3906,25.3438 580.2969,26.4844 Q581.2188,27.625 582.9531,27.625 Q583.9844,27.625 586.0156,27.0313 Z " fill="#000000"/><text fill="#000000" font-family="sans-serif" font-size="14" lengthAdjust="spacing" textLength="32" x="596.5" y="27.8467">User</text><line style="stroke:#181818;stroke-width:0.5;" x1="568.5" x2="630.5" y1="39" y2="39"/><line style="stroke:#181818;stroke-width:0.5;" x1="568.5" x2="630.5" y1="47" y2="47"/></g><!--class Setup Checklist Item--><g id="elem_Setup Checklist Item"><rect fill="#F1F1F1" height="48" id="Setup Checklist Item" rx="2.5" ry="2.5" style="stroke:#181818;stroke-width:0.5;" width="174" x="666.5" y="7"/><ellipse cx="681.5" cy="23" fill="#ADD1B2" rx="11" ry="11" style="stroke:#181818;stroke-width:1.0;"/><path d="M685.0156,27.0313 L685.0156,29.0625 Q683.5313,29.6719 681.7031,29.6719 Q678.9844,29.6719 677.5313,27.9375 Q676.0781,26.1875 676.0781,23.0781 Q676.0781,20.0781 677.6563,18.2969 Q679.2344,16.5 681.9531,16.5 Q683.8594,16.5 685.5938,17.4219 L684.6406,19.3281 Q683.1406,18.5469 681.9531,18.5469 Q680.3438,18.5469 679.3594,19.7656 Q678.3906,20.9688 678.3906,23.0938 Q678.3906,25.3438 679.2969,26.4844 Q680.2188,27.625 681.9531,27.625 Q682.9844,27.625 685.0156,27.0313 Z " fill="#000000"/><text fill="#000000" font-family="sans-serif" font-size="14" lengthAdjust="spacing" textLength="142" x="695.5" y="27.8467">Setup Checklist Item</text><line style="stroke:#181818;stroke-width:0.5;" x1="667.5" x2="839.5" y1="39" y2="39"/><line style="stroke:#181818;stroke-width:0.5;" x1="667.5" x2="839.5" y1="47" y2="47"/></g><!--class Material Usage--><g id="elem_Material Usage"><rect fill="#F1F1F1" height="48" id="Material Usage" rx="2.5" ry="2.5" style="stroke:#181818;stroke-width:0.5;" width="133" x="876" y="7"/><ellipse cx="891" cy="23" fill="#ADD1B2" rx="11" ry="11" style="stroke:#181818;stroke-width:1.0;"/><path d="M894.5156,27.0313 L894.5156,29.0625 Q893.0313,29.6719 891.2031,29.6719 Q888.4844,29.6719 887.0313,27.9375 Q885.5781,26.1875 885.5781,23.0781 Q885.5781,20.0781 887.1563,18.2969 Q888.7344,16.5 891.4531,16.5 Q893.3594,16.5 895.0938,17.4219 L894.1406,19.3281 Q892.6406,18.5469 891.4531,18.5469 Q889.8438,18.5469 888.8594,19.7656 Q887.8906,20.9688 887.8906,23.0938 Q887.8906,25.3438 888.7969,26.4844 Q889.7188,27.625 891.4531,27.625 Q892.4844,27.625 894.5156,27.0313 Z " fill="#000000"/><text fill="#000000" font-family="sans-serif" font-size="14" lengthAdjust="spacing" textLength="101" x="905" y="27.8467">Material Usage</text><line style="stroke:#181818;stroke-width:0.5;" x1="877" x2="1008" y1="39" y2="39"/><line style="stroke:#181818;stroke-width:0.5;" x1="877" x2="1008" y1="47" y2="47"/></g><!--class Clarinet Setup Operation--><g id="elem_Clarinet Setup Operation"><rect fill="#F1F1F1" height="48" id="Clarinet Setup Operation" rx="2.5" ry="2.5" style="stroke:#181818;stroke-width:0.5;" width="201" x="1044" y="7"/><ellipse cx="1059" cy="23" fill="#ADD1B2" rx="11" ry="11" style="stroke:#181818;stroke-width:1.0;"/><path d="M1062.5156,27.0313 L1062.5156,29.0625 Q1061.0313,29.6719 1059.2031,29.6719 Q1056.4844,29.6719 1055.0313,27.9375 Q1053.5781,26.1875 1053.5781,23.0781 Q1053.5781,20.0781 1055.1563,18.2969 Q1056.7344,16.5 1059.4531,16.5 Q1061.3594,16.5 1063.0938,17.4219 L1062.1406,19.3281 Q1060.6406,18.5469 1059.4531,18.5469 Q1057.8438,18.5469 1056.8594,19.7656 Q1055.8906,20.9688 1055.8906,23.0938 Q1055.8906,25.3438 1056.7969,26.4844 Q1057.7188,27.625 1059.4531,27.625 Q1060.4844,27.625 1062.5156,27.0313 Z " fill="#000000"/><text fill="#000000" font-family="sans-serif" font-size="14" lengthAdjust="spacing" textLength="169" x="1073" y="27.8467">Clarinet Setup Operation</text><line style="stroke:#181818;stroke-width:0.5;" x1="1045" x2="1244" y1="39" y2="39"/><line style="stroke:#181818;stroke-width:0.5;" x1="1045" x2="1244" y1="47" y2="47"/></g><!--class Quality Inspection--><g id="elem_Quality Inspection"><rect fill="#F1F1F1" height="48" id="Quality Inspection" rx="2.5" ry="2.5" style="stroke:#181818;stroke-width:0.5;" width="154" x="1280.5" y="7"/><ellipse cx="1295.5" cy="23" fill="#ADD1B2" rx="11" ry="11" style="stroke:#181818;stroke-width:1.0;"/><path d="M1299.0156,27.0313 L1299.0156,29.0625 Q1297.5313,29.6719 1295.7031,29.6719 Q1292.9844,29.6719 1291.5313,27.9375 Q1290.0781,26.1875 1290.0781,23.0781 Q1290.0781,20.0781 1291.6563,18.2969 Q1293.2344,16.5 1295.9531,16.5 Q1297.8594,16.5 1299.5938,17.4219 L1298.6406,19.3281 Q1297.1406,18.5469 1295.9531,18.5469 Q1294.3438,18.5469 1293.3594,19.7656 Q1292.3906,20.9688 1292.3906,23.0938 Q1292.3906,25.3438 1293.2969,26.4844 Q1294.2188,27.625 1295.9531,27.625 Q1296.9844,27.625 1299.0156,27.0313 Z " fill="#000000"/><text fill="#000000" font-family="sans-serif" font-size="14" lengthAdjust="spacing" textLength="122" x="1309.5" y="27.8467">Quality Inspection</text><line style="stroke:#181818;stroke-width:0.5;" x1="1281.5" x2="1433.5" y1="39" y2="39"/><line style="stroke:#181818;stroke-width:0.5;" x1="1281.5" x2="1433.5" y1="47" y2="47"/></g><!--reverse link Instrument Profile to Clarinet Initial Setup--><g id="link_Instrument Profile_Clarinet Initial Setup"><path codeLine="1" d="M145.31,60.65 C173.36,73.5 207.01,88.73 237.5,102 C350.42,151.14 480.72,205.02 570.25,241.6 " fill="none" id="Instrument Profile-backto-Clarinet Initial Setup" style="stroke:#181818;stroke-width:1.0;"/><polygon fill="#181818" points="133.25,55.11,137.0319,61.2498,144.154,60.1203,140.3721,53.9805,133.25,55.11" style="stroke:#181818;stroke-width:1.0;"/><text fill="#000000" font-family="sans-serif" font-size="13" lengthAdjust="spacing" textLength="116" x="238.5" y="98.0669">instrument_profile</text></g><!--reverse link Clarinet Inspection to Clarinet Initial Setup--><g id="link_Clarinet Inspection_Clarinet Initial Setup"><path codeLine="2" d="M323.45,62.16 C384,100.25 489.96,166.9 570.41,217.51 " fill="none" id="Clarinet Inspection-backto-Clarinet Initial Setup" style="stroke:#181818;stroke-width:1.0;"/><polygon fill="#181818" points="312.33,55.17,315.275,61.7523,322.4837,61.5655,319.5387,54.9832,312.33,55.17" style="stroke:#181818;stroke-width:1.0;"/><text fill="#000000" font-family="sans-serif" font-size="13" lengthAdjust="spacing" textLength="65" x="385.5" y="98.0669">inspection</text></g><!--reverse link Setup Template to Clarinet Initial Setup--><g id="link_Setup Template_Clarinet Initial Setup"><path codeLine="3" d="M481.2,66.28 C488.38,77.94 496.87,90.85 505.5,102 C525.19,127.45 547.84,153.41 570.12,177.5 " fill="none" id="Setup Template-backto-Clarinet Initial Setup" style="stroke:#181818;stroke-width:1.0;"/><polygon fill="#181818" points="474.5,55.13,474.1638,62.3333,480.6836,65.4141,481.0199,58.2108,474.5,55.13" style="stroke:#181818;stroke-width:1.0;"/><text fill="#000000" font-family="sans-serif" font-size="13" lengthAdjust="spacing" textLength="101" x="506.5" y="98.0669">setup_template</text></g><!--reverse link User to Clarinet Initial Setup--><g id="link_User_Clarinet Initial Setup"><path codeLine="4" d="M610.67,67.83 C616.15,85.43 623.17,107.96 630.61,131.83 " fill="none" id="User-backto-Clarinet Initial Setup" style="stroke:#181818;stroke-width:1.0;"/><polygon fill="#181818" points="606.79,55.39,604.7576,62.3088,610.3625,66.8459,612.3949,59.9271,606.79,55.39" style="stroke:#181818;stroke-width:1.0;"/><text fill="#000000" font-family="sans-serif" font-size="13" lengthAdjust="spacing" textLength="65" x="621.5" y="98.0669">technician</text></g><!--reverse link Setup Checklist Item to Clarinet Initial Setup--><g id="link_Setup Checklist Item_Clarinet Initial Setup"><path codeLine="5" d="M742.82,68.09 C737.63,85.65 730.99,108.08 723.97,131.83 " fill="none" id="Setup Checklist Item-backto-Clarinet Initial Setup" style="stroke:#181818;stroke-width:1.0;"/><polygon fill="#181818" points="746.58,55.39,741.0421,60.0086,743.1754,66.8969,748.7134,62.2783,746.58,55.39" style="stroke:#181818;stroke-width:1.0;"/><text fill="#000000" font-family="sans-serif" font-size="13" lengthAdjust="spacing" textLength="55" x="737.5" y="98.0669">checklist</text></g><!--reverse link Material Usage to Clarinet Initial Setup--><g id="link_Material Usage_Clarinet Initial Setup"><path codeLine="6" d="M908.72,64.44 C877.84,94.09 830.46,139.59 786.69,181.61 " fill="none" id="Material Usage-backto-Clarinet Initial Setup" style="stroke:#181818;stroke-width:1.0;"/><polygon fill="#181818" points="918.14,55.39,911.0418,56.661,909.4849,63.702,916.5831,62.431,918.14,55.39" style="stroke:#181818;stroke-width:1.0;"/><text fill="#000000" font-family="sans-serif" font-size="13" lengthAdjust="spacing" textLength="98" x="885.5" y="98.0669">materials_used</text></g><!--reverse link Clarinet Setup Operation to Clarinet Initial Setup--><g id="link_Clarinet Setup Operation_Clarinet Initial Setup"><path codeLine="7" d="M1090.12,61.58 C1016.07,101.86 881.89,174.86 786.88,226.54 " fill="none" id="Clarinet Setup Operation-backto-Clarinet Initial Setup" style="stroke:#181818;stroke-width:1.0;"/><polygon fill="#181818" points="1101.91,55.17,1094.7287,54.5152,1091.3622,60.8922,1098.5435,61.547,1101.91,55.17" style="stroke:#181818;stroke-width:1.0;"/><text fill="#000000" font-family="sans-serif" font-size="13" lengthAdjust="spacing" textLength="142" x="1044.5" y="98.0669">operations_performed</text></g><!--reverse link Quality Inspection to Clarinet Initial Setup--><g id="link_Quality Inspection_Clarinet Initial Setup"><path codeLine="8" d="M1294.49,60.39 C1264.68,73.52 1228.46,89.05 1195.5,102 C1055.67,156.96 891.85,213.86 786.71,249.45 " fill="none" id="Quality Inspection-backto-Clarinet Initial Setup" style="stroke:#181818;stroke-width:1.0;"/><polygon fill="#181818" points="1306.43,55.11,1299.3248,53.8789,1295.4556,59.9641,1302.5608,61.1952,1306.43,55.11" style="stroke:#181818;stroke-width:1.0;"/><text fill="#000000" font-family="sans-serif" font-size="13" lengthAdjust="spacing" textLength="88" x="1236.5" y="98.0669">qa_inspection</text></g><!--SRC=[bL9DImCn4BtlhmZn9lGizIQjXOAYqlOSfccw6vgFDJEB5F6_E-dNxegozPQyz-RpZPm7fDHu4qYyfhYrpaXnEne9EN6GR30avi6I1ISMXffQYdjXBo6gFeOKNJNMHfEDuPey9saX3w1O6byxeE4MC3yKdUI5NA59Wq5aT1Mijd2fDwcCtZcBBEPSWmdqMLx8PowRChb2A8VxzISvgWRDfhEkOnyljKbmrSxYMOcANzkOV4xtre2pjF_Fyjz1TVQl7I3-BR-PZH_lnZFnMOXVtETiJpRi-fpcYSkOzanEWO197pV6jLyyB4I5ngzDQk6sgJPjt-sV-EQ8JVCXY8x9hUxY6qDBMBkiwplI8NxRS8V-Y6cdwYfIH4OVY41NOkxv2DhYF1P1YOUeaflWWn72mJecLSKcPMBc8cGK2QZ9mC8u7fkHdZ7d6Rw-0G00]--></g></svg>