<?xml version="1.0" encoding="us-ascii" standalone="no"?><svg xmlns="http://www.w3.org/2000/svg" xmlns:xlink="http://www.w3.org/1999/xlink" contentStyleType="text/css" height="235px" preserveAspectRatio="none" style="width:280px;height:235px;background:#FFFFFF;" version="1.1" viewBox="0 0 280 235" width="280px" zoomAndPan="magnify"><defs/><g><!--class Workflow State Mapping--><g id="elem_Workflow State Mapping"><rect fill="#F1F1F1" height="48" id="Workflow State Mapping" rx="2.5" ry="2.5" style="stroke:#181818;stroke-width:0.5;" width="197" x="22" y="7"/><ellipse cx="37" cy="23" fill="#ADD1B2" rx="11" ry="11" style="stroke:#181818;stroke-width:1.0;"/><path d="M40.5156,27.0313 L40.5156,29.0625 Q39.0313,29.6719 37.2031,29.6719 Q34.4844,29.6719 33.0313,27.9375 Q31.5781,26.1875 31.5781,23.0781 Q31.5781,20.0781 33.1563,18.2969 Q34.7344,16.5 37.4531,16.5 Q39.3594,16.5 41.0938,17.4219 L40.1406,19.3281 Q38.6406,18.5469 37.4531,18.5469 Q35.8438,18.5469 34.8594,19.7656 Q33.8906,20.9688 33.8906,23.0938 Q33.8906,25.3438 34.7969,26.4844 Q35.7188,27.625 37.4531,27.625 Q38.4844,27.625 40.5156,27.0313 Z " fill="#000000"/><text fill="#000000" font-family="sans-serif" font-size="14" lengthAdjust="spacing" textLength="165" x="51" y="27.8467">Workflow State Mapping</text><line style="stroke:#181818;stroke-width:0.5;" x1="23" x2="218" y1="39" y2="39"/><line style="stroke:#181818;stroke-width:0.5;" x1="23" x2="218" y1="47" y2="47"/></g><!--class Repair Order Settings--><g id="elem_Repair Order Settings"><rect codeLine="2" fill="#F9E79F" height="96.8906" id="Repair Order Settings" rx="2.5" ry="2.5" style="stroke:#181818;stroke-width:0.5;" width="227" x="7" y="132"/><ellipse cx="43.15" cy="148" fill="#ADD1B2" rx="11" ry="11" style="stroke:#181818;stroke-width:1.0;"/><path d="M46.6656,152.0313 L46.6656,154.0625 Q45.1813,154.6719 43.3531,154.6719 Q40.6344,154.6719 39.1813,152.9375 Q37.7281,151.1875 37.7281,148.0781 Q37.7281,145.0781 39.3063,143.2969 Q40.8844,141.5 43.6031,141.5 Q45.5094,141.5 47.2438,142.4219 L46.2906,144.3281 Q44.7906,143.5469 43.6031,143.5469 Q41.9938,143.5469 41.0094,144.7656 Q40.0406,145.9688 40.0406,148.0938 Q40.0406,150.3438 40.9469,151.4844 Q41.8688,152.625 43.6031,152.625 Q44.6344,152.625 46.6656,152.0313 Z " fill="#000000"/><text fill="#000000" font-family="sans-serif" font-size="14" lengthAdjust="spacing" textLength="148" x="61.85" y="152.8467">Repair Order Settings</text><line style="stroke:#181818;stroke-width:0.5;" x1="8" x2="233" y1="164" y2="164"/><text fill="#000000" font-family="sans-serif" font-size="14" lengthAdjust="spacing" textLength="145" x="13" y="180.9951">naming_series : Data</text><text fill="#000000" font-family="sans-serif" font-size="14" lengthAdjust="spacing" textLength="215" x="13" y="197.292">default_workflow_states : Table</text><text fill="#000000" font-family="sans-serif" font-size="14" lengthAdjust="spacing" textLength="88" x="13" y="213.5889">sla_days : Int</text><line style="stroke:#181818;stroke-width:0.5;" x1="8" x2="233" y1="220.8906" y2="220.8906"/></g><!--reverse link Workflow State Mapping to Repair Order Settings--><g id="link_Workflow State Mapping_Repair Order Settings"><path codeLine="1" d="M120.5,68.11 C120.5,87.32 120.5,111.2 120.5,131.92 " fill="none" id="Workflow State Mapping-backto-Repair Order Settings" style="stroke:#181818;stroke-width:1.0;"/><polygon fill="#181818" points="120.5,55.05,116.5,61.05,120.5,67.05,124.5,61.05,120.5,55.05" style="stroke:#181818;stroke-width:1.0;"/><text fill="#000000" font-family="sans-serif" font-size="13" lengthAdjust="spacing" textLength="151" x="121.5" y="98.0669">default_workflow_states</text></g><!--SRC=[TOmn2y8m44Rt_8eZRa9dgRCM74He2uxXD5S9nZJahXGH_xjNSEtwlkyzUntBSuZZ39sW49mnvv0U5hPL1RQbZA70fNWgq968JcnX3vu6dAAu-MyxNcmszuZCgzwcgO-xke6F0KZuKkYOIY3MuW455Q-4zT3ZBP8-EABp-5xGAOdv_W00]--></g></svg>