<?xml version="1.0" encoding="us-ascii" standalone="no"?><svg xmlns="http://www.w3.org/2000/svg" xmlns:xlink="http://www.w3.org/1999/xlink" contentStyleType="text/css" height="101px" preserveAspectRatio="none" style="width:229px;height:101px;background:#FFFFFF;" version="1.1" viewBox="0 0 229 101" width="229px" zoomAndPan="magnify"><defs/><g><!--class Tasks--><g id="elem_Tasks"><rect codeLine="1" fill="#E59866" height="80.5938" id="Tasks" rx="2.5" ry="2.5" style="stroke:#181818;stroke-width:0.5;" width="208" x="7" y="7"/><ellipse cx="86.25" cy="23" fill="#ADD1B2" rx="11" ry="11" style="stroke:#181818;stroke-width:1.0;"/><path d="M89.7656,27.0313 L89.7656,29.0625 Q88.2813,29.6719 86.4531,29.6719 Q83.7344,29.6719 82.2813,27.9375 Q80.8281,26.1875 80.8281,23.0781 Q80.8281,20.0781 82.4063,18.2969 Q83.9844,16.5 86.7031,16.5 Q88.6094,16.5 90.3438,17.4219 L89.3906,19.3281 Q87.8906,18.5469 86.7031,18.5469 Q85.0938,18.5469 84.1094,19.7656 Q83.1406,20.9688 83.1406,23.0938 Q83.1406,25.3438 84.0469,26.4844 Q84.9688,27.625 86.7031,27.625 Q87.7344,27.625 89.7656,27.0313 Z " fill="#000000"/><text fill="#000000" font-family="sans-serif" font-size="14" lengthAdjust="spacing" textLength="41" x="106.75" y="27.8467">Tasks</text><line style="stroke:#181818;stroke-width:0.5;" x1="8" x2="214" y1="39" y2="39"/><text fill="#000000" font-family="sans-serif" font-size="14" lengthAdjust="spacing" textLength="196" x="13" y="55.9951">task_description : Small Text</text><text fill="#000000" font-family="sans-serif" font-size="14" lengthAdjust="spacing" textLength="147" x="13" y="72.292">task_due_date : Date</text><line style="stroke:#181818;stroke-width:0.5;" x1="8" x2="214" y1="79.5938" y2="79.5938"/></g><!--SRC=[Iyv9B2vMK0f9BCukLb9GTZMrj30pKwZcKb0e0Gh5fwGM9nTb5fHavkSfM2a4voRcv2Y4f5QKmELBK-DJ4ajIWP8kG8gh5W00]--></g></svg>