<?xml version="1.0" encoding="us-ascii" standalone="no"?><svg xmlns="http://www.w3.org/2000/svg" xmlns:xlink="http://www.w3.org/1999/xlink" contentStyleType="text/css" height="252px" preserveAspectRatio="none" style="width:268px;height:252px;background:#FFFFFF;" version="1.1" viewBox="0 0 268 252" width="268px" zoomAndPan="magnify"><defs/><g><!--class Repair Order--><g id="elem_Repair Order"><rect fill="#F1F1F1" height="48" id="Repair Order" rx="2.5" ry="2.5" style="stroke:#181818;stroke-width:0.5;" width="119" x="7" y="7"/><ellipse cx="22" cy="23" fill="#ADD1B2" rx="11" ry="11" style="stroke:#181818;stroke-width:1.0;"/><path d="M25.5156,27.0313 L25.5156,29.0625 Q24.0313,29.6719 22.2031,29.6719 Q19.4844,29.6719 18.0313,27.9375 Q16.5781,26.1875 16.5781,23.0781 Q16.5781,20.0781 18.1563,18.2969 Q19.7344,16.5 22.4531,16.5 Q24.3594,16.5 26.0938,17.4219 L25.1406,19.3281 Q23.6406,18.5469 22.4531,18.5469 Q20.8438,18.5469 19.8594,19.7656 Q18.8906,20.9688 18.8906,23.0938 Q18.8906,25.3438 19.7969,26.4844 Q20.7188,27.625 22.4531,27.625 Q23.4844,27.625 25.5156,27.0313 Z " fill="#000000"/><text fill="#000000" font-family="sans-serif" font-size="14" lengthAdjust="spacing" textLength="87" x="36" y="27.8467">Repair Order</text><line style="stroke:#181818;stroke-width:0.5;" x1="8" x2="125" y1="39" y2="39"/><line style="stroke:#181818;stroke-width:0.5;" x1="8" x2="125" y1="47" y2="47"/></g><!--class Repair Feedback--><g id="elem_Repair Feedback"><rect codeLine="3" fill="#F9E79F" height="113.1875" id="Repair Feedback" rx="2.5" ry="2.5" style="stroke:#181818;stroke-width:0.5;" width="161" x="58" y="132"/><ellipse cx="78.85" cy="148" fill="#ADD1B2" rx="11" ry="11" style="stroke:#181818;stroke-width:1.0;"/><path d="M82.3656,152.0313 L82.3656,154.0625 Q80.8813,154.6719 79.0531,154.6719 Q76.3344,154.6719 74.8813,152.9375 Q73.4281,151.1875 73.4281,148.0781 Q73.4281,145.0781 75.0063,143.2969 Q76.5844,141.5 79.3031,141.5 Q81.2094,141.5 82.9438,142.4219 L81.9906,144.3281 Q80.4906,143.5469 79.3031,143.5469 Q77.6938,143.5469 76.7094,144.7656 Q75.7406,145.9688 75.7406,148.0938 Q75.7406,150.3438 76.6469,151.4844 Q77.5688,152.625 79.3031,152.625 Q80.3344,152.625 82.3656,152.0313 Z " fill="#000000"/><text fill="#000000" font-family="sans-serif" font-size="14" lengthAdjust="spacing" textLength="116" x="94.15" y="152.8467">Repair Feedback</text><line style="stroke:#181818;stroke-width:0.5;" x1="59" x2="218" y1="164" y2="164"/><text fill="#000000" font-family="sans-serif" font-size="14" lengthAdjust="spacing" textLength="123" x="64" y="180.9951">repair_order : Link</text><text fill="#000000" font-family="sans-serif" font-size="14" lengthAdjust="spacing" textLength="106" x="64" y="197.292">customer : Link</text><text fill="#000000" font-family="sans-serif" font-size="14" lengthAdjust="spacing" textLength="95" x="64" y="213.5889">rating : Select</text><text fill="#000000" font-family="sans-serif" font-size="14" lengthAdjust="spacing" textLength="149" x="64" y="229.8857">comment : Small Text</text><line style="stroke:#181818;stroke-width:0.5;" x1="59" x2="218" y1="237.1875" y2="237.1875"/></g><!--class Customer--><g id="elem_Customer"><rect fill="#F1F1F1" height="48" id="Customer" rx="2.5" ry="2.5" style="stroke:#181818;stroke-width:0.5;" width="100" x="161.5" y="7"/><ellipse cx="176.5" cy="23" fill="#ADD1B2" rx="11" ry="11" style="stroke:#181818;stroke-width:1.0;"/><path d="M180.0156,27.0313 L180.0156,29.0625 Q178.5313,29.6719 176.7031,29.6719 Q173.9844,29.6719 172.5313,27.9375 Q171.0781,26.1875 171.0781,23.0781 Q171.0781,20.0781 172.6563,18.2969 Q174.2344,16.5 176.9531,16.5 Q178.8594,16.5 180.5938,17.4219 L179.6406,19.3281 Q178.1406,18.5469 176.9531,18.5469 Q175.3438,18.5469 174.3594,19.7656 Q173.3906,20.9688 173.3906,23.0938 Q173.3906,25.3438 174.2969,26.4844 Q175.2188,27.625 176.9531,27.625 Q177.9844,27.625 180.0156,27.0313 Z " fill="#000000"/><text fill="#000000" font-family="sans-serif" font-size="14" lengthAdjust="spacing" textLength="68" x="190.5" y="27.8467">Customer</text><line style="stroke:#181818;stroke-width:0.5;" x1="162.5" x2="260.5" y1="39" y2="39"/><line style="stroke:#181818;stroke-width:0.5;" x1="162.5" x2="260.5" y1="47" y2="47"/></g><!--reverse link Repair Order to Repair Feedback--><g id="link_Repair Order_Repair Feedback"><path codeLine="1" d="M76.02,67.67 C79.45,78.85 83.68,91.12 88.5,102 C92.89,111.91 98.14,122.11 103.57,131.88 " fill="none" id="Repair Order-backto-Repair Feedback" style="stroke:#181818;stroke-width:1.0;"/><polygon fill="#181818" points="72.37,55.18,70.2127,62.0609,75.7346,66.6987,77.8918,59.8178,72.37,55.18" style="stroke:#181818;stroke-width:1.0;"/><text fill="#000000" font-family="sans-serif" font-size="13" lengthAdjust="spacing" textLength="78" x="89.5" y="98.0669">repair_order</text></g><!--reverse link Customer to Repair Feedback--><g id="link_Customer_Repair Feedback"><path codeLine="2" d="M194.93,67.3 C185.99,86.33 174.76,110.26 164.67,131.75 " fill="none" id="Customer-backto-Repair Feedback" style="stroke:#181818;stroke-width:1.0;"/><polygon fill="#181818" points="200.57,55.28,194.3988,59.0104,195.4687,66.1417,201.6399,62.4113,200.57,55.28" style="stroke:#181818;stroke-width:1.0;"/><text fill="#000000" font-family="sans-serif" font-size="13" lengthAdjust="spacing" textLength="61" x="186.5" y="98.0669">customer</text></g><!--SRC=[KmfABKZCB5BmBqf9BL9IqDBLLL222hcbfgOa9IPdAobOAHI1XUBpGQgub9nBYqloS_6fJuQgu4hEIImkng94sStIrTpIJQ6QIm75SA1UdyoyRA0ep0Y4I55YIMPUEf0Vd9gJcbm2KfEVcvkQLm8IoatCoL48IQqeuQe50000]--></g></svg>