<?xml version="1.0" encoding="us-ascii" standalone="no"?><svg xmlns="http://www.w3.org/2000/svg" xmlns:xlink="http://www.w3.org/1999/xlink" contentStyleType="text/css" height="235px" preserveAspectRatio="none" style="width:159px;height:235px;background:#FFFFFF;" version="1.1" viewBox="0 0 159 235" width="159px" zoomAndPan="magnify"><defs/><g><!--class User--><g id="elem_User"><rect fill="#F1F1F1" height="48" id="User" rx="2.5" ry="2.5" style="stroke:#181818;stroke-width:0.5;" width="64" x="47.5" y="7"/><ellipse cx="62.5" cy="23" fill="#ADD1B2" rx="11" ry="11" style="stroke:#181818;stroke-width:1.0;"/><path d="M66.0156,27.0313 L66.0156,29.0625 Q64.5313,29.6719 62.7031,29.6719 Q59.9844,29.6719 58.5313,27.9375 Q57.0781,26.1875 57.0781,23.0781 Q57.0781,20.0781 58.6563,18.2969 Q60.2344,16.5 62.9531,16.5 Q64.8594,16.5 66.5938,17.4219 L65.6406,19.3281 Q64.1406,18.5469 62.9531,18.5469 Q61.3438,18.5469 60.3594,19.7656 Q59.3906,20.9688 59.3906,23.0938 Q59.3906,25.3438 60.2969,26.4844 Q61.2188,27.625 62.9531,27.625 Q63.9844,27.625 66.0156,27.0313 Z " fill="#000000"/><text fill="#000000" font-family="sans-serif" font-size="14" lengthAdjust="spacing" textLength="32" x="76.5" y="27.8467">User</text><line style="stroke:#181818;stroke-width:0.5;" x1="48.5" x2="110.5" y1="39" y2="39"/><line style="stroke:#181818;stroke-width:0.5;" x1="48.5" x2="110.5" y1="47" y2="47"/></g><!--class Tool Usage Log--><g id="elem_Tool Usage Log"><rect codeLine="2" fill="#76D7C4" height="96.8906" id="Tool Usage Log" rx="2.5" ry="2.5" style="stroke:#181818;stroke-width:0.5;" width="145" x="7" y="132"/><ellipse cx="24.7" cy="148" fill="#ADD1B2" rx="11" ry="11" style="stroke:#181818;stroke-width:1.0;"/><path d="M28.2156,152.0313 L28.2156,154.0625 Q26.7313,154.6719 24.9031,154.6719 Q22.1844,154.6719 20.7313,152.9375 Q19.2781,151.1875 19.2781,148.0781 Q19.2781,145.0781 20.8563,143.2969 Q22.4344,141.5 25.1531,141.5 Q27.0594,141.5 28.7938,142.4219 L27.8406,144.3281 Q26.3406,143.5469 25.1531,143.5469 Q23.5438,143.5469 22.5594,144.7656 Q21.5906,145.9688 21.5906,148.0938 Q21.5906,150.3438 22.4969,151.4844 Q23.4188,152.625 25.1531,152.625 Q26.1844,152.625 28.2156,152.0313 Z " fill="#000000"/><text fill="#000000" font-family="sans-serif" font-size="14" lengthAdjust="spacing" textLength="107" x="39.3" y="152.8467">Tool Usage Log</text><line style="stroke:#181818;stroke-width:0.5;" x1="8" x2="151" y1="164" y2="164"/><text fill="#000000" font-family="sans-serif" font-size="14" lengthAdjust="spacing" textLength="71" x="13" y="180.9951">tool : Data</text><text fill="#000000" font-family="sans-serif" font-size="14" lengthAdjust="spacing" textLength="98" x="13" y="197.292">used_by : Link</text><text fill="#000000" font-family="sans-serif" font-size="14" lengthAdjust="spacing" textLength="133" x="13" y="213.5889">usage_notes : Text</text><line style="stroke:#181818;stroke-width:0.5;" x1="8" x2="151" y1="220.8906" y2="220.8906"/></g><!--reverse link User to Tool Usage Log--><g id="link_User_Tool Usage Log"><path codeLine="1" d="M79.5,68.11 C79.5,87.32 79.5,111.2 79.5,131.92 " fill="none" id="User-backto-Tool Usage Log" style="stroke:#181818;stroke-width:1.0;"/><polygon fill="#181818" points="79.5,55.05,75.5,61.05,79.5,67.05,83.5,61.05,79.5,55.05" style="stroke:#181818;stroke-width:1.0;"/><text fill="#000000" font-family="sans-serif" font-size="13" lengthAdjust="spacing" textLength="53" x="80.5" y="98.0669">used_by</text></g><!--SRC=[KmejJYrIKj3IrLLG2idFpr48BKvCJrNmoKzNKh1IA2rEJObFgkHApaaiBiPKe6nkvcBkRA9GpQMWK0AIir9mIIn91FAW6e42FfbvsM01eAxulFoIr6AWO4XgHGbNBG00]--></g></svg>