<?xml version="1.0" encoding="us-ascii" standalone="no"?><svg xmlns="http://www.w3.org/2000/svg" xmlns:xlink="http://www.w3.org/1999/xlink" contentStyleType="text/css" height="117px" preserveAspectRatio="none" style="width:193px;height:117px;background:#FFFFFF;" version="1.1" viewBox="0 0 193 117" width="193px" zoomAndPan="magnify"><defs/><g><!--class External Work Logs--><g id="elem_External Work Logs"><rect codeLine="1" fill="#F5CBA7" height="96.8906" id="External Work Logs" rx="2.5" ry="2.5" style="stroke:#181818;stroke-width:0.5;" width="172" x="7" y="7"/><ellipse cx="26.05" cy="23" fill="#ADD1B2" rx="11" ry="11" style="stroke:#181818;stroke-width:1.0;"/><path d="M29.5656,27.0313 L29.5656,29.0625 Q28.0813,29.6719 26.2531,29.6719 Q23.5344,29.6719 22.0813,27.9375 Q20.6281,26.1875 20.6281,23.0781 Q20.6281,20.0781 22.2063,18.2969 Q23.7844,16.5 26.5031,16.5 Q28.4094,16.5 30.1438,17.4219 L29.1906,19.3281 Q27.6906,18.5469 26.5031,18.5469 Q24.8938,18.5469 23.9094,19.7656 Q22.9406,20.9688 22.9406,23.0938 Q22.9406,25.3438 23.8469,26.4844 Q24.7688,27.625 26.5031,27.625 Q27.5344,27.625 29.5656,27.0313 Z " fill="#000000"/><text fill="#000000" font-family="sans-serif" font-size="14" lengthAdjust="spacing" textLength="131" x="40.95" y="27.8467">External Work Logs</text><line style="stroke:#181818;stroke-width:0.5;" x1="8" x2="178" y1="39" y2="39"/><text fill="#000000" font-family="sans-serif" font-size="14" lengthAdjust="spacing" textLength="160" x="13" y="55.9951">description : Small Text</text><text fill="#000000" font-family="sans-serif" font-size="14" lengthAdjust="spacing" textLength="140" x="13" y="72.292">performed_by : Data</text><text fill="#000000" font-family="sans-serif" font-size="14" lengthAdjust="spacing" textLength="77" x="13" y="88.5889">date : Date</text><line style="stroke:#181818;stroke-width:0.5;" x1="8" x2="178" y1="95.8906" y2="95.8906"/></g><!--SRC=[Iyv9B2vMK7AjA4ajoalCKGZFByfMyCbFBrPIK7OpTNPoD5Uevb9GI4ajJYxAB2Z9pCzJi588patCoL48IQqe0KeLf1QbvHVbfgR49rK2vLmIIn916X9BKY6yLAvQ0000]--></g></svg>