<?xml version="1.0" encoding="us-ascii" standalone="no"?><svg xmlns="http://www.w3.org/2000/svg" xmlns:xlink="http://www.w3.org/1999/xlink" contentStyleType="text/css" height="301px" preserveAspectRatio="none" style="width:332px;height:301px;background:#FFFFFF;" version="1.1" viewBox="0 0 332 301" width="332px" zoomAndPan="magnify"><defs/><g><!--class Item--><g id="elem_Item"><rect fill="#F1F1F1" height="48" id="Item" rx="2.5" ry="2.5" style="stroke:#181818;stroke-width:0.5;" width="62" x="7" y="7"/><ellipse cx="22" cy="23" fill="#ADD1B2" rx="11" ry="11" style="stroke:#181818;stroke-width:1.0;"/><path d="M25.5156,27.0313 L25.5156,29.0625 Q24.0313,29.6719 22.2031,29.6719 Q19.4844,29.6719 18.0313,27.9375 Q16.5781,26.1875 16.5781,23.0781 Q16.5781,20.0781 18.1563,18.2969 Q19.7344,16.5 22.4531,16.5 Q24.3594,16.5 26.0938,17.4219 L25.1406,19.3281 Q23.6406,18.5469 22.4531,18.5469 Q20.8438,18.5469 19.8594,19.7656 Q18.8906,20.9688 18.8906,23.0938 Q18.8906,25.3438 19.7969,26.4844 Q20.7188,27.625 22.4531,27.625 Q23.4844,27.625 25.5156,27.0313 Z " fill="#000000"/><text fill="#000000" font-family="sans-serif" font-size="14" lengthAdjust="spacing" textLength="30" x="36" y="27.8467">Item</text><line style="stroke:#181818;stroke-width:0.5;" x1="8" x2="68" y1="39" y2="39"/><line style="stroke:#181818;stroke-width:0.5;" x1="8" x2="68" y1="47" y2="47"/></g><!--class Repair Part Used--><g id="elem_Repair Part Used"><rect codeLine="4" fill="#76D7C4" height="162.0781" id="Repair Part Used" rx="2.5" ry="2.5" style="stroke:#181818;stroke-width:0.5;" width="147" x="73.5" y="132"/><ellipse cx="88.5" cy="148" fill="#ADD1B2" rx="11" ry="11" style="stroke:#181818;stroke-width:1.0;"/><path d="M92.0156,152.0313 L92.0156,154.0625 Q90.5313,154.6719 88.7031,154.6719 Q85.9844,154.6719 84.5313,152.9375 Q83.0781,151.1875 83.0781,148.0781 Q83.0781,145.0781 84.6563,143.2969 Q86.2344,141.5 88.9531,141.5 Q90.8594,141.5 92.5938,142.4219 L91.6406,144.3281 Q90.1406,143.5469 88.9531,143.5469 Q87.3438,143.5469 86.3594,144.7656 Q85.3906,145.9688 85.3906,148.0938 Q85.3906,150.3438 86.2969,151.4844 Q87.2188,152.625 88.9531,152.625 Q89.9844,152.625 92.0156,152.0313 Z " fill="#000000"/><text fill="#000000" font-family="sans-serif" font-size="14" lengthAdjust="spacing" textLength="115" x="102.5" y="152.8467">Repair Part Used</text><line style="stroke:#181818;stroke-width:0.5;" x1="74.5" x2="219.5" y1="164" y2="164"/><text fill="#000000" font-family="sans-serif" font-size="14" lengthAdjust="spacing" textLength="112" x="79.5" y="180.9951">item_code : Link</text><text fill="#000000" font-family="sans-serif" font-size="14" lengthAdjust="spacing" textLength="121" x="79.5" y="197.292">item_name : Data</text><text fill="#000000" font-family="sans-serif" font-size="14" lengthAdjust="spacing" textLength="67" x="79.5" y="213.5889">qty : Float</text><text fill="#000000" font-family="sans-serif" font-size="14" lengthAdjust="spacing" textLength="71" x="79.5" y="229.8857">uom : Link</text><text fill="#000000" font-family="sans-serif" font-size="14" lengthAdjust="spacing" textLength="102" x="79.5" y="246.1826">rate : Currency</text><text fill="#000000" font-family="sans-serif" font-size="14" lengthAdjust="spacing" textLength="128" x="79.5" y="262.4795">amount : Currency</text><text fill="#000000" font-family="sans-serif" font-size="14" lengthAdjust="spacing" textLength="117" x="79.5" y="278.7764">warehouse : Link</text><line style="stroke:#181818;stroke-width:0.5;" x1="74.5" x2="219.5" y1="286.0781" y2="286.0781"/></g><!--class UOM--><g id="elem_UOM"><rect fill="#F1F1F1" height="48" id="UOM" rx="2.5" ry="2.5" style="stroke:#181818;stroke-width:0.5;" width="65" x="114.5" y="7"/><ellipse cx="129.5" cy="23" fill="#ADD1B2" rx="11" ry="11" style="stroke:#181818;stroke-width:1.0;"/><path d="M133.0156,27.0313 L133.0156,29.0625 Q131.5313,29.6719 129.7031,29.6719 Q126.9844,29.6719 125.5313,27.9375 Q124.0781,26.1875 124.0781,23.0781 Q124.0781,20.0781 125.6563,18.2969 Q127.2344,16.5 129.9531,16.5 Q131.8594,16.5 133.5938,17.4219 L132.6406,19.3281 Q131.1406,18.5469 129.9531,18.5469 Q128.3438,18.5469 127.3594,19.7656 Q126.3906,20.9688 126.3906,23.0938 Q126.3906,25.3438 127.2969,26.4844 Q128.2188,27.625 129.9531,27.625 Q130.9844,27.625 133.0156,27.0313 Z " fill="#000000"/><text fill="#000000" font-family="sans-serif" font-size="14" lengthAdjust="spacing" textLength="33" x="143.5" y="27.8467">UOM</text><line style="stroke:#181818;stroke-width:0.5;" x1="115.5" x2="178.5" y1="39" y2="39"/><line style="stroke:#181818;stroke-width:0.5;" x1="115.5" x2="178.5" y1="47" y2="47"/></g><!--class Warehouse--><g id="elem_Warehouse"><rect fill="#F1F1F1" height="48" id="Warehouse" rx="2.5" ry="2.5" style="stroke:#181818;stroke-width:0.5;" width="111" x="214.5" y="7"/><ellipse cx="229.5" cy="23" fill="#ADD1B2" rx="11" ry="11" style="stroke:#181818;stroke-width:1.0;"/><path d="M233.0156,27.0313 L233.0156,29.0625 Q231.5313,29.6719 229.7031,29.6719 Q226.9844,29.6719 225.5313,27.9375 Q224.0781,26.1875 224.0781,23.0781 Q224.0781,20.0781 225.6563,18.2969 Q227.2344,16.5 229.9531,16.5 Q231.8594,16.5 233.5938,17.4219 L232.6406,19.3281 Q231.1406,18.5469 229.9531,18.5469 Q228.3438,18.5469 227.3594,19.7656 Q226.3906,20.9688 226.3906,23.0938 Q226.3906,25.3438 227.2969,26.4844 Q228.2188,27.625 229.9531,27.625 Q230.9844,27.625 233.0156,27.0313 Z " fill="#000000"/><text fill="#000000" font-family="sans-serif" font-size="14" lengthAdjust="spacing" textLength="79" x="243.5" y="27.8467">Warehouse</text><line style="stroke:#181818;stroke-width:0.5;" x1="215.5" x2="324.5" y1="39" y2="39"/><line style="stroke:#181818;stroke-width:0.5;" x1="215.5" x2="324.5" y1="47" y2="47"/></g><!--reverse link Item to Repair Part Used--><g id="link_Item_Repair Part Used"><path codeLine="1" d="M52.66,67.36 C57.73,78.65 63.73,91.05 70,102 C75.67,111.91 82,122.06 88.51,131.99 " fill="none" id="Item-backto-Repair Part Used" style="stroke:#181818;stroke-width:1.0;"/><polygon fill="#181818" points="47.35,55.22,46.0912,62.3204,52.1612,66.2133,53.42,59.1129,47.35,55.22" style="stroke:#181818;stroke-width:1.0;"/><text fill="#000000" font-family="sans-serif" font-size="13" lengthAdjust="spacing" textLength="67" x="71" y="98.0669">item_code</text></g><!--reverse link UOM to Repair Part Used--><g id="link_UOM_Repair Part Used"><path codeLine="2" d="M147,68.19 C147,86.54 147,109.61 147,131.86 " fill="none" id="UOM-backto-Repair Part Used" style="stroke:#181818;stroke-width:1.0;"/><polygon fill="#181818" points="147,55.16,143,61.16,147,67.16,151,61.16,147,55.16" style="stroke:#181818;stroke-width:1.0;"/><text fill="#000000" font-family="sans-serif" font-size="13" lengthAdjust="spacing" textLength="29" x="148" y="98.0669">uom</text></g><!--reverse link Warehouse to Repair Part Used--><g id="link_Warehouse_Repair Part Used"><path codeLine="3" d="M246.73,66.05 C233.97,84.73 217.57,108.73 201.76,131.86 " fill="none" id="Warehouse-backto-Repair Part Used" style="stroke:#181818;stroke-width:1.0;"/><polygon fill="#181818" points="254.17,55.16,247.4827,57.8582,247.4014,65.0689,254.0886,62.3706,254.17,55.16" style="stroke:#181818;stroke-width:1.0;"/><text fill="#000000" font-family="sans-serif" font-size="13" lengthAdjust="spacing" textLength="69" x="234" y="98.0669">warehouse</text></g><!--SRC=[VOx12i8m44Jl-OebteJUn8BN5a6mA4BnA4kxOB59DDaWHVntjuTO1Ebntho1qJices6PPQ1FTCVEmn4zGnserR21JkfBurfIkZvKCs9qHkapUhgw66X6V2P7DJs6y4zQvEioBrRmKZ0TaEc-ixU4B9eHbSWewC63X6tla2N9bydsoADOHE_9DeCGD2vQ_cNVLsdu_W00]--></g></svg>