<?xml version="1.0" encoding="us-ascii" standalone="no"?><svg xmlns="http://www.w3.org/2000/svg" xmlns:xlink="http://www.w3.org/1999/xlink" contentStyleType="text/css" height="789px" preserveAspectRatio="none" style="width:1484px;height:789px;background:#FFFFFF;" version="1.1" viewBox="0 0 1484 789" width="1484px" zoomAndPan="magnify"><defs/><g><!--class Supplier--><g id="elem_Supplier"><rect fill="#F1F1F1" height="48" id="Supplier" rx="2.5" ry="2.5" style="stroke:#181818;stroke-width:0.5;" width="88" x="7" y="7"/><ellipse cx="22" cy="23" fill="#ADD1B2" rx="11" ry="11" style="stroke:#181818;stroke-width:1.0;"/><path d="M25.5156,27.0313 L25.5156,29.0625 Q24.0313,29.6719 22.2031,29.6719 Q19.4844,29.6719 18.0313,27.9375 Q16.5781,26.1875 16.5781,23.0781 Q16.5781,20.0781 18.1563,18.2969 Q19.7344,16.5 22.4531,16.5 Q24.3594,16.5 26.0938,17.4219 L25.1406,19.3281 Q23.6406,18.5469 22.4531,18.5469 Q20.8438,18.5469 19.8594,19.7656 Q18.8906,20.9688 18.8906,23.0938 Q18.8906,25.3438 19.7969,26.4844 Q20.7188,27.625 22.4531,27.625 Q23.4844,27.625 25.5156,27.0313 Z " fill="#000000"/><text fill="#000000" font-family="sans-serif" font-size="14" lengthAdjust="spacing" textLength="56" x="36" y="27.8467">Supplier</text><line style="stroke:#181818;stroke-width:0.5;" x1="8" x2="94" y1="39" y2="39"/><line style="stroke:#181818;stroke-width:0.5;" x1="8" x2="94" y1="47" y2="47"/></g><!--class Clarinet Intake--><g id="elem_Clarinet Intake"><rect codeLine="12" fill="#A9DFBF" height="650.9844" id="Clarinet Intake" rx="2.5" ry="2.5" style="stroke:#181818;stroke-width:0.5;" width="216" x="537" y="132"/><ellipse cx="591.75" cy="148" fill="#ADD1B2" rx="11" ry="11" style="stroke:#181818;stroke-width:1.0;"/><path d="M595.2656,152.0313 L595.2656,154.0625 Q593.7813,154.6719 591.9531,154.6719 Q589.2344,154.6719 587.7813,152.9375 Q586.3281,151.1875 586.3281,148.0781 Q586.3281,145.0781 587.9063,143.2969 Q589.4844,141.5 592.2031,141.5 Q594.1094,141.5 595.8438,142.4219 L594.8906,144.3281 Q593.3906,143.5469 592.2031,143.5469 Q590.5938,143.5469 589.6094,144.7656 Q588.6406,145.9688 588.6406,148.0938 Q588.6406,150.3438 589.5469,151.4844 Q590.4688,152.625 592.2031,152.625 Q593.2344,152.625 595.2656,152.0313 Z " fill="#000000"/><text fill="#000000" font-family="sans-serif" font-size="14" lengthAdjust="spacing" textLength="98" x="612.25" y="152.8467">Clarinet Intake</text><line style="stroke:#181818;stroke-width:0.5;" x1="538" x2="752" y1="164" y2="164"/><text fill="#000000" font-family="sans-serif" font-size="14" lengthAdjust="spacing" textLength="156" x="543" y="180.9951">naming_series : Select</text><text fill="#000000" font-family="sans-serif" font-size="14" lengthAdjust="spacing" textLength="106" x="543" y="197.292">intake_id : Data</text><text fill="#000000" font-family="sans-serif" font-size="14" lengthAdjust="spacing" textLength="135" x="543" y="213.5889">intake_type : Select</text><text fill="#000000" font-family="sans-serif" font-size="14" lengthAdjust="spacing" textLength="142" x="543" y="229.8857">serial_number : Data</text><text fill="#000000" font-family="sans-serif" font-size="14" lengthAdjust="spacing" textLength="80" x="543" y="246.1826">brand : Link</text><text fill="#000000" font-family="sans-serif" font-size="14" lengthAdjust="spacing" textLength="88" x="543" y="262.4795">model : Data</text><text fill="#000000" font-family="sans-serif" font-size="14" lengthAdjust="spacing" textLength="151" x="543" y="278.7764">body_material : Select</text><text fill="#000000" font-family="sans-serif" font-size="14" lengthAdjust="spacing" textLength="133" x="543" y="295.0732">key_plating : Select</text><text fill="#000000" font-family="sans-serif" font-size="14" lengthAdjust="spacing" textLength="135" x="543" y="311.3701">year_estimated : Int</text><text fill="#000000" font-family="sans-serif" font-size="14" lengthAdjust="spacing" textLength="198" x="543" y="327.667">instrument_category : Select</text><text fill="#000000" font-family="sans-serif" font-size="14" lengthAdjust="spacing" textLength="95" x="543" y="343.9639">supplier : Link</text><text fill="#000000" font-family="sans-serif" font-size="14" lengthAdjust="spacing" textLength="149" x="543" y="360.2607">purchase_order : Link</text><text fill="#000000" font-family="sans-serif" font-size="14" lengthAdjust="spacing" textLength="160" x="543" y="376.5576">purchase_receipt : Link</text><text fill="#000000" font-family="sans-serif" font-size="14" lengthAdjust="spacing" textLength="117" x="543" y="392.8545">warehouse : Link</text><text fill="#000000" font-family="sans-serif" font-size="14" lengthAdjust="spacing" textLength="143" x="543" y="409.1514">received_date : Date</text><text fill="#000000" font-family="sans-serif" font-size="14" lengthAdjust="spacing" textLength="122" x="543" y="425.4482">received_by : Link</text><text fill="#000000" font-family="sans-serif" font-size="14" lengthAdjust="spacing" textLength="164" x="543" y="441.7451">instrument_profile : Link</text><text fill="#000000" font-family="sans-serif" font-size="14" lengthAdjust="spacing" textLength="144" x="543" y="458.042">stock_status : Select</text><text fill="#000000" font-family="sans-serif" font-size="14" lengthAdjust="spacing" textLength="123" x="543" y="474.3389">qc_status : Select</text><text fill="#000000" font-family="sans-serif" font-size="14" lengthAdjust="spacing" textLength="186" x="543" y="490.6357">inspection_date : Datetime</text><text fill="#000000" font-family="sans-serif" font-size="14" lengthAdjust="spacing" textLength="132" x="543" y="506.9326">inspected_by : Link</text><text fill="#000000" font-family="sans-serif" font-size="14" lengthAdjust="spacing" textLength="106" x="543" y="523.2295">customer : Link</text><text fill="#000000" font-family="sans-serif" font-size="14" lengthAdjust="spacing" textLength="148" x="543" y="539.5264">repair_priority : Select</text><text fill="#000000" font-family="sans-serif" font-size="14" lengthAdjust="spacing" textLength="111" x="543" y="555.8232">due_date : Date</text><text fill="#000000" font-family="sans-serif" font-size="14" lengthAdjust="spacing" textLength="156" x="543" y="572.1201">customer_notes : Text</text><text fill="#000000" font-family="sans-serif" font-size="14" lengthAdjust="spacing" textLength="182" x="543" y="588.417">follow_up_due_date : Date</text><text fill="#000000" font-family="sans-serif" font-size="14" lengthAdjust="spacing" textLength="202" x="543" y="604.7139">follow_up_completed : Check</text><text fill="#000000" font-family="sans-serif" font-size="14" lengthAdjust="spacing" textLength="112" x="543" y="621.0107">checklist : Table</text><text fill="#000000" font-family="sans-serif" font-size="14" lengthAdjust="spacing" textLength="193" x="543" y="637.3076">initial_photos : Attach Image</text><text fill="#000000" font-family="sans-serif" font-size="14" lengthAdjust="spacing" textLength="144" x="543" y="653.6045">attachments : Attach</text><text fill="#000000" font-family="sans-serif" font-size="14" lengthAdjust="spacing" textLength="154" x="543" y="669.9014">condition_notes : Text</text><text fill="#000000" font-family="sans-serif" font-size="14" lengthAdjust="spacing" textLength="136" x="543" y="686.1982">intake_duration : Int</text><text fill="#000000" font-family="sans-serif" font-size="14" lengthAdjust="spacing" textLength="142" x="543" y="702.4951">workflow_state : Link</text><text fill="#000000" font-family="sans-serif" font-size="14" lengthAdjust="spacing" textLength="121" x="543" y="718.792">created_by : Data</text><text fill="#000000" font-family="sans-serif" font-size="14" lengthAdjust="spacing" textLength="170" x="543" y="735.0889">creation_date : Datetime</text><text fill="#000000" font-family="sans-serif" font-size="14" lengthAdjust="spacing" textLength="158" x="543" y="751.3857">last_modified_by : Data</text><text fill="#000000" font-family="sans-serif" font-size="14" lengthAdjust="spacing" textLength="204" x="543" y="767.6826">last_modified_date : Datetime</text><line style="stroke:#181818;stroke-width:0.5;" x1="538" x2="752" y1="774.9844" y2="774.9844"/></g><!--class Purchase Order--><g id="elem_Purchase Order"><rect fill="#F1F1F1" height="48" id="Purchase Order" rx="2.5" ry="2.5" style="stroke:#181818;stroke-width:0.5;" width="140" x="130" y="7"/><ellipse cx="145" cy="23" fill="#ADD1B2" rx="11" ry="11" style="stroke:#181818;stroke-width:1.0;"/><path d="M148.5156,27.0313 L148.5156,29.0625 Q147.0313,29.6719 145.2031,29.6719 Q142.4844,29.6719 141.0313,27.9375 Q139.5781,26.1875 139.5781,23.0781 Q139.5781,20.0781 141.1563,18.2969 Q142.7344,16.5 145.4531,16.5 Q147.3594,16.5 149.0938,17.4219 L148.1406,19.3281 Q146.6406,18.5469 145.4531,18.5469 Q143.8438,18.5469 142.8594,19.7656 Q141.8906,20.9688 141.8906,23.0938 Q141.8906,25.3438 142.7969,26.4844 Q143.7188,27.625 145.4531,27.625 Q146.4844,27.625 148.5156,27.0313 Z " fill="#000000"/><text fill="#000000" font-family="sans-serif" font-size="14" lengthAdjust="spacing" textLength="108" x="159" y="27.8467">Purchase Order</text><line style="stroke:#181818;stroke-width:0.5;" x1="131" x2="269" y1="39" y2="39"/><line style="stroke:#181818;stroke-width:0.5;" x1="131" x2="269" y1="47" y2="47"/></g><!--class Purchase Receipt--><g id="elem_Purchase Receipt"><rect fill="#F1F1F1" height="48" id="Purchase Receipt" rx="2.5" ry="2.5" style="stroke:#181818;stroke-width:0.5;" width="154" x="305" y="7"/><ellipse cx="320" cy="23" fill="#ADD1B2" rx="11" ry="11" style="stroke:#181818;stroke-width:1.0;"/><path d="M323.5156,27.0313 L323.5156,29.0625 Q322.0313,29.6719 320.2031,29.6719 Q317.4844,29.6719 316.0313,27.9375 Q314.5781,26.1875 314.5781,23.0781 Q314.5781,20.0781 316.1563,18.2969 Q317.7344,16.5 320.4531,16.5 Q322.3594,16.5 324.0938,17.4219 L323.1406,19.3281 Q321.6406,18.5469 320.4531,18.5469 Q318.8438,18.5469 317.8594,19.7656 Q316.8906,20.9688 316.8906,23.0938 Q316.8906,25.3438 317.7969,26.4844 Q318.7188,27.625 320.4531,27.625 Q321.4844,27.625 323.5156,27.0313 Z " fill="#000000"/><text fill="#000000" font-family="sans-serif" font-size="14" lengthAdjust="spacing" textLength="122" x="334" y="27.8467">Purchase Receipt</text><line style="stroke:#181818;stroke-width:0.5;" x1="306" x2="458" y1="39" y2="39"/><line style="stroke:#181818;stroke-width:0.5;" x1="306" x2="458" y1="47" y2="47"/></g><!--class Warehouse--><g id="elem_Warehouse"><rect fill="#F1F1F1" height="48" id="Warehouse" rx="2.5" ry="2.5" style="stroke:#181818;stroke-width:0.5;" width="111" x="494.5" y="7"/><ellipse cx="509.5" cy="23" fill="#ADD1B2" rx="11" ry="11" style="stroke:#181818;stroke-width:1.0;"/><path d="M513.0156,27.0313 L513.0156,29.0625 Q511.5313,29.6719 509.7031,29.6719 Q506.9844,29.6719 505.5313,27.9375 Q504.0781,26.1875 504.0781,23.0781 Q504.0781,20.0781 505.6563,18.2969 Q507.2344,16.5 509.9531,16.5 Q511.8594,16.5 513.5938,17.4219 L512.6406,19.3281 Q511.1406,18.5469 509.9531,18.5469 Q508.3438,18.5469 507.3594,19.7656 Q506.3906,20.9688 506.3906,23.0938 Q506.3906,25.3438 507.2969,26.4844 Q508.2188,27.625 509.9531,27.625 Q510.9844,27.625 513.0156,27.0313 Z " fill="#000000"/><text fill="#000000" font-family="sans-serif" font-size="14" lengthAdjust="spacing" textLength="79" x="523.5" y="27.8467">Warehouse</text><line style="stroke:#181818;stroke-width:0.5;" x1="495.5" x2="604.5" y1="39" y2="39"/><line style="stroke:#181818;stroke-width:0.5;" x1="495.5" x2="604.5" y1="47" y2="47"/></g><!--class User--><g id="elem_User"><rect fill="#F1F1F1" height="48" id="User" rx="2.5" ry="2.5" style="stroke:#181818;stroke-width:0.5;" width="64" x="675" y="7"/><ellipse cx="690" cy="23" fill="#ADD1B2" rx="11" ry="11" style="stroke:#181818;stroke-width:1.0;"/><path d="M693.5156,27.0313 L693.5156,29.0625 Q692.0313,29.6719 690.2031,29.6719 Q687.4844,29.6719 686.0313,27.9375 Q684.5781,26.1875 684.5781,23.0781 Q684.5781,20.0781 686.1563,18.2969 Q687.7344,16.5 690.4531,16.5 Q692.3594,16.5 694.0938,17.4219 L693.1406,19.3281 Q691.6406,18.5469 690.4531,18.5469 Q688.8438,18.5469 687.8594,19.7656 Q686.8906,20.9688 686.8906,23.0938 Q686.8906,25.3438 687.7969,26.4844 Q688.7188,27.625 690.4531,27.625 Q691.4844,27.625 693.5156,27.0313 Z " fill="#000000"/><text fill="#000000" font-family="sans-serif" font-size="14" lengthAdjust="spacing" textLength="32" x="704" y="27.8467">User</text><line style="stroke:#181818;stroke-width:0.5;" x1="676" x2="738" y1="39" y2="39"/><line style="stroke:#181818;stroke-width:0.5;" x1="676" x2="738" y1="47" y2="47"/></g><!--class Instrument Profile--><g id="elem_Instrument Profile"><rect fill="#F1F1F1" height="48" id="Instrument Profile" rx="2.5" ry="2.5" style="stroke:#181818;stroke-width:0.5;" width="153" x="808.5" y="7"/><ellipse cx="823.5" cy="23" fill="#ADD1B2" rx="11" ry="11" style="stroke:#181818;stroke-width:1.0;"/><path d="M827.0156,27.0313 L827.0156,29.0625 Q825.5313,29.6719 823.7031,29.6719 Q820.9844,29.6719 819.5313,27.9375 Q818.0781,26.1875 818.0781,23.0781 Q818.0781,20.0781 819.6563,18.2969 Q821.2344,16.5 823.9531,16.5 Q825.8594,16.5 827.5938,17.4219 L826.6406,19.3281 Q825.1406,18.5469 823.9531,18.5469 Q822.3438,18.5469 821.3594,19.7656 Q820.3906,20.9688 820.3906,23.0938 Q820.3906,25.3438 821.2969,26.4844 Q822.2188,27.625 823.9531,27.625 Q824.9844,27.625 827.0156,27.0313 Z " fill="#000000"/><text fill="#000000" font-family="sans-serif" font-size="14" lengthAdjust="spacing" textLength="121" x="837.5" y="27.8467">Instrument Profile</text><line style="stroke:#181818;stroke-width:0.5;" x1="809.5" x2="960.5" y1="39" y2="39"/><line style="stroke:#181818;stroke-width:0.5;" x1="809.5" x2="960.5" y1="47" y2="47"/></g><!--class Customer--><g id="elem_Customer"><rect fill="#F1F1F1" height="48" id="Customer" rx="2.5" ry="2.5" style="stroke:#181818;stroke-width:0.5;" width="100" x="997" y="7"/><ellipse cx="1012" cy="23" fill="#ADD1B2" rx="11" ry="11" style="stroke:#181818;stroke-width:1.0;"/><path d="M1015.5156,27.0313 L1015.5156,29.0625 Q1014.0313,29.6719 1012.2031,29.6719 Q1009.4844,29.6719 1008.0313,27.9375 Q1006.5781,26.1875 1006.5781,23.0781 Q1006.5781,20.0781 1008.1563,18.2969 Q1009.7344,16.5 1012.4531,16.5 Q1014.3594,16.5 1016.0938,17.4219 L1015.1406,19.3281 Q1013.6406,18.5469 1012.4531,18.5469 Q1010.8438,18.5469 1009.8594,19.7656 Q1008.8906,20.9688 1008.8906,23.0938 Q1008.8906,25.3438 1009.7969,26.4844 Q1010.7188,27.625 1012.4531,27.625 Q1013.4844,27.625 1015.5156,27.0313 Z " fill="#000000"/><text fill="#000000" font-family="sans-serif" font-size="14" lengthAdjust="spacing" textLength="68" x="1026" y="27.8467">Customer</text><line style="stroke:#181818;stroke-width:0.5;" x1="998" x2="1096" y1="39" y2="39"/><line style="stroke:#181818;stroke-width:0.5;" x1="998" x2="1096" y1="47" y2="47"/></g><!--class Intake Checklist Item--><g id="elem_Intake Checklist Item"><rect fill="#F1F1F1" height="48" id="Intake Checklist Item" rx="2.5" ry="2.5" style="stroke:#181818;stroke-width:0.5;" width="175" x="1132.5" y="7"/><ellipse cx="1147.5" cy="23" fill="#ADD1B2" rx="11" ry="11" style="stroke:#181818;stroke-width:1.0;"/><path d="M1151.0156,27.0313 L1151.0156,29.0625 Q1149.5313,29.6719 1147.7031,29.6719 Q1144.9844,29.6719 1143.5313,27.9375 Q1142.0781,26.1875 1142.0781,23.0781 Q1142.0781,20.0781 1143.6563,18.2969 Q1145.2344,16.5 1147.9531,16.5 Q1149.8594,16.5 1151.5938,17.4219 L1150.6406,19.3281 Q1149.1406,18.5469 1147.9531,18.5469 Q1146.3438,18.5469 1145.3594,19.7656 Q1144.3906,20.9688 1144.3906,23.0938 Q1144.3906,25.3438 1145.2969,26.4844 Q1146.2188,27.625 1147.9531,27.625 Q1148.9844,27.625 1151.0156,27.0313 Z " fill="#000000"/><text fill="#000000" font-family="sans-serif" font-size="14" lengthAdjust="spacing" textLength="143" x="1161.5" y="27.8467">Intake Checklist Item</text><line style="stroke:#181818;stroke-width:0.5;" x1="1133.5" x2="1306.5" y1="39" y2="39"/><line style="stroke:#181818;stroke-width:0.5;" x1="1133.5" x2="1306.5" y1="47" y2="47"/></g><!--class Workflow State--><g id="elem_Workflow State"><rect fill="#F1F1F1" height="48" id="Workflow State" rx="2.5" ry="2.5" style="stroke:#181818;stroke-width:0.5;" width="134" x="1343" y="7"/><ellipse cx="1358" cy="23" fill="#ADD1B2" rx="11" ry="11" style="stroke:#181818;stroke-width:1.0;"/><path d="M1361.5156,27.0313 L1361.5156,29.0625 Q1360.0313,29.6719 1358.2031,29.6719 Q1355.4844,29.6719 1354.0313,27.9375 Q1352.5781,26.1875 1352.5781,23.0781 Q1352.5781,20.0781 1354.1563,18.2969 Q1355.7344,16.5 1358.4531,16.5 Q1360.3594,16.5 1362.0938,17.4219 L1361.1406,19.3281 Q1359.6406,18.5469 1358.4531,18.5469 Q1356.8438,18.5469 1355.8594,19.7656 Q1354.8906,20.9688 1354.8906,23.0938 Q1354.8906,25.3438 1355.7969,26.4844 Q1356.7188,27.625 1358.4531,27.625 Q1359.4844,27.625 1361.5156,27.0313 Z " fill="#000000"/><text fill="#000000" font-family="sans-serif" font-size="14" lengthAdjust="spacing" textLength="102" x="1372" y="27.8467">Workflow State</text><line style="stroke:#181818;stroke-width:0.5;" x1="1344" x2="1476" y1="39" y2="39"/><line style="stroke:#181818;stroke-width:0.5;" x1="1344" x2="1476" y1="47" y2="47"/></g><!--reverse link Supplier to Clarinet Intake--><g id="link_Supplier_Clarinet Intake"><path codeLine="1" d="M42.17,68.11 C41.21,79.58 42.25,91.89 48,102 C152.87,286.25 395.42,384.65 536.98,428.2 " fill="none" id="Supplier-backto-Clarinet Intake" style="stroke:#181818;stroke-width:1.0;"/><polygon fill="#181818" points="44.05,55.21,39.2275,60.5713,42.3215,67.0849,47.1441,61.7236,44.05,55.21" style="stroke:#181818;stroke-width:1.0;"/><text fill="#000000" font-family="sans-serif" font-size="13" lengthAdjust="spacing" textLength="37" x="49" y="98.0669">brand</text></g><!--reverse link Supplier to Clarinet Intake--><g id="link_Supplier_Clarinet Intake"><path codeLine="2" d="M94.21,62.88 C186.3,128.7 404.3,284.48 536.76,379.14 " fill="none" id="Supplier-backto-Clarinet Intake-1" style="stroke:#181818;stroke-width:1.0;"/><polygon fill="#181818" points="83.36,55.12,85.9149,61.8633,93.1221,62.0986,90.5673,55.3553,83.36,55.12" style="stroke:#181818;stroke-width:1.0;"/><text fill="#000000" font-family="sans-serif" font-size="13" lengthAdjust="spacing" textLength="50" x="139" y="98.0669">supplier</text></g><!--reverse link Purchase Order to Clarinet Intake--><g id="link_Purchase Order_Clarinet Intake"><path codeLine="3" d="M233.79,64.23 C297.51,125.02 437.89,258.93 536.84,353.33 " fill="none" id="Purchase Order-backto-Clarinet Intake" style="stroke:#181818;stroke-width:1.0;"/><polygon fill="#181818" points="224.24,55.12,225.8187,62.1562,232.9209,63.4051,231.3421,56.3689,224.24,55.12" style="stroke:#181818;stroke-width:1.0;"/><text fill="#000000" font-family="sans-serif" font-size="13" lengthAdjust="spacing" textLength="100" x="265" y="98.0669">purchase_order</text></g><!--reverse link Purchase Receipt to Clarinet Intake--><g id="link_Purchase Receipt_Clarinet Intake"><path codeLine="4" d="M403.36,66.47 C432.56,113.61 487.02,201.51 536.86,281.95 " fill="none" id="Purchase Receipt-backto-Clarinet Intake" style="stroke:#181818;stroke-width:1.0;"/><polygon fill="#181818" points="396.33,55.12,396.0903,62.3271,402.6508,65.3204,402.8905,58.1133,396.33,55.12" style="stroke:#181818;stroke-width:1.0;"/><text fill="#000000" font-family="sans-serif" font-size="13" lengthAdjust="spacing" textLength="110" x="421" y="98.0669">purchase_receipt</text></g><!--reverse link Warehouse to Clarinet Intake--><g id="link_Warehouse_Clarinet Intake"><path codeLine="5" d="M553.25,68.21 C554.47,79.11 556.04,91.08 558,102 C559.76,111.82 561.63,121.78 563.6,131.82 " fill="none" id="Warehouse-backto-Clarinet Intake" style="stroke:#181818;stroke-width:1.0;"/><polygon fill="#181818" points="551.9,55.12,548.5343,61.4975,553.1267,67.0571,556.4924,60.6797,551.9,55.12" style="stroke:#181818;stroke-width:1.0;"/><text fill="#000000" font-family="sans-serif" font-size="13" lengthAdjust="spacing" textLength="69" x="559" y="98.0669">warehouse</text></g><!--reverse link User to Clarinet Intake--><g id="link_User_Clarinet Intake"><path codeLine="6" d="M664.38,57.6 C655.35,65.21 647.04,74.39 642,85 C634.88,100 629.21,115.75 624.79,131.93 " fill="none" id="User-backto-Clarinet Intake" style="stroke:#181818;stroke-width:1.0;"/><polygon fill="#181818" points="674.74,49.7,667.5437,50.1617,665.2021,56.9821,672.3984,56.5203,674.74,49.7" style="stroke:#181818;stroke-width:1.0;"/><text fill="#000000" font-family="sans-serif" font-size="13" lengthAdjust="spacing" textLength="76" x="643" y="98.0669">received_by</text></g><!--reverse link User to Clarinet Intake--><g id="link_User_Clarinet Intake"><path codeLine="8" d="M720.14,67.83 C721.74,73.5 723.12,79.36 724,85 C725.17,92.46 724.83,94.49 724,102 C722.91,111.87 721.66,121.87 720.27,131.94 " fill="none" id="User-backto-Clarinet Intake-1" style="stroke:#181818;stroke-width:1.0;"/><polygon fill="#181818" points="716.13,55.1,714.1144,62.0237,719.7303,66.5472,721.7459,59.6235,716.13,55.1" style="stroke:#181818;stroke-width:1.0;"/><text fill="#000000" font-family="sans-serif" font-size="13" lengthAdjust="spacing" textLength="84" x="725" y="98.0669">inspected_by</text></g><!--reverse link Instrument Profile to Clarinet Intake--><g id="link_Instrument Profile_Clarinet Intake"><path codeLine="7" d="M865.47,66.54 C840.65,110.45 795.86,189.66 753.11,265.28 " fill="none" id="Instrument Profile-backto-Clarinet Intake" style="stroke:#181818;stroke-width:1.0;"/><polygon fill="#181818" points="871.93,55.12,865.4943,58.373,866.0218,65.5648,872.4575,62.3118,871.93,55.12" style="stroke:#181818;stroke-width:1.0;"/><text fill="#000000" font-family="sans-serif" font-size="13" lengthAdjust="spacing" textLength="116" x="851" y="98.0669">instrument_profile</text></g><!--reverse link Customer to Clarinet Intake--><g id="link_Customer_Clarinet Intake"><path codeLine="9" d="M1016.14,64.59 C960.7,123.13 841.81,248.67 753.45,341.98 " fill="none" id="Customer-backto-Clarinet Intake" style="stroke:#181818;stroke-width:1.0;"/><polygon fill="#181818" points="1025.1,55.12,1018.07,56.7259,1016.8485,63.8328,1023.8785,62.2269,1025.1,55.12" style="stroke:#181818;stroke-width:1.0;"/><text fill="#000000" font-family="sans-serif" font-size="13" lengthAdjust="spacing" textLength="61" x="989" y="98.0669">customer</text></g><!--reverse link Intake Checklist Item to Clarinet Intake--><g id="link_Intake Checklist Item_Clarinet Intake"><path codeLine="10" d="M1178,63.01 C1089.55,128.31 881.68,281.77 753.24,376.59 " fill="none" id="Intake Checklist Item-backto-Clarinet Intake" style="stroke:#181818;stroke-width:1.0;"/><polygon fill="#181818" points="1188.68,55.12,1181.4771,55.463,1179.0233,62.2438,1186.2263,61.9008,1188.68,55.12" style="stroke:#181818;stroke-width:1.0;"/><text fill="#000000" font-family="sans-serif" font-size="13" lengthAdjust="spacing" textLength="55" x="1137" y="98.0669">checklist</text></g><!--reverse link Workflow State to Clarinet Intake--><g id="link_Workflow State_Clarinet Intake"><path codeLine="11" d="M1356.87,61.48 C1232.31,130.6 919.46,304.2 753.04,396.55 " fill="none" id="Workflow State-backto-Clarinet Intake" style="stroke:#181818;stroke-width:1.0;"/><polygon fill="#181818" points="1368.33,55.12,1361.1426,54.5357,1357.8389,60.9455,1365.0263,61.5298,1368.33,55.12" style="stroke:#181818;stroke-width:1.0;"/><text fill="#000000" font-family="sans-serif" font-size="13" lengthAdjust="spacing" textLength="93" x="1299" y="98.0669">workflow_state</text></g><!--SRC=[ZLFBZjGm4BpdAwnmGzeFWDiogvL6GcB5W3XQZjqpiUBOnkwmH8X_fvruyjhPB4TtLNMNs-Nor7blD8IIlR-xO-N1YA0j83jQ50sKx2EhWh2gADycnimeogSko5f4O5-2sbFupECkyHQwho11U_mFPHYPHVb31AXT5-5rqVELKfJVuvwleUalKBpgY_9e8uQk1OliARYpDZiJzCJbVkI-DOeK7YJcMOSkeclt-38pagzKOuSQP6Dq9192koEyycXLBZHduvxP2GNkxIlpU4oyGXeHumtYk_iF3u-V7jcVWZ4hMcqldAwi8LAB4nYw7G5w87EjgFWWKCmbx3qicKah3BTTMq6OsKCCwVXPsuQEhLDW5gXJFM_9PT8kkpNGSsy4agjbkGSHE4JKIPFQqcK6IzFxIG8kBlGhQpdXiurrWc_KSpvdP0hXN9hYfcZcU2TObgj-vhvCs8nHCcGpF5QtslrFUQEOWwUTNOwbXS0CRcPVixTqxeKEv4Ixe76rAzN1vZvNERSEXt1yWz-9UNOcXQpp_ALcngHhlO7niORCfuvJzgcPgCneNMFAZwyTkZJb7b78cXrRSKcu68vfWJEOMZchzB2DZRkSKjK5aU0fAklFiLXI034jBgTpgDtUDFqfv1HcVTORqHhPAl_-0m00]--></g></svg>