<?xml version="1.0" encoding="us-ascii" standalone="no"?><svg xmlns="http://www.w3.org/2000/svg" xmlns:xlink="http://www.w3.org/1999/xlink" contentStyleType="text/css" height="284px" preserveAspectRatio="none" style="width:362px;height:284px;background:#FFFFFF;" version="1.1" viewBox="0 0 362 284" width="362px" zoomAndPan="magnify"><defs/><g><!--class Inspection Report--><g id="elem_Inspection Report"><rect fill="#F1F1F1" height="48" id="Inspection Report" rx="2.5" ry="2.5" style="stroke:#181818;stroke-width:0.5;" width="155" x="7" y="7"/><ellipse cx="22" cy="23" fill="#ADD1B2" rx="11" ry="11" style="stroke:#181818;stroke-width:1.0;"/><path d="M25.5156,27.0313 L25.5156,29.0625 Q24.0313,29.6719 22.2031,29.6719 Q19.4844,29.6719 18.0313,27.9375 Q16.5781,26.1875 16.5781,23.0781 Q16.5781,20.0781 18.1563,18.2969 Q19.7344,16.5 22.4531,16.5 Q24.3594,16.5 26.0938,17.4219 L25.1406,19.3281 Q23.6406,18.5469 22.4531,18.5469 Q20.8438,18.5469 19.8594,19.7656 Q18.8906,20.9688 18.8906,23.0938 Q18.8906,25.3438 19.7969,26.4844 Q20.7188,27.625 22.4531,27.625 Q23.4844,27.625 25.5156,27.0313 Z " fill="#000000"/><text fill="#000000" font-family="sans-serif" font-size="14" lengthAdjust="spacing" textLength="123" x="36" y="27.8467">Inspection Report</text><line style="stroke:#181818;stroke-width:0.5;" x1="8" x2="161" y1="39" y2="39"/><line style="stroke:#181818;stroke-width:0.5;" x1="8" x2="161" y1="47" y2="47"/></g><!--class Repair Estimate--><g id="elem_Repair Estimate"><rect codeLine="3" fill="#E59866" height="145.7813" id="Repair Estimate" rx="2.5" ry="2.5" style="stroke:#181818;stroke-width:0.5;" width="211" x="75" y="132"/><ellipse cx="122.25" cy="148" fill="#ADD1B2" rx="11" ry="11" style="stroke:#181818;stroke-width:1.0;"/><path d="M125.7656,152.0313 L125.7656,154.0625 Q124.2813,154.6719 122.4531,154.6719 Q119.7344,154.6719 118.2813,152.9375 Q116.8281,151.1875 116.8281,148.0781 Q116.8281,145.0781 118.4063,143.2969 Q119.9844,141.5 122.7031,141.5 Q124.6094,141.5 126.3438,142.4219 L125.3906,144.3281 Q123.8906,143.5469 122.7031,143.5469 Q121.0938,143.5469 120.1094,144.7656 Q119.1406,145.9688 119.1406,148.0938 Q119.1406,150.3438 120.0469,151.4844 Q120.9688,152.625 122.7031,152.625 Q123.7344,152.625 125.7656,152.0313 Z " fill="#000000"/><text fill="#000000" font-family="sans-serif" font-size="14" lengthAdjust="spacing" textLength="108" x="142.75" y="152.8467">Repair Estimate</text><line style="stroke:#181818;stroke-width:0.5;" x1="76" x2="285" y1="164" y2="164"/><text fill="#000000" font-family="sans-serif" font-size="14" lengthAdjust="spacing" textLength="157" x="81" y="180.9951">customer_name : Data</text><text fill="#000000" font-family="sans-serif" font-size="14" lengthAdjust="spacing" textLength="139" x="81" y="197.292">instrument_id : Data</text><text fill="#000000" font-family="sans-serif" font-size="14" lengthAdjust="spacing" textLength="186" x="81" y="213.5889">inspection_reference : Link</text><text fill="#000000" font-family="sans-serif" font-size="14" lengthAdjust="spacing" textLength="199" x="81" y="229.8857">estimated_completion : Date</text><text fill="#000000" font-family="sans-serif" font-size="14" lengthAdjust="spacing" textLength="120" x="81" y="246.1826">line_items : Table</text><text fill="#000000" font-family="sans-serif" font-size="14" lengthAdjust="spacing" textLength="142" x="81" y="262.4795">total_cost : Currency</text><line style="stroke:#181818;stroke-width:0.5;" x1="76" x2="285" y1="269.7813" y2="269.7813"/></g><!--class Estimate Line Item--><g id="elem_Estimate Line Item"><rect fill="#F1F1F1" height="48" id="Estimate Line Item" rx="2.5" ry="2.5" style="stroke:#181818;stroke-width:0.5;" width="158" x="197.5" y="7"/><ellipse cx="212.5" cy="23" fill="#ADD1B2" rx="11" ry="11" style="stroke:#181818;stroke-width:1.0;"/><path d="M216.0156,27.0313 L216.0156,29.0625 Q214.5313,29.6719 212.7031,29.6719 Q209.9844,29.6719 208.5313,27.9375 Q207.0781,26.1875 207.0781,23.0781 Q207.0781,20.0781 208.6563,18.2969 Q210.2344,16.5 212.9531,16.5 Q214.8594,16.5 216.5938,17.4219 L215.6406,19.3281 Q214.1406,18.5469 212.9531,18.5469 Q211.3438,18.5469 210.3594,19.7656 Q209.3906,20.9688 209.3906,23.0938 Q209.3906,25.3438 210.2969,26.4844 Q211.2188,27.625 212.9531,27.625 Q213.9844,27.625 216.0156,27.0313 Z " fill="#000000"/><text fill="#000000" font-family="sans-serif" font-size="14" lengthAdjust="spacing" textLength="126" x="226.5" y="27.8467">Estimate Line Item</text><line style="stroke:#181818;stroke-width:0.5;" x1="198.5" x2="354.5" y1="39" y2="39"/><line style="stroke:#181818;stroke-width:0.5;" x1="198.5" x2="354.5" y1="47" y2="47"/></g><!--reverse link Inspection Report to Repair Estimate--><g id="link_Inspection Report_Repair Estimate"><path codeLine="1" d="M88.35,68.25 C90.43,79.43 93.61,91.54 98.5,102 C103.26,112.19 109.25,122.25 115.81,131.85 " fill="none" id="Inspection Report-backto-Repair Estimate" style="stroke:#181818;stroke-width:1.0;"/><polygon fill="#181818" points="86.34,55.25,83.3027,61.7902,88.1716,67.1094,91.2089,60.5692,86.34,55.25" style="stroke:#181818;stroke-width:1.0;"/><text fill="#000000" font-family="sans-serif" font-size="13" lengthAdjust="spacing" textLength="133" x="99.5" y="98.0669">inspection_reference</text></g><!--reverse link Estimate Line Item to Repair Estimate--><g id="link_Estimate Line Item_Repair Estimate"><path codeLine="2" d="M257.21,66.64 C250.93,77.91 243.92,90.49 237.5,102 C232.11,111.65 226.44,121.82 220.84,131.84 " fill="none" id="Estimate Line Item-backto-Repair Estimate" style="stroke:#181818;stroke-width:1.0;"/><polygon fill="#181818" points="263.68,55.02,257.2653,58.3142,257.8389,65.5024,264.2536,62.2083,263.68,55.02" style="stroke:#181818;stroke-width:1.0;"/><text fill="#000000" font-family="sans-serif" font-size="13" lengthAdjust="spacing" textLength="65" x="246.5" y="98.0669">line_items</text></g><!--SRC=[TOyz2y8m48Rt_8eZRa97YxfgXuAJk8SpFI6OZv9S1n7_kzVY1wAEUTxdBk_fDfQUBBiKOKzzognXNbMWvO4kGrFO1MJIi0RtKasc4sMAbfH-6h1paQ1b2lytU56C4wKewx6K7zAiMQoMTGrN1M27mYbGDX43oVWM6GLB3yv3eCZ6TH_ugvwaKkiiAJr-w8nDeVSqNJpDagJlOi8EUFGZvCJeHIyiS3FaSUD5tUu0]--></g></svg>