<?xml version="1.0" encoding="us-ascii" standalone="no"?><svg xmlns="http://www.w3.org/2000/svg" xmlns:xlink="http://www.w3.org/1999/xlink" contentStyleType="text/css" height="284px" preserveAspectRatio="none" style="width:286px;height:284px;background:#FFFFFF;" version="1.1" viewBox="0 0 286 284" width="286px" zoomAndPan="magnify"><defs/><g><!--class Clarinet Repair Log--><g id="elem_Clarinet Repair Log"><rect fill="#F1F1F1" height="48" id="Clarinet Repair Log" rx="2.5" ry="2.5" style="stroke:#181818;stroke-width:0.5;" width="161" x="7" y="7"/><ellipse cx="22" cy="23" fill="#ADD1B2" rx="11" ry="11" style="stroke:#181818;stroke-width:1.0;"/><path d="M25.5156,27.0313 L25.5156,29.0625 Q24.0313,29.6719 22.2031,29.6719 Q19.4844,29.6719 18.0313,27.9375 Q16.5781,26.1875 16.5781,23.0781 Q16.5781,20.0781 18.1563,18.2969 Q19.7344,16.5 22.4531,16.5 Q24.3594,16.5 26.0938,17.4219 L25.1406,19.3281 Q23.6406,18.5469 22.4531,18.5469 Q20.8438,18.5469 19.8594,19.7656 Q18.8906,20.9688 18.8906,23.0938 Q18.8906,25.3438 19.7969,26.4844 Q20.7188,27.625 22.4531,27.625 Q23.4844,27.625 25.5156,27.0313 Z " fill="#000000"/><text fill="#000000" font-family="sans-serif" font-size="14" lengthAdjust="spacing" textLength="129" x="36" y="27.8467">Clarinet Repair Log</text><line style="stroke:#181818;stroke-width:0.5;" x1="8" x2="167" y1="39" y2="39"/><line style="stroke:#181818;stroke-width:0.5;" x1="8" x2="167" y1="47" y2="47"/></g><!--class Repair Parts Used--><g id="elem_Repair Parts Used"><rect codeLine="3" fill="#76D7C4" height="145.7813" id="Repair Parts Used" rx="2.5" ry="2.5" style="stroke:#181818;stroke-width:0.5;" width="155" x="83" y="132"/><ellipse cx="98" cy="148" fill="#ADD1B2" rx="11" ry="11" style="stroke:#181818;stroke-width:1.0;"/><path d="M101.5156,152.0313 L101.5156,154.0625 Q100.0313,154.6719 98.2031,154.6719 Q95.4844,154.6719 94.0313,152.9375 Q92.5781,151.1875 92.5781,148.0781 Q92.5781,145.0781 94.1563,143.2969 Q95.7344,141.5 98.4531,141.5 Q100.3594,141.5 102.0938,142.4219 L101.1406,144.3281 Q99.6406,143.5469 98.4531,143.5469 Q96.8438,143.5469 95.8594,144.7656 Q94.8906,145.9688 94.8906,148.0938 Q94.8906,150.3438 95.7969,151.4844 Q96.7188,152.625 98.4531,152.625 Q99.4844,152.625 101.5156,152.0313 Z " fill="#000000"/><text fill="#000000" font-family="sans-serif" font-size="14" lengthAdjust="spacing" textLength="123" x="112" y="152.8467">Repair Parts Used</text><line style="stroke:#181818;stroke-width:0.5;" x1="84" x2="237" y1="164" y2="164"/><text fill="#000000" font-family="sans-serif" font-size="14" lengthAdjust="spacing" textLength="126" x="89" y="180.9951">repair_log_id : Link</text><text fill="#000000" font-family="sans-serif" font-size="14" lengthAdjust="spacing" textLength="112" x="89" y="197.292">item_code : Link</text><text fill="#000000" font-family="sans-serif" font-size="14" lengthAdjust="spacing" textLength="109" x="89" y="213.5889">qty_used : Float</text><text fill="#000000" font-family="sans-serif" font-size="14" lengthAdjust="spacing" textLength="106" x="89" y="229.8857">serial_no : Data</text><text fill="#000000" font-family="sans-serif" font-size="14" lengthAdjust="spacing" textLength="99" x="89" y="246.1826">location : Data</text><text fill="#000000" font-family="sans-serif" font-size="14" lengthAdjust="spacing" textLength="106" x="89" y="262.4795">used_on : Date</text><line style="stroke:#181818;stroke-width:0.5;" x1="84" x2="237" y1="269.7813" y2="269.7813"/></g><!--class Item--><g id="elem_Item"><rect fill="#F1F1F1" height="48" id="Item" rx="2.5" ry="2.5" style="stroke:#181818;stroke-width:0.5;" width="62" x="203.5" y="7"/><ellipse cx="218.5" cy="23" fill="#ADD1B2" rx="11" ry="11" style="stroke:#181818;stroke-width:1.0;"/><path d="M222.0156,27.0313 L222.0156,29.0625 Q220.5313,29.6719 218.7031,29.6719 Q215.9844,29.6719 214.5313,27.9375 Q213.0781,26.1875 213.0781,23.0781 Q213.0781,20.0781 214.6563,18.2969 Q216.2344,16.5 218.9531,16.5 Q220.8594,16.5 222.5938,17.4219 L221.6406,19.3281 Q220.1406,18.5469 218.9531,18.5469 Q217.3438,18.5469 216.3594,19.7656 Q215.3906,20.9688 215.3906,23.0938 Q215.3906,25.3438 216.2969,26.4844 Q217.2188,27.625 218.9531,27.625 Q219.9844,27.625 222.0156,27.0313 Z " fill="#000000"/><text fill="#000000" font-family="sans-serif" font-size="14" lengthAdjust="spacing" textLength="30" x="232.5" y="27.8467">Item</text><line style="stroke:#181818;stroke-width:0.5;" x1="204.5" x2="264.5" y1="39" y2="39"/><line style="stroke:#181818;stroke-width:0.5;" x1="204.5" x2="264.5" y1="47" y2="47"/></g><!--reverse link Clarinet Repair Log to Repair Parts Used--><g id="link_Clarinet Repair Log_Repair Parts Used"><path codeLine="1" d="M96.92,67.89 C100.18,78.97 104.13,91.12 108.5,102 C112.42,111.78 116.95,121.88 121.66,131.75 " fill="none" id="Clarinet Repair Log-backto-Repair Parts Used" style="stroke:#181818;stroke-width:1.0;"/><polygon fill="#181818" points="93.29,55.05,91.0684,61.9104,96.5466,66.5997,98.7682,59.7393,93.29,55.05" style="stroke:#181818;stroke-width:1.0;"/><text fill="#000000" font-family="sans-serif" font-size="13" lengthAdjust="spacing" textLength="81" x="109.5" y="98.0669">repair_log_id</text></g><!--reverse link Item to Repair Parts Used--><g id="link_Item_Repair Parts Used"><path codeLine="2" d="M219.34,67.23 C211.32,85.87 201.17,109.46 191.57,131.78 " fill="none" id="Item-backto-Repair Parts Used" style="stroke:#181818;stroke-width:1.0;"/><polygon fill="#181818" points="224.52,55.2,218.4731,59.1287,219.7739,66.2215,225.8208,62.2928,224.52,55.2" style="stroke:#181818;stroke-width:1.0;"/><text fill="#000000" font-family="sans-serif" font-size="13" lengthAdjust="spacing" textLength="67" x="211.5" y="98.0669">item_code</text></g><!--SRC=[VSmz2y8m40RWFR_YY9lGJIoujWY2WmZEuMYFSXXpcfo3YF_TKzGYYElpVlWcOkP42biw8cTOo-1XMbNWNx31h0LsXNeF2yXF3566mBtpAwN3lpfR7ZhfoNKHI_dPcjJpjcvcS7NmVM_xDQUzyUTcf9DUmjds9iieg4Q5CcCCISnQL3IAqg6of54Uc_06ShSx]--></g></svg>