<?xml version="1.0" encoding="us-ascii" standalone="no"?><svg xmlns="http://www.w3.org/2000/svg" xmlns:xlink="http://www.w3.org/1999/xlink" contentStyleType="text/css" height="117px" preserveAspectRatio="none" style="width:198px;height:117px;background:#FFFFFF;" version="1.1" viewBox="0 0 198 117" width="198px" zoomAndPan="magnify"><defs/><g><!--class Tone Fitness Entry--><g id="elem_Tone Fitness Entry"><rect codeLine="1" fill="#F5CBA7" height="96.8906" id="Tone Fitness Entry" rx="2.5" ry="2.5" style="stroke:#181818;stroke-width:0.5;" width="177" x="7" y="7"/><ellipse cx="29.2" cy="23" fill="#ADD1B2" rx="11" ry="11" style="stroke:#181818;stroke-width:1.0;"/><path d="M32.7156,27.0313 L32.7156,29.0625 Q31.2313,29.6719 29.4031,29.6719 Q26.6844,29.6719 25.2313,27.9375 Q23.7781,26.1875 23.7781,23.0781 Q23.7781,20.0781 25.3563,18.2969 Q26.9344,16.5 29.6531,16.5 Q31.5594,16.5 33.2938,17.4219 L32.3406,19.3281 Q30.8406,18.5469 29.6531,18.5469 Q28.0438,18.5469 27.0594,19.7656 Q26.0906,20.9688 26.0906,23.0938 Q26.0906,25.3438 26.9969,26.4844 Q27.9188,27.625 29.6531,27.625 Q30.6844,27.625 32.7156,27.0313 Z " fill="#000000"/><text fill="#000000" font-family="sans-serif" font-size="14" lengthAdjust="spacing" textLength="129" x="44.8" y="27.8467">Tone Fitness Entry</text><line style="stroke:#181818;stroke-width:0.5;" x1="8" x2="183" y1="39" y2="39"/><text fill="#000000" font-family="sans-serif" font-size="14" lengthAdjust="spacing" textLength="165" x="13" y="55.9951">reading_time : Datetime</text><text fill="#000000" font-family="sans-serif" font-size="14" lengthAdjust="spacing" textLength="103" x="13" y="72.292">centroid : Float</text><text fill="#000000" font-family="sans-serif" font-size="14" lengthAdjust="spacing" textLength="94" x="13" y="88.5889">spread : Float</text><line style="stroke:#181818;stroke-width:0.5;" x1="8" x2="183" y1="95.8906" y2="95.8906"/></g><!--SRC=[Iyv9B2vMK0h9pqjLSCiioKi5ybppIeegbHIKtKoTdHpD5Qgv51IAKXDJClFIuqioSrCLh1HS4ajIGKoWJ78gK7L-PWfGr2qdFx44A5HS058E5wW50000]--></g></svg>