<?xml version="1.0" encoding="us-ascii" standalone="no"?><svg xmlns="http://www.w3.org/2000/svg" xmlns:xlink="http://www.w3.org/1999/xlink" contentStyleType="text/css" height="284px" preserveAspectRatio="none" style="width:616px;height:284px;background:#FFFFFF;" version="1.1" viewBox="0 0 616 284" width="616px" zoomAndPan="magnify"><defs/><g><!--class User--><g id="elem_User"><rect fill="#F1F1F1" height="48" id="User" rx="2.5" ry="2.5" style="stroke:#181818;stroke-width:0.5;" width="64" x="7" y="7"/><ellipse cx="22" cy="23" fill="#ADD1B2" rx="11" ry="11" style="stroke:#181818;stroke-width:1.0;"/><path d="M25.5156,27.0313 L25.5156,29.0625 Q24.0313,29.6719 22.2031,29.6719 Q19.4844,29.6719 18.0313,27.9375 Q16.5781,26.1875 16.5781,23.0781 Q16.5781,20.0781 18.1563,18.2969 Q19.7344,16.5 22.4531,16.5 Q24.3594,16.5 26.0938,17.4219 L25.1406,19.3281 Q23.6406,18.5469 22.4531,18.5469 Q20.8438,18.5469 19.8594,19.7656 Q18.8906,20.9688 18.8906,23.0938 Q18.8906,25.3438 19.7969,26.4844 Q20.7188,27.625 22.4531,27.625 Q23.4844,27.625 25.5156,27.0313 Z " fill="#000000"/><text fill="#000000" font-family="sans-serif" font-size="14" lengthAdjust="spacing" textLength="32" x="36" y="27.8467">User</text><line style="stroke:#181818;stroke-width:0.5;" x1="8" x2="70" y1="39" y2="39"/><line style="stroke:#181818;stroke-width:0.5;" x1="8" x2="70" y1="47" y2="47"/></g><!--class Final Qa Checklist--><g id="elem_Final Qa Checklist"><rect codeLine="5" fill="#D2B4DE" height="145.7813" id="Final Qa Checklist" rx="2.5" ry="2.5" style="stroke:#181818;stroke-width:0.5;" width="171" x="171.5" y="132"/><ellipse cx="194.6" cy="148" fill="#ADD1B2" rx="11" ry="11" style="stroke:#181818;stroke-width:1.0;"/><path d="M198.1156,152.0313 L198.1156,154.0625 Q196.6313,154.6719 194.8031,154.6719 Q192.0844,154.6719 190.6313,152.9375 Q189.1781,151.1875 189.1781,148.0781 Q189.1781,145.0781 190.7563,143.2969 Q192.3344,141.5 195.0531,141.5 Q196.9594,141.5 198.6938,142.4219 L197.7406,144.3281 Q196.2406,143.5469 195.0531,143.5469 Q193.4438,143.5469 192.4594,144.7656 Q191.4906,145.9688 191.4906,148.0938 Q191.4906,150.3438 192.3969,151.4844 Q193.3188,152.625 195.0531,152.625 Q196.0844,152.625 198.1156,152.0313 Z " fill="#000000"/><text fill="#000000" font-family="sans-serif" font-size="14" lengthAdjust="spacing" textLength="121" x="210.4" y="152.8467">Final Qa Checklist</text><line style="stroke:#181818;stroke-width:0.5;" x1="172.5" x2="341.5" y1="164" y2="164"/><text fill="#000000" font-family="sans-serif" font-size="14" lengthAdjust="spacing" textLength="135" x="177.5" y="180.9951">qa_technician : Link</text><text fill="#000000" font-family="sans-serif" font-size="14" lengthAdjust="spacing" textLength="134" x="177.5" y="197.292">related_repair : Link</text><text fill="#000000" font-family="sans-serif" font-size="14" lengthAdjust="spacing" textLength="157" x="177.5" y="213.5889">checklist_items : Table</text><text fill="#000000" font-family="sans-serif" font-size="14" lengthAdjust="spacing" textLength="159" x="177.5" y="229.8857">overall_passed : Check</text><text fill="#000000" font-family="sans-serif" font-size="14" lengthAdjust="spacing" textLength="117" x="177.5" y="246.1826">comments : Text</text><text fill="#000000" font-family="sans-serif" font-size="14" lengthAdjust="spacing" textLength="142" x="177.5" y="262.4795">workflow_state : Link</text><line style="stroke:#181818;stroke-width:0.5;" x1="172.5" x2="341.5" y1="269.7813" y2="269.7813"/></g><!--class Repair Log--><g id="elem_Repair Log"><rect fill="#F1F1F1" height="48" id="Repair Log" rx="2.5" ry="2.5" style="stroke:#181818;stroke-width:0.5;" width="105" x="111.5" y="7"/><ellipse cx="126.5" cy="23" fill="#ADD1B2" rx="11" ry="11" style="stroke:#181818;stroke-width:1.0;"/><path d="M130.0156,27.0313 L130.0156,29.0625 Q128.5313,29.6719 126.7031,29.6719 Q123.9844,29.6719 122.5313,27.9375 Q121.0781,26.1875 121.0781,23.0781 Q121.0781,20.0781 122.6563,18.2969 Q124.2344,16.5 126.9531,16.5 Q128.8594,16.5 130.5938,17.4219 L129.6406,19.3281 Q128.1406,18.5469 126.9531,18.5469 Q125.3438,18.5469 124.3594,19.7656 Q123.3906,20.9688 123.3906,23.0938 Q123.3906,25.3438 124.2969,26.4844 Q125.2188,27.625 126.9531,27.625 Q127.9844,27.625 130.0156,27.0313 Z " fill="#000000"/><text fill="#000000" font-family="sans-serif" font-size="14" lengthAdjust="spacing" textLength="73" x="140.5" y="27.8467">Repair Log</text><line style="stroke:#181818;stroke-width:0.5;" x1="112.5" x2="215.5" y1="39" y2="39"/><line style="stroke:#181818;stroke-width:0.5;" x1="112.5" x2="215.5" y1="47" y2="47"/></g><!--class Final QA Checklist Item--><g id="elem_Final QA Checklist Item"><rect fill="#F1F1F1" height="48" id="Final QA Checklist Item" rx="2.5" ry="2.5" style="stroke:#181818;stroke-width:0.5;" width="188" x="252" y="7"/><ellipse cx="267" cy="23" fill="#ADD1B2" rx="11" ry="11" style="stroke:#181818;stroke-width:1.0;"/><path d="M270.5156,27.0313 L270.5156,29.0625 Q269.0313,29.6719 267.2031,29.6719 Q264.4844,29.6719 263.0313,27.9375 Q261.5781,26.1875 261.5781,23.0781 Q261.5781,20.0781 263.1563,18.2969 Q264.7344,16.5 267.4531,16.5 Q269.3594,16.5 271.0938,17.4219 L270.1406,19.3281 Q268.6406,18.5469 267.4531,18.5469 Q265.8438,18.5469 264.8594,19.7656 Q263.8906,20.9688 263.8906,23.0938 Q263.8906,25.3438 264.7969,26.4844 Q265.7188,27.625 267.4531,27.625 Q268.4844,27.625 270.5156,27.0313 Z " fill="#000000"/><text fill="#000000" font-family="sans-serif" font-size="14" lengthAdjust="spacing" textLength="156" x="281" y="27.8467">Final QA Checklist Item</text><line style="stroke:#181818;stroke-width:0.5;" x1="253" x2="439" y1="39" y2="39"/><line style="stroke:#181818;stroke-width:0.5;" x1="253" x2="439" y1="47" y2="47"/></g><!--class Workflow State--><g id="elem_Workflow State"><rect fill="#F1F1F1" height="48" id="Workflow State" rx="2.5" ry="2.5" style="stroke:#181818;stroke-width:0.5;" width="134" x="475" y="7"/><ellipse cx="490" cy="23" fill="#ADD1B2" rx="11" ry="11" style="stroke:#181818;stroke-width:1.0;"/><path d="M493.5156,27.0313 L493.5156,29.0625 Q492.0313,29.6719 490.2031,29.6719 Q487.4844,29.6719 486.0313,27.9375 Q484.5781,26.1875 484.5781,23.0781 Q484.5781,20.0781 486.1563,18.2969 Q487.7344,16.5 490.4531,16.5 Q492.3594,16.5 494.0938,17.4219 L493.1406,19.3281 Q491.6406,18.5469 490.4531,18.5469 Q488.8438,18.5469 487.8594,19.7656 Q486.8906,20.9688 486.8906,23.0938 Q486.8906,25.3438 487.7969,26.4844 Q488.7188,27.625 490.4531,27.625 Q491.4844,27.625 493.5156,27.0313 Z " fill="#000000"/><text fill="#000000" font-family="sans-serif" font-size="14" lengthAdjust="spacing" textLength="102" x="504" y="27.8467">Workflow State</text><line style="stroke:#181818;stroke-width:0.5;" x1="476" x2="608" y1="39" y2="39"/><line style="stroke:#181818;stroke-width:0.5;" x1="476" x2="608" y1="47" y2="47"/></g><!--reverse link User to Final Qa Checklist--><g id="link_User_Final Qa Checklist"><path codeLine="1" d="M62.92,65.78 C72.44,77.96 83.98,91.32 96,102 C118.76,122.21 145.96,141.07 171.46,156.94 " fill="none" id="User-backto-Final Qa Checklist" style="stroke:#181818;stroke-width:1.0;"/><polygon fill="#181818" points="54.8,55.04,55.2222,62.2387,62.0295,64.6178,61.6074,57.4191,54.8,55.04" style="stroke:#181818;stroke-width:1.0;"/><text fill="#000000" font-family="sans-serif" font-size="13" lengthAdjust="spacing" textLength="88" x="97" y="98.0669">qa_technician</text></g><!--reverse link Repair Log to Final Qa Checklist--><g id="link_Repair Log_Final Qa Checklist"><path codeLine="2" d="M182.76,66.69 C192.88,85.41 205.77,109.24 217.95,131.78 " fill="none" id="Repair Log-backto-Final Qa Checklist" style="stroke:#181818;stroke-width:1.0;"/><polygon fill="#181818" points="176.54,55.2,175.8745,62.3803,182.2465,65.7563,182.912,58.576,176.54,55.2" style="stroke:#181818;stroke-width:1.0;"/><text fill="#000000" font-family="sans-serif" font-size="13" lengthAdjust="spacing" textLength="89" x="200" y="98.0669">related_repair</text></g><!--reverse link Final QA Checklist Item to Final Qa Checklist--><g id="link_Final QA Checklist Item_Final Qa Checklist"><path codeLine="3" d="M327.91,66.96 C318.24,85.64 305.98,109.35 294.37,131.78 " fill="none" id="Final QA Checklist Item-backto-Final Qa Checklist" style="stroke:#181818;stroke-width:1.0;"/><polygon fill="#181818" points="334,55.2,327.6904,58.6912,328.4862,65.8582,334.7959,62.3671,334,55.2" style="stroke:#181818;stroke-width:1.0;"/><text fill="#000000" font-family="sans-serif" font-size="13" lengthAdjust="spacing" textLength="98" x="318" y="98.0669">checklist_items</text></g><!--reverse link Workflow State to Final Qa Checklist--><g id="link_Workflow State_Final Qa Checklist"><path codeLine="4" d="M492.48,61.89 C451.23,86.78 391.53,122.81 342.57,152.36 " fill="none" id="Workflow State-backto-Final Qa Checklist" style="stroke:#181818;stroke-width:1.0;"/><polygon fill="#181818" points="503.86,55.02,496.6562,54.6947,493.5852,61.2191,500.789,61.5445,503.86,55.02" style="stroke:#181818;stroke-width:1.0;"/><text fill="#000000" font-family="sans-serif" font-size="13" lengthAdjust="spacing" textLength="93" x="450" y="98.0669">workflow_state</text></g><!--SRC=[VO_D2W8n38JlVOfGRu8NyUHDNGN1YtzuBB56BTjjjIqgYEzkTd6H5TbZPhwP978RAKZezdeWPyQXXIN2v4mwjoOc2KEueagapyveWqx85LtG15ZuKsigaCL41nKgNDJKw4l1F57Hsg7hGHb6ev0x7_AZzNTO9ovlpTu_g8ebAhJ56F-pdQm_7cHJU0fe_iej2-DobflFVFMV0zdOuDuIE_v60QrL5rvB1pQgXMN45mMvLB7qIAmqBwtBNsy0]--></g></svg>