<?xml version="1.0" encoding="us-ascii" standalone="no"?><svg xmlns="http://www.w3.org/2000/svg" xmlns:xlink="http://www.w3.org/1999/xlink" contentStyleType="text/css" height="150px" preserveAspectRatio="none" style="width:196px;height:150px;background:#FFFFFF;" version="1.1" viewBox="0 0 196 150" width="196px" zoomAndPan="magnify"><defs/><g><!--class Inspection Finding--><g id="elem_Inspection Finding"><rect codeLine="1" fill="#F9E79F" height="129.4844" id="Inspection Finding" rx="2.5" ry="2.5" style="stroke:#181818;stroke-width:0.5;" width="175" x="7" y="7"/><ellipse cx="29.65" cy="23" fill="#ADD1B2" rx="11" ry="11" style="stroke:#181818;stroke-width:1.0;"/><path d="M33.1656,27.0313 L33.1656,29.0625 Q31.6813,29.6719 29.8531,29.6719 Q27.1344,29.6719 25.6813,27.9375 Q24.2281,26.1875 24.2281,23.0781 Q24.2281,20.0781 25.8063,18.2969 Q27.3844,16.5 30.1031,16.5 Q32.0094,16.5 33.7438,17.4219 L32.7906,19.3281 Q31.2906,18.5469 30.1031,18.5469 Q28.4938,18.5469 27.5094,19.7656 Q26.5406,20.9688 26.5406,23.0938 Q26.5406,25.3438 27.4469,26.4844 Q28.3688,27.625 30.1031,27.625 Q31.1344,27.625 33.1656,27.0313 Z " fill="#000000"/><text fill="#000000" font-family="sans-serif" font-size="14" lengthAdjust="spacing" textLength="126" x="45.35" y="27.8467">Inspection Finding</text><line style="stroke:#181818;stroke-width:0.5;" x1="8" x2="181" y1="39" y2="39"/><text fill="#000000" font-family="sans-serif" font-size="14" lengthAdjust="spacing" textLength="136" x="13" y="55.9951">component : Select</text><text fill="#000000" font-family="sans-serif" font-size="14" lengthAdjust="spacing" textLength="130" x="13" y="72.292">issue_type : Select</text><text fill="#000000" font-family="sans-serif" font-size="14" lengthAdjust="spacing" textLength="109" x="13" y="88.5889">severity : Select</text><text fill="#000000" font-family="sans-serif" font-size="14" lengthAdjust="spacing" textLength="161" x="13" y="104.8857">recommendation : Text</text><text fill="#000000" font-family="sans-serif" font-size="14" lengthAdjust="spacing" textLength="163" x="13" y="121.1826">action_required : Select</text><line style="stroke:#181818;stroke-width:0.5;" x1="8" x2="181" y1="128.4844" y2="128.4844"/></g><!--SRC=[JSrD2i8m40NWlQTur4D8kpVWMlSb90yPQ2Snauf5lBkn6xlzU3zXycReBcgPeKfIED4eUkzmTFtvr3ky3q18SqvAhHXmvTIY3SLiuLZNpBqQdonIrxqLje6P6lrsCU36ry_zTZaMFXOfZF_Avmi0]--></g></svg>