<?xml version="1.0" encoding="us-ascii" standalone="no"?><svg xmlns="http://www.w3.org/2000/svg" xmlns:xlink="http://www.w3.org/1999/xlink" contentStyleType="text/css" height="284px" preserveAspectRatio="none" style="width:478px;height:284px;background:#FFFFFF;" version="1.1" viewBox="0 0 478 284" width="478px" zoomAndPan="magnify"><defs/><g><!--class Instrument Profile--><g id="elem_Instrument Profile"><rect fill="#F1F1F1" height="48" id="Instrument Profile" rx="2.5" ry="2.5" style="stroke:#181818;stroke-width:0.5;" width="153" x="7" y="7"/><ellipse cx="22" cy="23" fill="#ADD1B2" rx="11" ry="11" style="stroke:#181818;stroke-width:1.0;"/><path d="M25.5156,27.0313 L25.5156,29.0625 Q24.0313,29.6719 22.2031,29.6719 Q19.4844,29.6719 18.0313,27.9375 Q16.5781,26.1875 16.5781,23.0781 Q16.5781,20.0781 18.1563,18.2969 Q19.7344,16.5 22.4531,16.5 Q24.3594,16.5 26.0938,17.4219 L25.1406,19.3281 Q23.6406,18.5469 22.4531,18.5469 Q20.8438,18.5469 19.8594,19.7656 Q18.8906,20.9688 18.8906,23.0938 Q18.8906,25.3438 19.7969,26.4844 Q20.7188,27.625 22.4531,27.625 Q23.4844,27.625 25.5156,27.0313 Z " fill="#000000"/><text fill="#000000" font-family="sans-serif" font-size="14" lengthAdjust="spacing" textLength="121" x="36" y="27.8467">Instrument Profile</text><line style="stroke:#181818;stroke-width:0.5;" x1="8" x2="159" y1="39" y2="39"/><line style="stroke:#181818;stroke-width:0.5;" x1="8" x2="159" y1="47" y2="47"/></g><!--class Clarinet Inspection--><g id="elem_Clarinet Inspection"><rect codeLine="4" fill="#F9E79F" height="145.7813" id="Clarinet Inspection" rx="2.5" ry="2.5" style="stroke:#181818;stroke-width:0.5;" width="196" x="143.5" y="132"/><ellipse cx="174.7" cy="148" fill="#ADD1B2" rx="11" ry="11" style="stroke:#181818;stroke-width:1.0;"/><path d="M178.2156,152.0313 L178.2156,154.0625 Q176.7313,154.6719 174.9031,154.6719 Q172.1844,154.6719 170.7313,152.9375 Q169.2781,151.1875 169.2781,148.0781 Q169.2781,145.0781 170.8563,143.2969 Q172.4344,141.5 175.1531,141.5 Q177.0594,141.5 178.7938,142.4219 L177.8406,144.3281 Q176.3406,143.5469 175.1531,143.5469 Q173.5438,143.5469 172.5594,144.7656 Q171.5906,145.9688 171.5906,148.0938 Q171.5906,150.3438 172.4969,151.4844 Q173.4188,152.625 175.1531,152.625 Q176.1844,152.625 178.2156,152.0313 Z " fill="#000000"/><text fill="#000000" font-family="sans-serif" font-size="14" lengthAdjust="spacing" textLength="128" x="192.3" y="152.8467">Clarinet Inspection</text><line style="stroke:#181818;stroke-width:0.5;" x1="144.5" x2="338.5" y1="164" y2="164"/><text fill="#000000" font-family="sans-serif" font-size="14" lengthAdjust="spacing" textLength="164" x="149.5" y="180.9951">instrument_profile : Link</text><text fill="#000000" font-family="sans-serif" font-size="14" lengthAdjust="spacing" textLength="132" x="149.5" y="197.292">inspected_by : Link</text><text fill="#000000" font-family="sans-serif" font-size="14" lengthAdjust="spacing" textLength="156" x="149.5" y="213.5889">inspection_date : Date</text><text fill="#000000" font-family="sans-serif" font-size="14" lengthAdjust="spacing" textLength="171" x="149.5" y="229.8857">overall_condition : Select</text><text fill="#000000" font-family="sans-serif" font-size="14" lengthAdjust="spacing" textLength="184" x="149.5" y="246.1826">inspection_findings : Table</text><text fill="#000000" font-family="sans-serif" font-size="14" lengthAdjust="spacing" textLength="83" x="149.5" y="262.4795">notes : Text</text><line style="stroke:#181818;stroke-width:0.5;" x1="144.5" x2="338.5" y1="269.7813" y2="269.7813"/></g><!--class User--><g id="elem_User"><rect fill="#F1F1F1" height="48" id="User" rx="2.5" ry="2.5" style="stroke:#181818;stroke-width:0.5;" width="64" x="209.5" y="7"/><ellipse cx="224.5" cy="23" fill="#ADD1B2" rx="11" ry="11" style="stroke:#181818;stroke-width:1.0;"/><path d="M228.0156,27.0313 L228.0156,29.0625 Q226.5313,29.6719 224.7031,29.6719 Q221.9844,29.6719 220.5313,27.9375 Q219.0781,26.1875 219.0781,23.0781 Q219.0781,20.0781 220.6563,18.2969 Q222.2344,16.5 224.9531,16.5 Q226.8594,16.5 228.5938,17.4219 L227.6406,19.3281 Q226.1406,18.5469 224.9531,18.5469 Q223.3438,18.5469 222.3594,19.7656 Q221.3906,20.9688 221.3906,23.0938 Q221.3906,25.3438 222.2969,26.4844 Q223.2188,27.625 224.9531,27.625 Q225.9844,27.625 228.0156,27.0313 Z " fill="#000000"/><text fill="#000000" font-family="sans-serif" font-size="14" lengthAdjust="spacing" textLength="32" x="238.5" y="27.8467">User</text><line style="stroke:#181818;stroke-width:0.5;" x1="210.5" x2="272.5" y1="39" y2="39"/><line style="stroke:#181818;stroke-width:0.5;" x1="210.5" x2="272.5" y1="47" y2="47"/></g><!--class Inspection Finding--><g id="elem_Inspection Finding"><rect fill="#F1F1F1" height="48" id="Inspection Finding" rx="2.5" ry="2.5" style="stroke:#181818;stroke-width:0.5;" width="158" x="308.5" y="7"/><ellipse cx="323.5" cy="23" fill="#ADD1B2" rx="11" ry="11" style="stroke:#181818;stroke-width:1.0;"/><path d="M327.0156,27.0313 L327.0156,29.0625 Q325.5313,29.6719 323.7031,29.6719 Q320.9844,29.6719 319.5313,27.9375 Q318.0781,26.1875 318.0781,23.0781 Q318.0781,20.0781 319.6563,18.2969 Q321.2344,16.5 323.9531,16.5 Q325.8594,16.5 327.5938,17.4219 L326.6406,19.3281 Q325.1406,18.5469 323.9531,18.5469 Q322.3438,18.5469 321.3594,19.7656 Q320.3906,20.9688 320.3906,23.0938 Q320.3906,25.3438 321.2969,26.4844 Q322.2188,27.625 323.9531,27.625 Q324.9844,27.625 327.0156,27.0313 Z " fill="#000000"/><text fill="#000000" font-family="sans-serif" font-size="14" lengthAdjust="spacing" textLength="126" x="337.5" y="27.8467">Inspection Finding</text><line style="stroke:#181818;stroke-width:0.5;" x1="309.5" x2="465.5" y1="39" y2="39"/><line style="stroke:#181818;stroke-width:0.5;" x1="309.5" x2="465.5" y1="47" y2="47"/></g><!--reverse link Instrument Profile to Clarinet Inspection--><g id="link_Instrument Profile_Clarinet Inspection"><path codeLine="1" d="M95.9,67.37 C100.95,79.05 107.5,91.69 115.5,102 C123.69,112.56 133.18,122.72 143.2,132.26 " fill="none" id="Instrument Profile-backto-Clarinet Inspection" style="stroke:#181818;stroke-width:1.0;"/><polygon fill="#181818" points="91.02,55.22,89.5445,62.2785,95.4926,66.3553,96.9681,59.2968,91.02,55.22" style="stroke:#181818;stroke-width:1.0;"/><text fill="#000000" font-family="sans-serif" font-size="13" lengthAdjust="spacing" textLength="116" x="116.5" y="98.0669">instrument_profile</text></g><!--reverse link User to Clarinet Inspection--><g id="link_User_Clarinet Inspection"><path codeLine="2" d="M241.5,68.31 C241.5,86.77 241.5,109.89 241.5,131.78 " fill="none" id="User-backto-Clarinet Inspection" style="stroke:#181818;stroke-width:1.0;"/><polygon fill="#181818" points="241.5,55.2,237.5,61.2,241.5,67.2,245.5,61.2,241.5,55.2" style="stroke:#181818;stroke-width:1.0;"/><text fill="#000000" font-family="sans-serif" font-size="13" lengthAdjust="spacing" textLength="84" x="242.5" y="98.0669">inspected_by</text></g><!--reverse link Inspection Finding to Clarinet Inspection--><g id="link_Inspection Finding_Clarinet Inspection"><path codeLine="3" d="M363.48,65.84 C354.91,77.5 345.01,90.51 335.5,102 C327.36,111.83 318.56,121.96 309.72,131.85 " fill="none" id="Inspection Finding-backto-Clarinet Inspection" style="stroke:#181818;stroke-width:1.0;"/><polygon fill="#181818" points="371.23,55.16,364.4666,57.6614,364.1743,64.8665,370.9377,62.3652,371.23,55.16" style="stroke:#181818;stroke-width:1.0;"/><text fill="#000000" font-family="sans-serif" font-size="13" lengthAdjust="spacing" textLength="121" x="349.5" y="98.0669">inspection_findings</text></g><!--SRC=[ZOx12i8m44Jl-OebteIUfRsg1S63e9vBscub63SbYQA8_-wcnOgew2bCvhrav89ySCS3Ke2LiuqsA66S922dHZbD68295gkWBKd8G0zyqVQya5kFxgSL4zP5UH7osK6kgTQq-ylcL3GzxqLbbFTVZ56UpYTf3bS17_RoWqjD-xuRLhtTnjzg5I8-uuCBUqAdZ2agonkwzHciqJ3xQZqsShrHfOagsO1TndCGjpi0]--></g></svg>