<?xml version="1.0" encoding="us-ascii" standalone="no"?><svg xmlns="http://www.w3.org/2000/svg" xmlns:xlink="http://www.w3.org/1999/xlink" contentStyleType="text/css" height="284px" preserveAspectRatio="none" style="width:227px;height:284px;background:#FFFFFF;" version="1.1" viewBox="0 0 227 284" width="227px" zoomAndPan="magnify"><defs/><g><!--class Item--><g id="elem_Item"><rect fill="#F1F1F1" height="48" id="Item" rx="2.5" ry="2.5" style="stroke:#181818;stroke-width:0.5;" width="62" x="23" y="7"/><ellipse cx="38" cy="23" fill="#ADD1B2" rx="11" ry="11" style="stroke:#181818;stroke-width:1.0;"/><path d="M41.5156,27.0313 L41.5156,29.0625 Q40.0313,29.6719 38.2031,29.6719 Q35.4844,29.6719 34.0313,27.9375 Q32.5781,26.1875 32.5781,23.0781 Q32.5781,20.0781 34.1563,18.2969 Q35.7344,16.5 38.4531,16.5 Q40.3594,16.5 42.0938,17.4219 L41.1406,19.3281 Q39.6406,18.5469 38.4531,18.5469 Q36.8438,18.5469 35.8594,19.7656 Q34.8906,20.9688 34.8906,23.0938 Q34.8906,25.3438 35.7969,26.4844 Q36.7188,27.625 38.4531,27.625 Q39.4844,27.625 41.5156,27.0313 Z " fill="#000000"/><text fill="#000000" font-family="sans-serif" font-size="14" lengthAdjust="spacing" textLength="30" x="52" y="27.8467">Item</text><line style="stroke:#181818;stroke-width:0.5;" x1="24" x2="84" y1="39" y2="39"/><line style="stroke:#181818;stroke-width:0.5;" x1="24" x2="84" y1="47" y2="47"/></g><!--class Loaner Instrument--><g id="elem_Loaner Instrument"><rect codeLine="3" fill="#A9DFBF" height="145.7813" id="Loaner Instrument" rx="2.5" ry="2.5" style="stroke:#181818;stroke-width:0.5;" width="210" x="7" y="132"/><ellipse cx="45.4" cy="148" fill="#ADD1B2" rx="11" ry="11" style="stroke:#181818;stroke-width:1.0;"/><path d="M48.9156,152.0313 L48.9156,154.0625 Q47.4313,154.6719 45.6031,154.6719 Q42.8844,154.6719 41.4313,152.9375 Q39.9781,151.1875 39.9781,148.0781 Q39.9781,145.0781 41.5563,143.2969 Q43.1344,141.5 45.8531,141.5 Q47.7594,141.5 49.4938,142.4219 L48.5406,144.3281 Q47.0406,143.5469 45.8531,143.5469 Q44.2438,143.5469 43.2594,144.7656 Q42.2906,145.9688 42.2906,148.0938 Q42.2906,150.3438 43.1969,151.4844 Q44.1188,152.625 45.8531,152.625 Q46.8844,152.625 48.9156,152.0313 Z " fill="#000000"/><text fill="#000000" font-family="sans-serif" font-size="14" lengthAdjust="spacing" textLength="126" x="64.6" y="152.8467">Loaner Instrument</text><line style="stroke:#181818;stroke-width:0.5;" x1="8" x2="216" y1="164" y2="164"/><text fill="#000000" font-family="sans-serif" font-size="14" lengthAdjust="spacing" textLength="131" x="13" y="180.9951">loaner_serial : Data</text><text fill="#000000" font-family="sans-serif" font-size="14" lengthAdjust="spacing" textLength="112" x="13" y="197.292">item_code : Link</text><text fill="#000000" font-family="sans-serif" font-size="14" lengthAdjust="spacing" textLength="107" x="13" y="213.5889">issued_to : Link</text><text fill="#000000" font-family="sans-serif" font-size="14" lengthAdjust="spacing" textLength="130" x="13" y="229.8857">issued_date : Date</text><text fill="#000000" font-family="sans-serif" font-size="14" lengthAdjust="spacing" textLength="198" x="13" y="246.1826">expected_return_date : Date</text><text fill="#000000" font-family="sans-serif" font-size="14" lengthAdjust="spacing" textLength="117" x="13" y="262.4795">returned : Check</text><line style="stroke:#181818;stroke-width:0.5;" x1="8" x2="216" y1="269.7813" y2="269.7813"/></g><!--class Customer--><g id="elem_Customer"><rect fill="#F1F1F1" height="48" id="Customer" rx="2.5" ry="2.5" style="stroke:#181818;stroke-width:0.5;" width="100" x="120" y="7"/><ellipse cx="135" cy="23" fill="#ADD1B2" rx="11" ry="11" style="stroke:#181818;stroke-width:1.0;"/><path d="M138.5156,27.0313 L138.5156,29.0625 Q137.0313,29.6719 135.2031,29.6719 Q132.4844,29.6719 131.0313,27.9375 Q129.5781,26.1875 129.5781,23.0781 Q129.5781,20.0781 131.1563,18.2969 Q132.7344,16.5 135.4531,16.5 Q137.3594,16.5 139.0938,17.4219 L138.1406,19.3281 Q136.6406,18.5469 135.4531,18.5469 Q133.8438,18.5469 132.8594,19.7656 Q131.8906,20.9688 131.8906,23.0938 Q131.8906,25.3438 132.7969,26.4844 Q133.7188,27.625 135.4531,27.625 Q136.4844,27.625 138.5156,27.0313 Z " fill="#000000"/><text fill="#000000" font-family="sans-serif" font-size="14" lengthAdjust="spacing" textLength="68" x="149" y="27.8467">Customer</text><line style="stroke:#181818;stroke-width:0.5;" x1="121" x2="219" y1="39" y2="39"/><line style="stroke:#181818;stroke-width:0.5;" x1="121" x2="219" y1="47" y2="47"/></g><!--reverse link Item to Loaner Instrument--><g id="link_Item_Loaner Instrument"><path codeLine="1" d="M53.13,68.31 C53.65,79.29 55.01,91.28 58,102 C60.77,111.94 64.61,122.01 68.98,131.75 " fill="none" id="Item-backto-Loaner Instrument" style="stroke:#181818;stroke-width:1.0;"/><polygon fill="#181818" points="52.86,55.1,48.9794,61.1779,53.0973,67.0977,56.9779,61.0197,52.86,55.1" style="stroke:#181818;stroke-width:1.0;"/><text fill="#000000" font-family="sans-serif" font-size="13" lengthAdjust="spacing" textLength="67" x="59" y="98.0669">item_code</text></g><!--reverse link Customer to Loaner Instrument--><g id="link_Customer_Loaner Instrument"><path codeLine="2" d="M157.94,67.77 C151.68,86.32 143.81,109.67 136.35,131.78 " fill="none" id="Customer-backto-Loaner Instrument" style="stroke:#181818;stroke-width:1.0;"/><polygon fill="#181818" points="162.18,55.2,156.4726,59.6074,158.3458,66.571,164.0532,62.1636,162.18,55.2" style="stroke:#181818;stroke-width:1.0;"/><text fill="#000000" font-family="sans-serif" font-size="13" lengthAdjust="spacing" textLength="61" x="152" y="98.0669">issued_to</text></g><!--SRC=[VSr12i8m40NGVKunn9tG0-XEMmg5tg64v8EbRIAP2GZYtHqjkb1n-_x_CxOJB9QsLKMsJouYKnTPSbaGnTAUHiq7dmAChGjBMf3_rfaBmY39-Dan_snj3hkcFRPqDKJpCnuOUNIpxXidJldzLQaVu_IWr-Kl2awmJg68onbUb3EavFYHheYWKf_W9tEx0m00]--></g></svg>