<?xml version="1.0" encoding="us-ascii" standalone="no"?><svg xmlns="http://www.w3.org/2000/svg" xmlns:xlink="http://www.w3.org/1999/xlink" contentStyleType="text/css" height="235px" preserveAspectRatio="none" style="width:264px;height:235px;background:#FFFFFF;" version="1.1" viewBox="0 0 264 235" width="264px" zoomAndPan="magnify"><defs/><g><!--class Item--><g id="elem_Item"><rect fill="#F1F1F1" height="48" id="Item" rx="2.5" ry="2.5" style="stroke:#181818;stroke-width:0.5;" width="62" x="7" y="7"/><ellipse cx="22" cy="23" fill="#ADD1B2" rx="11" ry="11" style="stroke:#181818;stroke-width:1.0;"/><path d="M25.5156,27.0313 L25.5156,29.0625 Q24.0313,29.6719 22.2031,29.6719 Q19.4844,29.6719 18.0313,27.9375 Q16.5781,26.1875 16.5781,23.0781 Q16.5781,20.0781 18.1563,18.2969 Q19.7344,16.5 22.4531,16.5 Q24.3594,16.5 26.0938,17.4219 L25.1406,19.3281 Q23.6406,18.5469 22.4531,18.5469 Q20.8438,18.5469 19.8594,19.7656 Q18.8906,20.9688 18.8906,23.0938 Q18.8906,25.3438 19.7969,26.4844 Q20.7188,27.625 22.4531,27.625 Q23.4844,27.625 25.5156,27.0313 Z " fill="#000000"/><text fill="#000000" font-family="sans-serif" font-size="14" lengthAdjust="spacing" textLength="30" x="36" y="27.8467">Item</text><line style="stroke:#181818;stroke-width:0.5;" x1="8" x2="68" y1="39" y2="39"/><line style="stroke:#181818;stroke-width:0.5;" x1="8" x2="68" y1="47" y2="47"/></g><!--class Material Usage--><g id="elem_Material Usage"><rect codeLine="3" fill="#F9E79F" height="96.8906" id="Material Usage" rx="2.5" ry="2.5" style="stroke:#181818;stroke-width:0.5;" width="184" x="7" y="132"/><ellipse cx="44.95" cy="148" fill="#ADD1B2" rx="11" ry="11" style="stroke:#181818;stroke-width:1.0;"/><path d="M48.4656,152.0313 L48.4656,154.0625 Q46.9813,154.6719 45.1531,154.6719 Q42.4344,154.6719 40.9813,152.9375 Q39.5281,151.1875 39.5281,148.0781 Q39.5281,145.0781 41.1063,143.2969 Q42.6844,141.5 45.4031,141.5 Q47.3094,141.5 49.0438,142.4219 L48.0906,144.3281 Q46.5906,143.5469 45.4031,143.5469 Q43.7938,143.5469 42.8094,144.7656 Q41.8406,145.9688 41.8406,148.0938 Q41.8406,150.3438 42.7469,151.4844 Q43.6688,152.625 45.4031,152.625 Q46.4344,152.625 48.4656,152.0313 Z " fill="#000000"/><text fill="#000000" font-family="sans-serif" font-size="14" lengthAdjust="spacing" textLength="101" x="64.05" y="152.8467">Material Usage</text><line style="stroke:#181818;stroke-width:0.5;" x1="8" x2="190" y1="164" y2="164"/><text fill="#000000" font-family="sans-serif" font-size="14" lengthAdjust="spacing" textLength="70" x="13" y="180.9951">item : Link</text><text fill="#000000" font-family="sans-serif" font-size="14" lengthAdjust="spacing" textLength="101" x="13" y="197.292">quantity : Float</text><text fill="#000000" font-family="sans-serif" font-size="14" lengthAdjust="spacing" textLength="172" x="13" y="213.5889">source_warehouse : Link</text><line style="stroke:#181818;stroke-width:0.5;" x1="8" x2="190" y1="220.8906" y2="220.8906"/></g><!--class Warehouse--><g id="elem_Warehouse"><rect fill="#F1F1F1" height="48" id="Warehouse" rx="2.5" ry="2.5" style="stroke:#181818;stroke-width:0.5;" width="111" x="104.5" y="7"/><ellipse cx="119.5" cy="23" fill="#ADD1B2" rx="11" ry="11" style="stroke:#181818;stroke-width:1.0;"/><path d="M123.0156,27.0313 L123.0156,29.0625 Q121.5313,29.6719 119.7031,29.6719 Q116.9844,29.6719 115.5313,27.9375 Q114.0781,26.1875 114.0781,23.0781 Q114.0781,20.0781 115.6563,18.2969 Q117.2344,16.5 119.9531,16.5 Q121.8594,16.5 123.5938,17.4219 L122.6406,19.3281 Q121.1406,18.5469 119.9531,18.5469 Q118.3438,18.5469 117.3594,19.7656 Q116.3906,20.9688 116.3906,23.0938 Q116.3906,25.3438 117.2969,26.4844 Q118.2188,27.625 119.9531,27.625 Q120.9844,27.625 123.0156,27.0313 Z " fill="#000000"/><text fill="#000000" font-family="sans-serif" font-size="14" lengthAdjust="spacing" textLength="79" x="133.5" y="27.8467">Warehouse</text><line style="stroke:#181818;stroke-width:0.5;" x1="105.5" x2="214.5" y1="39" y2="39"/><line style="stroke:#181818;stroke-width:0.5;" x1="105.5" x2="214.5" y1="47" y2="47"/></g><!--reverse link Item to Material Usage--><g id="link_Item_Material Usage"><path codeLine="1" d="M52.59,67.27 C60.59,86.63 70.63,110.9 79.32,131.92 " fill="none" id="Item-backto-Material Usage" style="stroke:#181818;stroke-width:1.0;"/><polygon fill="#181818" points="47.53,55.05,46.128,62.1235,52.1182,66.1382,53.5202,59.0647,47.53,55.05" style="stroke:#181818;stroke-width:1.0;"/><text fill="#000000" font-family="sans-serif" font-size="13" lengthAdjust="spacing" textLength="29" x="68" y="98.0669">item</text></g><!--reverse link Warehouse to Material Usage--><g id="link_Warehouse_Material Usage"><path codeLine="2" d="M145.41,67.27 C137.41,86.63 127.37,110.9 118.68,131.92 " fill="none" id="Warehouse-backto-Material Usage" style="stroke:#181818;stroke-width:1.0;"/><polygon fill="#181818" points="150.47,55.05,144.4798,59.0647,145.8818,66.1382,151.872,62.1235,150.47,55.05" style="stroke:#181818;stroke-width:1.0;"/><text fill="#000000" font-family="sans-serif" font-size="13" lengthAdjust="spacing" textLength="119" x="137" y="98.0669">source_warehouse</text></g><!--SRC=[K_8iISrLKj3IrLLGyaqiIItAJCnH22rEJ4zLKh1Io0HASYc59nQbPkIN5gVYL5USNrgKd1fV3bF8bPoJM5oCgLBPpTBLtD9DePfB0MmsKAjFPbusa5TOcfXNabbI2HHnoybFB04AeHiAKrmB0000]--></g></svg>