<?xml version="1.0" encoding="us-ascii" standalone="no"?><svg xmlns="http://www.w3.org/2000/svg" xmlns:xlink="http://www.w3.org/1999/xlink" contentStyleType="text/css" height="117px" preserveAspectRatio="none" style="width:194px;height:117px;background:#FFFFFF;" version="1.1" viewBox="0 0 194 117" width="194px" zoomAndPan="magnify"><defs/><g><!--class Intonation Note--><g id="elem_Intonation Note"><rect codeLine="1" fill="#F5CBA7" height="96.8906" id="Intonation Note" rx="2.5" ry="2.5" style="stroke:#181818;stroke-width:0.5;" width="173" x="7" y="7"/><ellipse cx="37.75" cy="23" fill="#ADD1B2" rx="11" ry="11" style="stroke:#181818;stroke-width:1.0;"/><path d="M41.2656,27.0313 L41.2656,29.0625 Q39.7813,29.6719 37.9531,29.6719 Q35.2344,29.6719 33.7813,27.9375 Q32.3281,26.1875 32.3281,23.0781 Q32.3281,20.0781 33.9063,18.2969 Q35.4844,16.5 38.2031,16.5 Q40.1094,16.5 41.8438,17.4219 L40.8906,19.3281 Q39.3906,18.5469 38.2031,18.5469 Q36.5938,18.5469 35.6094,19.7656 Q34.6406,20.9688 34.6406,23.0938 Q34.6406,25.3438 35.5469,26.4844 Q36.4688,27.625 38.2031,27.625 Q39.2344,27.625 41.2656,27.0313 Z " fill="#000000"/><text fill="#000000" font-family="sans-serif" font-size="14" lengthAdjust="spacing" textLength="106" x="55.25" y="27.8467">Intonation Note</text><line style="stroke:#181818;stroke-width:0.5;" x1="8" x2="179" y1="39" y2="39"/><text fill="#000000" font-family="sans-serif" font-size="14" lengthAdjust="spacing" textLength="123" x="13" y="55.9951">note_name : Data</text><text fill="#000000" font-family="sans-serif" font-size="14" lengthAdjust="spacing" textLength="131" x="13" y="72.292">cents_offset : Float</text><text fill="#000000" font-family="sans-serif" font-size="14" lengthAdjust="spacing" textLength="161" x="13" y="88.5889">time_logged : Datetime</text><line style="stroke:#181818;stroke-width:0.5;" x1="8" x2="179" y1="95.8906" y2="95.8906"/></g><!--SRC=[9Sex2e0m303GlQS8zGmYkFcXuE8LIgXfARJ9q6pYtQsuFbues1hOWrKODGl3AKeM1ZTkwpB1RG2uYsUi13FigDWf46lp4cCZxUgAe7RMNCaNIOck_z8dvda1]--></g></svg>