<?xml version="1.0" encoding="us-ascii" standalone="no"?><svg xmlns="http://www.w3.org/2000/svg" xmlns:xlink="http://www.w3.org/1999/xlink" contentStyleType="text/css" height="268px" preserveAspectRatio="none" style="width:172px;height:268px;background:#FFFFFF;" version="1.1" viewBox="0 0 172 268" width="172px" zoomAndPan="magnify"><defs/><g><!--class Item--><g id="elem_Item"><rect fill="#F1F1F1" height="48" id="Item" rx="2.5" ry="2.5" style="stroke:#181818;stroke-width:0.5;" width="62" x="55" y="7"/><ellipse cx="70" cy="23" fill="#ADD1B2" rx="11" ry="11" style="stroke:#181818;stroke-width:1.0;"/><path d="M73.5156,27.0313 L73.5156,29.0625 Q72.0313,29.6719 70.2031,29.6719 Q67.4844,29.6719 66.0313,27.9375 Q64.5781,26.1875 64.5781,23.0781 Q64.5781,20.0781 66.1563,18.2969 Q67.7344,16.5 70.4531,16.5 Q72.3594,16.5 74.0938,17.4219 L73.1406,19.3281 Q71.6406,18.5469 70.4531,18.5469 Q68.8438,18.5469 67.8594,19.7656 Q66.8906,20.9688 66.8906,23.0938 Q66.8906,25.3438 67.7969,26.4844 Q68.7188,27.625 70.4531,27.625 Q71.4844,27.625 73.5156,27.0313 Z " fill="#000000"/><text fill="#000000" font-family="sans-serif" font-size="14" lengthAdjust="spacing" textLength="30" x="84" y="27.8467">Item</text><line style="stroke:#181818;stroke-width:0.5;" x1="56" x2="116" y1="39" y2="39"/><line style="stroke:#181818;stroke-width:0.5;" x1="56" x2="116" y1="47" y2="47"/></g><!--class Estimate Line Item--><g id="elem_Estimate Line Item"><rect codeLine="2" fill="#E59866" height="129.4844" id="Estimate Line Item" rx="2.5" ry="2.5" style="stroke:#181818;stroke-width:0.5;" width="158" x="7" y="132"/><ellipse cx="22" cy="148" fill="#ADD1B2" rx="11" ry="11" style="stroke:#181818;stroke-width:1.0;"/><path d="M25.5156,152.0313 L25.5156,154.0625 Q24.0313,154.6719 22.2031,154.6719 Q19.4844,154.6719 18.0313,152.9375 Q16.5781,151.1875 16.5781,148.0781 Q16.5781,145.0781 18.1563,143.2969 Q19.7344,141.5 22.4531,141.5 Q24.3594,141.5 26.0938,142.4219 L25.1406,144.3281 Q23.6406,143.5469 22.4531,143.5469 Q20.8438,143.5469 19.8594,144.7656 Q18.8906,145.9688 18.8906,148.0938 Q18.8906,150.3438 19.7969,151.4844 Q20.7188,152.625 22.4531,152.625 Q23.4844,152.625 25.5156,152.0313 Z " fill="#000000"/><text fill="#000000" font-family="sans-serif" font-size="14" lengthAdjust="spacing" textLength="126" x="36" y="152.8467">Estimate Line Item</text><line style="stroke:#181818;stroke-width:0.5;" x1="8" x2="164" y1="164" y2="164"/><text fill="#000000" font-family="sans-serif" font-size="14" lengthAdjust="spacing" textLength="122" x="13" y="180.9951">description : Data</text><text fill="#000000" font-family="sans-serif" font-size="14" lengthAdjust="spacing" textLength="109" x="13" y="197.292">part_code : Link</text><text fill="#000000" font-family="sans-serif" font-size="14" lengthAdjust="spacing" textLength="86" x="13" y="213.5889">hours : Float</text><text fill="#000000" font-family="sans-serif" font-size="14" lengthAdjust="spacing" textLength="102" x="13" y="229.8857">rate : Currency</text><text fill="#000000" font-family="sans-serif" font-size="14" lengthAdjust="spacing" textLength="128" x="13" y="246.1826">amount : Currency</text><line style="stroke:#181818;stroke-width:0.5;" x1="8" x2="164" y1="253.4844" y2="253.4844"/></g><!--reverse link Item to Estimate Line Item--><g id="link_Item_Estimate Line Item"><path codeLine="1" d="M86,68.1 C86,86.85 86,110.32 86,131.98 " fill="none" id="Item-backto-Estimate Line Item" style="stroke:#181818;stroke-width:1.0;"/><polygon fill="#181818" points="86,55.08,82,61.08,86,67.08,90,61.08,86,55.08" style="stroke:#181818;stroke-width:1.0;"/><text fill="#000000" font-family="sans-serif" font-size="13" lengthAdjust="spacing" textLength="64" x="87" y="98.0669">part_code</text></g><!--SRC=[RSn12i9030NGVKyHnftGfKMxrGg2ToXX6d2mCob9PY7IkniHn8NB_vB_myKe1zYsBOH1BMKqWcig19z33mkAZP4dQkACgl_VDiFkiEywU3O04scKj5ZYulKJ6Zf-LvoyTtUwSHNrU9uPpREyDtiuLX4gyU62cMknNrjV]--></g></svg>