<?xml version="1.0" encoding="us-ascii" standalone="no"?><svg xmlns="http://www.w3.org/2000/svg" xmlns:xlink="http://www.w3.org/1999/xlink" contentStyleType="text/css" height="235px" preserveAspectRatio="none" style="width:336px;height:235px;background:#FFFFFF;" version="1.1" viewBox="0 0 336 235" width="336px" zoomAndPan="magnify"><defs/><g><!--class Item Variant--><g id="elem_Item Variant"><rect fill="#F1F1F1" height="48" id="Item Variant" rx="2.5" ry="2.5" style="stroke:#181818;stroke-width:0.5;" width="113" x="7" y="7"/><ellipse cx="22" cy="23" fill="#ADD1B2" rx="11" ry="11" style="stroke:#181818;stroke-width:1.0;"/><path d="M25.5156,27.0313 L25.5156,29.0625 Q24.0313,29.6719 22.2031,29.6719 Q19.4844,29.6719 18.0313,27.9375 Q16.5781,26.1875 16.5781,23.0781 Q16.5781,20.0781 18.1563,18.2969 Q19.7344,16.5 22.4531,16.5 Q24.3594,16.5 26.0938,17.4219 L25.1406,19.3281 Q23.6406,18.5469 22.4531,18.5469 Q20.8438,18.5469 19.8594,19.7656 Q18.8906,20.9688 18.8906,23.0938 Q18.8906,25.3438 19.7969,26.4844 Q20.7188,27.625 22.4531,27.625 Q23.4844,27.625 25.5156,27.0313 Z " fill="#000000"/><text fill="#000000" font-family="sans-serif" font-size="14" lengthAdjust="spacing" textLength="81" x="36" y="27.8467">Item Variant</text><line style="stroke:#181818;stroke-width:0.5;" x1="8" x2="119" y1="39" y2="39"/><line style="stroke:#181818;stroke-width:0.5;" x1="8" x2="119" y1="47" y2="47"/></g><!--class Setup Template--><g id="elem_Setup Template"><rect codeLine="3" fill="#F9E79F" height="96.8906" id="Setup Template" rx="2.5" ry="2.5" style="stroke:#181818;stroke-width:0.5;" width="169" x="68" y="132"/><ellipse cx="95.15" cy="148" fill="#ADD1B2" rx="11" ry="11" style="stroke:#181818;stroke-width:1.0;"/><path d="M98.6656,152.0313 L98.6656,154.0625 Q97.1813,154.6719 95.3531,154.6719 Q92.6344,154.6719 91.1813,152.9375 Q89.7281,151.1875 89.7281,148.0781 Q89.7281,145.0781 91.3063,143.2969 Q92.8844,141.5 95.6031,141.5 Q97.5094,141.5 99.2438,142.4219 L98.2906,144.3281 Q96.7906,143.5469 95.6031,143.5469 Q93.9938,143.5469 93.0094,144.7656 Q92.0406,145.9688 92.0406,148.0938 Q92.0406,150.3438 92.9469,151.4844 Q93.8688,152.625 95.6031,152.625 Q96.6344,152.625 98.6656,152.0313 Z " fill="#000000"/><text fill="#000000" font-family="sans-serif" font-size="14" lengthAdjust="spacing" textLength="110" x="111.85" y="152.8467">Setup Template</text><line style="stroke:#181818;stroke-width:0.5;" x1="69" x2="236" y1="164" y2="164"/><text fill="#000000" font-family="sans-serif" font-size="14" lengthAdjust="spacing" textLength="152" x="74" y="180.9951">template_name : Data</text><text fill="#000000" font-family="sans-serif" font-size="14" lengthAdjust="spacing" textLength="140" x="74" y="197.292">clarinet_model : Link</text><text fill="#000000" font-family="sans-serif" font-size="14" lengthAdjust="spacing" textLength="157" x="74" y="213.5889">checklist_items : Table</text><line style="stroke:#181818;stroke-width:0.5;" x1="69" x2="236" y1="220.8906" y2="220.8906"/></g><!--class Setup Checklist Item--><g id="elem_Setup Checklist Item"><rect fill="#F1F1F1" height="48" id="Setup Checklist Item" rx="2.5" ry="2.5" style="stroke:#181818;stroke-width:0.5;" width="174" x="155.5" y="7"/><ellipse cx="170.5" cy="23" fill="#ADD1B2" rx="11" ry="11" style="stroke:#181818;stroke-width:1.0;"/><path d="M174.0156,27.0313 L174.0156,29.0625 Q172.5313,29.6719 170.7031,29.6719 Q167.9844,29.6719 166.5313,27.9375 Q165.0781,26.1875 165.0781,23.0781 Q165.0781,20.0781 166.6563,18.2969 Q168.2344,16.5 170.9531,16.5 Q172.8594,16.5 174.5938,17.4219 L173.6406,19.3281 Q172.1406,18.5469 170.9531,18.5469 Q169.3438,18.5469 168.3594,19.7656 Q167.3906,20.9688 167.3906,23.0938 Q167.3906,25.3438 168.2969,26.4844 Q169.2188,27.625 170.9531,27.625 Q171.9844,27.625 174.0156,27.0313 Z " fill="#000000"/><text fill="#000000" font-family="sans-serif" font-size="14" lengthAdjust="spacing" textLength="142" x="184.5" y="27.8467">Setup Checklist Item</text><line style="stroke:#181818;stroke-width:0.5;" x1="156.5" x2="328.5" y1="39" y2="39"/><line style="stroke:#181818;stroke-width:0.5;" x1="156.5" x2="328.5" y1="47" y2="47"/></g><!--reverse link Item Variant to Setup Template--><g id="link_Item Variant_Setup Template"><path codeLine="1" d="M82.99,66.81 C89.41,78.1 96.67,90.64 103.5,102 C109.33,111.69 115.69,121.96 121.84,131.75 " fill="none" id="Item Variant-backto-Setup Template" style="stroke:#181818;stroke-width:1.0;"/><polygon fill="#181818" points="76.39,55.17,75.8625,62.3618,82.2982,65.6148,82.8257,58.423,76.39,55.17" style="stroke:#181818;stroke-width:1.0;"/><text fill="#000000" font-family="sans-serif" font-size="13" lengthAdjust="spacing" textLength="94" x="104.5" y="98.0669">clarinet_model</text></g><!--reverse link Setup Checklist Item to Setup Template--><g id="link_Setup Checklist Item_Setup Template"><path codeLine="2" d="M223.71,66.92 C217.45,78.22 210.33,90.73 203.5,102 C197.57,111.78 191.01,122.09 184.62,131.9 " fill="none" id="Setup Checklist Item-backto-Setup Template" style="stroke:#181818;stroke-width:1.0;"/><polygon fill="#181818" points="230.1,55.26,223.7065,58.5952,224.3261,65.7796,230.7196,62.4444,230.1,55.26" style="stroke:#181818;stroke-width:1.0;"/><text fill="#000000" font-family="sans-serif" font-size="13" lengthAdjust="spacing" textLength="98" x="212.5" y="98.0669">checklist_items</text></g><!--SRC=[TOun2y9034Rt-nKVvoPqbhgg1S7Dudh46l1exYozE8d_tHJgKCJrvUKb_gYSSA4nKbQFTLN1drcV0rfEWv2onnQTc91PGthSMDnixExSzHABOehyN_vg8PfMdCLA-HLNJNtOr0rU3j2PXao9BR4d9SFBDuoVOkudlhnWWvQkmkxz0G00]--></g></svg>