<?xml version="1.0" encoding="us-ascii" standalone="no"?><svg xmlns="http://www.w3.org/2000/svg" xmlns:xlink="http://www.w3.org/1999/xlink" contentStyleType="text/css" height="252px" preserveAspectRatio="none" style="width:246px;height:252px;background:#FFFFFF;" version="1.1" viewBox="0 0 246 252" width="246px" zoomAndPan="magnify"><defs/><g><!--class Customer--><g id="elem_Customer"><rect fill="#F1F1F1" height="48" id="Customer" rx="2.5" ry="2.5" style="stroke:#181818;stroke-width:0.5;" width="100" x="73" y="7"/><ellipse cx="88" cy="23" fill="#ADD1B2" rx="11" ry="11" style="stroke:#181818;stroke-width:1.0;"/><path d="M91.5156,27.0313 L91.5156,29.0625 Q90.0313,29.6719 88.2031,29.6719 Q85.4844,29.6719 84.0313,27.9375 Q82.5781,26.1875 82.5781,23.0781 Q82.5781,20.0781 84.1563,18.2969 Q85.7344,16.5 88.4531,16.5 Q90.3594,16.5 92.0938,17.4219 L91.1406,19.3281 Q89.6406,18.5469 88.4531,18.5469 Q86.8438,18.5469 85.8594,19.7656 Q84.8906,20.9688 84.8906,23.0938 Q84.8906,25.3438 85.7969,26.4844 Q86.7188,27.625 88.4531,27.625 Q89.4844,27.625 91.5156,27.0313 Z " fill="#000000"/><text fill="#000000" font-family="sans-serif" font-size="14" lengthAdjust="spacing" textLength="68" x="102" y="27.8467">Customer</text><line style="stroke:#181818;stroke-width:0.5;" x1="74" x2="172" y1="39" y2="39"/><line style="stroke:#181818;stroke-width:0.5;" x1="74" x2="172" y1="47" y2="47"/></g><!--class Customer Consent Form--><g id="elem_Customer Consent Form"><rect codeLine="2" fill="#A9DFBF" height="113.1875" id="Customer Consent Form" rx="2.5" ry="2.5" style="stroke:#181818;stroke-width:0.5;" width="232" x="7" y="132"/><ellipse cx="35.5" cy="148" fill="#ADD1B2" rx="11" ry="11" style="stroke:#181818;stroke-width:1.0;"/><path d="M39.0156,152.0313 L39.0156,154.0625 Q37.5313,154.6719 35.7031,154.6719 Q32.9844,154.6719 31.5313,152.9375 Q30.0781,151.1875 30.0781,148.0781 Q30.0781,145.0781 31.6563,143.2969 Q33.2344,141.5 35.9531,141.5 Q37.8594,141.5 39.5938,142.4219 L38.6406,144.3281 Q37.1406,143.5469 35.9531,143.5469 Q34.3438,143.5469 33.3594,144.7656 Q32.3906,145.9688 32.3906,148.0938 Q32.3906,150.3438 33.2969,151.4844 Q34.2188,152.625 35.9531,152.625 Q36.9844,152.625 39.0156,152.0313 Z " fill="#000000"/><text fill="#000000" font-family="sans-serif" font-size="14" lengthAdjust="spacing" textLength="170" x="52.5" y="152.8467">Customer Consent Form</text><line style="stroke:#181818;stroke-width:0.5;" x1="8" x2="238" y1="164" y2="164"/><text fill="#000000" font-family="sans-serif" font-size="14" lengthAdjust="spacing" textLength="106" x="13" y="180.9951">customer : Link</text><text fill="#000000" font-family="sans-serif" font-size="14" lengthAdjust="spacing" textLength="168" x="13" y="197.292">consent_signed : Check</text><text fill="#000000" font-family="sans-serif" font-size="14" lengthAdjust="spacing" textLength="144" x="13" y="213.5889">signature : Signature</text><text fill="#000000" font-family="sans-serif" font-size="14" lengthAdjust="spacing" textLength="220" x="13" y="229.8857">authorization_notes : Small Text</text><line style="stroke:#181818;stroke-width:0.5;" x1="8" x2="238" y1="237.1875" y2="237.1875"/></g><!--reverse link Customer to Customer Consent Form--><g id="link_Customer_Customer Consent Form"><path codeLine="1" d="M123,68.39 C123,87.25 123,110.68 123,131.75 " fill="none" id="Customer-backto-Customer Consent Form" style="stroke:#181818;stroke-width:1.0;"/><polygon fill="#181818" points="123,55.28,119,61.28,123,67.28,127,61.28,123,55.28" style="stroke:#181818;stroke-width:1.0;"/><text fill="#000000" font-family="sans-serif" font-size="13" lengthAdjust="spacing" textLength="61" x="124" y="98.0669">customer</text></g><!--SRC=[TOkn2W8n44JxVCKIE-4-G3izIMMd_H7YuWMJNSXkG1J_tGGzExkPDs_iM4KvOx6m7WQmIuMHIP0K79TiOGlXEvYGlCXVSRNR7DpUmTF0xzBUnqYtJZxk9F5AU6byd37qeGEljM1ZfoKtxglENEB3QsIQY1Mb6zcd16Uygtcz0G00]--></g></svg>