<?xml version="1.0" encoding="us-ascii" standalone="no"?><svg xmlns="http://www.w3.org/2000/svg" xmlns:xlink="http://www.w3.org/1999/xlink" contentStyleType="text/css" height="117px" preserveAspectRatio="none" style="width:183px;height:117px;background:#FFFFFF;" version="1.1" viewBox="0 0 183 117" width="183px" zoomAndPan="magnify"><defs/><g><!--class Consent Log--><g id="elem_Consent Log"><rect codeLine="1" fill="#D2B4DE" height="96.8906" id="Consent Log" rx="2.5" ry="2.5" style="stroke:#181818;stroke-width:0.5;" width="162" x="7" y="7"/><ellipse cx="40.9" cy="23" fill="#ADD1B2" rx="11" ry="11" style="stroke:#181818;stroke-width:1.0;"/><path d="M44.4156,27.0313 L44.4156,29.0625 Q42.9313,29.6719 41.1031,29.6719 Q38.3844,29.6719 36.9313,27.9375 Q35.4781,26.1875 35.4781,23.0781 Q35.4781,20.0781 37.0563,18.2969 Q38.6344,16.5 41.3531,16.5 Q43.2594,16.5 44.9938,17.4219 L44.0406,19.3281 Q42.5406,18.5469 41.3531,18.5469 Q39.7438,18.5469 38.7594,19.7656 Q37.7906,20.9688 37.7906,23.0938 Q37.7906,25.3438 38.6969,26.4844 Q39.6188,27.625 41.3531,27.625 Q42.3844,27.625 44.4156,27.0313 Z " fill="#000000"/><text fill="#000000" font-family="sans-serif" font-size="14" lengthAdjust="spacing" textLength="88" x="59.1" y="27.8467">Consent Log</text><line style="stroke:#181818;stroke-width:0.5;" x1="8" x2="168" y1="39" y2="39"/><text fill="#000000" font-family="sans-serif" font-size="14" lengthAdjust="spacing" textLength="150" x="13" y="55.9951">consent_type : Select</text><text fill="#000000" font-family="sans-serif" font-size="14" lengthAdjust="spacing" textLength="121" x="13" y="72.292">date_given : Date</text><text fill="#000000" font-family="sans-serif" font-size="14" lengthAdjust="spacing" textLength="123" x="13" y="88.5889">notes : Small Text</text><line style="stroke:#181818;stroke-width:0.5;" x1="8" x2="168" y1="95.8906" y2="95.8906"/></g><!--SRC=[Iyv9B2vMK7BEpojEpIjHyCbFLr9GTZ5oCd5nLQZcKb18XaZ4brGMf2fOAGIdvgGcbm35Kn9BKkFJCyjIyu2YBa0EK2mlloIr6AGeDp4dHo4ajQA4gnO0]--></g></svg>