<?xml version="1.0" encoding="us-ascii" standalone="no"?><svg xmlns="http://www.w3.org/2000/svg" xmlns:xlink="http://www.w3.org/1999/xlink" contentStyleType="text/css" height="134px" preserveAspectRatio="none" style="width:194px;height:134px;background:#FFFFFF;" version="1.1" viewBox="0 0 194 134" width="194px" zoomAndPan="magnify"><defs/><g><!--class Pad Condition--><g id="elem_Pad Condition"><rect codeLine="1" fill="#F5CBA7" height="113.1875" id="Pad Condition" rx="2.5" ry="2.5" style="stroke:#181818;stroke-width:0.5;" width="173" x="7" y="7"/><ellipse cx="42.25" cy="23" fill="#ADD1B2" rx="11" ry="11" style="stroke:#181818;stroke-width:1.0;"/><path d="M45.7656,27.0313 L45.7656,29.0625 Q44.2813,29.6719 42.4531,29.6719 Q39.7344,29.6719 38.2813,27.9375 Q36.8281,26.1875 36.8281,23.0781 Q36.8281,20.0781 38.4063,18.2969 Q39.9844,16.5 42.7031,16.5 Q44.6094,16.5 46.3438,17.4219 L45.3906,19.3281 Q43.8906,18.5469 42.7031,18.5469 Q41.0938,18.5469 40.1094,19.7656 Q39.1406,20.9688 39.1406,23.0938 Q39.1406,25.3438 40.0469,26.4844 Q40.9688,27.625 42.7031,27.625 Q43.7344,27.625 45.7656,27.0313 Z " fill="#000000"/><text fill="#000000" font-family="sans-serif" font-size="14" lengthAdjust="spacing" textLength="96" x="60.75" y="27.8467">Pad Condition</text><line style="stroke:#181818;stroke-width:0.5;" x1="8" x2="179" y1="39" y2="39"/><text fill="#000000" font-family="sans-serif" font-size="14" lengthAdjust="spacing" textLength="90" x="13" y="55.9951">pad_id : Data</text><text fill="#000000" font-family="sans-serif" font-size="14" lengthAdjust="spacing" textLength="117" x="13" y="72.292">pad_name : Data</text><text fill="#000000" font-family="sans-serif" font-size="14" lengthAdjust="spacing" textLength="99" x="13" y="88.5889">status : Select</text><text fill="#000000" font-family="sans-serif" font-size="14" lengthAdjust="spacing" textLength="161" x="13" y="104.8857">technician_notes : Text</text><line style="stroke:#181818;stroke-width:0.5;" x1="8" x2="179" y1="112.1875" y2="112.1875"/></g><!--SRC=[HSan2e0m343HtLC4FOC8Rbfn5dGleGqOgAdG289uToi8Zlzz5p0bA2VqOA9uLevIGZNMfkyQk0g07Rrb3oqCgFYru4Q_94KzKkwP0ZdDekHMOSSeLgBI-nOwjRWV]--></g></svg>