<?xml version="1.0" encoding="us-ascii" standalone="no"?><svg xmlns="http://www.w3.org/2000/svg" xmlns:xlink="http://www.w3.org/1999/xlink" contentStyleType="text/css" height="268px" preserveAspectRatio="none" style="width:242px;height:268px;background:#FFFFFF;" version="1.1" viewBox="0 0 242 268" width="242px" zoomAndPan="magnify"><defs/><g><!--class reference_doctype--><g id="elem_reference_doctype"><rect fill="#F1F1F1" height="48" id="reference_doctype" rx="2.5" ry="2.5" style="stroke:#181818;stroke-width:0.5;" width="162" x="40" y="7"/><ellipse cx="55" cy="23" fill="#ADD1B2" rx="11" ry="11" style="stroke:#181818;stroke-width:1.0;"/><path d="M58.5156,27.0313 L58.5156,29.0625 Q57.0313,29.6719 55.2031,29.6719 Q52.4844,29.6719 51.0313,27.9375 Q49.5781,26.1875 49.5781,23.0781 Q49.5781,20.0781 51.1563,18.2969 Q52.7344,16.5 55.4531,16.5 Q57.3594,16.5 59.0938,17.4219 L58.1406,19.3281 Q56.6406,18.5469 55.4531,18.5469 Q53.8438,18.5469 52.8594,19.7656 Q51.8906,20.9688 51.8906,23.0938 Q51.8906,25.3438 52.7969,26.4844 Q53.7188,27.625 55.4531,27.625 Q56.4844,27.625 58.5156,27.0313 Z " fill="#000000"/><text fill="#000000" font-family="sans-serif" font-size="14" lengthAdjust="spacing" textLength="130" x="69" y="27.8467">reference_doctype</text><line style="stroke:#181818;stroke-width:0.5;" x1="41" x2="201" y1="39" y2="39"/><line style="stroke:#181818;stroke-width:0.5;" x1="41" x2="201" y1="47" y2="47"/></g><!--class Instrument Interaction Log--><g id="elem_Instrument Interaction Log"><rect codeLine="2" fill="#76D7C4" height="129.4844" id="Instrument Interaction Log" rx="2.5" ry="2.5" style="stroke:#181818;stroke-width:0.5;" width="228" x="7" y="132"/><ellipse cx="28.75" cy="148" fill="#ADD1B2" rx="11" ry="11" style="stroke:#181818;stroke-width:1.0;"/><path d="M32.2656,152.0313 L32.2656,154.0625 Q30.7813,154.6719 28.9531,154.6719 Q26.2344,154.6719 24.7813,152.9375 Q23.3281,151.1875 23.3281,148.0781 Q23.3281,145.0781 24.9063,143.2969 Q26.4844,141.5 29.2031,141.5 Q31.1094,141.5 32.8438,142.4219 L31.8906,144.3281 Q30.3906,143.5469 29.2031,143.5469 Q27.5938,143.5469 26.6094,144.7656 Q25.6406,145.9688 25.6406,148.0938 Q25.6406,150.3438 26.5469,151.4844 Q27.4688,152.625 29.2031,152.625 Q30.2344,152.625 32.2656,152.0313 Z " fill="#000000"/><text fill="#000000" font-family="sans-serif" font-size="14" lengthAdjust="spacing" textLength="181" x="44.25" y="152.8467">Instrument Interaction Log</text><line style="stroke:#181818;stroke-width:0.5;" x1="8" x2="234" y1="164" y2="164"/><text fill="#000000" font-family="sans-serif" font-size="14" lengthAdjust="spacing" textLength="166" x="13" y="180.9951">interaction_type : Select</text><text fill="#000000" font-family="sans-serif" font-size="14" lengthAdjust="spacing" textLength="175" x="13" y="197.292">reference_doctype : Data</text><text fill="#000000" font-family="sans-serif" font-size="14" lengthAdjust="spacing" textLength="216" x="13" y="213.5889">reference_name : Dynamic Link</text><text fill="#000000" font-family="sans-serif" font-size="14" lengthAdjust="spacing" textLength="77" x="13" y="229.8857">date : Date</text><text fill="#000000" font-family="sans-serif" font-size="14" lengthAdjust="spacing" textLength="123" x="13" y="246.1826">notes : Small Text</text><line style="stroke:#181818;stroke-width:0.5;" x1="8" x2="234" y1="253.4844" y2="253.4844"/></g><!--reverse link reference_doctype to Instrument Interaction Log--><g id="link_reference_doctype_Instrument Interaction Log"><path codeLine="1" d="M121,68.1 C121,86.85 121,110.32 121,131.98 " fill="none" id="reference_doctype-backto-Instrument Interaction Log" style="stroke:#181818;stroke-width:1.0;"/><polygon fill="#181818" points="121,55.08,117,61.08,121,67.08,125,61.08,121,55.08" style="stroke:#181818;stroke-width:1.0;"/><text fill="#000000" font-family="sans-serif" font-size="13" lengthAdjust="spacing" textLength="105" x="122" y="98.0669">reference_name</text></g><!--SRC=[VOvD2y8m38Rl-nMXteJTn85NTndivkuZTAzIx59f8pZ4_suBmX31Mv8dxuU9E2D2BCOfM5rkCBIjQpAT98tt6QBKYIAoLHU4-d0nTA1L9JoZifvJ-g_PDFksEUxeMH6v5OubCXkUu64rivy-6RQi_8LAQBalUN2MUYVNp2VMppVo9a6HYlFCtjE0XrQlDm00]--></g></svg>