<?xml version="1.0" encoding="us-ascii" standalone="no"?><svg xmlns="http://www.w3.org/2000/svg" xmlns:xlink="http://www.w3.org/1999/xlink" contentStyleType="text/css" height="301px" preserveAspectRatio="none" style="width:668px;height:301px;background:#FFFFFF;" version="1.1" viewBox="0 0 668 301" width="668px" zoomAndPan="magnify"><defs/><g><!--class Instrument Profile--><g id="elem_Instrument Profile"><rect fill="#F1F1F1" height="48" id="Instrument Profile" rx="2.5" ry="2.5" style="stroke:#181818;stroke-width:0.5;" width="153" x="7" y="7"/><ellipse cx="22" cy="23" fill="#ADD1B2" rx="11" ry="11" style="stroke:#181818;stroke-width:1.0;"/><path d="M25.5156,27.0313 L25.5156,29.0625 Q24.0313,29.6719 22.2031,29.6719 Q19.4844,29.6719 18.0313,27.9375 Q16.5781,26.1875 16.5781,23.0781 Q16.5781,20.0781 18.1563,18.2969 Q19.7344,16.5 22.4531,16.5 Q24.3594,16.5 26.0938,17.4219 L25.1406,19.3281 Q23.6406,18.5469 22.4531,18.5469 Q20.8438,18.5469 19.8594,19.7656 Q18.8906,20.9688 18.8906,23.0938 Q18.8906,25.3438 19.7969,26.4844 Q20.7188,27.625 22.4531,27.625 Q23.4844,27.625 25.5156,27.0313 Z " fill="#000000"/><text fill="#000000" font-family="sans-serif" font-size="14" lengthAdjust="spacing" textLength="121" x="36" y="27.8467">Instrument Profile</text><line style="stroke:#181818;stroke-width:0.5;" x1="8" x2="159" y1="39" y2="39"/><line style="stroke:#181818;stroke-width:0.5;" x1="8" x2="159" y1="47" y2="47"/></g><!--class Intonation Session--><g id="elem_Intonation Session"><rect codeLine="5" fill="#F5CBA7" height="162.0781" id="Intonation Session" rx="2.5" ry="2.5" style="stroke:#181818;stroke-width:0.5;" width="227" x="223" y="132"/><ellipse cx="268.25" cy="148" fill="#ADD1B2" rx="11" ry="11" style="stroke:#181818;stroke-width:1.0;"/><path d="M271.7656,152.0313 L271.7656,154.0625 Q270.2813,154.6719 268.4531,154.6719 Q265.7344,154.6719 264.2813,152.9375 Q262.8281,151.1875 262.8281,148.0781 Q262.8281,145.0781 264.4063,143.2969 Q265.9844,141.5 268.7031,141.5 Q270.6094,141.5 272.3438,142.4219 L271.3906,144.3281 Q269.8906,143.5469 268.7031,143.5469 Q267.0938,143.5469 266.1094,144.7656 Q265.1406,145.9688 265.1406,148.0938 Q265.1406,150.3438 266.0469,151.4844 Q266.9688,152.625 268.7031,152.625 Q269.7344,152.625 271.7656,152.0313 Z " fill="#000000"/><text fill="#000000" font-family="sans-serif" font-size="14" lengthAdjust="spacing" textLength="128" x="288.75" y="152.8467">Intonation Session</text><line style="stroke:#181818;stroke-width:0.5;" x1="224" x2="449" y1="164" y2="164"/><text fill="#000000" font-family="sans-serif" font-size="14" lengthAdjust="spacing" textLength="115" x="229" y="180.9951">instrument : Link</text><text fill="#000000" font-family="sans-serif" font-size="14" lengthAdjust="spacing" textLength="81" x="229" y="197.292">player : Link</text><text fill="#000000" font-family="sans-serif" font-size="14" lengthAdjust="spacing" textLength="123" x="229" y="213.5889">repair_order : Link</text><text fill="#000000" font-family="sans-serif" font-size="14" lengthAdjust="spacing" textLength="147" x="229" y="229.8857">session_type : Select</text><text fill="#000000" font-family="sans-serif" font-size="14" lengthAdjust="spacing" textLength="147" x="229" y="246.1826">json_data : Long Text</text><text fill="#000000" font-family="sans-serif" font-size="14" lengthAdjust="spacing" textLength="215" x="229" y="262.4795">plot_attachment : Attach Image</text><text fill="#000000" font-family="sans-serif" font-size="14" lengthAdjust="spacing" textLength="91" x="229" y="278.7764">notes : Table</text><line style="stroke:#181818;stroke-width:0.5;" x1="224" x2="449" y1="286.0781" y2="286.0781"/></g><!--class Player Profile--><g id="elem_Player Profile"><rect fill="#F1F1F1" height="48" id="Player Profile" rx="2.5" ry="2.5" style="stroke:#181818;stroke-width:0.5;" width="119" x="195" y="7"/><ellipse cx="210" cy="23" fill="#ADD1B2" rx="11" ry="11" style="stroke:#181818;stroke-width:1.0;"/><path d="M213.5156,27.0313 L213.5156,29.0625 Q212.0313,29.6719 210.2031,29.6719 Q207.4844,29.6719 206.0313,27.9375 Q204.5781,26.1875 204.5781,23.0781 Q204.5781,20.0781 206.1563,18.2969 Q207.7344,16.5 210.4531,16.5 Q212.3594,16.5 214.0938,17.4219 L213.1406,19.3281 Q211.6406,18.5469 210.4531,18.5469 Q208.8438,18.5469 207.8594,19.7656 Q206.8906,20.9688 206.8906,23.0938 Q206.8906,25.3438 207.7969,26.4844 Q208.7188,27.625 210.4531,27.625 Q211.4844,27.625 213.5156,27.0313 Z " fill="#000000"/><text fill="#000000" font-family="sans-serif" font-size="14" lengthAdjust="spacing" textLength="87" x="224" y="27.8467">Player Profile</text><line style="stroke:#181818;stroke-width:0.5;" x1="196" x2="313" y1="39" y2="39"/><line style="stroke:#181818;stroke-width:0.5;" x1="196" x2="313" y1="47" y2="47"/></g><!--class Repair Request--><g id="elem_Repair Request"><rect fill="#F1F1F1" height="48" id="Repair Request" rx="2.5" ry="2.5" style="stroke:#181818;stroke-width:0.5;" width="139" x="349" y="7"/><ellipse cx="364" cy="23" fill="#ADD1B2" rx="11" ry="11" style="stroke:#181818;stroke-width:1.0;"/><path d="M367.5156,27.0313 L367.5156,29.0625 Q366.0313,29.6719 364.2031,29.6719 Q361.4844,29.6719 360.0313,27.9375 Q358.5781,26.1875 358.5781,23.0781 Q358.5781,20.0781 360.1563,18.2969 Q361.7344,16.5 364.4531,16.5 Q366.3594,16.5 368.0938,17.4219 L367.1406,19.3281 Q365.6406,18.5469 364.4531,18.5469 Q362.8438,18.5469 361.8594,19.7656 Q360.8906,20.9688 360.8906,23.0938 Q360.8906,25.3438 361.7969,26.4844 Q362.7188,27.625 364.4531,27.625 Q365.4844,27.625 367.5156,27.0313 Z " fill="#000000"/><text fill="#000000" font-family="sans-serif" font-size="14" lengthAdjust="spacing" textLength="107" x="378" y="27.8467">Repair Request</text><line style="stroke:#181818;stroke-width:0.5;" x1="350" x2="487" y1="39" y2="39"/><line style="stroke:#181818;stroke-width:0.5;" x1="350" x2="487" y1="47" y2="47"/></g><!--class Intonation Note--><g id="elem_Intonation Note"><rect fill="#F1F1F1" height="48" id="Intonation Note" rx="2.5" ry="2.5" style="stroke:#181818;stroke-width:0.5;" width="138" x="523.5" y="7"/><ellipse cx="538.5" cy="23" fill="#ADD1B2" rx="11" ry="11" style="stroke:#181818;stroke-width:1.0;"/><path d="M542.0156,27.0313 L542.0156,29.0625 Q540.5313,29.6719 538.7031,29.6719 Q535.9844,29.6719 534.5313,27.9375 Q533.0781,26.1875 533.0781,23.0781 Q533.0781,20.0781 534.6563,18.2969 Q536.2344,16.5 538.9531,16.5 Q540.8594,16.5 542.5938,17.4219 L541.6406,19.3281 Q540.1406,18.5469 538.9531,18.5469 Q537.3438,18.5469 536.3594,19.7656 Q535.3906,20.9688 535.3906,23.0938 Q535.3906,25.3438 536.2969,26.4844 Q537.2188,27.625 538.9531,27.625 Q539.9844,27.625 542.0156,27.0313 Z " fill="#000000"/><text fill="#000000" font-family="sans-serif" font-size="14" lengthAdjust="spacing" textLength="106" x="552.5" y="27.8467">Intonation Note</text><line style="stroke:#181818;stroke-width:0.5;" x1="524.5" x2="660.5" y1="39" y2="39"/><line style="stroke:#181818;stroke-width:0.5;" x1="524.5" x2="660.5" y1="47" y2="47"/></g><!--reverse link Instrument Profile to Intonation Session--><g id="link_Instrument Profile_Intonation Session"><path codeLine="1" d="M126.97,62.93 C153.79,82.01 189.51,107.42 223.86,131.86 " fill="none" id="Instrument Profile-backto-Intonation Session" style="stroke:#181818;stroke-width:1.0;"/><polygon fill="#181818" points="116.06,55.16,118.6295,61.8978,125.8373,62.1174,123.2678,55.3796,116.06,55.16" style="stroke:#181818;stroke-width:1.0;"/><text fill="#000000" font-family="sans-serif" font-size="13" lengthAdjust="spacing" textLength="70" x="181.5" y="98.0669">instrument</text></g><!--reverse link Player Profile to Intonation Session--><g id="link_Player Profile_Intonation Session"><path codeLine="2" d="M270.5,67.11 C278.93,85.63 289.65,109.17 299.99,131.86 " fill="none" id="Player Profile-backto-Intonation Session" style="stroke:#181818;stroke-width:1.0;"/><polygon fill="#181818" points="265.05,55.16,263.8959,62.2781,270.0226,66.0812,271.1767,58.9631,265.05,55.16" style="stroke:#181818;stroke-width:1.0;"/><text fill="#000000" font-family="sans-serif" font-size="13" lengthAdjust="spacing" textLength="39" x="286.5" y="98.0669">player</text></g><!--reverse link Repair Request to Intonation Session--><g id="link_Repair Request_Intonation Session"><path codeLine="3" d="M402.5,67.11 C394.07,85.63 383.35,109.17 373.01,131.86 " fill="none" id="Repair Request-backto-Intonation Session" style="stroke:#181818;stroke-width:1.0;"/><polygon fill="#181818" points="407.95,55.16,401.8233,58.9631,402.9774,66.0812,409.1041,62.2781,407.95,55.16" style="stroke:#181818;stroke-width:1.0;"/><text fill="#000000" font-family="sans-serif" font-size="13" lengthAdjust="spacing" textLength="78" x="394.5" y="98.0669">repair_order</text></g><!--reverse link Intonation Note to Intonation Session--><g id="link_Intonation Note_Intonation Session"><path codeLine="4" d="M548.85,62.69 C521.6,81.85 485.17,107.46 450.19,132.06 " fill="none" id="Intonation Note-backto-Intonation Session" style="stroke:#181818;stroke-width:1.0;"/><polygon fill="#181818" points="559.56,55.16,552.3511,55.3381,549.7429,62.061,556.9518,61.8829,559.56,55.16" style="stroke:#181818;stroke-width:1.0;"/><text fill="#000000" font-family="sans-serif" font-size="13" lengthAdjust="spacing" textLength="36" x="517.5" y="98.0669">notes</text></g><!--SRC=[ZO_1YW8n38RlVOfGRu97MV2cWZ0W8ixSXpX6jskddMqYh2o-kx4kwnn4F9LyV7_ornQ19PrQ2WBh5FVEauNXQ0Is2183Yei1IcBMry84tBzkxDhZcT9RiIwhncweGvTWGzydOdaPILcjOzhTWZrd5UNriQ02cyOZytDbi1ZFPzCF-3NG-v0cbouSbTtRFkP-bGVb-xfQpXqfBSbJ8yg_ME4E1Mzg30Uew4VorYWrYc3p-NTkcWSeMZoG2hctuWgtdipb2W00]--></g></svg>