<?xml version="1.0" encoding="us-ascii" standalone="no"?><svg xmlns="http://www.w3.org/2000/svg" xmlns:xlink="http://www.w3.org/1999/xlink" contentStyleType="text/css" height="117px" preserveAspectRatio="none" style="width:194px;height:117px;background:#FFFFFF;" version="1.1" viewBox="0 0 194 117" width="194px" zoomAndPan="magnify"><defs/><g><!--class Leak Reading--><g id="elem_Leak Reading"><rect codeLine="1" fill="#F5CBA7" height="96.8906" id="Leak Reading" rx="2.5" ry="2.5" style="stroke:#181818;stroke-width:0.5;" width="173" x="7" y="7"/><ellipse cx="43.6" cy="23" fill="#ADD1B2" rx="11" ry="11" style="stroke:#181818;stroke-width:1.0;"/><path d="M47.1156,27.0313 L47.1156,29.0625 Q45.6313,29.6719 43.8031,29.6719 Q41.0844,29.6719 39.6313,27.9375 Q38.1781,26.1875 38.1781,23.0781 Q38.1781,20.0781 39.7563,18.2969 Q41.3344,16.5 44.0531,16.5 Q45.9594,16.5 47.6938,17.4219 L46.7406,19.3281 Q45.2406,18.5469 44.0531,18.5469 Q42.4438,18.5469 41.4594,19.7656 Q40.4906,20.9688 40.4906,23.0938 Q40.4906,25.3438 41.3969,26.4844 Q42.3188,27.625 44.0531,27.625 Q45.0844,27.625 47.1156,27.0313 Z " fill="#000000"/><text fill="#000000" font-family="sans-serif" font-size="14" lengthAdjust="spacing" textLength="93" x="62.4" y="27.8467">Leak Reading</text><line style="stroke:#181818;stroke-width:0.5;" x1="8" x2="179" y1="39" y2="39"/><text fill="#000000" font-family="sans-serif" font-size="14" lengthAdjust="spacing" textLength="114" x="13" y="55.9951">tone_hole : Data</text><text fill="#000000" font-family="sans-serif" font-size="14" lengthAdjust="spacing" textLength="120" x="13" y="72.292">leak_score : Float</text><text fill="#000000" font-family="sans-serif" font-size="14" lengthAdjust="spacing" textLength="161" x="13" y="88.5889">time_logged : Datetime</text><line style="stroke:#181818;stroke-width:0.5;" x1="8" x2="179" y1="95.8906" y2="95.8906"/></g><!--SRC=[Iyv9B2vMKF99JSnM24fDJCdCIrTIK7OpTNPoD5Uevb9GACdFIutFoCz9LR1IS4aiIGGAvG0LnnSdvnU1nDnoyXDBGEeoSrFZS_BJqrDJ82fJGI9SjG00]--></g></svg>