<?xml version="1.0" encoding="us-ascii" standalone="no"?><svg xmlns="http://www.w3.org/2000/svg" xmlns:xlink="http://www.w3.org/1999/xlink" contentStyleType="text/css" height="317px" preserveAspectRatio="none" style="width:303px;height:317px;background:#FFFFFF;" version="1.1" viewBox="0 0 303 317" width="303px" zoomAndPan="magnify"><defs/><g><!--class Instrument Profile--><g id="elem_Instrument Profile"><rect fill="#F1F1F1" height="48" id="Instrument Profile" rx="2.5" ry="2.5" style="stroke:#181818;stroke-width:0.5;" width="153" x="7" y="7"/><ellipse cx="22" cy="23" fill="#ADD1B2" rx="11" ry="11" style="stroke:#181818;stroke-width:1.0;"/><path d="M25.5156,27.0313 L25.5156,29.0625 Q24.0313,29.6719 22.2031,29.6719 Q19.4844,29.6719 18.0313,27.9375 Q16.5781,26.1875 16.5781,23.0781 Q16.5781,20.0781 18.1563,18.2969 Q19.7344,16.5 22.4531,16.5 Q24.3594,16.5 26.0938,17.4219 L25.1406,19.3281 Q23.6406,18.5469 22.4531,18.5469 Q20.8438,18.5469 19.8594,19.7656 Q18.8906,20.9688 18.8906,23.0938 Q18.8906,25.3438 19.7969,26.4844 Q20.7188,27.625 22.4531,27.625 Q23.4844,27.625 25.5156,27.0313 Z " fill="#000000"/><text fill="#000000" font-family="sans-serif" font-size="14" lengthAdjust="spacing" textLength="121" x="36" y="27.8467">Instrument Profile</text><line style="stroke:#181818;stroke-width:0.5;" x1="8" x2="159" y1="39" y2="39"/><line style="stroke:#181818;stroke-width:0.5;" x1="8" x2="159" y1="47" y2="47"/></g><!--class Warranty Modification Log--><g id="elem_Warranty Modification Log"><rect codeLine="3" fill="#F5CBA7" height="178.375" id="Warranty Modification Log" rx="2.5" ry="2.5" style="stroke:#181818;stroke-width:0.5;" width="209" x="58" y="132"/><ellipse cx="73.9" cy="148" fill="#ADD1B2" rx="11" ry="11" style="stroke:#181818;stroke-width:1.0;"/><path d="M77.4156,152.0313 L77.4156,154.0625 Q75.9313,154.6719 74.1031,154.6719 Q71.3844,154.6719 69.9313,152.9375 Q68.4781,151.1875 68.4781,148.0781 Q68.4781,145.0781 70.0563,143.2969 Q71.6344,141.5 74.3531,141.5 Q76.2594,141.5 77.9938,142.4219 L77.0406,144.3281 Q75.5406,143.5469 74.3531,143.5469 Q72.7438,143.5469 71.7594,144.7656 Q70.7906,145.9688 70.7906,148.0938 Q70.7906,150.3438 71.6969,151.4844 Q72.6188,152.625 74.3531,152.625 Q75.3844,152.625 77.4156,152.0313 Z " fill="#000000"/><text fill="#000000" font-family="sans-serif" font-size="14" lengthAdjust="spacing" textLength="175" x="88.1" y="152.8467">Warranty Modification Log</text><line style="stroke:#181818;stroke-width:0.5;" x1="59" x2="266" y1="164" y2="164"/><text fill="#000000" font-family="sans-serif" font-size="14" lengthAdjust="spacing" textLength="164" x="64" y="180.9951">instrument_profile : Link</text><text fill="#000000" font-family="sans-serif" font-size="14" lengthAdjust="spacing" textLength="122" x="64" y="197.292">modified_by : Link</text><text fill="#000000" font-family="sans-serif" font-size="14" lengthAdjust="spacing" textLength="197" x="64" y="213.5889">modification_date : Datetime</text><text fill="#000000" font-family="sans-serif" font-size="14" lengthAdjust="spacing" textLength="143" x="64" y="229.8857">old_start_date : Date</text><text fill="#000000" font-family="sans-serif" font-size="14" lengthAdjust="spacing" textLength="151" x="64" y="246.1826">new_start_date : Date</text><text fill="#000000" font-family="sans-serif" font-size="14" lengthAdjust="spacing" textLength="139" x="64" y="262.4795">old_end_date : Date</text><text fill="#000000" font-family="sans-serif" font-size="14" lengthAdjust="spacing" textLength="147" x="64" y="278.7764">new_end_date : Date</text><text fill="#000000" font-family="sans-serif" font-size="14" lengthAdjust="spacing" textLength="93" x="64" y="295.0732">reason : Data</text><line style="stroke:#181818;stroke-width:0.5;" x1="59" x2="266" y1="302.375" y2="302.375"/></g><!--class User--><g id="elem_User"><rect fill="#F1F1F1" height="48" id="User" rx="2.5" ry="2.5" style="stroke:#181818;stroke-width:0.5;" width="64" x="209.5" y="7"/><ellipse cx="224.5" cy="23" fill="#ADD1B2" rx="11" ry="11" style="stroke:#181818;stroke-width:1.0;"/><path d="M228.0156,27.0313 L228.0156,29.0625 Q226.5313,29.6719 224.7031,29.6719 Q221.9844,29.6719 220.5313,27.9375 Q219.0781,26.1875 219.0781,23.0781 Q219.0781,20.0781 220.6563,18.2969 Q222.2344,16.5 224.9531,16.5 Q226.8594,16.5 228.5938,17.4219 L227.6406,19.3281 Q226.1406,18.5469 224.9531,18.5469 Q223.3438,18.5469 222.3594,19.7656 Q221.3906,20.9688 221.3906,23.0938 Q221.3906,25.3438 222.2969,26.4844 Q223.2188,27.625 224.9531,27.625 Q225.9844,27.625 228.0156,27.0313 Z " fill="#000000"/><text fill="#000000" font-family="sans-serif" font-size="14" lengthAdjust="spacing" textLength="32" x="238.5" y="27.8467">User</text><line style="stroke:#181818;stroke-width:0.5;" x1="210.5" x2="272.5" y1="39" y2="39"/><line style="stroke:#181818;stroke-width:0.5;" x1="210.5" x2="272.5" y1="47" y2="47"/></g><!--reverse link Instrument Profile to Warranty Modification Log--><g id="link_Instrument Profile_Warranty Modification Log"><path codeLine="1" d="M77.25,68.44 C76.61,79.43 77.18,91.39 80.5,102 C83.67,112.12 88.05,122.13 93.14,131.79 " fill="none" id="Instrument Profile-backto-Warranty Modification Log" style="stroke:#181818;stroke-width:1.0;"/><polygon fill="#181818" points="78.6,55.21,74.0143,60.7752,77.3877,67.1486,81.9734,61.5834,78.6,55.21" style="stroke:#181818;stroke-width:1.0;"/><text fill="#000000" font-family="sans-serif" font-size="13" lengthAdjust="spacing" textLength="116" x="81.5" y="98.0669">instrument_profile</text></g><!--reverse link User to Warranty Modification Log--><g id="link_User_Warranty Modification Log"><path codeLine="2" d="M226.71,67.19 C218.99,85.57 209.16,108.96 199.53,131.88 " fill="none" id="User-backto-Warranty Modification Log" style="stroke:#181818;stroke-width:1.0;"/><polygon fill="#181818" points="231.81,55.05,225.7962,59.0292,227.1563,66.1109,233.1701,62.1317,231.81,55.05" style="stroke:#181818;stroke-width:1.0;"/><text fill="#000000" font-family="sans-serif" font-size="13" lengthAdjust="spacing" textLength="77" x="218.5" y="98.0669">modified_by</text></g><!--SRC=[ZOzD2y8m38Rl_HMXtWIF8dZp0q6Ou4KybhXcKjnIQIConFzkju4C7U8fv7a_GlIMeuHRHIom3xvm9MaOJoQWZnW2ijImyzOLBaTndY7pPmrpSE-KkNOffG-HmZ_PgcLapQbMUOan_lIFDjFLSZ63XuA1gwakStn9Mg_r4tPrng8q_dKQuYfAiY-jYO91-bhYJFT1tlY9xO3xcmR2c7veTrJF5m00]--></g></svg>