<?xml version="1.0" encoding="us-ascii" standalone="no"?><svg xmlns="http://www.w3.org/2000/svg" xmlns:xlink="http://www.w3.org/1999/xlink" contentStyleType="text/css" height="219px" preserveAspectRatio="none" style="width:196px;height:219px;background:#FFFFFF;" version="1.1" viewBox="0 0 196 219" width="196px" zoomAndPan="magnify"><defs/><g><!--class Pad Condition--><g id="elem_Pad Condition"><rect fill="#F1F1F1" height="48" id="Pad Condition" rx="2.5" ry="2.5" style="stroke:#181818;stroke-width:0.5;" width="128" x="27" y="7"/><ellipse cx="42" cy="23" fill="#ADD1B2" rx="11" ry="11" style="stroke:#181818;stroke-width:1.0;"/><path d="M45.5156,27.0313 L45.5156,29.0625 Q44.0313,29.6719 42.2031,29.6719 Q39.4844,29.6719 38.0313,27.9375 Q36.5781,26.1875 36.5781,23.0781 Q36.5781,20.0781 38.1563,18.2969 Q39.7344,16.5 42.4531,16.5 Q44.3594,16.5 46.0938,17.4219 L45.1406,19.3281 Q43.6406,18.5469 42.4531,18.5469 Q40.8438,18.5469 39.8594,19.7656 Q38.8906,20.9688 38.8906,23.0938 Q38.8906,25.3438 39.7969,26.4844 Q40.7188,27.625 42.4531,27.625 Q43.4844,27.625 45.5156,27.0313 Z " fill="#000000"/><text fill="#000000" font-family="sans-serif" font-size="14" lengthAdjust="spacing" textLength="96" x="56" y="27.8467">Pad Condition</text><line style="stroke:#181818;stroke-width:0.5;" x1="28" x2="154" y1="39" y2="39"/><line style="stroke:#181818;stroke-width:0.5;" x1="28" x2="154" y1="47" y2="47"/></g><!--class Repair Log--><g id="elem_Repair Log"><rect codeLine="2" fill="#F5CBA7" height="80.5938" id="Repair Log" rx="2.5" ry="2.5" style="stroke:#181818;stroke-width:0.5;" width="168" x="7" y="132"/><ellipse cx="50.35" cy="148" fill="#ADD1B2" rx="11" ry="11" style="stroke:#181818;stroke-width:1.0;"/><path d="M53.8656,152.0313 L53.8656,154.0625 Q52.3813,154.6719 50.5531,154.6719 Q47.8344,154.6719 46.3813,152.9375 Q44.9281,151.1875 44.9281,148.0781 Q44.9281,145.0781 46.5063,143.2969 Q48.0844,141.5 50.8031,141.5 Q52.7094,141.5 54.4438,142.4219 L53.4906,144.3281 Q51.9906,143.5469 50.8031,143.5469 Q49.1938,143.5469 48.2094,144.7656 Q47.2406,145.9688 47.2406,148.0938 Q47.2406,150.3438 48.1469,151.4844 Q49.0688,152.625 50.8031,152.625 Q51.8344,152.625 53.8656,152.0313 Z " fill="#000000"/><text fill="#000000" font-family="sans-serif" font-size="14" lengthAdjust="spacing" textLength="73" x="70.65" y="152.8467">Repair Log</text><line style="stroke:#181818;stroke-width:0.5;" x1="8" x2="174" y1="164" y2="164"/><text fill="#000000" font-family="sans-serif" font-size="14" lengthAdjust="spacing" textLength="156" x="13" y="180.9951">pad_conditions : Table</text><text fill="#000000" font-family="sans-serif" font-size="14" lengthAdjust="spacing" textLength="151" x="13" y="197.292">pad_map_view : HTML</text><line style="stroke:#181818;stroke-width:0.5;" x1="8" x2="174" y1="204.5938" y2="204.5938"/></g><!--reverse link Pad Condition to Repair Log--><g id="link_Pad Condition_Repair Log"><path codeLine="1" d="M91,68.29 C91,87.76 91,111.79 91,131.77 " fill="none" id="Pad Condition-backto-Repair Log" style="stroke:#181818;stroke-width:1.0;"/><polygon fill="#181818" points="91,55.04,87,61.04,91,67.04,95,61.04,91,55.04" style="stroke:#181818;stroke-width:1.0;"/><text fill="#000000" font-family="sans-serif" font-size="13" lengthAdjust="spacing" textLength="96" x="92" y="98.0669">pad_conditions</text></g><!--SRC=[Kmf8J55mpizBoIp9pCzJKj3IrLLG2aejICmiKl39JrTIi58eI4o9JuQfAEPApaaiBaPLe-ncwkpaQAvGpQM0fXgeFIGnAISLAf6RM11VbfbQ3XJs2F7ruQe50000]--></g></svg>