<?xml version="1.0" encoding="us-ascii" standalone="no"?><svg xmlns="http://www.w3.org/2000/svg" xmlns:xlink="http://www.w3.org/1999/xlink" contentStyleType="text/css" height="268px" preserveAspectRatio="none" style="width:469px;height:268px;background:#FFFFFF;" version="1.1" viewBox="0 0 469 268" width="469px" zoomAndPan="magnify"><defs/><g><!--class Instrument Profile--><g id="elem_Instrument Profile"><rect fill="#F1F1F1" height="48" id="Instrument Profile" rx="2.5" ry="2.5" style="stroke:#181818;stroke-width:0.5;" width="153" x="7" y="7"/><ellipse cx="22" cy="23" fill="#ADD1B2" rx="11" ry="11" style="stroke:#181818;stroke-width:1.0;"/><path d="M25.5156,27.0313 L25.5156,29.0625 Q24.0313,29.6719 22.2031,29.6719 Q19.4844,29.6719 18.0313,27.9375 Q16.5781,26.1875 16.5781,23.0781 Q16.5781,20.0781 18.1563,18.2969 Q19.7344,16.5 22.4531,16.5 Q24.3594,16.5 26.0938,17.4219 L25.1406,19.3281 Q23.6406,18.5469 22.4531,18.5469 Q20.8438,18.5469 19.8594,19.7656 Q18.8906,20.9688 18.8906,23.0938 Q18.8906,25.3438 19.7969,26.4844 Q20.7188,27.625 22.4531,27.625 Q23.4844,27.625 25.5156,27.0313 Z " fill="#000000"/><text fill="#000000" font-family="sans-serif" font-size="14" lengthAdjust="spacing" textLength="121" x="36" y="27.8467">Instrument Profile</text><line style="stroke:#181818;stroke-width:0.5;" x1="8" x2="159" y1="39" y2="39"/><line style="stroke:#181818;stroke-width:0.5;" x1="8" x2="159" y1="47" y2="47"/></g><!--class Measurement Session--><g id="elem_Measurement Session"><rect codeLine="4" fill="#F5CBA7" height="129.4844" id="Measurement Session" rx="2.5" ry="2.5" style="stroke:#181818;stroke-width:0.5;" width="187" x="134" y="132"/><ellipse cx="149" cy="148" fill="#ADD1B2" rx="11" ry="11" style="stroke:#181818;stroke-width:1.0;"/><path d="M152.5156,152.0313 L152.5156,154.0625 Q151.0313,154.6719 149.2031,154.6719 Q146.4844,154.6719 145.0313,152.9375 Q143.5781,151.1875 143.5781,148.0781 Q143.5781,145.0781 145.1563,143.2969 Q146.7344,141.5 149.4531,141.5 Q151.3594,141.5 153.0938,142.4219 L152.1406,144.3281 Q150.6406,143.5469 149.4531,143.5469 Q147.8438,143.5469 146.8594,144.7656 Q145.8906,145.9688 145.8906,148.0938 Q145.8906,150.3438 146.7969,151.4844 Q147.7188,152.625 149.4531,152.625 Q150.4844,152.625 152.5156,152.0313 Z " fill="#000000"/><text fill="#000000" font-family="sans-serif" font-size="14" lengthAdjust="spacing" textLength="155" x="163" y="152.8467">Measurement Session</text><line style="stroke:#181818;stroke-width:0.5;" x1="135" x2="320" y1="164" y2="164"/><text fill="#000000" font-family="sans-serif" font-size="14" lengthAdjust="spacing" textLength="115" x="140" y="180.9951">instrument : Link</text><text fill="#000000" font-family="sans-serif" font-size="14" lengthAdjust="spacing" textLength="111" x="140" y="197.292">technician : Link</text><text fill="#000000" font-family="sans-serif" font-size="14" lengthAdjust="spacing" textLength="77" x="140" y="213.5889">date : Date</text><text fill="#000000" font-family="sans-serif" font-size="14" lengthAdjust="spacing" textLength="83" x="140" y="229.8857">notes : Text</text><text fill="#000000" font-family="sans-serif" font-size="14" lengthAdjust="spacing" textLength="156" x="140" y="246.1826">measurements : Table</text><line style="stroke:#181818;stroke-width:0.5;" x1="135" x2="320" y1="253.4844" y2="253.4844"/></g><!--class User--><g id="elem_User"><rect fill="#F1F1F1" height="48" id="User" rx="2.5" ry="2.5" style="stroke:#181818;stroke-width:0.5;" width="64" x="195.5" y="7"/><ellipse cx="210.5" cy="23" fill="#ADD1B2" rx="11" ry="11" style="stroke:#181818;stroke-width:1.0;"/><path d="M214.0156,27.0313 L214.0156,29.0625 Q212.5313,29.6719 210.7031,29.6719 Q207.9844,29.6719 206.5313,27.9375 Q205.0781,26.1875 205.0781,23.0781 Q205.0781,20.0781 206.6563,18.2969 Q208.2344,16.5 210.9531,16.5 Q212.8594,16.5 214.5938,17.4219 L213.6406,19.3281 Q212.1406,18.5469 210.9531,18.5469 Q209.3438,18.5469 208.3594,19.7656 Q207.3906,20.9688 207.3906,23.0938 Q207.3906,25.3438 208.2969,26.4844 Q209.2188,27.625 210.9531,27.625 Q211.9844,27.625 214.0156,27.0313 Z " fill="#000000"/><text fill="#000000" font-family="sans-serif" font-size="14" lengthAdjust="spacing" textLength="32" x="224.5" y="27.8467">User</text><line style="stroke:#181818;stroke-width:0.5;" x1="196.5" x2="258.5" y1="39" y2="39"/><line style="stroke:#181818;stroke-width:0.5;" x1="196.5" x2="258.5" y1="47" y2="47"/></g><!--class Measurement Entry--><g id="elem_Measurement Entry"><rect fill="#F1F1F1" height="48" id="Measurement Entry" rx="2.5" ry="2.5" style="stroke:#181818;stroke-width:0.5;" width="167" x="295" y="7"/><ellipse cx="310" cy="23" fill="#ADD1B2" rx="11" ry="11" style="stroke:#181818;stroke-width:1.0;"/><path d="M313.5156,27.0313 L313.5156,29.0625 Q312.0313,29.6719 310.2031,29.6719 Q307.4844,29.6719 306.0313,27.9375 Q304.5781,26.1875 304.5781,23.0781 Q304.5781,20.0781 306.1563,18.2969 Q307.7344,16.5 310.4531,16.5 Q312.3594,16.5 314.0938,17.4219 L313.1406,19.3281 Q311.6406,18.5469 310.4531,18.5469 Q308.8438,18.5469 307.8594,19.7656 Q306.8906,20.9688 306.8906,23.0938 Q306.8906,25.3438 307.7969,26.4844 Q308.7188,27.625 310.4531,27.625 Q311.4844,27.625 313.5156,27.0313 Z " fill="#000000"/><text fill="#000000" font-family="sans-serif" font-size="14" lengthAdjust="spacing" textLength="135" x="324" y="27.8467">Measurement Entry</text><line style="stroke:#181818;stroke-width:0.5;" x1="296" x2="461" y1="39" y2="39"/><line style="stroke:#181818;stroke-width:0.5;" x1="296" x2="461" y1="47" y2="47"/></g><!--reverse link Instrument Profile to Measurement Session--><g id="link_Instrument Profile_Measurement Session"><path codeLine="1" d="M112.44,64.85 C129.38,84.1 151.36,109.05 171.56,131.98 " fill="none" id="Instrument Profile-backto-Measurement Session" style="stroke:#181818;stroke-width:1.0;"/><polygon fill="#181818" points="103.83,55.08,104.7907,62.2268,111.7572,64.0888,110.7966,56.942,103.83,55.08" style="stroke:#181818;stroke-width:1.0;"/><text fill="#000000" font-family="sans-serif" font-size="13" lengthAdjust="spacing" textLength="70" x="144.5" y="98.0669">instrument</text></g><!--reverse link User to Measurement Session--><g id="link_User_Measurement Session"><path codeLine="2" d="M227.5,68.1 C227.5,86.85 227.5,110.32 227.5,131.98 " fill="none" id="User-backto-Measurement Session" style="stroke:#181818;stroke-width:1.0;"/><polygon fill="#181818" points="227.5,55.08,223.5,61.08,227.5,67.08,231.5,61.08,227.5,55.08" style="stroke:#181818;stroke-width:1.0;"/><text fill="#000000" font-family="sans-serif" font-size="13" lengthAdjust="spacing" textLength="65" x="228.5" y="98.0669">technician</text></g><!--reverse link Measurement Entry to Measurement Session--><g id="link_Measurement Entry_Measurement Session"><path codeLine="3" d="M348.16,64.85 C330.39,84.1 307.34,109.05 286.16,131.98 " fill="none" id="Measurement Entry-backto-Measurement Session" style="stroke:#181818;stroke-width:1.0;"/><polygon fill="#181818" points="357.19,55.08,350.1805,56.7731,349.0474,63.8946,356.0569,62.2015,357.19,55.08" style="stroke:#181818;stroke-width:1.0;"/><text fill="#000000" font-family="sans-serif" font-size="13" lengthAdjust="spacing" textLength="98" x="325.5" y="98.0669">measurements</text></g><!--SRC=[VOxB2W8n34Nt_OfGTy8iHN3d4mOK1FK3QerOxAJGP40H_ztemeuBPnNEoSt3riIIsmP9O9lJEKIqCAmgi1jqt6RyT7R8719Pc43uveqzCER-jA2_KF31aVc9B4dolN-qAPgDZuxvJtIm6irdqp4y37I-qmthG5TrvOVYJavGQQ55YP8WA-xn9ehTos_hZX7DymK0]--></g></svg>