<?xml version="1.0" encoding="us-ascii" standalone="no"?><svg xmlns="http://www.w3.org/2000/svg" xmlns:xlink="http://www.w3.org/1999/xlink" contentStyleType="text/css" height="235px" preserveAspectRatio="none" style="width:258px;height:235px;background:#FFFFFF;" version="1.1" viewBox="0 0 258 235" width="258px" zoomAndPan="magnify"><defs/><g><!--class Instrument Profile--><g id="elem_Instrument Profile"><rect fill="#F1F1F1" height="48" id="Instrument Profile" rx="2.5" ry="2.5" style="stroke:#181818;stroke-width:0.5;" width="153" x="51" y="7"/><ellipse cx="66" cy="23" fill="#ADD1B2" rx="11" ry="11" style="stroke:#181818;stroke-width:1.0;"/><path d="M69.5156,27.0313 L69.5156,29.0625 Q68.0313,29.6719 66.2031,29.6719 Q63.4844,29.6719 62.0313,27.9375 Q60.5781,26.1875 60.5781,23.0781 Q60.5781,20.0781 62.1563,18.2969 Q63.7344,16.5 66.4531,16.5 Q68.3594,16.5 70.0938,17.4219 L69.1406,19.3281 Q67.6406,18.5469 66.4531,18.5469 Q64.8438,18.5469 63.8594,19.7656 Q62.8906,20.9688 62.8906,23.0938 Q62.8906,25.3438 63.7969,26.4844 Q64.7188,27.625 66.4531,27.625 Q67.4844,27.625 69.5156,27.0313 Z " fill="#000000"/><text fill="#000000" font-family="sans-serif" font-size="14" lengthAdjust="spacing" textLength="121" x="80" y="27.8467">Instrument Profile</text><line style="stroke:#181818;stroke-width:0.5;" x1="52" x2="203" y1="39" y2="39"/><line style="stroke:#181818;stroke-width:0.5;" x1="52" x2="203" y1="47" y2="47"/></g><!--class Related Instrument Interaction--><g id="elem_Related Instrument Interaction"><rect codeLine="2" fill="#76D7C4" height="96.8906" id="Related Instrument Interaction" rx="2.5" ry="2.5" style="stroke:#181818;stroke-width:0.5;" width="241" x="7" y="132"/><ellipse cx="22" cy="148" fill="#ADD1B2" rx="11" ry="11" style="stroke:#181818;stroke-width:1.0;"/><path d="M25.5156,152.0313 L25.5156,154.0625 Q24.0313,154.6719 22.2031,154.6719 Q19.4844,154.6719 18.0313,152.9375 Q16.5781,151.1875 16.5781,148.0781 Q16.5781,145.0781 18.1563,143.2969 Q19.7344,141.5 22.4531,141.5 Q24.3594,141.5 26.0938,142.4219 L25.1406,144.3281 Q23.6406,143.5469 22.4531,143.5469 Q20.8438,143.5469 19.8594,144.7656 Q18.8906,145.9688 18.8906,148.0938 Q18.8906,150.3438 19.7969,151.4844 Q20.7188,152.625 22.4531,152.625 Q23.4844,152.625 25.5156,152.0313 Z " fill="#000000"/><text fill="#000000" font-family="sans-serif" font-size="14" lengthAdjust="spacing" textLength="209" x="36" y="152.8467">Related Instrument Interaction</text><line style="stroke:#181818;stroke-width:0.5;" x1="8" x2="247" y1="164" y2="164"/><text fill="#000000" font-family="sans-serif" font-size="14" lengthAdjust="spacing" textLength="170" x="13" y="180.9951">related_instrument : Link</text><text fill="#000000" font-family="sans-serif" font-size="14" lengthAdjust="spacing" textLength="166" x="13" y="197.292">interaction_type : Select</text><text fill="#000000" font-family="sans-serif" font-size="14" lengthAdjust="spacing" textLength="123" x="13" y="213.5889">notes : Small Text</text><line style="stroke:#181818;stroke-width:0.5;" x1="8" x2="247" y1="220.8906" y2="220.8906"/></g><!--reverse link Instrument Profile to Related Instrument Interaction--><g id="link_Instrument Profile_Related Instrument Interaction"><path codeLine="1" d="M127.5,68.11 C127.5,87.32 127.5,111.2 127.5,131.92 " fill="none" id="Instrument Profile-backto-Related Instrument Interaction" style="stroke:#181818;stroke-width:1.0;"/><polygon fill="#181818" points="127.5,55.05,123.5,61.05,127.5,67.05,131.5,61.05,127.5,55.05" style="stroke:#181818;stroke-width:1.0;"/><text fill="#000000" font-family="sans-serif" font-size="13" lengthAdjust="spacing" textLength="122" x="128.5" y="98.0669">related_instrument</text></g><!--SRC=[XOon2W8n40NxVCKIE-4wyS1McmCBEUsF49-mkBUHP0L5_7SZWbe8jczcdk-qM3wFKADDJWSMU9es3VaU4Wnx-X8wDUGGZPDwMb1-6GE_3HSbbFA_dRJpLRkSqStHZvTwlMOzLiQVQB3h2PLi8OXMcIP3UGvZ4A4TBkRk3m00]--></g></svg>