<?xml version="1.0" encoding="us-ascii" standalone="no"?><svg xmlns="http://www.w3.org/2000/svg" xmlns:xlink="http://www.w3.org/1999/xlink" contentStyleType="text/css" height="252px" preserveAspectRatio="none" style="width:165px;height:252px;background:#FFFFFF;" version="1.1" viewBox="0 0 165 252" width="165px" zoomAndPan="magnify"><defs/><g><!--class Item--><g id="elem_Item"><rect fill="#F1F1F1" height="48" id="Item" rx="2.5" ry="2.5" style="stroke:#181818;stroke-width:0.5;" width="62" x="51.5" y="7"/><ellipse cx="66.5" cy="23" fill="#ADD1B2" rx="11" ry="11" style="stroke:#181818;stroke-width:1.0;"/><path d="M70.0156,27.0313 L70.0156,29.0625 Q68.5313,29.6719 66.7031,29.6719 Q63.9844,29.6719 62.5313,27.9375 Q61.0781,26.1875 61.0781,23.0781 Q61.0781,20.0781 62.6563,18.2969 Q64.2344,16.5 66.9531,16.5 Q68.8594,16.5 70.5938,17.4219 L69.6406,19.3281 Q68.1406,18.5469 66.9531,18.5469 Q65.3438,18.5469 64.3594,19.7656 Q63.3906,20.9688 63.3906,23.0938 Q63.3906,25.3438 64.2969,26.4844 Q65.2188,27.625 66.9531,27.625 Q67.9844,27.625 70.0156,27.0313 Z " fill="#000000"/><text fill="#000000" font-family="sans-serif" font-size="14" lengthAdjust="spacing" textLength="30" x="80.5" y="27.8467">Item</text><line style="stroke:#181818;stroke-width:0.5;" x1="52.5" x2="112.5" y1="39" y2="39"/><line style="stroke:#181818;stroke-width:0.5;" x1="52.5" x2="112.5" y1="47" y2="47"/></g><!--class Material Use Log--><g id="elem_Material Use Log"><rect codeLine="2" fill="#76D7C4" height="113.1875" id="Material Use Log" rx="2.5" ry="2.5" style="stroke:#181818;stroke-width:0.5;" width="151" x="7" y="132"/><ellipse cx="24.7" cy="148" fill="#ADD1B2" rx="11" ry="11" style="stroke:#181818;stroke-width:1.0;"/><path d="M28.2156,152.0313 L28.2156,154.0625 Q26.7313,154.6719 24.9031,154.6719 Q22.1844,154.6719 20.7313,152.9375 Q19.2781,151.1875 19.2781,148.0781 Q19.2781,145.0781 20.8563,143.2969 Q22.4344,141.5 25.1531,141.5 Q27.0594,141.5 28.7938,142.4219 L27.8406,144.3281 Q26.3406,143.5469 25.1531,143.5469 Q23.5438,143.5469 22.5594,144.7656 Q21.5906,145.9688 21.5906,148.0938 Q21.5906,150.3438 22.4969,151.4844 Q23.4188,152.625 25.1531,152.625 Q26.1844,152.625 28.2156,152.0313 Z " fill="#000000"/><text fill="#000000" font-family="sans-serif" font-size="14" lengthAdjust="spacing" textLength="113" x="39.3" y="152.8467">Material Use Log</text><line style="stroke:#181818;stroke-width:0.5;" x1="8" x2="157" y1="164" y2="164"/><text fill="#000000" font-family="sans-serif" font-size="14" lengthAdjust="spacing" textLength="112" x="13" y="180.9951">item_code : Link</text><text fill="#000000" font-family="sans-serif" font-size="14" lengthAdjust="spacing" textLength="67" x="13" y="197.292">qty : Float</text><text fill="#000000" font-family="sans-serif" font-size="14" lengthAdjust="spacing" textLength="105" x="13" y="213.5889">used_on : Data</text><text fill="#000000" font-family="sans-serif" font-size="14" lengthAdjust="spacing" textLength="139" x="13" y="229.8857">remarks : Small Text</text><line style="stroke:#181818;stroke-width:0.5;" x1="8" x2="157" y1="237.1875" y2="237.1875"/></g><!--reverse link Item to Material Use Log--><g id="link_Item_Material Use Log"><path codeLine="1" d="M82.5,68.39 C82.5,87.25 82.5,110.68 82.5,131.75 " fill="none" id="Item-backto-Material Use Log" style="stroke:#181818;stroke-width:1.0;"/><polygon fill="#181818" points="82.5,55.28,78.5,61.28,82.5,67.28,86.5,61.28,82.5,55.28" style="stroke:#181818;stroke-width:1.0;"/><text fill="#000000" font-family="sans-serif" font-size="13" lengthAdjust="spacing" textLength="67" x="83.5" y="98.0669">item_code</text></g><!--SRC=[ROkn2i9040Nx-uh7sGdfn82jGH1YfTPXIHOvifV3snKKyT_TpiPovisBH-CSiMuQn1CPrqI2gpBwSelO8VayZ6NYC0gf_ejMxRPhznky0twvN_kqpAxkzd8uI25pUYXFGrdST6JaedAcEgkBSoOHNFXfuVC5]--></g></svg>