<?xml version="1.0" encoding="us-ascii" standalone="no"?><svg xmlns="http://www.w3.org/2000/svg" xmlns:xlink="http://www.w3.org/1999/xlink" contentStyleType="text/css" height="101px" preserveAspectRatio="none" style="width:189px;height:101px;background:#FFFFFF;" version="1.1" viewBox="0 0 189 101" width="189px" zoomAndPan="magnify"><defs/><g><!--class Service Logs--><g id="elem_Service Logs"><rect codeLine="1" fill="#F5CBA7" height="80.5938" id="Service Logs" rx="2.5" ry="2.5" style="stroke:#181818;stroke-width:0.5;" width="168" x="7" y="7"/><ellipse cx="44.05" cy="23" fill="#ADD1B2" rx="11" ry="11" style="stroke:#181818;stroke-width:1.0;"/><path d="M47.5656,27.0313 L47.5656,29.0625 Q46.0813,29.6719 44.2531,29.6719 Q41.5344,29.6719 40.0813,27.9375 Q38.6281,26.1875 38.6281,23.0781 Q38.6281,20.0781 40.2063,18.2969 Q41.7844,16.5 44.5031,16.5 Q46.4094,16.5 48.1438,17.4219 L47.1906,19.3281 Q45.6906,18.5469 44.5031,18.5469 Q42.8938,18.5469 41.9094,19.7656 Q40.9406,20.9688 40.9406,23.0938 Q40.9406,25.3438 41.8469,26.4844 Q42.7688,27.625 44.5031,27.625 Q45.5344,27.625 47.5656,27.0313 Z " fill="#000000"/><text fill="#000000" font-family="sans-serif" font-size="14" lengthAdjust="spacing" textLength="87" x="62.95" y="27.8467">Service Logs</text><line style="stroke:#181818;stroke-width:0.5;" x1="8" x2="174" y1="39" y2="39"/><text fill="#000000" font-family="sans-serif" font-size="14" lengthAdjust="spacing" textLength="156" x="13" y="55.9951">log_details : Small Text</text><text fill="#000000" font-family="sans-serif" font-size="14" lengthAdjust="spacing" textLength="105" x="13" y="72.292">log_date : Date</text><line style="stroke:#181818;stroke-width:0.5;" x1="8" x2="174" y1="79.5938" y2="79.5938"/></g><!--SRC=[Iyv9B2vMK0fEBIhBJ4vLyCbFBrPIK7OpTNPoD5Uevb9GoCbFZqz9BKdCp2bMi588patCoL48IQqeWKabbgG2nLs055Sj0000]--></g></svg>