<?xml version="1.0" encoding="us-ascii" standalone="no"?><svg xmlns="http://www.w3.org/2000/svg" xmlns:xlink="http://www.w3.org/1999/xlink" contentStyleType="text/css" height="268px" preserveAspectRatio="none" style="width:251px;height:268px;background:#FFFFFF;" version="1.1" viewBox="0 0 251 268" width="251px" zoomAndPan="magnify"><defs/><g><!--class User--><g id="elem_User"><rect fill="#F1F1F1" height="48" id="User" rx="2.5" ry="2.5" style="stroke:#181818;stroke-width:0.5;" width="64" x="7" y="7"/><ellipse cx="22" cy="23" fill="#ADD1B2" rx="11" ry="11" style="stroke:#181818;stroke-width:1.0;"/><path d="M25.5156,27.0313 L25.5156,29.0625 Q24.0313,29.6719 22.2031,29.6719 Q19.4844,29.6719 18.0313,27.9375 Q16.5781,26.1875 16.5781,23.0781 Q16.5781,20.0781 18.1563,18.2969 Q19.7344,16.5 22.4531,16.5 Q24.3594,16.5 26.0938,17.4219 L25.1406,19.3281 Q23.6406,18.5469 22.4531,18.5469 Q20.8438,18.5469 19.8594,19.7656 Q18.8906,20.9688 18.8906,23.0938 Q18.8906,25.3438 19.7969,26.4844 Q20.7188,27.625 22.4531,27.625 Q23.4844,27.625 25.5156,27.0313 Z " fill="#000000"/><text fill="#000000" font-family="sans-serif" font-size="14" lengthAdjust="spacing" textLength="32" x="36" y="27.8467">User</text><line style="stroke:#181818;stroke-width:0.5;" x1="8" x2="70" y1="39" y2="39"/><line style="stroke:#181818;stroke-width:0.5;" x1="8" x2="70" y1="47" y2="47"/></g><!--class Service Task--><g id="elem_Service Task"><rect codeLine="3" fill="#E59866" height="129.4844" id="Service Task" rx="2.5" ry="2.5" style="stroke:#181818;stroke-width:0.5;" width="169" x="21.5" y="132"/><ellipse cx="59" cy="148" fill="#ADD1B2" rx="11" ry="11" style="stroke:#181818;stroke-width:1.0;"/><path d="M62.5156,152.0313 L62.5156,154.0625 Q61.0313,154.6719 59.2031,154.6719 Q56.4844,154.6719 55.0313,152.9375 Q53.5781,151.1875 53.5781,148.0781 Q53.5781,145.0781 55.1563,143.2969 Q56.7344,141.5 59.4531,141.5 Q61.3594,141.5 63.0938,142.4219 L62.1406,144.3281 Q60.6406,143.5469 59.4531,143.5469 Q57.8438,143.5469 56.8594,144.7656 Q55.8906,145.9688 55.8906,148.0938 Q55.8906,150.3438 56.7969,151.4844 Q57.7188,152.625 59.4531,152.625 Q60.4844,152.625 62.5156,152.0313 Z " fill="#000000"/><text fill="#000000" font-family="sans-serif" font-size="14" lengthAdjust="spacing" textLength="87" x="78" y="152.8467">Service Task</text><line style="stroke:#181818;stroke-width:0.5;" x1="22.5" x2="189.5" y1="164" y2="164"/><text fill="#000000" font-family="sans-serif" font-size="14" lengthAdjust="spacing" textLength="120" x="27.5" y="180.9951">task_name : Data</text><text fill="#000000" font-family="sans-serif" font-size="14" lengthAdjust="spacing" textLength="120" x="27.5" y="197.292">description : Text</text><text fill="#000000" font-family="sans-serif" font-size="14" lengthAdjust="spacing" textLength="157" x="27.5" y="213.5889">scheduled_date : Date</text><text fill="#000000" font-family="sans-serif" font-size="14" lengthAdjust="spacing" textLength="124" x="27.5" y="229.8857">assigned_to : Link</text><text fill="#000000" font-family="sans-serif" font-size="14" lengthAdjust="spacing" textLength="142" x="27.5" y="246.1826">workflow_state : Link</text><line style="stroke:#181818;stroke-width:0.5;" x1="22.5" x2="189.5" y1="253.4844" y2="253.4844"/></g><!--class Workflow State--><g id="elem_Workflow State"><rect fill="#F1F1F1" height="48" id="Workflow State" rx="2.5" ry="2.5" style="stroke:#181818;stroke-width:0.5;" width="134" x="106" y="7"/><ellipse cx="121" cy="23" fill="#ADD1B2" rx="11" ry="11" style="stroke:#181818;stroke-width:1.0;"/><path d="M124.5156,27.0313 L124.5156,29.0625 Q123.0313,29.6719 121.2031,29.6719 Q118.4844,29.6719 117.0313,27.9375 Q115.5781,26.1875 115.5781,23.0781 Q115.5781,20.0781 117.1563,18.2969 Q118.7344,16.5 121.4531,16.5 Q123.3594,16.5 125.0938,17.4219 L124.1406,19.3281 Q122.6406,18.5469 121.4531,18.5469 Q119.8438,18.5469 118.8594,19.7656 Q117.8906,20.9688 117.8906,23.0938 Q117.8906,25.3438 118.7969,26.4844 Q119.7188,27.625 121.4531,27.625 Q122.4844,27.625 124.5156,27.0313 Z " fill="#000000"/><text fill="#000000" font-family="sans-serif" font-size="14" lengthAdjust="spacing" textLength="102" x="135" y="27.8467">Workflow State</text><line style="stroke:#181818;stroke-width:0.5;" x1="107" x2="239" y1="39" y2="39"/><line style="stroke:#181818;stroke-width:0.5;" x1="107" x2="239" y1="47" y2="47"/></g><!--reverse link User to Service Task--><g id="link_User_Service Task"><path codeLine="1" d="M42.7,68.47 C44.49,79.47 47.13,91.42 51,102 C54.66,111.99 59.38,122.13 64.52,131.86 " fill="none" id="User-backto-Service Task" style="stroke:#181818;stroke-width:1.0;"/><polygon fill="#181818" points="40.86,55.24,37.7215,61.7323,42.5072,67.1264,45.6457,60.6341,40.86,55.24" style="stroke:#181818;stroke-width:1.0;"/><text fill="#000000" font-family="sans-serif" font-size="13" lengthAdjust="spacing" textLength="77" x="52" y="98.0669">assigned_to</text></g><!--reverse link Workflow State to Service Task--><g id="link_Workflow State_Service Task"><path codeLine="2" d="M158.54,67.28 C150.81,86.16 141.04,110 132.03,131.98 " fill="none" id="Workflow State-backto-Service Task" style="stroke:#181818;stroke-width:1.0;"/><polygon fill="#181818" points="163.54,55.08,157.5638,59.1154,158.9902,66.184,164.9665,62.1486,163.54,55.08" style="stroke:#181818;stroke-width:1.0;"/><text fill="#000000" font-family="sans-serif" font-size="13" lengthAdjust="spacing" textLength="93" x="150" y="98.0669">workflow_state</text></g><!--SRC=[TSwn2W8n40JGFb-nn4wuqaEjjREx4yiGabL3OYBPrHF4VtT51HLi7pF3w3LXrJ1k6j0TrdDm2Bsbg64EbYZiCdh3HUbDgN6RoW0TMyO_ZU4LClG8APTauZSrMavcqxQ5gm9W4PFj0QMxi6o5F9AhuSYXPC4UBon8Re_-bEIAbzrd6CK_7WgkGew2toVUVhi3]--></g></svg>