<?xml version="1.0" encoding="us-ascii" standalone="no"?><svg xmlns="http://www.w3.org/2000/svg" xmlns:xlink="http://www.w3.org/1999/xlink" contentStyleType="text/css" height="150px" preserveAspectRatio="none" style="width:222px;height:150px;background:#FFFFFF;" version="1.1" viewBox="0 0 222 150" width="222px" zoomAndPan="magnify"><defs/><g><!--class Clarinet Setup Operation--><g id="elem_Clarinet Setup Operation"><rect codeLine="1" fill="#F9E79F" height="129.4844" id="Clarinet Setup Operation" rx="2.5" ry="2.5" style="stroke:#181818;stroke-width:0.5;" width="201" x="7" y="7"/><ellipse cx="22" cy="23" fill="#ADD1B2" rx="11" ry="11" style="stroke:#181818;stroke-width:1.0;"/><path d="M25.5156,27.0313 L25.5156,29.0625 Q24.0313,29.6719 22.2031,29.6719 Q19.4844,29.6719 18.0313,27.9375 Q16.5781,26.1875 16.5781,23.0781 Q16.5781,20.0781 18.1563,18.2969 Q19.7344,16.5 22.4531,16.5 Q24.3594,16.5 26.0938,17.4219 L25.1406,19.3281 Q23.6406,18.5469 22.4531,18.5469 Q20.8438,18.5469 19.8594,19.7656 Q18.8906,20.9688 18.8906,23.0938 Q18.8906,25.3438 19.7969,26.4844 Q20.7188,27.625 22.4531,27.625 Q23.4844,27.625 25.5156,27.0313 Z " fill="#000000"/><text fill="#000000" font-family="sans-serif" font-size="14" lengthAdjust="spacing" textLength="169" x="36" y="27.8467">Clarinet Setup Operation</text><line style="stroke:#181818;stroke-width:0.5;" x1="8" x2="207" y1="39" y2="39"/><text fill="#000000" font-family="sans-serif" font-size="14" lengthAdjust="spacing" textLength="159" x="13" y="55.9951">operation_type : Select</text><text fill="#000000" font-family="sans-serif" font-size="14" lengthAdjust="spacing" textLength="107" x="13" y="72.292">section : Select</text><text fill="#000000" font-family="sans-serif" font-size="14" lengthAdjust="spacing" textLength="150" x="13" y="88.5889">component_ref : Data</text><text fill="#000000" font-family="sans-serif" font-size="14" lengthAdjust="spacing" textLength="88" x="13" y="104.8857">details : Text</text><text fill="#000000" font-family="sans-serif" font-size="14" lengthAdjust="spacing" textLength="131" x="13" y="121.1826">completed : Check</text><line style="stroke:#181818;stroke-width:0.5;" x1="8" x2="207" y1="128.4844" y2="128.4844"/></g><!--SRC=[JSgn2i9048JXFa-nn8UGs4RJMcWVbik8X-lTSJS1HNntjmbO3Npp1zFMf1zDQqoWNC2roBcWAcDElUocuRGV9lbq8ddZcUy2ENXj2FId-RZ_KyZFaXCIvugR7qUbEY-WHciELxospa0iJkCTuT5zVm00]--></g></svg>