<?xml version="1.0" encoding="us-ascii" standalone="no"?><svg xmlns="http://www.w3.org/2000/svg" xmlns:xlink="http://www.w3.org/1999/xlink" contentStyleType="text/css" height="252px" preserveAspectRatio="none" style="width:181px;height:252px;background:#FFFFFF;" version="1.1" viewBox="0 0 181 252" width="181px" zoomAndPan="magnify"><defs/><g><!--class Item--><g id="elem_Item"><rect fill="#F1F1F1" height="48" id="Item" rx="2.5" ry="2.5" style="stroke:#181818;stroke-width:0.5;" width="62" x="59.5" y="7"/><ellipse cx="74.5" cy="23" fill="#ADD1B2" rx="11" ry="11" style="stroke:#181818;stroke-width:1.0;"/><path d="M78.0156,27.0313 L78.0156,29.0625 Q76.5313,29.6719 74.7031,29.6719 Q71.9844,29.6719 70.5313,27.9375 Q69.0781,26.1875 69.0781,23.0781 Q69.0781,20.0781 70.6563,18.2969 Q72.2344,16.5 74.9531,16.5 Q76.8594,16.5 78.5938,17.4219 L77.6406,19.3281 Q76.1406,18.5469 74.9531,18.5469 Q73.3438,18.5469 72.3594,19.7656 Q71.3906,20.9688 71.3906,23.0938 Q71.3906,25.3438 72.2969,26.4844 Q73.2188,27.625 74.9531,27.625 Q75.9844,27.625 78.0156,27.0313 Z " fill="#000000"/><text fill="#000000" font-family="sans-serif" font-size="14" lengthAdjust="spacing" textLength="30" x="88.5" y="27.8467">Item</text><line style="stroke:#181818;stroke-width:0.5;" x1="60.5" x2="120.5" y1="39" y2="39"/><line style="stroke:#181818;stroke-width:0.5;" x1="60.5" x2="120.5" y1="47" y2="47"/></g><!--class Barcode Scan Entry--><g id="elem_Barcode Scan Entry"><rect codeLine="2" fill="#76D7C4" height="113.1875" id="Barcode Scan Entry" rx="2.5" ry="2.5" style="stroke:#181818;stroke-width:0.5;" width="167" x="7" y="132"/><ellipse cx="22" cy="148" fill="#ADD1B2" rx="11" ry="11" style="stroke:#181818;stroke-width:1.0;"/><path d="M25.5156,152.0313 L25.5156,154.0625 Q24.0313,154.6719 22.2031,154.6719 Q19.4844,154.6719 18.0313,152.9375 Q16.5781,151.1875 16.5781,148.0781 Q16.5781,145.0781 18.1563,143.2969 Q19.7344,141.5 22.4531,141.5 Q24.3594,141.5 26.0938,142.4219 L25.1406,144.3281 Q23.6406,143.5469 22.4531,143.5469 Q20.8438,143.5469 19.8594,144.7656 Q18.8906,145.9688 18.8906,148.0938 Q18.8906,150.3438 19.7969,151.4844 Q20.7188,152.625 22.4531,152.625 Q23.4844,152.625 25.5156,152.0313 Z " fill="#000000"/><text fill="#000000" font-family="sans-serif" font-size="14" lengthAdjust="spacing" textLength="135" x="36" y="152.8467">Barcode Scan Entry</text><line style="stroke:#181818;stroke-width:0.5;" x1="8" x2="173" y1="164" y2="164"/><text fill="#000000" font-family="sans-serif" font-size="14" lengthAdjust="spacing" textLength="102" x="13" y="180.9951">barcode : Data</text><text fill="#000000" font-family="sans-serif" font-size="14" lengthAdjust="spacing" textLength="118" x="13" y="197.292">linked_item : Link</text><text fill="#000000" font-family="sans-serif" font-size="14" lengthAdjust="spacing" textLength="146" x="13" y="213.5889">scan_time : Datetime</text><text fill="#000000" font-family="sans-serif" font-size="14" lengthAdjust="spacing" textLength="136" x="13" y="229.8857">context_note : Data</text><line style="stroke:#181818;stroke-width:0.5;" x1="8" x2="173" y1="237.1875" y2="237.1875"/></g><!--reverse link Item to Barcode Scan Entry--><g id="link_Item_Barcode Scan Entry"><path codeLine="1" d="M90.5,68.39 C90.5,87.25 90.5,110.68 90.5,131.75 " fill="none" id="Item-backto-Barcode Scan Entry" style="stroke:#181818;stroke-width:1.0;"/><polygon fill="#181818" points="90.5,55.28,86.5,61.28,90.5,67.28,94.5,61.28,90.5,55.28" style="stroke:#181818;stroke-width:1.0;"/><text fill="#000000" font-family="sans-serif" font-size="13" lengthAdjust="spacing" textLength="73" x="91.5" y="98.0669">linked_item</text></g><!--SRC=[K_8iISrLKj3IrLLGSaeiIivFILK8JaxCKt3DAocgL5AmKiZ9pCjEJOdF1AhZIiv9B2x6hb3PtCp5tDb4ePfBGI49Ac-bu99OaWWKG383AEW3v045Yu6wuqioSw7gKa5Ce71oVbv9QaL9V5v-2To4MW00]--></g></svg>