<?xml version="1.0" encoding="us-ascii" standalone="no"?><svg xmlns="http://www.w3.org/2000/svg" xmlns:xlink="http://www.w3.org/1999/xlink" contentStyleType="text/css" height="431px" preserveAspectRatio="none" style="width:450px;height:431px;background:#FFFFFF;" version="1.1" viewBox="0 0 450 431" width="450px" zoomAndPan="magnify"><defs/><g><!--class Client Profile--><g id="elem_Client Profile"><rect fill="#F1F1F1" height="48" id="Client Profile" rx="2.5" ry="2.5" style="stroke:#181818;stroke-width:0.5;" width="117" x="7" y="7"/><ellipse cx="22" cy="23" fill="#ADD1B2" rx="11" ry="11" style="stroke:#181818;stroke-width:1.0;"/><path d="M25.5156,27.0313 L25.5156,29.0625 Q24.0313,29.6719 22.2031,29.6719 Q19.4844,29.6719 18.0313,27.9375 Q16.5781,26.1875 16.5781,23.0781 Q16.5781,20.0781 18.1563,18.2969 Q19.7344,16.5 22.4531,16.5 Q24.3594,16.5 26.0938,17.4219 L25.1406,19.3281 Q23.6406,18.5469 22.4531,18.5469 Q20.8438,18.5469 19.8594,19.7656 Q18.8906,20.9688 18.8906,23.0938 Q18.8906,25.3438 19.7969,26.4844 Q20.7188,27.625 22.4531,27.625 Q23.4844,27.625 25.5156,27.0313 Z " fill="#000000"/><text fill="#000000" font-family="sans-serif" font-size="14" lengthAdjust="spacing" textLength="85" x="36" y="27.8467">Client Profile</text><line style="stroke:#181818;stroke-width:0.5;" x1="8" x2="123" y1="39" y2="39"/><line style="stroke:#181818;stroke-width:0.5;" x1="8" x2="123" y1="47" y2="47"/></g><!--class Player Profile--><g id="elem_Player Profile"><rect codeLine="4" fill="#76D7C4" height="292.4531" id="Player Profile" rx="2.5" ry="2.5" style="stroke:#181818;stroke-width:0.5;" width="274" x="50.5" y="132"/><ellipse cx="139.75" cy="148" fill="#ADD1B2" rx="11" ry="11" style="stroke:#181818;stroke-width:1.0;"/><path d="M143.2656,152.0313 L143.2656,154.0625 Q141.7813,154.6719 139.9531,154.6719 Q137.2344,154.6719 135.7813,152.9375 Q134.3281,151.1875 134.3281,148.0781 Q134.3281,145.0781 135.9063,143.2969 Q137.4844,141.5 140.2031,141.5 Q142.1094,141.5 143.8438,142.4219 L142.8906,144.3281 Q141.3906,143.5469 140.2031,143.5469 Q138.5938,143.5469 137.6094,144.7656 Q136.6406,145.9688 136.6406,148.0938 Q136.6406,150.3438 137.5469,151.4844 Q138.4688,152.625 140.2031,152.625 Q141.2344,152.625 143.2656,152.0313 Z " fill="#000000"/><text fill="#000000" font-family="sans-serif" font-size="14" lengthAdjust="spacing" textLength="87" x="160.25" y="152.8467">Player Profile</text><line style="stroke:#181818;stroke-width:0.5;" x1="51.5" x2="323.5" y1="164" y2="164"/><text fill="#000000" font-family="sans-serif" font-size="14" lengthAdjust="spacing" textLength="145" x="56.5" y="180.9951">naming_series : Data</text><text fill="#000000" font-family="sans-serif" font-size="14" lengthAdjust="spacing" textLength="126" x="56.5" y="197.292">client_profile : Link</text><text fill="#000000" font-family="sans-serif" font-size="14" lengthAdjust="spacing" textLength="132" x="56.5" y="213.5889">player_name : Data</text><text fill="#000000" font-family="sans-serif" font-size="14" lengthAdjust="spacing" textLength="135" x="56.5" y="229.8857">date_of_birth : Date</text><text fill="#000000" font-family="sans-serif" font-size="14" lengthAdjust="spacing" textLength="172" x="56.5" y="246.1826">primary_instrument : Link</text><text fill="#000000" font-family="sans-serif" font-size="14" lengthAdjust="spacing" textLength="262" x="56.5" y="262.4795">instrument_profiles : Table MultiSelect</text><text fill="#000000" font-family="sans-serif" font-size="14" lengthAdjust="spacing" textLength="199" x="56.5" y="278.7764">preferred_mouthpiece : Data</text><text fill="#000000" font-family="sans-serif" font-size="14" lengthAdjust="spacing" textLength="148" x="56.5" y="295.0732">preferred_reed : Data</text><text fill="#000000" font-family="sans-serif" font-size="14" lengthAdjust="spacing" textLength="215" x="56.5" y="311.3701">preferred_literature : Small Text</text><text fill="#000000" font-family="sans-serif" font-size="14" lengthAdjust="spacing" textLength="210" x="56.5" y="327.667">style_preferences : Text Editor</text><text fill="#000000" font-family="sans-serif" font-size="14" lengthAdjust="spacing" textLength="165" x="56.5" y="343.9639">tonal_goals : Text Editor</text><text fill="#000000" font-family="sans-serif" font-size="14" lengthAdjust="spacing" textLength="205" x="56.5" y="360.2607">technician_notes : Text Editor</text><text fill="#000000" font-family="sans-serif" font-size="14" lengthAdjust="spacing" textLength="132" x="56.5" y="376.5576">profile_status : Link</text><text fill="#000000" font-family="sans-serif" font-size="14" lengthAdjust="spacing" textLength="82" x="56.5" y="392.8545">route : Data</text><text fill="#000000" font-family="sans-serif" font-size="14" lengthAdjust="spacing" textLength="125" x="56.5" y="409.1514">published : Check</text><line style="stroke:#181818;stroke-width:0.5;" x1="51.5" x2="323.5" y1="416.4531" y2="416.4531"/></g><!--class Instrument Profile--><g id="elem_Instrument Profile"><rect fill="#F1F1F1" height="48" id="Instrument Profile" rx="2.5" ry="2.5" style="stroke:#181818;stroke-width:0.5;" width="153" x="219" y="7"/><ellipse cx="234" cy="23" fill="#ADD1B2" rx="11" ry="11" style="stroke:#181818;stroke-width:1.0;"/><path d="M237.5156,27.0313 L237.5156,29.0625 Q236.0313,29.6719 234.2031,29.6719 Q231.4844,29.6719 230.0313,27.9375 Q228.5781,26.1875 228.5781,23.0781 Q228.5781,20.0781 230.1563,18.2969 Q231.7344,16.5 234.4531,16.5 Q236.3594,16.5 238.0938,17.4219 L237.1406,19.3281 Q235.6406,18.5469 234.4531,18.5469 Q232.8438,18.5469 231.8594,19.7656 Q230.8906,20.9688 230.8906,23.0938 Q230.8906,25.3438 231.7969,26.4844 Q232.7188,27.625 234.4531,27.625 Q235.4844,27.625 237.5156,27.0313 Z " fill="#000000"/><text fill="#000000" font-family="sans-serif" font-size="14" lengthAdjust="spacing" textLength="121" x="248" y="27.8467">Instrument Profile</text><line style="stroke:#181818;stroke-width:0.5;" x1="220" x2="371" y1="39" y2="39"/><line style="stroke:#181818;stroke-width:0.5;" x1="220" x2="371" y1="47" y2="47"/></g><!--reverse link Client Profile to Player Profile--><g id="link_Client Profile_Player Profile"><path codeLine="1" d="M75.08,67.64 C78.52,78.82 82.74,91.09 87.5,102 C91.77,111.78 96.45,121.71 101.36,131.63 " fill="none" id="Client Profile-backto-Player Profile" style="stroke:#181818;stroke-width:1.0;"/><polygon fill="#181818" points="71.42,55.15,69.2679,62.0325,74.7932,66.6662,76.9453,59.7837,71.42,55.15" style="stroke:#181818;stroke-width:1.0;"/><text fill="#000000" font-family="sans-serif" font-size="13" lengthAdjust="spacing" textLength="80" x="88.5" y="98.0669">client_profile</text></g><!--reverse link Instrument Profile to Player Profile--><g id="link_Instrument Profile_Player Profile"><path codeLine="2" d="M207.72,61.39 C198.55,67.81 190.44,75.59 184.5,85 C175.52,99.24 170.2,115.33 167.44,131.99 " fill="none" id="Instrument Profile-backto-Player Profile" style="stroke:#181818;stroke-width:1.0;"/><polygon fill="#181818" points="218.9,54.47,211.693,54.2261,208.696,60.7849,215.903,61.0288,218.9,54.47" style="stroke:#181818;stroke-width:1.0;"/><text fill="#000000" font-family="sans-serif" font-size="13" lengthAdjust="spacing" textLength="126" x="185.5" y="98.0669">primary_instrument</text></g><!--reverse link Instrument Profile to Player Profile--><g id="link_Instrument Profile_Player Profile"><path codeLine="3" d="M314.72,67.47 C318.43,78.56 320.17,90.82 316.5,102 C313.17,112.13 309,122.15 304.23,131.97 " fill="none" id="Instrument Profile-backto-Player Profile-1" style="stroke:#181818;stroke-width:1.0;"/><polygon fill="#181818" points="309.65,55.11,308.2235,62.1786,314.1998,66.214,315.6262,59.1454,309.65,55.11" style="stroke:#181818;stroke-width:1.0;"/><text fill="#000000" font-family="sans-serif" font-size="13" lengthAdjust="spacing" textLength="123" x="319.5" y="98.0669">instrument_profiles</text></g><!--SRC=[bKzDIyD04BtdLopn9lGc5hoc7WGBXVQ-J3QJPkXaDynEm23-TpU9cafpqElxVdd1X5xDGK9DZBcvtsnCVc0OK1RmoRX9PhiPoV8N7rNwzY_MJgW56IpzMFvbNspVxJ5p337UYk-sZxjjyM3UCsCyjEJFDg8GnXIp0uK4__wHy5VobuHtKvHDBbp45IZQKDkIH9iPnb5xSsZ9MLcRo1EKgMpViz8H6PrEALYZ25Qs3Rqs7Q6xgbvOGQpMS2P50UrbT1rRO3OdV1kJemwCTbQYT_E2H9ddYZH8KcZmmFOSW5SuT8qdH-2j3xfY_lfbewRsk5oNTEFwGLyonMOQNpJeBjd79m00]--></g></svg>