<?xml version="1.0" encoding="us-ascii" standalone="no"?><svg xmlns="http://www.w3.org/2000/svg" xmlns:xlink="http://www.w3.org/1999/xlink" contentStyleType="text/css" height="235px" preserveAspectRatio="none" style="width:190px;height:235px;background:#FFFFFF;" version="1.1" viewBox="0 0 190 235" width="190px" zoomAndPan="magnify"><defs/><g><!--class Customer--><g id="elem_Customer"><rect fill="#F1F1F1" height="48" id="Customer" rx="2.5" ry="2.5" style="stroke:#181818;stroke-width:0.5;" width="100" x="45" y="7"/><ellipse cx="60" cy="23" fill="#ADD1B2" rx="11" ry="11" style="stroke:#181818;stroke-width:1.0;"/><path d="M63.5156,27.0313 L63.5156,29.0625 Q62.0313,29.6719 60.2031,29.6719 Q57.4844,29.6719 56.0313,27.9375 Q54.5781,26.1875 54.5781,23.0781 Q54.5781,20.0781 56.1563,18.2969 Q57.7344,16.5 60.4531,16.5 Q62.3594,16.5 64.0938,17.4219 L63.1406,19.3281 Q61.6406,18.5469 60.4531,18.5469 Q58.8438,18.5469 57.8594,19.7656 Q56.8906,20.9688 56.8906,23.0938 Q56.8906,25.3438 57.7969,26.4844 Q58.7188,27.625 60.4531,27.625 Q61.4844,27.625 63.5156,27.0313 Z " fill="#000000"/><text fill="#000000" font-family="sans-serif" font-size="14" lengthAdjust="spacing" textLength="68" x="74" y="27.8467">Customer</text><line style="stroke:#181818;stroke-width:0.5;" x1="46" x2="144" y1="39" y2="39"/><line style="stroke:#181818;stroke-width:0.5;" x1="46" x2="144" y1="47" y2="47"/></g><!--class Repair Issue--><g id="elem_Repair Issue"><rect codeLine="2" fill="#F9E79F" height="96.8906" id="Repair Issue" rx="2.5" ry="2.5" style="stroke:#181818;stroke-width:0.5;" width="176" x="7" y="132"/><ellipse cx="48.55" cy="148" fill="#ADD1B2" rx="11" ry="11" style="stroke:#181818;stroke-width:1.0;"/><path d="M52.0656,152.0313 L52.0656,154.0625 Q50.5813,154.6719 48.7531,154.6719 Q46.0344,154.6719 44.5813,152.9375 Q43.1281,151.1875 43.1281,148.0781 Q43.1281,145.0781 44.7063,143.2969 Q46.2844,141.5 49.0031,141.5 Q50.9094,141.5 52.6438,142.4219 L51.6906,144.3281 Q50.1906,143.5469 49.0031,143.5469 Q47.3938,143.5469 46.4094,144.7656 Q45.4406,145.9688 45.4406,148.0938 Q45.4406,150.3438 46.3469,151.4844 Q47.2688,152.625 49.0031,152.625 Q50.0344,152.625 52.0656,152.0313 Z " fill="#000000"/><text fill="#000000" font-family="sans-serif" font-size="14" lengthAdjust="spacing" textLength="85" x="68.45" y="152.8467">Repair Issue</text><line style="stroke:#181818;stroke-width:0.5;" x1="8" x2="182" y1="164" y2="164"/><text fill="#000000" font-family="sans-serif" font-size="14" lengthAdjust="spacing" textLength="106" x="13" y="180.9951">customer : Link</text><text fill="#000000" font-family="sans-serif" font-size="14" lengthAdjust="spacing" textLength="164" x="13" y="197.292">issue_description : Text</text><text fill="#000000" font-family="sans-serif" font-size="14" lengthAdjust="spacing" textLength="99" x="13" y="213.5889">status : Select</text><line style="stroke:#181818;stroke-width:0.5;" x1="8" x2="182" y1="220.8906" y2="220.8906"/></g><!--reverse link Customer to Repair Issue--><g id="link_Customer_Repair Issue"><path codeLine="1" d="M95,68.11 C95,87.32 95,111.2 95,131.92 " fill="none" id="Customer-backto-Repair Issue" style="stroke:#181818;stroke-width:1.0;"/><polygon fill="#181818" points="95,55.05,91,61.05,95,67.05,99,61.05,95,55.05" style="stroke:#181818;stroke-width:1.0;"/><text fill="#000000" font-family="sans-serif" font-size="13" lengthAdjust="spacing" textLength="61" x="96" y="98.0669">customer</text></g><!--SRC=[Kt8kBIx9pqqjKbBGqjLLK0fABKZCB5BmB2ukJLLIi598Xafp9USa5XUZookxMRgQMxefL7Cfm5K2DVbavcK3HJ91Yk9JKekJYp8BIZBpyu1I8QaL9K2fufB4aj9Y83yuDISrkOIh5W00]--></g></svg>