<?xml version="1.0" encoding="us-ascii" standalone="no"?><svg xmlns="http://www.w3.org/2000/svg" xmlns:xlink="http://www.w3.org/1999/xlink" contentStyleType="text/css" height="101px" preserveAspectRatio="none" style="width:182px;height:101px;background:#FFFFFF;" version="1.1" viewBox="0 0 182 101" width="182px" zoomAndPan="magnify"><defs/><g><!--class Image Log Entry--><g id="elem_Image Log Entry"><rect codeLine="1" fill="#76D7C4" height="80.5938" id="Image Log Entry" rx="2.5" ry="2.5" style="stroke:#181818;stroke-width:0.5;" width="161" x="7" y="7"/><ellipse cx="30.55" cy="23" fill="#ADD1B2" rx="11" ry="11" style="stroke:#181818;stroke-width:1.0;"/><path d="M34.0656,27.0313 L34.0656,29.0625 Q32.5813,29.6719 30.7531,29.6719 Q28.0344,29.6719 26.5813,27.9375 Q25.1281,26.1875 25.1281,23.0781 Q25.1281,20.0781 26.7063,18.2969 Q28.2844,16.5 31.0031,16.5 Q32.9094,16.5 34.6438,17.4219 L33.6906,19.3281 Q32.1906,18.5469 31.0031,18.5469 Q29.3938,18.5469 28.4094,19.7656 Q27.4406,20.9688 27.4406,23.0938 Q27.4406,25.3438 28.3469,26.4844 Q29.2688,27.625 31.0031,27.625 Q32.0344,27.625 34.0656,27.0313 Z " fill="#000000"/><text fill="#000000" font-family="sans-serif" font-size="14" lengthAdjust="spacing" textLength="110" x="46.45" y="27.8467">Image Log Entry</text><line style="stroke:#181818;stroke-width:0.5;" x1="8" x2="167" y1="39" y2="39"/><text fill="#000000" font-family="sans-serif" font-size="14" lengthAdjust="spacing" textLength="145" x="13" y="55.9951">image : Attach Image</text><text fill="#000000" font-family="sans-serif" font-size="14" lengthAdjust="spacing" textLength="149" x="13" y="72.292">comment : Small Text</text><line style="stroke:#181818;stroke-width:0.5;" x1="8" x2="167" y1="79.5938" y2="79.5938"/></g><!--SRC=[Iyv9B2vMKFBCJKnFLV39JrTmpIifgbHIK3OtSp5tDb6evb9Go0HBMYaubfGa9cSeWDK2XPFpStDJyqg04i6vYJav2Y6f5ILSjG00]--></g></svg>