<?xml version="1.0" encoding="us-ascii" standalone="no"?><svg xmlns="http://www.w3.org/2000/svg" xmlns:xlink="http://www.w3.org/1999/xlink" contentStyleType="text/css" height="235px" preserveAspectRatio="none" style="width:175px;height:235px;background:#FFFFFF;" version="1.1" viewBox="0 0 175 235" width="175px" zoomAndPan="magnify"><defs/><g><!--class User--><g id="elem_User"><rect fill="#F1F1F1" height="48" id="User" rx="2.5" ry="2.5" style="stroke:#181818;stroke-width:0.5;" width="64" x="55.5" y="7"/><ellipse cx="70.5" cy="23" fill="#ADD1B2" rx="11" ry="11" style="stroke:#181818;stroke-width:1.0;"/><path d="M74.0156,27.0313 L74.0156,29.0625 Q72.5313,29.6719 70.7031,29.6719 Q67.9844,29.6719 66.5313,27.9375 Q65.0781,26.1875 65.0781,23.0781 Q65.0781,20.0781 66.6563,18.2969 Q68.2344,16.5 70.9531,16.5 Q72.8594,16.5 74.5938,17.4219 L73.6406,19.3281 Q72.1406,18.5469 70.9531,18.5469 Q69.3438,18.5469 68.3594,19.7656 Q67.3906,20.9688 67.3906,23.0938 Q67.3906,25.3438 68.2969,26.4844 Q69.2188,27.625 70.9531,27.625 Q71.9844,27.625 74.0156,27.0313 Z " fill="#000000"/><text fill="#000000" font-family="sans-serif" font-size="14" lengthAdjust="spacing" textLength="32" x="84.5" y="27.8467">User</text><line style="stroke:#181818;stroke-width:0.5;" x1="56.5" x2="118.5" y1="39" y2="39"/><line style="stroke:#181818;stroke-width:0.5;" x1="56.5" x2="118.5" y1="47" y2="47"/></g><!--class Repair Task Log--><g id="elem_Repair Task Log"><rect codeLine="2" fill="#76D7C4" height="96.8906" id="Repair Task Log" rx="2.5" ry="2.5" style="stroke:#181818;stroke-width:0.5;" width="161" x="7" y="132"/><ellipse cx="30.55" cy="148" fill="#ADD1B2" rx="11" ry="11" style="stroke:#181818;stroke-width:1.0;"/><path d="M34.0656,152.0313 L34.0656,154.0625 Q32.5813,154.6719 30.7531,154.6719 Q28.0344,154.6719 26.5813,152.9375 Q25.1281,151.1875 25.1281,148.0781 Q25.1281,145.0781 26.7063,143.2969 Q28.2844,141.5 31.0031,141.5 Q32.9094,141.5 34.6438,142.4219 L33.6906,144.3281 Q32.1906,143.5469 31.0031,143.5469 Q29.3938,143.5469 28.4094,144.7656 Q27.4406,145.9688 27.4406,148.0938 Q27.4406,150.3438 28.3469,151.4844 Q29.2688,152.625 31.0031,152.625 Q32.0344,152.625 34.0656,152.0313 Z " fill="#000000"/><text fill="#000000" font-family="sans-serif" font-size="14" lengthAdjust="spacing" textLength="110" x="46.45" y="152.8467">Repair Task Log</text><line style="stroke:#181818;stroke-width:0.5;" x1="8" x2="167" y1="164" y2="164"/><text fill="#000000" font-family="sans-serif" font-size="14" lengthAdjust="spacing" textLength="146" x="13" y="180.9951">log_entry : Small Text</text><text fill="#000000" font-family="sans-serif" font-size="14" lengthAdjust="spacing" textLength="149" x="13" y="197.292">timestamp : Datetime</text><text fill="#000000" font-family="sans-serif" font-size="14" lengthAdjust="spacing" textLength="111" x="13" y="213.5889">logged_by : Link</text><line style="stroke:#181818;stroke-width:0.5;" x1="8" x2="167" y1="220.8906" y2="220.8906"/></g><!--reverse link User to Repair Task Log--><g id="link_User_Repair Task Log"><path codeLine="1" d="M87.5,68.11 C87.5,87.32 87.5,111.2 87.5,131.92 " fill="none" id="User-backto-Repair Task Log" style="stroke:#181818;stroke-width:1.0;"/><polygon fill="#181818" points="87.5,55.05,83.5,61.05,87.5,67.05,91.5,61.05,87.5,55.05" style="stroke:#181818;stroke-width:1.0;"/><text fill="#000000" font-family="sans-serif" font-size="13" lengthAdjust="spacing" textLength="65" x="88.5" y="98.0669">logged_by</text></g><!--SRC=[KmejJYrIKj3IrLLG2aejICmiKWX9BCvMyCbFLrAmKiZ9JqzFJObFgkHApaaiBiQYHjdSpCNSsKIXcai1f3e-DQ-ag1AeCpWtCIT78IIreWGeKPAPcrfSafXR09HmIIn91V4XwY6c0uLzClEokMe1]--></g></svg>