<?xml version="1.0" encoding="us-ascii" standalone="no"?><svg xmlns="http://www.w3.org/2000/svg" xmlns:xlink="http://www.w3.org/1999/xlink" contentStyleType="text/css" height="101px" preserveAspectRatio="none" style="width:220px;height:101px;background:#FFFFFF;" version="1.1" viewBox="0 0 220 101" width="220px" zoomAndPan="magnify"><defs/><g><!--class Instruments Owned--><g id="elem_Instruments Owned"><rect codeLine="1" fill="#D2B4DE" height="80.5938" id="Instruments Owned" rx="2.5" ry="2.5" style="stroke:#181818;stroke-width:0.5;" width="199" x="7" y="7"/><ellipse cx="35.95" cy="23" fill="#ADD1B2" rx="11" ry="11" style="stroke:#181818;stroke-width:1.0;"/><path d="M39.4656,27.0313 L39.4656,29.0625 Q37.9813,29.6719 36.1531,29.6719 Q33.4344,29.6719 31.9813,27.9375 Q30.5281,26.1875 30.5281,23.0781 Q30.5281,20.0781 32.1063,18.2969 Q33.6844,16.5 36.4031,16.5 Q38.3094,16.5 40.0438,17.4219 L39.0906,19.3281 Q37.5906,18.5469 36.4031,18.5469 Q34.7938,18.5469 33.8094,19.7656 Q32.8406,20.9688 32.8406,23.0938 Q32.8406,25.3438 33.7469,26.4844 Q34.6688,27.625 36.4031,27.625 Q37.4344,27.625 39.4656,27.0313 Z " fill="#000000"/><text fill="#000000" font-family="sans-serif" font-size="14" lengthAdjust="spacing" textLength="136" x="53.05" y="27.8467">Instruments Owned</text><line style="stroke:#181818;stroke-width:0.5;" x1="8" x2="205" y1="39" y2="39"/><text fill="#000000" font-family="sans-serif" font-size="14" lengthAdjust="spacing" textLength="187" x="13" y="55.9951">instrument_category : Data</text><text fill="#000000" font-family="sans-serif" font-size="14" lengthAdjust="spacing" textLength="142" x="13" y="72.292">serial_number : Data</text><line style="stroke:#181818;stroke-width:0.5;" x1="8" x2="205" y1="79.5938" y2="79.5938"/></g><!--SRC=[Iyv9B2vMKFBCAoufAirDpIifLl0lpqjDKL9GTZ5oCd5nLQZcKb38X4l79oUMfARd5rKgM2cu99Oa0YMBKuio4tFYyqfparABOCAr0000]--></g></svg>