<?xml version="1.0" encoding="us-ascii" standalone="no"?><svg xmlns="http://www.w3.org/2000/svg" xmlns:xlink="http://www.w3.org/1999/xlink" contentStyleType="text/css" height="912px" preserveAspectRatio="none" style="width:1196px;height:912px;background:#FFFFFF;" version="1.1" viewBox="0 0 1196 912" width="1196px" zoomAndPan="magnify"><defs/><g><!--cluster repair_portal--><g id="cluster_repair_portal"><path d="M8.5,6 L109.5,6 A3.75,3.75 0 0 1 112,8.5 L119,28.2969 L1186.5,28.2969 A2.5,2.5 0 0 1 1189,30.7969 L1189,902.5 A2.5,2.5 0 0 1 1186.5,905 L8.5,905 A2.5,2.5 0 0 1 6,902.5 L6,8.5 A2.5,2.5 0 0 1 8.5,6 " fill="none" style="stroke:#000000;stroke-width:1.5;"/><line style="stroke:#000000;stroke-width:1.5;" x1="6" x2="119" y1="28.2969" y2="28.2969"/><text fill="#000000" font-family="sans-serif" font-size="14" font-weight="bold" lengthAdjust="spacing" textLength="100" x="10" y="20.9951">repair_portal</text></g><!--cluster repair_portal--><g id="cluster_repair_portal"><path d="M32.5,49 L133.5,49 A3.75,3.75 0 0 1 136,51.5 L143,71.2969 L1162.5,71.2969 A2.5,2.5 0 0 1 1165,73.7969 L1165,878.5 A2.5,2.5 0 0 1 1162.5,881 L32.5,881 A2.5,2.5 0 0 1 30,878.5 L30,51.5 A2.5,2.5 0 0 1 32.5,49 " fill="none" style="stroke:#000000;stroke-width:1.5;"/><line style="stroke:#000000;stroke-width:1.5;" x1="30" x2="143" y1="71.2969" y2="71.2969"/><text fill="#000000" font-family="sans-serif" font-size="14" font-weight="bold" lengthAdjust="spacing" textLength="100" x="34" y="63.9951">repair_portal</text></g><!--class Technician Task Summary--><g id="elem_Technician Task Summary"><rect codeLine="2" fill="#F7DC6F" height="48" id="Technician Task Summary" rx="2.5" ry="2.5" style="stroke:#181818;stroke-width:0.5;" width="212" x="782" y="84"/><ellipse cx="797" cy="100" fill="#ADD1B2" rx="11" ry="11" style="stroke:#181818;stroke-width:1.0;"/><path d="M800.5156,104.0313 L800.5156,106.0625 Q799.0313,106.6719 797.2031,106.6719 Q794.4844,106.6719 793.0313,104.9375 Q791.5781,103.1875 791.5781,100.0781 Q791.5781,97.0781 793.1563,95.2969 Q794.7344,93.5 797.4531,93.5 Q799.3594,93.5 801.0938,94.4219 L800.1406,96.3281 Q798.6406,95.5469 797.4531,95.5469 Q795.8438,95.5469 794.8594,96.7656 Q793.8906,97.9688 793.8906,100.0938 Q793.8906,102.3438 794.7969,103.4844 Q795.7188,104.625 797.4531,104.625 Q798.4844,104.625 800.5156,104.0313 Z " fill="#000000"/><text fill="#000000" font-family="sans-serif" font-size="14" lengthAdjust="spacing" textLength="180" x="811" y="104.8467">Technician Task Summary</text><line style="stroke:#181818;stroke-width:0.5;" x1="783" x2="993" y1="116" y2="116"/><line style="stroke:#181818;stroke-width:0.5;" x1="783" x2="993" y1="124" y2="124"/></g><!--class Repair Portal--><g id="elem_Repair Portal"><rect codeLine="4" fill="#F7DC6F" height="48" id="Repair Portal" rx="2.5" ry="2.5" style="stroke:#181818;stroke-width:0.5;" width="119" x="1029.5" y="84"/><ellipse cx="1044.5" cy="100" fill="#ADD1B2" rx="11" ry="11" style="stroke:#181818;stroke-width:1.0;"/><path d="M1048.0156,104.0313 L1048.0156,106.0625 Q1046.5313,106.6719 1044.7031,106.6719 Q1041.9844,106.6719 1040.5313,104.9375 Q1039.0781,103.1875 1039.0781,100.0781 Q1039.0781,97.0781 1040.6563,95.2969 Q1042.2344,93.5 1044.9531,93.5 Q1046.8594,93.5 1048.5938,94.4219 L1047.6406,96.3281 Q1046.1406,95.5469 1044.9531,95.5469 Q1043.3438,95.5469 1042.3594,96.7656 Q1041.3906,97.9688 1041.3906,100.0938 Q1041.3906,102.3438 1042.2969,103.4844 Q1043.2188,104.625 1044.9531,104.625 Q1045.9844,104.625 1048.0156,104.0313 Z " fill="#000000"/><text fill="#000000" font-family="sans-serif" font-size="14" lengthAdjust="spacing" textLength="87" x="1058.5" y="104.8467">Repair Portal</text><line style="stroke:#181818;stroke-width:0.5;" x1="1030.5" x2="1147.5" y1="116" y2="116"/><line style="stroke:#181818;stroke-width:0.5;" x1="1030.5" x2="1147.5" y1="124" y2="124"/></g><!--class Repair Request--><g id="elem_Repair Request"><rect codeLine="25" fill="#F7DC6F" height="276.1563" id="Repair Request" rx="2.5" ry="2.5" style="stroke:#181818;stroke-width:0.5;" width="222" x="419" y="383"/><ellipse cx="472.25" cy="399" fill="#ADD1B2" rx="11" ry="11" style="stroke:#181818;stroke-width:1.0;"/><path d="M475.7656,403.0313 L475.7656,405.0625 Q474.2813,405.6719 472.4531,405.6719 Q469.7344,405.6719 468.2813,403.9375 Q466.8281,402.1875 466.8281,399.0781 Q466.8281,396.0781 468.4063,394.2969 Q469.9844,392.5 472.7031,392.5 Q474.6094,392.5 476.3438,393.4219 L475.3906,395.3281 Q473.8906,394.5469 472.7031,394.5469 Q471.0938,394.5469 470.1094,395.7656 Q469.1406,396.9688 469.1406,399.0938 Q469.1406,401.3438 470.0469,402.4844 Q470.9688,403.625 472.7031,403.625 Q473.7344,403.625 475.7656,403.0313 Z " fill="#000000"/><text fill="#000000" font-family="sans-serif" font-size="14" lengthAdjust="spacing" textLength="107" x="492.75" y="403.8467">Repair Request</text><line style="stroke:#181818;stroke-width:0.5;" x1="420" x2="640" y1="415" y2="415"/><text fill="#000000" font-family="sans-serif" font-size="14" lengthAdjust="spacing" textLength="200" x="425" y="431.9951">section_main : Section Break</text><text fill="#000000" font-family="sans-serif" font-size="14" lengthAdjust="spacing" textLength="106" x="425" y="448.292">customer : Link</text><text fill="#000000" font-family="sans-serif" font-size="14" lengthAdjust="spacing" textLength="182" x="425" y="464.5889">instrument_category : Link</text><text fill="#000000" font-family="sans-serif" font-size="14" lengthAdjust="spacing" textLength="144" x="425" y="480.8857">date_reported : Date</text><text fill="#000000" font-family="sans-serif" font-size="14" lengthAdjust="spacing" textLength="136" x="425" y="497.1826">cb1 : Column Break</text><text fill="#000000" font-family="sans-serif" font-size="14" lengthAdjust="spacing" textLength="164" x="425" y="513.4795">issue_description : Text</text><text fill="#000000" font-family="sans-serif" font-size="14" lengthAdjust="spacing" textLength="181" x="425" y="529.7764">technician_assigned : Link</text><text fill="#000000" font-family="sans-serif" font-size="14" lengthAdjust="spacing" textLength="140" x="425" y="546.0732">priority_level : Select</text><text fill="#000000" font-family="sans-serif" font-size="14" lengthAdjust="spacing" textLength="210" x="425" y="562.3701">section_status : Section Break</text><text fill="#000000" font-family="sans-serif" font-size="14" lengthAdjust="spacing" textLength="99" x="425" y="578.667">status : Select</text><text fill="#000000" font-family="sans-serif" font-size="14" lengthAdjust="spacing" textLength="207" x="425" y="594.9639">section_notes : Section Break</text><text fill="#000000" font-family="sans-serif" font-size="14" lengthAdjust="spacing" textLength="137" x="425" y="611.2607">repair_notes : Table</text><text fill="#000000" font-family="sans-serif" font-size="14" lengthAdjust="spacing" textLength="184" x="425" y="627.5576">section_qa : Section Break</text><text fill="#000000" font-family="sans-serif" font-size="14" lengthAdjust="spacing" textLength="136" x="425" y="643.8545">qa_checklist : Table</text><line style="stroke:#181818;stroke-width:0.5;" x1="420" x2="640" y1="651.1563" y2="651.1563"/></g><!--class Pulse Update--><g id="elem_Pulse Update"><rect codeLine="9" fill="#F7DC6F" height="129.4844" id="Pulse Update" rx="2.5" ry="2.5" style="stroke:#181818;stroke-width:0.5;" width="174" x="443" y="736"/><ellipse cx="480.5" cy="752" fill="#ADD1B2" rx="11" ry="11" style="stroke:#181818;stroke-width:1.0;"/><path d="M484.0156,756.0313 L484.0156,758.0625 Q482.5313,758.6719 480.7031,758.6719 Q477.9844,758.6719 476.5313,756.9375 Q475.0781,755.1875 475.0781,752.0781 Q475.0781,749.0781 476.6563,747.2969 Q478.2344,745.5 480.9531,745.5 Q482.8594,745.5 484.5938,746.4219 L483.6406,748.3281 Q482.1406,747.5469 480.9531,747.5469 Q479.3438,747.5469 478.3594,748.7656 Q477.3906,749.9688 477.3906,752.0938 Q477.3906,754.3438 478.2969,755.4844 Q479.2188,756.625 480.9531,756.625 Q481.9844,756.625 484.0156,756.0313 Z " fill="#000000"/><text fill="#000000" font-family="sans-serif" font-size="14" lengthAdjust="spacing" textLength="92" x="499.5" y="756.8467">Pulse Update</text><line style="stroke:#181818;stroke-width:0.5;" x1="444" x2="616" y1="768" y2="768"/><text fill="#000000" font-family="sans-serif" font-size="14" lengthAdjust="spacing" textLength="140" x="449" y="784.9951">repair_request : Link</text><text fill="#000000" font-family="sans-serif" font-size="14" lengthAdjust="spacing" textLength="162" x="449" y="801.292">update_time : Datetime</text><text fill="#000000" font-family="sans-serif" font-size="14" lengthAdjust="spacing" textLength="88" x="449" y="817.5889">status : Data</text><text fill="#000000" font-family="sans-serif" font-size="14" lengthAdjust="spacing" textLength="128" x="449" y="833.8857">details : Small Text</text><text fill="#000000" font-family="sans-serif" font-size="14" lengthAdjust="spacing" textLength="156" x="449" y="850.1826">percent_complete : Int</text><line style="stroke:#181818;stroke-width:0.5;" x1="444" x2="616" y1="857.4844" y2="857.4844"/></g><!--class Consent Log Entry--><g id="elem_Consent Log Entry"><rect codeLine="16" fill="#F7DC6F" height="80.5938" id="Consent Log Entry" rx="2.5" ry="2.5" style="stroke:#181818;stroke-width:0.5;" width="162" x="987" y="217"/><ellipse cx="1003.35" cy="233" fill="#ADD1B2" rx="11" ry="11" style="stroke:#181818;stroke-width:1.0;"/><path d="M1006.8656,237.0313 L1006.8656,239.0625 Q1005.3813,239.6719 1003.5531,239.6719 Q1000.8344,239.6719 999.3813,237.9375 Q997.9281,236.1875 997.9281,233.0781 Q997.9281,230.0781 999.5063,228.2969 Q1001.0844,226.5 1003.8031,226.5 Q1005.7094,226.5 1007.4438,227.4219 L1006.4906,229.3281 Q1004.9906,228.5469 1003.8031,228.5469 Q1002.1938,228.5469 1001.2094,229.7656 Q1000.2406,230.9688 1000.2406,233.0938 Q1000.2406,235.3438 1001.1469,236.4844 Q1002.0688,237.625 1003.8031,237.625 Q1004.8344,237.625 1006.8656,237.0313 Z " fill="#000000"/><text fill="#000000" font-family="sans-serif" font-size="14" lengthAdjust="spacing" textLength="127" x="1017.65" y="237.8467">Consent Log Entry</text><line style="stroke:#181818;stroke-width:0.5;" x1="988" x2="1148" y1="249" y2="249"/><text fill="#000000" font-family="sans-serif" font-size="14" lengthAdjust="spacing" textLength="150" x="993" y="265.9951">consent_type : Select</text><text fill="#000000" font-family="sans-serif" font-size="14" lengthAdjust="spacing" textLength="121" x="993" y="282.292">date_given : Date</text><line style="stroke:#181818;stroke-width:0.5;" x1="988" x2="1148" y1="289.5938" y2="289.5938"/></g><!--class Customer--><g id="elem_Customer"><rect fill="#F1F1F1" height="48" id="Customer" rx="2.5" ry="2.5" style="stroke:#181818;stroke-width:0.5;" width="100" x="852" y="233.5"/><ellipse cx="867" cy="249.5" fill="#ADD1B2" rx="11" ry="11" style="stroke:#181818;stroke-width:1.0;"/><path d="M870.5156,253.5313 L870.5156,255.5625 Q869.0313,256.1719 867.2031,256.1719 Q864.4844,256.1719 863.0313,254.4375 Q861.5781,252.6875 861.5781,249.5781 Q861.5781,246.5781 863.1563,244.7969 Q864.7344,243 867.4531,243 Q869.3594,243 871.0938,243.9219 L870.1406,245.8281 Q868.6406,245.0469 867.4531,245.0469 Q865.8438,245.0469 864.8594,246.2656 Q863.8906,247.4688 863.8906,249.5938 Q863.8906,251.8438 864.7969,252.9844 Q865.7188,254.125 867.4531,254.125 Q868.4844,254.125 870.5156,253.5313 Z " fill="#000000"/><text fill="#000000" font-family="sans-serif" font-size="14" lengthAdjust="spacing" textLength="68" x="881" y="254.3467">Customer</text><line style="stroke:#181818;stroke-width:0.5;" x1="853" x2="951" y1="265.5" y2="265.5"/><line style="stroke:#181818;stroke-width:0.5;" x1="853" x2="951" y1="273.5" y2="273.5"/></g><!--class Instrument Category--><g id="elem_Instrument Category"><rect fill="#F1F1F1" height="48" id="Instrument Category" rx="2.5" ry="2.5" style="stroke:#181818;stroke-width:0.5;" width="173" x="643.5" y="233.5"/><ellipse cx="658.5" cy="249.5" fill="#ADD1B2" rx="11" ry="11" style="stroke:#181818;stroke-width:1.0;"/><path d="M662.0156,253.5313 L662.0156,255.5625 Q660.5313,256.1719 658.7031,256.1719 Q655.9844,256.1719 654.5313,254.4375 Q653.0781,252.6875 653.0781,249.5781 Q653.0781,246.5781 654.6563,244.7969 Q656.2344,243 658.9531,243 Q660.8594,243 662.5938,243.9219 L661.6406,245.8281 Q660.1406,245.0469 658.9531,245.0469 Q657.3438,245.0469 656.3594,246.2656 Q655.3906,247.4688 655.3906,249.5938 Q655.3906,251.8438 656.2969,252.9844 Q657.2188,254.125 658.9531,254.125 Q659.9844,254.125 662.0156,253.5313 Z " fill="#000000"/><text fill="#000000" font-family="sans-serif" font-size="14" lengthAdjust="spacing" textLength="141" x="672.5" y="254.3467">Instrument Category</text><line style="stroke:#181818;stroke-width:0.5;" x1="644.5" x2="815.5" y1="265.5" y2="265.5"/><line style="stroke:#181818;stroke-width:0.5;" x1="644.5" x2="815.5" y1="273.5" y2="273.5"/></g><!--class User--><g id="elem_User"><rect fill="#F1F1F1" height="48" id="User" rx="2.5" ry="2.5" style="stroke:#181818;stroke-width:0.5;" width="64" x="324" y="84"/><ellipse cx="339" cy="100" fill="#ADD1B2" rx="11" ry="11" style="stroke:#181818;stroke-width:1.0;"/><path d="M342.5156,104.0313 L342.5156,106.0625 Q341.0313,106.6719 339.2031,106.6719 Q336.4844,106.6719 335.0313,104.9375 Q333.5781,103.1875 333.5781,100.0781 Q333.5781,97.0781 335.1563,95.2969 Q336.7344,93.5 339.4531,93.5 Q341.3594,93.5 343.0938,94.4219 L342.1406,96.3281 Q340.6406,95.5469 339.4531,95.5469 Q337.8438,95.5469 336.8594,96.7656 Q335.8906,97.9688 335.8906,100.0938 Q335.8906,102.3438 336.7969,103.4844 Q337.7188,104.625 339.4531,104.625 Q340.4844,104.625 342.5156,104.0313 Z " fill="#000000"/><text fill="#000000" font-family="sans-serif" font-size="14" lengthAdjust="spacing" textLength="32" x="353" y="104.8467">User</text><line style="stroke:#181818;stroke-width:0.5;" x1="325" x2="387" y1="116" y2="116"/><line style="stroke:#181818;stroke-width:0.5;" x1="325" x2="387" y1="124" y2="124"/></g><!--class Repair Note--><g id="elem_Repair Note"><rect codeLine="42" fill="#F7DC6F" height="96.8906" id="Repair Note" rx="2.5" ry="2.5" style="stroke:#181818;stroke-width:0.5;" width="157" x="451.5" y="209"/><ellipse cx="486.3" cy="225" fill="#ADD1B2" rx="11" ry="11" style="stroke:#181818;stroke-width:1.0;"/><path d="M489.8156,229.0313 L489.8156,231.0625 Q488.3313,231.6719 486.5031,231.6719 Q483.7844,231.6719 482.3313,229.9375 Q480.8781,228.1875 480.8781,225.0781 Q480.8781,222.0781 482.4563,220.2969 Q484.0344,218.5 486.7531,218.5 Q488.6594,218.5 490.3938,219.4219 L489.4406,221.3281 Q487.9406,220.5469 486.7531,220.5469 Q485.1438,220.5469 484.1594,221.7656 Q483.1906,222.9688 483.1906,225.0938 Q483.1906,227.3438 484.0969,228.4844 Q485.0188,229.625 486.7531,229.625 Q487.7844,229.625 489.8156,229.0313 Z " fill="#000000"/><text fill="#000000" font-family="sans-serif" font-size="14" lengthAdjust="spacing" textLength="81" x="504.7" y="229.8467">Repair Note</text><line style="stroke:#181818;stroke-width:0.5;" x1="452.5" x2="607.5" y1="241" y2="241"/><text fill="#000000" font-family="sans-serif" font-size="14" lengthAdjust="spacing" textLength="145" x="457.5" y="257.9951">note_time : Datetime</text><text fill="#000000" font-family="sans-serif" font-size="14" lengthAdjust="spacing" textLength="108" x="457.5" y="274.292">note_text : Text</text><text fill="#000000" font-family="sans-serif" font-size="14" lengthAdjust="spacing" textLength="85" x="457.5" y="290.5889">author : Link</text><line style="stroke:#181818;stroke-width:0.5;" x1="452.5" x2="607.5" y1="297.8906" y2="297.8906"/></g><!--class Qa Checklist Item--><g id="elem_Qa Checklist Item"><rect codeLine="47" fill="#F7DC6F" height="96.8906" id="Qa Checklist Item" rx="2.5" ry="2.5" style="stroke:#181818;stroke-width:0.5;" width="169" x="45.5" y="209"/><ellipse cx="68.15" cy="225" fill="#ADD1B2" rx="11" ry="11" style="stroke:#181818;stroke-width:1.0;"/><path d="M71.6656,229.0313 L71.6656,231.0625 Q70.1813,231.6719 68.3531,231.6719 Q65.6344,231.6719 64.1813,229.9375 Q62.7281,228.1875 62.7281,225.0781 Q62.7281,222.0781 64.3063,220.2969 Q65.8844,218.5 68.6031,218.5 Q70.5094,218.5 72.2438,219.4219 L71.2906,221.3281 Q69.7906,220.5469 68.6031,220.5469 Q66.9938,220.5469 66.0094,221.7656 Q65.0406,222.9688 65.0406,225.0938 Q65.0406,227.3438 65.9469,228.4844 Q66.8688,229.625 68.6031,229.625 Q69.6344,229.625 71.6656,229.0313 Z " fill="#000000"/><text fill="#000000" font-family="sans-serif" font-size="14" lengthAdjust="spacing" textLength="120" x="83.85" y="229.8467">Qa Checklist Item</text><line style="stroke:#181818;stroke-width:0.5;" x1="46.5" x2="213.5" y1="241" y2="241"/><text fill="#000000" font-family="sans-serif" font-size="14" lengthAdjust="spacing" textLength="124" x="51.5" y="257.9951">check_item : Data</text><text fill="#000000" font-family="sans-serif" font-size="14" lengthAdjust="spacing" textLength="108" x="51.5" y="274.292">passed : Check</text><text fill="#000000" font-family="sans-serif" font-size="14" lengthAdjust="spacing" textLength="157" x="51.5" y="290.5889">comments : Small Text</text><line style="stroke:#181818;stroke-width:0.5;" x1="46.5" x2="213.5" y1="297.8906" y2="297.8906"/></g><!--reverse link Repair Request to Pulse Update--><g id="link_Repair Request_Pulse Update"><path codeLine="8" d="M530,672.29 C530,694.59 530,716.5 530,735.67 " fill="none" id="Repair Request-backto-Pulse Update" style="stroke:#181818;stroke-width:1.0;"/><polygon fill="#181818" points="530,659.12,526,665.12,530,671.12,534,665.12,530,659.12" style="stroke:#181818;stroke-width:1.0;"/><text fill="#000000" font-family="sans-serif" font-size="13" lengthAdjust="spacing" textLength="93" x="531" y="702.0669">repair_request</text></g><!--reverse link Customer to Repair Request--><g id="link_Customer_Repair Request"><path codeLine="20" d="M872.84,291.67 C855.13,310.8 831.47,334.61 808,353 C756.14,393.62 693.62,432 641.01,461.69 " fill="none" id="Customer-backto-Repair Request" style="stroke:#181818;stroke-width:1.0;"/><polygon fill="#181818" points="881.77,281.88,874.7712,283.617,873.6828,290.7455,880.6816,289.0085,881.77,281.88" style="stroke:#181818;stroke-width:1.0;"/><text fill="#000000" font-family="sans-serif" font-size="13" lengthAdjust="spacing" textLength="61" x="828" y="349.0669">customer</text></g><!--reverse link Instrument Category to Repair Request--><g id="link_Instrument Category_Repair Request"><path codeLine="21" d="M704.27,292.14 C686.24,315.71 660.84,348.93 634.99,382.73 " fill="none" id="Instrument Category-backto-Repair Request" style="stroke:#181818;stroke-width:1.0;"/><polygon fill="#181818" points="712.25,281.71,705.4276,284.0456,704.9596,291.2415,711.782,288.9059,712.25,281.71" style="stroke:#181818;stroke-width:1.0;"/><text fill="#000000" font-family="sans-serif" font-size="13" lengthAdjust="spacing" textLength="133" x="666" y="349.0669">instrument_category</text></g><!--reverse link User to Repair Request--><g id="link_User_Repair Request"><path codeLine="22" d="M332.39,143.4 C321.09,161.94 308.78,185.74 303,209 C292.6,250.84 285.92,266.42 303,306 C327.14,361.94 373.91,410.05 418.74,446.39 " fill="none" id="User-backto-Repair Request" style="stroke:#181818;stroke-width:1.0;"/><polygon fill="#181818" points="339.41,132.31,332.8205,135.2389,332.9897,142.448,339.5792,139.5191,339.41,132.31" style="stroke:#181818;stroke-width:1.0;"/><text fill="#000000" font-family="sans-serif" font-size="13" lengthAdjust="spacing" textLength="129" x="304" y="262.0669">technician_assigned</text></g><!--reverse link Repair Note to Repair Request--><g id="link_Repair Note_Repair Request"><path codeLine="23" d="M530,319.27 C530,338.45 530,360.49 530,382.77 " fill="none" id="Repair Note-backto-Repair Request" style="stroke:#181818;stroke-width:1.0;"/><polygon fill="#181818" points="530,306.16,526,312.16,530,318.16,534,312.16,530,306.16" style="stroke:#181818;stroke-width:1.0;"/><text fill="#000000" font-family="sans-serif" font-size="13" lengthAdjust="spacing" textLength="80" x="531" y="349.0669">repair_notes</text></g><!--reverse link Qa Checklist Item to Repair Request--><g id="link_Qa Checklist Item_Repair Request"><path codeLine="24" d="M164.18,317.17 C173.41,330 184.17,342.78 196,353 C261.5,409.57 349.52,452.56 418.75,480.74 " fill="none" id="Qa Checklist Item-backto-Repair Request" style="stroke:#181818;stroke-width:1.0;"/><polygon fill="#181818" points="156.78,306.43,156.8899,313.6403,163.5879,316.312,163.4779,309.1017,156.78,306.43" style="stroke:#181818;stroke-width:1.0;"/><text fill="#000000" font-family="sans-serif" font-size="13" lengthAdjust="spacing" textLength="78" x="197" y="349.0669">qa_checklist</text></g><!--reverse link User to Repair Note--><g id="link_User_Repair Note"><path codeLine="41" d="M393.41,140.72 C416.87,160.6 447.53,186.59 473.87,208.92 " fill="none" id="User-backto-Repair Note" style="stroke:#181818;stroke-width:1.0;"/><polygon fill="#181818" points="383.19,132.05,385.1763,138.9822,392.3391,139.8149,390.3529,132.8827,383.19,132.05" style="stroke:#181818;stroke-width:1.0;"/><text fill="#000000" font-family="sans-serif" font-size="13" lengthAdjust="spacing" textLength="42" x="438" y="175.0669">author</text></g><!--SRC=[XLDDQnin4BtxLmpRMo65N58m8OTkQZ24aiREMIZQOIsiZxMa3JN5_xqZxVTcdTwacVT6e_TcAYwEl4HmM77fM6LTuEhRv0Rtznkh2dGF3_1t9HJt7h8zYeEHGd83U-wFiAkrvkwSmPVDzyVyRaF8IuTzITNWELNx3F62fnfzc48-9B_Ut43sN2kFy5eLF606wwv_ru2wkbFKK1LcU2hm9CsHudN2iY0rKl2Hpl582Hzug7qJutGlC72fOc2dkLAmnp-1mXKwWIOmONMbCCGYMnE6d-RMUCh3aotXfmbJnG14asRXN4Ng3XMAM3OrLSftD6rNKPYyzi5gTAqaSvtM85h0AjiQ7rojuyiviKiR7xx2aZsMYHQxobxz9- -4VXWOVLAM1elUjbysId-5sBfW2EDNsMyE-G75KKboP1jGN-MTE1CTylypHEQHYj8QfhaqITPqXHyEUJIzqsaOWmKDXcGoWrgdUSQYyuEglDtI9RUgraDfwNsDh40ldApIe-jkL1PK6zwedBHEXZDJ-8vgF0hTN_g1dFzcb9XHaiuBZB4DiJ_-fd14E_45pjY2ddDP6fHc0jR0wt2mRcPNannx5RjOsBycJCeD0ZO5Eytw5LiOeycAnHoJ51-MkI9YKZyHqnxgQFvilI-hopy0]--></g></svg>