<?xml version="1.0" encoding="us-ascii" standalone="no"?><svg xmlns="http://www.w3.org/2000/svg" xmlns:xlink="http://www.w3.org/1999/xlink" contentStyleType="text/css" height="1522px" preserveAspectRatio="none" style="width:3339px;height:1522px;background:#FFFFFF;" version="1.1" viewBox="0 0 3339 1522" width="3339px" zoomAndPan="magnify"><defs/><g><!--cluster repair_portal--><g id="cluster_repair_portal"><path d="M52.12,6 L153.12,6 A3.75,3.75 0 0 1 155.62,8.5 L162.62,28.2969 L3330.12,28.2969 A2.5,2.5 0 0 1 3332.62,30.7969 L3332.62,1512.5 A2.5,2.5 0 0 1 3330.12,1515 L52.12,1515 A2.5,2.5 0 0 1 49.62,1512.5 L49.62,8.5 A2.5,2.5 0 0 1 52.12,6 " fill="none" style="stroke:#000000;stroke-width:1.5;"/><line style="stroke:#000000;stroke-width:1.5;" x1="49.62" x2="162.62" y1="28.2969" y2="28.2969"/><text fill="#000000" font-family="sans-serif" font-size="14" font-weight="bold" lengthAdjust="spacing" textLength="100" x="53.62" y="20.9951">repair_portal</text></g><!--cluster instrument_profile--><g id="cluster_instrument_profile"><path d="M76.12,49 L221.12,49 A3.75,3.75 0 0 1 223.62,51.5 L230.62,71.2969 L3306.12,71.2969 A2.5,2.5 0 0 1 3308.62,73.7969 L3308.62,1488.5 A2.5,2.5 0 0 1 3306.12,1491 L76.12,1491 A2.5,2.5 0 0 1 73.62,1488.5 L73.62,51.5 A2.5,2.5 0 0 1 76.12,49 " fill="none" style="stroke:#000000;stroke-width:1.5;"/><line style="stroke:#000000;stroke-width:1.5;" x1="73.62" x2="230.62" y1="71.2969" y2="71.2969"/><text fill="#000000" font-family="sans-serif" font-size="14" font-weight="bold" lengthAdjust="spacing" textLength="144" x="77.62" y="63.9951">instrument_profile</text></g><!--class Waiting On Player--><g id="elem_Waiting On Player"><rect codeLine="2" fill="#F5CBA7" height="48" id="Waiting On Player" rx="2.5" ry="2.5" style="stroke:#181818;stroke-width:0.5;" width="151" x="2218.12" y="116.5"/><ellipse cx="2233.12" cy="132.5" fill="#ADD1B2" rx="11" ry="11" style="stroke:#181818;stroke-width:1.0;"/><path d="M2236.6356,136.5313 L2236.6356,138.5625 Q2235.1513,139.1719 2233.3231,139.1719 Q2230.6044,139.1719 2229.1513,137.4375 Q2227.6981,135.6875 2227.6981,132.5781 Q2227.6981,129.5781 2229.2763,127.7969 Q2230.8544,126 2233.5731,126 Q2235.4794,126 2237.2138,126.9219 L2236.2606,128.8281 Q2234.7606,128.0469 2233.5731,128.0469 Q2231.9638,128.0469 2230.9794,129.2656 Q2230.0106,130.4688 2230.0106,132.5938 Q2230.0106,134.8438 2230.9169,135.9844 Q2231.8388,137.125 2233.5731,137.125 Q2234.6044,137.125 2236.6356,136.5313 Z " fill="#000000"/><text fill="#000000" font-family="sans-serif" font-size="14" lengthAdjust="spacing" textLength="119" x="2247.12" y="137.3467">Waiting On Player</text><line style="stroke:#181818;stroke-width:0.5;" x1="2219.12" x2="2368.12" y1="148.5" y2="148.5"/><line style="stroke:#181818;stroke-width:0.5;" x1="2219.12" x2="2368.12" y1="156.5" y2="156.5"/></g><!--class Waiting On Client--><g id="elem_Waiting On Client"><rect codeLine="4" fill="#F5CBA7" height="48" id="Waiting On Client" rx="2.5" ry="2.5" style="stroke:#181818;stroke-width:0.5;" width="149" x="2404.12" y="116.5"/><ellipse cx="2419.12" cy="132.5" fill="#ADD1B2" rx="11" ry="11" style="stroke:#181818;stroke-width:1.0;"/><path d="M2422.6356,136.5313 L2422.6356,138.5625 Q2421.1513,139.1719 2419.3231,139.1719 Q2416.6044,139.1719 2415.1513,137.4375 Q2413.6981,135.6875 2413.6981,132.5781 Q2413.6981,129.5781 2415.2763,127.7969 Q2416.8544,126 2419.5731,126 Q2421.4794,126 2423.2138,126.9219 L2422.2606,128.8281 Q2420.7606,128.0469 2419.5731,128.0469 Q2417.9638,128.0469 2416.9794,129.2656 Q2416.0106,130.4688 2416.0106,132.5938 Q2416.0106,134.8438 2416.9169,135.9844 Q2417.8388,137.125 2419.5731,137.125 Q2420.6044,137.125 2422.6356,136.5313 Z " fill="#000000"/><text fill="#000000" font-family="sans-serif" font-size="14" lengthAdjust="spacing" textLength="117" x="2433.12" y="137.3467">Waiting On Client</text><line style="stroke:#181818;stroke-width:0.5;" x1="2405.12" x2="2552.12" y1="148.5" y2="148.5"/><line style="stroke:#181818;stroke-width:0.5;" x1="2405.12" x2="2552.12" y1="156.5" y2="156.5"/></g><!--class Archived--><g id="elem_Archived"><rect codeLine="6" fill="#F5CBA7" height="48" id="Archived" rx="2.5" ry="2.5" style="stroke:#181818;stroke-width:0.5;" width="91" x="2588.12" y="116.5"/><ellipse cx="2603.12" cy="132.5" fill="#ADD1B2" rx="11" ry="11" style="stroke:#181818;stroke-width:1.0;"/><path d="M2606.6356,136.5313 L2606.6356,138.5625 Q2605.1513,139.1719 2603.3231,139.1719 Q2600.6044,139.1719 2599.1513,137.4375 Q2597.6981,135.6875 2597.6981,132.5781 Q2597.6981,129.5781 2599.2763,127.7969 Q2600.8544,126 2603.5731,126 Q2605.4794,126 2607.2138,126.9219 L2606.2606,128.8281 Q2604.7606,128.0469 2603.5731,128.0469 Q2601.9638,128.0469 2600.9794,129.2656 Q2600.0106,130.4688 2600.0106,132.5938 Q2600.0106,134.8438 2600.9169,135.9844 Q2601.8388,137.125 2603.5731,137.125 Q2604.6044,137.125 2606.6356,136.5313 Z " fill="#000000"/><text fill="#000000" font-family="sans-serif" font-size="14" lengthAdjust="spacing" textLength="59" x="2617.12" y="137.3467">Archived</text><line style="stroke:#181818;stroke-width:0.5;" x1="2589.12" x2="2678.12" y1="148.5" y2="148.5"/><line style="stroke:#181818;stroke-width:0.5;" x1="2589.12" x2="2678.12" y1="156.5" y2="156.5"/></g><!--class Draft--><g id="elem_Draft"><rect codeLine="8" fill="#F5CBA7" height="48" id="Draft" rx="2.5" ry="2.5" style="stroke:#181818;stroke-width:0.5;" width="65" x="2714.12" y="116.5"/><ellipse cx="2729.12" cy="132.5" fill="#ADD1B2" rx="11" ry="11" style="stroke:#181818;stroke-width:1.0;"/><path d="M2732.6356,136.5313 L2732.6356,138.5625 Q2731.1513,139.1719 2729.3231,139.1719 Q2726.6044,139.1719 2725.1513,137.4375 Q2723.6981,135.6875 2723.6981,132.5781 Q2723.6981,129.5781 2725.2763,127.7969 Q2726.8544,126 2729.5731,126 Q2731.4794,126 2733.2138,126.9219 L2732.2606,128.8281 Q2730.7606,128.0469 2729.5731,128.0469 Q2727.9638,128.0469 2726.9794,129.2656 Q2726.0106,130.4688 2726.0106,132.5938 Q2726.0106,134.8438 2726.9169,135.9844 Q2727.8388,137.125 2729.5731,137.125 Q2730.6044,137.125 2732.6356,136.5313 Z " fill="#000000"/><text fill="#000000" font-family="sans-serif" font-size="14" lengthAdjust="spacing" textLength="33" x="2743.12" y="137.3467">Draft</text><line style="stroke:#181818;stroke-width:0.5;" x1="2715.12" x2="2778.12" y1="148.5" y2="148.5"/><line style="stroke:#181818;stroke-width:0.5;" x1="2715.12" x2="2778.12" y1="156.5" y2="156.5"/></g><!--class Resolved--><g id="elem_Resolved"><rect codeLine="10" fill="#F5CBA7" height="48" id="Resolved" rx="2.5" ry="2.5" style="stroke:#181818;stroke-width:0.5;" width="96" x="2814.62" y="116.5"/><ellipse cx="2829.62" cy="132.5" fill="#ADD1B2" rx="11" ry="11" style="stroke:#181818;stroke-width:1.0;"/><path d="M2833.1356,136.5313 L2833.1356,138.5625 Q2831.6513,139.1719 2829.8231,139.1719 Q2827.1044,139.1719 2825.6513,137.4375 Q2824.1981,135.6875 2824.1981,132.5781 Q2824.1981,129.5781 2825.7763,127.7969 Q2827.3544,126 2830.0731,126 Q2831.9794,126 2833.7138,126.9219 L2832.7606,128.8281 Q2831.2606,128.0469 2830.0731,128.0469 Q2828.4638,128.0469 2827.4794,129.2656 Q2826.5106,130.4688 2826.5106,132.5938 Q2826.5106,134.8438 2827.4169,135.9844 Q2828.3388,137.125 2830.0731,137.125 Q2831.1044,137.125 2833.1356,136.5313 Z " fill="#000000"/><text fill="#000000" font-family="sans-serif" font-size="14" lengthAdjust="spacing" textLength="64" x="2843.62" y="137.3467">Resolved</text><line style="stroke:#181818;stroke-width:0.5;" x1="2815.62" x2="2909.62" y1="148.5" y2="148.5"/><line style="stroke:#181818;stroke-width:0.5;" x1="2815.62" x2="2909.62" y1="156.5" y2="156.5"/></g><!--class In Progress--><g id="elem_In Progress"><rect codeLine="12" fill="#F5CBA7" height="48" id="In Progress" rx="2.5" ry="2.5" style="stroke:#181818;stroke-width:0.5;" width="110" x="2945.62" y="116.5"/><ellipse cx="2960.62" cy="132.5" fill="#ADD1B2" rx="11" ry="11" style="stroke:#181818;stroke-width:1.0;"/><path d="M2964.1356,136.5313 L2964.1356,138.5625 Q2962.6513,139.1719 2960.8231,139.1719 Q2958.1044,139.1719 2956.6513,137.4375 Q2955.1981,135.6875 2955.1981,132.5781 Q2955.1981,129.5781 2956.7763,127.7969 Q2958.3544,126 2961.0731,126 Q2962.9794,126 2964.7138,126.9219 L2963.7606,128.8281 Q2962.2606,128.0469 2961.0731,128.0469 Q2959.4638,128.0469 2958.4794,129.2656 Q2957.5106,130.4688 2957.5106,132.5938 Q2957.5106,134.8438 2958.4169,135.9844 Q2959.3388,137.125 2961.0731,137.125 Q2962.1044,137.125 2964.1356,136.5313 Z " fill="#000000"/><text fill="#000000" font-family="sans-serif" font-size="14" lengthAdjust="spacing" textLength="78" x="2974.62" y="137.3467">In Progress</text><line style="stroke:#181818;stroke-width:0.5;" x1="2946.62" x2="3054.62" y1="148.5" y2="148.5"/><line style="stroke:#181818;stroke-width:0.5;" x1="2946.62" x2="3054.62" y1="156.5" y2="156.5"/></g><!--class Ready For Use--><g id="elem_Ready For Use"><rect codeLine="14" fill="#F5CBA7" height="48" id="Ready For Use" rx="2.5" ry="2.5" style="stroke:#181818;stroke-width:0.5;" width="132" x="2227.62" y="429"/><ellipse cx="2242.62" cy="445" fill="#ADD1B2" rx="11" ry="11" style="stroke:#181818;stroke-width:1.0;"/><path d="M2246.1356,449.0313 L2246.1356,451.0625 Q2244.6513,451.6719 2242.8231,451.6719 Q2240.1044,451.6719 2238.6513,449.9375 Q2237.1981,448.1875 2237.1981,445.0781 Q2237.1981,442.0781 2238.7763,440.2969 Q2240.3544,438.5 2243.0731,438.5 Q2244.9794,438.5 2246.7138,439.4219 L2245.7606,441.3281 Q2244.2606,440.5469 2243.0731,440.5469 Q2241.4638,440.5469 2240.4794,441.7656 Q2239.5106,442.9688 2239.5106,445.0938 Q2239.5106,447.3438 2240.4169,448.4844 Q2241.3388,449.625 2243.0731,449.625 Q2244.1044,449.625 2246.1356,449.0313 Z " fill="#000000"/><text fill="#000000" font-family="sans-serif" font-size="14" lengthAdjust="spacing" textLength="100" x="2256.62" y="449.8467">Ready For Use</text><line style="stroke:#181818;stroke-width:0.5;" x1="2228.62" x2="2358.62" y1="461" y2="461"/><line style="stroke:#181818;stroke-width:0.5;" x1="2228.62" x2="2358.62" y1="469" y2="469"/></g><!--class Closed--><g id="elem_Closed"><rect codeLine="16" fill="#F5CBA7" height="48" id="Closed" rx="2.5" ry="2.5" style="stroke:#181818;stroke-width:0.5;" width="80" x="2394.62" y="429"/><ellipse cx="2409.62" cy="445" fill="#ADD1B2" rx="11" ry="11" style="stroke:#181818;stroke-width:1.0;"/><path d="M2413.1356,449.0313 L2413.1356,451.0625 Q2411.6513,451.6719 2409.8231,451.6719 Q2407.1044,451.6719 2405.6513,449.9375 Q2404.1981,448.1875 2404.1981,445.0781 Q2404.1981,442.0781 2405.7763,440.2969 Q2407.3544,438.5 2410.0731,438.5 Q2411.9794,438.5 2413.7138,439.4219 L2412.7606,441.3281 Q2411.2606,440.5469 2410.0731,440.5469 Q2408.4638,440.5469 2407.4794,441.7656 Q2406.5106,442.9688 2406.5106,445.0938 Q2406.5106,447.3438 2407.4169,448.4844 Q2408.3388,449.625 2410.0731,449.625 Q2411.1044,449.625 2413.1356,449.0313 Z " fill="#000000"/><text fill="#000000" font-family="sans-serif" font-size="14" lengthAdjust="spacing" textLength="48" x="2423.62" y="449.8467">Closed</text><line style="stroke:#181818;stroke-width:0.5;" x1="2395.62" x2="2473.62" y1="461" y2="461"/><line style="stroke:#181818;stroke-width:0.5;" x1="2395.62" x2="2473.62" y1="469" y2="469"/></g><!--class Open--><g id="elem_Open"><rect codeLine="18" fill="#F5CBA7" height="48" id="Open" rx="2.5" ry="2.5" style="stroke:#181818;stroke-width:0.5;" width="70" x="2509.62" y="429"/><ellipse cx="2524.62" cy="445" fill="#ADD1B2" rx="11" ry="11" style="stroke:#181818;stroke-width:1.0;"/><path d="M2528.1356,449.0313 L2528.1356,451.0625 Q2526.6513,451.6719 2524.8231,451.6719 Q2522.1044,451.6719 2520.6513,449.9375 Q2519.1981,448.1875 2519.1981,445.0781 Q2519.1981,442.0781 2520.7763,440.2969 Q2522.3544,438.5 2525.0731,438.5 Q2526.9794,438.5 2528.7138,439.4219 L2527.7606,441.3281 Q2526.2606,440.5469 2525.0731,440.5469 Q2523.4638,440.5469 2522.4794,441.7656 Q2521.5106,442.9688 2521.5106,445.0938 Q2521.5106,447.3438 2522.4169,448.4844 Q2523.3388,449.625 2525.0731,449.625 Q2526.1044,449.625 2528.1356,449.0313 Z " fill="#000000"/><text fill="#000000" font-family="sans-serif" font-size="14" lengthAdjust="spacing" textLength="38" x="2538.62" y="449.8467">Open</text><line style="stroke:#181818;stroke-width:0.5;" x1="2510.62" x2="2578.62" y1="461" y2="461"/><line style="stroke:#181818;stroke-width:0.5;" x1="2510.62" x2="2578.62" y1="469" y2="469"/></g><!--class Instrument Profile Report--><g id="elem_Instrument Profile Report"><rect codeLine="20" fill="#F5CBA7" height="48" id="Instrument Profile Report" rx="2.5" ry="2.5" style="stroke:#181818;stroke-width:0.5;" width="204" x="2614.62" y="429"/><ellipse cx="2629.62" cy="445" fill="#ADD1B2" rx="11" ry="11" style="stroke:#181818;stroke-width:1.0;"/><path d="M2633.1356,449.0313 L2633.1356,451.0625 Q2631.6513,451.6719 2629.8231,451.6719 Q2627.1044,451.6719 2625.6513,449.9375 Q2624.1981,448.1875 2624.1981,445.0781 Q2624.1981,442.0781 2625.7763,440.2969 Q2627.3544,438.5 2630.0731,438.5 Q2631.9794,438.5 2633.7138,439.4219 L2632.7606,441.3281 Q2631.2606,440.5469 2630.0731,440.5469 Q2628.4638,440.5469 2627.4794,441.7656 Q2626.5106,442.9688 2626.5106,445.0938 Q2626.5106,447.3438 2627.4169,448.4844 Q2628.3388,449.625 2630.0731,449.625 Q2631.1044,449.625 2633.1356,449.0313 Z " fill="#000000"/><text fill="#000000" font-family="sans-serif" font-size="14" lengthAdjust="spacing" textLength="172" x="2643.62" y="449.8467">Instrument Profile Report</text><line style="stroke:#181818;stroke-width:0.5;" x1="2615.62" x2="2817.62" y1="461" y2="461"/><line style="stroke:#181818;stroke-width:0.5;" x1="2615.62" x2="2817.62" y1="469" y2="469"/></g><!--class Warranty Status Report--><g id="elem_Warranty Status Report"><rect codeLine="22" fill="#F5CBA7" height="48" id="Warranty Status Report" rx="2.5" ry="2.5" style="stroke:#181818;stroke-width:0.5;" width="191" x="2854.12" y="429"/><ellipse cx="2869.12" cy="445" fill="#ADD1B2" rx="11" ry="11" style="stroke:#181818;stroke-width:1.0;"/><path d="M2872.6356,449.0313 L2872.6356,451.0625 Q2871.1513,451.6719 2869.3231,451.6719 Q2866.6044,451.6719 2865.1513,449.9375 Q2863.6981,448.1875 2863.6981,445.0781 Q2863.6981,442.0781 2865.2763,440.2969 Q2866.8544,438.5 2869.5731,438.5 Q2871.4794,438.5 2873.2138,439.4219 L2872.2606,441.3281 Q2870.7606,440.5469 2869.5731,440.5469 Q2867.9638,440.5469 2866.9794,441.7656 Q2866.0106,442.9688 2866.0106,445.0938 Q2866.0106,447.3438 2866.9169,448.4844 Q2867.8388,449.625 2869.5731,449.625 Q2870.6044,449.625 2872.6356,449.0313 Z " fill="#000000"/><text fill="#000000" font-family="sans-serif" font-size="14" lengthAdjust="spacing" textLength="159" x="2883.12" y="449.8467">Warranty Status Report</text><line style="stroke:#181818;stroke-width:0.5;" x1="2855.12" x2="3044.12" y1="461" y2="461"/><line style="stroke:#181818;stroke-width:0.5;" x1="2855.12" x2="3044.12" y1="469" y2="469"/></g><!--class Instrument Service History--><g id="elem_Instrument Service History"><rect codeLine="24" fill="#F5CBA7" height="48" id="Instrument Service History" rx="2.5" ry="2.5" style="stroke:#181818;stroke-width:0.5;" width="212" x="3080.62" y="429"/><ellipse cx="3095.62" cy="445" fill="#ADD1B2" rx="11" ry="11" style="stroke:#181818;stroke-width:1.0;"/><path d="M3099.1356,449.0313 L3099.1356,451.0625 Q3097.6513,451.6719 3095.8231,451.6719 Q3093.1044,451.6719 3091.6513,449.9375 Q3090.1981,448.1875 3090.1981,445.0781 Q3090.1981,442.0781 3091.7763,440.2969 Q3093.3544,438.5 3096.0731,438.5 Q3097.9794,438.5 3099.7138,439.4219 L3098.7606,441.3281 Q3097.2606,440.5469 3096.0731,440.5469 Q3094.4638,440.5469 3093.4794,441.7656 Q3092.5106,442.9688 3092.5106,445.0938 Q3092.5106,447.3438 3093.4169,448.4844 Q3094.3388,449.625 3096.0731,449.625 Q3097.1044,449.625 3099.1356,449.0313 Z " fill="#000000"/><text fill="#000000" font-family="sans-serif" font-size="14" lengthAdjust="spacing" textLength="180" x="3109.62" y="449.8467">Instrument Service History</text><line style="stroke:#181818;stroke-width:0.5;" x1="3081.62" x2="3291.62" y1="461" y2="461"/><line style="stroke:#181818;stroke-width:0.5;" x1="3081.62" x2="3291.62" y1="469" y2="469"/></g><!--class Instrument Inventory Report--><g id="elem_Instrument Inventory Report"><rect codeLine="26" fill="#F5CBA7" height="48" id="Instrument Inventory Report" rx="2.5" ry="2.5" style="stroke:#181818;stroke-width:0.5;" width="225" x="1826.12" y="774"/><ellipse cx="1841.12" cy="790" fill="#ADD1B2" rx="11" ry="11" style="stroke:#181818;stroke-width:1.0;"/><path d="M1844.6356,794.0313 L1844.6356,796.0625 Q1843.1513,796.6719 1841.3231,796.6719 Q1838.6044,796.6719 1837.1513,794.9375 Q1835.6981,793.1875 1835.6981,790.0781 Q1835.6981,787.0781 1837.2763,785.2969 Q1838.8544,783.5 1841.5731,783.5 Q1843.4794,783.5 1845.2138,784.4219 L1844.2606,786.3281 Q1842.7606,785.5469 1841.5731,785.5469 Q1839.9638,785.5469 1838.9794,786.7656 Q1838.0106,787.9688 1838.0106,790.0938 Q1838.0106,792.3438 1838.9169,793.4844 Q1839.8388,794.625 1841.5731,794.625 Q1842.6044,794.625 1844.6356,794.0313 Z " fill="#000000"/><text fill="#000000" font-family="sans-serif" font-size="14" lengthAdjust="spacing" textLength="193" x="1855.12" y="794.8467">Instrument Inventory Report</text><line style="stroke:#181818;stroke-width:0.5;" x1="1827.12" x2="2050.12" y1="806" y2="806"/><line style="stroke:#181818;stroke-width:0.5;" x1="1827.12" x2="2050.12" y1="814" y2="814"/></g><!--class Pending Client Instruments--><g id="elem_Pending Client Instruments"><rect codeLine="28" fill="#F5CBA7" height="48" id="Pending Client Instruments" rx="2.5" ry="2.5" style="stroke:#181818;stroke-width:0.5;" width="219" x="2086.12" y="774"/><ellipse cx="2101.12" cy="790" fill="#ADD1B2" rx="11" ry="11" style="stroke:#181818;stroke-width:1.0;"/><path d="M2104.6356,794.0313 L2104.6356,796.0625 Q2103.1513,796.6719 2101.3231,796.6719 Q2098.6044,796.6719 2097.1513,794.9375 Q2095.6981,793.1875 2095.6981,790.0781 Q2095.6981,787.0781 2097.2763,785.2969 Q2098.8544,783.5 2101.5731,783.5 Q2103.4794,783.5 2105.2138,784.4219 L2104.2606,786.3281 Q2102.7606,785.5469 2101.5731,785.5469 Q2099.9638,785.5469 2098.9794,786.7656 Q2098.0106,787.9688 2098.0106,790.0938 Q2098.0106,792.3438 2098.9169,793.4844 Q2099.8388,794.625 2101.5731,794.625 Q2102.6044,794.625 2104.6356,794.0313 Z " fill="#000000"/><text fill="#000000" font-family="sans-serif" font-size="14" lengthAdjust="spacing" textLength="187" x="2115.12" y="794.8467">Pending Client Instruments</text><line style="stroke:#181818;stroke-width:0.5;" x1="2087.12" x2="2304.12" y1="806" y2="806"/><line style="stroke:#181818;stroke-width:0.5;" x1="2087.12" x2="2304.12" y1="814" y2="814"/></g><!--class Instrument Profile--><g id="elem_Instrument Profile"><rect codeLine="116" fill="#F5CBA7" height="357.6406" id="Instrument Profile" rx="2.5" ry="2.5" style="stroke:#181818;stroke-width:0.5;" width="237" x="664.12" y="274"/><ellipse cx="717.87" cy="290" fill="#ADD1B2" rx="11" ry="11" style="stroke:#181818;stroke-width:1.0;"/><path d="M721.3856,294.0313 L721.3856,296.0625 Q719.9013,296.6719 718.0731,296.6719 Q715.3544,296.6719 713.9013,294.9375 Q712.4481,293.1875 712.4481,290.0781 Q712.4481,287.0781 714.0263,285.2969 Q715.6044,283.5 718.3231,283.5 Q720.2294,283.5 721.9638,284.4219 L721.0106,286.3281 Q719.5106,285.5469 718.3231,285.5469 Q716.7138,285.5469 715.7294,286.7656 Q714.7606,287.9688 714.7606,290.0938 Q714.7606,292.3438 715.6669,293.4844 Q716.5888,294.625 718.3231,294.625 Q719.3544,294.625 721.3856,294.0313 Z " fill="#000000"/><text fill="#000000" font-family="sans-serif" font-size="14" lengthAdjust="spacing" textLength="121" x="738.37" y="294.8467">Instrument Profile</text><line style="stroke:#181818;stroke-width:0.5;" x1="665.12" x2="900.12" y1="306" y2="306"/><text fill="#000000" font-family="sans-serif" font-size="14" lengthAdjust="spacing" textLength="142" x="670.12" y="322.9951">serial_number : Data</text><text fill="#000000" font-family="sans-serif" font-size="14" lengthAdjust="spacing" textLength="99" x="670.12" y="339.292">status : Select</text><text fill="#000000" font-family="sans-serif" font-size="14" lengthAdjust="spacing" textLength="148" x="670.12" y="355.5889">profile_status : Select</text><text fill="#000000" font-family="sans-serif" font-size="14" lengthAdjust="spacing" textLength="85" x="670.12" y="371.8857">brand : Data</text><text fill="#000000" font-family="sans-serif" font-size="14" lengthAdjust="spacing" textLength="88" x="670.12" y="388.1826">model : Data</text><text fill="#000000" font-family="sans-serif" font-size="14" lengthAdjust="spacing" textLength="198" x="670.12" y="404.4795">instrument_category : Select</text><text fill="#000000" font-family="sans-serif" font-size="14" lengthAdjust="spacing" textLength="83" x="670.12" y="420.7764">owner : Link</text><text fill="#000000" font-family="sans-serif" font-size="14" lengthAdjust="spacing" textLength="177" x="670.12" y="437.0732">purchase_receipt : Attach</text><text fill="#000000" font-family="sans-serif" font-size="14" lengthAdjust="spacing" textLength="182" x="670.12" y="453.3701">external_work_logs : Table</text><text fill="#000000" font-family="sans-serif" font-size="14" lengthAdjust="spacing" textLength="172" x="670.12" y="469.667">condition_images : Table</text><text fill="#000000" font-family="sans-serif" font-size="14" lengthAdjust="spacing" textLength="213" x="670.12" y="485.9639">repair_preferences : Small Text</text><text fill="#000000" font-family="sans-serif" font-size="14" lengthAdjust="spacing" textLength="179" x="670.12" y="502.2607">verification_status : Select</text><text fill="#000000" font-family="sans-serif" font-size="14" lengthAdjust="spacing" textLength="161" x="670.12" y="518.5576">technician_notes : Text</text><text fill="#000000" font-family="sans-serif" font-size="14" lengthAdjust="spacing" textLength="193" x="670.12" y="534.8545">ownership_transfer_to : Link</text><text fill="#000000" font-family="sans-serif" font-size="14" lengthAdjust="spacing" textLength="225" x="670.12" y="551.1514">anonymize_for_research : Check</text><text fill="#000000" font-family="sans-serif" font-size="14" lengthAdjust="spacing" textLength="136" x="670.12" y="567.4482">consent_log : Table</text><text fill="#000000" font-family="sans-serif" font-size="14" lengthAdjust="spacing" textLength="175" x="670.12" y="583.7451">document_history : Table</text><text fill="#000000" font-family="sans-serif" font-size="14" lengthAdjust="spacing" textLength="133" x="670.12" y="600.042">is_archived : Check</text><text fill="#000000" font-family="sans-serif" font-size="14" lengthAdjust="spacing" textLength="101" x="670.12" y="616.3389">qr_code : Data</text><line style="stroke:#181818;stroke-width:0.5;" x1="665.12" x2="900.12" y1="623.6406" y2="623.6406"/></g><!--class Technician Verification Workspace--><g id="elem_Technician Verification Workspace"><rect codeLine="32" fill="#F5CBA7" height="48" id="Technician Verification Workspace" rx="2.5" ry="2.5" style="stroke:#181818;stroke-width:0.5;" width="267" x="2340.12" y="774"/><ellipse cx="2355.12" cy="790" fill="#ADD1B2" rx="11" ry="11" style="stroke:#181818;stroke-width:1.0;"/><path d="M2358.6356,794.0313 L2358.6356,796.0625 Q2357.1513,796.6719 2355.3231,796.6719 Q2352.6044,796.6719 2351.1513,794.9375 Q2349.6981,793.1875 2349.6981,790.0781 Q2349.6981,787.0781 2351.2763,785.2969 Q2352.8544,783.5 2355.5731,783.5 Q2357.4794,783.5 2359.2138,784.4219 L2358.2606,786.3281 Q2356.7606,785.5469 2355.5731,785.5469 Q2353.9638,785.5469 2352.9794,786.7656 Q2352.0106,787.9688 2352.0106,790.0938 Q2352.0106,792.3438 2352.9169,793.4844 Q2353.8388,794.625 2355.5731,794.625 Q2356.6044,794.625 2358.6356,794.0313 Z " fill="#000000"/><text fill="#000000" font-family="sans-serif" font-size="14" lengthAdjust="spacing" textLength="235" x="2369.12" y="794.8467">Technician Verification Workspace</text><line style="stroke:#181818;stroke-width:0.5;" x1="2341.12" x2="2606.12" y1="806" y2="806"/><line style="stroke:#181818;stroke-width:0.5;" x1="2341.12" x2="2606.12" y1="814" y2="814"/></g><!--class Instrument Setup--><g id="elem_Instrument Setup"><rect codeLine="34" fill="#F5CBA7" height="48" id="Instrument Setup" rx="2.5" ry="2.5" style="stroke:#181818;stroke-width:0.5;" width="152" x="2642.62" y="774"/><ellipse cx="2657.62" cy="790" fill="#ADD1B2" rx="11" ry="11" style="stroke:#181818;stroke-width:1.0;"/><path d="M2661.1356,794.0313 L2661.1356,796.0625 Q2659.6513,796.6719 2657.8231,796.6719 Q2655.1044,796.6719 2653.6513,794.9375 Q2652.1981,793.1875 2652.1981,790.0781 Q2652.1981,787.0781 2653.7763,785.2969 Q2655.3544,783.5 2658.0731,783.5 Q2659.9794,783.5 2661.7138,784.4219 L2660.7606,786.3281 Q2659.2606,785.5469 2658.0731,785.5469 Q2656.4638,785.5469 2655.4794,786.7656 Q2654.5106,787.9688 2654.5106,790.0938 Q2654.5106,792.3438 2655.4169,793.4844 Q2656.3388,794.625 2658.0731,794.625 Q2659.1044,794.625 2661.1356,794.0313 Z " fill="#000000"/><text fill="#000000" font-family="sans-serif" font-size="14" lengthAdjust="spacing" textLength="120" x="2671.62" y="794.8467">Instrument Setup</text><line style="stroke:#181818;stroke-width:0.5;" x1="2643.62" x2="2793.62" y1="806" y2="806"/><line style="stroke:#181818;stroke-width:0.5;" x1="2643.62" x2="2793.62" y1="814" y2="814"/></g><!--class Instrument Profile Workspace--><g id="elem_Instrument Profile Workspace"><rect codeLine="36" fill="#F5CBA7" height="48" id="Instrument Profile Workspace" rx="2.5" ry="2.5" style="stroke:#181818;stroke-width:0.5;" width="234" x="2829.62" y="774"/><ellipse cx="2844.62" cy="790" fill="#ADD1B2" rx="11" ry="11" style="stroke:#181818;stroke-width:1.0;"/><path d="M2848.1356,794.0313 L2848.1356,796.0625 Q2846.6513,796.6719 2844.8231,796.6719 Q2842.1044,796.6719 2840.6513,794.9375 Q2839.1981,793.1875 2839.1981,790.0781 Q2839.1981,787.0781 2840.7763,785.2969 Q2842.3544,783.5 2845.0731,783.5 Q2846.9794,783.5 2848.7138,784.4219 L2847.7606,786.3281 Q2846.2606,785.5469 2845.0731,785.5469 Q2843.4638,785.5469 2842.4794,786.7656 Q2841.5106,787.9688 2841.5106,790.0938 Q2841.5106,792.3438 2842.4169,793.4844 Q2843.3388,794.625 2845.0731,794.625 Q2846.1044,794.625 2848.1356,794.0313 Z " fill="#000000"/><text fill="#000000" font-family="sans-serif" font-size="14" lengthAdjust="spacing" textLength="202" x="2858.62" y="794.8467">Instrument Profile Workspace</text><line style="stroke:#181818;stroke-width:0.5;" x1="2830.62" x2="3062.62" y1="806" y2="806"/><line style="stroke:#181818;stroke-width:0.5;" x1="2830.62" x2="3062.62" y1="814" y2="814"/></g><!--class Instrument Intake Batch--><g id="elem_Instrument Intake Batch"><rect codeLine="139" fill="#F5CBA7" height="145.7813" id="Instrument Intake Batch" rx="2.5" ry="2.5" style="stroke:#181818;stroke-width:0.5;" width="197" x="1390.12" y="380"/><ellipse cx="1405.12" cy="396" fill="#ADD1B2" rx="11" ry="11" style="stroke:#181818;stroke-width:1.0;"/><path d="M1408.6356,400.0313 L1408.6356,402.0625 Q1407.1513,402.6719 1405.3231,402.6719 Q1402.6044,402.6719 1401.1513,400.9375 Q1399.6981,399.1875 1399.6981,396.0781 Q1399.6981,393.0781 1401.2763,391.2969 Q1402.8544,389.5 1405.5731,389.5 Q1407.4794,389.5 1409.2138,390.4219 L1408.2606,392.3281 Q1406.7606,391.5469 1405.5731,391.5469 Q1403.9638,391.5469 1402.9794,392.7656 Q1402.0106,393.9688 1402.0106,396.0938 Q1402.0106,398.3438 1402.9169,399.4844 Q1403.8388,400.625 1405.5731,400.625 Q1406.6044,400.625 1408.6356,400.0313 Z " fill="#000000"/><text fill="#000000" font-family="sans-serif" font-size="14" lengthAdjust="spacing" textLength="165" x="1419.12" y="400.8467">Instrument Intake Batch</text><line style="stroke:#181818;stroke-width:0.5;" x1="1391.12" x2="1586.12" y1="412" y2="412"/><text fill="#000000" font-family="sans-serif" font-size="14" lengthAdjust="spacing" textLength="77" x="1396.12" y="428.9951">date : Date</text><text fill="#000000" font-family="sans-serif" font-size="14" lengthAdjust="spacing" textLength="168" x="1396.12" y="445.292">instrument_type : Select</text><text fill="#000000" font-family="sans-serif" font-size="14" lengthAdjust="spacing" textLength="95" x="1396.12" y="461.5889">supplier : Link</text><text fill="#000000" font-family="sans-serif" font-size="14" lengthAdjust="spacing" textLength="174" x="1396.12" y="477.8857">add_to_inventory : Check</text><text fill="#000000" font-family="sans-serif" font-size="14" lengthAdjust="spacing" textLength="158" x="1396.12" y="494.1826">create_profiles : Check</text><text fill="#000000" font-family="sans-serif" font-size="14" lengthAdjust="spacing" textLength="99" x="1396.12" y="510.4795">entries : Table</text><line style="stroke:#181818;stroke-width:0.5;" x1="1391.12" x2="1586.12" y1="517.7813" y2="517.7813"/></g><!--class Client Instrument Profile--><g id="elem_Client Instrument Profile"><rect codeLine="183" fill="#F5CBA7" height="259.8594" id="Client Instrument Profile" rx="2.5" ry="2.5" style="stroke:#181818;stroke-width:0.5;" width="237" x="159.12" y="964"/><ellipse cx="192.57" cy="980" fill="#ADD1B2" rx="11" ry="11" style="stroke:#181818;stroke-width:1.0;"/><path d="M196.0856,984.0313 L196.0856,986.0625 Q194.6013,986.6719 192.7731,986.6719 Q190.0544,986.6719 188.6013,984.9375 Q187.1481,983.1875 187.1481,980.0781 Q187.1481,977.0781 188.7263,975.2969 Q190.3044,973.5 193.0231,973.5 Q194.9294,973.5 196.6638,974.4219 L195.7106,976.3281 Q194.2106,975.5469 193.0231,975.5469 Q191.4138,975.5469 190.4294,976.7656 Q189.4606,977.9688 189.4606,980.0938 Q189.4606,982.3438 190.3669,983.4844 Q191.2888,984.625 193.0231,984.625 Q194.0544,984.625 196.0856,984.0313 Z " fill="#000000"/><text fill="#000000" font-family="sans-serif" font-size="14" lengthAdjust="spacing" textLength="164" x="210.67" y="984.8467">Client Instrument Profile</text><line style="stroke:#181818;stroke-width:0.5;" x1="160.12" x2="395.12" y1="996" y2="996"/><text fill="#000000" font-family="sans-serif" font-size="14" lengthAdjust="spacing" textLength="83" x="165.12" y="1012.9951">owner : Link</text><text fill="#000000" font-family="sans-serif" font-size="14" lengthAdjust="spacing" textLength="170" x="165.12" y="1029.292">instrument_model : Data</text><text fill="#000000" font-family="sans-serif" font-size="14" lengthAdjust="spacing" textLength="142" x="165.12" y="1045.5889">serial_number : Data</text><text fill="#000000" font-family="sans-serif" font-size="14" lengthAdjust="spacing" textLength="198" x="165.12" y="1061.8857">instrument_category : Select</text><text fill="#000000" font-family="sans-serif" font-size="14" lengthAdjust="spacing" textLength="177" x="165.12" y="1078.1826">purchase_receipt : Attach</text><text fill="#000000" font-family="sans-serif" font-size="14" lengthAdjust="spacing" textLength="182" x="165.12" y="1094.4795">external_work_logs : Table</text><text fill="#000000" font-family="sans-serif" font-size="14" lengthAdjust="spacing" textLength="172" x="165.12" y="1110.7764">condition_images : Table</text><text fill="#000000" font-family="sans-serif" font-size="14" lengthAdjust="spacing" textLength="213" x="165.12" y="1127.0732">repair_preferences : Small Text</text><text fill="#000000" font-family="sans-serif" font-size="14" lengthAdjust="spacing" textLength="179" x="165.12" y="1143.3701">verification_status : Select</text><text fill="#000000" font-family="sans-serif" font-size="14" lengthAdjust="spacing" textLength="161" x="165.12" y="1159.667">technician_notes : Text</text><text fill="#000000" font-family="sans-serif" font-size="14" lengthAdjust="spacing" textLength="193" x="165.12" y="1175.9639">ownership_transfer_to : Link</text><text fill="#000000" font-family="sans-serif" font-size="14" lengthAdjust="spacing" textLength="225" x="165.12" y="1192.2607">anonymize_for_research : Check</text><text fill="#000000" font-family="sans-serif" font-size="14" lengthAdjust="spacing" textLength="136" x="165.12" y="1208.5576">consent_log : Table</text><line style="stroke:#181818;stroke-width:0.5;" x1="160.12" x2="395.12" y1="1215.8594" y2="1215.8594"/></g><!--class Instrument Registration--><g id="elem_Instrument Registration"><rect codeLine="42" fill="#F5CBA7" height="48" id="Instrument Registration" rx="2.5" ry="2.5" style="stroke:#181818;stroke-width:0.5;" width="194" x="3098.62" y="774"/><ellipse cx="3113.62" cy="790" fill="#ADD1B2" rx="11" ry="11" style="stroke:#181818;stroke-width:1.0;"/><path d="M3117.1356,794.0313 L3117.1356,796.0625 Q3115.6513,796.6719 3113.8231,796.6719 Q3111.1044,796.6719 3109.6513,794.9375 Q3108.1981,793.1875 3108.1981,790.0781 Q3108.1981,787.0781 3109.7763,785.2969 Q3111.3544,783.5 3114.0731,783.5 Q3115.9794,783.5 3117.7138,784.4219 L3116.7606,786.3281 Q3115.2606,785.5469 3114.0731,785.5469 Q3112.4638,785.5469 3111.4794,786.7656 Q3110.5106,787.9688 3110.5106,790.0938 Q3110.5106,792.3438 3111.4169,793.4844 Q3112.3388,794.625 3114.0731,794.625 Q3115.1044,794.625 3117.1356,794.0313 Z " fill="#000000"/><text fill="#000000" font-family="sans-serif" font-size="14" lengthAdjust="spacing" textLength="162" x="3127.62" y="794.8467">Instrument Registration</text><line style="stroke:#181818;stroke-width:0.5;" x1="3099.62" x2="3291.62" y1="806" y2="806"/><line style="stroke:#181818;stroke-width:0.5;" x1="3099.62" x2="3291.62" y1="814" y2="814"/></g><!--class Instrument Status Change--><g id="elem_Instrument Status Change"><rect codeLine="44" fill="#F5CBA7" height="48" id="Instrument Status Change" rx="2.5" ry="2.5" style="stroke:#181818;stroke-width:0.5;" width="213" x="1832.12" y="1070"/><ellipse cx="1847.12" cy="1086" fill="#ADD1B2" rx="11" ry="11" style="stroke:#181818;stroke-width:1.0;"/><path d="M1850.6356,1090.0313 L1850.6356,1092.0625 Q1849.1513,1092.6719 1847.3231,1092.6719 Q1844.6044,1092.6719 1843.1513,1090.9375 Q1841.6981,1089.1875 1841.6981,1086.0781 Q1841.6981,1083.0781 1843.2763,1081.2969 Q1844.8544,1079.5 1847.5731,1079.5 Q1849.4794,1079.5 1851.2138,1080.4219 L1850.2606,1082.3281 Q1848.7606,1081.5469 1847.5731,1081.5469 Q1845.9638,1081.5469 1844.9794,1082.7656 Q1844.0106,1083.9688 1844.0106,1086.0938 Q1844.0106,1088.3438 1844.9169,1089.4844 Q1845.8388,1090.625 1847.5731,1090.625 Q1848.6044,1090.625 1850.6356,1090.0313 Z " fill="#000000"/><text fill="#000000" font-family="sans-serif" font-size="14" lengthAdjust="spacing" textLength="181" x="1861.12" y="1090.8467">Instrument Status Change</text><line style="stroke:#181818;stroke-width:0.5;" x1="1833.12" x2="2044.12" y1="1102" y2="1102"/><line style="stroke:#181818;stroke-width:0.5;" x1="1833.12" x2="2044.12" y1="1110" y2="1110"/></g><!--class Unnamed--><g id="elem_Unnamed"><rect codeLine="204" fill="#F5CBA7" height="48" id="Unnamed" rx="2.5" ry="2.5" style="stroke:#181818;stroke-width:0.5;" width="99" x="2080.12" y="1070"/><ellipse cx="2095.12" cy="1086" fill="#ADD1B2" rx="11" ry="11" style="stroke:#181818;stroke-width:1.0;"/><path d="M2098.6356,1090.0313 L2098.6356,1092.0625 Q2097.1513,1092.6719 2095.3231,1092.6719 Q2092.6044,1092.6719 2091.1513,1090.9375 Q2089.6981,1089.1875 2089.6981,1086.0781 Q2089.6981,1083.0781 2091.2763,1081.2969 Q2092.8544,1079.5 2095.5731,1079.5 Q2097.4794,1079.5 2099.2138,1080.4219 L2098.2606,1082.3281 Q2096.7606,1081.5469 2095.5731,1081.5469 Q2093.9638,1081.5469 2092.9794,1082.7656 Q2092.0106,1083.9688 2092.0106,1086.0938 Q2092.0106,1088.3438 2092.9169,1089.4844 Q2093.8388,1090.625 2095.5731,1090.625 Q2096.6044,1090.625 2098.6356,1090.0313 Z " fill="#000000"/><text fill="#000000" font-family="sans-serif" font-size="14" lengthAdjust="spacing" textLength="67" x="2109.12" y="1090.8467">Unnamed</text><line style="stroke:#181818;stroke-width:0.5;" x1="2081.12" x2="2178.12" y1="1102" y2="1102"/><line style="stroke:#181818;stroke-width:0.5;" x1="2081.12" x2="2178.12" y1="1110" y2="1110"/></g><!--class Instrument Profile Dashboard--><g id="elem_Instrument Profile Dashboard"><rect codeLine="52" fill="#F5CBA7" height="48" id="Instrument Profile Dashboard" rx="2.5" ry="2.5" style="stroke:#181818;stroke-width:0.5;" width="233" x="2214.12" y="1070"/><ellipse cx="2229.12" cy="1086" fill="#ADD1B2" rx="11" ry="11" style="stroke:#181818;stroke-width:1.0;"/><path d="M2232.6356,1090.0313 L2232.6356,1092.0625 Q2231.1513,1092.6719 2229.3231,1092.6719 Q2226.6044,1092.6719 2225.1513,1090.9375 Q2223.6981,1089.1875 2223.6981,1086.0781 Q2223.6981,1083.0781 2225.2763,1081.2969 Q2226.8544,1079.5 2229.5731,1079.5 Q2231.4794,1079.5 2233.2138,1080.4219 L2232.2606,1082.3281 Q2230.7606,1081.5469 2229.5731,1081.5469 Q2227.9638,1081.5469 2226.9794,1082.7656 Q2226.0106,1083.9688 2226.0106,1086.0938 Q2226.0106,1088.3438 2226.9169,1089.4844 Q2227.8388,1090.625 2229.5731,1090.625 Q2230.6044,1090.625 2232.6356,1090.0313 Z " fill="#000000"/><text fill="#000000" font-family="sans-serif" font-size="14" lengthAdjust="spacing" textLength="201" x="2243.12" y="1090.8467">Instrument Profile Dashboard</text><line style="stroke:#181818;stroke-width:0.5;" x1="2215.12" x2="2446.12" y1="1102" y2="1102"/><line style="stroke:#181818;stroke-width:0.5;" x1="2215.12" x2="2446.12" y1="1110" y2="1110"/></g><!--class Instrument Status Distribution--><g id="elem_Instrument Status Distribution"><rect codeLine="54" fill="#F5CBA7" height="48" id="Instrument Status Distribution" rx="2.5" ry="2.5" style="stroke:#181818;stroke-width:0.5;" width="238" x="2482.62" y="1070"/><ellipse cx="2497.62" cy="1086" fill="#ADD1B2" rx="11" ry="11" style="stroke:#181818;stroke-width:1.0;"/><path d="M2501.1356,1090.0313 L2501.1356,1092.0625 Q2499.6513,1092.6719 2497.8231,1092.6719 Q2495.1044,1092.6719 2493.6513,1090.9375 Q2492.1981,1089.1875 2492.1981,1086.0781 Q2492.1981,1083.0781 2493.7763,1081.2969 Q2495.3544,1079.5 2498.0731,1079.5 Q2499.9794,1079.5 2501.7138,1080.4219 L2500.7606,1082.3281 Q2499.2606,1081.5469 2498.0731,1081.5469 Q2496.4638,1081.5469 2495.4794,1082.7656 Q2494.5106,1083.9688 2494.5106,1086.0938 Q2494.5106,1088.3438 2495.4169,1089.4844 Q2496.3388,1090.625 2498.0731,1090.625 Q2499.1044,1090.625 2501.1356,1090.0313 Z " fill="#000000"/><text fill="#000000" font-family="sans-serif" font-size="14" lengthAdjust="spacing" textLength="206" x="2511.62" y="1090.8467">Instrument Status Distribution</text><line style="stroke:#181818;stroke-width:0.5;" x1="2483.62" x2="2719.62" y1="1102" y2="1102"/><line style="stroke:#181818;stroke-width:0.5;" x1="2483.62" x2="2719.62" y1="1110" y2="1110"/></g><!--class Warranty Distribution--><g id="elem_Warranty Distribution"><rect codeLine="56" fill="#F5CBA7" height="48" id="Warranty Distribution" rx="2.5" ry="2.5" style="stroke:#181818;stroke-width:0.5;" width="175" x="2756.12" y="1070"/><ellipse cx="2771.12" cy="1086" fill="#ADD1B2" rx="11" ry="11" style="stroke:#181818;stroke-width:1.0;"/><path d="M2774.6356,1090.0313 L2774.6356,1092.0625 Q2773.1513,1092.6719 2771.3231,1092.6719 Q2768.6044,1092.6719 2767.1513,1090.9375 Q2765.6981,1089.1875 2765.6981,1086.0781 Q2765.6981,1083.0781 2767.2763,1081.2969 Q2768.8544,1079.5 2771.5731,1079.5 Q2773.4794,1079.5 2775.2138,1080.4219 L2774.2606,1082.3281 Q2772.7606,1081.5469 2771.5731,1081.5469 Q2769.9638,1081.5469 2768.9794,1082.7656 Q2768.0106,1083.9688 2768.0106,1086.0938 Q2768.0106,1088.3438 2768.9169,1089.4844 Q2769.8388,1090.625 2771.5731,1090.625 Q2772.6044,1090.625 2774.6356,1090.0313 Z " fill="#000000"/><text fill="#000000" font-family="sans-serif" font-size="14" lengthAdjust="spacing" textLength="143" x="2785.12" y="1090.8467">Warranty Distribution</text><line style="stroke:#181818;stroke-width:0.5;" x1="2757.12" x2="2930.12" y1="1102" y2="1102"/><line style="stroke:#181818;stroke-width:0.5;" x1="2757.12" x2="2930.12" y1="1110" y2="1110"/></g><!--class Instrument--><g id="elem_Instrument"><rect fill="#F1F1F1" height="48" id="Instrument" rx="2.5" ry="2.5" style="stroke:#181818;stroke-width:0.5;" width="107" x="2085.12" y="429"/><ellipse cx="2100.12" cy="445" fill="#ADD1B2" rx="11" ry="11" style="stroke:#181818;stroke-width:1.0;"/><path d="M2103.6356,449.0313 L2103.6356,451.0625 Q2102.1513,451.6719 2100.3231,451.6719 Q2097.6044,451.6719 2096.1513,449.9375 Q2094.6981,448.1875 2094.6981,445.0781 Q2094.6981,442.0781 2096.2763,440.2969 Q2097.8544,438.5 2100.5731,438.5 Q2102.4794,438.5 2104.2138,439.4219 L2103.2606,441.3281 Q2101.7606,440.5469 2100.5731,440.5469 Q2098.9638,440.5469 2097.9794,441.7656 Q2097.0106,442.9688 2097.0106,445.0938 Q2097.0106,447.3438 2097.9169,448.4844 Q2098.8388,449.625 2100.5731,449.625 Q2101.6044,449.625 2103.6356,449.0313 Z " fill="#000000"/><text fill="#000000" font-family="sans-serif" font-size="14" lengthAdjust="spacing" textLength="75" x="2114.12" y="449.8467">Instrument</text><line style="stroke:#181818;stroke-width:0.5;" x1="2086.12" x2="2191.12" y1="461" y2="461"/><line style="stroke:#181818;stroke-width:0.5;" x1="2086.12" x2="2191.12" y1="469" y2="469"/></g><!--class Instrument Condition Record--><g id="elem_Instrument Condition Record"><rect codeLine="62" fill="#F5CBA7" height="129.4844" id="Instrument Condition Record" rx="2.5" ry="2.5" style="stroke:#181818;stroke-width:0.5;" width="231" x="1560.12" y="733.5"/><ellipse cx="1575.12" cy="749.5" fill="#ADD1B2" rx="11" ry="11" style="stroke:#181818;stroke-width:1.0;"/><path d="M1578.6356,753.5313 L1578.6356,755.5625 Q1577.1513,756.1719 1575.3231,756.1719 Q1572.6044,756.1719 1571.1513,754.4375 Q1569.6981,752.6875 1569.6981,749.5781 Q1569.6981,746.5781 1571.2763,744.7969 Q1572.8544,743 1575.5731,743 Q1577.4794,743 1579.2138,743.9219 L1578.2606,745.8281 Q1576.7606,745.0469 1575.5731,745.0469 Q1573.9638,745.0469 1572.9794,746.2656 Q1572.0106,747.4688 1572.0106,749.5938 Q1572.0106,751.8438 1572.9169,752.9844 Q1573.8388,754.125 1575.5731,754.125 Q1576.6044,754.125 1578.6356,753.5313 Z " fill="#000000"/><text fill="#000000" font-family="sans-serif" font-size="14" lengthAdjust="spacing" textLength="199" x="1589.12" y="754.3467">Instrument Condition Record</text><line style="stroke:#181818;stroke-width:0.5;" x1="1561.12" x2="1790.12" y1="765.5" y2="765.5"/><text fill="#000000" font-family="sans-serif" font-size="14" lengthAdjust="spacing" textLength="115" x="1566.12" y="782.4951">instrument : Link</text><text fill="#000000" font-family="sans-serif" font-size="14" lengthAdjust="spacing" textLength="120" x="1566.12" y="798.792">condition : Select</text><text fill="#000000" font-family="sans-serif" font-size="14" lengthAdjust="spacing" textLength="149" x="1566.12" y="815.0889">date_of_record : Date</text><text fill="#000000" font-family="sans-serif" font-size="14" lengthAdjust="spacing" textLength="126" x="1566.12" y="831.3857">recorded_by : Link</text><text fill="#000000" font-family="sans-serif" font-size="14" lengthAdjust="spacing" textLength="83" x="1566.12" y="847.6826">notes : Text</text><line style="stroke:#181818;stroke-width:0.5;" x1="1561.12" x2="1790.12" y1="854.9844" y2="854.9844"/></g><!--class User--><g id="elem_User"><rect fill="#F1F1F1" height="48" id="User" rx="2.5" ry="2.5" style="stroke:#181818;stroke-width:0.5;" width="64" x="1825.62" y="429"/><ellipse cx="1840.62" cy="445" fill="#ADD1B2" rx="11" ry="11" style="stroke:#181818;stroke-width:1.0;"/><path d="M1844.1356,449.0313 L1844.1356,451.0625 Q1842.6513,451.6719 1840.8231,451.6719 Q1838.1044,451.6719 1836.6513,449.9375 Q1835.1981,448.1875 1835.1981,445.0781 Q1835.1981,442.0781 1836.7763,440.2969 Q1838.3544,438.5 1841.0731,438.5 Q1842.9794,438.5 1844.7138,439.4219 L1843.7606,441.3281 Q1842.2606,440.5469 1841.0731,440.5469 Q1839.4638,440.5469 1838.4794,441.7656 Q1837.5106,442.9688 1837.5106,445.0938 Q1837.5106,447.3438 1838.4169,448.4844 Q1839.3388,449.625 1841.0731,449.625 Q1842.1044,449.625 1844.1356,449.0313 Z " fill="#000000"/><text fill="#000000" font-family="sans-serif" font-size="14" lengthAdjust="spacing" textLength="32" x="1854.62" y="449.8467">User</text><line style="stroke:#181818;stroke-width:0.5;" x1="1826.62" x2="1888.62" y1="461" y2="461"/><line style="stroke:#181818;stroke-width:0.5;" x1="1826.62" x2="1888.62" y1="469" y2="469"/></g><!--class Intake Entry--><g id="elem_Intake Entry"><rect codeLine="69" fill="#F5CBA7" height="113.1875" id="Intake Entry" rx="2.5" ry="2.5" style="stroke:#181818;stroke-width:0.5;" width="154" x="1281.62" y="84"/><ellipse cx="1315.07" cy="100" fill="#ADD1B2" rx="11" ry="11" style="stroke:#181818;stroke-width:1.0;"/><path d="M1318.5856,104.0313 L1318.5856,106.0625 Q1317.1013,106.6719 1315.2731,106.6719 Q1312.5544,106.6719 1311.1013,104.9375 Q1309.6481,103.1875 1309.6481,100.0781 Q1309.6481,97.0781 1311.2263,95.2969 Q1312.8044,93.5 1315.5231,93.5 Q1317.4294,93.5 1319.1638,94.4219 L1318.2106,96.3281 Q1316.7106,95.5469 1315.5231,95.5469 Q1313.9138,95.5469 1312.9294,96.7656 Q1311.9606,97.9688 1311.9606,100.0938 Q1311.9606,102.3438 1312.8669,103.4844 Q1313.7888,104.625 1315.5231,104.625 Q1316.5544,104.625 1318.5856,104.0313 Z " fill="#000000"/><text fill="#000000" font-family="sans-serif" font-size="14" lengthAdjust="spacing" textLength="81" x="1333.17" y="104.8467">Intake Entry</text><line style="stroke:#181818;stroke-width:0.5;" x1="1282.62" x2="1434.62" y1="116" y2="116"/><text fill="#000000" font-family="sans-serif" font-size="14" lengthAdjust="spacing" textLength="142" x="1287.62" y="132.9951">serial_number : Data</text><text fill="#000000" font-family="sans-serif" font-size="14" lengthAdjust="spacing" textLength="137" x="1287.62" y="149.292">manufacturer : Data</text><text fill="#000000" font-family="sans-serif" font-size="14" lengthAdjust="spacing" textLength="83" x="1287.62" y="165.5889">notes : Text</text><text fill="#000000" font-family="sans-serif" font-size="14" lengthAdjust="spacing" textLength="99" x="1287.62" y="181.8857">image : Attach</text><line style="stroke:#181818;stroke-width:0.5;" x1="1282.62" x2="1434.62" y1="189.1875" y2="189.1875"/></g><!--class event_type--><g id="elem_event_type"><rect fill="#F1F1F1" height="48" id="event_type" rx="2.5" ry="2.5" style="stroke:#181818;stroke-width:0.5;" width="108" x="1941.62" y="429"/><ellipse cx="1956.62" cy="445" fill="#ADD1B2" rx="11" ry="11" style="stroke:#181818;stroke-width:1.0;"/><path d="M1960.1356,449.0313 L1960.1356,451.0625 Q1958.6513,451.6719 1956.8231,451.6719 Q1954.1044,451.6719 1952.6513,449.9375 Q1951.1981,448.1875 1951.1981,445.0781 Q1951.1981,442.0781 1952.7763,440.2969 Q1954.3544,438.5 1957.0731,438.5 Q1958.9794,438.5 1960.7138,439.4219 L1959.7606,441.3281 Q1958.2606,440.5469 1957.0731,440.5469 Q1955.4638,440.5469 1954.4794,441.7656 Q1953.5106,442.9688 1953.5106,445.0938 Q1953.5106,447.3438 1954.4169,448.4844 Q1955.3388,449.625 1957.0731,449.625 Q1958.1044,449.625 1960.1356,449.0313 Z " fill="#000000"/><text fill="#000000" font-family="sans-serif" font-size="14" lengthAdjust="spacing" textLength="76" x="1970.62" y="449.8467">event_type</text><line style="stroke:#181818;stroke-width:0.5;" x1="1942.62" x2="2048.62" y1="461" y2="461"/><line style="stroke:#181818;stroke-width:0.5;" x1="1942.62" x2="2048.62" y1="469" y2="469"/></g><!--class Document History--><g id="elem_Document History"><rect codeLine="77" fill="#F5CBA7" height="162.0781" id="Document History" rx="2.5" ry="2.5" style="stroke:#181818;stroke-width:0.5;" width="260" x="1264.62" y="717"/><ellipse cx="1328.37" cy="733" fill="#ADD1B2" rx="11" ry="11" style="stroke:#181818;stroke-width:1.0;"/><path d="M1331.8856,737.0313 L1331.8856,739.0625 Q1330.4013,739.6719 1328.5731,739.6719 Q1325.8544,739.6719 1324.4013,737.9375 Q1322.9481,736.1875 1322.9481,733.0781 Q1322.9481,730.0781 1324.5263,728.2969 Q1326.1044,726.5 1328.8231,726.5 Q1330.7294,726.5 1332.4638,727.4219 L1331.5106,729.3281 Q1330.0106,728.5469 1328.8231,728.5469 Q1327.2138,728.5469 1326.2294,729.7656 Q1325.2606,730.9688 1325.2606,733.0938 Q1325.2606,735.3438 1326.1669,736.4844 Q1327.0888,737.625 1328.8231,737.625 Q1329.8544,737.625 1331.8856,737.0313 Z " fill="#000000"/><text fill="#000000" font-family="sans-serif" font-size="14" lengthAdjust="spacing" textLength="124" x="1348.87" y="737.8467">Document History</text><line style="stroke:#181818;stroke-width:0.5;" x1="1265.62" x2="1523.62" y1="749" y2="749"/><text fill="#000000" font-family="sans-serif" font-size="14" lengthAdjust="spacing" textLength="153" x="1270.62" y="765.9951">event_date : Datetime</text><text fill="#000000" font-family="sans-serif" font-size="14" lengthAdjust="spacing" textLength="132" x="1270.62" y="782.292">event_type : Select</text><text fill="#000000" font-family="sans-serif" font-size="14" lengthAdjust="spacing" textLength="248" x="1270.62" y="798.5889">reference_document : Dynamic Link</text><text fill="#000000" font-family="sans-serif" font-size="14" lengthAdjust="spacing" textLength="146" x="1270.62" y="814.8857">summary : Small Text</text><text fill="#000000" font-family="sans-serif" font-size="14" lengthAdjust="spacing" textLength="135" x="1270.62" y="831.1826">performed_by : Link</text><text fill="#000000" font-family="sans-serif" font-size="14" lengthAdjust="spacing" textLength="99" x="1270.62" y="847.4795">media : Attach</text><text fill="#000000" font-family="sans-serif" font-size="14" lengthAdjust="spacing" textLength="153" x="1270.62" y="863.7764">action_source : Select</text><line style="stroke:#181818;stroke-width:0.5;" x1="1265.62" x2="1523.62" y1="871.0781" y2="871.0781"/></g><!--class Consent Log--><g id="elem_Consent Log"><rect codeLine="87" fill="#F5CBA7" height="113.1875" id="Consent Log" rx="2.5" ry="2.5" style="stroke:#181818;stroke-width:0.5;" width="213" x="1016.12" y="741.5"/><ellipse cx="1074.37" cy="757.5" fill="#ADD1B2" rx="11" ry="11" style="stroke:#181818;stroke-width:1.0;"/><path d="M1077.8856,761.5313 L1077.8856,763.5625 Q1076.4013,764.1719 1074.5731,764.1719 Q1071.8544,764.1719 1070.4013,762.4375 Q1068.9481,760.6875 1068.9481,757.5781 Q1068.9481,754.5781 1070.5263,752.7969 Q1072.1044,751 1074.8231,751 Q1076.7294,751 1078.4638,751.9219 L1077.5106,753.8281 Q1076.0106,753.0469 1074.8231,753.0469 Q1073.2138,753.0469 1072.2294,754.2656 Q1071.2606,755.4688 1071.2606,757.5938 Q1071.2606,759.8438 1072.1669,760.9844 Q1073.0888,762.125 1074.8231,762.125 Q1075.8544,762.125 1077.8856,761.5313 Z " fill="#000000"/><text fill="#000000" font-family="sans-serif" font-size="14" lengthAdjust="spacing" textLength="88" x="1094.87" y="762.3467">Consent Log</text><line style="stroke:#181818;stroke-width:0.5;" x1="1017.12" x2="1228.12" y1="773.5" y2="773.5"/><text fill="#000000" font-family="sans-serif" font-size="14" lengthAdjust="spacing" textLength="164" x="1022.12" y="790.4951">consent_given_by : Link</text><text fill="#000000" font-family="sans-serif" font-size="14" lengthAdjust="spacing" textLength="201" x="1022.12" y="806.792">consent_datetime : Datetime</text><text fill="#000000" font-family="sans-serif" font-size="14" lengthAdjust="spacing" textLength="150" x="1022.12" y="823.0889">consent_type : Select</text><text fill="#000000" font-family="sans-serif" font-size="14" lengthAdjust="spacing" textLength="123" x="1022.12" y="839.3857">notes : Small Text</text><line style="stroke:#181818;stroke-width:0.5;" x1="1017.12" x2="1228.12" y1="846.6875" y2="846.6875"/></g><!--class Warranty Modification Log--><g id="elem_Warranty Modification Log"><rect codeLine="95" fill="#F5CBA7" height="178.375" id="Warranty Modification Log" rx="2.5" ry="2.5" style="stroke:#181818;stroke-width:0.5;" width="209" x="734.12" y="709"/><ellipse cx="750.02" cy="725" fill="#ADD1B2" rx="11" ry="11" style="stroke:#181818;stroke-width:1.0;"/><path d="M753.5356,729.0313 L753.5356,731.0625 Q752.0513,731.6719 750.2231,731.6719 Q747.5044,731.6719 746.0513,729.9375 Q744.5981,728.1875 744.5981,725.0781 Q744.5981,722.0781 746.1763,720.2969 Q747.7544,718.5 750.4731,718.5 Q752.3794,718.5 754.1138,719.4219 L753.1606,721.3281 Q751.6606,720.5469 750.4731,720.5469 Q748.8638,720.5469 747.8794,721.7656 Q746.9106,722.9688 746.9106,725.0938 Q746.9106,727.3438 747.8169,728.4844 Q748.7388,729.625 750.4731,729.625 Q751.5044,729.625 753.5356,729.0313 Z " fill="#000000"/><text fill="#000000" font-family="sans-serif" font-size="14" lengthAdjust="spacing" textLength="175" x="764.22" y="729.8467">Warranty Modification Log</text><line style="stroke:#181818;stroke-width:0.5;" x1="735.12" x2="942.12" y1="741" y2="741"/><text fill="#000000" font-family="sans-serif" font-size="14" lengthAdjust="spacing" textLength="164" x="740.12" y="757.9951">instrument_profile : Link</text><text fill="#000000" font-family="sans-serif" font-size="14" lengthAdjust="spacing" textLength="122" x="740.12" y="774.292">modified_by : Link</text><text fill="#000000" font-family="sans-serif" font-size="14" lengthAdjust="spacing" textLength="197" x="740.12" y="790.5889">modification_date : Datetime</text><text fill="#000000" font-family="sans-serif" font-size="14" lengthAdjust="spacing" textLength="143" x="740.12" y="806.8857">old_start_date : Date</text><text fill="#000000" font-family="sans-serif" font-size="14" lengthAdjust="spacing" textLength="151" x="740.12" y="823.1826">new_start_date : Date</text><text fill="#000000" font-family="sans-serif" font-size="14" lengthAdjust="spacing" textLength="139" x="740.12" y="839.4795">old_end_date : Date</text><text fill="#000000" font-family="sans-serif" font-size="14" lengthAdjust="spacing" textLength="147" x="740.12" y="855.7764">new_end_date : Date</text><text fill="#000000" font-family="sans-serif" font-size="14" lengthAdjust="spacing" textLength="93" x="740.12" y="872.0732">reason : Data</text><line style="stroke:#181818;stroke-width:0.5;" x1="735.12" x2="942.12" y1="879.375" y2="879.375"/></g><!--class Pad Condition--><g id="elem_Pad Condition"><rect codeLine="198" fill="#F5CBA7" height="113.1875" id="Pad Condition" rx="2.5" ry="2.5" style="stroke:#181818;stroke-width:0.5;" width="173" x="1620.12" y="84"/><ellipse cx="1655.37" cy="100" fill="#ADD1B2" rx="11" ry="11" style="stroke:#181818;stroke-width:1.0;"/><path d="M1658.8856,104.0313 L1658.8856,106.0625 Q1657.4013,106.6719 1655.5731,106.6719 Q1652.8544,106.6719 1651.4013,104.9375 Q1649.9481,103.1875 1649.9481,100.0781 Q1649.9481,97.0781 1651.5263,95.2969 Q1653.1044,93.5 1655.8231,93.5 Q1657.7294,93.5 1659.4638,94.4219 L1658.5106,96.3281 Q1657.0106,95.5469 1655.8231,95.5469 Q1654.2138,95.5469 1653.2294,96.7656 Q1652.2606,97.9688 1652.2606,100.0938 Q1652.2606,102.3438 1653.1669,103.4844 Q1654.0888,104.625 1655.8231,104.625 Q1656.8544,104.625 1658.8856,104.0313 Z " fill="#000000"/><text fill="#000000" font-family="sans-serif" font-size="14" lengthAdjust="spacing" textLength="96" x="1673.87" y="104.8467">Pad Condition</text><line style="stroke:#181818;stroke-width:0.5;" x1="1621.12" x2="1792.12" y1="116" y2="116"/><text fill="#000000" font-family="sans-serif" font-size="14" lengthAdjust="spacing" textLength="90" x="1626.12" y="132.9951">pad_id : Data</text><text fill="#000000" font-family="sans-serif" font-size="14" lengthAdjust="spacing" textLength="117" x="1626.12" y="149.292">pad_name : Data</text><text fill="#000000" font-family="sans-serif" font-size="14" lengthAdjust="spacing" textLength="99" x="1626.12" y="165.5889">status : Select</text><text fill="#000000" font-family="sans-serif" font-size="14" lengthAdjust="spacing" textLength="161" x="1626.12" y="181.8857">technician_notes : Text</text><line style="stroke:#181818;stroke-width:0.5;" x1="1621.12" x2="1792.12" y1="189.1875" y2="189.1875"/></g><!--class Repair Log--><g id="elem_Repair Log"><rect codeLine="106" fill="#F5CBA7" height="80.5938" id="Repair Log" rx="2.5" ry="2.5" style="stroke:#181818;stroke-width:0.5;" width="168" x="1622.62" y="412.5"/><ellipse cx="1665.97" cy="428.5" fill="#ADD1B2" rx="11" ry="11" style="stroke:#181818;stroke-width:1.0;"/><path d="M1669.4856,432.5313 L1669.4856,434.5625 Q1668.0012,435.1719 1666.1731,435.1719 Q1663.4544,435.1719 1662.0012,433.4375 Q1660.5481,431.6875 1660.5481,428.5781 Q1660.5481,425.5781 1662.1262,423.7969 Q1663.7044,422 1666.4231,422 Q1668.3294,422 1670.0637,422.9219 L1669.1106,424.8281 Q1667.6106,424.0469 1666.4231,424.0469 Q1664.8137,424.0469 1663.8294,425.2656 Q1662.8606,426.4688 1662.8606,428.5938 Q1662.8606,430.8438 1663.7669,431.9844 Q1664.6887,433.125 1666.4231,433.125 Q1667.4544,433.125 1669.4856,432.5313 Z " fill="#000000"/><text fill="#000000" font-family="sans-serif" font-size="14" lengthAdjust="spacing" textLength="73" x="1686.27" y="433.3467">Repair Log</text><line style="stroke:#181818;stroke-width:0.5;" x1="1623.62" x2="1789.62" y1="444.5" y2="444.5"/><text fill="#000000" font-family="sans-serif" font-size="14" lengthAdjust="spacing" textLength="156" x="1628.62" y="461.4951">pad_conditions : Table</text><text fill="#000000" font-family="sans-serif" font-size="14" lengthAdjust="spacing" textLength="151" x="1628.62" y="477.792">pad_map_view : HTML</text><line style="stroke:#181818;stroke-width:0.5;" x1="1623.62" x2="1789.62" y1="485.0938" y2="485.0938"/></g><!--class Customer--><g id="elem_Customer"><rect fill="#F1F1F1" height="48" id="Customer" rx="2.5" ry="2.5" style="stroke:#181818;stroke-width:0.5;" width="100" x="858.62" y="116.5"/><ellipse cx="873.62" cy="132.5" fill="#ADD1B2" rx="11" ry="11" style="stroke:#181818;stroke-width:1.0;"/><path d="M877.1356,136.5313 L877.1356,138.5625 Q875.6513,139.1719 873.8231,139.1719 Q871.1044,139.1719 869.6513,137.4375 Q868.1981,135.6875 868.1981,132.5781 Q868.1981,129.5781 869.7763,127.7969 Q871.3544,126 874.0731,126 Q875.9794,126 877.7138,126.9219 L876.7606,128.8281 Q875.2606,128.0469 874.0731,128.0469 Q872.4638,128.0469 871.4794,129.2656 Q870.5106,130.4688 870.5106,132.5938 Q870.5106,134.8438 871.4169,135.9844 Q872.3388,137.125 874.0731,137.125 Q875.1044,137.125 877.1356,136.5313 Z " fill="#000000"/><text fill="#000000" font-family="sans-serif" font-size="14" lengthAdjust="spacing" textLength="68" x="887.62" y="137.3467">Customer</text><line style="stroke:#181818;stroke-width:0.5;" x1="859.62" x2="957.62" y1="148.5" y2="148.5"/><line style="stroke:#181818;stroke-width:0.5;" x1="859.62" x2="957.62" y1="156.5" y2="156.5"/></g><!--class Customer External Work Log--><g id="elem_Customer External Work Log"><rect codeLine="170" fill="#F5CBA7" height="145.7813" id="Customer External Work Log" rx="2.5" ry="2.5" style="stroke:#181818;stroke-width:0.5;" width="227" x="164.12" y="725"/><ellipse cx="179.12" cy="741" fill="#ADD1B2" rx="11" ry="11" style="stroke:#181818;stroke-width:1.0;"/><path d="M182.6356,745.0313 L182.6356,747.0625 Q181.1513,747.6719 179.3231,747.6719 Q176.6044,747.6719 175.1513,745.9375 Q173.6981,744.1875 173.6981,741.0781 Q173.6981,738.0781 175.2763,736.2969 Q176.8544,734.5 179.5731,734.5 Q181.4794,734.5 183.2138,735.4219 L182.2606,737.3281 Q180.7606,736.5469 179.5731,736.5469 Q177.9638,736.5469 176.9794,737.7656 Q176.0106,738.9688 176.0106,741.0938 Q176.0106,743.3438 176.9169,744.4844 Q177.8388,745.625 179.5731,745.625 Q180.6044,745.625 182.6356,745.0313 Z " fill="#000000"/><text fill="#000000" font-family="sans-serif" font-size="14" lengthAdjust="spacing" textLength="195" x="193.12" y="745.8467">Customer External Work Log</text><line style="stroke:#181818;stroke-width:0.5;" x1="165.12" x2="390.12" y1="757" y2="757"/><text fill="#000000" font-family="sans-serif" font-size="14" lengthAdjust="spacing" textLength="164" x="170.12" y="773.9951">instrument_profile : Link</text><text fill="#000000" font-family="sans-serif" font-size="14" lengthAdjust="spacing" textLength="133" x="170.12" y="790.292">service_date : Date</text><text fill="#000000" font-family="sans-serif" font-size="14" lengthAdjust="spacing" textLength="142" x="170.12" y="806.5889">service_type : Select</text><text fill="#000000" font-family="sans-serif" font-size="14" lengthAdjust="spacing" textLength="139" x="170.12" y="822.8857">service_notes : Text</text><text fill="#000000" font-family="sans-serif" font-size="14" lengthAdjust="spacing" textLength="188" x="170.12" y="839.1826">external_shop_name : Data</text><text fill="#000000" font-family="sans-serif" font-size="14" lengthAdjust="spacing" textLength="191" x="170.12" y="855.4795">receipt_attachment : Attach</text><line style="stroke:#181818;stroke-width:0.5;" x1="165.12" x2="390.12" y1="862.7813" y2="862.7813"/></g><!--class Image Log Entry--><g id="elem_Image Log Entry"><rect fill="#F1F1F1" height="48" id="Image Log Entry" rx="2.5" ry="2.5" style="stroke:#181818;stroke-width:0.5;" width="142" x="92.62" y="116.5"/><ellipse cx="107.62" cy="132.5" fill="#ADD1B2" rx="11" ry="11" style="stroke:#181818;stroke-width:1.0;"/><path d="M111.1356,136.5313 L111.1356,138.5625 Q109.6513,139.1719 107.8231,139.1719 Q105.1044,139.1719 103.6513,137.4375 Q102.1981,135.6875 102.1981,132.5781 Q102.1981,129.5781 103.7763,127.7969 Q105.3544,126 108.0731,126 Q109.9794,126 111.7138,126.9219 L110.7606,128.8281 Q109.2606,128.0469 108.0731,128.0469 Q106.4638,128.0469 105.4794,129.2656 Q104.5106,130.4688 104.5106,132.5938 Q104.5106,134.8438 105.4169,135.9844 Q106.3388,137.125 108.0731,137.125 Q109.1044,137.125 111.1356,136.5313 Z " fill="#000000"/><text fill="#000000" font-family="sans-serif" font-size="14" lengthAdjust="spacing" textLength="110" x="121.62" y="137.3467">Image Log Entry</text><line style="stroke:#181818;stroke-width:0.5;" x1="93.62" x2="233.62" y1="148.5" y2="148.5"/><line style="stroke:#181818;stroke-width:0.5;" x1="93.62" x2="233.62" y1="156.5" y2="156.5"/></g><!--class Consent Log Entry--><g id="elem_Consent Log Entry"><rect codeLine="147" fill="#F5CBA7" height="80.5938" id="Consent Log Entry" rx="2.5" ry="2.5" style="stroke:#181818;stroke-width:0.5;" width="162" x="1075.62" y="100"/><ellipse cx="1091.97" cy="116" fill="#ADD1B2" rx="11" ry="11" style="stroke:#181818;stroke-width:1.0;"/><path d="M1095.4856,120.0313 L1095.4856,122.0625 Q1094.0012,122.6719 1092.1731,122.6719 Q1089.4544,122.6719 1088.0012,120.9375 Q1086.5481,119.1875 1086.5481,116.0781 Q1086.5481,113.0781 1088.1262,111.2969 Q1089.7044,109.5 1092.4231,109.5 Q1094.3294,109.5 1096.0637,110.4219 L1095.1106,112.3281 Q1093.6106,111.5469 1092.4231,111.5469 Q1090.8137,111.5469 1089.8294,112.7656 Q1088.8606,113.9688 1088.8606,116.0938 Q1088.8606,118.3438 1089.7669,119.4844 Q1090.6887,120.625 1092.4231,120.625 Q1093.4544,120.625 1095.4856,120.0313 Z " fill="#000000"/><text fill="#000000" font-family="sans-serif" font-size="14" lengthAdjust="spacing" textLength="127" x="1106.27" y="120.8467">Consent Log Entry</text><line style="stroke:#181818;stroke-width:0.5;" x1="1076.62" x2="1236.62" y1="132" y2="132"/><text fill="#000000" font-family="sans-serif" font-size="14" lengthAdjust="spacing" textLength="150" x="1081.62" y="148.9951">consent_type : Select</text><text fill="#000000" font-family="sans-serif" font-size="14" lengthAdjust="spacing" textLength="121" x="1081.62" y="165.292">date_given : Date</text><line style="stroke:#181818;stroke-width:0.5;" x1="1076.62" x2="1236.62" y1="172.5938" y2="172.5938"/></g><!--class Instrument Document History--><g id="elem_Instrument Document History"><rect codeLine="162" fill="#F5CBA7" height="129.4844" id="Instrument Document History" rx="2.5" ry="2.5" style="stroke:#181818;stroke-width:0.5;" width="235" x="426.12" y="733.5"/><ellipse cx="441.12" cy="749.5" fill="#ADD1B2" rx="11" ry="11" style="stroke:#181818;stroke-width:1.0;"/><path d="M444.6356,753.5313 L444.6356,755.5625 Q443.1513,756.1719 441.3231,756.1719 Q438.6044,756.1719 437.1513,754.4375 Q435.6981,752.6875 435.6981,749.5781 Q435.6981,746.5781 437.2763,744.7969 Q438.8544,743 441.5731,743 Q443.4794,743 445.2138,743.9219 L444.2606,745.8281 Q442.7606,745.0469 441.5731,745.0469 Q439.9638,745.0469 438.9794,746.2656 Q438.0106,747.4688 438.0106,749.5938 Q438.0106,751.8438 438.9169,752.9844 Q439.8388,754.125 441.5731,754.125 Q442.6044,754.125 444.6356,753.5313 Z " fill="#000000"/><text fill="#000000" font-family="sans-serif" font-size="14" lengthAdjust="spacing" textLength="203" x="455.12" y="754.3467">Instrument Document History</text><line style="stroke:#181818;stroke-width:0.5;" x1="427.12" x2="660.12" y1="765.5" y2="765.5"/><text fill="#000000" font-family="sans-serif" font-size="14" lengthAdjust="spacing" textLength="153" x="432.12" y="782.4951">event_date : Datetime</text><text fill="#000000" font-family="sans-serif" font-size="14" lengthAdjust="spacing" textLength="132" x="432.12" y="798.792">event_type : Select</text><text fill="#000000" font-family="sans-serif" font-size="14" lengthAdjust="spacing" textLength="140" x="432.12" y="815.0889">reference_doc : Link</text><text fill="#000000" font-family="sans-serif" font-size="14" lengthAdjust="spacing" textLength="146" x="432.12" y="831.3857">summary : Small Text</text><text fill="#000000" font-family="sans-serif" font-size="14" lengthAdjust="spacing" textLength="71" x="432.12" y="847.6826">user : Link</text><line style="stroke:#181818;stroke-width:0.5;" x1="427.12" x2="660.12" y1="854.9844" y2="854.9844"/></g><!--class Supplier--><g id="elem_Supplier"><rect fill="#F1F1F1" height="48" id="Supplier" rx="2.5" ry="2.5" style="stroke:#181818;stroke-width:0.5;" width="88" x="1470.62" y="116.5"/><ellipse cx="1485.62" cy="132.5" fill="#ADD1B2" rx="11" ry="11" style="stroke:#181818;stroke-width:1.0;"/><path d="M1489.1356,136.5313 L1489.1356,138.5625 Q1487.6513,139.1719 1485.8231,139.1719 Q1483.1044,139.1719 1481.6513,137.4375 Q1480.1981,135.6875 1480.1981,132.5781 Q1480.1981,129.5781 1481.7763,127.7969 Q1483.3544,126 1486.0731,126 Q1487.9794,126 1489.7138,126.9219 L1488.7606,128.8281 Q1487.2606,128.0469 1486.0731,128.0469 Q1484.4638,128.0469 1483.4794,129.2656 Q1482.5106,130.4688 1482.5106,132.5938 Q1482.5106,134.8438 1483.4169,135.9844 Q1484.3388,137.125 1486.0731,137.125 Q1487.1044,137.125 1489.1356,136.5313 Z " fill="#000000"/><text fill="#000000" font-family="sans-serif" font-size="14" lengthAdjust="spacing" textLength="56" x="1499.62" y="137.3467">Supplier</text><line style="stroke:#181818;stroke-width:0.5;" x1="1471.62" x2="1557.62" y1="148.5" y2="148.5"/><line style="stroke:#181818;stroke-width:0.5;" x1="1471.62" x2="1557.62" y1="156.5" y2="156.5"/></g><!--class External Work Logs--><g id="elem_External Work Logs"><rect codeLine="151" fill="#F5CBA7" height="96.8906" id="External Work Logs" rx="2.5" ry="2.5" style="stroke:#181818;stroke-width:0.5;" width="172" x="2966.62" y="1045.5"/><ellipse cx="2985.67" cy="1061.5" fill="#ADD1B2" rx="11" ry="11" style="stroke:#181818;stroke-width:1.0;"/><path d="M2989.1856,1065.5313 L2989.1856,1067.5625 Q2987.7013,1068.1719 2985.8731,1068.1719 Q2983.1544,1068.1719 2981.7013,1066.4375 Q2980.2481,1064.6875 2980.2481,1061.5781 Q2980.2481,1058.5781 2981.8263,1056.7969 Q2983.4044,1055 2986.1231,1055 Q2988.0294,1055 2989.7638,1055.9219 L2988.8106,1057.8281 Q2987.3106,1057.0469 2986.1231,1057.0469 Q2984.5138,1057.0469 2983.5294,1058.2656 Q2982.5606,1059.4688 2982.5606,1061.5938 Q2982.5606,1063.8438 2983.4669,1064.9844 Q2984.3888,1066.125 2986.1231,1066.125 Q2987.1544,1066.125 2989.1856,1065.5313 Z " fill="#000000"/><text fill="#000000" font-family="sans-serif" font-size="14" lengthAdjust="spacing" textLength="131" x="3000.57" y="1066.3467">External Work Logs</text><line style="stroke:#181818;stroke-width:0.5;" x1="2967.62" x2="3137.62" y1="1077.5" y2="1077.5"/><text fill="#000000" font-family="sans-serif" font-size="14" lengthAdjust="spacing" textLength="160" x="2972.62" y="1094.4951">description : Small Text</text><text fill="#000000" font-family="sans-serif" font-size="14" lengthAdjust="spacing" textLength="140" x="2972.62" y="1110.792">performed_by : Data</text><text fill="#000000" font-family="sans-serif" font-size="14" lengthAdjust="spacing" textLength="77" x="2972.62" y="1127.0889">date : Date</text><line style="stroke:#181818;stroke-width:0.5;" x1="2967.62" x2="3137.62" y1="1134.3906" y2="1134.3906"/></g><!--class Service Logs--><g id="elem_Service Logs"><rect codeLine="156" fill="#F5CBA7" height="80.5938" id="Service Logs" rx="2.5" ry="2.5" style="stroke:#181818;stroke-width:0.5;" width="168" x="1854.62" y="1285"/><ellipse cx="1891.67" cy="1301" fill="#ADD1B2" rx="11" ry="11" style="stroke:#181818;stroke-width:1.0;"/><path d="M1895.1856,1305.0313 L1895.1856,1307.0625 Q1893.7012,1307.6719 1891.8731,1307.6719 Q1889.1544,1307.6719 1887.7012,1305.9375 Q1886.2481,1304.1875 1886.2481,1301.0781 Q1886.2481,1298.0781 1887.8262,1296.2969 Q1889.4044,1294.5 1892.1231,1294.5 Q1894.0294,1294.5 1895.7637,1295.4219 L1894.8106,1297.3281 Q1893.3106,1296.5469 1892.1231,1296.5469 Q1890.5137,1296.5469 1889.5294,1297.7656 Q1888.5606,1298.9688 1888.5606,1301.0938 Q1888.5606,1303.3438 1889.4669,1304.4844 Q1890.3887,1305.625 1892.1231,1305.625 Q1893.1544,1305.625 1895.1856,1305.0313 Z " fill="#000000"/><text fill="#000000" font-family="sans-serif" font-size="14" lengthAdjust="spacing" textLength="87" x="1910.57" y="1305.8467">Service Logs</text><line style="stroke:#181818;stroke-width:0.5;" x1="1855.62" x2="2021.62" y1="1317" y2="1317"/><text fill="#000000" font-family="sans-serif" font-size="14" lengthAdjust="spacing" textLength="156" x="1860.62" y="1333.9951">log_details : Small Text</text><text fill="#000000" font-family="sans-serif" font-size="14" lengthAdjust="spacing" textLength="105" x="1860.62" y="1350.292">log_date : Date</text><line style="stroke:#181818;stroke-width:0.5;" x1="1855.62" x2="2021.62" y1="1357.5938" y2="1357.5938"/></g><!--class Instrument Profile Setup--><g id="elem_Instrument Profile Setup"><rect codeLine="206" fill="#F5CBA7" height="48" id="Instrument Profile Setup" rx="2.5" ry="2.5" style="stroke:#181818;stroke-width:0.5;" width="198" x="2057.62" y="1301.5"/><ellipse cx="2072.62" cy="1317.5" fill="#ADD1B2" rx="11" ry="11" style="stroke:#181818;stroke-width:1.0;"/><path d="M2076.1356,1321.5313 L2076.1356,1323.5625 Q2074.6513,1324.1719 2072.8231,1324.1719 Q2070.1044,1324.1719 2068.6513,1322.4375 Q2067.1981,1320.6875 2067.1981,1317.5781 Q2067.1981,1314.5781 2068.7763,1312.7969 Q2070.3544,1311 2073.0731,1311 Q2074.9794,1311 2076.7138,1311.9219 L2075.7606,1313.8281 Q2074.2606,1313.0469 2073.0731,1313.0469 Q2071.4638,1313.0469 2070.4794,1314.2656 Q2069.5106,1315.4688 2069.5106,1317.5938 Q2069.5106,1319.8438 2070.4169,1320.9844 Q2071.3388,1322.125 2073.0731,1322.125 Q2074.1044,1322.125 2076.1356,1321.5313 Z " fill="#000000"/><text fill="#000000" font-family="sans-serif" font-size="14" lengthAdjust="spacing" textLength="166" x="2086.62" y="1322.3467">Instrument Profile Setup</text><line style="stroke:#181818;stroke-width:0.5;" x1="2058.62" x2="2254.62" y1="1333.5" y2="1333.5"/><line style="stroke:#181818;stroke-width:0.5;" x1="2058.62" x2="2254.62" y1="1341.5" y2="1341.5"/></g><!--class Instrument Profile Workflow--><g id="elem_Instrument Profile Workflow"><rect codeLine="208" fill="#F5CBA7" height="48" id="Instrument Profile Workflow" rx="2.5" ry="2.5" style="stroke:#181818;stroke-width:0.5;" width="219" x="2291.12" y="1301.5"/><ellipse cx="2306.12" cy="1317.5" fill="#ADD1B2" rx="11" ry="11" style="stroke:#181818;stroke-width:1.0;"/><path d="M2309.6356,1321.5313 L2309.6356,1323.5625 Q2308.1513,1324.1719 2306.3231,1324.1719 Q2303.6044,1324.1719 2302.1513,1322.4375 Q2300.6981,1320.6875 2300.6981,1317.5781 Q2300.6981,1314.5781 2302.2763,1312.7969 Q2303.8544,1311 2306.5731,1311 Q2308.4794,1311 2310.2138,1311.9219 L2309.2606,1313.8281 Q2307.7606,1313.0469 2306.5731,1313.0469 Q2304.9638,1313.0469 2303.9794,1314.2656 Q2303.0106,1315.4688 2303.0106,1317.5938 Q2303.0106,1319.8438 2303.9169,1320.9844 Q2304.8388,1322.125 2306.5731,1322.125 Q2307.6044,1322.125 2309.6356,1321.5313 Z " fill="#000000"/><text fill="#000000" font-family="sans-serif" font-size="14" lengthAdjust="spacing" textLength="187" x="2320.12" y="1322.3467">Instrument Profile Workflow</text><line style="stroke:#181818;stroke-width:0.5;" x1="2292.12" x2="2509.12" y1="1333.5" y2="1333.5"/><line style="stroke:#181818;stroke-width:0.5;" x1="2292.12" x2="2509.12" y1="1341.5" y2="1341.5"/></g><!--class Instrument Tag--><g id="elem_Instrument Tag"><rect codeLine="210" fill="#F5CBA7" height="48" id="Instrument Tag" rx="2.5" ry="2.5" style="stroke:#181818;stroke-width:0.5;" width="137" x="2545.12" y="1301.5"/><ellipse cx="2560.12" cy="1317.5" fill="#ADD1B2" rx="11" ry="11" style="stroke:#181818;stroke-width:1.0;"/><path d="M2563.6356,1321.5313 L2563.6356,1323.5625 Q2562.1513,1324.1719 2560.3231,1324.1719 Q2557.6044,1324.1719 2556.1513,1322.4375 Q2554.6981,1320.6875 2554.6981,1317.5781 Q2554.6981,1314.5781 2556.2763,1312.7969 Q2557.8544,1311 2560.5731,1311 Q2562.4794,1311 2564.2138,1311.9219 L2563.2606,1313.8281 Q2561.7606,1313.0469 2560.5731,1313.0469 Q2558.9638,1313.0469 2557.9794,1314.2656 Q2557.0106,1315.4688 2557.0106,1317.5938 Q2557.0106,1319.8438 2557.9169,1320.9844 Q2558.8388,1322.125 2560.5731,1322.125 Q2561.6044,1322.125 2563.6356,1321.5313 Z " fill="#000000"/><text fill="#000000" font-family="sans-serif" font-size="14" lengthAdjust="spacing" textLength="105" x="2574.12" y="1322.3467">Instrument Tag</text><line style="stroke:#181818;stroke-width:0.5;" x1="2546.12" x2="2681.12" y1="1333.5" y2="1333.5"/><line style="stroke:#181818;stroke-width:0.5;" x1="2546.12" x2="2681.12" y1="1341.5" y2="1341.5"/></g><!--class Instrument Qr Tag--><g id="elem_Instrument Qr Tag"><rect codeLine="212" fill="#F5CBA7" height="48" id="Instrument Qr Tag" rx="2.5" ry="2.5" style="stroke:#181818;stroke-width:0.5;" width="157" x="2717.12" y="1301.5"/><ellipse cx="2732.12" cy="1317.5" fill="#ADD1B2" rx="11" ry="11" style="stroke:#181818;stroke-width:1.0;"/><path d="M2735.6356,1321.5313 L2735.6356,1323.5625 Q2734.1513,1324.1719 2732.3231,1324.1719 Q2729.6044,1324.1719 2728.1513,1322.4375 Q2726.6981,1320.6875 2726.6981,1317.5781 Q2726.6981,1314.5781 2728.2763,1312.7969 Q2729.8544,1311 2732.5731,1311 Q2734.4794,1311 2736.2138,1311.9219 L2735.2606,1313.8281 Q2733.7606,1313.0469 2732.5731,1313.0469 Q2730.9638,1313.0469 2729.9794,1314.2656 Q2729.0106,1315.4688 2729.0106,1317.5938 Q2729.0106,1319.8438 2729.9169,1320.9844 Q2730.8388,1322.125 2732.5731,1322.125 Q2733.6044,1322.125 2735.6356,1321.5313 Z " fill="#000000"/><text fill="#000000" font-family="sans-serif" font-size="14" lengthAdjust="spacing" textLength="125" x="2746.12" y="1322.3467">Instrument Qr Tag</text><line style="stroke:#181818;stroke-width:0.5;" x1="2718.12" x2="2873.12" y1="1333.5" y2="1333.5"/><line style="stroke:#181818;stroke-width:0.5;" x1="2718.12" x2="2873.12" y1="1341.5" y2="1341.5"/></g><!--class Instrument Profile Summary--><g id="elem_Instrument Profile Summary"><rect codeLine="214" fill="#F5CBA7" height="48" id="Instrument Profile Summary" rx="2.5" ry="2.5" style="stroke:#181818;stroke-width:0.5;" width="221" x="2909.12" y="1301.5"/><ellipse cx="2924.12" cy="1317.5" fill="#ADD1B2" rx="11" ry="11" style="stroke:#181818;stroke-width:1.0;"/><path d="M2927.6356,1321.5313 L2927.6356,1323.5625 Q2926.1513,1324.1719 2924.3231,1324.1719 Q2921.6044,1324.1719 2920.1513,1322.4375 Q2918.6981,1320.6875 2918.6981,1317.5781 Q2918.6981,1314.5781 2920.2763,1312.7969 Q2921.8544,1311 2924.5731,1311 Q2926.4794,1311 2928.2138,1311.9219 L2927.2606,1313.8281 Q2925.7606,1313.0469 2924.5731,1313.0469 Q2922.9638,1313.0469 2921.9794,1314.2656 Q2921.0106,1315.4688 2921.0106,1317.5938 Q2921.0106,1319.8438 2921.9169,1320.9844 Q2922.8388,1322.125 2924.5731,1322.125 Q2925.6044,1322.125 2927.6356,1321.5313 Z " fill="#000000"/><text fill="#000000" font-family="sans-serif" font-size="14" lengthAdjust="spacing" textLength="189" x="2938.12" y="1322.3467">Instrument Profile Summary</text><line style="stroke:#181818;stroke-width:0.5;" x1="2910.12" x2="3129.12" y1="1333.5" y2="1333.5"/><line style="stroke:#181818;stroke-width:0.5;" x1="2910.12" x2="3129.12" y1="1341.5" y2="1341.5"/></g><!--class Instrument Summary--><g id="elem_Instrument Summary"><rect codeLine="216" fill="#F5CBA7" height="48" id="Instrument Summary" rx="2.5" ry="2.5" style="stroke:#181818;stroke-width:0.5;" width="175" x="1851.12" y="1427"/><ellipse cx="1866.12" cy="1443" fill="#ADD1B2" rx="11" ry="11" style="stroke:#181818;stroke-width:1.0;"/><path d="M1869.6356,1447.0313 L1869.6356,1449.0625 Q1868.1513,1449.6719 1866.3231,1449.6719 Q1863.6044,1449.6719 1862.1513,1447.9375 Q1860.6981,1446.1875 1860.6981,1443.0781 Q1860.6981,1440.0781 1862.2763,1438.2969 Q1863.8544,1436.5 1866.5731,1436.5 Q1868.4794,1436.5 1870.2138,1437.4219 L1869.2606,1439.3281 Q1867.7606,1438.5469 1866.5731,1438.5469 Q1864.9638,1438.5469 1863.9794,1439.7656 Q1863.0106,1440.9688 1863.0106,1443.0938 Q1863.0106,1445.3438 1863.9169,1446.4844 Q1864.8388,1447.625 1866.5731,1447.625 Q1867.6044,1447.625 1869.6356,1447.0313 Z " fill="#000000"/><text fill="#000000" font-family="sans-serif" font-size="14" lengthAdjust="spacing" textLength="143" x="1880.12" y="1447.8467">Instrument Summary</text><line style="stroke:#181818;stroke-width:0.5;" x1="1852.12" x2="2025.12" y1="1459" y2="1459"/><line style="stroke:#181818;stroke-width:0.5;" x1="1852.12" x2="2025.12" y1="1467" y2="1467"/></g><!--class Instrument Profile Auto Status--><g id="elem_Instrument Profile Auto Status"><rect codeLine="218" fill="#F5CBA7" height="48" id="Instrument Profile Auto Status" rx="2.5" ry="2.5" style="stroke:#181818;stroke-width:0.5;" width="237" x="2061.12" y="1427"/><ellipse cx="2076.12" cy="1443" fill="#ADD1B2" rx="11" ry="11" style="stroke:#181818;stroke-width:1.0;"/><path d="M2079.6356,1447.0313 L2079.6356,1449.0625 Q2078.1513,1449.6719 2076.3231,1449.6719 Q2073.6044,1449.6719 2072.1513,1447.9375 Q2070.6981,1446.1875 2070.6981,1443.0781 Q2070.6981,1440.0781 2072.2763,1438.2969 Q2073.8544,1436.5 2076.5731,1436.5 Q2078.4794,1436.5 2080.2138,1437.4219 L2079.2606,1439.3281 Q2077.7606,1438.5469 2076.5731,1438.5469 Q2074.9638,1438.5469 2073.9794,1439.7656 Q2073.0106,1440.9688 2073.0106,1443.0938 Q2073.0106,1445.3438 2073.9169,1446.4844 Q2074.8388,1447.625 2076.5731,1447.625 Q2077.6044,1447.625 2079.6356,1447.0313 Z " fill="#000000"/><text fill="#000000" font-family="sans-serif" font-size="14" lengthAdjust="spacing" textLength="205" x="2090.12" y="1447.8467">Instrument Profile Auto Status</text><line style="stroke:#181818;stroke-width:0.5;" x1="2062.12" x2="2297.12" y1="1459" y2="1459"/><line style="stroke:#181818;stroke-width:0.5;" x1="2062.12" x2="2297.12" y1="1467" y2="1467"/></g><!--reverse link Instrument to Instrument Condition Record--><g id="link_Instrument_Instrument Condition Record"><path codeLine="60" d="M2156.94,489.21 C2179.69,538.38 2210.05,627.38 2162.62,679 C2109.2,737.13 1883.19,683.08 1808.62,709 C1791.36,715 1774.16,723.75 1758.13,733.45 " fill="none" id="Instrument-backto-Instrument Condition Record" style="stroke:#181818;stroke-width:1.0;"/><polygon fill="#181818" points="2151.23,477.32,2150.2197,484.46,2156.4219,488.1387,2157.4322,480.9987,2151.23,477.32" style="stroke:#181818;stroke-width:1.0;"/><text fill="#000000" font-family="sans-serif" font-size="13" lengthAdjust="spacing" textLength="70" x="2173.62" y="675.0669">instrument</text></g><!--reverse link User to Instrument Condition Record--><g id="link_User_Instrument Condition Record"><path codeLine="61" d="M1870.4,489.67 C1884.9,536.76 1902.21,620.52 1866.62,679 C1851.53,703.79 1833.65,694.31 1808.62,709 C1795.61,716.64 1782.11,725.02 1768.92,733.47 " fill="none" id="User-backto-Instrument Condition Record" style="stroke:#181818;stroke-width:1.0;"/><polygon fill="#181818" points="1866.34,477.13,1864.3799,484.0696,1870.0317,488.548,1871.9919,481.6084,1866.34,477.13" style="stroke:#181818;stroke-width:1.0;"/><text fill="#000000" font-family="sans-serif" font-size="13" lengthAdjust="spacing" textLength="79" x="1875.62" y="675.0669">recorded_by</text></g><!--reverse link event_type to Document History--><g id="link_event_type_Document History"><path codeLine="75" d="M2002.79,490.39 C2010.38,540.79 2015.06,631.05 1963.62,679 C1929.32,710.98 1587.37,694.97 1542.62,709 C1535.35,711.28 1528.05,713.98 1520.82,716.99 " fill="none" id="event_type-backto-Document History" style="stroke:#181818;stroke-width:1.0;"/><polygon fill="#181818" points="2000.62,477.3,1997.6561,483.8738,2002.5842,489.1381,2005.5482,482.5643,2000.62,477.3" style="stroke:#181818;stroke-width:1.0;"/><text fill="#000000" font-family="sans-serif" font-size="13" lengthAdjust="spacing" textLength="133" x="1976.62" y="675.0669">reference_document</text></g><!--reverse link User to Document History--><g id="link_User_Document History"><path codeLine="76" d="M1855.23,490.12 C1851.08,528.6 1839.72,589.67 1808.62,632 C1802.91,639.77 1744.64,675.57 1735.62,679 C1654.47,709.83 1624.3,679.62 1542.62,709 C1536.01,711.38 1529.37,714.06 1522.75,716.97 " fill="none" id="User-backto-Document History" style="stroke:#181818;stroke-width:1.0;"/><polygon fill="#181818" points="1856.46,477.04,1851.917,482.6401,1855.3391,488.9875,1859.8821,483.3874,1856.46,477.04" style="stroke:#181818;stroke-width:1.0;"/><text fill="#000000" font-family="sans-serif" font-size="13" lengthAdjust="spacing" textLength="89" x="1765.62" y="675.0669">performed_by</text></g><!--reverse link User to Consent Log--><g id="link_User_Consent Log"><path codeLine="86" d="M1858.49,490.22 C1857.36,531.03 1848.78,596.3 1808.62,632 C1742.43,690.84 1695.7,634.16 1611.62,662 C1596.33,667.06 1595.06,674.41 1579.62,679 C1437.62,721.26 1386.7,657.95 1247.62,709 C1226.82,716.64 1206.29,728.65 1188.06,741.38 " fill="none" id="User-backto-Consent Log" style="stroke:#181818;stroke-width:1.0;"/><polygon fill="#181818" points="1858.62,477.14,1854.5609,483.1001,1858.5013,489.1394,1862.5605,483.1793,1858.62,477.14" style="stroke:#181818;stroke-width:1.0;"/><text fill="#000000" font-family="sans-serif" font-size="13" lengthAdjust="spacing" textLength="114" x="1612.62" y="675.0669">consent_given_by</text></g><!--reverse link Instrument Profile to Warranty Modification Log--><g id="link_Instrument Profile_Warranty Modification Log"><path codeLine="93" d="M914.13,483.83 C1007.19,512.55 1125.4,566.21 1183.62,662 C1187.54,668.46 1188.58,673.3 1183.62,679 C1152.27,715.08 1015.29,691.98 970.62,709 C961.48,712.48 952.34,716.69 943.37,721.35 " fill="none" id="Instrument Profile-backto-Warranty Modification Log" style="stroke:#181818;stroke-width:1.0;"/><polygon fill="#181818" points="901.46,480.02,906.0552,485.5773,912.9525,483.473,908.3572,477.9157,901.46,480.02" style="stroke:#181818;stroke-width:1.0;"/><text fill="#000000" font-family="sans-serif" font-size="13" lengthAdjust="spacing" textLength="116" x="1187.62" y="675.0669">instrument_profile</text></g><!--reverse link User to Warranty Modification Log--><g id="link_User_Warranty Modification Log"><path codeLine="94" d="M1858.85,490.3 C1858.08,531.47 1849.88,597.36 1808.62,632 C1754.6,677.36 1560.18,641.73 1492.62,662 C1477.19,666.63 1476.11,674.6 1460.62,679 C1262.67,735.19 1196.15,651.38 998.62,709 C980.06,714.42 961.25,722.25 943.38,731.03 " fill="none" id="User-backto-Warranty Modification Log" style="stroke:#181818;stroke-width:1.0;"/><polygon fill="#181818" points="1858.86,477.11,1854.8534,483.1056,1858.8468,489.11,1862.8534,483.1144,1858.86,477.11" style="stroke:#181818;stroke-width:1.0;"/><text fill="#000000" font-family="sans-serif" font-size="13" lengthAdjust="spacing" textLength="77" x="1493.62" y="675.0669">modified_by</text></g><!--reverse link Pad Condition to Repair Log--><g id="link_Pad Condition_Repair Log"><path codeLine="105" d="M1706.62,210.2 C1706.62,272.22 1706.62,361.31 1706.62,412.24 " fill="none" id="Pad Condition-backto-Repair Log" style="stroke:#181818;stroke-width:1.0;"/><polygon fill="#181818" points="1706.62,197.01,1702.62,203.01,1706.62,209.01,1710.62,203.01,1706.62,197.01" style="stroke:#181818;stroke-width:1.0;"/><text fill="#000000" font-family="sans-serif" font-size="13" lengthAdjust="spacing" textLength="96" x="1707.62" y="240.0669">pad_conditions</text></g><!--reverse link Customer to Instrument Profile--><g id="link_Customer_Instrument Profile"><path codeLine="110" d="M906.35,178 C904.36,197.9 900.62,222.73 893.62,244 C890.36,253.91 886.65,263.92 882.6,273.89 " fill="none" id="Customer-backto-Instrument Profile" style="stroke:#181818;stroke-width:1.0;"/><polygon fill="#181818" points="907.49,164.82,902.9901,170.4548,906.4607,176.7758,910.9606,171.141,907.49,164.82" style="stroke:#181818;stroke-width:1.0;"/><text fill="#000000" font-family="sans-serif" font-size="13" lengthAdjust="spacing" textLength="38" x="898.62" y="240.0669">owner</text></g><!--reverse link Customer to Instrument Profile--><g id="link_Customer_Instrument Profile"><path codeLine="113" d="M845.52,156.42 C808.59,168.75 764.96,190.36 742.62,227 C733.79,241.48 729.02,257.4 727.21,273.87 " fill="none" id="Customer-backto-Instrument Profile-1" style="stroke:#181818;stroke-width:1.0;"/><polygon fill="#181818" points="858.25,152.44,851.3306,150.4099,846.7953,156.0163,853.7147,158.0464,858.25,152.44" style="stroke:#181818;stroke-width:1.0;"/><text fill="#000000" font-family="sans-serif" font-size="13" lengthAdjust="spacing" textLength="141" x="743.62" y="240.0669">ownership_transfer_to</text></g><!--reverse link Customer External Work Log to Instrument Profile--><g id="link_Customer External Work Log_Instrument Profile"><path codeLine="111" d="M382.11,717.12 C406.95,698.68 433.52,679.38 458.62,662 C525.52,615.66 602.07,566.35 663.96,527.38 " fill="none" id="Customer External Work Log-backto-Instrument Profile" style="stroke:#181818;stroke-width:1.0;"/><polygon fill="#181818" points="371.59,724.97,378.7912,724.5921,381.2121,717.7996,374.0109,718.1774,371.59,724.97" style="stroke:#181818;stroke-width:1.0;"/><text fill="#000000" font-family="sans-serif" font-size="13" lengthAdjust="spacing" textLength="121" x="459.62" y="675.0669">external_work_logs</text></g><!--reverse link Instrument Profile to Customer External Work Log--><g id="link_Instrument Profile_Customer External Work Log"><path codeLine="169" d="M654.41,627.18 C633.36,647.12 610.28,665.21 585.62,679 C515.98,717.94 482.73,679.43 408.62,709 C397.55,713.42 386.46,718.87 375.68,724.89 " fill="none" id="Instrument Profile-backto-Customer External Work Log" style="stroke:#181818;stroke-width:1.0;"/><polygon fill="#181818" points="663.94,617.89,656.8519,619.2161,655.3498,626.2691,662.4379,624.9429,663.94,617.89" style="stroke:#181818;stroke-width:1.0;"/><text fill="#000000" font-family="sans-serif" font-size="13" lengthAdjust="spacing" textLength="116" x="607.62" y="675.0669">instrument_profile</text></g><!--reverse link Image Log Entry to Instrument Profile--><g id="link_Image Log Entry_Instrument Profile"><path codeLine="112" d="M221.36,170.46 C321.98,220.94 531.38,325.98 664.02,392.51 " fill="none" id="Image Log Entry-backto-Instrument Profile" style="stroke:#181818;stroke-width:1.0;"/><polygon fill="#181818" points="209.64,164.58,213.2085,170.8463,220.3652,169.9624,216.7967,163.6961,209.64,164.58" style="stroke:#181818;stroke-width:1.0;"/><text fill="#000000" font-family="sans-serif" font-size="13" lengthAdjust="spacing" textLength="112" x="365.62" y="240.0669">condition_images</text></g><!--reverse link Consent Log Entry to Instrument Profile--><g id="link_Consent Log Entry_Instrument Profile"><path codeLine="114" d="M1098.75,189.55 C1046.3,233.09 967.38,298.61 901.51,353.3 " fill="none" id="Consent Log Entry-backto-Instrument Profile" style="stroke:#181818;stroke-width:1.0;"/><polygon fill="#181818" points="1108.87,181.14,1101.6985,181.8951,1099.6373,188.8054,1106.8088,188.0502,1108.87,181.14" style="stroke:#181818;stroke-width:1.0;"/><text fill="#000000" font-family="sans-serif" font-size="13" lengthAdjust="spacing" textLength="77" x="1046.62" y="240.0669">consent_log</text></g><!--reverse link Instrument Document History to Instrument Profile--><g id="link_Instrument Document History_Instrument Profile"><path codeLine="115" d="M648.06,727.24 C661.34,720.3 675.04,713.98 688.62,709 C728.33,694.42 849.16,711.19 876.62,679 C888.71,664.83 893.87,648.88 894.12,632.19 " fill="none" id="Instrument Document History-backto-Instrument Profile" style="stroke:#181818;stroke-width:1.0;"/><polygon fill="#181818" points="636.51,733.49,643.6907,734.1518,647.0633,727.778,639.8827,727.1162,636.51,733.49" style="stroke:#181818;stroke-width:1.0;"/><text fill="#000000" font-family="sans-serif" font-size="13" lengthAdjust="spacing" textLength="115" x="887.62" y="675.0669">document_history</text></g><!--reverse link Instrument Profile to Instrument Document History--><g id="link_Instrument Profile_Instrument Document History"><path codeLine="160" d="M762.74,644.54 C757.54,656.73 751.24,668.36 743.62,679 C727.41,701.64 712.75,695.11 688.62,709 C675.09,716.79 660.95,725.12 647.03,733.44 " fill="none" id="Instrument Profile-backto-Instrument Document History" style="stroke:#181818;stroke-width:1.0;"/><polygon fill="#181818" points="767.58,632.17,761.6721,636.3049,763.2167,643.3486,769.1245,639.2138,767.58,632.17" style="stroke:#181818;stroke-width:1.0;"/><text fill="#000000" font-family="sans-serif" font-size="13" lengthAdjust="spacing" textLength="91" x="754.62" y="675.0669">reference_doc</text></g><!--reverse link Supplier to Instrument Intake Batch--><g id="link_Supplier_Instrument Intake Batch"><path codeLine="137" d="M1511.59,177.66 C1507.46,226.96 1499.98,316.37 1494.67,379.71 " fill="none" id="Supplier-backto-Instrument Intake Batch" style="stroke:#181818;stroke-width:1.0;"/><polygon fill="#181818" points="1512.69,164.58,1508.203,170.225,1511.688,176.5381,1516.175,170.893,1512.69,164.58" style="stroke:#181818;stroke-width:1.0;"/><text fill="#000000" font-family="sans-serif" font-size="13" lengthAdjust="spacing" textLength="50" x="1507.62" y="240.0669">supplier</text></g><!--reverse link Intake Entry to Instrument Intake Batch--><g id="link_Intake Entry_Instrument Intake Batch"><path codeLine="138" d="M1386.92,209.08 C1408.02,259.49 1436.8,328.23 1458.36,379.72 " fill="none" id="Intake Entry-backto-Instrument Intake Batch" style="stroke:#181818;stroke-width:1.0;"/><polygon fill="#181818" points="1381.86,197.01,1380.4856,204.0889,1386.4913,208.0803,1387.8657,201.0014,1381.86,197.01" style="stroke:#181818;stroke-width:1.0;"/><text fill="#000000" font-family="sans-serif" font-size="13" lengthAdjust="spacing" textLength="44" x="1401.62" y="240.0669">entries</text></g><!--reverse link User to Instrument Document History--><g id="link_User_Instrument Document History"><path codeLine="161" d="M1859.16,490.06 C1858.74,531.53 1850.93,598.22 1808.62,632 C1750.99,678.01 1216.75,642.56 1145.62,662 C1130.09,666.25 1129.09,674.52 1113.62,679 C943.66,728.22 887.01,661.29 716.62,709 C695.2,715 673.33,723.75 652.66,733.44 " fill="none" id="User-backto-Instrument Document History" style="stroke:#181818;stroke-width:1.0;"/><polygon fill="#181818" points="1859.05,477.05,1855.0963,483.0806,1859.1423,489.0496,1863.096,483.0191,1859.05,477.05" style="stroke:#181818;stroke-width:1.0;"/><text fill="#000000" font-family="sans-serif" font-size="13" lengthAdjust="spacing" textLength="28" x="1146.62" y="675.0669">user</text></g><!--reverse link Customer to Client Instrument Profile--><g id="link_Customer_Client Instrument Profile"><path codeLine="178" d="M932.22,175.83 C993.51,269.53 1144.02,532.46 1011.62,679 C967.45,727.89 765.68,665.01 716.62,709 C656.39,763 727.79,822.76 678.62,887 C608.81,978.21 487.27,1032.54 396.24,1062.3 " fill="none" id="Customer-backto-Client Instrument Profile" style="stroke:#181818;stroke-width:1.0;"/><polygon fill="#181818" points="924.88,164.75,924.8602,171.9611,931.509,174.7528,931.5288,167.5417,924.88,164.75" style="stroke:#181818;stroke-width:1.0;"/><text fill="#000000" font-family="sans-serif" font-size="13" lengthAdjust="spacing" textLength="38" x="1022.62" y="675.0669">owner</text></g><!--reverse link Customer to Client Instrument Profile--><g id="link_Customer_Client Instrument Profile"><path codeLine="181" d="M846.47,169.28 C811.25,185.42 766.57,206.55 727.62,227 C690.77,246.35 680.34,249.6 646.62,274 C427.31,432.74 405.88,513.51 191.62,679 C172.6,693.69 157.96,687.81 146.62,709 C103.49,789.58 137.74,887.12 182,963.73 " fill="none" id="Customer-backto-Client Instrument Profile-1" style="stroke:#181818;stroke-width:1.0;"/><polygon fill="#181818" points="858.51,163.79,851.3919,162.6359,847.5888,168.7626,854.7069,169.9167,858.51,163.79" style="stroke:#181818;stroke-width:1.0;"/><text fill="#000000" font-family="sans-serif" font-size="13" lengthAdjust="spacing" textLength="141" x="212.62" y="675.0669">ownership_transfer_to</text></g><!--reverse link Customer External Work Log to Client Instrument Profile--><g id="link_Customer External Work Log_Client Instrument Profile"><path codeLine="179" d="M277.62,884.4 C277.62,909.26 277.62,936.98 277.62,963.9 " fill="none" id="Customer External Work Log-backto-Client Instrument Profile" style="stroke:#181818;stroke-width:1.0;"/><polygon fill="#181818" points="277.62,871.3,273.62,877.3,277.62,883.3,281.62,877.3,277.62,871.3" style="stroke:#181818;stroke-width:1.0;"/><text fill="#000000" font-family="sans-serif" font-size="13" lengthAdjust="spacing" textLength="121" x="278.62" y="930.0669">external_work_logs</text></g><!--reverse link Image Log Entry to Client Instrument Profile--><g id="link_Image Log Entry_Client Instrument Profile"><path codeLine="180" d="M151.03,177.23 C112.58,292.38 6,662.12 118.62,934 C128.03,956.72 142.44,977.89 158.82,996.89 " fill="none" id="Image Log Entry-backto-Client Instrument Profile" style="stroke:#181818;stroke-width:1.0;"/><polygon fill="#181818" points="155.25,164.77,149.5349,169.1674,151.3959,176.1342,157.111,171.7368,155.25,164.77" style="stroke:#181818;stroke-width:1.0;"/><text fill="#000000" font-family="sans-serif" font-size="13" lengthAdjust="spacing" textLength="112" x="70.62" y="675.0669">condition_images</text></g><!--reverse link Consent Log Entry to Client Instrument Profile--><g id="link_Consent Log Entry_Client Instrument Profile"><path codeLine="182" d="M1198.19,191.44 C1279.61,295.45 1441.37,537.37 1312.62,679 C1265.47,730.87 1050.95,662.37 998.62,709 C938.22,762.82 1015.41,827.49 960.62,887 C814.13,1046.12 549.69,1084.01 396.38,1092.02 " fill="none" id="Consent Log Entry-backto-Client Instrument Profile" style="stroke:#181818;stroke-width:1.0;"/><polygon fill="#181818" points="1190.11,181.22,1190.7014,188.4068,1197.5628,190.6251,1196.9714,183.4383,1190.11,181.22" style="stroke:#181818;stroke-width:1.0;"/><text fill="#000000" font-family="sans-serif" font-size="13" lengthAdjust="spacing" textLength="77" x="1323.62" y="675.0669">consent_log</text></g><!--SRC=[xLXBRzms4BxxLn3khK1wAmeOGG1d7IC67CIrdUP8p5ApAy8IgPAKdMtX_zwXdfH4FLoWjvvsDPmPpdppb0eGJt14Ph00QNYXZOFi5wciCsMEol72w8FCaBr_Vwsp1Cs73-plCv61jUpyEqWdrP5zLUmkWnEQS_RJzQ-xZvU_4SzhX6kNIT8PvReq8fNFc4GFhmmSucBtQ7Ks9tP3TXbzD6ZjZ30a9tQj3VjcCSgnoxITKVwrG3LpQmkUlxq2xnuzi3Fe60FAdTY30rVQ9TP0yGEQPocGVPRMQNDQOxzHp_H3Z4lgxr0bFavra5WlRZUw6MLxH94gAIGezWSQUP02dDIAVTVcoHOWSDrLLnPRWTwizKOvU4Bs4Pn8Po8_Gc7Hou3j7eyK55DvkUfR7VDT2keOL_nDASXdCd3fxErsjn1UWKtt6aooqVWhxwtSbxF-TXc-oXbrABZodFtyxjt0XfscdAtowHw5zZPViBvvdPrJNPjjKgRwXmdVdoA-JYLw4rbm8ocwbUg9QAAJkA0Kpb0u8YRWaEi3ho-ZaoiY43sulDUWj4DBZu_umuK1g1BtatB3icUCN9MGSLNcUpIrRY1o3geyW72b2Qa3vUH1xeV01Rjq3aJgKKVVCRWx5TZWTwL5xMBNSpne1pIe1FAaEHr07XCfq1oqoGT0J_b2lsfBF7GDO4xcsD6zXI74KvEyr8aIIueMMLlcEHWFzKCEMTQ249hMXu6U9VJGC4POKbYvrQKHmTMl0zSfOQo_-rOVlTUYVkH76d4gy7p05Zez5XWabcq1yKWCGMbFnx2qyGuS7fHMtoKgyxkQ_QAJlcStpaotWu7hYx9vHHj4Vu4_NcJTJjB7gDSw9jRg8kb3smot3imWjJnI-1AbUtwQa17kATKWsAhogseZeEyWwNj8WzDzjNArm1IGyAvds7v3wNb2C8RSlevXds5pa4F1doM-4FdpuvTRV_-kfCBAOxsmY_i5qoyAJS_BFlrmQ1HarLIjRLYGneQRln0tp_JHKdvLROKastwr8D-vmwjcPDzYj4rbmMdcAal5pvq-2mjhszrLrP3LWwAODgO59Ms_uMdDl6qKp_PjMu_Ne8QRjEVJapsvdWGjNoUOzOz1vL0ru57NhQyLhX3iowQWjfQ2HJ-aK1OkR7tJ60UfDmvWSDI-NNJDsOvxxtEm6qOSTDqMoKUJAnh_tXjGMfro-HToQktaaaKWz-Xybw88soav4nWyZcLm92s7vbqbKFEdeNfCC2ZvXx8eQ8UCPEzmzxoWSLHpdes6-veSqOn4-uRjjjv0-ZuLPCPuOBH61L0c2K7BPVSk4O183OyscoP1RN3IsDZXzngPVB5bPcwELHjKDHHRBpgDatPbHwwZ5OOIkjd95YP_KpSXLjqjxPlNL3zb44_GWSmcsLqT3RJDZzx5zZDQkUOMt9XWIPoHLFdFTgy-SMRMBMzGoxG4oD8yYYuZROOjo6rTB6mTxT5uRwcJccdeenRLTKsRweBxLvm-nvecow5giSswsc_Xen6uy5AwVNmlAja-nHVLh0xpTK-sp_GrIxhH_fPN-ybS3D9aD5zd1lZAsFr_pWQVdeRhyNZJbS5kuv-79RJTYt_vvUJjdw0EcNvPut-4unhBxsOBLsTbtMPNFzjiOskrNfOKvlfJpr3azHy0]--></g></svg>