<?xml version="1.0" encoding="us-ascii" standalone="no"?><svg xmlns="http://www.w3.org/2000/svg" xmlns:xlink="http://www.w3.org/1999/xlink" contentStyleType="text/css" height="772px" preserveAspectRatio="none" style="width:1511px;height:772px;background:#FFFFFF;" version="1.1" viewBox="0 0 1511 772" width="1511px" zoomAndPan="magnify"><defs/><g><!--cluster repair_portal--><g id="cluster_repair_portal"><path d="M8.5,6 L109.5,6 A3.75,3.75 0 0 1 112,8.5 L119,28.2969 L1501.5,28.2969 A2.5,2.5 0 0 1 1504,30.7969 L1504,762.5 A2.5,2.5 0 0 1 1501.5,765 L8.5,765 A2.5,2.5 0 0 1 6,762.5 L6,8.5 A2.5,2.5 0 0 1 8.5,6 " fill="none" style="stroke:#000000;stroke-width:1.5;"/><line style="stroke:#000000;stroke-width:1.5;" x1="6" x2="119" y1="28.2969" y2="28.2969"/><text fill="#000000" font-family="sans-serif" font-size="14" font-weight="bold" lengthAdjust="spacing" textLength="100" x="10" y="20.9951">repair_portal</text></g><!--cluster client_profile--><g id="cluster_client_profile"><path d="M32.5,49 L134.5,49 A3.75,3.75 0 0 1 137,51.5 L144,71.2969 L1477.5,71.2969 A2.5,2.5 0 0 1 1480,73.7969 L1480,738.5 A2.5,2.5 0 0 1 1477.5,741 L32.5,741 A2.5,2.5 0 0 1 30,738.5 L30,51.5 A2.5,2.5 0 0 1 32.5,49 " fill="none" style="stroke:#000000;stroke-width:1.5;"/><line style="stroke:#000000;stroke-width:1.5;" x1="30" x2="144" y1="71.2969" y2="71.2969"/><text fill="#000000" font-family="sans-serif" font-size="14" font-weight="bold" lengthAdjust="spacing" textLength="101" x="34" y="63.9951">client_profile</text></g><!--class Active--><g id="elem_Active"><rect codeLine="2" fill="#D2B4DE" height="48" id="Active" rx="2.5" ry="2.5" style="stroke:#181818;stroke-width:0.5;" width="73" x="1042.5" y="133"/><ellipse cx="1057.5" cy="149" fill="#ADD1B2" rx="11" ry="11" style="stroke:#181818;stroke-width:1.0;"/><path d="M1061.0156,153.0313 L1061.0156,155.0625 Q1059.5313,155.6719 1057.7031,155.6719 Q1054.9844,155.6719 1053.5313,153.9375 Q1052.0781,152.1875 1052.0781,149.0781 Q1052.0781,146.0781 1053.6563,144.2969 Q1055.2344,142.5 1057.9531,142.5 Q1059.8594,142.5 1061.5938,143.4219 L1060.6406,145.3281 Q1059.1406,144.5469 1057.9531,144.5469 Q1056.3438,144.5469 1055.3594,145.7656 Q1054.3906,146.9688 1054.3906,149.0938 Q1054.3906,151.3438 1055.2969,152.4844 Q1056.2188,153.625 1057.9531,153.625 Q1058.9844,153.625 1061.0156,153.0313 Z " fill="#000000"/><text fill="#000000" font-family="sans-serif" font-size="14" lengthAdjust="spacing" textLength="41" x="1071.5" y="153.8467">Active</text><line style="stroke:#181818;stroke-width:0.5;" x1="1043.5" x2="1114.5" y1="165" y2="165"/><line style="stroke:#181818;stroke-width:0.5;" x1="1043.5" x2="1114.5" y1="173" y2="173"/></g><!--class Archived--><g id="elem_Archived"><rect codeLine="4" fill="#D2B4DE" height="48" id="Archived" rx="2.5" ry="2.5" style="stroke:#181818;stroke-width:0.5;" width="91" x="1150.5" y="133"/><ellipse cx="1165.5" cy="149" fill="#ADD1B2" rx="11" ry="11" style="stroke:#181818;stroke-width:1.0;"/><path d="M1169.0156,153.0313 L1169.0156,155.0625 Q1167.5313,155.6719 1165.7031,155.6719 Q1162.9844,155.6719 1161.5313,153.9375 Q1160.0781,152.1875 1160.0781,149.0781 Q1160.0781,146.0781 1161.6563,144.2969 Q1163.2344,142.5 1165.9531,142.5 Q1167.8594,142.5 1169.5938,143.4219 L1168.6406,145.3281 Q1167.1406,144.5469 1165.9531,144.5469 Q1164.3438,144.5469 1163.3594,145.7656 Q1162.3906,146.9688 1162.3906,149.0938 Q1162.3906,151.3438 1163.2969,152.4844 Q1164.2188,153.625 1165.9531,153.625 Q1166.9844,153.625 1169.0156,153.0313 Z " fill="#000000"/><text fill="#000000" font-family="sans-serif" font-size="14" lengthAdjust="spacing" textLength="59" x="1179.5" y="153.8467">Archived</text><line style="stroke:#181818;stroke-width:0.5;" x1="1151.5" x2="1240.5" y1="165" y2="165"/><line style="stroke:#181818;stroke-width:0.5;" x1="1151.5" x2="1240.5" y1="173" y2="173"/></g><!--class Draft--><g id="elem_Draft"><rect codeLine="6" fill="#D2B4DE" height="48" id="Draft" rx="2.5" ry="2.5" style="stroke:#181818;stroke-width:0.5;" width="65" x="1276.5" y="133"/><ellipse cx="1291.5" cy="149" fill="#ADD1B2" rx="11" ry="11" style="stroke:#181818;stroke-width:1.0;"/><path d="M1295.0156,153.0313 L1295.0156,155.0625 Q1293.5313,155.6719 1291.7031,155.6719 Q1288.9844,155.6719 1287.5313,153.9375 Q1286.0781,152.1875 1286.0781,149.0781 Q1286.0781,146.0781 1287.6563,144.2969 Q1289.2344,142.5 1291.9531,142.5 Q1293.8594,142.5 1295.5938,143.4219 L1294.6406,145.3281 Q1293.1406,144.5469 1291.9531,144.5469 Q1290.3438,144.5469 1289.3594,145.7656 Q1288.3906,146.9688 1288.3906,149.0938 Q1288.3906,151.3438 1289.2969,152.4844 Q1290.2188,153.625 1291.9531,153.625 Q1292.9844,153.625 1295.0156,153.0313 Z " fill="#000000"/><text fill="#000000" font-family="sans-serif" font-size="14" lengthAdjust="spacing" textLength="33" x="1305.5" y="153.8467">Draft</text><line style="stroke:#181818;stroke-width:0.5;" x1="1277.5" x2="1340.5" y1="165" y2="165"/><line style="stroke:#181818;stroke-width:0.5;" x1="1277.5" x2="1340.5" y1="173" y2="173"/></g><!--class Deleted--><g id="elem_Deleted"><rect codeLine="8" fill="#D2B4DE" height="48" id="Deleted" rx="2.5" ry="2.5" style="stroke:#181818;stroke-width:0.5;" width="87" x="1376.5" y="133"/><ellipse cx="1391.5" cy="149" fill="#ADD1B2" rx="11" ry="11" style="stroke:#181818;stroke-width:1.0;"/><path d="M1395.0156,153.0313 L1395.0156,155.0625 Q1393.5313,155.6719 1391.7031,155.6719 Q1388.9844,155.6719 1387.5313,153.9375 Q1386.0781,152.1875 1386.0781,149.0781 Q1386.0781,146.0781 1387.6563,144.2969 Q1389.2344,142.5 1391.9531,142.5 Q1393.8594,142.5 1395.5938,143.4219 L1394.6406,145.3281 Q1393.1406,144.5469 1391.9531,144.5469 Q1390.3438,144.5469 1389.3594,145.7656 Q1388.3906,146.9688 1388.3906,149.0938 Q1388.3906,151.3438 1389.2969,152.4844 Q1390.2188,153.625 1391.9531,153.625 Q1392.9844,153.625 1395.0156,153.0313 Z " fill="#000000"/><text fill="#000000" font-family="sans-serif" font-size="14" lengthAdjust="spacing" textLength="55" x="1405.5" y="153.8467">Deleted</text><line style="stroke:#181818;stroke-width:0.5;" x1="1377.5" x2="1462.5" y1="165" y2="165"/><line style="stroke:#181818;stroke-width:0.5;" x1="1377.5" x2="1462.5" y1="173" y2="173"/></g><!--class Client Profile--><g id="elem_Client Profile"><rect codeLine="47" fill="#D2B4DE" height="276.1563" id="Client Profile" rx="2.5" ry="2.5" style="stroke:#181818;stroke-width:0.5;" width="265" x="303.5" y="307"/><ellipse cx="389.25" cy="323" fill="#ADD1B2" rx="11" ry="11" style="stroke:#181818;stroke-width:1.0;"/><path d="M392.7656,327.0313 L392.7656,329.0625 Q391.2813,329.6719 389.4531,329.6719 Q386.7344,329.6719 385.2813,327.9375 Q383.8281,326.1875 383.8281,323.0781 Q383.8281,320.0781 385.4063,318.2969 Q386.9844,316.5 389.7031,316.5 Q391.6094,316.5 393.3438,317.4219 L392.3906,319.3281 Q390.8906,318.5469 389.7031,318.5469 Q388.0938,318.5469 387.1094,319.7656 Q386.1406,320.9688 386.1406,323.0938 Q386.1406,325.3438 387.0469,326.4844 Q387.9688,327.625 389.7031,327.625 Q390.7344,327.625 392.7656,327.0313 Z " fill="#000000"/><text fill="#000000" font-family="sans-serif" font-size="14" lengthAdjust="spacing" textLength="85" x="409.75" y="327.8467">Client Profile</text><line style="stroke:#181818;stroke-width:0.5;" x1="304.5" x2="567.5" y1="339" y2="339"/><text fill="#000000" font-family="sans-serif" font-size="14" lengthAdjust="spacing" textLength="145" x="309.5" y="355.9951">naming_series : Data</text><text fill="#000000" font-family="sans-serif" font-size="14" lengthAdjust="spacing" textLength="177" x="309.5" y="372.292">client_profile_name : Data</text><text fill="#000000" font-family="sans-serif" font-size="14" lengthAdjust="spacing" textLength="238" x="309.5" y="388.5889">client_profile_image : Attach Image</text><text fill="#000000" font-family="sans-serif" font-size="14" lengthAdjust="spacing" textLength="253" x="309.5" y="404.8857">client_profile_description : Small Text</text><text fill="#000000" font-family="sans-serif" font-size="14" lengthAdjust="spacing" textLength="163" x="309.5" y="421.1826">client_profile_type : Link</text><text fill="#000000" font-family="sans-serif" font-size="14" lengthAdjust="spacing" textLength="128" x="309.5" y="437.4795">client_name : Data</text><text fill="#000000" font-family="sans-serif" font-size="14" lengthAdjust="spacing" textLength="106" x="309.5" y="453.7764">customer : Link</text><text fill="#000000" font-family="sans-serif" font-size="14" lengthAdjust="spacing" textLength="81" x="309.5" y="470.0732">email : Data</text><text fill="#000000" font-family="sans-serif" font-size="14" lengthAdjust="spacing" textLength="90" x="309.5" y="486.3701">phone : Data</text><text fill="#000000" font-family="sans-serif" font-size="14" lengthAdjust="spacing" textLength="240" x="309.5" y="502.667">preferred_contact_method : Select</text><text fill="#000000" font-family="sans-serif" font-size="14" lengthAdjust="spacing" textLength="177" x="309.5" y="518.9639">instruments_owned : Link</text><text fill="#000000" font-family="sans-serif" font-size="14" lengthAdjust="spacing" textLength="136" x="309.5" y="535.2607">consent_log : Table</text><text fill="#000000" font-family="sans-serif" font-size="14" lengthAdjust="spacing" textLength="205" x="309.5" y="551.5576">technician_notes : Text Editor</text><text fill="#000000" font-family="sans-serif" font-size="14" lengthAdjust="spacing" textLength="132" x="309.5" y="567.8545">profile_status : Link</text><line style="stroke:#181818;stroke-width:0.5;" x1="304.5" x2="567.5" y1="575.1563" y2="575.1563"/></g><!--class Unnamed--><g id="elem_Unnamed"><rect codeLine="12" fill="#D2B4DE" height="48" id="Unnamed" rx="2.5" ry="2.5" style="stroke:#181818;stroke-width:0.5;" width="99" x="820.5" y="421"/><ellipse cx="835.5" cy="437" fill="#ADD1B2" rx="11" ry="11" style="stroke:#181818;stroke-width:1.0;"/><path d="M839.0156,441.0313 L839.0156,443.0625 Q837.5313,443.6719 835.7031,443.6719 Q832.9844,443.6719 831.5313,441.9375 Q830.0781,440.1875 830.0781,437.0781 Q830.0781,434.0781 831.6563,432.2969 Q833.2344,430.5 835.9531,430.5 Q837.8594,430.5 839.5938,431.4219 L838.6406,433.3281 Q837.1406,432.5469 835.9531,432.5469 Q834.3438,432.5469 833.3594,433.7656 Q832.3906,434.9688 832.3906,437.0938 Q832.3906,439.3438 833.2969,440.4844 Q834.2188,441.625 835.9531,441.625 Q836.9844,441.625 839.0156,441.0313 Z " fill="#000000"/><text fill="#000000" font-family="sans-serif" font-size="14" lengthAdjust="spacing" textLength="67" x="849.5" y="441.8467">Unnamed</text><line style="stroke:#181818;stroke-width:0.5;" x1="821.5" x2="918.5" y1="453" y2="453"/><line style="stroke:#181818;stroke-width:0.5;" x1="821.5" x2="918.5" y1="461" y2="461"/></g><!--class profile-view--><g id="elem_profile-view"><rect codeLine="14" fill="#D2B4DE" height="48" id="profile-view" rx="2.5" ry="2.5" style="stroke:#181818;stroke-width:0.5;" width="109" x="954.5" y="421"/><ellipse cx="969.5" cy="437" fill="#ADD1B2" rx="11" ry="11" style="stroke:#181818;stroke-width:1.0;"/><path d="M973.0156,441.0313 L973.0156,443.0625 Q971.5313,443.6719 969.7031,443.6719 Q966.9844,443.6719 965.5313,441.9375 Q964.0781,440.1875 964.0781,437.0781 Q964.0781,434.0781 965.6563,432.2969 Q967.2344,430.5 969.9531,430.5 Q971.8594,430.5 973.5938,431.4219 L972.6406,433.3281 Q971.1406,432.5469 969.9531,432.5469 Q968.3438,432.5469 967.3594,433.7656 Q966.3906,434.9688 966.3906,437.0938 Q966.3906,439.3438 967.2969,440.4844 Q968.2188,441.625 969.9531,441.625 Q970.9844,441.625 973.0156,441.0313 Z " fill="#000000"/><text fill="#000000" font-family="sans-serif" font-size="14" lengthAdjust="spacing" textLength="77" x="983.5" y="441.8467">profile-view</text><line style="stroke:#181818;stroke-width:0.5;" x1="955.5" x2="1062.5" y1="453" y2="453"/><line style="stroke:#181818;stroke-width:0.5;" x1="955.5" x2="1062.5" y1="461" y2="461"/></g><!--class client-portal--><g id="elem_client-portal"><rect codeLine="16" fill="#D2B4DE" height="48" id="client-portal" rx="2.5" ry="2.5" style="stroke:#181818;stroke-width:0.5;" width="113" x="1098.5" y="421"/><ellipse cx="1113.5" cy="437" fill="#ADD1B2" rx="11" ry="11" style="stroke:#181818;stroke-width:1.0;"/><path d="M1117.0156,441.0313 L1117.0156,443.0625 Q1115.5313,443.6719 1113.7031,443.6719 Q1110.9844,443.6719 1109.5313,441.9375 Q1108.0781,440.1875 1108.0781,437.0781 Q1108.0781,434.0781 1109.6563,432.2969 Q1111.2344,430.5 1113.9531,430.5 Q1115.8594,430.5 1117.5938,431.4219 L1116.6406,433.3281 Q1115.1406,432.5469 1113.9531,432.5469 Q1112.3438,432.5469 1111.3594,433.7656 Q1110.3906,434.9688 1110.3906,437.0938 Q1110.3906,439.3438 1111.2969,440.4844 Q1112.2188,441.625 1113.9531,441.625 Q1114.9844,441.625 1117.0156,441.0313 Z " fill="#000000"/><text fill="#000000" font-family="sans-serif" font-size="14" lengthAdjust="spacing" textLength="81" x="1127.5" y="441.8467">client-portal</text><line style="stroke:#181818;stroke-width:0.5;" x1="1099.5" x2="1210.5" y1="453" y2="453"/><line style="stroke:#181818;stroke-width:0.5;" x1="1099.5" x2="1210.5" y1="461" y2="461"/></g><!--class Client Profile Setup Actions--><g id="elem_Client Profile Setup Actions"><rect codeLine="18" fill="#D2B4DE" height="48" id="Client Profile Setup Actions" rx="2.5" ry="2.5" style="stroke:#181818;stroke-width:0.5;" width="217" x="1246.5" y="421"/><ellipse cx="1261.5" cy="437" fill="#ADD1B2" rx="11" ry="11" style="stroke:#181818;stroke-width:1.0;"/><path d="M1265.0156,441.0313 L1265.0156,443.0625 Q1263.5313,443.6719 1261.7031,443.6719 Q1258.9844,443.6719 1257.5313,441.9375 Q1256.0781,440.1875 1256.0781,437.0781 Q1256.0781,434.0781 1257.6563,432.2969 Q1259.2344,430.5 1261.9531,430.5 Q1263.8594,430.5 1265.5938,431.4219 L1264.6406,433.3281 Q1263.1406,432.5469 1261.9531,432.5469 Q1260.3438,432.5469 1259.3594,433.7656 Q1258.3906,434.9688 1258.3906,437.0938 Q1258.3906,439.3438 1259.2969,440.4844 Q1260.2188,441.625 1261.9531,441.625 Q1262.9844,441.625 1265.0156,441.0313 Z " fill="#000000"/><text fill="#000000" font-family="sans-serif" font-size="14" lengthAdjust="spacing" textLength="185" x="1275.5" y="441.8467">Client Profile Setup Actions</text><line style="stroke:#181818;stroke-width:0.5;" x1="1247.5" x2="1462.5" y1="453" y2="453"/><line style="stroke:#181818;stroke-width:0.5;" x1="1247.5" x2="1462.5" y1="461" y2="461"/></g><!--class Client Dashboard--><g id="elem_Client Dashboard"><rect codeLine="20" fill="#D2B4DE" height="48" id="Client Dashboard" rx="2.5" ry="2.5" style="stroke:#181818;stroke-width:0.5;" width="151" x="794.5" y="660.5"/><ellipse cx="809.5" cy="676.5" fill="#ADD1B2" rx="11" ry="11" style="stroke:#181818;stroke-width:1.0;"/><path d="M813.0156,680.5313 L813.0156,682.5625 Q811.5313,683.1719 809.7031,683.1719 Q806.9844,683.1719 805.5313,681.4375 Q804.0781,679.6875 804.0781,676.5781 Q804.0781,673.5781 805.6563,671.7969 Q807.2344,670 809.9531,670 Q811.8594,670 813.5938,670.9219 L812.6406,672.8281 Q811.1406,672.0469 809.9531,672.0469 Q808.3438,672.0469 807.3594,673.2656 Q806.3906,674.4688 806.3906,676.5938 Q806.3906,678.8438 807.2969,679.9844 Q808.2188,681.125 809.9531,681.125 Q810.9844,681.125 813.0156,680.5313 Z " fill="#000000"/><text fill="#000000" font-family="sans-serif" font-size="14" lengthAdjust="spacing" textLength="119" x="823.5" y="681.3467">Client Dashboard</text><line style="stroke:#181818;stroke-width:0.5;" x1="795.5" x2="944.5" y1="692.5" y2="692.5"/><line style="stroke:#181818;stroke-width:0.5;" x1="795.5" x2="944.5" y1="700.5" y2="700.5"/></g><!--class Consent Log--><g id="elem_Consent Log"><rect codeLine="22" fill="#D2B4DE" height="96.8906" id="Consent Log" rx="2.5" ry="2.5" style="stroke:#181818;stroke-width:0.5;" width="162" x="557" y="108.5"/><ellipse cx="590.9" cy="124.5" fill="#ADD1B2" rx="11" ry="11" style="stroke:#181818;stroke-width:1.0;"/><path d="M594.4156,128.5313 L594.4156,130.5625 Q592.9313,131.1719 591.1031,131.1719 Q588.3844,131.1719 586.9313,129.4375 Q585.4781,127.6875 585.4781,124.5781 Q585.4781,121.5781 587.0563,119.7969 Q588.6344,118 591.3531,118 Q593.2594,118 594.9938,118.9219 L594.0406,120.8281 Q592.5406,120.0469 591.3531,120.0469 Q589.7438,120.0469 588.7594,121.2656 Q587.7906,122.4688 587.7906,124.5938 Q587.7906,126.8438 588.6969,127.9844 Q589.6188,129.125 591.3531,129.125 Q592.3844,129.125 594.4156,128.5313 Z " fill="#000000"/><text fill="#000000" font-family="sans-serif" font-size="14" lengthAdjust="spacing" textLength="88" x="609.1" y="129.3467">Consent Log</text><line style="stroke:#181818;stroke-width:0.5;" x1="558" x2="718" y1="140.5" y2="140.5"/><text fill="#000000" font-family="sans-serif" font-size="14" lengthAdjust="spacing" textLength="150" x="563" y="157.4951">consent_type : Select</text><text fill="#000000" font-family="sans-serif" font-size="14" lengthAdjust="spacing" textLength="121" x="563" y="173.792">date_given : Date</text><text fill="#000000" font-family="sans-serif" font-size="14" lengthAdjust="spacing" textLength="123" x="563" y="190.0889">notes : Small Text</text><line style="stroke:#181818;stroke-width:0.5;" x1="558" x2="718" y1="197.3906" y2="197.3906"/></g><!--class Client Profile Type--><g id="elem_Client Profile Type"><rect codeLine="27" fill="#D2B4DE" height="145.7813" id="Client Profile Type" rx="2.5" ry="2.5" style="stroke:#181818;stroke-width:0.5;" width="172" x="350" y="84"/><ellipse cx="372.65" cy="100" fill="#ADD1B2" rx="11" ry="11" style="stroke:#181818;stroke-width:1.0;"/><path d="M376.1656,104.0313 L376.1656,106.0625 Q374.6813,106.6719 372.8531,106.6719 Q370.1344,106.6719 368.6813,104.9375 Q367.2281,103.1875 367.2281,100.0781 Q367.2281,97.0781 368.8063,95.2969 Q370.3844,93.5 373.1031,93.5 Q375.0094,93.5 376.7438,94.4219 L375.7906,96.3281 Q374.2906,95.5469 373.1031,95.5469 Q371.4938,95.5469 370.5094,96.7656 Q369.5406,97.9688 369.5406,100.0938 Q369.5406,102.3438 370.4469,103.4844 Q371.3688,104.625 373.1031,104.625 Q374.1344,104.625 376.1656,104.0313 Z " fill="#000000"/><text fill="#000000" font-family="sans-serif" font-size="14" lengthAdjust="spacing" textLength="123" x="388.35" y="104.8467">Client Profile Type</text><line style="stroke:#181818;stroke-width:0.5;" x1="351" x2="521" y1="116" y2="116"/><text fill="#000000" font-family="sans-serif" font-size="14" lengthAdjust="spacing" textLength="145" x="356" y="132.9951">naming_series : Data</text><text fill="#000000" font-family="sans-serif" font-size="14" lengthAdjust="spacing" textLength="121" x="356" y="149.292">type_name : Data</text><text fill="#000000" font-family="sans-serif" font-size="14" lengthAdjust="spacing" textLength="122" x="356" y="165.5889">is_default : Check</text><text fill="#000000" font-family="sans-serif" font-size="14" lengthAdjust="spacing" textLength="145" x="356" y="181.8857">portal_visible : Check</text><text fill="#000000" font-family="sans-serif" font-size="14" lengthAdjust="spacing" textLength="160" x="356" y="198.1826">description : Small Text</text><text fill="#000000" font-family="sans-serif" font-size="14" lengthAdjust="spacing" textLength="83" x="356" y="214.4795">color : Color</text><line style="stroke:#181818;stroke-width:0.5;" x1="351" x2="521" y1="221.7813" y2="221.7813"/></g><!--class User--><g id="elem_User"><rect fill="#F1F1F1" height="48" id="User" rx="2.5" ry="2.5" style="stroke:#181818;stroke-width:0.5;" width="64" x="943" y="133"/><ellipse cx="958" cy="149" fill="#ADD1B2" rx="11" ry="11" style="stroke:#181818;stroke-width:1.0;"/><path d="M961.5156,153.0313 L961.5156,155.0625 Q960.0313,155.6719 958.2031,155.6719 Q955.4844,155.6719 954.0313,153.9375 Q952.5781,152.1875 952.5781,149.0781 Q952.5781,146.0781 954.1563,144.2969 Q955.7344,142.5 958.4531,142.5 Q960.3594,142.5 962.0938,143.4219 L961.1406,145.3281 Q959.6406,144.5469 958.4531,144.5469 Q956.8438,144.5469 955.8594,145.7656 Q954.8906,146.9688 954.8906,149.0938 Q954.8906,151.3438 955.7969,152.4844 Q956.7188,153.625 958.4531,153.625 Q959.4844,153.625 961.5156,153.0313 Z " fill="#000000"/><text fill="#000000" font-family="sans-serif" font-size="14" lengthAdjust="spacing" textLength="32" x="972" y="153.8467">User</text><line style="stroke:#181818;stroke-width:0.5;" x1="944" x2="1006" y1="165" y2="165"/><line style="stroke:#181818;stroke-width:0.5;" x1="944" x2="1006" y1="173" y2="173"/></g><!--class Consent Log Entry--><g id="elem_Consent Log Entry"><rect codeLine="36" fill="#D2B4DE" height="113.1875" id="Consent Log Entry" rx="2.5" ry="2.5" style="stroke:#181818;stroke-width:0.5;" width="159" x="626.5" y="388.5"/><ellipse cx="641.5" cy="404.5" fill="#ADD1B2" rx="11" ry="11" style="stroke:#181818;stroke-width:1.0;"/><path d="M645.0156,408.5313 L645.0156,410.5625 Q643.5313,411.1719 641.7031,411.1719 Q638.9844,411.1719 637.5313,409.4375 Q636.0781,407.6875 636.0781,404.5781 Q636.0781,401.5781 637.6563,399.7969 Q639.2344,398 641.9531,398 Q643.8594,398 645.5938,398.9219 L644.6406,400.8281 Q643.1406,400.0469 641.9531,400.0469 Q640.3438,400.0469 639.3594,401.2656 Q638.3906,402.4688 638.3906,404.5938 Q638.3906,406.8438 639.2969,407.9844 Q640.2188,409.125 641.9531,409.125 Q642.9844,409.125 645.0156,408.5313 Z " fill="#000000"/><text fill="#000000" font-family="sans-serif" font-size="14" lengthAdjust="spacing" textLength="127" x="655.5" y="409.3467">Consent Log Entry</text><line style="stroke:#181818;stroke-width:0.5;" x1="627.5" x2="784.5" y1="420.5" y2="420.5"/><text fill="#000000" font-family="sans-serif" font-size="14" lengthAdjust="spacing" textLength="119" x="632.5" y="437.4951">entry_date : Date</text><text fill="#000000" font-family="sans-serif" font-size="14" lengthAdjust="spacing" textLength="110" x="632.5" y="453.792">method : Select</text><text fill="#000000" font-family="sans-serif" font-size="14" lengthAdjust="spacing" textLength="111" x="632.5" y="470.0889">technician : Link</text><text fill="#000000" font-family="sans-serif" font-size="14" lengthAdjust="spacing" textLength="123" x="632.5" y="486.3857">notes : Small Text</text><line style="stroke:#181818;stroke-width:0.5;" x1="627.5" x2="784.5" y1="493.6875" y2="493.6875"/></g><!--class Customer--><g id="elem_Customer"><rect fill="#F1F1F1" height="48" id="Customer" rx="2.5" ry="2.5" style="stroke:#181818;stroke-width:0.5;" width="100" x="46" y="133"/><ellipse cx="61" cy="149" fill="#ADD1B2" rx="11" ry="11" style="stroke:#181818;stroke-width:1.0;"/><path d="M64.5156,153.0313 L64.5156,155.0625 Q63.0313,155.6719 61.2031,155.6719 Q58.4844,155.6719 57.0313,153.9375 Q55.5781,152.1875 55.5781,149.0781 Q55.5781,146.0781 57.1563,144.2969 Q58.7344,142.5 61.4531,142.5 Q63.3594,142.5 65.0938,143.4219 L64.1406,145.3281 Q62.6406,144.5469 61.4531,144.5469 Q59.8438,144.5469 58.8594,145.7656 Q57.8906,146.9688 57.8906,149.0938 Q57.8906,151.3438 58.7969,152.4844 Q59.7188,153.625 61.4531,153.625 Q62.4844,153.625 64.5156,153.0313 Z " fill="#000000"/><text fill="#000000" font-family="sans-serif" font-size="14" lengthAdjust="spacing" textLength="68" x="75" y="153.8467">Customer</text><line style="stroke:#181818;stroke-width:0.5;" x1="47" x2="145" y1="165" y2="165"/><line style="stroke:#181818;stroke-width:0.5;" x1="47" x2="145" y1="173" y2="173"/></g><!--class Instrument Profile--><g id="elem_Instrument Profile"><rect fill="#F1F1F1" height="48" id="Instrument Profile" rx="2.5" ry="2.5" style="stroke:#181818;stroke-width:0.5;" width="153" x="754.5" y="133"/><ellipse cx="769.5" cy="149" fill="#ADD1B2" rx="11" ry="11" style="stroke:#181818;stroke-width:1.0;"/><path d="M773.0156,153.0313 L773.0156,155.0625 Q771.5313,155.6719 769.7031,155.6719 Q766.9844,155.6719 765.5313,153.9375 Q764.0781,152.1875 764.0781,149.0781 Q764.0781,146.0781 765.6563,144.2969 Q767.2344,142.5 769.9531,142.5 Q771.8594,142.5 773.5938,143.4219 L772.6406,145.3281 Q771.1406,144.5469 769.9531,144.5469 Q768.3438,144.5469 767.3594,145.7656 Q766.3906,146.9688 766.3906,149.0938 Q766.3906,151.3438 767.2969,152.4844 Q768.2188,153.625 769.9531,153.625 Q770.9844,153.625 773.0156,153.0313 Z " fill="#000000"/><text fill="#000000" font-family="sans-serif" font-size="14" lengthAdjust="spacing" textLength="121" x="783.5" y="153.8467">Instrument Profile</text><line style="stroke:#181818;stroke-width:0.5;" x1="755.5" x2="906.5" y1="165" y2="165"/><line style="stroke:#181818;stroke-width:0.5;" x1="755.5" x2="906.5" y1="173" y2="173"/></g><!--class Workflow State--><g id="elem_Workflow State"><rect fill="#F1F1F1" height="48" id="Workflow State" rx="2.5" ry="2.5" style="stroke:#181818;stroke-width:0.5;" width="134" x="181" y="133"/><ellipse cx="196" cy="149" fill="#ADD1B2" rx="11" ry="11" style="stroke:#181818;stroke-width:1.0;"/><path d="M199.5156,153.0313 L199.5156,155.0625 Q198.0313,155.6719 196.2031,155.6719 Q193.4844,155.6719 192.0313,153.9375 Q190.5781,152.1875 190.5781,149.0781 Q190.5781,146.0781 192.1563,144.2969 Q193.7344,142.5 196.4531,142.5 Q198.3594,142.5 200.0938,143.4219 L199.1406,145.3281 Q197.6406,144.5469 196.4531,144.5469 Q194.8438,144.5469 193.8594,145.7656 Q192.8906,146.9688 192.8906,149.0938 Q192.8906,151.3438 193.7969,152.4844 Q194.7188,153.625 196.4531,153.625 Q197.4844,153.625 199.5156,153.0313 Z " fill="#000000"/><text fill="#000000" font-family="sans-serif" font-size="14" lengthAdjust="spacing" textLength="102" x="210" y="153.8467">Workflow State</text><line style="stroke:#181818;stroke-width:0.5;" x1="182" x2="314" y1="165" y2="165"/><line style="stroke:#181818;stroke-width:0.5;" x1="182" x2="314" y1="173" y2="173"/></g><!--class Instruments Owned--><g id="elem_Instruments Owned"><rect codeLine="63" fill="#D2B4DE" height="80.5938" id="Instruments Owned" rx="2.5" ry="2.5" style="stroke:#181818;stroke-width:0.5;" width="199" x="980.5" y="644"/><ellipse cx="1009.45" cy="660" fill="#ADD1B2" rx="11" ry="11" style="stroke:#181818;stroke-width:1.0;"/><path d="M1012.9656,664.0313 L1012.9656,666.0625 Q1011.4813,666.6719 1009.6531,666.6719 Q1006.9344,666.6719 1005.4813,664.9375 Q1004.0281,663.1875 1004.0281,660.0781 Q1004.0281,657.0781 1005.6063,655.2969 Q1007.1844,653.5 1009.9031,653.5 Q1011.8094,653.5 1013.5438,654.4219 L1012.5906,656.3281 Q1011.0906,655.5469 1009.9031,655.5469 Q1008.2938,655.5469 1007.3094,656.7656 Q1006.3406,657.9688 1006.3406,660.0938 Q1006.3406,662.3438 1007.2469,663.4844 Q1008.1688,664.625 1009.9031,664.625 Q1010.9344,664.625 1012.9656,664.0313 Z " fill="#000000"/><text fill="#000000" font-family="sans-serif" font-size="14" lengthAdjust="spacing" textLength="136" x="1026.55" y="664.8467">Instruments Owned</text><line style="stroke:#181818;stroke-width:0.5;" x1="981.5" x2="1178.5" y1="676" y2="676"/><text fill="#000000" font-family="sans-serif" font-size="14" lengthAdjust="spacing" textLength="187" x="986.5" y="692.9951">instrument_category : Data</text><text fill="#000000" font-family="sans-serif" font-size="14" lengthAdjust="spacing" textLength="142" x="986.5" y="709.292">serial_number : Data</text><line style="stroke:#181818;stroke-width:0.5;" x1="981.5" x2="1178.5" y1="716.5938" y2="716.5938"/></g><!--class Client Profile Workflow--><g id="elem_Client Profile Workflow"><rect codeLine="67" fill="#D2B4DE" height="48" id="Client Profile Workflow" rx="2.5" ry="2.5" style="stroke:#181818;stroke-width:0.5;" width="183" x="1214.5" y="660.5"/><ellipse cx="1229.5" cy="676.5" fill="#ADD1B2" rx="11" ry="11" style="stroke:#181818;stroke-width:1.0;"/><path d="M1233.0156,680.5313 L1233.0156,682.5625 Q1231.5313,683.1719 1229.7031,683.1719 Q1226.9844,683.1719 1225.5313,681.4375 Q1224.0781,679.6875 1224.0781,676.5781 Q1224.0781,673.5781 1225.6563,671.7969 Q1227.2344,670 1229.9531,670 Q1231.8594,670 1233.5938,670.9219 L1232.6406,672.8281 Q1231.1406,672.0469 1229.9531,672.0469 Q1228.3438,672.0469 1227.3594,673.2656 Q1226.3906,674.4688 1226.3906,676.5938 Q1226.3906,678.8438 1227.2969,679.9844 Q1228.2188,681.125 1229.9531,681.125 Q1230.9844,681.125 1233.0156,680.5313 Z " fill="#000000"/><text fill="#000000" font-family="sans-serif" font-size="14" lengthAdjust="spacing" textLength="151" x="1243.5" y="681.3467">Client Profile Workflow</text><line style="stroke:#181818;stroke-width:0.5;" x1="1215.5" x2="1396.5" y1="692.5" y2="692.5"/><line style="stroke:#181818;stroke-width:0.5;" x1="1215.5" x2="1396.5" y1="700.5" y2="700.5"/></g><!--reverse link User to Consent Log Entry--><g id="link_User_Consent Log Entry"><path codeLine="35" d="M962.76,193.55 C951.84,220.19 933.31,255.61 906,277 C868.46,306.4 841.83,279.33 803,307 C773.81,327.8 750.27,360.24 733.7,388.33 " fill="none" id="User-backto-Consent Log Entry" style="stroke:#181818;stroke-width:1.0;"/><polygon fill="#181818" points="967.52,181.27,961.6249,185.423,963.191,192.462,969.0862,188.309,967.52,181.27" style="stroke:#181818;stroke-width:1.0;"/><text fill="#000000" font-family="sans-serif" font-size="13" lengthAdjust="spacing" textLength="65" x="923" y="273.0669">technician</text></g><!--reverse link Client Profile Type to Client Profile--><g id="link_Client Profile Type_Client Profile"><path codeLine="42" d="M436,243.39 C436,263.42 436,285.26 436,306.92 " fill="none" id="Client Profile Type-backto-Client Profile" style="stroke:#181818;stroke-width:1.0;"/><polygon fill="#181818" points="436,230.17,432,236.17,436,242.17,440,236.17,436,230.17" style="stroke:#181818;stroke-width:1.0;"/><text fill="#000000" font-family="sans-serif" font-size="13" lengthAdjust="spacing" textLength="115" x="437" y="273.0669">client_profile_type</text></g><!--reverse link Customer to Client Profile--><g id="link_Customer_Client Profile"><path codeLine="43" d="M124.67,190.96 C136.17,203.59 149.8,217.88 163,230 C206.9,270.34 257.68,311.48 303.44,346.77 " fill="none" id="Customer-backto-Client Profile" style="stroke:#181818;stroke-width:1.0;"/><polygon fill="#181818" points="115.96,181.25,116.982,188.3883,123.9642,190.1905,122.9423,183.0522,115.96,181.25" style="stroke:#181818;stroke-width:1.0;"/><text fill="#000000" font-family="sans-serif" font-size="13" lengthAdjust="spacing" textLength="61" x="213" y="273.0669">customer</text></g><!--reverse link Instrument Profile to Client Profile--><g id="link_Instrument Profile_Client Profile"><path codeLine="44" d="M791.98,189.45 C775.35,202.44 755.54,217.38 737,230 C709.56,248.68 636.29,288.1 609,307 C595.77,316.16 582.23,326 568.83,336.06 " fill="none" id="Instrument Profile-backto-Client Profile" style="stroke:#181818;stroke-width:1.0;"/><polygon fill="#181818" points="802.41,181.24,795.2214,181.8092,792.982,188.6638,800.1706,188.0946,802.41,181.24" style="stroke:#181818;stroke-width:1.0;"/><text fill="#000000" font-family="sans-serif" font-size="13" lengthAdjust="spacing" textLength="125" x="685" y="273.0669">instruments_owned</text></g><!--reverse link Consent Log to Client Profile--><g id="link_Consent Log_Client Profile"><path codeLine="45" d="M601.08,216.8 C588.62,236.16 574.46,257.67 561,277 C554.17,286.81 547.02,296.86 539.75,306.93 " fill="none" id="Consent Log-backto-Client Profile" style="stroke:#181818;stroke-width:1.0;"/><polygon fill="#181818" points="608.19,205.69,601.5846,208.5828,601.7142,215.7927,608.3197,212.8999,608.19,205.69" style="stroke:#181818;stroke-width:1.0;"/><text fill="#000000" font-family="sans-serif" font-size="13" lengthAdjust="spacing" textLength="77" x="572" y="273.0669">consent_log</text></g><!--reverse link Workflow State to Client Profile--><g id="link_Workflow State_Client Profile"><path codeLine="46" d="M270.66,192.48 C289.63,221.33 317.99,264.48 345.9,306.94 " fill="none" id="Workflow State-backto-Client Profile" style="stroke:#181818;stroke-width:1.0;"/><polygon fill="#181818" points="263.38,181.4,263.3317,188.6109,269.9693,191.429,270.0177,184.218,263.38,181.4" style="stroke:#181818;stroke-width:1.0;"/><text fill="#000000" font-family="sans-serif" font-size="13" lengthAdjust="spacing" textLength="86" x="326" y="273.0669">profile_status</text></g><!--SRC=[ZLHDYzim4BtdLmpkhP0UIazXMTXkKbXOQ66pz2WKUMABo9AHnab3sV_UKPn4TcplzcGyxytNcndLKkraWU2nbjgBsdcIveio6Ys9shkjDWXtTp-SoT7VtyFVcJ8o1CWU5EazPl1f-VNxj-MAWRShv5N9M3uABhtSqZY21cd2w_5K4Fng2ngbl5ehgmdtSoFplSR3AA5jUDws_nyLm0jIKqCKmTdmdiDIXdBZf9_eYxqZwzaLNHn0jO2WOusmu7G65R4zbuIYO7KjMvVympRh24CaLT8OMECVcYnxpU7wYLWqRGiHqEjJ48ufsHppYYXeCkaWSjpAnX3R7ajKEpQsYecz3dfZi0Fa69JNTTIdNrhipJWVgV7BfMQld3s3p_DvJn1OMVB7Z8c4ghHQQMb7TBlGkarXD8ceLLAfGYfTtjKoXMNhixQxAIt7LMphlLdC1VHlvpH03j04SbNgSkXr9ioo9nl8DrKFdt3ILseGxc0nd_KNQYhNURUCAsRPR-TtM-CEy4AiqwJFfPt0h2PyV9QJYtKZJt_5Ra1TnQTf0Gz4KfNm57-7hFSsRJYBDEepU5F1UGw9XfNK9X7gqjaEl_QuHUyn5wmgLqbYk6U3CNLgIADWurho3VKMKrpsCJO4grmJNmpSJECIxdhqQOK2_8m9-vD9zGZ5Co-SFwQ6uhpue6rJRKugdCnJpybbUVflszi_]--></g></svg>