<?xml version="1.0" encoding="us-ascii" standalone="no"?><svg xmlns="http://www.w3.org/2000/svg" xmlns:xlink="http://www.w3.org/1999/xlink" contentStyleType="text/css" height="625px" preserveAspectRatio="none" style="width:1628px;height:625px;background:#FFFFFF;" version="1.1" viewBox="0 0 1628 625" width="1628px" zoomAndPan="magnify"><defs/><g><!--cluster repair_portal--><g id="cluster_repair_portal"><path d="M8.5,6 L109.5,6 A3.75,3.75 0 0 1 112,8.5 L119,28.2969 L1618.5,28.2969 A2.5,2.5 0 0 1 1621,30.7969 L1621,615.5 A2.5,2.5 0 0 1 1618.5,618 L8.5,618 A2.5,2.5 0 0 1 6,615.5 L6,8.5 A2.5,2.5 0 0 1 8.5,6 " fill="none" style="stroke:#000000;stroke-width:1.5;"/><line style="stroke:#000000;stroke-width:1.5;" x1="6" x2="119" y1="28.2969" y2="28.2969"/><text fill="#000000" font-family="sans-serif" font-size="14" font-weight="bold" lengthAdjust="spacing" textLength="100" x="10" y="20.9951">repair_portal</text></g><!--cluster service_planning--><g id="cluster_service_planning"><path d="M32.5,49 L165.5,49 A3.75,3.75 0 0 1 168,51.5 L175,71.2969 L1594.5,71.2969 A2.5,2.5 0 0 1 1597,73.7969 L1597,591.5 A2.5,2.5 0 0 1 1594.5,594 L32.5,594 A2.5,2.5 0 0 1 30,591.5 L30,51.5 A2.5,2.5 0 0 1 32.5,49 " fill="none" style="stroke:#000000;stroke-width:1.5;"/><line style="stroke:#000000;stroke-width:1.5;" x1="30" x2="175" y1="71.2969" y2="71.2969"/><text fill="#000000" font-family="sans-serif" font-size="14" font-weight="bold" lengthAdjust="spacing" textLength="132" x="34" y="63.9951">service_planning</text></g><!--class Unnamed--><g id="elem_Unnamed"><rect codeLine="4" fill="#E59866" height="48" id="Unnamed" rx="2.5" ry="2.5" style="stroke:#181818;stroke-width:0.5;" width="99" x="940.5" y="84"/><ellipse cx="955.5" cy="100" fill="#ADD1B2" rx="11" ry="11" style="stroke:#181818;stroke-width:1.0;"/><path d="M959.0156,104.0313 L959.0156,106.0625 Q957.5313,106.6719 955.7031,106.6719 Q952.9844,106.6719 951.5313,104.9375 Q950.0781,103.1875 950.0781,100.0781 Q950.0781,97.0781 951.6563,95.2969 Q953.2344,93.5 955.9531,93.5 Q957.8594,93.5 959.5938,94.4219 L958.6406,96.3281 Q957.1406,95.5469 955.9531,95.5469 Q954.3438,95.5469 953.3594,96.7656 Q952.3906,97.9688 952.3906,100.0938 Q952.3906,102.3438 953.2969,103.4844 Q954.2188,104.625 955.9531,104.625 Q956.9844,104.625 959.0156,104.0313 Z " fill="#000000"/><text fill="#000000" font-family="sans-serif" font-size="14" lengthAdjust="spacing" textLength="67" x="969.5" y="104.8467">Unnamed</text><line style="stroke:#181818;stroke-width:0.5;" x1="941.5" x2="1038.5" y1="116" y2="116"/><line style="stroke:#181818;stroke-width:0.5;" x1="941.5" x2="1038.5" y1="124" y2="124"/></g><!--class Repair Bay Utilization--><g id="elem_Repair Bay Utilization"><rect codeLine="6" fill="#E59866" height="48" id="Repair Bay Utilization" rx="2.5" ry="2.5" style="stroke:#181818;stroke-width:0.5;" width="175" x="1074.5" y="84"/><ellipse cx="1089.5" cy="100" fill="#ADD1B2" rx="11" ry="11" style="stroke:#181818;stroke-width:1.0;"/><path d="M1093.0156,104.0313 L1093.0156,106.0625 Q1091.5313,106.6719 1089.7031,106.6719 Q1086.9844,106.6719 1085.5313,104.9375 Q1084.0781,103.1875 1084.0781,100.0781 Q1084.0781,97.0781 1085.6563,95.2969 Q1087.2344,93.5 1089.9531,93.5 Q1091.8594,93.5 1093.5938,94.4219 L1092.6406,96.3281 Q1091.1406,95.5469 1089.9531,95.5469 Q1088.3438,95.5469 1087.3594,96.7656 Q1086.3906,97.9688 1086.3906,100.0938 Q1086.3906,102.3438 1087.2969,103.4844 Q1088.2188,104.625 1089.9531,104.625 Q1090.9844,104.625 1093.0156,104.0313 Z " fill="#000000"/><text fill="#000000" font-family="sans-serif" font-size="14" lengthAdjust="spacing" textLength="143" x="1103.5" y="104.8467">Repair Bay Utilization</text><line style="stroke:#181818;stroke-width:0.5;" x1="1075.5" x2="1248.5" y1="116" y2="116"/><line style="stroke:#181818;stroke-width:0.5;" x1="1075.5" x2="1248.5" y1="124" y2="124"/></g><!--class Workflow State Mapping--><g id="elem_Workflow State Mapping"><rect codeLine="8" fill="#E59866" height="48" id="Workflow State Mapping" rx="2.5" ry="2.5" style="stroke:#181818;stroke-width:0.5;" width="197" x="1284.5" y="84"/><ellipse cx="1299.5" cy="100" fill="#ADD1B2" rx="11" ry="11" style="stroke:#181818;stroke-width:1.0;"/><path d="M1303.0156,104.0313 L1303.0156,106.0625 Q1301.5313,106.6719 1299.7031,106.6719 Q1296.9844,106.6719 1295.5313,104.9375 Q1294.0781,103.1875 1294.0781,100.0781 Q1294.0781,97.0781 1295.6563,95.2969 Q1297.2344,93.5 1299.9531,93.5 Q1301.8594,93.5 1303.5938,94.4219 L1302.6406,96.3281 Q1301.1406,95.5469 1299.9531,95.5469 Q1298.3438,95.5469 1297.3594,96.7656 Q1296.3906,97.9688 1296.3906,100.0938 Q1296.3906,102.3438 1297.2969,103.4844 Q1298.2188,104.625 1299.9531,104.625 Q1300.9844,104.625 1303.0156,104.0313 Z " fill="#000000"/><text fill="#000000" font-family="sans-serif" font-size="14" lengthAdjust="spacing" textLength="165" x="1313.5" y="104.8467">Workflow State Mapping</text><line style="stroke:#181818;stroke-width:0.5;" x1="1285.5" x2="1480.5" y1="116" y2="116"/><line style="stroke:#181818;stroke-width:0.5;" x1="1285.5" x2="1480.5" y1="124" y2="124"/></g><!--class Scheduled Service Tasks By Day--><g id="elem_Scheduled Service Tasks By Day"><rect codeLine="10" fill="#E59866" height="48" id="Scheduled Service Tasks By Day" rx="2.5" ry="2.5" style="stroke:#181818;stroke-width:0.5;" width="256" x="862" y="258"/><ellipse cx="877" cy="274" fill="#ADD1B2" rx="11" ry="11" style="stroke:#181818;stroke-width:1.0;"/><path d="M880.5156,278.0313 L880.5156,280.0625 Q879.0313,280.6719 877.2031,280.6719 Q874.4844,280.6719 873.0313,278.9375 Q871.5781,277.1875 871.5781,274.0781 Q871.5781,271.0781 873.1563,269.2969 Q874.7344,267.5 877.4531,267.5 Q879.3594,267.5 881.0938,268.4219 L880.1406,270.3281 Q878.6406,269.5469 877.4531,269.5469 Q875.8438,269.5469 874.8594,270.7656 Q873.8906,271.9688 873.8906,274.0938 Q873.8906,276.3438 874.7969,277.4844 Q875.7188,278.625 877.4531,278.625 Q878.4844,278.625 880.5156,278.0313 Z " fill="#000000"/><text fill="#000000" font-family="sans-serif" font-size="14" lengthAdjust="spacing" textLength="224" x="891" y="278.8467">Scheduled Service Tasks By Day</text><line style="stroke:#181818;stroke-width:0.5;" x1="863" x2="1117" y1="290" y2="290"/><line style="stroke:#181818;stroke-width:0.5;" x1="863" x2="1117" y1="298" y2="298"/></g><!--class Item--><g id="elem_Item"><rect fill="#F1F1F1" height="48" id="Item" rx="2.5" ry="2.5" style="stroke:#181818;stroke-width:0.5;" width="62" x="717" y="84"/><ellipse cx="732" cy="100" fill="#ADD1B2" rx="11" ry="11" style="stroke:#181818;stroke-width:1.0;"/><path d="M735.5156,104.0313 L735.5156,106.0625 Q734.0313,106.6719 732.2031,106.6719 Q729.4844,106.6719 728.0313,104.9375 Q726.5781,103.1875 726.5781,100.0781 Q726.5781,97.0781 728.1563,95.2969 Q729.7344,93.5 732.4531,93.5 Q734.3594,93.5 736.0938,94.4219 L735.1406,96.3281 Q733.6406,95.5469 732.4531,95.5469 Q730.8438,95.5469 729.8594,96.7656 Q728.8906,97.9688 728.8906,100.0938 Q728.8906,102.3438 729.7969,103.4844 Q730.7188,104.625 732.4531,104.625 Q733.4844,104.625 735.5156,104.0313 Z " fill="#000000"/><text fill="#000000" font-family="sans-serif" font-size="14" lengthAdjust="spacing" textLength="30" x="746" y="104.8467">Item</text><line style="stroke:#181818;stroke-width:0.5;" x1="718" x2="778" y1="116" y2="116"/><line style="stroke:#181818;stroke-width:0.5;" x1="718" x2="778" y1="124" y2="124"/></g><!--class Estimate Line Item--><g id="elem_Estimate Line Item"><rect codeLine="13" fill="#E59866" height="129.4844" id="Estimate Line Item" rx="2.5" ry="2.5" style="stroke:#181818;stroke-width:0.5;" width="158" x="669" y="217.5"/><ellipse cx="684" cy="233.5" fill="#ADD1B2" rx="11" ry="11" style="stroke:#181818;stroke-width:1.0;"/><path d="M687.5156,237.5313 L687.5156,239.5625 Q686.0313,240.1719 684.2031,240.1719 Q681.4844,240.1719 680.0313,238.4375 Q678.5781,236.6875 678.5781,233.5781 Q678.5781,230.5781 680.1563,228.7969 Q681.7344,227 684.4531,227 Q686.3594,227 688.0938,227.9219 L687.1406,229.8281 Q685.6406,229.0469 684.4531,229.0469 Q682.8438,229.0469 681.8594,230.2656 Q680.8906,231.4688 680.8906,233.5938 Q680.8906,235.8438 681.7969,236.9844 Q682.7188,238.125 684.4531,238.125 Q685.4844,238.125 687.5156,237.5313 Z " fill="#000000"/><text fill="#000000" font-family="sans-serif" font-size="14" lengthAdjust="spacing" textLength="126" x="698" y="238.3467">Estimate Line Item</text><line style="stroke:#181818;stroke-width:0.5;" x1="670" x2="826" y1="249.5" y2="249.5"/><text fill="#000000" font-family="sans-serif" font-size="14" lengthAdjust="spacing" textLength="122" x="675" y="266.4951">description : Data</text><text fill="#000000" font-family="sans-serif" font-size="14" lengthAdjust="spacing" textLength="109" x="675" y="282.792">part_code : Link</text><text fill="#000000" font-family="sans-serif" font-size="14" lengthAdjust="spacing" textLength="86" x="675" y="299.0889">hours : Float</text><text fill="#000000" font-family="sans-serif" font-size="14" lengthAdjust="spacing" textLength="102" x="675" y="315.3857">rate : Currency</text><text fill="#000000" font-family="sans-serif" font-size="14" lengthAdjust="spacing" textLength="128" x="675" y="331.6826">amount : Currency</text><line style="stroke:#181818;stroke-width:0.5;" x1="670" x2="826" y1="338.9844" y2="338.9844"/></g><!--class Inspection Report--><g id="elem_Inspection Report"><rect fill="#F1F1F1" height="48" id="Inspection Report" rx="2.5" ry="2.5" style="stroke:#181818;stroke-width:0.5;" width="155" x="478.5" y="258"/><ellipse cx="493.5" cy="274" fill="#ADD1B2" rx="11" ry="11" style="stroke:#181818;stroke-width:1.0;"/><path d="M497.0156,278.0313 L497.0156,280.0625 Q495.5313,280.6719 493.7031,280.6719 Q490.9844,280.6719 489.5313,278.9375 Q488.0781,277.1875 488.0781,274.0781 Q488.0781,271.0781 489.6563,269.2969 Q491.2344,267.5 493.9531,267.5 Q495.8594,267.5 497.5938,268.4219 L496.6406,270.3281 Q495.1406,269.5469 493.9531,269.5469 Q492.3438,269.5469 491.3594,270.7656 Q490.3906,271.9688 490.3906,274.0938 Q490.3906,276.3438 491.2969,277.4844 Q492.2188,278.625 493.9531,278.625 Q494.9844,278.625 497.0156,278.0313 Z " fill="#000000"/><text fill="#000000" font-family="sans-serif" font-size="14" lengthAdjust="spacing" textLength="123" x="507.5" y="278.8467">Inspection Report</text><line style="stroke:#181818;stroke-width:0.5;" x1="479.5" x2="632.5" y1="290" y2="290"/><line style="stroke:#181818;stroke-width:0.5;" x1="479.5" x2="632.5" y1="298" y2="298"/></g><!--class Repair Estimate--><g id="elem_Repair Estimate"><rect codeLine="22" fill="#E59866" height="145.7813" id="Repair Estimate" rx="2.5" ry="2.5" style="stroke:#181818;stroke-width:0.5;" width="211" x="541.5" y="432"/><ellipse cx="588.75" cy="448" fill="#ADD1B2" rx="11" ry="11" style="stroke:#181818;stroke-width:1.0;"/><path d="M592.2656,452.0313 L592.2656,454.0625 Q590.7813,454.6719 588.9531,454.6719 Q586.2344,454.6719 584.7813,452.9375 Q583.3281,451.1875 583.3281,448.0781 Q583.3281,445.0781 584.9063,443.2969 Q586.4844,441.5 589.2031,441.5 Q591.1094,441.5 592.8438,442.4219 L591.8906,444.3281 Q590.3906,443.5469 589.2031,443.5469 Q587.5938,443.5469 586.6094,444.7656 Q585.6406,445.9688 585.6406,448.0938 Q585.6406,450.3438 586.5469,451.4844 Q587.4688,452.625 589.2031,452.625 Q590.2344,452.625 592.2656,452.0313 Z " fill="#000000"/><text fill="#000000" font-family="sans-serif" font-size="14" lengthAdjust="spacing" textLength="108" x="609.25" y="452.8467">Repair Estimate</text><line style="stroke:#181818;stroke-width:0.5;" x1="542.5" x2="751.5" y1="464" y2="464"/><text fill="#000000" font-family="sans-serif" font-size="14" lengthAdjust="spacing" textLength="157" x="547.5" y="480.9951">customer_name : Data</text><text fill="#000000" font-family="sans-serif" font-size="14" lengthAdjust="spacing" textLength="139" x="547.5" y="497.292">instrument_id : Data</text><text fill="#000000" font-family="sans-serif" font-size="14" lengthAdjust="spacing" textLength="186" x="547.5" y="513.5889">inspection_reference : Link</text><text fill="#000000" font-family="sans-serif" font-size="14" lengthAdjust="spacing" textLength="199" x="547.5" y="529.8857">estimated_completion : Date</text><text fill="#000000" font-family="sans-serif" font-size="14" lengthAdjust="spacing" textLength="120" x="547.5" y="546.1826">line_items : Table</text><text fill="#000000" font-family="sans-serif" font-size="14" lengthAdjust="spacing" textLength="142" x="547.5" y="562.4795">total_cost : Currency</text><line style="stroke:#181818;stroke-width:0.5;" x1="542.5" x2="751.5" y1="569.7813" y2="569.7813"/></g><!--class Tasks--><g id="elem_Tasks"><rect codeLine="30" fill="#E59866" height="80.5938" id="Tasks" rx="2.5" ry="2.5" style="stroke:#181818;stroke-width:0.5;" width="208" x="1153" y="241.5"/><ellipse cx="1232.25" cy="257.5" fill="#ADD1B2" rx="11" ry="11" style="stroke:#181818;stroke-width:1.0;"/><path d="M1235.7656,261.5313 L1235.7656,263.5625 Q1234.2813,264.1719 1232.4531,264.1719 Q1229.7344,264.1719 1228.2813,262.4375 Q1226.8281,260.6875 1226.8281,257.5781 Q1226.8281,254.5781 1228.4063,252.7969 Q1229.9844,251 1232.7031,251 Q1234.6094,251 1236.3438,251.9219 L1235.3906,253.8281 Q1233.8906,253.0469 1232.7031,253.0469 Q1231.0938,253.0469 1230.1094,254.2656 Q1229.1406,255.4688 1229.1406,257.5938 Q1229.1406,259.8438 1230.0469,260.9844 Q1230.9688,262.125 1232.7031,262.125 Q1233.7344,262.125 1235.7656,261.5313 Z " fill="#000000"/><text fill="#000000" font-family="sans-serif" font-size="14" lengthAdjust="spacing" textLength="41" x="1252.75" y="262.3467">Tasks</text><line style="stroke:#181818;stroke-width:0.5;" x1="1154" x2="1360" y1="273.5" y2="273.5"/><text fill="#000000" font-family="sans-serif" font-size="14" lengthAdjust="spacing" textLength="196" x="1159" y="290.4951">task_description : Small Text</text><text fill="#000000" font-family="sans-serif" font-size="14" lengthAdjust="spacing" textLength="147" x="1159" y="306.792">task_due_date : Date</text><line style="stroke:#181818;stroke-width:0.5;" x1="1154" x2="1360" y1="314.0938" y2="314.0938"/></g><!--class User--><g id="elem_User"><rect fill="#F1F1F1" height="48" id="User" rx="2.5" ry="2.5" style="stroke:#181818;stroke-width:0.5;" width="64" x="581" y="84"/><ellipse cx="596" cy="100" fill="#ADD1B2" rx="11" ry="11" style="stroke:#181818;stroke-width:1.0;"/><path d="M599.5156,104.0313 L599.5156,106.0625 Q598.0313,106.6719 596.2031,106.6719 Q593.4844,106.6719 592.0313,104.9375 Q590.5781,103.1875 590.5781,100.0781 Q590.5781,97.0781 592.1563,95.2969 Q593.7344,93.5 596.4531,93.5 Q598.3594,93.5 600.0938,94.4219 L599.1406,96.3281 Q597.6406,95.5469 596.4531,95.5469 Q594.8438,95.5469 593.8594,96.7656 Q592.8906,97.9688 592.8906,100.0938 Q592.8906,102.3438 593.7969,103.4844 Q594.7188,104.625 596.4531,104.625 Q597.4844,104.625 599.5156,104.0313 Z " fill="#000000"/><text fill="#000000" font-family="sans-serif" font-size="14" lengthAdjust="spacing" textLength="32" x="610" y="104.8467">User</text><line style="stroke:#181818;stroke-width:0.5;" x1="582" x2="644" y1="116" y2="116"/><line style="stroke:#181818;stroke-width:0.5;" x1="582" x2="644" y1="124" y2="124"/></g><!--class Service Task--><g id="elem_Service Task"><rect codeLine="36" fill="#E59866" height="129.4844" id="Service Task" rx="2.5" ry="2.5" style="stroke:#181818;stroke-width:0.5;" width="169" x="274.5" y="217.5"/><ellipse cx="312" cy="233.5" fill="#ADD1B2" rx="11" ry="11" style="stroke:#181818;stroke-width:1.0;"/><path d="M315.5156,237.5313 L315.5156,239.5625 Q314.0313,240.1719 312.2031,240.1719 Q309.4844,240.1719 308.0313,238.4375 Q306.5781,236.6875 306.5781,233.5781 Q306.5781,230.5781 308.1563,228.7969 Q309.7344,227 312.4531,227 Q314.3594,227 316.0938,227.9219 L315.1406,229.8281 Q313.6406,229.0469 312.4531,229.0469 Q310.8438,229.0469 309.8594,230.2656 Q308.8906,231.4688 308.8906,233.5938 Q308.8906,235.8438 309.7969,236.9844 Q310.7188,238.125 312.4531,238.125 Q313.4844,238.125 315.5156,237.5313 Z " fill="#000000"/><text fill="#000000" font-family="sans-serif" font-size="14" lengthAdjust="spacing" textLength="87" x="331" y="238.3467">Service Task</text><line style="stroke:#181818;stroke-width:0.5;" x1="275.5" x2="442.5" y1="249.5" y2="249.5"/><text fill="#000000" font-family="sans-serif" font-size="14" lengthAdjust="spacing" textLength="120" x="280.5" y="266.4951">task_name : Data</text><text fill="#000000" font-family="sans-serif" font-size="14" lengthAdjust="spacing" textLength="120" x="280.5" y="282.792">description : Text</text><text fill="#000000" font-family="sans-serif" font-size="14" lengthAdjust="spacing" textLength="157" x="280.5" y="299.0889">scheduled_date : Date</text><text fill="#000000" font-family="sans-serif" font-size="14" lengthAdjust="spacing" textLength="124" x="280.5" y="315.3857">assigned_to : Link</text><text fill="#000000" font-family="sans-serif" font-size="14" lengthAdjust="spacing" textLength="142" x="280.5" y="331.6826">workflow_state : Link</text><line style="stroke:#181818;stroke-width:0.5;" x1="275.5" x2="442.5" y1="338.9844" y2="338.9844"/></g><!--class Workflow State--><g id="elem_Workflow State"><rect fill="#F1F1F1" height="48" id="Workflow State" rx="2.5" ry="2.5" style="stroke:#181818;stroke-width:0.5;" width="134" x="412" y="84"/><ellipse cx="427" cy="100" fill="#ADD1B2" rx="11" ry="11" style="stroke:#181818;stroke-width:1.0;"/><path d="M430.5156,104.0313 L430.5156,106.0625 Q429.0313,106.6719 427.2031,106.6719 Q424.4844,106.6719 423.0313,104.9375 Q421.5781,103.1875 421.5781,100.0781 Q421.5781,97.0781 423.1563,95.2969 Q424.7344,93.5 427.4531,93.5 Q429.3594,93.5 431.0938,94.4219 L430.1406,96.3281 Q428.6406,95.5469 427.4531,95.5469 Q425.8438,95.5469 424.8594,96.7656 Q423.8906,97.9688 423.8906,100.0938 Q423.8906,102.3438 424.7969,103.4844 Q425.7188,104.625 427.4531,104.625 Q428.4844,104.625 430.5156,104.0313 Z " fill="#000000"/><text fill="#000000" font-family="sans-serif" font-size="14" lengthAdjust="spacing" textLength="102" x="441" y="104.8467">Workflow State</text><line style="stroke:#181818;stroke-width:0.5;" x1="413" x2="545" y1="116" y2="116"/><line style="stroke:#181818;stroke-width:0.5;" x1="413" x2="545" y1="124" y2="124"/></g><!--class Instrument Profile--><g id="elem_Instrument Profile"><rect fill="#F1F1F1" height="48" id="Instrument Profile" rx="2.5" ry="2.5" style="stroke:#181818;stroke-width:0.5;" width="153" x="223.5" y="84"/><ellipse cx="238.5" cy="100" fill="#ADD1B2" rx="11" ry="11" style="stroke:#181818;stroke-width:1.0;"/><path d="M242.0156,104.0313 L242.0156,106.0625 Q240.5313,106.6719 238.7031,106.6719 Q235.9844,106.6719 234.5313,104.9375 Q233.0781,103.1875 233.0781,100.0781 Q233.0781,97.0781 234.6563,95.2969 Q236.2344,93.5 238.9531,93.5 Q240.8594,93.5 242.5938,94.4219 L241.6406,96.3281 Q240.1406,95.5469 238.9531,95.5469 Q237.3438,95.5469 236.3594,96.7656 Q235.3906,97.9688 235.3906,100.0938 Q235.3906,102.3438 236.2969,103.4844 Q237.2188,104.625 238.9531,104.625 Q239.9844,104.625 242.0156,104.0313 Z " fill="#000000"/><text fill="#000000" font-family="sans-serif" font-size="14" lengthAdjust="spacing" textLength="121" x="252.5" y="104.8467">Instrument Profile</text><line style="stroke:#181818;stroke-width:0.5;" x1="224.5" x2="375.5" y1="116" y2="116"/><line style="stroke:#181818;stroke-width:0.5;" x1="224.5" x2="375.5" y1="124" y2="124"/></g><!--class Service Plan--><g id="elem_Service Plan"><rect codeLine="45" fill="#E59866" height="145.7813" id="Service Plan" rx="2.5" ry="2.5" style="stroke:#181818;stroke-width:0.5;" width="193" x="46.5" y="209"/><ellipse cx="97.25" cy="225" fill="#ADD1B2" rx="11" ry="11" style="stroke:#181818;stroke-width:1.0;"/><path d="M100.7656,229.0313 L100.7656,231.0625 Q99.2813,231.6719 97.4531,231.6719 Q94.7344,231.6719 93.2813,229.9375 Q91.8281,228.1875 91.8281,225.0781 Q91.8281,222.0781 93.4063,220.2969 Q94.9844,218.5 97.7031,218.5 Q99.6094,218.5 101.3438,219.4219 L100.3906,221.3281 Q98.8906,220.5469 97.7031,220.5469 Q96.0938,220.5469 95.1094,221.7656 Q94.1406,222.9688 94.1406,225.0938 Q94.1406,227.3438 95.0469,228.4844 Q95.9688,229.625 97.7031,229.625 Q98.7344,229.625 100.7656,229.0313 Z " fill="#000000"/><text fill="#000000" font-family="sans-serif" font-size="14" lengthAdjust="spacing" textLength="83" x="117.75" y="229.8467">Service Plan</text><line style="stroke:#181818;stroke-width:0.5;" x1="47.5" x2="238.5" y1="241" y2="241"/><text fill="#000000" font-family="sans-serif" font-size="14" lengthAdjust="spacing" textLength="113" x="52.5" y="257.9951">plan_date : Date</text><text fill="#000000" font-family="sans-serif" font-size="14" lengthAdjust="spacing" textLength="115" x="52.5" y="274.292">instrument : Link</text><text fill="#000000" font-family="sans-serif" font-size="14" lengthAdjust="spacing" textLength="181" x="52.5" y="290.5889">estimated_cost : Currency</text><text fill="#000000" font-family="sans-serif" font-size="14" lengthAdjust="spacing" textLength="127" x="52.5" y="306.8857">labor_hours : Float</text><text fill="#000000" font-family="sans-serif" font-size="14" lengthAdjust="spacing" textLength="123" x="52.5" y="323.1826">notes : Small Text</text><text fill="#000000" font-family="sans-serif" font-size="14" lengthAdjust="spacing" textLength="88" x="52.5" y="339.4795">tasks : Table</text><line style="stroke:#181818;stroke-width:0.5;" x1="47.5" x2="238.5" y1="346.7813" y2="346.7813"/></g><!--class Repair Task Log--><g id="elem_Repair Task Log"><rect fill="#F1F1F1" height="48" id="Repair Task Log" rx="2.5" ry="2.5" style="stroke:#181818;stroke-width:0.5;" width="142" x="46" y="84"/><ellipse cx="61" cy="100" fill="#ADD1B2" rx="11" ry="11" style="stroke:#181818;stroke-width:1.0;"/><path d="M64.5156,104.0313 L64.5156,106.0625 Q63.0313,106.6719 61.2031,106.6719 Q58.4844,106.6719 57.0313,104.9375 Q55.5781,103.1875 55.5781,100.0781 Q55.5781,97.0781 57.1563,95.2969 Q58.7344,93.5 61.4531,93.5 Q63.3594,93.5 65.0938,94.4219 L64.1406,96.3281 Q62.6406,95.5469 61.4531,95.5469 Q59.8438,95.5469 58.8594,96.7656 Q57.8906,97.9688 57.8906,100.0938 Q57.8906,102.3438 58.7969,103.4844 Q59.7188,104.625 61.4531,104.625 Q62.4844,104.625 64.5156,104.0313 Z " fill="#000000"/><text fill="#000000" font-family="sans-serif" font-size="14" lengthAdjust="spacing" textLength="110" x="75" y="104.8467">Repair Task Log</text><line style="stroke:#181818;stroke-width:0.5;" x1="47" x2="187" y1="116" y2="116"/><line style="stroke:#181818;stroke-width:0.5;" x1="47" x2="187" y1="124" y2="124"/></g><!--class Service Task Workflow--><g id="elem_Service Task Workflow"><rect codeLine="53" fill="#E59866" height="48" id="Service Task Workflow" rx="2.5" ry="2.5" style="stroke:#181818;stroke-width:0.5;" width="185" x="1396.5" y="258"/><ellipse cx="1411.5" cy="274" fill="#ADD1B2" rx="11" ry="11" style="stroke:#181818;stroke-width:1.0;"/><path d="M1415.0156,278.0313 L1415.0156,280.0625 Q1413.5313,280.6719 1411.7031,280.6719 Q1408.9844,280.6719 1407.5313,278.9375 Q1406.0781,277.1875 1406.0781,274.0781 Q1406.0781,271.0781 1407.6563,269.2969 Q1409.2344,267.5 1411.9531,267.5 Q1413.8594,267.5 1415.5938,268.4219 L1414.6406,270.3281 Q1413.1406,269.5469 1411.9531,269.5469 Q1410.3438,269.5469 1409.3594,270.7656 Q1408.3906,271.9688 1408.3906,274.0938 Q1408.3906,276.3438 1409.2969,277.4844 Q1410.2188,278.625 1411.9531,278.625 Q1412.9844,278.625 1415.0156,278.0313 Z " fill="#000000"/><text fill="#000000" font-family="sans-serif" font-size="14" lengthAdjust="spacing" textLength="153" x="1425.5" y="278.8467">Service Task Workflow</text><line style="stroke:#181818;stroke-width:0.5;" x1="1397.5" x2="1580.5" y1="290" y2="290"/><line style="stroke:#181818;stroke-width:0.5;" x1="1397.5" x2="1580.5" y1="298" y2="298"/></g><!--reverse link Item to Estimate Line Item--><g id="link_Item_Estimate Line Item"><path codeLine="12" d="M748,145.26 C748,166.1 748,192.88 748,217.14 " fill="none" id="Item-backto-Estimate Line Item" style="stroke:#181818;stroke-width:1.0;"/><polygon fill="#181818" points="748,132.2,744,138.2,748,144.2,752,138.2,748,132.2" style="stroke:#181818;stroke-width:1.0;"/><text fill="#000000" font-family="sans-serif" font-size="13" lengthAdjust="spacing" textLength="64" x="749" y="175.0669">part_code</text></g><!--reverse link Inspection Report to Repair Estimate--><g id="link_Inspection Report_Repair Estimate"><path codeLine="20" d="M553.26,319.52 C552.75,343.73 554.63,375.74 565,402 C569.05,412.25 574.51,422.28 580.7,431.8 " fill="none" id="Inspection Report-backto-Repair Estimate" style="stroke:#181818;stroke-width:1.0;"/><polygon fill="#181818" points="553.79,306.27,549.5557,312.107,553.3151,318.2606,557.5494,312.4236,553.79,306.27" style="stroke:#181818;stroke-width:1.0;"/><text fill="#000000" font-family="sans-serif" font-size="13" lengthAdjust="spacing" textLength="133" x="566" y="398.0669">inspection_reference</text></g><!--reverse link Estimate Line Item to Repair Estimate--><g id="link_Estimate Line Item_Repair Estimate"><path codeLine="21" d="M721.82,359.22 C716.32,373.6 710.28,388.38 704,402 C699.5,411.76 694.42,421.86 689.19,431.72 " fill="none" id="Estimate Line Item-backto-Repair Estimate" style="stroke:#181818;stroke-width:1.0;"/><polygon fill="#181818" points="726.51,346.74,720.6558,350.9505,722.2907,357.9738,728.145,353.7633,726.51,346.74" style="stroke:#181818;stroke-width:1.0;"/><text fill="#000000" font-family="sans-serif" font-size="13" lengthAdjust="spacing" textLength="65" x="711" y="398.0669">line_items</text></g><!--reverse link User to Service Task--><g id="link_User_Service Task"><path codeLine="34" d="M571.49,140.23 C554.31,152.73 533.99,167 515,179 C491.79,193.67 484.25,194.4 461,209 C455.31,212.57 449.5,216.34 443.69,220.19 " fill="none" id="User-backto-Service Task" style="stroke:#181818;stroke-width:1.0;"/><polygon fill="#181818" points="582.28,132.3,575.0765,132.6319,572.6124,139.4089,579.8158,139.077,582.28,132.3" style="stroke:#181818;stroke-width:1.0;"/><text fill="#000000" font-family="sans-serif" font-size="13" lengthAdjust="spacing" textLength="77" x="540" y="175.0669">assigned_to</text></g><!--reverse link Workflow State to Service Task--><g id="link_Workflow State_Service Task"><path codeLine="35" d="M436.17,140.72 C428.91,147.26 421.84,154.46 416,162 C403.16,178.57 392.22,198.5 383.46,217.27 " fill="none" id="Workflow State-backto-Service Task" style="stroke:#181818;stroke-width:1.0;"/><polygon fill="#181818" points="446.11,132.25,438.949,133.0989,436.9785,140.0356,444.1394,139.1866,446.11,132.25" style="stroke:#181818;stroke-width:1.0;"/><text fill="#000000" font-family="sans-serif" font-size="13" lengthAdjust="spacing" textLength="93" x="417" y="175.0669">workflow_state</text></g><!--reverse link Instrument Profile to Service Plan--><g id="link_Instrument Profile_Service Plan"><path codeLine="43" d="M270.02,141.84 C252.7,160.82 230.18,185.49 208.92,208.78 " fill="none" id="Instrument Profile-backto-Service Plan" style="stroke:#181818;stroke-width:1.0;"/><polygon fill="#181818" points="278.83,132.2,271.8298,133.9314,270.7356,141.059,277.7358,139.3276,278.83,132.2" style="stroke:#181818;stroke-width:1.0;"/><text fill="#000000" font-family="sans-serif" font-size="13" lengthAdjust="spacing" textLength="70" x="250" y="175.0669">instrument</text></g><!--reverse link Repair Task Log to Service Plan--><g id="link_Repair Task Log_Service Plan"><path codeLine="44" d="M122.49,145.31 C125.28,163.77 128.77,186.89 132.08,208.78 " fill="none" id="Repair Task Log-backto-Service Plan" style="stroke:#181818;stroke-width:1.0;"/><polygon fill="#181818" points="120.51,132.2,117.4514,138.7303,122.303,144.0653,125.3616,137.535,120.51,132.2" style="stroke:#181818;stroke-width:1.0;"/><text fill="#000000" font-family="sans-serif" font-size="13" lengthAdjust="spacing" textLength="34" x="127" y="175.0669">tasks</text></g><!--SRC=[ZLHDRzim3BtdLn3URK1tMx4LHG_z0WPqGB4as55WPIOL8ak29A_BXlptKR4SMwu3xAZ7H-gHV993kSCjWIU7oWjdVKJzAP3_fIG9fz4OPRPmVVreTKt-vWR-BgJ64A1Q6uCDrHLyUFZyzSlb9KSE_nFxSRmARd4FwwYq-eDHMJDB_MdzRgFj6omZHeBlw1ohcQKkvIlLhQOQbfruM67O1RZTmptkovJgMwIcWeyN5r0zXAYQLFn96O8kS0KEVHJIrjINdwCD9G5g2j8hbphXz7kCoE2f2aESjsFerRO-yF5HMunyzgdc5TortfEHUqQmiQs9Oom9Di6HF5RdyV6IileyorvTagvELE5fGwa4BMRrdwkWcI8KKy9aPGDftBfiGxGDUP5MFZJFEg9l6p9HgBg0tyaRnaFvXfh7rZXDmpo9euCmnbRueXCOBJkMwM4oiopzw89IS6H8b0jRDgWrhEXtFCLR4dMtdEFjl8GrFuiyjR77qiZuAhKrB3lQnSIrPpBUCac4H3gvk62z4rrEk6mXYm_zEoZKmrZXCEvIH8ztVilBWsTlDqfFstZcdo6xBHCNlKkITdYospCPgP4mxRSBZljDNy-aXU6kUSEK3c2xu8lrOlhYZ8qKvbO-cEemjmxerrh-9OT_]--></g></svg>