<?xml version="1.0" encoding="us-ascii" standalone="no"?><svg xmlns="http://www.w3.org/2000/svg" xmlns:xlink="http://www.w3.org/1999/xlink" contentStyleType="text/css" height="548px" preserveAspectRatio="none" style="width:971px;height:548px;background:#FFFFFF;" version="1.1" viewBox="0 0 971 548" width="971px" zoomAndPan="magnify"><defs/><g><!--cluster repair_portal--><g id="cluster_repair_portal"><path d="M8.5,6 L109.5,6 A3.75,3.75 0 0 1 112,8.5 L119,28.2969 L961.5,28.2969 A2.5,2.5 0 0 1 964,30.7969 L964,538.5 A2.5,2.5 0 0 1 961.5,541 L8.5,541 A2.5,2.5 0 0 1 6,538.5 L6,8.5 A2.5,2.5 0 0 1 8.5,6 " fill="none" style="stroke:#000000;stroke-width:1.5;"/><line style="stroke:#000000;stroke-width:1.5;" x1="6" x2="119" y1="28.2969" y2="28.2969"/><text fill="#000000" font-family="sans-serif" font-size="14" font-weight="bold" lengthAdjust="spacing" textLength="100" x="10" y="20.9951">repair_portal</text></g><!--cluster player_profile--><g id="cluster_player_profile"><path d="M32.5,49 L140.5,49 A3.75,3.75 0 0 1 143,51.5 L150,71.2969 L937.5,71.2969 A2.5,2.5 0 0 1 940,73.7969 L940,514.5 A2.5,2.5 0 0 1 937.5,517 L32.5,517 A2.5,2.5 0 0 1 30,514.5 L30,51.5 A2.5,2.5 0 0 1 32.5,49 " fill="none" style="stroke:#000000;stroke-width:1.5;"/><line style="stroke:#000000;stroke-width:1.5;" x1="30" x2="150" y1="71.2969" y2="71.2969"/><text fill="#000000" font-family="sans-serif" font-size="14" font-weight="bold" lengthAdjust="spacing" textLength="107" x="34" y="63.9951">player_profile</text></g><!--class Active--><g id="elem_Active"><rect codeLine="2" fill="#76D7C4" height="48" id="Active" rx="2.5" ry="2.5" style="stroke:#181818;stroke-width:0.5;" width="73" x="496.5" y="84"/><ellipse cx="511.5" cy="100" fill="#ADD1B2" rx="11" ry="11" style="stroke:#181818;stroke-width:1.0;"/><path d="M515.0156,104.0313 L515.0156,106.0625 Q513.5313,106.6719 511.7031,106.6719 Q508.9844,106.6719 507.5313,104.9375 Q506.0781,103.1875 506.0781,100.0781 Q506.0781,97.0781 507.6563,95.2969 Q509.2344,93.5 511.9531,93.5 Q513.8594,93.5 515.5938,94.4219 L514.6406,96.3281 Q513.1406,95.5469 511.9531,95.5469 Q510.3438,95.5469 509.3594,96.7656 Q508.3906,97.9688 508.3906,100.0938 Q508.3906,102.3438 509.2969,103.4844 Q510.2188,104.625 511.9531,104.625 Q512.9844,104.625 515.0156,104.0313 Z " fill="#000000"/><text fill="#000000" font-family="sans-serif" font-size="14" lengthAdjust="spacing" textLength="41" x="525.5" y="104.8467">Active</text><line style="stroke:#181818;stroke-width:0.5;" x1="497.5" x2="568.5" y1="116" y2="116"/><line style="stroke:#181818;stroke-width:0.5;" x1="497.5" x2="568.5" y1="124" y2="124"/></g><!--class Linked To Client--><g id="elem_Linked To Client"><rect codeLine="4" fill="#76D7C4" height="48" id="Linked To Client" rx="2.5" ry="2.5" style="stroke:#181818;stroke-width:0.5;" width="142" x="605" y="84"/><ellipse cx="620" cy="100" fill="#ADD1B2" rx="11" ry="11" style="stroke:#181818;stroke-width:1.0;"/><path d="M623.5156,104.0313 L623.5156,106.0625 Q622.0313,106.6719 620.2031,106.6719 Q617.4844,106.6719 616.0313,104.9375 Q614.5781,103.1875 614.5781,100.0781 Q614.5781,97.0781 616.1563,95.2969 Q617.7344,93.5 620.4531,93.5 Q622.3594,93.5 624.0938,94.4219 L623.1406,96.3281 Q621.6406,95.5469 620.4531,95.5469 Q618.8438,95.5469 617.8594,96.7656 Q616.8906,97.9688 616.8906,100.0938 Q616.8906,102.3438 617.7969,103.4844 Q618.7188,104.625 620.4531,104.625 Q621.4844,104.625 623.5156,104.0313 Z " fill="#000000"/><text fill="#000000" font-family="sans-serif" font-size="14" lengthAdjust="spacing" textLength="110" x="634" y="104.8467">Linked To Client</text><line style="stroke:#181818;stroke-width:0.5;" x1="606" x2="746" y1="116" y2="116"/><line style="stroke:#181818;stroke-width:0.5;" x1="606" x2="746" y1="124" y2="124"/></g><!--class Archived--><g id="elem_Archived"><rect codeLine="6" fill="#76D7C4" height="48" id="Archived" rx="2.5" ry="2.5" style="stroke:#181818;stroke-width:0.5;" width="91" x="782.5" y="84"/><ellipse cx="797.5" cy="100" fill="#ADD1B2" rx="11" ry="11" style="stroke:#181818;stroke-width:1.0;"/><path d="M801.0156,104.0313 L801.0156,106.0625 Q799.5313,106.6719 797.7031,106.6719 Q794.9844,106.6719 793.5313,104.9375 Q792.0781,103.1875 792.0781,100.0781 Q792.0781,97.0781 793.6563,95.2969 Q795.2344,93.5 797.9531,93.5 Q799.8594,93.5 801.5938,94.4219 L800.6406,96.3281 Q799.1406,95.5469 797.9531,95.5469 Q796.3438,95.5469 795.3594,96.7656 Q794.3906,97.9688 794.3906,100.0938 Q794.3906,102.3438 795.2969,103.4844 Q796.2188,104.625 797.9531,104.625 Q798.9844,104.625 801.0156,104.0313 Z " fill="#000000"/><text fill="#000000" font-family="sans-serif" font-size="14" lengthAdjust="spacing" textLength="59" x="811.5" y="104.8467">Archived</text><line style="stroke:#181818;stroke-width:0.5;" x1="783.5" x2="872.5" y1="116" y2="116"/><line style="stroke:#181818;stroke-width:0.5;" x1="783.5" x2="872.5" y1="124" y2="124"/></g><!--class Player Not Linked--><g id="elem_Player Not Linked"><rect codeLine="8" fill="#76D7C4" height="48" id="Player Not Linked" rx="2.5" ry="2.5" style="stroke:#181818;stroke-width:0.5;" width="150" x="355" y="331"/><ellipse cx="370" cy="347" fill="#ADD1B2" rx="11" ry="11" style="stroke:#181818;stroke-width:1.0;"/><path d="M373.5156,351.0313 L373.5156,353.0625 Q372.0313,353.6719 370.2031,353.6719 Q367.4844,353.6719 366.0313,351.9375 Q364.5781,350.1875 364.5781,347.0781 Q364.5781,344.0781 366.1563,342.2969 Q367.7344,340.5 370.4531,340.5 Q372.3594,340.5 374.0938,341.4219 L373.1406,343.3281 Q371.6406,342.5469 370.4531,342.5469 Q368.8438,342.5469 367.8594,343.7656 Q366.8906,344.9688 366.8906,347.0938 Q366.8906,349.3438 367.7969,350.4844 Q368.7188,351.625 370.4531,351.625 Q371.4844,351.625 373.5156,351.0313 Z " fill="#000000"/><text fill="#000000" font-family="sans-serif" font-size="14" lengthAdjust="spacing" textLength="118" x="384" y="351.8467">Player Not Linked</text><line style="stroke:#181818;stroke-width:0.5;" x1="356" x2="504" y1="363" y2="363"/><line style="stroke:#181818;stroke-width:0.5;" x1="356" x2="504" y1="371" y2="371"/></g><!--class Client Profile--><g id="elem_Client Profile"><rect fill="#F1F1F1" height="48" id="Client Profile" rx="2.5" ry="2.5" style="stroke:#181818;stroke-width:0.5;" width="117" x="344.5" y="84"/><ellipse cx="359.5" cy="100" fill="#ADD1B2" rx="11" ry="11" style="stroke:#181818;stroke-width:1.0;"/><path d="M363.0156,104.0313 L363.0156,106.0625 Q361.5313,106.6719 359.7031,106.6719 Q356.9844,106.6719 355.5313,104.9375 Q354.0781,103.1875 354.0781,100.0781 Q354.0781,97.0781 355.6563,95.2969 Q357.2344,93.5 359.9531,93.5 Q361.8594,93.5 363.5938,94.4219 L362.6406,96.3281 Q361.1406,95.5469 359.9531,95.5469 Q358.3438,95.5469 357.3594,96.7656 Q356.3906,97.9688 356.3906,100.0938 Q356.3906,102.3438 357.2969,103.4844 Q358.2188,104.625 359.9531,104.625 Q360.9844,104.625 363.0156,104.0313 Z " fill="#000000"/><text fill="#000000" font-family="sans-serif" font-size="14" lengthAdjust="spacing" textLength="85" x="373.5" y="104.8467">Client Profile</text><line style="stroke:#181818;stroke-width:0.5;" x1="345.5" x2="460.5" y1="116" y2="116"/><line style="stroke:#181818;stroke-width:0.5;" x1="345.5" x2="460.5" y1="124" y2="124"/></g><!--class Player Profile--><g id="elem_Player Profile"><rect codeLine="13" fill="#76D7C4" height="292.4531" id="Player Profile" rx="2.5" ry="2.5" style="stroke:#181818;stroke-width:0.5;" width="274" x="46" y="209"/><ellipse cx="135.25" cy="225" fill="#ADD1B2" rx="11" ry="11" style="stroke:#181818;stroke-width:1.0;"/><path d="M138.7656,229.0313 L138.7656,231.0625 Q137.2813,231.6719 135.4531,231.6719 Q132.7344,231.6719 131.2813,229.9375 Q129.8281,228.1875 129.8281,225.0781 Q129.8281,222.0781 131.4063,220.2969 Q132.9844,218.5 135.7031,218.5 Q137.6094,218.5 139.3438,219.4219 L138.3906,221.3281 Q136.8906,220.5469 135.7031,220.5469 Q134.0938,220.5469 133.1094,221.7656 Q132.1406,222.9688 132.1406,225.0938 Q132.1406,227.3438 133.0469,228.4844 Q133.9688,229.625 135.7031,229.625 Q136.7344,229.625 138.7656,229.0313 Z " fill="#000000"/><text fill="#000000" font-family="sans-serif" font-size="14" lengthAdjust="spacing" textLength="87" x="155.75" y="229.8467">Player Profile</text><line style="stroke:#181818;stroke-width:0.5;" x1="47" x2="319" y1="241" y2="241"/><text fill="#000000" font-family="sans-serif" font-size="14" lengthAdjust="spacing" textLength="145" x="52" y="257.9951">naming_series : Data</text><text fill="#000000" font-family="sans-serif" font-size="14" lengthAdjust="spacing" textLength="126" x="52" y="274.292">client_profile : Link</text><text fill="#000000" font-family="sans-serif" font-size="14" lengthAdjust="spacing" textLength="132" x="52" y="290.5889">player_name : Data</text><text fill="#000000" font-family="sans-serif" font-size="14" lengthAdjust="spacing" textLength="135" x="52" y="306.8857">date_of_birth : Date</text><text fill="#000000" font-family="sans-serif" font-size="14" lengthAdjust="spacing" textLength="172" x="52" y="323.1826">primary_instrument : Link</text><text fill="#000000" font-family="sans-serif" font-size="14" lengthAdjust="spacing" textLength="262" x="52" y="339.4795">instrument_profiles : Table MultiSelect</text><text fill="#000000" font-family="sans-serif" font-size="14" lengthAdjust="spacing" textLength="199" x="52" y="355.7764">preferred_mouthpiece : Data</text><text fill="#000000" font-family="sans-serif" font-size="14" lengthAdjust="spacing" textLength="148" x="52" y="372.0732">preferred_reed : Data</text><text fill="#000000" font-family="sans-serif" font-size="14" lengthAdjust="spacing" textLength="215" x="52" y="388.3701">preferred_literature : Small Text</text><text fill="#000000" font-family="sans-serif" font-size="14" lengthAdjust="spacing" textLength="210" x="52" y="404.667">style_preferences : Text Editor</text><text fill="#000000" font-family="sans-serif" font-size="14" lengthAdjust="spacing" textLength="165" x="52" y="420.9639">tonal_goals : Text Editor</text><text fill="#000000" font-family="sans-serif" font-size="14" lengthAdjust="spacing" textLength="205" x="52" y="437.2607">technician_notes : Text Editor</text><text fill="#000000" font-family="sans-serif" font-size="14" lengthAdjust="spacing" textLength="132" x="52" y="453.5576">profile_status : Link</text><text fill="#000000" font-family="sans-serif" font-size="14" lengthAdjust="spacing" textLength="82" x="52" y="469.8545">route : Data</text><text fill="#000000" font-family="sans-serif" font-size="14" lengthAdjust="spacing" textLength="125" x="52" y="486.1514">published : Check</text><line style="stroke:#181818;stroke-width:0.5;" x1="47" x2="319" y1="493.4531" y2="493.4531"/></g><!--class Instrument Profile--><g id="elem_Instrument Profile"><rect fill="#F1F1F1" height="48" id="Instrument Profile" rx="2.5" ry="2.5" style="stroke:#181818;stroke-width:0.5;" width="153" x="117.5" y="84"/><ellipse cx="132.5" cy="100" fill="#ADD1B2" rx="11" ry="11" style="stroke:#181818;stroke-width:1.0;"/><path d="M136.0156,104.0313 L136.0156,106.0625 Q134.5313,106.6719 132.7031,106.6719 Q129.9844,106.6719 128.5313,104.9375 Q127.0781,103.1875 127.0781,100.0781 Q127.0781,97.0781 128.6563,95.2969 Q130.2344,93.5 132.9531,93.5 Q134.8594,93.5 136.5938,94.4219 L135.6406,96.3281 Q134.1406,95.5469 132.9531,95.5469 Q131.3438,95.5469 130.3594,96.7656 Q129.3906,97.9688 129.3906,100.0938 Q129.3906,102.3438 130.2969,103.4844 Q131.2188,104.625 132.9531,104.625 Q133.9844,104.625 136.0156,104.0313 Z " fill="#000000"/><text fill="#000000" font-family="sans-serif" font-size="14" lengthAdjust="spacing" textLength="121" x="146.5" y="104.8467">Instrument Profile</text><line style="stroke:#181818;stroke-width:0.5;" x1="118.5" x2="269.5" y1="116" y2="116"/><line style="stroke:#181818;stroke-width:0.5;" x1="118.5" x2="269.5" y1="124" y2="124"/></g><!--class Player Profile Workflow--><g id="elem_Player Profile Workflow"><rect codeLine="30" fill="#76D7C4" height="48" id="Player Profile Workflow" rx="2.5" ry="2.5" style="stroke:#181818;stroke-width:0.5;" width="185" x="539.5" y="331"/><ellipse cx="554.5" cy="347" fill="#ADD1B2" rx="11" ry="11" style="stroke:#181818;stroke-width:1.0;"/><path d="M558.0156,351.0313 L558.0156,353.0625 Q556.5313,353.6719 554.7031,353.6719 Q551.9844,353.6719 550.5313,351.9375 Q549.0781,350.1875 549.0781,347.0781 Q549.0781,344.0781 550.6563,342.2969 Q552.2344,340.5 554.9531,340.5 Q556.8594,340.5 558.5938,341.4219 L557.6406,343.3281 Q556.1406,342.5469 554.9531,342.5469 Q553.3438,342.5469 552.3594,343.7656 Q551.3906,344.9688 551.3906,347.0938 Q551.3906,349.3438 552.2969,350.4844 Q553.2188,351.625 554.9531,351.625 Q555.9844,351.625 558.0156,351.0313 Z " fill="#000000"/><text fill="#000000" font-family="sans-serif" font-size="14" lengthAdjust="spacing" textLength="153" x="568.5" y="351.8467">Player Profile Workflow</text><line style="stroke:#181818;stroke-width:0.5;" x1="540.5" x2="723.5" y1="363" y2="363"/><line style="stroke:#181818;stroke-width:0.5;" x1="540.5" x2="723.5" y1="371" y2="371"/></g><!--class Player Profile Setup--><g id="elem_Player Profile Setup"><rect codeLine="32" fill="#76D7C4" height="48" id="Player Profile Setup" rx="2.5" ry="2.5" style="stroke:#181818;stroke-width:0.5;" width="164" x="760" y="331"/><ellipse cx="775" cy="347" fill="#ADD1B2" rx="11" ry="11" style="stroke:#181818;stroke-width:1.0;"/><path d="M778.5156,351.0313 L778.5156,353.0625 Q777.0313,353.6719 775.2031,353.6719 Q772.4844,353.6719 771.0313,351.9375 Q769.5781,350.1875 769.5781,347.0781 Q769.5781,344.0781 771.1563,342.2969 Q772.7344,340.5 775.4531,340.5 Q777.3594,340.5 779.0938,341.4219 L778.1406,343.3281 Q776.6406,342.5469 775.4531,342.5469 Q773.8438,342.5469 772.8594,343.7656 Q771.8906,344.9688 771.8906,347.0938 Q771.8906,349.3438 772.7969,350.4844 Q773.7188,351.625 775.4531,351.625 Q776.4844,351.625 778.5156,351.0313 Z " fill="#000000"/><text fill="#000000" font-family="sans-serif" font-size="14" lengthAdjust="spacing" textLength="132" x="789" y="351.8467">Player Profile Setup</text><line style="stroke:#181818;stroke-width:0.5;" x1="761" x2="923" y1="363" y2="363"/><line style="stroke:#181818;stroke-width:0.5;" x1="761" x2="923" y1="371" y2="371"/></g><!--reverse link Client Profile to Player Profile--><g id="link_Client Profile_Player Profile"><path codeLine="10" d="M375.31,142.45 C365.53,154.11 354.37,167.22 344,179 C335.41,188.76 326.49,198.77 317.46,208.81 " fill="none" id="Client Profile-backto-Player Profile" style="stroke:#181818;stroke-width:1.0;"/><polygon fill="#181818" points="383.85,132.23,376.9351,134.2757,376.1639,141.4454,383.0788,139.3997,383.85,132.23" style="stroke:#181818;stroke-width:1.0;"/><text fill="#000000" font-family="sans-serif" font-size="13" lengthAdjust="spacing" textLength="80" x="358" y="175.0669">client_profile</text></g><!--reverse link Instrument Profile to Player Profile--><g id="link_Instrument Profile_Player Profile"><path codeLine="11" d="M105.91,135.5 C94.86,142.42 85,151.1 78,162 C68.4,176.94 65.81,192.83 67.98,208.82 " fill="none" id="Instrument Profile-backto-Player Profile" style="stroke:#181818;stroke-width:1.0;"/><polygon fill="#181818" points="117.28,129.16,110.0917,128.5864,106.7976,135.0011,113.9858,135.5747,117.28,129.16" style="stroke:#181818;stroke-width:1.0;"/><text fill="#000000" font-family="sans-serif" font-size="13" lengthAdjust="spacing" textLength="126" x="79" y="175.0669">primary_instrument</text></g><!--reverse link Instrument Profile to Player Profile--><g id="link_Instrument Profile_Player Profile"><path codeLine="12" d="M206.37,144.87 C207.87,150.54 209.17,156.38 210,162 C212.24,177.15 212.83,192.98 212.28,208.77 " fill="none" id="Instrument Profile-backto-Player Profile-1" style="stroke:#181818;stroke-width:1.0;"/><polygon fill="#181818" points="202.59,132.15,200.4566,139.0383,205.9946,143.6569,208.1279,136.7686,202.59,132.15" style="stroke:#181818;stroke-width:1.0;"/><text fill="#000000" font-family="sans-serif" font-size="13" lengthAdjust="spacing" textLength="123" x="212" y="175.0669">instrument_profiles</text></g><!--SRC=[bL9DIyD04BttLmpn9jIJM90YIAiWg1HQyBXCDzDcw6Otp4xK8lvtjqtRM1j4ZtbVCoyx5TeLBWc4AcGnLH15Tr4vN5Fwah1WHp0StWUNazpSm4VFEemHibkh_4ePd0skneFHPI8-zzGZ-nNbC0imSanUEqMtOeiKa7UIa-ryU0uAJTYnAcjoOTBiby5vltym7S1hi5lPlaOlU_1HfIx_Ogs4IvIruOFbN_RMjfyUVtGxYDjY01vBzaiJIPXYYXcZOeAFUoHyyrCIldkcvA9MdAEI2GipPz6YWMcZFIdKvdHicyWPpjEmfzefJycHrMqABKY4SbE6MekAoNuRtR92wG0wSCTAWbhBnZKjqJcOqVicEUhQaMcKv6spGQBWBcSDaXGQF3gp3EWwEBA5PyleZG_QOTxrCb7JzDXMbrJZUuDwxZWMs-L71TdLoKtktWrUWgmMBhpzThzxxPIqhew5dry0]--></g></svg>