<?xml version="1.0" encoding="us-ascii" standalone="no"?><svg xmlns="http://www.w3.org/2000/svg" xmlns:xlink="http://www.w3.org/1999/xlink" contentStyleType="text/css" height="685px" preserveAspectRatio="none" style="width:2906px;height:685px;background:#FFFFFF;" version="1.1" viewBox="0 0 2906 685" width="2906px" zoomAndPan="magnify"><defs/><g><!--cluster repair_portal--><g id="cluster_repair_portal"><path d="M8.5,6 L109.5,6 A3.75,3.75 0 0 1 112,8.5 L119,28.2969 L2896.5,28.2969 A2.5,2.5 0 0 1 2899,30.7969 L2899,675.5 A2.5,2.5 0 0 1 2896.5,678 L8.5,678 A2.5,2.5 0 0 1 6,675.5 L6,8.5 A2.5,2.5 0 0 1 8.5,6 " fill="none" style="stroke:#000000;stroke-width:1.5;"/><line style="stroke:#000000;stroke-width:1.5;" x1="6" x2="119" y1="28.2969" y2="28.2969"/><text fill="#000000" font-family="sans-serif" font-size="14" font-weight="bold" lengthAdjust="spacing" textLength="100" x="10" y="20.9951">repair_portal</text></g><!--cluster repair_logging--><g id="cluster_repair_logging"><path d="M32.5,49 L145.5,49 A3.75,3.75 0 0 1 148,51.5 L155,71.2969 L2872.5,71.2969 A2.5,2.5 0 0 1 2875,73.7969 L2875,651.5 A2.5,2.5 0 0 1 2872.5,654 L32.5,654 A2.5,2.5 0 0 1 30,651.5 L30,51.5 A2.5,2.5 0 0 1 32.5,49 " fill="none" style="stroke:#000000;stroke-width:1.5;"/><line style="stroke:#000000;stroke-width:1.5;" x1="30" x2="155" y1="71.2969" y2="71.2969"/><text fill="#000000" font-family="sans-serif" font-size="14" font-weight="bold" lengthAdjust="spacing" textLength="112" x="34" y="63.9951">repair_logging</text></g><!--class Submitted--><g id="elem_Submitted"><rect codeLine="2" fill="#76D7C4" height="48" id="Submitted" rx="2.5" ry="2.5" style="stroke:#181818;stroke-width:0.5;" width="103" x="1917.5" y="84"/><ellipse cx="1932.5" cy="100" fill="#ADD1B2" rx="11" ry="11" style="stroke:#181818;stroke-width:1.0;"/><path d="M1936.0156,104.0313 L1936.0156,106.0625 Q1934.5313,106.6719 1932.7031,106.6719 Q1929.9844,106.6719 1928.5313,104.9375 Q1927.0781,103.1875 1927.0781,100.0781 Q1927.0781,97.0781 1928.6563,95.2969 Q1930.2344,93.5 1932.9531,93.5 Q1934.8594,93.5 1936.5938,94.4219 L1935.6406,96.3281 Q1934.1406,95.5469 1932.9531,95.5469 Q1931.3438,95.5469 1930.3594,96.7656 Q1929.3906,97.9688 1929.3906,100.0938 Q1929.3906,102.3438 1930.2969,103.4844 Q1931.2188,104.625 1932.9531,104.625 Q1933.9844,104.625 1936.0156,104.0313 Z " fill="#000000"/><text fill="#000000" font-family="sans-serif" font-size="14" lengthAdjust="spacing" textLength="71" x="1946.5" y="104.8467">Submitted</text><line style="stroke:#181818;stroke-width:0.5;" x1="1918.5" x2="2019.5" y1="116" y2="116"/><line style="stroke:#181818;stroke-width:0.5;" x1="1918.5" x2="2019.5" y1="124" y2="124"/></g><!--class Draft--><g id="elem_Draft"><rect codeLine="4" fill="#76D7C4" height="48" id="Draft" rx="2.5" ry="2.5" style="stroke:#181818;stroke-width:0.5;" width="65" x="2055.5" y="84"/><ellipse cx="2070.5" cy="100" fill="#ADD1B2" rx="11" ry="11" style="stroke:#181818;stroke-width:1.0;"/><path d="M2074.0156,104.0313 L2074.0156,106.0625 Q2072.5313,106.6719 2070.7031,106.6719 Q2067.9844,106.6719 2066.5313,104.9375 Q2065.0781,103.1875 2065.0781,100.0781 Q2065.0781,97.0781 2066.6563,95.2969 Q2068.2344,93.5 2070.9531,93.5 Q2072.8594,93.5 2074.5938,94.4219 L2073.6406,96.3281 Q2072.1406,95.5469 2070.9531,95.5469 Q2069.3438,95.5469 2068.3594,96.7656 Q2067.3906,97.9688 2067.3906,100.0938 Q2067.3906,102.3438 2068.2969,103.4844 Q2069.2188,104.625 2070.9531,104.625 Q2071.9844,104.625 2074.0156,104.0313 Z " fill="#000000"/><text fill="#000000" font-family="sans-serif" font-size="14" lengthAdjust="spacing" textLength="33" x="2084.5" y="104.8467">Draft</text><line style="stroke:#181818;stroke-width:0.5;" x1="2056.5" x2="2119.5" y1="116" y2="116"/><line style="stroke:#181818;stroke-width:0.5;" x1="2056.5" x2="2119.5" y1="124" y2="124"/></g><!--class Resolved--><g id="elem_Resolved"><rect codeLine="6" fill="#76D7C4" height="48" id="Resolved" rx="2.5" ry="2.5" style="stroke:#181818;stroke-width:0.5;" width="96" x="2156" y="84"/><ellipse cx="2171" cy="100" fill="#ADD1B2" rx="11" ry="11" style="stroke:#181818;stroke-width:1.0;"/><path d="M2174.5156,104.0313 L2174.5156,106.0625 Q2173.0313,106.6719 2171.2031,106.6719 Q2168.4844,106.6719 2167.0313,104.9375 Q2165.5781,103.1875 2165.5781,100.0781 Q2165.5781,97.0781 2167.1563,95.2969 Q2168.7344,93.5 2171.4531,93.5 Q2173.3594,93.5 2175.0938,94.4219 L2174.1406,96.3281 Q2172.6406,95.5469 2171.4531,95.5469 Q2169.8438,95.5469 2168.8594,96.7656 Q2167.8906,97.9688 2167.8906,100.0938 Q2167.8906,102.3438 2168.7969,103.4844 Q2169.7188,104.625 2171.4531,104.625 Q2172.4844,104.625 2174.5156,104.0313 Z " fill="#000000"/><text fill="#000000" font-family="sans-serif" font-size="14" lengthAdjust="spacing" textLength="64" x="2185" y="104.8467">Resolved</text><line style="stroke:#181818;stroke-width:0.5;" x1="2157" x2="2251" y1="116" y2="116"/><line style="stroke:#181818;stroke-width:0.5;" x1="2157" x2="2251" y1="124" y2="124"/></g><!--class In Progress--><g id="elem_In Progress"><rect codeLine="8" fill="#76D7C4" height="48" id="In Progress" rx="2.5" ry="2.5" style="stroke:#181818;stroke-width:0.5;" width="110" x="2287" y="84"/><ellipse cx="2302" cy="100" fill="#ADD1B2" rx="11" ry="11" style="stroke:#181818;stroke-width:1.0;"/><path d="M2305.5156,104.0313 L2305.5156,106.0625 Q2304.0313,106.6719 2302.2031,106.6719 Q2299.4844,106.6719 2298.0313,104.9375 Q2296.5781,103.1875 2296.5781,100.0781 Q2296.5781,97.0781 2298.1563,95.2969 Q2299.7344,93.5 2302.4531,93.5 Q2304.3594,93.5 2306.0938,94.4219 L2305.1406,96.3281 Q2303.6406,95.5469 2302.4531,95.5469 Q2300.8438,95.5469 2299.8594,96.7656 Q2298.8906,97.9688 2298.8906,100.0938 Q2298.8906,102.3438 2299.7969,103.4844 Q2300.7188,104.625 2302.4531,104.625 Q2303.4844,104.625 2305.5156,104.0313 Z " fill="#000000"/><text fill="#000000" font-family="sans-serif" font-size="14" lengthAdjust="spacing" textLength="78" x="2316" y="104.8467">In Progress</text><line style="stroke:#181818;stroke-width:0.5;" x1="2288" x2="2396" y1="116" y2="116"/><line style="stroke:#181818;stroke-width:0.5;" x1="2288" x2="2396" y1="124" y2="124"/></g><!--class Closed--><g id="elem_Closed"><rect codeLine="10" fill="#76D7C4" height="48" id="Closed" rx="2.5" ry="2.5" style="stroke:#181818;stroke-width:0.5;" width="80" x="2432" y="84"/><ellipse cx="2447" cy="100" fill="#ADD1B2" rx="11" ry="11" style="stroke:#181818;stroke-width:1.0;"/><path d="M2450.5156,104.0313 L2450.5156,106.0625 Q2449.0313,106.6719 2447.2031,106.6719 Q2444.4844,106.6719 2443.0313,104.9375 Q2441.5781,103.1875 2441.5781,100.0781 Q2441.5781,97.0781 2443.1563,95.2969 Q2444.7344,93.5 2447.4531,93.5 Q2449.3594,93.5 2451.0938,94.4219 L2450.1406,96.3281 Q2448.6406,95.5469 2447.4531,95.5469 Q2445.8438,95.5469 2444.8594,96.7656 Q2443.8906,97.9688 2443.8906,100.0938 Q2443.8906,102.3438 2444.7969,103.4844 Q2445.7188,104.625 2447.4531,104.625 Q2448.4844,104.625 2450.5156,104.0313 Z " fill="#000000"/><text fill="#000000" font-family="sans-serif" font-size="14" lengthAdjust="spacing" textLength="48" x="2461" y="104.8467">Closed</text><line style="stroke:#181818;stroke-width:0.5;" x1="2433" x2="2511" y1="116" y2="116"/><line style="stroke:#181818;stroke-width:0.5;" x1="2433" x2="2511" y1="124" y2="124"/></g><!--class Open--><g id="elem_Open"><rect codeLine="12" fill="#76D7C4" height="48" id="Open" rx="2.5" ry="2.5" style="stroke:#181818;stroke-width:0.5;" width="70" x="1934" y="274"/><ellipse cx="1949" cy="290" fill="#ADD1B2" rx="11" ry="11" style="stroke:#181818;stroke-width:1.0;"/><path d="M1952.5156,294.0313 L1952.5156,296.0625 Q1951.0313,296.6719 1949.2031,296.6719 Q1946.4844,296.6719 1945.0313,294.9375 Q1943.5781,293.1875 1943.5781,290.0781 Q1943.5781,287.0781 1945.1563,285.2969 Q1946.7344,283.5 1949.4531,283.5 Q1951.3594,283.5 1953.0938,284.4219 L1952.1406,286.3281 Q1950.6406,285.5469 1949.4531,285.5469 Q1947.8438,285.5469 1946.8594,286.7656 Q1945.8906,287.9688 1945.8906,290.0938 Q1945.8906,292.3438 1946.7969,293.4844 Q1947.7188,294.625 1949.4531,294.625 Q1950.4844,294.625 1952.5156,294.0313 Z " fill="#000000"/><text fill="#000000" font-family="sans-serif" font-size="14" lengthAdjust="spacing" textLength="38" x="1963" y="294.8467">Open</text><line style="stroke:#181818;stroke-width:0.5;" x1="1935" x2="2003" y1="306" y2="306"/><line style="stroke:#181818;stroke-width:0.5;" x1="1935" x2="2003" y1="314" y2="314"/></g><!--class Repair Tasks By Type--><g id="elem_Repair Tasks By Type"><rect codeLine="14" fill="#76D7C4" height="48" id="Repair Tasks By Type" rx="2.5" ry="2.5" style="stroke:#181818;stroke-width:0.5;" width="180" x="2039" y="274"/><ellipse cx="2054" cy="290" fill="#ADD1B2" rx="11" ry="11" style="stroke:#181818;stroke-width:1.0;"/><path d="M2057.5156,294.0313 L2057.5156,296.0625 Q2056.0313,296.6719 2054.2031,296.6719 Q2051.4844,296.6719 2050.0313,294.9375 Q2048.5781,293.1875 2048.5781,290.0781 Q2048.5781,287.0781 2050.1563,285.2969 Q2051.7344,283.5 2054.4531,283.5 Q2056.3594,283.5 2058.0938,284.4219 L2057.1406,286.3281 Q2055.6406,285.5469 2054.4531,285.5469 Q2052.8438,285.5469 2051.8594,286.7656 Q2050.8906,287.9688 2050.8906,290.0938 Q2050.8906,292.3438 2051.7969,293.4844 Q2052.7188,294.625 2054.4531,294.625 Q2055.4844,294.625 2057.5156,294.0313 Z " fill="#000000"/><text fill="#000000" font-family="sans-serif" font-size="14" lengthAdjust="spacing" textLength="148" x="2068" y="294.8467">Repair Tasks By Type</text><line style="stroke:#181818;stroke-width:0.5;" x1="2040" x2="2218" y1="306" y2="306"/><line style="stroke:#181818;stroke-width:0.5;" x1="2040" x2="2218" y1="314" y2="314"/></g><!--class Repair Portal--><g id="elem_Repair Portal"><rect codeLine="16" fill="#76D7C4" height="48" id="Repair Portal" rx="2.5" ry="2.5" style="stroke:#181818;stroke-width:0.5;" width="119" x="2254.5" y="274"/><ellipse cx="2269.5" cy="290" fill="#ADD1B2" rx="11" ry="11" style="stroke:#181818;stroke-width:1.0;"/><path d="M2273.0156,294.0313 L2273.0156,296.0625 Q2271.5313,296.6719 2269.7031,296.6719 Q2266.9844,296.6719 2265.5313,294.9375 Q2264.0781,293.1875 2264.0781,290.0781 Q2264.0781,287.0781 2265.6563,285.2969 Q2267.2344,283.5 2269.9531,283.5 Q2271.8594,283.5 2273.5938,284.4219 L2272.6406,286.3281 Q2271.1406,285.5469 2269.9531,285.5469 Q2268.3438,285.5469 2267.3594,286.7656 Q2266.3906,287.9688 2266.3906,290.0938 Q2266.3906,292.3438 2267.2969,293.4844 Q2268.2188,294.625 2269.9531,294.625 Q2270.9844,294.625 2273.0156,294.0313 Z " fill="#000000"/><text fill="#000000" font-family="sans-serif" font-size="14" lengthAdjust="spacing" textLength="87" x="2283.5" y="294.8467">Repair Portal</text><line style="stroke:#181818;stroke-width:0.5;" x1="2255.5" x2="2372.5" y1="306" y2="306"/><line style="stroke:#181818;stroke-width:0.5;" x1="2255.5" x2="2372.5" y1="314" y2="314"/></g><!--class Instrument Tracker Dashboard--><g id="elem_Instrument Tracker Dashboard"><rect codeLine="18" fill="#76D7C4" height="48" id="Instrument Tracker Dashboard" rx="2.5" ry="2.5" style="stroke:#181818;stroke-width:0.5;" width="243" x="2408.5" y="274"/><ellipse cx="2423.5" cy="290" fill="#ADD1B2" rx="11" ry="11" style="stroke:#181818;stroke-width:1.0;"/><path d="M2427.0156,294.0313 L2427.0156,296.0625 Q2425.5313,296.6719 2423.7031,296.6719 Q2420.9844,296.6719 2419.5313,294.9375 Q2418.0781,293.1875 2418.0781,290.0781 Q2418.0781,287.0781 2419.6563,285.2969 Q2421.2344,283.5 2423.9531,283.5 Q2425.8594,283.5 2427.5938,284.4219 L2426.6406,286.3281 Q2425.1406,285.5469 2423.9531,285.5469 Q2422.3438,285.5469 2421.3594,286.7656 Q2420.3906,287.9688 2420.3906,290.0938 Q2420.3906,292.3438 2421.2969,293.4844 Q2422.2188,294.625 2423.9531,294.625 Q2424.9844,294.625 2427.0156,294.0313 Z " fill="#000000"/><text fill="#000000" font-family="sans-serif" font-size="14" lengthAdjust="spacing" textLength="211" x="2437.5" y="294.8467">Instrument Tracker Dashboard</text><line style="stroke:#181818;stroke-width:0.5;" x1="2409.5" x2="2650.5" y1="306" y2="306"/><line style="stroke:#181818;stroke-width:0.5;" x1="2409.5" x2="2650.5" y1="314" y2="314"/></g><!--class Repair Tasks By Day--><g id="elem_Repair Tasks By Day"><rect codeLine="20" fill="#76D7C4" height="48" id="Repair Tasks By Day" rx="2.5" ry="2.5" style="stroke:#181818;stroke-width:0.5;" width="172" x="2687" y="274"/><ellipse cx="2702" cy="290" fill="#ADD1B2" rx="11" ry="11" style="stroke:#181818;stroke-width:1.0;"/><path d="M2705.5156,294.0313 L2705.5156,296.0625 Q2704.0313,296.6719 2702.2031,296.6719 Q2699.4844,296.6719 2698.0313,294.9375 Q2696.5781,293.1875 2696.5781,290.0781 Q2696.5781,287.0781 2698.1563,285.2969 Q2699.7344,283.5 2702.4531,283.5 Q2704.3594,283.5 2706.0938,284.4219 L2705.1406,286.3281 Q2703.6406,285.5469 2702.4531,285.5469 Q2700.8438,285.5469 2699.8594,286.7656 Q2698.8906,287.9688 2698.8906,290.0938 Q2698.8906,292.3438 2699.7969,293.4844 Q2700.7188,294.625 2702.4531,294.625 Q2703.4844,294.625 2705.5156,294.0313 Z " fill="#000000"/><text fill="#000000" font-family="sans-serif" font-size="14" lengthAdjust="spacing" textLength="140" x="2716" y="294.8467">Repair Tasks By Day</text><line style="stroke:#181818;stroke-width:0.5;" x1="2688" x2="2858" y1="306" y2="306"/><line style="stroke:#181818;stroke-width:0.5;" x1="2688" x2="2858" y1="314" y2="314"/></g><!--class User--><g id="elem_User"><rect fill="#F1F1F1" height="48" id="User" rx="2.5" ry="2.5" style="stroke:#181818;stroke-width:0.5;" width="64" x="1587" y="84"/><ellipse cx="1602" cy="100" fill="#ADD1B2" rx="11" ry="11" style="stroke:#181818;stroke-width:1.0;"/><path d="M1605.5156,104.0313 L1605.5156,106.0625 Q1604.0313,106.6719 1602.2031,106.6719 Q1599.4844,106.6719 1598.0313,104.9375 Q1596.5781,103.1875 1596.5781,100.0781 Q1596.5781,97.0781 1598.1563,95.2969 Q1599.7344,93.5 1602.4531,93.5 Q1604.3594,93.5 1606.0938,94.4219 L1605.1406,96.3281 Q1603.6406,95.5469 1602.4531,95.5469 Q1600.8438,95.5469 1599.8594,96.7656 Q1598.8906,97.9688 1598.8906,100.0938 Q1598.8906,102.3438 1599.7969,103.4844 Q1600.7188,104.625 1602.4531,104.625 Q1603.4844,104.625 1605.5156,104.0313 Z " fill="#000000"/><text fill="#000000" font-family="sans-serif" font-size="14" lengthAdjust="spacing" textLength="32" x="1616" y="104.8467">User</text><line style="stroke:#181818;stroke-width:0.5;" x1="1588" x2="1650" y1="116" y2="116"/><line style="stroke:#181818;stroke-width:0.5;" x1="1588" x2="1650" y1="124" y2="124"/></g><!--class Repair Task Log--><g id="elem_Repair Task Log"><rect codeLine="23" fill="#76D7C4" height="96.8906" id="Repair Task Log" rx="2.5" ry="2.5" style="stroke:#181818;stroke-width:0.5;" width="161" x="1737.5" y="249.5"/><ellipse cx="1761.05" cy="265.5" fill="#ADD1B2" rx="11" ry="11" style="stroke:#181818;stroke-width:1.0;"/><path d="M1764.5656,269.5313 L1764.5656,271.5625 Q1763.0813,272.1719 1761.2531,272.1719 Q1758.5344,272.1719 1757.0813,270.4375 Q1755.6281,268.6875 1755.6281,265.5781 Q1755.6281,262.5781 1757.2063,260.7969 Q1758.7844,259 1761.5031,259 Q1763.4094,259 1765.1438,259.9219 L1764.1906,261.8281 Q1762.6906,261.0469 1761.5031,261.0469 Q1759.8938,261.0469 1758.9094,262.2656 Q1757.9406,263.4688 1757.9406,265.5938 Q1757.9406,267.8438 1758.8469,268.9844 Q1759.7688,270.125 1761.5031,270.125 Q1762.5344,270.125 1764.5656,269.5313 Z " fill="#000000"/><text fill="#000000" font-family="sans-serif" font-size="14" lengthAdjust="spacing" textLength="110" x="1776.95" y="270.3467">Repair Task Log</text><line style="stroke:#181818;stroke-width:0.5;" x1="1738.5" x2="1897.5" y1="281.5" y2="281.5"/><text fill="#000000" font-family="sans-serif" font-size="14" lengthAdjust="spacing" textLength="146" x="1743.5" y="298.4951">log_entry : Small Text</text><text fill="#000000" font-family="sans-serif" font-size="14" lengthAdjust="spacing" textLength="149" x="1743.5" y="314.792">timestamp : Datetime</text><text fill="#000000" font-family="sans-serif" font-size="14" lengthAdjust="spacing" textLength="111" x="1743.5" y="331.0889">logged_by : Link</text><line style="stroke:#181818;stroke-width:0.5;" x1="1738.5" x2="1897.5" y1="338.3906" y2="338.3906"/></g><!--class Instrument Profile--><g id="elem_Instrument Profile"><rect fill="#F1F1F1" height="48" id="Instrument Profile" rx="2.5" ry="2.5" style="stroke:#181818;stroke-width:0.5;" width="153" x="1130.5" y="84"/><ellipse cx="1145.5" cy="100" fill="#ADD1B2" rx="11" ry="11" style="stroke:#181818;stroke-width:1.0;"/><path d="M1149.0156,104.0313 L1149.0156,106.0625 Q1147.5313,106.6719 1145.7031,106.6719 Q1142.9844,106.6719 1141.5313,104.9375 Q1140.0781,103.1875 1140.0781,100.0781 Q1140.0781,97.0781 1141.6563,95.2969 Q1143.2344,93.5 1145.9531,93.5 Q1147.8594,93.5 1149.5938,94.4219 L1148.6406,96.3281 Q1147.1406,95.5469 1145.9531,95.5469 Q1144.3438,95.5469 1143.3594,96.7656 Q1142.3906,97.9688 1142.3906,100.0938 Q1142.3906,102.3438 1143.2969,103.4844 Q1144.2188,104.625 1145.9531,104.625 Q1146.9844,104.625 1149.0156,104.0313 Z " fill="#000000"/><text fill="#000000" font-family="sans-serif" font-size="14" lengthAdjust="spacing" textLength="121" x="1159.5" y="104.8467">Instrument Profile</text><line style="stroke:#181818;stroke-width:0.5;" x1="1131.5" x2="1282.5" y1="116" y2="116"/><line style="stroke:#181818;stroke-width:0.5;" x1="1131.5" x2="1282.5" y1="124" y2="124"/></g><!--class Service Log--><g id="elem_Service Log"><rect codeLine="31" fill="#76D7C4" height="178.375" id="Service Log" rx="2.5" ry="2.5" style="stroke:#181818;stroke-width:0.5;" width="176" x="1346" y="209"/><ellipse cx="1390.25" cy="225" fill="#ADD1B2" rx="11" ry="11" style="stroke:#181818;stroke-width:1.0;"/><path d="M1393.7656,229.0313 L1393.7656,231.0625 Q1392.2813,231.6719 1390.4531,231.6719 Q1387.7344,231.6719 1386.2813,229.9375 Q1384.8281,228.1875 1384.8281,225.0781 Q1384.8281,222.0781 1386.4063,220.2969 Q1387.9844,218.5 1390.7031,218.5 Q1392.6094,218.5 1394.3438,219.4219 L1393.3906,221.3281 Q1391.8906,220.5469 1390.7031,220.5469 Q1389.0938,220.5469 1388.1094,221.7656 Q1387.1406,222.9688 1387.1406,225.0938 Q1387.1406,227.3438 1388.0469,228.4844 Q1388.9688,229.625 1390.7031,229.625 Q1391.7344,229.625 1393.7656,229.0313 Z " fill="#000000"/><text fill="#000000" font-family="sans-serif" font-size="14" lengthAdjust="spacing" textLength="79" x="1410.75" y="229.8467">Service Log</text><line style="stroke:#181818;stroke-width:0.5;" x1="1347" x2="1521" y1="241" y2="241"/><text fill="#000000" font-family="sans-serif" font-size="14" lengthAdjust="spacing" textLength="164" x="1352" y="257.9951">instrument_profile : Link</text><text fill="#000000" font-family="sans-serif" font-size="14" lengthAdjust="spacing" textLength="160" x="1352" y="274.292">description : Small Text</text><text fill="#000000" font-family="sans-serif" font-size="14" lengthAdjust="spacing" textLength="131" x="1352" y="290.5889">service_type : Data</text><text fill="#000000" font-family="sans-serif" font-size="14" lengthAdjust="spacing" textLength="135" x="1352" y="306.8857">performed_by : Link</text><text fill="#000000" font-family="sans-serif" font-size="14" lengthAdjust="spacing" textLength="77" x="1352" y="323.1826">date : Date</text><text fill="#000000" font-family="sans-serif" font-size="14" lengthAdjust="spacing" textLength="146" x="1352" y="339.4795">log_entry : Small Text</text><text fill="#000000" font-family="sans-serif" font-size="14" lengthAdjust="spacing" textLength="149" x="1352" y="355.7764">timestamp : Datetime</text><text fill="#000000" font-family="sans-serif" font-size="14" lengthAdjust="spacing" textLength="111" x="1352" y="372.0732">logged_by : Link</text><line style="stroke:#181818;stroke-width:0.5;" x1="1347" x2="1521" y1="379.375" y2="379.375"/></g><!--class Item--><g id="elem_Item"><rect fill="#F1F1F1" height="48" id="Item" rx="2.5" ry="2.5" style="stroke:#181818;stroke-width:0.5;" width="62" x="770" y="84"/><ellipse cx="785" cy="100" fill="#ADD1B2" rx="11" ry="11" style="stroke:#181818;stroke-width:1.0;"/><path d="M788.5156,104.0313 L788.5156,106.0625 Q787.0313,106.6719 785.2031,106.6719 Q782.4844,106.6719 781.0313,104.9375 Q779.5781,103.1875 779.5781,100.0781 Q779.5781,97.0781 781.1563,95.2969 Q782.7344,93.5 785.4531,93.5 Q787.3594,93.5 789.0938,94.4219 L788.1406,96.3281 Q786.6406,95.5469 785.4531,95.5469 Q783.8438,95.5469 782.8594,96.7656 Q781.8906,97.9688 781.8906,100.0938 Q781.8906,102.3438 782.7969,103.4844 Q783.7188,104.625 785.4531,104.625 Q786.4844,104.625 788.5156,104.0313 Z " fill="#000000"/><text fill="#000000" font-family="sans-serif" font-size="14" lengthAdjust="spacing" textLength="30" x="799" y="104.8467">Item</text><line style="stroke:#181818;stroke-width:0.5;" x1="771" x2="831" y1="116" y2="116"/><line style="stroke:#181818;stroke-width:0.5;" x1="771" x2="831" y1="124" y2="124"/></g><!--class Material Use Log--><g id="elem_Material Use Log"><rect codeLine="42" fill="#76D7C4" height="113.1875" id="Material Use Log" rx="2.5" ry="2.5" style="stroke:#181818;stroke-width:0.5;" width="151" x="883.5" y="241.5"/><ellipse cx="901.2" cy="257.5" fill="#ADD1B2" rx="11" ry="11" style="stroke:#181818;stroke-width:1.0;"/><path d="M904.7156,261.5313 L904.7156,263.5625 Q903.2313,264.1719 901.4031,264.1719 Q898.6844,264.1719 897.2313,262.4375 Q895.7781,260.6875 895.7781,257.5781 Q895.7781,254.5781 897.3563,252.7969 Q898.9344,251 901.6531,251 Q903.5594,251 905.2938,251.9219 L904.3406,253.8281 Q902.8406,253.0469 901.6531,253.0469 Q900.0438,253.0469 899.0594,254.2656 Q898.0906,255.4688 898.0906,257.5938 Q898.0906,259.8438 898.9969,260.9844 Q899.9188,262.125 901.6531,262.125 Q902.6844,262.125 904.7156,261.5313 Z " fill="#000000"/><text fill="#000000" font-family="sans-serif" font-size="14" lengthAdjust="spacing" textLength="113" x="915.8" y="262.3467">Material Use Log</text><line style="stroke:#181818;stroke-width:0.5;" x1="884.5" x2="1033.5" y1="273.5" y2="273.5"/><text fill="#000000" font-family="sans-serif" font-size="14" lengthAdjust="spacing" textLength="112" x="889.5" y="290.4951">item_code : Link</text><text fill="#000000" font-family="sans-serif" font-size="14" lengthAdjust="spacing" textLength="67" x="889.5" y="306.792">qty : Float</text><text fill="#000000" font-family="sans-serif" font-size="14" lengthAdjust="spacing" textLength="105" x="889.5" y="323.0889">used_on : Data</text><text fill="#000000" font-family="sans-serif" font-size="14" lengthAdjust="spacing" textLength="139" x="889.5" y="339.3857">remarks : Small Text</text><line style="stroke:#181818;stroke-width:0.5;" x1="884.5" x2="1033.5" y1="346.6875" y2="346.6875"/></g><!--class Repair Part Used--><g id="elem_Repair Part Used"><rect codeLine="51" fill="#76D7C4" height="162.0781" id="Repair Part Used" rx="2.5" ry="2.5" style="stroke:#181818;stroke-width:0.5;" width="147" x="499.5" y="217"/><ellipse cx="514.5" cy="233" fill="#ADD1B2" rx="11" ry="11" style="stroke:#181818;stroke-width:1.0;"/><path d="M518.0156,237.0313 L518.0156,239.0625 Q516.5313,239.6719 514.7031,239.6719 Q511.9844,239.6719 510.5313,237.9375 Q509.0781,236.1875 509.0781,233.0781 Q509.0781,230.0781 510.6563,228.2969 Q512.2344,226.5 514.9531,226.5 Q516.8594,226.5 518.5938,227.4219 L517.6406,229.3281 Q516.1406,228.5469 514.9531,228.5469 Q513.3438,228.5469 512.3594,229.7656 Q511.3906,230.9688 511.3906,233.0938 Q511.3906,235.3438 512.2969,236.4844 Q513.2188,237.625 514.9531,237.625 Q515.9844,237.625 518.0156,237.0313 Z " fill="#000000"/><text fill="#000000" font-family="sans-serif" font-size="14" lengthAdjust="spacing" textLength="115" x="528.5" y="237.8467">Repair Part Used</text><line style="stroke:#181818;stroke-width:0.5;" x1="500.5" x2="645.5" y1="249" y2="249"/><text fill="#000000" font-family="sans-serif" font-size="14" lengthAdjust="spacing" textLength="112" x="505.5" y="265.9951">item_code : Link</text><text fill="#000000" font-family="sans-serif" font-size="14" lengthAdjust="spacing" textLength="121" x="505.5" y="282.292">item_name : Data</text><text fill="#000000" font-family="sans-serif" font-size="14" lengthAdjust="spacing" textLength="67" x="505.5" y="298.5889">qty : Float</text><text fill="#000000" font-family="sans-serif" font-size="14" lengthAdjust="spacing" textLength="71" x="505.5" y="314.8857">uom : Link</text><text fill="#000000" font-family="sans-serif" font-size="14" lengthAdjust="spacing" textLength="102" x="505.5" y="331.1826">rate : Currency</text><text fill="#000000" font-family="sans-serif" font-size="14" lengthAdjust="spacing" textLength="128" x="505.5" y="347.4795">amount : Currency</text><text fill="#000000" font-family="sans-serif" font-size="14" lengthAdjust="spacing" textLength="117" x="505.5" y="363.7764">warehouse : Link</text><line style="stroke:#181818;stroke-width:0.5;" x1="500.5" x2="645.5" y1="371.0781" y2="371.0781"/></g><!--class UOM--><g id="elem_UOM"><rect fill="#F1F1F1" height="48" id="UOM" rx="2.5" ry="2.5" style="stroke:#181818;stroke-width:0.5;" width="65" x="587.5" y="84"/><ellipse cx="602.5" cy="100" fill="#ADD1B2" rx="11" ry="11" style="stroke:#181818;stroke-width:1.0;"/><path d="M606.0156,104.0313 L606.0156,106.0625 Q604.5313,106.6719 602.7031,106.6719 Q599.9844,106.6719 598.5313,104.9375 Q597.0781,103.1875 597.0781,100.0781 Q597.0781,97.0781 598.6563,95.2969 Q600.2344,93.5 602.9531,93.5 Q604.8594,93.5 606.5938,94.4219 L605.6406,96.3281 Q604.1406,95.5469 602.9531,95.5469 Q601.3438,95.5469 600.3594,96.7656 Q599.3906,97.9688 599.3906,100.0938 Q599.3906,102.3438 600.2969,103.4844 Q601.2188,104.625 602.9531,104.625 Q603.9844,104.625 606.0156,104.0313 Z " fill="#000000"/><text fill="#000000" font-family="sans-serif" font-size="14" lengthAdjust="spacing" textLength="33" x="616.5" y="104.8467">UOM</text><line style="stroke:#181818;stroke-width:0.5;" x1="588.5" x2="651.5" y1="116" y2="116"/><line style="stroke:#181818;stroke-width:0.5;" x1="588.5" x2="651.5" y1="124" y2="124"/></g><!--class Warehouse--><g id="elem_Warehouse"><rect fill="#F1F1F1" height="48" id="Warehouse" rx="2.5" ry="2.5" style="stroke:#181818;stroke-width:0.5;" width="111" x="441.5" y="84"/><ellipse cx="456.5" cy="100" fill="#ADD1B2" rx="11" ry="11" style="stroke:#181818;stroke-width:1.0;"/><path d="M460.0156,104.0313 L460.0156,106.0625 Q458.5313,106.6719 456.7031,106.6719 Q453.9844,106.6719 452.5313,104.9375 Q451.0781,103.1875 451.0781,100.0781 Q451.0781,97.0781 452.6563,95.2969 Q454.2344,93.5 456.9531,93.5 Q458.8594,93.5 460.5938,94.4219 L459.6406,96.3281 Q458.1406,95.5469 456.9531,95.5469 Q455.3438,95.5469 454.3594,96.7656 Q453.3906,97.9688 453.3906,100.0938 Q453.3906,102.3438 454.2969,103.4844 Q455.2188,104.625 456.9531,104.625 Q457.9844,104.625 460.0156,104.0313 Z " fill="#000000"/><text fill="#000000" font-family="sans-serif" font-size="14" lengthAdjust="spacing" textLength="79" x="470.5" y="104.8467">Warehouse</text><line style="stroke:#181818;stroke-width:0.5;" x1="442.5" x2="551.5" y1="116" y2="116"/><line style="stroke:#181818;stroke-width:0.5;" x1="442.5" x2="551.5" y1="124" y2="124"/></g><!--class Related Instrument Interaction--><g id="elem_Related Instrument Interaction"><rect codeLine="61" fill="#76D7C4" height="96.8906" id="Related Instrument Interaction" rx="2.5" ry="2.5" style="stroke:#181818;stroke-width:0.5;" width="241" x="1069.5" y="249.5"/><ellipse cx="1084.5" cy="265.5" fill="#ADD1B2" rx="11" ry="11" style="stroke:#181818;stroke-width:1.0;"/><path d="M1088.0156,269.5313 L1088.0156,271.5625 Q1086.5313,272.1719 1084.7031,272.1719 Q1081.9844,272.1719 1080.5313,270.4375 Q1079.0781,268.6875 1079.0781,265.5781 Q1079.0781,262.5781 1080.6563,260.7969 Q1082.2344,259 1084.9531,259 Q1086.8594,259 1088.5938,259.9219 L1087.6406,261.8281 Q1086.1406,261.0469 1084.9531,261.0469 Q1083.3438,261.0469 1082.3594,262.2656 Q1081.3906,263.4688 1081.3906,265.5938 Q1081.3906,267.8438 1082.2969,268.9844 Q1083.2188,270.125 1084.9531,270.125 Q1085.9844,270.125 1088.0156,269.5313 Z " fill="#000000"/><text fill="#000000" font-family="sans-serif" font-size="14" lengthAdjust="spacing" textLength="209" x="1098.5" y="270.3467">Related Instrument Interaction</text><line style="stroke:#181818;stroke-width:0.5;" x1="1070.5" x2="1309.5" y1="281.5" y2="281.5"/><text fill="#000000" font-family="sans-serif" font-size="14" lengthAdjust="spacing" textLength="170" x="1075.5" y="298.4951">related_instrument : Link</text><text fill="#000000" font-family="sans-serif" font-size="14" lengthAdjust="spacing" textLength="166" x="1075.5" y="314.792">interaction_type : Select</text><text fill="#000000" font-family="sans-serif" font-size="14" lengthAdjust="spacing" textLength="123" x="1075.5" y="331.0889">notes : Small Text</text><line style="stroke:#181818;stroke-width:0.5;" x1="1070.5" x2="1309.5" y1="338.3906" y2="338.3906"/></g><!--class Image Log Entry--><g id="elem_Image Log Entry"><rect codeLine="66" fill="#76D7C4" height="80.5938" id="Image Log Entry" rx="2.5" ry="2.5" style="stroke:#181818;stroke-width:0.5;" width="161" x="1805.5" y="448"/><ellipse cx="1829.05" cy="464" fill="#ADD1B2" rx="11" ry="11" style="stroke:#181818;stroke-width:1.0;"/><path d="M1832.5656,468.0313 L1832.5656,470.0625 Q1831.0813,470.6719 1829.2531,470.6719 Q1826.5344,470.6719 1825.0813,468.9375 Q1823.6281,467.1875 1823.6281,464.0781 Q1823.6281,461.0781 1825.2063,459.2969 Q1826.7844,457.5 1829.5031,457.5 Q1831.4094,457.5 1833.1438,458.4219 L1832.1906,460.3281 Q1830.6906,459.5469 1829.5031,459.5469 Q1827.8938,459.5469 1826.9094,460.7656 Q1825.9406,461.9688 1825.9406,464.0938 Q1825.9406,466.3438 1826.8469,467.4844 Q1827.7688,468.625 1829.5031,468.625 Q1830.5344,468.625 1832.5656,468.0313 Z " fill="#000000"/><text fill="#000000" font-family="sans-serif" font-size="14" lengthAdjust="spacing" textLength="110" x="1844.95" y="468.8467">Image Log Entry</text><line style="stroke:#181818;stroke-width:0.5;" x1="1806.5" x2="1965.5" y1="480" y2="480"/><text fill="#000000" font-family="sans-serif" font-size="14" lengthAdjust="spacing" textLength="145" x="1811.5" y="496.9951">image : Attach Image</text><text fill="#000000" font-family="sans-serif" font-size="14" lengthAdjust="spacing" textLength="149" x="1811.5" y="513.292">comment : Small Text</text><line style="stroke:#181818;stroke-width:0.5;" x1="1806.5" x2="1965.5" y1="520.5938" y2="520.5938"/></g><!--class Tool Usage Log--><g id="elem_Tool Usage Log"><rect codeLine="71" fill="#76D7C4" height="96.8906" id="Tool Usage Log" rx="2.5" ry="2.5" style="stroke:#181818;stroke-width:0.5;" width="145" x="1557.5" y="249.5"/><ellipse cx="1575.2" cy="265.5" fill="#ADD1B2" rx="11" ry="11" style="stroke:#181818;stroke-width:1.0;"/><path d="M1578.7156,269.5313 L1578.7156,271.5625 Q1577.2313,272.1719 1575.4031,272.1719 Q1572.6844,272.1719 1571.2313,270.4375 Q1569.7781,268.6875 1569.7781,265.5781 Q1569.7781,262.5781 1571.3563,260.7969 Q1572.9344,259 1575.6531,259 Q1577.5594,259 1579.2938,259.9219 L1578.3406,261.8281 Q1576.8406,261.0469 1575.6531,261.0469 Q1574.0438,261.0469 1573.0594,262.2656 Q1572.0906,263.4688 1572.0906,265.5938 Q1572.0906,267.8438 1572.9969,268.9844 Q1573.9188,270.125 1575.6531,270.125 Q1576.6844,270.125 1578.7156,269.5313 Z " fill="#000000"/><text fill="#000000" font-family="sans-serif" font-size="14" lengthAdjust="spacing" textLength="107" x="1589.8" y="270.3467">Tool Usage Log</text><line style="stroke:#181818;stroke-width:0.5;" x1="1558.5" x2="1701.5" y1="281.5" y2="281.5"/><text fill="#000000" font-family="sans-serif" font-size="14" lengthAdjust="spacing" textLength="71" x="1563.5" y="298.4951">tool : Data</text><text fill="#000000" font-family="sans-serif" font-size="14" lengthAdjust="spacing" textLength="98" x="1563.5" y="314.792">used_by : Link</text><text fill="#000000" font-family="sans-serif" font-size="14" lengthAdjust="spacing" textLength="133" x="1563.5" y="331.0889">usage_notes : Text</text><line style="stroke:#181818;stroke-width:0.5;" x1="1558.5" x2="1701.5" y1="338.3906" y2="338.3906"/></g><!--class Default Workflow States--><g id="elem_Default Workflow States"><rect codeLine="76" fill="#76D7C4" height="80.5938" id="Default Workflow States" rx="2.5" ry="2.5" style="stroke:#181818;stroke-width:0.5;" width="195" x="2001.5" y="448"/><ellipse cx="2016.5" cy="464" fill="#ADD1B2" rx="11" ry="11" style="stroke:#181818;stroke-width:1.0;"/><path d="M2020.0156,468.0313 L2020.0156,470.0625 Q2018.5313,470.6719 2016.7031,470.6719 Q2013.9844,470.6719 2012.5313,468.9375 Q2011.0781,467.1875 2011.0781,464.0781 Q2011.0781,461.0781 2012.6563,459.2969 Q2014.2344,457.5 2016.9531,457.5 Q2018.8594,457.5 2020.5938,458.4219 L2019.6406,460.3281 Q2018.1406,459.5469 2016.9531,459.5469 Q2015.3438,459.5469 2014.3594,460.7656 Q2013.3906,461.9688 2013.3906,464.0938 Q2013.3906,466.3438 2014.2969,467.4844 Q2015.2188,468.625 2016.9531,468.625 Q2017.9844,468.625 2020.0156,468.0313 Z " fill="#000000"/><text fill="#000000" font-family="sans-serif" font-size="14" lengthAdjust="spacing" textLength="163" x="2030.5" y="468.8467">Default Workflow States</text><line style="stroke:#181818;stroke-width:0.5;" x1="2002.5" x2="2195.5" y1="480" y2="480"/><text fill="#000000" font-family="sans-serif" font-size="14" lengthAdjust="spacing" textLength="80" x="2007.5" y="496.9951">state : Data</text><text fill="#000000" font-family="sans-serif" font-size="14" lengthAdjust="spacing" textLength="122" x="2007.5" y="513.292">is_default : Check</text><line style="stroke:#181818;stroke-width:0.5;" x1="2002.5" x2="2195.5" y1="520.5938" y2="520.5938"/></g><!--class reference_doctype--><g id="elem_reference_doctype"><rect fill="#F1F1F1" height="48" id="reference_doctype" rx="2.5" ry="2.5" style="stroke:#181818;stroke-width:0.5;" width="162" x="48" y="84"/><ellipse cx="63" cy="100" fill="#ADD1B2" rx="11" ry="11" style="stroke:#181818;stroke-width:1.0;"/><path d="M66.5156,104.0313 L66.5156,106.0625 Q65.0313,106.6719 63.2031,106.6719 Q60.4844,106.6719 59.0313,104.9375 Q57.5781,103.1875 57.5781,100.0781 Q57.5781,97.0781 59.1563,95.2969 Q60.7344,93.5 63.4531,93.5 Q65.3594,93.5 67.0938,94.4219 L66.1406,96.3281 Q64.6406,95.5469 63.4531,95.5469 Q61.8438,95.5469 60.8594,96.7656 Q59.8906,97.9688 59.8906,100.0938 Q59.8906,102.3438 60.7969,103.4844 Q61.7188,104.625 63.4531,104.625 Q64.4844,104.625 66.5156,104.0313 Z " fill="#000000"/><text fill="#000000" font-family="sans-serif" font-size="14" lengthAdjust="spacing" textLength="130" x="77" y="104.8467">reference_doctype</text><line style="stroke:#181818;stroke-width:0.5;" x1="49" x2="209" y1="116" y2="116"/><line style="stroke:#181818;stroke-width:0.5;" x1="49" x2="209" y1="124" y2="124"/></g><!--class Instrument Interaction Log--><g id="elem_Instrument Interaction Log"><rect codeLine="81" fill="#76D7C4" height="129.4844" id="Instrument Interaction Log" rx="2.5" ry="2.5" style="stroke:#181818;stroke-width:0.5;" width="228" x="46" y="233.5"/><ellipse cx="67.75" cy="249.5" fill="#ADD1B2" rx="11" ry="11" style="stroke:#181818;stroke-width:1.0;"/><path d="M71.2656,253.5313 L71.2656,255.5625 Q69.7813,256.1719 67.9531,256.1719 Q65.2344,256.1719 63.7813,254.4375 Q62.3281,252.6875 62.3281,249.5781 Q62.3281,246.5781 63.9063,244.7969 Q65.4844,243 68.2031,243 Q70.1094,243 71.8438,243.9219 L70.8906,245.8281 Q69.3906,245.0469 68.2031,245.0469 Q66.5938,245.0469 65.6094,246.2656 Q64.6406,247.4688 64.6406,249.5938 Q64.6406,251.8438 65.5469,252.9844 Q66.4688,254.125 68.2031,254.125 Q69.2344,254.125 71.2656,253.5313 Z " fill="#000000"/><text fill="#000000" font-family="sans-serif" font-size="14" lengthAdjust="spacing" textLength="181" x="83.25" y="254.3467">Instrument Interaction Log</text><line style="stroke:#181818;stroke-width:0.5;" x1="47" x2="273" y1="265.5" y2="265.5"/><text fill="#000000" font-family="sans-serif" font-size="14" lengthAdjust="spacing" textLength="166" x="52" y="282.4951">interaction_type : Select</text><text fill="#000000" font-family="sans-serif" font-size="14" lengthAdjust="spacing" textLength="175" x="52" y="298.792">reference_doctype : Data</text><text fill="#000000" font-family="sans-serif" font-size="14" lengthAdjust="spacing" textLength="216" x="52" y="315.0889">reference_name : Dynamic Link</text><text fill="#000000" font-family="sans-serif" font-size="14" lengthAdjust="spacing" textLength="77" x="52" y="331.3857">date : Date</text><text fill="#000000" font-family="sans-serif" font-size="14" lengthAdjust="spacing" textLength="123" x="52" y="347.6826">notes : Small Text</text><line style="stroke:#181818;stroke-width:0.5;" x1="47" x2="273" y1="354.9844" y2="354.9844"/></g><!--class Barcode Scan Entry--><g id="elem_Barcode Scan Entry"><rect codeLine="89" fill="#76D7C4" height="113.1875" id="Barcode Scan Entry" rx="2.5" ry="2.5" style="stroke:#181818;stroke-width:0.5;" width="167" x="681.5" y="241.5"/><ellipse cx="696.5" cy="257.5" fill="#ADD1B2" rx="11" ry="11" style="stroke:#181818;stroke-width:1.0;"/><path d="M700.0156,261.5313 L700.0156,263.5625 Q698.5313,264.1719 696.7031,264.1719 Q693.9844,264.1719 692.5313,262.4375 Q691.0781,260.6875 691.0781,257.5781 Q691.0781,254.5781 692.6563,252.7969 Q694.2344,251 696.9531,251 Q698.8594,251 700.5938,251.9219 L699.6406,253.8281 Q698.1406,253.0469 696.9531,253.0469 Q695.3438,253.0469 694.3594,254.2656 Q693.3906,255.4688 693.3906,257.5938 Q693.3906,259.8438 694.2969,260.9844 Q695.2188,262.125 696.9531,262.125 Q697.9844,262.125 700.0156,261.5313 Z " fill="#000000"/><text fill="#000000" font-family="sans-serif" font-size="14" lengthAdjust="spacing" textLength="135" x="710.5" y="262.3467">Barcode Scan Entry</text><line style="stroke:#181818;stroke-width:0.5;" x1="682.5" x2="847.5" y1="273.5" y2="273.5"/><text fill="#000000" font-family="sans-serif" font-size="14" lengthAdjust="spacing" textLength="102" x="687.5" y="290.4951">barcode : Data</text><text fill="#000000" font-family="sans-serif" font-size="14" lengthAdjust="spacing" textLength="118" x="687.5" y="306.792">linked_item : Link</text><text fill="#000000" font-family="sans-serif" font-size="14" lengthAdjust="spacing" textLength="146" x="687.5" y="323.0889">scan_time : Datetime</text><text fill="#000000" font-family="sans-serif" font-size="14" lengthAdjust="spacing" textLength="136" x="687.5" y="339.3857">context_note : Data</text><line style="stroke:#181818;stroke-width:0.5;" x1="682.5" x2="847.5" y1="346.6875" y2="346.6875"/></g><!--class Clarinet Repair Log--><g id="elem_Clarinet Repair Log"><rect fill="#F1F1F1" height="48" id="Clarinet Repair Log" rx="2.5" ry="2.5" style="stroke:#181818;stroke-width:0.5;" width="161" x="245.5" y="84"/><ellipse cx="260.5" cy="100" fill="#ADD1B2" rx="11" ry="11" style="stroke:#181818;stroke-width:1.0;"/><path d="M264.0156,104.0313 L264.0156,106.0625 Q262.5313,106.6719 260.7031,106.6719 Q257.9844,106.6719 256.5313,104.9375 Q255.0781,103.1875 255.0781,100.0781 Q255.0781,97.0781 256.6563,95.2969 Q258.2344,93.5 260.9531,93.5 Q262.8594,93.5 264.5938,94.4219 L263.6406,96.3281 Q262.1406,95.5469 260.9531,95.5469 Q259.3438,95.5469 258.3594,96.7656 Q257.3906,97.9688 257.3906,100.0938 Q257.3906,102.3438 258.2969,103.4844 Q259.2188,104.625 260.9531,104.625 Q261.9844,104.625 264.0156,104.0313 Z " fill="#000000"/><text fill="#000000" font-family="sans-serif" font-size="14" lengthAdjust="spacing" textLength="129" x="274.5" y="104.8467">Clarinet Repair Log</text><line style="stroke:#181818;stroke-width:0.5;" x1="246.5" x2="405.5" y1="116" y2="116"/><line style="stroke:#181818;stroke-width:0.5;" x1="246.5" x2="405.5" y1="124" y2="124"/></g><!--class Repair Parts Used--><g id="elem_Repair Parts Used"><rect codeLine="97" fill="#76D7C4" height="145.7813" id="Repair Parts Used" rx="2.5" ry="2.5" style="stroke:#181818;stroke-width:0.5;" width="155" x="309.5" y="225"/><ellipse cx="324.5" cy="241" fill="#ADD1B2" rx="11" ry="11" style="stroke:#181818;stroke-width:1.0;"/><path d="M328.0156,245.0313 L328.0156,247.0625 Q326.5313,247.6719 324.7031,247.6719 Q321.9844,247.6719 320.5313,245.9375 Q319.0781,244.1875 319.0781,241.0781 Q319.0781,238.0781 320.6563,236.2969 Q322.2344,234.5 324.9531,234.5 Q326.8594,234.5 328.5938,235.4219 L327.6406,237.3281 Q326.1406,236.5469 324.9531,236.5469 Q323.3438,236.5469 322.3594,237.7656 Q321.3906,238.9688 321.3906,241.0938 Q321.3906,243.3438 322.2969,244.4844 Q323.2188,245.625 324.9531,245.625 Q325.9844,245.625 328.0156,245.0313 Z " fill="#000000"/><text fill="#000000" font-family="sans-serif" font-size="14" lengthAdjust="spacing" textLength="123" x="338.5" y="245.8467">Repair Parts Used</text><line style="stroke:#181818;stroke-width:0.5;" x1="310.5" x2="463.5" y1="257" y2="257"/><text fill="#000000" font-family="sans-serif" font-size="14" lengthAdjust="spacing" textLength="126" x="315.5" y="273.9951">repair_log_id : Link</text><text fill="#000000" font-family="sans-serif" font-size="14" lengthAdjust="spacing" textLength="112" x="315.5" y="290.292">item_code : Link</text><text fill="#000000" font-family="sans-serif" font-size="14" lengthAdjust="spacing" textLength="109" x="315.5" y="306.5889">qty_used : Float</text><text fill="#000000" font-family="sans-serif" font-size="14" lengthAdjust="spacing" textLength="106" x="315.5" y="322.8857">serial_no : Data</text><text fill="#000000" font-family="sans-serif" font-size="14" lengthAdjust="spacing" textLength="99" x="315.5" y="339.1826">location : Data</text><text fill="#000000" font-family="sans-serif" font-size="14" lengthAdjust="spacing" textLength="106" x="315.5" y="355.4795">used_on : Date</text><line style="stroke:#181818;stroke-width:0.5;" x1="310.5" x2="463.5" y1="362.7813" y2="362.7813"/></g><!--class Repair Task Workflow--><g id="elem_Repair Task Workflow"><rect codeLine="105" fill="#76D7C4" height="48" id="Repair Task Workflow" rx="2.5" ry="2.5" style="stroke:#181818;stroke-width:0.5;" width="179" x="2231.5" y="464.5"/><ellipse cx="2246.5" cy="480.5" fill="#ADD1B2" rx="11" ry="11" style="stroke:#181818;stroke-width:1.0;"/><path d="M2250.0156,484.5313 L2250.0156,486.5625 Q2248.5313,487.1719 2246.7031,487.1719 Q2243.9844,487.1719 2242.5313,485.4375 Q2241.0781,483.6875 2241.0781,480.5781 Q2241.0781,477.5781 2242.6563,475.7969 Q2244.2344,474 2246.9531,474 Q2248.8594,474 2250.5938,474.9219 L2249.6406,476.8281 Q2248.1406,476.0469 2246.9531,476.0469 Q2245.3438,476.0469 2244.3594,477.2656 Q2243.3906,478.4688 2243.3906,480.5938 Q2243.3906,482.8438 2244.2969,483.9844 Q2245.2188,485.125 2246.9531,485.125 Q2247.9844,485.125 2250.0156,484.5313 Z " fill="#000000"/><text fill="#000000" font-family="sans-serif" font-size="14" lengthAdjust="spacing" textLength="147" x="2260.5" y="485.3467">Repair Task Workflow</text><line style="stroke:#181818;stroke-width:0.5;" x1="2232.5" x2="2409.5" y1="496.5" y2="496.5"/><line style="stroke:#181818;stroke-width:0.5;" x1="2232.5" x2="2409.5" y1="504.5" y2="504.5"/></g><!--class Service Log Workflow--><g id="elem_Service Log Workflow"><rect codeLine="107" fill="#76D7C4" height="48" id="Service Log Workflow" rx="2.5" ry="2.5" style="stroke:#181818;stroke-width:0.5;" width="177" x="2445.5" y="464.5"/><ellipse cx="2460.5" cy="480.5" fill="#ADD1B2" rx="11" ry="11" style="stroke:#181818;stroke-width:1.0;"/><path d="M2464.0156,484.5313 L2464.0156,486.5625 Q2462.5313,487.1719 2460.7031,487.1719 Q2457.9844,487.1719 2456.5313,485.4375 Q2455.0781,483.6875 2455.0781,480.5781 Q2455.0781,477.5781 2456.6563,475.7969 Q2458.2344,474 2460.9531,474 Q2462.8594,474 2464.5938,474.9219 L2463.6406,476.8281 Q2462.1406,476.0469 2460.9531,476.0469 Q2459.3438,476.0469 2458.3594,477.2656 Q2457.3906,478.4688 2457.3906,480.5938 Q2457.3906,482.8438 2458.2969,483.9844 Q2459.2188,485.125 2460.9531,485.125 Q2461.9844,485.125 2464.0156,484.5313 Z " fill="#000000"/><text fill="#000000" font-family="sans-serif" font-size="14" lengthAdjust="spacing" textLength="145" x="2474.5" y="485.3467">Service Log Workflow</text><line style="stroke:#181818;stroke-width:0.5;" x1="2446.5" x2="2621.5" y1="496.5" y2="496.5"/><line style="stroke:#181818;stroke-width:0.5;" x1="2446.5" x2="2621.5" y1="504.5" y2="504.5"/></g><!--class In Progress Service Logs--><g id="elem_In Progress Service Logs"><rect codeLine="109" fill="#76D7C4" height="48" id="In Progress Service Logs" rx="2.5" ry="2.5" style="stroke:#181818;stroke-width:0.5;" width="201" x="2657.5" y="464.5"/><ellipse cx="2672.5" cy="480.5" fill="#ADD1B2" rx="11" ry="11" style="stroke:#181818;stroke-width:1.0;"/><path d="M2676.0156,484.5313 L2676.0156,486.5625 Q2674.5313,487.1719 2672.7031,487.1719 Q2669.9844,487.1719 2668.5313,485.4375 Q2667.0781,483.6875 2667.0781,480.5781 Q2667.0781,477.5781 2668.6563,475.7969 Q2670.2344,474 2672.9531,474 Q2674.8594,474 2676.5938,474.9219 L2675.6406,476.8281 Q2674.1406,476.0469 2672.9531,476.0469 Q2671.3438,476.0469 2670.3594,477.2656 Q2669.3906,478.4688 2669.3906,480.5938 Q2669.3906,482.8438 2670.2969,483.9844 Q2671.2188,485.125 2672.9531,485.125 Q2673.9844,485.125 2676.0156,484.5313 Z " fill="#000000"/><text fill="#000000" font-family="sans-serif" font-size="14" lengthAdjust="spacing" textLength="169" x="2686.5" y="485.3467">In Progress Service Logs</text><line style="stroke:#181818;stroke-width:0.5;" x1="2658.5" x2="2857.5" y1="496.5" y2="496.5"/><line style="stroke:#181818;stroke-width:0.5;" x1="2658.5" x2="2857.5" y1="504.5" y2="504.5"/></g><!--class Closed Service Logs--><g id="elem_Closed Service Logs"><rect codeLine="111" fill="#76D7C4" height="48" id="Closed Service Logs" rx="2.5" ry="2.5" style="stroke:#181818;stroke-width:0.5;" width="171" x="1800.5" y="590"/><ellipse cx="1815.5" cy="606" fill="#ADD1B2" rx="11" ry="11" style="stroke:#181818;stroke-width:1.0;"/><path d="M1819.0156,610.0313 L1819.0156,612.0625 Q1817.5313,612.6719 1815.7031,612.6719 Q1812.9844,612.6719 1811.5313,610.9375 Q1810.0781,609.1875 1810.0781,606.0781 Q1810.0781,603.0781 1811.6563,601.2969 Q1813.2344,599.5 1815.9531,599.5 Q1817.8594,599.5 1819.5938,600.4219 L1818.6406,602.3281 Q1817.1406,601.5469 1815.9531,601.5469 Q1814.3438,601.5469 1813.3594,602.7656 Q1812.3906,603.9688 1812.3906,606.0938 Q1812.3906,608.3438 1813.2969,609.4844 Q1814.2188,610.625 1815.9531,610.625 Q1816.9844,610.625 1819.0156,610.0313 Z " fill="#000000"/><text fill="#000000" font-family="sans-serif" font-size="14" lengthAdjust="spacing" textLength="139" x="1829.5" y="610.8467">Closed Service Logs</text><line style="stroke:#181818;stroke-width:0.5;" x1="1801.5" x2="1970.5" y1="622" y2="622"/><line style="stroke:#181818;stroke-width:0.5;" x1="1801.5" x2="1970.5" y1="630" y2="630"/></g><!--class Open Service Logs--><g id="elem_Open Service Logs"><rect codeLine="113" fill="#76D7C4" height="48" id="Open Service Logs" rx="2.5" ry="2.5" style="stroke:#181818;stroke-width:0.5;" width="161" x="2006.5" y="590"/><ellipse cx="2021.5" cy="606" fill="#ADD1B2" rx="11" ry="11" style="stroke:#181818;stroke-width:1.0;"/><path d="M2025.0156,610.0313 L2025.0156,612.0625 Q2023.5313,612.6719 2021.7031,612.6719 Q2018.9844,612.6719 2017.5313,610.9375 Q2016.0781,609.1875 2016.0781,606.0781 Q2016.0781,603.0781 2017.6563,601.2969 Q2019.2344,599.5 2021.9531,599.5 Q2023.8594,599.5 2025.5938,600.4219 L2024.6406,602.3281 Q2023.1406,601.5469 2021.9531,601.5469 Q2020.3438,601.5469 2019.3594,602.7656 Q2018.3906,603.9688 2018.3906,606.0938 Q2018.3906,608.3438 2019.2969,609.4844 Q2020.2188,610.625 2021.9531,610.625 Q2022.9844,610.625 2025.0156,610.0313 Z " fill="#000000"/><text fill="#000000" font-family="sans-serif" font-size="14" lengthAdjust="spacing" textLength="129" x="2035.5" y="610.8467">Open Service Logs</text><line style="stroke:#181818;stroke-width:0.5;" x1="2007.5" x2="2166.5" y1="622" y2="622"/><line style="stroke:#181818;stroke-width:0.5;" x1="2007.5" x2="2166.5" y1="630" y2="630"/></g><!--class Instrument Tracker Log--><g id="elem_Instrument Tracker Log"><rect codeLine="115" fill="#76D7C4" height="48" id="Instrument Tracker Log" rx="2.5" ry="2.5" style="stroke:#181818;stroke-width:0.5;" width="192" x="2203" y="590"/><ellipse cx="2218" cy="606" fill="#ADD1B2" rx="11" ry="11" style="stroke:#181818;stroke-width:1.0;"/><path d="M2221.5156,610.0313 L2221.5156,612.0625 Q2220.0313,612.6719 2218.2031,612.6719 Q2215.4844,612.6719 2214.0313,610.9375 Q2212.5781,609.1875 2212.5781,606.0781 Q2212.5781,603.0781 2214.1563,601.2969 Q2215.7344,599.5 2218.4531,599.5 Q2220.3594,599.5 2222.0938,600.4219 L2221.1406,602.3281 Q2219.6406,601.5469 2218.4531,601.5469 Q2216.8438,601.5469 2215.8594,602.7656 Q2214.8906,603.9688 2214.8906,606.0938 Q2214.8906,608.3438 2215.7969,609.4844 Q2216.7188,610.625 2218.4531,610.625 Q2219.4844,610.625 2221.5156,610.0313 Z " fill="#000000"/><text fill="#000000" font-family="sans-serif" font-size="14" lengthAdjust="spacing" textLength="160" x="2232" y="610.8467">Instrument Tracker Log</text><line style="stroke:#181818;stroke-width:0.5;" x1="2204" x2="2394" y1="622" y2="622"/><line style="stroke:#181818;stroke-width:0.5;" x1="2204" x2="2394" y1="630" y2="630"/></g><!--reverse link User to Repair Task Log--><g id="link_User_Repair Task Log"><path codeLine="22" d="M1662.99,129.93 C1678.99,138.64 1696.65,149.63 1711,162 C1740.33,187.29 1767.37,221.54 1786.93,249.21 " fill="none" id="User-backto-Repair Task Log" style="stroke:#181818;stroke-width:1.0;"/><polygon fill="#181818" points="1651.17,123.72,1654.6207,130.0519,1661.7927,129.3019,1658.342,122.97,1651.17,123.72" style="stroke:#181818;stroke-width:1.0;"/><text fill="#000000" font-family="sans-serif" font-size="13" lengthAdjust="spacing" textLength="65" x="1729" y="175.0669">logged_by</text></g><!--reverse link Instrument Profile to Service Log--><g id="link_Instrument Profile_Service Log"><path codeLine="28" d="M1244.95,140.32 C1268.8,160.02 1300.21,185.98 1328,209 C1333.8,213.81 1339.78,218.76 1345.81,223.76 " fill="none" id="Instrument Profile-backto-Service Log" style="stroke:#181818;stroke-width:1.0;"/><polygon fill="#181818" points="1234.89,132.02,1236.9736,138.9235,1244.1475,139.6554,1242.0639,132.7519,1234.89,132.02" style="stroke:#181818;stroke-width:1.0;"/><text fill="#000000" font-family="sans-serif" font-size="13" lengthAdjust="spacing" textLength="116" x="1292" y="175.0669">instrument_profile</text></g><!--reverse link User to Service Log--><g id="link_User_Service Log"><path codeLine="29" d="M1576.27,137.84 C1566.3,145.28 1555.97,153.57 1547,162 C1531.74,176.34 1516.56,192.67 1502.5,208.9 " fill="none" id="User-backto-Service Log" style="stroke:#181818;stroke-width:1.0;"/><polygon fill="#181818" points="1586.88,130.15,1579.6744,130.4313,1577.1626,137.1908,1584.3683,136.9095,1586.88,130.15" style="stroke:#181818;stroke-width:1.0;"/><text fill="#000000" font-family="sans-serif" font-size="13" lengthAdjust="spacing" textLength="89" x="1548" y="175.0669">performed_by</text></g><!--reverse link User to Service Log--><g id="link_User_Service Log"><path codeLine="30" d="M1573.63,110.92 C1535.8,115.08 1483.47,127.26 1454,162 C1442.81,175.19 1436.38,191.83 1432.9,208.89 " fill="none" id="User-backto-Service Log-1" style="stroke:#181818;stroke-width:1.0;"/><polygon fill="#181818" points="1586.85,109.72,1580.5139,106.2771,1574.8988,110.8017,1581.235,114.2446,1586.85,109.72" style="stroke:#181818;stroke-width:1.0;"/><text fill="#000000" font-family="sans-serif" font-size="13" lengthAdjust="spacing" textLength="65" x="1455" y="175.0669">logged_by</text></g><!--reverse link Item to Material Use Log--><g id="link_Item_Material Use Log"><path codeLine="41" d="M844.25,124.57 C863.33,133.19 884.81,145.55 900,162 C920.56,184.27 934.73,214.85 944.02,241.27 " fill="none" id="Item-backto-Material Use Log" style="stroke:#181818;stroke-width:1.0;"/><polygon fill="#181818" points="832.15,119.43,836.1057,125.4593,843.1927,124.1268,839.2369,118.0975,832.15,119.43" style="stroke:#181818;stroke-width:1.0;"/><text fill="#000000" font-family="sans-serif" font-size="13" lengthAdjust="spacing" textLength="67" x="913" y="175.0669">item_code</text></g><!--reverse link Item to Repair Part Used--><g id="link_Item_Repair Part Used"><path codeLine="48" d="M759.47,140.36 C743.19,152.54 724.3,166.53 707,179 C688.1,192.63 681.99,194.19 664,209 C658.23,213.75 652.39,218.79 646.6,223.96 " fill="none" id="Item-backto-Repair Part Used" style="stroke:#181818;stroke-width:1.0;"/><polygon fill="#181818" points="770.27,132.26,763.07,132.66,760.67,139.46,767.87,139.06,770.27,132.26" style="stroke:#181818;stroke-width:1.0;"/><text fill="#000000" font-family="sans-serif" font-size="13" lengthAdjust="spacing" textLength="67" x="728" y="175.0669">item_code</text></g><!--reverse link UOM to Repair Part Used--><g id="link_UOM_Repair Part Used"><path codeLine="49" d="M577.64,140.44 C571.69,146.87 566.44,154.11 563,162 C555.63,178.91 553.72,198.15 554.62,216.69 " fill="none" id="UOM-backto-Repair Part Used" style="stroke:#181818;stroke-width:1.0;"/><polygon fill="#181818" points="587.41,131.03,580.3138,132.312,578.7679,139.3555,585.8641,138.0734,587.41,131.03" style="stroke:#181818;stroke-width:1.0;"/><text fill="#000000" font-family="sans-serif" font-size="13" lengthAdjust="spacing" textLength="29" x="564" y="175.0669">uom</text></g><!--reverse link Warehouse to Repair Part Used--><g id="link_Warehouse_Repair Part Used"><path codeLine="50" d="M479.69,144.7 C476.46,155.81 475.16,168.02 479,179 C483.84,192.85 491.06,206.28 499.39,218.82 " fill="none" id="Warehouse-backto-Repair Part Used" style="stroke:#181818;stroke-width:1.0;"/><polygon fill="#181818" points="484.16,132.31,478.3604,136.5954,480.0856,143.5971,485.8852,139.3117,484.16,132.31" style="stroke:#181818;stroke-width:1.0;"/><text fill="#000000" font-family="sans-serif" font-size="13" lengthAdjust="spacing" textLength="69" x="480" y="175.0669">warehouse</text></g><!--reverse link Instrument Profile to Related Instrument Interaction--><g id="link_Instrument Profile_Related Instrument Interaction"><path codeLine="60" d="M1140.95,140.01 C1133.38,146.24 1126.7,153.53 1122,162 C1106.15,190.57 1121.8,223.28 1142.06,249.35 " fill="none" id="Instrument Profile-backto-Related Instrument Interaction" style="stroke:#181818;stroke-width:1.0;"/><polygon fill="#181818" points="1151.73,132.17,1144.5248,132.4623,1142.0235,139.2257,1149.2286,138.9334,1151.73,132.17" style="stroke:#181818;stroke-width:1.0;"/><text fill="#000000" font-family="sans-serif" font-size="13" lengthAdjust="spacing" textLength="122" x="1123" y="175.0669">related_instrument</text></g><!--reverse link User to Tool Usage Log--><g id="link_User_Tool Usage Log"><path codeLine="70" d="M1639.76,144.17 C1642.34,149.96 1644.56,156.02 1646,162 C1652.86,190.57 1649.26,223.28 1643.76,249.35 " fill="none" id="User-backto-Tool Usage Log" style="stroke:#181818;stroke-width:1.0;"/><polygon fill="#181818" points="1633.74,132.08,1632.8385,139.2345,1639.096,142.8184,1639.9975,135.6639,1633.74,132.08" style="stroke:#181818;stroke-width:1.0;"/><text fill="#000000" font-family="sans-serif" font-size="13" lengthAdjust="spacing" textLength="53" x="1649" y="175.0669">used_by</text></g><!--reverse link reference_doctype to Instrument Interaction Log--><g id="link_reference_doctype_Instrument Interaction Log"><path codeLine="80" d="M134.92,144.91 C139.04,169.89 144.64,203.85 149.5,233.35 " fill="none" id="reference_doctype-backto-Instrument Interaction Log" style="stroke:#181818;stroke-width:1.0;"/><polygon fill="#181818" points="132.8,132.05,129.8289,138.6206,134.7514,143.8903,137.7225,137.3197,132.8,132.05" style="stroke:#181818;stroke-width:1.0;"/><text fill="#000000" font-family="sans-serif" font-size="13" lengthAdjust="spacing" textLength="105" x="141" y="175.0669">reference_name</text></g><!--reverse link Item to Barcode Scan Entry--><g id="link_Item_Barcode Scan Entry"><path codeLine="88" d="M814.52,144.95 C817.06,155.88 818.29,167.92 816,179 C811.64,200.09 803.32,222.05 794.64,241.22 " fill="none" id="Item-backto-Barcode Scan Entry" style="stroke:#181818;stroke-width:1.0;"/><polygon fill="#181818" points="810.92,132.32,808.7202,139.1874,814.2132,143.8593,816.413,136.9919,810.92,132.32" style="stroke:#181818;stroke-width:1.0;"/><text fill="#000000" font-family="sans-serif" font-size="13" lengthAdjust="spacing" textLength="73" x="818" y="175.0669">linked_item</text></g><!--reverse link Clarinet Repair Log to Repair Parts Used--><g id="link_Clarinet Repair Log_Repair Parts Used"><path codeLine="95" d="M324.72,145.24 C325.08,156.22 326.25,168.23 329,179 C332.92,194.37 338.99,210.09 345.75,224.84 " fill="none" id="Clarinet Repair Log-backto-Repair Parts Used" style="stroke:#181818;stroke-width:1.0;"/><polygon fill="#181818" points="324.62,132.04,320.6663,138.0706,324.7123,144.0396,328.666,138.0091,324.62,132.04" style="stroke:#181818;stroke-width:1.0;"/><text fill="#000000" font-family="sans-serif" font-size="13" lengthAdjust="spacing" textLength="81" x="330" y="175.0669">repair_log_id</text></g><!--reverse link Item to Repair Parts Used--><g id="link_Item_Repair Parts Used"><path codeLine="96" d="M757.16,120.14 C722.13,129.62 672.11,144.47 630,162 C615.13,168.19 613.01,173.17 598,179 C548.37,198.29 528.73,183.46 482,209 C473.71,213.53 465.59,218.94 457.8,224.82 " fill="none" id="Item-backto-Repair Parts Used" style="stroke:#181818;stroke-width:1.0;"/><polygon fill="#181818" points="769.8,116.78,762.9736,114.4562,758.203,119.8637,765.0294,122.1875,769.8,116.78" style="stroke:#181818;stroke-width:1.0;"/><text fill="#000000" font-family="sans-serif" font-size="13" lengthAdjust="spacing" textLength="67" x="631" y="175.0669">item_code</text></g><!--SRC=[hLR1JkCm4Btp5LRtjX9xGek44DBIBX8I24IBE4QkCssjEd5sx03LYd_VSH8dTf863djhFM_6ysRUJ5nmiUTRO0W5bvWK6YrNFvf_Ic-tCj-ooyiRhLB0golszqGeRWoRBSjr9gs5TCQ-dVzSdC_FoFRXhGla6pjgUGAZrUiHjzkSFQBU8XWpQfyhROwuFXIG7xdGSM4hRlQ6NH_Owb305F2nAi6Hz8p5CeFSiXLIuG3PWflTMdDCltJtWXzYtEpP0CxOzzFJ2Cpkz7R6BfXh0AJ9-Z0IiCPqmPX39vGR7iXpcN6bs0hUBHcipC1OdXLaM70Bxd-DhwFJyPtCzowVW29rOYCLDDaj0L-b09-PR759KUCYBZrq0RZHcDLK9d03lf4zv3gytvDWB0KZK1PMwhnV2LF7Ioo9e2u6fzCmlI0CLQefsFygheMi8NvFI9HSCIf6MrCo9qAduDaFGL49FBnB-OzrrzqepLrc9SrAKjMWuOcGSIGbHWpYlFmGSBJkrZJEQ_RyS3y1B7LsCdlX23jDTqy0tpocFtiTw1EcrL7Eiw2BFV8wwz1Ojt9U8a8k3dJ2CrsIngEpDgklpCCJA0gQiW1mcrExk72wSoInHYITL3ksqxuXzs6Ke0YTarVq4XG8np_N5WQTzdiiSokV1CL-EqNtYbqPBzWlQxdOiGfBnq9dpUMnTe9XNcdjfDh4hWHXecdk0y9hhRErlMmSEwgbyqeygPZE0ZQyL9QzQDnlb7vZIqibCt5yOzjnTXT8awID6sbW1wBgDi86d1eWIRMmrOUYOZRUAC-oytA27FbO37pYJNQyYODymbaEBtNd1_eXnVZs6bL3EFVN7Ai1MmgUUrNGFgPOJdk4yxJ6W26TTMDl4mrYTEqqv9suJHalJQ6f6E-swhEFG7dE5KUPWsNDcgXgs5ykfjqktUibaUcnxMP6rjjm6PcHRHI5xssamJfEd9A3jMIgXKu4Wm9fmPjlLQX-Vm2ZpubMxAFlZk2pEGqC7bmiS9fwVNsESq-npr4ZZwdUR7oSVFm3]--></g></svg>