<?xml version="1.0" encoding="us-ascii" standalone="no"?><svg xmlns="http://www.w3.org/2000/svg" xmlns:xlink="http://www.w3.org/1999/xlink" contentStyleType="text/css" height="1043px" preserveAspectRatio="none" style="width:2133px;height:1043px;background:#FFFFFF;" version="1.1" viewBox="0 0 2133 1043" width="2133px" zoomAndPan="magnify"><defs/><g><!--cluster repair_portal--><g id="cluster_repair_portal"><path d="M8.5,6 L109.5,6 A3.75,3.75 0 0 1 112,8.5 L119,28.2969 L2123.5,28.2969 A2.5,2.5 0 0 1 2126,30.7969 L2126,1033.5 A2.5,2.5 0 0 1 2123.5,1036 L8.5,1036 A2.5,2.5 0 0 1 6,1033.5 L6,8.5 A2.5,2.5 0 0 1 8.5,6 " fill="none" style="stroke:#000000;stroke-width:1.5;"/><line style="stroke:#000000;stroke-width:1.5;" x1="6" x2="119" y1="28.2969" y2="28.2969"/><text fill="#000000" font-family="sans-serif" font-size="14" font-weight="bold" lengthAdjust="spacing" textLength="100" x="10" y="20.9951">repair_portal</text></g><!--cluster instrument_setup--><g id="cluster_instrument_setup"><path d="M32.5,49 L171.5,49 A3.75,3.75 0 0 1 174,51.5 L181,71.2969 L2099.5,71.2969 A2.5,2.5 0 0 1 2102,73.7969 L2102,1009.5 A2.5,2.5 0 0 1 2099.5,1012 L32.5,1012 A2.5,2.5 0 0 1 30,1009.5 L30,51.5 A2.5,2.5 0 0 1 32.5,49 " fill="none" style="stroke:#000000;stroke-width:1.5;"/><line style="stroke:#000000;stroke-width:1.5;" x1="30" x2="181" y1="71.2969" y2="71.2969"/><text fill="#000000" font-family="sans-serif" font-size="14" font-weight="bold" lengthAdjust="spacing" textLength="138" x="34" y="63.9951">instrument_setup</text></g><!--class Turnaround Time Analysis--><g id="elem_Turnaround Time Analysis"><rect codeLine="2" fill="#F9E79F" height="48" id="Turnaround Time Analysis" rx="2.5" ry="2.5" style="stroke:#181818;stroke-width:0.5;" width="210" x="1442" y="108.5"/><ellipse cx="1457" cy="124.5" fill="#ADD1B2" rx="11" ry="11" style="stroke:#181818;stroke-width:1.0;"/><path d="M1460.5156,128.5313 L1460.5156,130.5625 Q1459.0313,131.1719 1457.2031,131.1719 Q1454.4844,131.1719 1453.0313,129.4375 Q1451.5781,127.6875 1451.5781,124.5781 Q1451.5781,121.5781 1453.1563,119.7969 Q1454.7344,118 1457.4531,118 Q1459.3594,118 1461.0938,118.9219 L1460.1406,120.8281 Q1458.6406,120.0469 1457.4531,120.0469 Q1455.8438,120.0469 1454.8594,121.2656 Q1453.8906,122.4688 1453.8906,124.5938 Q1453.8906,126.8438 1454.7969,127.9844 Q1455.7188,129.125 1457.4531,129.125 Q1458.4844,129.125 1460.5156,128.5313 Z " fill="#000000"/><text fill="#000000" font-family="sans-serif" font-size="14" lengthAdjust="spacing" textLength="178" x="1471" y="129.3467">Turnaround Time Analysis</text><line style="stroke:#181818;stroke-width:0.5;" x1="1443" x2="1651" y1="140.5" y2="140.5"/><line style="stroke:#181818;stroke-width:0.5;" x1="1443" x2="1651" y1="148.5" y2="148.5"/></g><!--class Technician Performance--><g id="elem_Technician Performance"><rect codeLine="4" fill="#F9E79F" height="48" id="Technician Performance" rx="2.5" ry="2.5" style="stroke:#181818;stroke-width:0.5;" width="199" x="1687.5" y="108.5"/><ellipse cx="1702.5" cy="124.5" fill="#ADD1B2" rx="11" ry="11" style="stroke:#181818;stroke-width:1.0;"/><path d="M1706.0156,128.5313 L1706.0156,130.5625 Q1704.5313,131.1719 1702.7031,131.1719 Q1699.9844,131.1719 1698.5313,129.4375 Q1697.0781,127.6875 1697.0781,124.5781 Q1697.0781,121.5781 1698.6563,119.7969 Q1700.2344,118 1702.9531,118 Q1704.8594,118 1706.5938,118.9219 L1705.6406,120.8281 Q1704.1406,120.0469 1702.9531,120.0469 Q1701.3438,120.0469 1700.3594,121.2656 Q1699.3906,122.4688 1699.3906,124.5938 Q1699.3906,126.8438 1700.2969,127.9844 Q1701.2188,129.125 1702.9531,129.125 Q1703.9844,129.125 1706.0156,128.5313 Z " fill="#000000"/><text fill="#000000" font-family="sans-serif" font-size="14" lengthAdjust="spacing" textLength="167" x="1716.5" y="129.3467">Technician Performance</text><line style="stroke:#181818;stroke-width:0.5;" x1="1688.5" x2="1885.5" y1="140.5" y2="140.5"/><line style="stroke:#181818;stroke-width:0.5;" x1="1688.5" x2="1885.5" y1="148.5" y2="148.5"/></g><!--class Parts Consumption--><g id="elem_Parts Consumption"><rect codeLine="6" fill="#F9E79F" height="48" id="Parts Consumption" rx="2.5" ry="2.5" style="stroke:#181818;stroke-width:0.5;" width="164" x="1922" y="108.5"/><ellipse cx="1937" cy="124.5" fill="#ADD1B2" rx="11" ry="11" style="stroke:#181818;stroke-width:1.0;"/><path d="M1940.5156,128.5313 L1940.5156,130.5625 Q1939.0313,131.1719 1937.2031,131.1719 Q1934.4844,131.1719 1933.0313,129.4375 Q1931.5781,127.6875 1931.5781,124.5781 Q1931.5781,121.5781 1933.1563,119.7969 Q1934.7344,118 1937.4531,118 Q1939.3594,118 1941.0938,118.9219 L1940.1406,120.8281 Q1938.6406,120.0469 1937.4531,120.0469 Q1935.8438,120.0469 1934.8594,121.2656 Q1933.8906,122.4688 1933.8906,124.5938 Q1933.8906,126.8438 1934.7969,127.9844 Q1935.7188,129.125 1937.4531,129.125 Q1938.4844,129.125 1940.5156,128.5313 Z " fill="#000000"/><text fill="#000000" font-family="sans-serif" font-size="14" lengthAdjust="spacing" textLength="132" x="1951" y="129.3467">Parts Consumption</text><line style="stroke:#181818;stroke-width:0.5;" x1="1923" x2="2085" y1="140.5" y2="140.5"/><line style="stroke:#181818;stroke-width:0.5;" x1="1923" x2="2085" y1="148.5" y2="148.5"/></g><!--class Repair Status--><g id="elem_Repair Status"><rect codeLine="8" fill="#F9E79F" height="48" id="Repair Status" rx="2.5" ry="2.5" style="stroke:#181818;stroke-width:0.5;" width="124" x="1506" y="298.5"/><ellipse cx="1521" cy="314.5" fill="#ADD1B2" rx="11" ry="11" style="stroke:#181818;stroke-width:1.0;"/><path d="M1524.5156,318.5313 L1524.5156,320.5625 Q1523.0313,321.1719 1521.2031,321.1719 Q1518.4844,321.1719 1517.0313,319.4375 Q1515.5781,317.6875 1515.5781,314.5781 Q1515.5781,311.5781 1517.1563,309.7969 Q1518.7344,308 1521.4531,308 Q1523.3594,308 1525.0938,308.9219 L1524.1406,310.8281 Q1522.6406,310.0469 1521.4531,310.0469 Q1519.8438,310.0469 1518.8594,311.2656 Q1517.8906,312.4688 1517.8906,314.5938 Q1517.8906,316.8438 1518.7969,317.9844 Q1519.7188,319.125 1521.4531,319.125 Q1522.4844,319.125 1524.5156,318.5313 Z " fill="#000000"/><text fill="#000000" font-family="sans-serif" font-size="14" lengthAdjust="spacing" textLength="92" x="1535" y="319.3467">Repair Status</text><line style="stroke:#181818;stroke-width:0.5;" x1="1507" x2="1629" y1="330.5" y2="330.5"/><line style="stroke:#181818;stroke-width:0.5;" x1="1507" x2="1629" y1="338.5" y2="338.5"/></g><!--class Repairs By Status--><g id="elem_Repairs By Status"><rect codeLine="10" fill="#F9E79F" height="48" id="Repairs By Status" rx="2.5" ry="2.5" style="stroke:#181818;stroke-width:0.5;" width="153" x="1665.5" y="298.5"/><ellipse cx="1680.5" cy="314.5" fill="#ADD1B2" rx="11" ry="11" style="stroke:#181818;stroke-width:1.0;"/><path d="M1684.0156,318.5313 L1684.0156,320.5625 Q1682.5313,321.1719 1680.7031,321.1719 Q1677.9844,321.1719 1676.5313,319.4375 Q1675.0781,317.6875 1675.0781,314.5781 Q1675.0781,311.5781 1676.6563,309.7969 Q1678.2344,308 1680.9531,308 Q1682.8594,308 1684.5938,308.9219 L1683.6406,310.8281 Q1682.1406,310.0469 1680.9531,310.0469 Q1679.3438,310.0469 1678.3594,311.2656 Q1677.3906,312.4688 1677.3906,314.5938 Q1677.3906,316.8438 1678.2969,317.9844 Q1679.2188,319.125 1680.9531,319.125 Q1681.9844,319.125 1684.0156,318.5313 Z " fill="#000000"/><text fill="#000000" font-family="sans-serif" font-size="14" lengthAdjust="spacing" textLength="121" x="1694.5" y="319.3467">Repairs By Status</text><line style="stroke:#181818;stroke-width:0.5;" x1="1666.5" x2="1817.5" y1="330.5" y2="330.5"/><line style="stroke:#181818;stroke-width:0.5;" x1="1666.5" x2="1817.5" y1="338.5" y2="338.5"/></g><!--class Common Inspection Findings--><g id="elem_Common Inspection Findings"><rect codeLine="12" fill="#F9E79F" height="48" id="Common Inspection Findings" rx="2.5" ry="2.5" style="stroke:#181818;stroke-width:0.5;" width="233" x="1853.5" y="298.5"/><ellipse cx="1868.5" cy="314.5" fill="#ADD1B2" rx="11" ry="11" style="stroke:#181818;stroke-width:1.0;"/><path d="M1872.0156,318.5313 L1872.0156,320.5625 Q1870.5313,321.1719 1868.7031,321.1719 Q1865.9844,321.1719 1864.5313,319.4375 Q1863.0781,317.6875 1863.0781,314.5781 Q1863.0781,311.5781 1864.6563,309.7969 Q1866.2344,308 1868.9531,308 Q1870.8594,308 1872.5938,308.9219 L1871.6406,310.8281 Q1870.1406,310.0469 1868.9531,310.0469 Q1867.3438,310.0469 1866.3594,311.2656 Q1865.3906,312.4688 1865.3906,314.5938 Q1865.3906,316.8438 1866.2969,317.9844 Q1867.2188,319.125 1868.9531,319.125 Q1869.9844,319.125 1872.0156,318.5313 Z " fill="#000000"/><text fill="#000000" font-family="sans-serif" font-size="14" lengthAdjust="spacing" textLength="201" x="1882.5" y="319.3467">Common Inspection Findings</text><line style="stroke:#181818;stroke-width:0.5;" x1="1854.5" x2="2085.5" y1="330.5" y2="330.5"/><line style="stroke:#181818;stroke-width:0.5;" x1="1854.5" x2="2085.5" y1="338.5" y2="338.5"/></g><!--class Inspection Finding--><g id="elem_Inspection Finding"><rect codeLine="14" fill="#F9E79F" height="129.4844" id="Inspection Finding" rx="2.5" ry="2.5" style="stroke:#181818;stroke-width:0.5;" width="175" x="1480.5" y="554"/><ellipse cx="1503.15" cy="570" fill="#ADD1B2" rx="11" ry="11" style="stroke:#181818;stroke-width:1.0;"/><path d="M1506.6656,574.0313 L1506.6656,576.0625 Q1505.1813,576.6719 1503.3531,576.6719 Q1500.6344,576.6719 1499.1813,574.9375 Q1497.7281,573.1875 1497.7281,570.0781 Q1497.7281,567.0781 1499.3063,565.2969 Q1500.8844,563.5 1503.6031,563.5 Q1505.5094,563.5 1507.2438,564.4219 L1506.2906,566.3281 Q1504.7906,565.5469 1503.6031,565.5469 Q1501.9938,565.5469 1501.0094,566.7656 Q1500.0406,567.9688 1500.0406,570.0938 Q1500.0406,572.3438 1500.9469,573.4844 Q1501.8688,574.625 1503.6031,574.625 Q1504.6344,574.625 1506.6656,574.0313 Z " fill="#000000"/><text fill="#000000" font-family="sans-serif" font-size="14" lengthAdjust="spacing" textLength="126" x="1518.85" y="574.8467">Inspection Finding</text><line style="stroke:#181818;stroke-width:0.5;" x1="1481.5" x2="1654.5" y1="586" y2="586"/><text fill="#000000" font-family="sans-serif" font-size="14" lengthAdjust="spacing" textLength="136" x="1486.5" y="602.9951">component : Select</text><text fill="#000000" font-family="sans-serif" font-size="14" lengthAdjust="spacing" textLength="130" x="1486.5" y="619.292">issue_type : Select</text><text fill="#000000" font-family="sans-serif" font-size="14" lengthAdjust="spacing" textLength="109" x="1486.5" y="635.5889">severity : Select</text><text fill="#000000" font-family="sans-serif" font-size="14" lengthAdjust="spacing" textLength="161" x="1486.5" y="651.8857">recommendation : Text</text><text fill="#000000" font-family="sans-serif" font-size="14" lengthAdjust="spacing" textLength="163" x="1486.5" y="668.1826">action_required : Select</text><line style="stroke:#181818;stroke-width:0.5;" x1="1481.5" x2="1654.5" y1="675.4844" y2="675.4844"/></g><!--class Clarinet Setup Operation--><g id="elem_Clarinet Setup Operation"><rect codeLine="21" fill="#F9E79F" height="129.4844" id="Clarinet Setup Operation" rx="2.5" ry="2.5" style="stroke:#181818;stroke-width:0.5;" width="201" x="265.5" y="258"/><ellipse cx="280.5" cy="274" fill="#ADD1B2" rx="11" ry="11" style="stroke:#181818;stroke-width:1.0;"/><path d="M284.0156,278.0313 L284.0156,280.0625 Q282.5313,280.6719 280.7031,280.6719 Q277.9844,280.6719 276.5313,278.9375 Q275.0781,277.1875 275.0781,274.0781 Q275.0781,271.0781 276.6563,269.2969 Q278.2344,267.5 280.9531,267.5 Q282.8594,267.5 284.5938,268.4219 L283.6406,270.3281 Q282.1406,269.5469 280.9531,269.5469 Q279.3438,269.5469 278.3594,270.7656 Q277.3906,271.9688 277.3906,274.0938 Q277.3906,276.3438 278.2969,277.4844 Q279.2188,278.625 280.9531,278.625 Q281.9844,278.625 284.0156,278.0313 Z " fill="#000000"/><text fill="#000000" font-family="sans-serif" font-size="14" lengthAdjust="spacing" textLength="169" x="294.5" y="278.8467">Clarinet Setup Operation</text><line style="stroke:#181818;stroke-width:0.5;" x1="266.5" x2="465.5" y1="290" y2="290"/><text fill="#000000" font-family="sans-serif" font-size="14" lengthAdjust="spacing" textLength="159" x="271.5" y="306.9951">operation_type : Select</text><text fill="#000000" font-family="sans-serif" font-size="14" lengthAdjust="spacing" textLength="107" x="271.5" y="323.292">section : Select</text><text fill="#000000" font-family="sans-serif" font-size="14" lengthAdjust="spacing" textLength="150" x="271.5" y="339.5889">component_ref : Data</text><text fill="#000000" font-family="sans-serif" font-size="14" lengthAdjust="spacing" textLength="88" x="271.5" y="355.8857">details : Text</text><text fill="#000000" font-family="sans-serif" font-size="14" lengthAdjust="spacing" textLength="131" x="271.5" y="372.1826">completed : Check</text><line style="stroke:#181818;stroke-width:0.5;" x1="266.5" x2="465.5" y1="379.4844" y2="379.4844"/></g><!--class Consent Log Entry--><g id="elem_Consent Log Entry"><rect codeLine="28" fill="#F9E79F" height="48" id="Consent Log Entry" rx="2.5" ry="2.5" style="stroke:#181818;stroke-width:0.5;" width="159" x="1690.5" y="594.5"/><ellipse cx="1705.5" cy="610.5" fill="#ADD1B2" rx="11" ry="11" style="stroke:#181818;stroke-width:1.0;"/><path d="M1709.0156,614.5313 L1709.0156,616.5625 Q1707.5313,617.1719 1705.7031,617.1719 Q1702.9844,617.1719 1701.5313,615.4375 Q1700.0781,613.6875 1700.0781,610.5781 Q1700.0781,607.5781 1701.6563,605.7969 Q1703.2344,604 1705.9531,604 Q1707.8594,604 1709.5938,604.9219 L1708.6406,606.8281 Q1707.1406,606.0469 1705.9531,606.0469 Q1704.3438,606.0469 1703.3594,607.2656 Q1702.3906,608.4688 1702.3906,610.5938 Q1702.3906,612.8438 1703.2969,613.9844 Q1704.2188,615.125 1705.9531,615.125 Q1706.9844,615.125 1709.0156,614.5313 Z " fill="#000000"/><text fill="#000000" font-family="sans-serif" font-size="14" lengthAdjust="spacing" textLength="127" x="1719.5" y="615.3467">Consent Log Entry</text><line style="stroke:#181818;stroke-width:0.5;" x1="1691.5" x2="1848.5" y1="626.5" y2="626.5"/><line style="stroke:#181818;stroke-width:0.5;" x1="1691.5" x2="1848.5" y1="634.5" y2="634.5"/></g><!--class Instrument Profile--><g id="elem_Instrument Profile"><rect fill="#F1F1F1" height="48" id="Instrument Profile" rx="2.5" ry="2.5" style="stroke:#181818;stroke-width:0.5;" width="153" x="1317.5" y="298.5"/><ellipse cx="1332.5" cy="314.5" fill="#ADD1B2" rx="11" ry="11" style="stroke:#181818;stroke-width:1.0;"/><path d="M1336.0156,318.5313 L1336.0156,320.5625 Q1334.5313,321.1719 1332.7031,321.1719 Q1329.9844,321.1719 1328.5313,319.4375 Q1327.0781,317.6875 1327.0781,314.5781 Q1327.0781,311.5781 1328.6563,309.7969 Q1330.2344,308 1332.9531,308 Q1334.8594,308 1336.5938,308.9219 L1335.6406,310.8281 Q1334.1406,310.0469 1332.9531,310.0469 Q1331.3438,310.0469 1330.3594,311.2656 Q1329.3906,312.4688 1329.3906,314.5938 Q1329.3906,316.8438 1330.2969,317.9844 Q1331.2188,319.125 1332.9531,319.125 Q1333.9844,319.125 1336.0156,318.5313 Z " fill="#000000"/><text fill="#000000" font-family="sans-serif" font-size="14" lengthAdjust="spacing" textLength="121" x="1346.5" y="319.3467">Instrument Profile</text><line style="stroke:#181818;stroke-width:0.5;" x1="1318.5" x2="1469.5" y1="330.5" y2="330.5"/><line style="stroke:#181818;stroke-width:0.5;" x1="1318.5" x2="1469.5" y1="338.5" y2="338.5"/></g><!--class Clarinet Initial Setup--><g id="elem_Clarinet Initial Setup"><rect codeLine="38" fill="#F9E79F" height="308.75" id="Clarinet Initial Setup" rx="2.5" ry="2.5" style="stroke:#181818;stroke-width:0.5;" width="216" x="728" y="464"/><ellipse cx="765.05" cy="480" fill="#ADD1B2" rx="11" ry="11" style="stroke:#181818;stroke-width:1.0;"/><path d="M768.5656,484.0313 L768.5656,486.0625 Q767.0813,486.6719 765.2531,486.6719 Q762.5344,486.6719 761.0813,484.9375 Q759.6281,483.1875 759.6281,480.0781 Q759.6281,477.0781 761.2063,475.2969 Q762.7844,473.5 765.5031,473.5 Q767.4094,473.5 769.1438,474.4219 L768.1906,476.3281 Q766.6906,475.5469 765.5031,475.5469 Q763.8938,475.5469 762.9094,476.7656 Q761.9406,477.9688 761.9406,480.0938 Q761.9406,482.3438 762.8469,483.4844 Q763.7688,484.625 765.5031,484.625 Q766.5344,484.625 768.5656,484.0313 Z " fill="#000000"/><text fill="#000000" font-family="sans-serif" font-size="14" lengthAdjust="spacing" textLength="135" x="783.95" y="484.8467">Clarinet Initial Setup</text><line style="stroke:#181818;stroke-width:0.5;" x1="729" x2="943" y1="496" y2="496"/><text fill="#000000" font-family="sans-serif" font-size="14" lengthAdjust="spacing" textLength="164" x="734" y="512.9951">instrument_profile : Link</text><text fill="#000000" font-family="sans-serif" font-size="14" lengthAdjust="spacing" textLength="187" x="734" y="529.292">instrument_category : Data</text><text fill="#000000" font-family="sans-serif" font-size="14" lengthAdjust="spacing" textLength="88" x="734" y="545.5889">model : Data</text><text fill="#000000" font-family="sans-serif" font-size="14" lengthAdjust="spacing" textLength="142" x="734" y="561.8857">serial_number : Data</text><text fill="#000000" font-family="sans-serif" font-size="14" lengthAdjust="spacing" textLength="112" x="734" y="578.1826">inspection : Link</text><text fill="#000000" font-family="sans-serif" font-size="14" lengthAdjust="spacing" textLength="148" x="734" y="594.4795">setup_template : Link</text><text fill="#000000" font-family="sans-serif" font-size="14" lengthAdjust="spacing" textLength="124" x="734" y="610.7764">setup_date : Date</text><text fill="#000000" font-family="sans-serif" font-size="14" lengthAdjust="spacing" textLength="111" x="734" y="627.0732">technician : Link</text><text fill="#000000" font-family="sans-serif" font-size="14" lengthAdjust="spacing" textLength="112" x="734" y="643.3701">checklist : Table</text><text fill="#000000" font-family="sans-serif" font-size="14" lengthAdjust="spacing" textLength="155" x="734" y="659.667">materials_used : Table</text><text fill="#000000" font-family="sans-serif" font-size="14" lengthAdjust="spacing" textLength="204" x="734" y="675.9639">operations_performed : Table</text><text fill="#000000" font-family="sans-serif" font-size="14" lengthAdjust="spacing" textLength="192" x="734" y="692.2607">work_photos : Attach Image</text><text fill="#000000" font-family="sans-serif" font-size="14" lengthAdjust="spacing" textLength="165" x="734" y="708.5576">technical_tags : Tag List</text><text fill="#000000" font-family="sans-serif" font-size="14" lengthAdjust="spacing" textLength="127" x="734" y="724.8545">labor_hours : Float</text><text fill="#000000" font-family="sans-serif" font-size="14" lengthAdjust="spacing" textLength="99" x="734" y="741.1514">status : Select</text><text fill="#000000" font-family="sans-serif" font-size="14" lengthAdjust="spacing" textLength="136" x="734" y="757.4482">qa_inspection : Link</text><line style="stroke:#181818;stroke-width:0.5;" x1="729" x2="943" y1="764.75" y2="764.75"/></g><!--class Clarinet Inspection--><g id="elem_Clarinet Inspection"><rect fill="#F1F1F1" height="48" id="Clarinet Inspection" rx="2.5" ry="2.5" style="stroke:#181818;stroke-width:0.5;" width="160" x="1122" y="298.5"/><ellipse cx="1137" cy="314.5" fill="#ADD1B2" rx="11" ry="11" style="stroke:#181818;stroke-width:1.0;"/><path d="M1140.5156,318.5313 L1140.5156,320.5625 Q1139.0313,321.1719 1137.2031,321.1719 Q1134.4844,321.1719 1133.0313,319.4375 Q1131.5781,317.6875 1131.5781,314.5781 Q1131.5781,311.5781 1133.1563,309.7969 Q1134.7344,308 1137.4531,308 Q1139.3594,308 1141.0938,308.9219 L1140.1406,310.8281 Q1138.6406,310.0469 1137.4531,310.0469 Q1135.8438,310.0469 1134.8594,311.2656 Q1133.8906,312.4688 1133.8906,314.5938 Q1133.8906,316.8438 1134.7969,317.9844 Q1135.7188,319.125 1137.4531,319.125 Q1138.4844,319.125 1140.5156,318.5313 Z " fill="#000000"/><text fill="#000000" font-family="sans-serif" font-size="14" lengthAdjust="spacing" textLength="128" x="1151" y="319.3467">Clarinet Inspection</text><line style="stroke:#181818;stroke-width:0.5;" x1="1123" x2="1281" y1="330.5" y2="330.5"/><line style="stroke:#181818;stroke-width:0.5;" x1="1123" x2="1281" y1="338.5" y2="338.5"/></g><!--class Setup Template--><g id="elem_Setup Template"><rect codeLine="62" fill="#F9E79F" height="96.8906" id="Setup Template" rx="2.5" ry="2.5" style="stroke:#181818;stroke-width:0.5;" width="169" x="917.5" y="274"/><ellipse cx="944.65" cy="290" fill="#ADD1B2" rx="11" ry="11" style="stroke:#181818;stroke-width:1.0;"/><path d="M948.1656,294.0313 L948.1656,296.0625 Q946.6813,296.6719 944.8531,296.6719 Q942.1344,296.6719 940.6813,294.9375 Q939.2281,293.1875 939.2281,290.0781 Q939.2281,287.0781 940.8063,285.2969 Q942.3844,283.5 945.1031,283.5 Q947.0094,283.5 948.7438,284.4219 L947.7906,286.3281 Q946.2906,285.5469 945.1031,285.5469 Q943.4938,285.5469 942.5094,286.7656 Q941.5406,287.9688 941.5406,290.0938 Q941.5406,292.3438 942.4469,293.4844 Q943.3688,294.625 945.1031,294.625 Q946.1344,294.625 948.1656,294.0313 Z " fill="#000000"/><text fill="#000000" font-family="sans-serif" font-size="14" lengthAdjust="spacing" textLength="110" x="961.35" y="294.8467">Setup Template</text><line style="stroke:#181818;stroke-width:0.5;" x1="918.5" x2="1085.5" y1="306" y2="306"/><text fill="#000000" font-family="sans-serif" font-size="14" lengthAdjust="spacing" textLength="152" x="923.5" y="322.9951">template_name : Data</text><text fill="#000000" font-family="sans-serif" font-size="14" lengthAdjust="spacing" textLength="145" x="923.5" y="339.292">clarinet_model : Data</text><text fill="#000000" font-family="sans-serif" font-size="14" lengthAdjust="spacing" textLength="157" x="923.5" y="355.5889">checklist_items : Table</text><line style="stroke:#181818;stroke-width:0.5;" x1="918.5" x2="1085.5" y1="362.8906" y2="362.8906"/></g><!--class User--><g id="elem_User"><rect fill="#F1F1F1" height="48" id="User" rx="2.5" ry="2.5" style="stroke:#181818;stroke-width:0.5;" width="64" x="818" y="298.5"/><ellipse cx="833" cy="314.5" fill="#ADD1B2" rx="11" ry="11" style="stroke:#181818;stroke-width:1.0;"/><path d="M836.5156,318.5313 L836.5156,320.5625 Q835.0313,321.1719 833.2031,321.1719 Q830.4844,321.1719 829.0313,319.4375 Q827.5781,317.6875 827.5781,314.5781 Q827.5781,311.5781 829.1563,309.7969 Q830.7344,308 833.4531,308 Q835.3594,308 837.0938,308.9219 L836.1406,310.8281 Q834.6406,310.0469 833.4531,310.0469 Q831.8438,310.0469 830.8594,311.2656 Q829.8906,312.4688 829.8906,314.5938 Q829.8906,316.8438 830.7969,317.9844 Q831.7188,319.125 833.4531,319.125 Q834.4844,319.125 836.5156,318.5313 Z " fill="#000000"/><text fill="#000000" font-family="sans-serif" font-size="14" lengthAdjust="spacing" textLength="32" x="847" y="319.3467">User</text><line style="stroke:#181818;stroke-width:0.5;" x1="819" x2="881" y1="330.5" y2="330.5"/><line style="stroke:#181818;stroke-width:0.5;" x1="819" x2="881" y1="338.5" y2="338.5"/></g><!--class Setup Checklist Item--><g id="elem_Setup Checklist Item"><rect codeLine="56" fill="#F9E79F" height="96.8906" id="Setup Checklist Item" rx="2.5" ry="2.5" style="stroke:#181818;stroke-width:0.5;" width="174" x="576" y="84"/><ellipse cx="591" cy="100" fill="#ADD1B2" rx="11" ry="11" style="stroke:#181818;stroke-width:1.0;"/><path d="M594.5156,104.0313 L594.5156,106.0625 Q593.0313,106.6719 591.2031,106.6719 Q588.4844,106.6719 587.0313,104.9375 Q585.5781,103.1875 585.5781,100.0781 Q585.5781,97.0781 587.1563,95.2969 Q588.7344,93.5 591.4531,93.5 Q593.3594,93.5 595.0938,94.4219 L594.1406,96.3281 Q592.6406,95.5469 591.4531,95.5469 Q589.8438,95.5469 588.8594,96.7656 Q587.8906,97.9688 587.8906,100.0938 Q587.8906,102.3438 588.7969,103.4844 Q589.7188,104.625 591.4531,104.625 Q592.4844,104.625 594.5156,104.0313 Z " fill="#000000"/><text fill="#000000" font-family="sans-serif" font-size="14" lengthAdjust="spacing" textLength="142" x="605" y="104.8467">Setup Checklist Item</text><line style="stroke:#181818;stroke-width:0.5;" x1="577" x2="749" y1="116" y2="116"/><text fill="#000000" font-family="sans-serif" font-size="14" lengthAdjust="spacing" textLength="74" x="582" y="132.9951">task : Data</text><text fill="#000000" font-family="sans-serif" font-size="14" lengthAdjust="spacing" textLength="131" x="582" y="149.292">completed : Check</text><text fill="#000000" font-family="sans-serif" font-size="14" lengthAdjust="spacing" textLength="83" x="582" y="165.5889">notes : Text</text><line style="stroke:#181818;stroke-width:0.5;" x1="577" x2="749" y1="172.8906" y2="172.8906"/></g><!--class Material Usage--><g id="elem_Material Usage"><rect codeLine="69" fill="#F9E79F" height="96.8906" id="Material Usage" rx="2.5" ry="2.5" style="stroke:#181818;stroke-width:0.5;" width="184" x="46" y="274"/><ellipse cx="83.95" cy="290" fill="#ADD1B2" rx="11" ry="11" style="stroke:#181818;stroke-width:1.0;"/><path d="M87.4656,294.0313 L87.4656,296.0625 Q85.9813,296.6719 84.1531,296.6719 Q81.4344,296.6719 79.9813,294.9375 Q78.5281,293.1875 78.5281,290.0781 Q78.5281,287.0781 80.1063,285.2969 Q81.6844,283.5 84.4031,283.5 Q86.3094,283.5 88.0438,284.4219 L87.0906,286.3281 Q85.5906,285.5469 84.4031,285.5469 Q82.7938,285.5469 81.8094,286.7656 Q80.8406,287.9688 80.8406,290.0938 Q80.8406,292.3438 81.7469,293.4844 Q82.6688,294.625 84.4031,294.625 Q85.4344,294.625 87.4656,294.0313 Z " fill="#000000"/><text fill="#000000" font-family="sans-serif" font-size="14" lengthAdjust="spacing" textLength="101" x="103.05" y="294.8467">Material Usage</text><line style="stroke:#181818;stroke-width:0.5;" x1="47" x2="229" y1="306" y2="306"/><text fill="#000000" font-family="sans-serif" font-size="14" lengthAdjust="spacing" textLength="70" x="52" y="322.9951">item : Link</text><text fill="#000000" font-family="sans-serif" font-size="14" lengthAdjust="spacing" textLength="101" x="52" y="339.292">quantity : Float</text><text fill="#000000" font-family="sans-serif" font-size="14" lengthAdjust="spacing" textLength="172" x="52" y="355.5889">source_warehouse : Link</text><line style="stroke:#181818;stroke-width:0.5;" x1="47" x2="229" y1="362.8906" y2="362.8906"/></g><!--class Quality Inspection--><g id="elem_Quality Inspection"><rect fill="#F1F1F1" height="48" id="Quality Inspection" rx="2.5" ry="2.5" style="stroke:#181818;stroke-width:0.5;" width="154" x="629" y="298.5"/><ellipse cx="644" cy="314.5" fill="#ADD1B2" rx="11" ry="11" style="stroke:#181818;stroke-width:1.0;"/><path d="M647.5156,318.5313 L647.5156,320.5625 Q646.0313,321.1719 644.2031,321.1719 Q641.4844,321.1719 640.0313,319.4375 Q638.5781,317.6875 638.5781,314.5781 Q638.5781,311.5781 640.1563,309.7969 Q641.7344,308 644.4531,308 Q646.3594,308 648.0938,308.9219 L647.1406,310.8281 Q645.6406,310.0469 644.4531,310.0469 Q642.8438,310.0469 641.8594,311.2656 Q640.8906,312.4688 640.8906,314.5938 Q640.8906,316.8438 641.7969,317.9844 Q642.7188,319.125 644.4531,319.125 Q645.4844,319.125 647.5156,318.5313 Z " fill="#000000"/><text fill="#000000" font-family="sans-serif" font-size="14" lengthAdjust="spacing" textLength="122" x="658" y="319.3467">Quality Inspection</text><line style="stroke:#181818;stroke-width:0.5;" x1="630" x2="782" y1="330.5" y2="330.5"/><line style="stroke:#181818;stroke-width:0.5;" x1="630" x2="782" y1="338.5" y2="338.5"/></g><!--class Item--><g id="elem_Item"><rect fill="#F1F1F1" height="48" id="Item" rx="2.5" ry="2.5" style="stroke:#181818;stroke-width:0.5;" width="62" x="250" y="108.5"/><ellipse cx="265" cy="124.5" fill="#ADD1B2" rx="11" ry="11" style="stroke:#181818;stroke-width:1.0;"/><path d="M268.5156,128.5313 L268.5156,130.5625 Q267.0313,131.1719 265.2031,131.1719 Q262.4844,131.1719 261.0313,129.4375 Q259.5781,127.6875 259.5781,124.5781 Q259.5781,121.5781 261.1563,119.7969 Q262.7344,118 265.4531,118 Q267.3594,118 269.0938,118.9219 L268.1406,120.8281 Q266.6406,120.0469 265.4531,120.0469 Q263.8438,120.0469 262.8594,121.2656 Q261.8906,122.4688 261.8906,124.5938 Q261.8906,126.8438 262.7969,127.9844 Q263.7188,129.125 265.4531,129.125 Q266.4844,129.125 268.5156,128.5313 Z " fill="#000000"/><text fill="#000000" font-family="sans-serif" font-size="14" lengthAdjust="spacing" textLength="30" x="279" y="129.3467">Item</text><line style="stroke:#181818;stroke-width:0.5;" x1="251" x2="311" y1="140.5" y2="140.5"/><line style="stroke:#181818;stroke-width:0.5;" x1="251" x2="311" y1="148.5" y2="148.5"/></g><!--class Warehouse--><g id="elem_Warehouse"><rect fill="#F1F1F1" height="48" id="Warehouse" rx="2.5" ry="2.5" style="stroke:#181818;stroke-width:0.5;" width="111" x="64.5" y="108.5"/><ellipse cx="79.5" cy="124.5" fill="#ADD1B2" rx="11" ry="11" style="stroke:#181818;stroke-width:1.0;"/><path d="M83.0156,128.5313 L83.0156,130.5625 Q81.5313,131.1719 79.7031,131.1719 Q76.9844,131.1719 75.5313,129.4375 Q74.0781,127.6875 74.0781,124.5781 Q74.0781,121.5781 75.6563,119.7969 Q77.2344,118 79.9531,118 Q81.8594,118 83.5938,118.9219 L82.6406,120.8281 Q81.1406,120.0469 79.9531,120.0469 Q78.3438,120.0469 77.3594,121.2656 Q76.3906,122.4688 76.3906,124.5938 Q76.3906,126.8438 77.2969,127.9844 Q78.2188,129.125 79.9531,129.125 Q80.9844,129.125 83.0156,128.5313 Z " fill="#000000"/><text fill="#000000" font-family="sans-serif" font-size="14" lengthAdjust="spacing" textLength="79" x="93.5" y="129.3467">Warehouse</text><line style="stroke:#181818;stroke-width:0.5;" x1="65.5" x2="174.5" y1="140.5" y2="140.5"/><line style="stroke:#181818;stroke-width:0.5;" x1="65.5" x2="174.5" y1="148.5" y2="148.5"/></g><!--class Clarinet Setup Log--><g id="elem_Clarinet Setup Log"><rect codeLine="76" fill="#F9E79F" height="145.7813" id="Clarinet Setup Log" rx="2.5" ry="2.5" style="stroke:#181818;stroke-width:0.5;" width="158" x="999" y="850"/><ellipse cx="1014" cy="866" fill="#ADD1B2" rx="11" ry="11" style="stroke:#181818;stroke-width:1.0;"/><path d="M1017.5156,870.0313 L1017.5156,872.0625 Q1016.0313,872.6719 1014.2031,872.6719 Q1011.4844,872.6719 1010.0313,870.9375 Q1008.5781,869.1875 1008.5781,866.0781 Q1008.5781,863.0781 1010.1563,861.2969 Q1011.7344,859.5 1014.4531,859.5 Q1016.3594,859.5 1018.0938,860.4219 L1017.1406,862.3281 Q1015.6406,861.5469 1014.4531,861.5469 Q1012.8438,861.5469 1011.8594,862.7656 Q1010.8906,863.9688 1010.8906,866.0938 Q1010.8906,868.3438 1011.7969,869.4844 Q1012.7188,870.625 1014.4531,870.625 Q1015.4844,870.625 1017.5156,870.0313 Z " fill="#000000"/><text fill="#000000" font-family="sans-serif" font-size="14" lengthAdjust="spacing" textLength="126" x="1028" y="870.8467">Clarinet Setup Log</text><line style="stroke:#181818;stroke-width:0.5;" x1="1000" x2="1156" y1="882" y2="882"/><text fill="#000000" font-family="sans-serif" font-size="14" lengthAdjust="spacing" textLength="121" x="1005" y="898.9951">initial_setup : Link</text><text fill="#000000" font-family="sans-serif" font-size="14" lengthAdjust="spacing" textLength="134" x="1005" y="915.292">log_time : Datetime</text><text fill="#000000" font-family="sans-serif" font-size="14" lengthAdjust="spacing" textLength="105" x="1005" y="931.5889">action_by : Link</text><text fill="#000000" font-family="sans-serif" font-size="14" lengthAdjust="spacing" textLength="114" x="1005" y="947.8857">log_type : Select</text><text fill="#000000" font-family="sans-serif" font-size="14" lengthAdjust="spacing" textLength="83" x="1005" y="964.1826">notes : Text</text><text fill="#000000" font-family="sans-serif" font-size="14" lengthAdjust="spacing" textLength="144" x="1005" y="980.4795">attachments : Attach</text><line style="stroke:#181818;stroke-width:0.5;" x1="1000" x2="1156" y1="987.7813" y2="987.7813"/></g><!--reverse link Instrument Profile to Clarinet Initial Setup--><g id="link_Instrument Profile_Clarinet Initial Setup"><path codeLine="30" d="M1352.16,354.36 C1336.26,365.39 1317.71,377.44 1300,387 C1222,429.13 1195.87,425.53 1116,464 C1058.31,491.79 995.69,525.75 944.32,554.65 " fill="none" id="Instrument Profile-backto-Clarinet Initial Setup" style="stroke:#181818;stroke-width:1.0;"/><polygon fill="#181818" points="1363.21,346.57,1356.0013,346.7546,1353.3991,353.4798,1360.6078,353.2952,1363.21,346.57" style="stroke:#181818;stroke-width:1.0;"/><text fill="#000000" font-family="sans-serif" font-size="13" lengthAdjust="spacing" textLength="116" x="1235" y="430.0669">instrument_profile</text></g><!--reverse link Clarinet Inspection to Clarinet Initial Setup--><g id="link_Clarinet Inspection_Clarinet Initial Setup"><path codeLine="31" d="M1162.89,354.92 C1111.12,396.5 1017.8,471.46 944.09,530.68 " fill="none" id="Clarinet Inspection-backto-Clarinet Initial Setup" style="stroke:#181818;stroke-width:1.0;"/><polygon fill="#181818" points="1173.28,346.57,1166.0965,347.2009,1163.916,354.0744,1171.0995,353.4435,1173.28,346.57" style="stroke:#181818;stroke-width:1.0;"/><text fill="#000000" font-family="sans-serif" font-size="13" lengthAdjust="spacing" textLength="65" x="1084" y="430.0669">inspection</text></g><!--reverse link Setup Template to Clarinet Initial Setup--><g id="link_Setup Template_Clarinet Initial Setup"><path codeLine="32" d="M961.51,382.5 C954.13,393.81 946.67,405.67 940,417 C931.15,432.04 922.23,447.91 913.54,463.86 " fill="none" id="Setup Template-backto-Clarinet Initial Setup" style="stroke:#181818;stroke-width:1.0;"/><polygon fill="#181818" points="968.82,371.4,962.1764,374.2039,962.2093,381.4149,968.853,378.611,968.82,371.4" style="stroke:#181818;stroke-width:1.0;"/><text fill="#000000" font-family="sans-serif" font-size="13" lengthAdjust="spacing" textLength="101" x="941" y="430.0669">setup_template</text></g><!--reverse link User to Clarinet Initial Setup--><g id="link_User_Clarinet Initial Setup"><path codeLine="33" d="M841.85,359.71 C838.37,376.96 834.72,397.94 833,417 C831.63,432.17 830.82,448.01 830.41,463.85 " fill="none" id="User-backto-Clarinet Initial Setup" style="stroke:#181818;stroke-width:1.0;"/><polygon fill="#181818" points="844.56,346.78,839.4129,351.8305,842.0952,358.5241,847.2423,353.4737,844.56,346.78" style="stroke:#181818;stroke-width:1.0;"/><text fill="#000000" font-family="sans-serif" font-size="13" lengthAdjust="spacing" textLength="65" x="834" y="430.0669">technician</text></g><!--reverse link Setup Checklist Item to Clarinet Initial Setup--><g id="link_Setup Checklist Item_Clarinet Initial Setup"><path codeLine="34" d="M598.38,190.71 C580.88,210.13 564.25,233.23 555,258 C534.95,311.71 530.48,335.17 555,387 C590.75,462.57 664.77,521.66 727.87,561.09 " fill="none" id="Setup Checklist Item-backto-Clarinet Initial Setup" style="stroke:#181818;stroke-width:1.0;"/><polygon fill="#181818" points="607.28,181.19,600.2589,182.8343,599.0762,189.9477,606.0974,188.3035,607.28,181.19" style="stroke:#181818;stroke-width:1.0;"/><text fill="#000000" font-family="sans-serif" font-size="13" lengthAdjust="spacing" textLength="55" x="556" y="327.0669">checklist</text></g><!--reverse link Material Usage to Clarinet Initial Setup--><g id="link_Material Usage_Clarinet Initial Setup"><path codeLine="35" d="M193.79,380.25 C214.99,399.39 240.26,419.54 266,434 C415.55,518.01 609.11,569.95 727.82,596.27 " fill="none" id="Material Usage-backto-Clarinet Initial Setup" style="stroke:#181818;stroke-width:1.0;"/><polygon fill="#181818" points="184.04,371.25,185.7387,378.2582,192.8612,379.3855,191.1624,372.3774,184.04,371.25" style="stroke:#181818;stroke-width:1.0;"/><text fill="#000000" font-family="sans-serif" font-size="13" lengthAdjust="spacing" textLength="98" x="267" y="430.0669">materials_used</text></g><!--reverse link Clarinet Setup Operation to Clarinet Initial Setup--><g id="link_Clarinet Setup Operation_Clarinet Initial Setup"><path codeLine="36" d="M368.01,400 C371.15,412.3 376.17,424.19 384,434 C468.24,539.6 622.97,584.85 727.65,603.95 " fill="none" id="Clarinet Setup Operation-backto-Clarinet Initial Setup" style="stroke:#181818;stroke-width:1.0;"/><polygon fill="#181818" points="365.39,387.1,362.6631,393.7756,367.7763,398.8603,370.5033,392.1847,365.39,387.1" style="stroke:#181818;stroke-width:1.0;"/><text fill="#000000" font-family="sans-serif" font-size="13" lengthAdjust="spacing" textLength="142" x="385" y="430.0669">operations_performed</text></g><!--reverse link Quality Inspection to Clarinet Initial Setup--><g id="link_Quality Inspection_Clarinet Initial Setup"><path codeLine="37" d="M712.32,359.98 C716.74,381.9 723.57,410.07 733,434 C736.89,443.86 741.21,453.83 745.83,463.78 " fill="none" id="Quality Inspection-backto-Clarinet Initial Setup" style="stroke:#181818;stroke-width:1.0;"/><polygon fill="#181818" points="709.81,346.92,707.0084,353.5646,712.0644,358.7063,714.866,352.0617,709.81,346.92" style="stroke:#181818;stroke-width:1.0;"/><text fill="#000000" font-family="sans-serif" font-size="13" lengthAdjust="spacing" textLength="88" x="734" y="430.0669">qa_inspection</text></g><!--reverse link Setup Checklist Item to Setup Template--><g id="link_Setup Checklist Item_Setup Template"><path codeLine="61" d="M761.81,183.36 C804.67,205.51 855.21,232.34 900,258 C908.78,263.03 917.89,268.43 926.9,273.89 " fill="none" id="Setup Checklist Item-backto-Setup Template" style="stroke:#181818;stroke-width:1.0;"/><polygon fill="#181818" points="750.22,177.38,753.7174,183.6862,760.8836,182.8834,757.3863,176.5771,750.22,177.38" style="stroke:#181818;stroke-width:1.0;"/><text fill="#000000" font-family="sans-serif" font-size="13" lengthAdjust="spacing" textLength="98" x="843" y="224.0669">checklist_items</text></g><!--reverse link Item to Material Usage--><g id="link_Item_Material Usage"><path codeLine="67" d="M270.54,169.12 C264.08,187.69 254.59,210.18 242,228 C230.3,244.56 215.17,260.26 200.09,273.91 " fill="none" id="Item-backto-Material Usage" style="stroke:#181818;stroke-width:1.0;"/><polygon fill="#181818" points="274.63,156.71,268.9533,161.1569,270.8748,168.1073,276.5515,163.6604,274.63,156.71" style="stroke:#181818;stroke-width:1.0;"/><text fill="#000000" font-family="sans-serif" font-size="13" lengthAdjust="spacing" textLength="29" x="253" y="224.0669">item</text></g><!--reverse link Warehouse to Material Usage--><g id="link_Warehouse_Material Usage"><path codeLine="68" d="M118.3,169.81 C117.77,182.8 117.26,197.55 117,211 C116.85,218.55 116.17,220.49 117,228 C118.67,243.05 121.8,259.21 125.15,273.8 " fill="none" id="Warehouse-backto-Material Usage" style="stroke:#181818;stroke-width:1.0;"/><polygon fill="#181818" points="118.87,156.55,114.6165,162.373,118.3556,168.539,122.6091,162.7159,118.87,156.55" style="stroke:#181818;stroke-width:1.0;"/><text fill="#000000" font-family="sans-serif" font-size="13" lengthAdjust="spacing" textLength="119" x="118" y="224.0669">source_warehouse</text></g><!--reverse link Clarinet Initial Setup to Clarinet Setup Log--><g id="link_Clarinet Initial Setup_Clarinet Setup Log"><path codeLine="74" d="M952.56,765.2 C976.08,794.6 999.82,824.28 1020.23,849.78 " fill="none" id="Clarinet Initial Setup-backto-Clarinet Setup Log" style="stroke:#181818;stroke-width:1.0;"/><polygon fill="#181818" points="944.26,754.82,944.8909,762.0035,951.7644,764.184,951.1335,757.0005,944.26,754.82" style="stroke:#181818;stroke-width:1.0;"/><text fill="#000000" font-family="sans-serif" font-size="13" lengthAdjust="spacing" textLength="76" x="993" y="816.0669">initial_setup</text></g><!--reverse link User to Clarinet Setup Log--><g id="link_User_Clarinet Setup Log"><path codeLine="75" d="M869.32,357.7 C877.35,368.84 887.7,380.11 900,387 C949.59,414.78 1116.24,374.52 1154,417 C1261.05,537.44 1177.79,741.41 1120.49,849.59 " fill="none" id="User-backto-Clarinet Setup Log" style="stroke:#181818;stroke-width:1.0;"/><polygon fill="#181818" points="862.07,346.76,862.0546,353.9711,868.7051,356.7588,868.7205,349.5477,862.07,346.76" style="stroke:#181818;stroke-width:1.0;"/><text fill="#000000" font-family="sans-serif" font-size="13" lengthAdjust="spacing" textLength="61" x="1206" y="623.0669">action_by</text></g><!--SRC=[bLLDRzim3BtdLmZPRK1t7LeK1Rgs0GfqMBUcs55WRDOH8akkAAypXlxtKVwIxAR9Tal8Ptuyyb4LP3ieK3YiG3bPMUT1VrA6lAjBD5uI-heIv-ShgtDq5nVYpoBJG2IMwzePSBOskLYh4iMb0TsGegNui3gz-NowOkZh2CPiQrIcm8XxT4_MbM0ot0kz1-T9N5b3TLbvPSrUr8-sOF7WmTTq047YItC8TMNBqXfnQwZ2B6GJAsLoPOhzyBUu52P4PilA6YPEd8a7r0nbeoAgKVgcmjHA-0kTyargSyW1cFSSsXHdOes_WntQbDBXSwqSvl6Js8S6fmnwTeI1VQlGmPmy8UnWtbDDrgSSJMCldFU97TVWWSqvUb2QOd41fz6tPLrjCTkbx1eAPDpPGjmOxvefgO7EVj74lRDFIlDAV3mvITgvDSehq5rRIywGx6RLVR98qSDu_YLE3rqiEyxMo7s0Frv2gmdfU_XY-KZeZdxaHmKC-Lgkj286SwoZ0R81lbX-vRGkE1-9nNlqoxA7awm9yyM1NJaIQ5mVabMduX3kUmqwxF5_aFyCCk5_li8pUBh0RwVFqUwKsKrz6NTSMDV4hIrjZZh-fPOGQUfoWowQOr4nx7JQStlUsQx38eXao14tpYqe1ZOwuAOJIHpx64xSBzRjPBMrtWRzNNeFsLRSbhm4CJctvQ5ezGa55q51enesricjhLrmhBI5LlJjNKmrFndCqCCev_rxcyx70-qYdMylWn36UXoFn-j1BSnbcMX0AeRHjAu8d5JKMwM14fFI-cMJiyMOPHYv3ySgLZON89yJTYwMFy4XaqpuBevu11dAbm4uj317JfQUOyTzUgx1-ExT6ESu2ne7zwwefWBj2EGhtLt65jaz_VklsmJVFqwRvfstg8LDHPmaY8rfMqYlXY5X-1cVlaqp0yxUhybQyLUjDC8jY49XEbx_0W00]--></g></svg>