<?xml version="1.0" encoding="us-ascii" standalone="no"?><svg xmlns="http://www.w3.org/2000/svg" xmlns:xlink="http://www.w3.org/1999/xlink" contentStyleType="text/css" height="690px" preserveAspectRatio="none" style="width:1859px;height:690px;background:#FFFFFF;" version="1.1" viewBox="0 0 1859 690" width="1859px" zoomAndPan="magnify"><defs/><g><!--cluster repair_portal--><g id="cluster_repair_portal"><path d="M8.5,6 L109.5,6 A3.75,3.75 0 0 1 112,8.5 L119,28.2969 L1849.5,28.2969 A2.5,2.5 0 0 1 1852,30.7969 L1852,680.5 A2.5,2.5 0 0 1 1849.5,683 L8.5,683 A2.5,2.5 0 0 1 6,680.5 L6,8.5 A2.5,2.5 0 0 1 8.5,6 " fill="none" style="stroke:#000000;stroke-width:1.5;"/><line style="stroke:#000000;stroke-width:1.5;" x1="6" x2="119" y1="28.2969" y2="28.2969"/><text fill="#000000" font-family="sans-serif" font-size="14" font-weight="bold" lengthAdjust="spacing" textLength="100" x="10" y="20.9951">repair_portal</text></g><!--cluster repair--><g id="cluster_repair"><path d="M32.5,49 L80.5,49 A3.75,3.75 0 0 1 83,51.5 L90,71.2969 L1825.5,71.2969 A2.5,2.5 0 0 1 1828,73.7969 L1828,656.5 A2.5,2.5 0 0 1 1825.5,659 L32.5,659 A2.5,2.5 0 0 1 30,656.5 L30,51.5 A2.5,2.5 0 0 1 32.5,49 " fill="none" style="stroke:#000000;stroke-width:1.5;"/><line style="stroke:#000000;stroke-width:1.5;" x1="30" x2="90" y1="71.2969" y2="71.2969"/><text fill="#000000" font-family="sans-serif" font-size="14" font-weight="bold" lengthAdjust="spacing" textLength="47" x="34" y="63.9951">repair</text></g><!--class Technician Utilization--><g id="elem_Technician Utilization"><rect codeLine="2" fill="#F9E79F" height="48" id="Technician Utilization" rx="2.5" ry="2.5" style="stroke:#181818;stroke-width:0.5;" width="177" x="1197.5" y="84"/><ellipse cx="1212.5" cy="100" fill="#ADD1B2" rx="11" ry="11" style="stroke:#181818;stroke-width:1.0;"/><path d="M1216.0156,104.0313 L1216.0156,106.0625 Q1214.5313,106.6719 1212.7031,106.6719 Q1209.9844,106.6719 1208.5313,104.9375 Q1207.0781,103.1875 1207.0781,100.0781 Q1207.0781,97.0781 1208.6563,95.2969 Q1210.2344,93.5 1212.9531,93.5 Q1214.8594,93.5 1216.5938,94.4219 L1215.6406,96.3281 Q1214.1406,95.5469 1212.9531,95.5469 Q1211.3438,95.5469 1210.3594,96.7656 Q1209.3906,97.9688 1209.3906,100.0938 Q1209.3906,102.3438 1210.2969,103.4844 Q1211.2188,104.625 1212.9531,104.625 Q1213.9844,104.625 1216.0156,104.0313 Z " fill="#000000"/><text fill="#000000" font-family="sans-serif" font-size="14" lengthAdjust="spacing" textLength="145" x="1226.5" y="104.8467">Technician Utilization</text><line style="stroke:#181818;stroke-width:0.5;" x1="1198.5" x2="1373.5" y1="116" y2="116"/><line style="stroke:#181818;stroke-width:0.5;" x1="1198.5" x2="1373.5" y1="124" y2="124"/></g><!--class Repair Revenue Vs Cost--><g id="elem_Repair Revenue Vs Cost"><rect codeLine="4" fill="#F9E79F" height="48" id="Repair Revenue Vs Cost" rx="2.5" ry="2.5" style="stroke:#181818;stroke-width:0.5;" width="199" x="1409.5" y="84"/><ellipse cx="1424.5" cy="100" fill="#ADD1B2" rx="11" ry="11" style="stroke:#181818;stroke-width:1.0;"/><path d="M1428.0156,104.0313 L1428.0156,106.0625 Q1426.5313,106.6719 1424.7031,106.6719 Q1421.9844,106.6719 1420.5313,104.9375 Q1419.0781,103.1875 1419.0781,100.0781 Q1419.0781,97.0781 1420.6563,95.2969 Q1422.2344,93.5 1424.9531,93.5 Q1426.8594,93.5 1428.5938,94.4219 L1427.6406,96.3281 Q1426.1406,95.5469 1424.9531,95.5469 Q1423.3438,95.5469 1422.3594,96.7656 Q1421.3906,97.9688 1421.3906,100.0938 Q1421.3906,102.3438 1422.2969,103.4844 Q1423.2188,104.625 1424.9531,104.625 Q1425.9844,104.625 1428.0156,104.0313 Z " fill="#000000"/><text fill="#000000" font-family="sans-serif" font-size="14" lengthAdjust="spacing" textLength="167" x="1438.5" y="104.8467">Repair Revenue Vs Cost</text><line style="stroke:#181818;stroke-width:0.5;" x1="1410.5" x2="1607.5" y1="116" y2="116"/><line style="stroke:#181818;stroke-width:0.5;" x1="1410.5" x2="1607.5" y1="124" y2="124"/></g><!--class Repair Issue Report--><g id="elem_Repair Issue Report"><rect codeLine="6" fill="#F9E79F" height="48" id="Repair Issue Report" rx="2.5" ry="2.5" style="stroke:#181818;stroke-width:0.5;" width="168" x="1644" y="84"/><ellipse cx="1659" cy="100" fill="#ADD1B2" rx="11" ry="11" style="stroke:#181818;stroke-width:1.0;"/><path d="M1662.5156,104.0313 L1662.5156,106.0625 Q1661.0313,106.6719 1659.2031,106.6719 Q1656.4844,106.6719 1655.0313,104.9375 Q1653.5781,103.1875 1653.5781,100.0781 Q1653.5781,97.0781 1655.1563,95.2969 Q1656.7344,93.5 1659.4531,93.5 Q1661.3594,93.5 1663.0938,94.4219 L1662.1406,96.3281 Q1660.6406,95.5469 1659.4531,95.5469 Q1657.8438,95.5469 1656.8594,96.7656 Q1655.8906,97.9688 1655.8906,100.0938 Q1655.8906,102.3438 1656.7969,103.4844 Q1657.7188,104.625 1659.4531,104.625 Q1660.4844,104.625 1662.5156,104.0313 Z " fill="#000000"/><text fill="#000000" font-family="sans-serif" font-size="14" lengthAdjust="spacing" textLength="136" x="1673" y="104.8467">Repair Issue Report</text><line style="stroke:#181818;stroke-width:0.5;" x1="1645" x2="1811" y1="116" y2="116"/><line style="stroke:#181818;stroke-width:0.5;" x1="1645" x2="1811" y1="124" y2="124"/></g><!--class Repairs--><g id="elem_Repairs"><rect codeLine="8" fill="#F9E79F" height="48" id="Repairs" rx="2.5" ry="2.5" style="stroke:#181818;stroke-width:0.5;" width="84" x="1299" y="258"/><ellipse cx="1314" cy="274" fill="#ADD1B2" rx="11" ry="11" style="stroke:#181818;stroke-width:1.0;"/><path d="M1317.5156,278.0313 L1317.5156,280.0625 Q1316.0313,280.6719 1314.2031,280.6719 Q1311.4844,280.6719 1310.0313,278.9375 Q1308.5781,277.1875 1308.5781,274.0781 Q1308.5781,271.0781 1310.1563,269.2969 Q1311.7344,267.5 1314.4531,267.5 Q1316.3594,267.5 1318.0938,268.4219 L1317.1406,270.3281 Q1315.6406,269.5469 1314.4531,269.5469 Q1312.8438,269.5469 1311.8594,270.7656 Q1310.8906,271.9688 1310.8906,274.0938 Q1310.8906,276.3438 1311.7969,277.4844 Q1312.7188,278.625 1314.4531,278.625 Q1315.4844,278.625 1317.5156,278.0313 Z " fill="#000000"/><text fill="#000000" font-family="sans-serif" font-size="14" lengthAdjust="spacing" textLength="52" x="1328" y="278.8467">Repairs</text><line style="stroke:#181818;stroke-width:0.5;" x1="1300" x2="1382" y1="290" y2="290"/><line style="stroke:#181818;stroke-width:0.5;" x1="1300" x2="1382" y1="298" y2="298"/></g><!--class Material Reorder Warning--><g id="elem_Material Reorder Warning"><rect codeLine="10" fill="#F9E79F" height="48" id="Material Reorder Warning" rx="2.5" ry="2.5" style="stroke:#181818;stroke-width:0.5;" width="205" x="1418.5" y="258"/><ellipse cx="1433.5" cy="274" fill="#ADD1B2" rx="11" ry="11" style="stroke:#181818;stroke-width:1.0;"/><path d="M1437.0156,278.0313 L1437.0156,280.0625 Q1435.5313,280.6719 1433.7031,280.6719 Q1430.9844,280.6719 1429.5313,278.9375 Q1428.0781,277.1875 1428.0781,274.0781 Q1428.0781,271.0781 1429.6563,269.2969 Q1431.2344,267.5 1433.9531,267.5 Q1435.8594,267.5 1437.5938,268.4219 L1436.6406,270.3281 Q1435.1406,269.5469 1433.9531,269.5469 Q1432.3438,269.5469 1431.3594,270.7656 Q1430.3906,271.9688 1430.3906,274.0938 Q1430.3906,276.3438 1431.2969,277.4844 Q1432.2188,278.625 1433.9531,278.625 Q1434.9844,278.625 1437.0156,278.0313 Z " fill="#000000"/><text fill="#000000" font-family="sans-serif" font-size="14" lengthAdjust="spacing" textLength="173" x="1447.5" y="278.8467">Material Reorder Warning</text><line style="stroke:#181818;stroke-width:0.5;" x1="1419.5" x2="1622.5" y1="290" y2="290"/><line style="stroke:#181818;stroke-width:0.5;" x1="1419.5" x2="1622.5" y1="298" y2="298"/></g><!--class Repairs By Status--><g id="elem_Repairs By Status"><rect codeLine="12" fill="#F9E79F" height="48" id="Repairs By Status" rx="2.5" ry="2.5" style="stroke:#181818;stroke-width:0.5;" width="153" x="1658.5" y="258"/><ellipse cx="1673.5" cy="274" fill="#ADD1B2" rx="11" ry="11" style="stroke:#181818;stroke-width:1.0;"/><path d="M1677.0156,278.0313 L1677.0156,280.0625 Q1675.5313,280.6719 1673.7031,280.6719 Q1670.9844,280.6719 1669.5313,278.9375 Q1668.0781,277.1875 1668.0781,274.0781 Q1668.0781,271.0781 1669.6563,269.2969 Q1671.2344,267.5 1673.9531,267.5 Q1675.8594,267.5 1677.5938,268.4219 L1676.6406,270.3281 Q1675.1406,269.5469 1673.9531,269.5469 Q1672.3438,269.5469 1671.3594,270.7656 Q1670.3906,271.9688 1670.3906,274.0938 Q1670.3906,276.3438 1671.2969,277.4844 Q1672.2188,278.625 1673.9531,278.625 Q1674.9844,278.625 1677.0156,278.0313 Z " fill="#000000"/><text fill="#000000" font-family="sans-serif" font-size="14" lengthAdjust="spacing" textLength="121" x="1687.5" y="278.8467">Repairs By Status</text><line style="stroke:#181818;stroke-width:0.5;" x1="1659.5" x2="1810.5" y1="290" y2="290"/><line style="stroke:#181818;stroke-width:0.5;" x1="1659.5" x2="1810.5" y1="298" y2="298"/></g><!--class Repair Kpis--><g id="elem_Repair Kpis"><rect codeLine="16" fill="#F9E79F" height="48" id="Repair Kpis" rx="2.5" ry="2.5" style="stroke:#181818;stroke-width:0.5;" width="109" x="1286.5" y="513.5"/><ellipse cx="1301.5" cy="529.5" fill="#ADD1B2" rx="11" ry="11" style="stroke:#181818;stroke-width:1.0;"/><path d="M1305.0156,533.5313 L1305.0156,535.5625 Q1303.5313,536.1719 1301.7031,536.1719 Q1298.9844,536.1719 1297.5313,534.4375 Q1296.0781,532.6875 1296.0781,529.5781 Q1296.0781,526.5781 1297.6563,524.7969 Q1299.2344,523 1301.9531,523 Q1303.8594,523 1305.5938,523.9219 L1304.6406,525.8281 Q1303.1406,525.0469 1301.9531,525.0469 Q1300.3438,525.0469 1299.3594,526.2656 Q1298.3906,527.4688 1298.3906,529.5938 Q1298.3906,531.8438 1299.2969,532.9844 Q1300.2188,534.125 1301.9531,534.125 Q1302.9844,534.125 1305.0156,533.5313 Z " fill="#000000"/><text fill="#000000" font-family="sans-serif" font-size="14" lengthAdjust="spacing" textLength="77" x="1315.5" y="534.3467">Repair Kpis</text><line style="stroke:#181818;stroke-width:0.5;" x1="1287.5" x2="1394.5" y1="545.5" y2="545.5"/><line style="stroke:#181818;stroke-width:0.5;" x1="1287.5" x2="1394.5" y1="553.5" y2="553.5"/></g><!--class Workflow State Mapping--><g id="elem_Workflow State Mapping"><rect fill="#F1F1F1" height="48" id="Workflow State Mapping" rx="2.5" ry="2.5" style="stroke:#181818;stroke-width:0.5;" width="197" x="965.5" y="84"/><ellipse cx="980.5" cy="100" fill="#ADD1B2" rx="11" ry="11" style="stroke:#181818;stroke-width:1.0;"/><path d="M984.0156,104.0313 L984.0156,106.0625 Q982.5313,106.6719 980.7031,106.6719 Q977.9844,106.6719 976.5313,104.9375 Q975.0781,103.1875 975.0781,100.0781 Q975.0781,97.0781 976.6563,95.2969 Q978.2344,93.5 980.9531,93.5 Q982.8594,93.5 984.5938,94.4219 L983.6406,96.3281 Q982.1406,95.5469 980.9531,95.5469 Q979.3438,95.5469 978.3594,96.7656 Q977.3906,97.9688 977.3906,100.0938 Q977.3906,102.3438 978.2969,103.4844 Q979.2188,104.625 980.9531,104.625 Q981.9844,104.625 984.0156,104.0313 Z " fill="#000000"/><text fill="#000000" font-family="sans-serif" font-size="14" lengthAdjust="spacing" textLength="165" x="994.5" y="104.8467">Workflow State Mapping</text><line style="stroke:#181818;stroke-width:0.5;" x1="966.5" x2="1161.5" y1="116" y2="116"/><line style="stroke:#181818;stroke-width:0.5;" x1="966.5" x2="1161.5" y1="124" y2="124"/></g><!--class Repair Order Settings--><g id="elem_Repair Order Settings"><rect codeLine="19" fill="#F9E79F" height="96.8906" id="Repair Order Settings" rx="2.5" ry="2.5" style="stroke:#181818;stroke-width:0.5;" width="227" x="1036.5" y="233.5"/><ellipse cx="1072.65" cy="249.5" fill="#ADD1B2" rx="11" ry="11" style="stroke:#181818;stroke-width:1.0;"/><path d="M1076.1656,253.5313 L1076.1656,255.5625 Q1074.6813,256.1719 1072.8531,256.1719 Q1070.1344,256.1719 1068.6813,254.4375 Q1067.2281,252.6875 1067.2281,249.5781 Q1067.2281,246.5781 1068.8063,244.7969 Q1070.3844,243 1073.1031,243 Q1075.0094,243 1076.7438,243.9219 L1075.7906,245.8281 Q1074.2906,245.0469 1073.1031,245.0469 Q1071.4938,245.0469 1070.5094,246.2656 Q1069.5406,247.4688 1069.5406,249.5938 Q1069.5406,251.8438 1070.4469,252.9844 Q1071.3688,254.125 1073.1031,254.125 Q1074.1344,254.125 1076.1656,253.5313 Z " fill="#000000"/><text fill="#000000" font-family="sans-serif" font-size="14" lengthAdjust="spacing" textLength="148" x="1091.35" y="254.3467">Repair Order Settings</text><line style="stroke:#181818;stroke-width:0.5;" x1="1037.5" x2="1262.5" y1="265.5" y2="265.5"/><text fill="#000000" font-family="sans-serif" font-size="14" lengthAdjust="spacing" textLength="145" x="1042.5" y="282.4951">naming_series : Data</text><text fill="#000000" font-family="sans-serif" font-size="14" lengthAdjust="spacing" textLength="215" x="1042.5" y="298.792">default_workflow_states : Table</text><text fill="#000000" font-family="sans-serif" font-size="14" lengthAdjust="spacing" textLength="88" x="1042.5" y="315.0889">sla_days : Int</text><line style="stroke:#181818;stroke-width:0.5;" x1="1037.5" x2="1262.5" y1="322.3906" y2="322.3906"/></g><!--class Repair Order--><g id="elem_Repair Order"><rect codeLine="49" fill="#F9E79F" height="145.7813" id="Repair Order" rx="2.5" ry="2.5" style="stroke:#181818;stroke-width:0.5;" width="211" x="654.5" y="209"/><ellipse cx="712.25" cy="225" fill="#ADD1B2" rx="11" ry="11" style="stroke:#181818;stroke-width:1.0;"/><path d="M715.7656,229.0313 L715.7656,231.0625 Q714.2813,231.6719 712.4531,231.6719 Q709.7344,231.6719 708.2813,229.9375 Q706.8281,228.1875 706.8281,225.0781 Q706.8281,222.0781 708.4063,220.2969 Q709.9844,218.5 712.7031,218.5 Q714.6094,218.5 716.3438,219.4219 L715.3906,221.3281 Q713.8906,220.5469 712.7031,220.5469 Q711.0938,220.5469 710.1094,221.7656 Q709.1406,222.9688 709.1406,225.0938 Q709.1406,227.3438 710.0469,228.4844 Q710.9688,229.625 712.7031,229.625 Q713.7344,229.625 715.7656,229.0313 Z " fill="#000000"/><text fill="#000000" font-family="sans-serif" font-size="14" lengthAdjust="spacing" textLength="87" x="732.75" y="229.8467">Repair Order</text><line style="stroke:#181818;stroke-width:0.5;" x1="655.5" x2="864.5" y1="241" y2="241"/><text fill="#000000" font-family="sans-serif" font-size="14" lengthAdjust="spacing" textLength="115" x="660.5" y="257.9951">instrument : Link</text><text fill="#000000" font-family="sans-serif" font-size="14" lengthAdjust="spacing" textLength="77" x="660.5" y="274.292">client : Link</text><text fill="#000000" font-family="sans-serif" font-size="14" lengthAdjust="spacing" textLength="99" x="660.5" y="290.5889">status : Select</text><text fill="#000000" font-family="sans-serif" font-size="14" lengthAdjust="spacing" textLength="120" x="660.5" y="306.8857">description : Text</text><text fill="#000000" font-family="sans-serif" font-size="14" lengthAdjust="spacing" textLength="199" x="660.5" y="323.1826">estimated_completion : Date</text><text fill="#000000" font-family="sans-serif" font-size="14" lengthAdjust="spacing" textLength="142" x="660.5" y="339.4795">total_cost : Currency</text><line style="stroke:#181818;stroke-width:0.5;" x1="655.5" x2="864.5" y1="346.7813" y2="346.7813"/></g><!--class Pulse Update--><g id="elem_Pulse Update"><rect codeLine="26" fill="#F9E79F" height="129.4844" id="Pulse Update" rx="2.5" ry="2.5" style="stroke:#181818;stroke-width:0.5;" width="161" x="525.5" y="473"/><ellipse cx="557.15" cy="489" fill="#ADD1B2" rx="11" ry="11" style="stroke:#181818;stroke-width:1.0;"/><path d="M560.6656,493.0313 L560.6656,495.0625 Q559.1813,495.6719 557.3531,495.6719 Q554.6344,495.6719 553.1813,493.9375 Q551.7281,492.1875 551.7281,489.0781 Q551.7281,486.0781 553.3063,484.2969 Q554.8844,482.5 557.6031,482.5 Q559.5094,482.5 561.2438,483.4219 L560.2906,485.3281 Q558.7906,484.5469 557.6031,484.5469 Q555.9938,484.5469 555.0094,485.7656 Q554.0406,486.9688 554.0406,489.0938 Q554.0406,491.3438 554.9469,492.4844 Q555.8688,493.625 557.6031,493.625 Q558.6344,493.625 560.6656,493.0313 Z " fill="#000000"/><text fill="#000000" font-family="sans-serif" font-size="14" lengthAdjust="spacing" textLength="92" x="574.85" y="493.8467">Pulse Update</text><line style="stroke:#181818;stroke-width:0.5;" x1="526.5" x2="685.5" y1="505" y2="505"/><text fill="#000000" font-family="sans-serif" font-size="14" lengthAdjust="spacing" textLength="123" x="531.5" y="521.9951">repair_order : Link</text><text fill="#000000" font-family="sans-serif" font-size="14" lengthAdjust="spacing" textLength="99" x="531.5" y="538.292">status : Select</text><text fill="#000000" font-family="sans-serif" font-size="14" lengthAdjust="spacing" textLength="115" x="531.5" y="554.5889">note : Small Text</text><text fill="#000000" font-family="sans-serif" font-size="14" lengthAdjust="spacing" textLength="149" x="531.5" y="570.8857">timestamp : Datetime</text><text fill="#000000" font-family="sans-serif" font-size="14" lengthAdjust="spacing" textLength="118" x="531.5" y="587.1826">entered_by : Link</text><line style="stroke:#181818;stroke-width:0.5;" x1="526.5" x2="685.5" y1="594.4844" y2="594.4844"/></g><!--class User--><g id="elem_User"><rect fill="#F1F1F1" height="48" id="User" rx="2.5" ry="2.5" style="stroke:#181818;stroke-width:0.5;" width="64" x="555" y="258"/><ellipse cx="570" cy="274" fill="#ADD1B2" rx="11" ry="11" style="stroke:#181818;stroke-width:1.0;"/><path d="M573.5156,278.0313 L573.5156,280.0625 Q572.0313,280.6719 570.2031,280.6719 Q567.4844,280.6719 566.0313,278.9375 Q564.5781,277.1875 564.5781,274.0781 Q564.5781,271.0781 566.1563,269.2969 Q567.7344,267.5 570.4531,267.5 Q572.3594,267.5 574.0938,268.4219 L573.1406,270.3281 Q571.6406,269.5469 570.4531,269.5469 Q568.8438,269.5469 567.8594,270.7656 Q566.8906,271.9688 566.8906,274.0938 Q566.8906,276.3438 567.7969,277.4844 Q568.7188,278.625 570.4531,278.625 Q571.4844,278.625 573.5156,278.0313 Z " fill="#000000"/><text fill="#000000" font-family="sans-serif" font-size="14" lengthAdjust="spacing" textLength="32" x="584" y="278.8467">User</text><line style="stroke:#181818;stroke-width:0.5;" x1="556" x2="618" y1="290" y2="290"/><line style="stroke:#181818;stroke-width:0.5;" x1="556" x2="618" y1="298" y2="298"/></g><!--class Repair Feedback--><g id="elem_Repair Feedback"><rect codeLine="35" fill="#F9E79F" height="113.1875" id="Repair Feedback" rx="2.5" ry="2.5" style="stroke:#181818;stroke-width:0.5;" width="161" x="749.5" y="481"/><ellipse cx="770.35" cy="497" fill="#ADD1B2" rx="11" ry="11" style="stroke:#181818;stroke-width:1.0;"/><path d="M773.8656,501.0313 L773.8656,503.0625 Q772.3813,503.6719 770.5531,503.6719 Q767.8344,503.6719 766.3813,501.9375 Q764.9281,500.1875 764.9281,497.0781 Q764.9281,494.0781 766.5063,492.2969 Q768.0844,490.5 770.8031,490.5 Q772.7094,490.5 774.4438,491.4219 L773.4906,493.3281 Q771.9906,492.5469 770.8031,492.5469 Q769.1938,492.5469 768.2094,493.7656 Q767.2406,494.9688 767.2406,497.0938 Q767.2406,499.3438 768.1469,500.4844 Q769.0688,501.625 770.8031,501.625 Q771.8344,501.625 773.8656,501.0313 Z " fill="#000000"/><text fill="#000000" font-family="sans-serif" font-size="14" lengthAdjust="spacing" textLength="116" x="785.65" y="501.8467">Repair Feedback</text><line style="stroke:#181818;stroke-width:0.5;" x1="750.5" x2="909.5" y1="513" y2="513"/><text fill="#000000" font-family="sans-serif" font-size="14" lengthAdjust="spacing" textLength="123" x="755.5" y="529.9951">repair_order : Link</text><text fill="#000000" font-family="sans-serif" font-size="14" lengthAdjust="spacing" textLength="106" x="755.5" y="546.292">customer : Link</text><text fill="#000000" font-family="sans-serif" font-size="14" lengthAdjust="spacing" textLength="95" x="755.5" y="562.5889">rating : Select</text><text fill="#000000" font-family="sans-serif" font-size="14" lengthAdjust="spacing" textLength="149" x="755.5" y="578.8857">comment : Small Text</text><line style="stroke:#181818;stroke-width:0.5;" x1="750.5" x2="909.5" y1="586.1875" y2="586.1875"/></g><!--class Customer--><g id="elem_Customer"><rect fill="#F1F1F1" height="48" id="Customer" rx="2.5" ry="2.5" style="stroke:#181818;stroke-width:0.5;" width="100" x="901" y="258"/><ellipse cx="916" cy="274" fill="#ADD1B2" rx="11" ry="11" style="stroke:#181818;stroke-width:1.0;"/><path d="M919.5156,278.0313 L919.5156,280.0625 Q918.0313,280.6719 916.2031,280.6719 Q913.4844,280.6719 912.0313,278.9375 Q910.5781,277.1875 910.5781,274.0781 Q910.5781,271.0781 912.1563,269.2969 Q913.7344,267.5 916.4531,267.5 Q918.3594,267.5 920.0938,268.4219 L919.1406,270.3281 Q917.6406,269.5469 916.4531,269.5469 Q914.8438,269.5469 913.8594,270.7656 Q912.8906,271.9688 912.8906,274.0938 Q912.8906,276.3438 913.7969,277.4844 Q914.7188,278.625 916.4531,278.625 Q917.4844,278.625 919.5156,278.0313 Z " fill="#000000"/><text fill="#000000" font-family="sans-serif" font-size="14" lengthAdjust="spacing" textLength="68" x="930" y="278.8467">Customer</text><line style="stroke:#181818;stroke-width:0.5;" x1="902" x2="1000" y1="290" y2="290"/><line style="stroke:#181818;stroke-width:0.5;" x1="902" x2="1000" y1="298" y2="298"/></g><!--class Repair Issue--><g id="elem_Repair Issue"><rect codeLine="42" fill="#F9E79F" height="96.8906" id="Repair Issue" rx="2.5" ry="2.5" style="stroke:#181818;stroke-width:0.5;" width="176" x="956" y="489"/><ellipse cx="997.55" cy="505" fill="#ADD1B2" rx="11" ry="11" style="stroke:#181818;stroke-width:1.0;"/><path d="M1001.0656,509.0313 L1001.0656,511.0625 Q999.5813,511.6719 997.7531,511.6719 Q995.0344,511.6719 993.5813,509.9375 Q992.1281,508.1875 992.1281,505.0781 Q992.1281,502.0781 993.7063,500.2969 Q995.2844,498.5 998.0031,498.5 Q999.9094,498.5 1001.6438,499.4219 L1000.6906,501.3281 Q999.1906,500.5469 998.0031,500.5469 Q996.3938,500.5469 995.4094,501.7656 Q994.4406,502.9688 994.4406,505.0938 Q994.4406,507.3438 995.3469,508.4844 Q996.2688,509.625 998.0031,509.625 Q999.0344,509.625 1001.0656,509.0313 Z " fill="#000000"/><text fill="#000000" font-family="sans-serif" font-size="14" lengthAdjust="spacing" textLength="85" x="1017.45" y="509.8467">Repair Issue</text><line style="stroke:#181818;stroke-width:0.5;" x1="957" x2="1131" y1="521" y2="521"/><text fill="#000000" font-family="sans-serif" font-size="14" lengthAdjust="spacing" textLength="106" x="962" y="537.9951">customer : Link</text><text fill="#000000" font-family="sans-serif" font-size="14" lengthAdjust="spacing" textLength="164" x="962" y="554.292">issue_description : Text</text><text fill="#000000" font-family="sans-serif" font-size="14" lengthAdjust="spacing" textLength="99" x="962" y="570.5889">status : Select</text><line style="stroke:#181818;stroke-width:0.5;" x1="957" x2="1131" y1="577.8906" y2="577.8906"/></g><!--class Instrument Profile--><g id="elem_Instrument Profile"><rect fill="#F1F1F1" height="48" id="Instrument Profile" rx="2.5" ry="2.5" style="stroke:#181818;stroke-width:0.5;" width="153" x="753.5" y="84"/><ellipse cx="768.5" cy="100" fill="#ADD1B2" rx="11" ry="11" style="stroke:#181818;stroke-width:1.0;"/><path d="M772.0156,104.0313 L772.0156,106.0625 Q770.5313,106.6719 768.7031,106.6719 Q765.9844,106.6719 764.5313,104.9375 Q763.0781,103.1875 763.0781,100.0781 Q763.0781,97.0781 764.6563,95.2969 Q766.2344,93.5 768.9531,93.5 Q770.8594,93.5 772.5938,94.4219 L771.6406,96.3281 Q770.1406,95.5469 768.9531,95.5469 Q767.3438,95.5469 766.3594,96.7656 Q765.3906,97.9688 765.3906,100.0938 Q765.3906,102.3438 766.2969,103.4844 Q767.2188,104.625 768.9531,104.625 Q769.9844,104.625 772.0156,104.0313 Z " fill="#000000"/><text fill="#000000" font-family="sans-serif" font-size="14" lengthAdjust="spacing" textLength="121" x="782.5" y="104.8467">Instrument Profile</text><line style="stroke:#181818;stroke-width:0.5;" x1="754.5" x2="905.5" y1="116" y2="116"/><line style="stroke:#181818;stroke-width:0.5;" x1="754.5" x2="905.5" y1="124" y2="124"/></g><!--class Client Profile--><g id="elem_Client Profile"><rect fill="#F1F1F1" height="48" id="Client Profile" rx="2.5" ry="2.5" style="stroke:#181818;stroke-width:0.5;" width="117" x="601.5" y="84"/><ellipse cx="616.5" cy="100" fill="#ADD1B2" rx="11" ry="11" style="stroke:#181818;stroke-width:1.0;"/><path d="M620.0156,104.0313 L620.0156,106.0625 Q618.5313,106.6719 616.7031,106.6719 Q613.9844,106.6719 612.5313,104.9375 Q611.0781,103.1875 611.0781,100.0781 Q611.0781,97.0781 612.6563,95.2969 Q614.2344,93.5 616.9531,93.5 Q618.8594,93.5 620.5938,94.4219 L619.6406,96.3281 Q618.1406,95.5469 616.9531,95.5469 Q615.3438,95.5469 614.3594,96.7656 Q613.3906,97.9688 613.3906,100.0938 Q613.3906,102.3438 614.2969,103.4844 Q615.2188,104.625 616.9531,104.625 Q617.9844,104.625 620.0156,104.0313 Z " fill="#000000"/><text fill="#000000" font-family="sans-serif" font-size="14" lengthAdjust="spacing" textLength="85" x="630.5" y="104.8467">Client Profile</text><line style="stroke:#181818;stroke-width:0.5;" x1="602.5" x2="717.5" y1="116" y2="116"/><line style="stroke:#181818;stroke-width:0.5;" x1="602.5" x2="717.5" y1="124" y2="124"/></g><!--class Service Task--><g id="elem_Service Task"><rect fill="#F1F1F1" height="48" id="Service Task" rx="2.5" ry="2.5" style="stroke:#181818;stroke-width:0.5;" width="119" x="400.5" y="258"/><ellipse cx="415.5" cy="274" fill="#ADD1B2" rx="11" ry="11" style="stroke:#181818;stroke-width:1.0;"/><path d="M419.0156,278.0313 L419.0156,280.0625 Q417.5313,280.6719 415.7031,280.6719 Q412.9844,280.6719 411.5313,278.9375 Q410.0781,277.1875 410.0781,274.0781 Q410.0781,271.0781 411.6563,269.2969 Q413.2344,267.5 415.9531,267.5 Q417.8594,267.5 419.5938,268.4219 L418.6406,270.3281 Q417.1406,269.5469 415.9531,269.5469 Q414.3438,269.5469 413.3594,270.7656 Q412.3906,271.9688 412.3906,274.0938 Q412.3906,276.3438 413.2969,277.4844 Q414.2188,278.625 415.9531,278.625 Q416.9844,278.625 419.0156,278.0313 Z " fill="#000000"/><text fill="#000000" font-family="sans-serif" font-size="14" lengthAdjust="spacing" textLength="87" x="429.5" y="278.8467">Service Task</text><line style="stroke:#181818;stroke-width:0.5;" x1="401.5" x2="518.5" y1="290" y2="290"/><line style="stroke:#181818;stroke-width:0.5;" x1="401.5" x2="518.5" y1="298" y2="298"/></g><!--class Repair Task--><g id="elem_Repair Task"><rect codeLine="61" fill="#F9E79F" height="210.9688" id="Repair Task" rx="2.5" ry="2.5" style="stroke:#181818;stroke-width:0.5;" width="159" x="250.5" y="432"/><ellipse cx="286.2" cy="448" fill="#ADD1B2" rx="11" ry="11" style="stroke:#181818;stroke-width:1.0;"/><path d="M289.7156,452.0313 L289.7156,454.0625 Q288.2313,454.6719 286.4031,454.6719 Q283.6844,454.6719 282.2313,452.9375 Q280.7781,451.1875 280.7781,448.0781 Q280.7781,445.0781 282.3563,443.2969 Q283.9344,441.5 286.6531,441.5 Q288.5594,441.5 290.2938,442.4219 L289.3406,444.3281 Q287.8406,443.5469 286.6531,443.5469 Q285.0438,443.5469 284.0594,444.7656 Q283.0906,445.9688 283.0906,448.0938 Q283.0906,450.3438 283.9969,451.4844 Q284.9188,452.625 286.6531,452.625 Q287.6844,452.625 289.7156,452.0313 Z " fill="#000000"/><text fill="#000000" font-family="sans-serif" font-size="14" lengthAdjust="spacing" textLength="81" x="304.8" y="452.8467">Repair Task</text><line style="stroke:#181818;stroke-width:0.5;" x1="251.5" x2="408.5" y1="464" y2="464"/><text fill="#000000" font-family="sans-serif" font-size="14" lengthAdjust="spacing" textLength="106" x="256.5" y="480.9951">task_type : Link</text><text fill="#000000" font-family="sans-serif" font-size="14" lengthAdjust="spacing" textLength="120" x="256.5" y="497.292">description : Text</text><text fill="#000000" font-family="sans-serif" font-size="14" lengthAdjust="spacing" textLength="111" x="256.5" y="513.5889">technician : Link</text><text fill="#000000" font-family="sans-serif" font-size="14" lengthAdjust="spacing" textLength="115" x="256.5" y="529.8857">est_hours : Float</text><text fill="#000000" font-family="sans-serif" font-size="14" lengthAdjust="spacing" textLength="134" x="256.5" y="546.1826">actual_hours : Float</text><text fill="#000000" font-family="sans-serif" font-size="14" lengthAdjust="spacing" textLength="147" x="256.5" y="562.4795">parts_cost : Currency</text><text fill="#000000" font-family="sans-serif" font-size="14" lengthAdjust="spacing" textLength="99" x="256.5" y="578.7764">status : Select</text><text fill="#000000" font-family="sans-serif" font-size="14" lengthAdjust="spacing" textLength="61" x="256.5" y="595.0732">log : Link</text><text fill="#000000" font-family="sans-serif" font-size="14" lengthAdjust="spacing" textLength="101" x="256.5" y="611.3701">images : Table</text><text fill="#000000" font-family="sans-serif" font-size="14" lengthAdjust="spacing" textLength="139" x="256.5" y="627.667">remarks : Small Text</text><line style="stroke:#181818;stroke-width:0.5;" x1="251.5" x2="408.5" y1="634.9688" y2="634.9688"/></g><!--class Repair Task Log--><g id="elem_Repair Task Log"><rect fill="#F1F1F1" height="48" id="Repair Task Log" rx="2.5" ry="2.5" style="stroke:#181818;stroke-width:0.5;" width="142" x="223" y="258"/><ellipse cx="238" cy="274" fill="#ADD1B2" rx="11" ry="11" style="stroke:#181818;stroke-width:1.0;"/><path d="M241.5156,278.0313 L241.5156,280.0625 Q240.0313,280.6719 238.2031,280.6719 Q235.4844,280.6719 234.0313,278.9375 Q232.5781,277.1875 232.5781,274.0781 Q232.5781,271.0781 234.1563,269.2969 Q235.7344,267.5 238.4531,267.5 Q240.3594,267.5 242.0938,268.4219 L241.1406,270.3281 Q239.6406,269.5469 238.4531,269.5469 Q236.8438,269.5469 235.8594,270.7656 Q234.8906,271.9688 234.8906,274.0938 Q234.8906,276.3438 235.7969,277.4844 Q236.7188,278.625 238.4531,278.625 Q239.4844,278.625 241.5156,278.0313 Z " fill="#000000"/><text fill="#000000" font-family="sans-serif" font-size="14" lengthAdjust="spacing" textLength="110" x="252" y="278.8467">Repair Task Log</text><line style="stroke:#181818;stroke-width:0.5;" x1="224" x2="364" y1="290" y2="290"/><line style="stroke:#181818;stroke-width:0.5;" x1="224" x2="364" y1="298" y2="298"/></g><!--class Image Log Entry--><g id="elem_Image Log Entry"><rect fill="#F1F1F1" height="48" id="Image Log Entry" rx="2.5" ry="2.5" style="stroke:#181818;stroke-width:0.5;" width="142" x="46" y="258"/><ellipse cx="61" cy="274" fill="#ADD1B2" rx="11" ry="11" style="stroke:#181818;stroke-width:1.0;"/><path d="M64.5156,278.0313 L64.5156,280.0625 Q63.0313,280.6719 61.2031,280.6719 Q58.4844,280.6719 57.0313,278.9375 Q55.5781,277.1875 55.5781,274.0781 Q55.5781,271.0781 57.1563,269.2969 Q58.7344,267.5 61.4531,267.5 Q63.3594,267.5 65.0938,268.4219 L64.1406,270.3281 Q62.6406,269.5469 61.4531,269.5469 Q59.8438,269.5469 58.8594,270.7656 Q57.8906,271.9688 57.8906,274.0938 Q57.8906,276.3438 58.7969,277.4844 Q59.7188,278.625 61.4531,278.625 Q62.4844,278.625 64.5156,278.0313 Z " fill="#000000"/><text fill="#000000" font-family="sans-serif" font-size="14" lengthAdjust="spacing" textLength="110" x="75" y="278.8467">Image Log Entry</text><line style="stroke:#181818;stroke-width:0.5;" x1="47" x2="187" y1="290" y2="290"/><line style="stroke:#181818;stroke-width:0.5;" x1="47" x2="187" y1="298" y2="298"/></g><!--reverse link Workflow State Mapping to Repair Order Settings--><g id="link_Workflow State Mapping_Repair Order Settings"><path codeLine="18" d="M1081.49,143.98 C1094.34,169.68 1111.95,204.9 1126.1,233.2 " fill="none" id="Workflow State Mapping-backto-Repair Order Settings" style="stroke:#181818;stroke-width:1.0;"/><polygon fill="#181818" points="1075.6,132.2,1074.7056,139.3554,1080.9666,142.9331,1081.861,135.7777,1075.6,132.2" style="stroke:#181818;stroke-width:1.0;"/><text fill="#000000" font-family="sans-serif" font-size="13" lengthAdjust="spacing" textLength="151" x="1097" y="175.0669">default_workflow_states</text></g><!--reverse link Repair Order to Pulse Update--><g id="link_Repair Order_Pulse Update"><path codeLine="24" d="M709.09,366.8 C688.13,401.31 664.24,440.63 644.74,472.73 " fill="none" id="Repair Order-backto-Pulse Update" style="stroke:#181818;stroke-width:1.0;"/><polygon fill="#181818" points="716.08,355.3,709.5434,358.3451,709.8402,365.5501,716.3768,362.505,716.08,355.3" style="stroke:#181818;stroke-width:1.0;"/><text fill="#000000" font-family="sans-serif" font-size="13" lengthAdjust="spacing" textLength="78" x="697" y="398.0669">repair_order</text></g><!--reverse link User to Pulse Update--><g id="link_User_Pulse Update"><path codeLine="25" d="M585.67,319.29 C585.03,338.77 584.32,363.19 584,385 C583.89,392.55 583.39,394.47 584,402 C585.89,425.23 589.58,450.5 593.41,472.79 " fill="none" id="User-backto-Pulse Update" style="stroke:#181818;stroke-width:1.0;"/><polygon fill="#181818" points="586.13,306.09,581.9216,311.9457,585.7083,318.0826,589.9167,312.2269,586.13,306.09" style="stroke:#181818;stroke-width:1.0;"/><text fill="#000000" font-family="sans-serif" font-size="13" lengthAdjust="spacing" textLength="72" x="585" y="398.0669">entered_by</text></g><!--reverse link Repair Order to Repair Feedback--><g id="link_Repair Order_Repair Feedback"><path codeLine="33" d="M783.52,368.17 C793.75,405.24 805.46,447.65 814.57,480.62 " fill="none" id="Repair Order-backto-Repair Feedback" style="stroke:#181818;stroke-width:1.0;"/><polygon fill="#181818" points="779.97,355.3,777.7174,362.1502,783.1742,366.8643,785.4269,360.0141,779.97,355.3" style="stroke:#181818;stroke-width:1.0;"/><text fill="#000000" font-family="sans-serif" font-size="13" lengthAdjust="spacing" textLength="78" x="791" y="398.0669">repair_order</text></g><!--reverse link Customer to Repair Feedback--><g id="link_Customer_Repair Feedback"><path codeLine="34" d="M934.19,318.22 C914.11,360.29 880.26,431.2 856.61,480.75 " fill="none" id="Customer-backto-Repair Feedback" style="stroke:#181818;stroke-width:1.0;"/><polygon fill="#181818" points="939.83,306.39,933.6351,310.081,934.6595,317.219,940.8544,313.528,939.83,306.39" style="stroke:#181818;stroke-width:1.0;"/><text fill="#000000" font-family="sans-serif" font-size="13" lengthAdjust="spacing" textLength="61" x="902" y="398.0669">customer</text></g><!--reverse link Customer to Repair Issue--><g id="link_Customer_Repair Issue"><path codeLine="41" d="M971.83,317.42 C982.86,336.76 995.95,361.63 1005,385 C1018.09,418.81 1028.14,458.56 1034.75,488.86 " fill="none" id="Customer-backto-Repair Issue" style="stroke:#181818;stroke-width:1.0;"/><polygon fill="#181818" points="965.29,306.16,964.8479,313.3575,971.3217,316.534,971.7638,309.3364,965.29,306.16" style="stroke:#181818;stroke-width:1.0;"/><text fill="#000000" font-family="sans-serif" font-size="13" lengthAdjust="spacing" textLength="61" x="1011" y="398.0669">customer</text></g><!--reverse link Instrument Profile to Repair Order--><g id="link_Instrument Profile_Repair Order"><path codeLine="47" d="M815.55,144.5 C807.98,163.09 798.43,186.57 789.39,208.78 " fill="none" id="Instrument Profile-backto-Repair Order" style="stroke:#181818;stroke-width:1.0;"/><polygon fill="#181818" points="820.56,132.2,814.5937,136.2501,816.0375,143.3152,822.0038,139.2651,820.56,132.2" style="stroke:#181818;stroke-width:1.0;"/><text fill="#000000" font-family="sans-serif" font-size="13" lengthAdjust="spacing" textLength="70" x="808" y="175.0669">instrument</text></g><!--reverse link Client Profile to Repair Order--><g id="link_Client Profile_Repair Order"><path codeLine="48" d="M680.17,143.69 C691.05,162.41 704.91,186.24 718.01,208.78 " fill="none" id="Client Profile-backto-Repair Order" style="stroke:#181818;stroke-width:1.0;"/><polygon fill="#181818" points="673.49,132.2,673.0479,139.3975,679.5217,142.574,679.9638,135.3764,673.49,132.2" style="stroke:#181818;stroke-width:1.0;"/><text fill="#000000" font-family="sans-serif" font-size="13" lengthAdjust="spacing" textLength="34" x="699" y="175.0669">client</text></g><!--reverse link Service Task to Repair Task--><g id="link_Service Task_Repair Task"><path codeLine="57" d="M423.09,315.43 C404.05,334.03 381.95,358.84 368,385 C360.28,399.48 354.09,415.57 349.13,431.71 " fill="none" id="Service Task-backto-Repair Task" style="stroke:#181818;stroke-width:1.0;"/><polygon fill="#181818" points="432.71,306.3,425.605,307.5325,424.01,314.565,431.115,313.3325,432.71,306.3" style="stroke:#181818;stroke-width:1.0;"/><text fill="#000000" font-family="sans-serif" font-size="13" lengthAdjust="spacing" textLength="62" x="369" y="398.0669">task_type</text></g><!--reverse link User to Repair Task--><g id="link_User_Repair Task"><path codeLine="58" d="M565.86,317.03 C557.49,329.48 547.4,343.35 537,355 C515.35,379.24 458.28,428.95 409.54,470.23 " fill="none" id="User-backto-Repair Task" style="stroke:#181818;stroke-width:1.0;"/><polygon fill="#181818" points="573.01,306.11,566.3766,308.9381,566.4359,316.149,573.0693,313.3209,573.01,306.11" style="stroke:#181818;stroke-width:1.0;"/><text fill="#000000" font-family="sans-serif" font-size="13" lengthAdjust="spacing" textLength="65" x="505" y="398.0669">technician</text></g><!--reverse link Repair Task Log to Repair Task--><g id="link_Repair Task Log_Repair Task"><path codeLine="59" d="M292.89,319.64 C292.68,343.25 293.33,374.56 297,402 C298.31,411.77 300.04,421.86 302.03,431.92 " fill="none" id="Repair Task Log-backto-Repair Task" style="stroke:#181818;stroke-width:1.0;"/><polygon fill="#181818" points="293.11,306.38,289.0117,312.3133,292.9122,318.3784,297.0106,312.4451,293.11,306.38" style="stroke:#181818;stroke-width:1.0;"/><text fill="#000000" font-family="sans-serif" font-size="13" lengthAdjust="spacing" textLength="19" x="298" y="398.0669">log</text></g><!--reverse link Image Log Entry to Repair Task--><g id="link_Image Log Entry_Repair Task"><path codeLine="60" d="M145.14,316.49 C171.91,348.35 213.47,397.81 250.4,441.77 " fill="none" id="Image Log Entry-backto-Repair Task" style="stroke:#181818;stroke-width:1.0;"/><polygon fill="#181818" points="136.66,306.39,137.4585,313.5568,144.3811,315.5761,143.5826,308.4094,136.66,306.39" style="stroke:#181818;stroke-width:1.0;"/><text fill="#000000" font-family="sans-serif" font-size="13" lengthAdjust="spacing" textLength="47" x="211" y="398.0669">images</text></g><!--SRC=[bLHDRzim3BtdLmZPRK1t7LeKFInhW60jLZJ9UZGOcKc5o98Woksy8VzzbEt47t5Sx6I8VAJUUwJiGEvXXyAZ0-KJPtq0_QKwYTlRkTKf-hixyNSYDH29wGhbgr5IWH7heBJw0q5PCnMVvjVtNw_d33mSeSzLbsTyGvEZ-4LYPYcCGHT43EG3qnZ1qM3k4G9w1PhhhMVMuWMyKMOtraXyAyGoGCXfZDOFf_upFtsnVh_LzhtiZk8Hd2kfVBwwEfNzB5akCGHESOCRaU8MSXsIzxeweLXDlUlwTSt5GXZ8E9WGEu747Rz300vVQCo05MmqCe8q92aKCRGm8KfetrOJVyereLYxb8iZttfhIhidqpLT1ABXsM2QR8gZbYwYBQ7Tb4iVbDb7VkMK-Bn4ZJ94gPQDvNC6MeiL_ewne39aPEOgwHZF76wkFpOSrbU7veZfXX_6kSHPJi5cOtXP8tepQo0VIpssQ28UugZRugNDCbRLrN-uHB1yLoFiwdoRsZa95K59YYIzSl7Hn-sfREyFXuai30MVbnoVlDqgZGFB7ocf4v3PQ_LnWIn1Gs-Ygw1ftBAskc1agmRryKwfZDSfJTXtfx7EnWsBIsVvdyaPYerdkVTeP14zMA9_KnBvZT6-AwQAt8Z0toGK3Zklfmyw_N8dxPHuiBlX0crtF80i_jSP8-vDyCKmKaLG__zI9TjMdcWspWtwr31jWEnTycfp7rsUQmiH1pBaR5a_xC07EZDoQ4giiBMOfOZMlynZ1dvF_STn-0S0]--></g></svg>