<?xml version="1.0" encoding="us-ascii" standalone="no"?><svg xmlns="http://www.w3.org/2000/svg" xmlns:xlink="http://www.w3.org/1999/xlink" contentStyleType="text/css" height="1092px" preserveAspectRatio="none" style="width:2242px;height:1092px;background:#FFFFFF;" version="1.1" viewBox="0 0 2242 1092" width="2242px" zoomAndPan="magnify"><defs/><g><!--cluster repair_portal--><g id="cluster_repair_portal"><path d="M8.5,6 L109.5,6 A3.75,3.75 0 0 1 112,8.5 L119,28.2969 L2232.5,28.2969 A2.5,2.5 0 0 1 2235,30.7969 L2235,1082.5 A2.5,2.5 0 0 1 2232.5,1085 L8.5,1085 A2.5,2.5 0 0 1 6,1082.5 L6,8.5 A2.5,2.5 0 0 1 8.5,6 " fill="none" style="stroke:#000000;stroke-width:1.5;"/><line style="stroke:#000000;stroke-width:1.5;" x1="6" x2="119" y1="28.2969" y2="28.2969"/><text fill="#000000" font-family="sans-serif" font-size="14" font-weight="bold" lengthAdjust="spacing" textLength="100" x="10" y="20.9951">repair_portal</text></g><!--cluster instrument_setup--><g id="cluster_instrument_setup"><path d="M32.5,49 L171.5,49 A3.75,3.75 0 0 1 174,51.5 L181,71.2969 L2208.5,71.2969 A2.5,2.5 0 0 1 2211,73.7969 L2211,1058.5 A2.5,2.5 0 0 1 2208.5,1061 L32.5,1061 A2.5,2.5 0 0 1 30,1058.5 L30,51.5 A2.5,2.5 0 0 1 32.5,49 " fill="none" style="stroke:#000000;stroke-width:1.5;"/><line style="stroke:#000000;stroke-width:1.5;" x1="30" x2="181" y1="71.2969" y2="71.2969"/><text fill="#000000" font-family="sans-serif" font-size="14" font-weight="bold" lengthAdjust="spacing" textLength="138" x="34" y="63.9951">instrument_setup</text></g><!--class Turnaround Time Analysis--><g id="elem_Turnaround Time Analysis"><rect codeLine="2" fill="#F9E79F" height="48" id="Turnaround Time Analysis" rx="2.5" ry="2.5" style="stroke:#181818;stroke-width:0.5;" width="210" x="1551" y="124.5"/><ellipse cx="1566" cy="140.5" fill="#ADD1B2" rx="11" ry="11" style="stroke:#181818;stroke-width:1.0;"/><path d="M1569.5156,144.5313 L1569.5156,146.5625 Q1568.0313,147.1719 1566.2031,147.1719 Q1563.4844,147.1719 1562.0313,145.4375 Q1560.5781,143.6875 1560.5781,140.5781 Q1560.5781,137.5781 1562.1563,135.7969 Q1563.7344,134 1566.4531,134 Q1568.3594,134 1570.0938,134.9219 L1569.1406,136.8281 Q1567.6406,136.0469 1566.4531,136.0469 Q1564.8438,136.0469 1563.8594,137.2656 Q1562.8906,138.4688 1562.8906,140.5938 Q1562.8906,142.8438 1563.7969,143.9844 Q1564.7188,145.125 1566.4531,145.125 Q1567.4844,145.125 1569.5156,144.5313 Z " fill="#000000"/><text fill="#000000" font-family="sans-serif" font-size="14" lengthAdjust="spacing" textLength="178" x="1580" y="145.3467">Turnaround Time Analysis</text><line style="stroke:#181818;stroke-width:0.5;" x1="1552" x2="1760" y1="156.5" y2="156.5"/><line style="stroke:#181818;stroke-width:0.5;" x1="1552" x2="1760" y1="164.5" y2="164.5"/></g><!--class Technician Performance--><g id="elem_Technician Performance"><rect codeLine="4" fill="#F9E79F" height="48" id="Technician Performance" rx="2.5" ry="2.5" style="stroke:#181818;stroke-width:0.5;" width="199" x="1796.5" y="124.5"/><ellipse cx="1811.5" cy="140.5" fill="#ADD1B2" rx="11" ry="11" style="stroke:#181818;stroke-width:1.0;"/><path d="M1815.0156,144.5313 L1815.0156,146.5625 Q1813.5313,147.1719 1811.7031,147.1719 Q1808.9844,147.1719 1807.5313,145.4375 Q1806.0781,143.6875 1806.0781,140.5781 Q1806.0781,137.5781 1807.6563,135.7969 Q1809.2344,134 1811.9531,134 Q1813.8594,134 1815.5938,134.9219 L1814.6406,136.8281 Q1813.1406,136.0469 1811.9531,136.0469 Q1810.3438,136.0469 1809.3594,137.2656 Q1808.3906,138.4688 1808.3906,140.5938 Q1808.3906,142.8438 1809.2969,143.9844 Q1810.2188,145.125 1811.9531,145.125 Q1812.9844,145.125 1815.0156,144.5313 Z " fill="#000000"/><text fill="#000000" font-family="sans-serif" font-size="14" lengthAdjust="spacing" textLength="167" x="1825.5" y="145.3467">Technician Performance</text><line style="stroke:#181818;stroke-width:0.5;" x1="1797.5" x2="1994.5" y1="156.5" y2="156.5"/><line style="stroke:#181818;stroke-width:0.5;" x1="1797.5" x2="1994.5" y1="164.5" y2="164.5"/></g><!--class Parts Consumption--><g id="elem_Parts Consumption"><rect codeLine="6" fill="#F9E79F" height="48" id="Parts Consumption" rx="2.5" ry="2.5" style="stroke:#181818;stroke-width:0.5;" width="164" x="2031" y="124.5"/><ellipse cx="2046" cy="140.5" fill="#ADD1B2" rx="11" ry="11" style="stroke:#181818;stroke-width:1.0;"/><path d="M2049.5156,144.5313 L2049.5156,146.5625 Q2048.0313,147.1719 2046.2031,147.1719 Q2043.4844,147.1719 2042.0313,145.4375 Q2040.5781,143.6875 2040.5781,140.5781 Q2040.5781,137.5781 2042.1563,135.7969 Q2043.7344,134 2046.4531,134 Q2048.3594,134 2050.0938,134.9219 L2049.1406,136.8281 Q2047.6406,136.0469 2046.4531,136.0469 Q2044.8438,136.0469 2043.8594,137.2656 Q2042.8906,138.4688 2042.8906,140.5938 Q2042.8906,142.8438 2043.7969,143.9844 Q2044.7188,145.125 2046.4531,145.125 Q2047.4844,145.125 2049.5156,144.5313 Z " fill="#000000"/><text fill="#000000" font-family="sans-serif" font-size="14" lengthAdjust="spacing" textLength="132" x="2060" y="145.3467">Parts Consumption</text><line style="stroke:#181818;stroke-width:0.5;" x1="2032" x2="2194" y1="156.5" y2="156.5"/><line style="stroke:#181818;stroke-width:0.5;" x1="2032" x2="2194" y1="164.5" y2="164.5"/></g><!--class Repair Status--><g id="elem_Repair Status"><rect codeLine="8" fill="#F9E79F" height="48" id="Repair Status" rx="2.5" ry="2.5" style="stroke:#181818;stroke-width:0.5;" width="124" x="1615" y="339"/><ellipse cx="1630" cy="355" fill="#ADD1B2" rx="11" ry="11" style="stroke:#181818;stroke-width:1.0;"/><path d="M1633.5156,359.0313 L1633.5156,361.0625 Q1632.0313,361.6719 1630.2031,361.6719 Q1627.4844,361.6719 1626.0313,359.9375 Q1624.5781,358.1875 1624.5781,355.0781 Q1624.5781,352.0781 1626.1563,350.2969 Q1627.7344,348.5 1630.4531,348.5 Q1632.3594,348.5 1634.0938,349.4219 L1633.1406,351.3281 Q1631.6406,350.5469 1630.4531,350.5469 Q1628.8438,350.5469 1627.8594,351.7656 Q1626.8906,352.9688 1626.8906,355.0938 Q1626.8906,357.3438 1627.7969,358.4844 Q1628.7188,359.625 1630.4531,359.625 Q1631.4844,359.625 1633.5156,359.0313 Z " fill="#000000"/><text fill="#000000" font-family="sans-serif" font-size="14" lengthAdjust="spacing" textLength="92" x="1644" y="359.8467">Repair Status</text><line style="stroke:#181818;stroke-width:0.5;" x1="1616" x2="1738" y1="371" y2="371"/><line style="stroke:#181818;stroke-width:0.5;" x1="1616" x2="1738" y1="379" y2="379"/></g><!--class Repairs By Status--><g id="elem_Repairs By Status"><rect codeLine="10" fill="#F9E79F" height="48" id="Repairs By Status" rx="2.5" ry="2.5" style="stroke:#181818;stroke-width:0.5;" width="153" x="1774.5" y="339"/><ellipse cx="1789.5" cy="355" fill="#ADD1B2" rx="11" ry="11" style="stroke:#181818;stroke-width:1.0;"/><path d="M1793.0156,359.0313 L1793.0156,361.0625 Q1791.5313,361.6719 1789.7031,361.6719 Q1786.9844,361.6719 1785.5313,359.9375 Q1784.0781,358.1875 1784.0781,355.0781 Q1784.0781,352.0781 1785.6563,350.2969 Q1787.2344,348.5 1789.9531,348.5 Q1791.8594,348.5 1793.5938,349.4219 L1792.6406,351.3281 Q1791.1406,350.5469 1789.9531,350.5469 Q1788.3438,350.5469 1787.3594,351.7656 Q1786.3906,352.9688 1786.3906,355.0938 Q1786.3906,357.3438 1787.2969,358.4844 Q1788.2188,359.625 1789.9531,359.625 Q1790.9844,359.625 1793.0156,359.0313 Z " fill="#000000"/><text fill="#000000" font-family="sans-serif" font-size="14" lengthAdjust="spacing" textLength="121" x="1803.5" y="359.8467">Repairs By Status</text><line style="stroke:#181818;stroke-width:0.5;" x1="1775.5" x2="1926.5" y1="371" y2="371"/><line style="stroke:#181818;stroke-width:0.5;" x1="1775.5" x2="1926.5" y1="379" y2="379"/></g><!--class Common Inspection Findings--><g id="elem_Common Inspection Findings"><rect codeLine="12" fill="#F9E79F" height="48" id="Common Inspection Findings" rx="2.5" ry="2.5" style="stroke:#181818;stroke-width:0.5;" width="233" x="1962.5" y="339"/><ellipse cx="1977.5" cy="355" fill="#ADD1B2" rx="11" ry="11" style="stroke:#181818;stroke-width:1.0;"/><path d="M1981.0156,359.0313 L1981.0156,361.0625 Q1979.5313,361.6719 1977.7031,361.6719 Q1974.9844,361.6719 1973.5313,359.9375 Q1972.0781,358.1875 1972.0781,355.0781 Q1972.0781,352.0781 1973.6563,350.2969 Q1975.2344,348.5 1977.9531,348.5 Q1979.8594,348.5 1981.5938,349.4219 L1980.6406,351.3281 Q1979.1406,350.5469 1977.9531,350.5469 Q1976.3438,350.5469 1975.3594,351.7656 Q1974.3906,352.9688 1974.3906,355.0938 Q1974.3906,357.3438 1975.2969,358.4844 Q1976.2188,359.625 1977.9531,359.625 Q1978.9844,359.625 1981.0156,359.0313 Z " fill="#000000"/><text fill="#000000" font-family="sans-serif" font-size="14" lengthAdjust="spacing" textLength="201" x="1991.5" y="359.8467">Common Inspection Findings</text><line style="stroke:#181818;stroke-width:0.5;" x1="1963.5" x2="2194.5" y1="371" y2="371"/><line style="stroke:#181818;stroke-width:0.5;" x1="1963.5" x2="2194.5" y1="379" y2="379"/></g><!--class Inspection Finding--><g id="elem_Inspection Finding"><rect codeLine="14" fill="#F9E79F" height="129.4844" id="Inspection Finding" rx="2.5" ry="2.5" style="stroke:#181818;stroke-width:0.5;" width="175" x="234.5" y="84"/><ellipse cx="257.15" cy="100" fill="#ADD1B2" rx="11" ry="11" style="stroke:#181818;stroke-width:1.0;"/><path d="M260.6656,104.0313 L260.6656,106.0625 Q259.1813,106.6719 257.3531,106.6719 Q254.6344,106.6719 253.1812,104.9375 Q251.7281,103.1875 251.7281,100.0781 Q251.7281,97.0781 253.3062,95.2969 Q254.8844,93.5 257.6031,93.5 Q259.5094,93.5 261.2438,94.4219 L260.2906,96.3281 Q258.7906,95.5469 257.6031,95.5469 Q255.9937,95.5469 255.0094,96.7656 Q254.0406,97.9688 254.0406,100.0938 Q254.0406,102.3438 254.9469,103.4844 Q255.8687,104.625 257.6031,104.625 Q258.6344,104.625 260.6656,104.0313 Z " fill="#000000"/><text fill="#000000" font-family="sans-serif" font-size="14" lengthAdjust="spacing" textLength="126" x="272.85" y="104.8467">Inspection Finding</text><line style="stroke:#181818;stroke-width:0.5;" x1="235.5" x2="408.5" y1="116" y2="116"/><text fill="#000000" font-family="sans-serif" font-size="14" lengthAdjust="spacing" textLength="136" x="240.5" y="132.9951">component : Select</text><text fill="#000000" font-family="sans-serif" font-size="14" lengthAdjust="spacing" textLength="130" x="240.5" y="149.292">issue_type : Select</text><text fill="#000000" font-family="sans-serif" font-size="14" lengthAdjust="spacing" textLength="109" x="240.5" y="165.5889">severity : Select</text><text fill="#000000" font-family="sans-serif" font-size="14" lengthAdjust="spacing" textLength="161" x="240.5" y="181.8857">recommendation : Text</text><text fill="#000000" font-family="sans-serif" font-size="14" lengthAdjust="spacing" textLength="163" x="240.5" y="198.1826">action_required : Select</text><line style="stroke:#181818;stroke-width:0.5;" x1="235.5" x2="408.5" y1="205.4844" y2="205.4844"/></g><!--class Clarinet Setup Operation--><g id="elem_Clarinet Setup Operation"><rect codeLine="21" fill="#F9E79F" height="129.4844" id="Clarinet Setup Operation" rx="2.5" ry="2.5" style="stroke:#181818;stroke-width:0.5;" width="201" x="729.5" y="298.5"/><ellipse cx="744.5" cy="314.5" fill="#ADD1B2" rx="11" ry="11" style="stroke:#181818;stroke-width:1.0;"/><path d="M748.0156,318.5313 L748.0156,320.5625 Q746.5313,321.1719 744.7031,321.1719 Q741.9844,321.1719 740.5313,319.4375 Q739.0781,317.6875 739.0781,314.5781 Q739.0781,311.5781 740.6563,309.7969 Q742.2344,308 744.9531,308 Q746.8594,308 748.5938,308.9219 L747.6406,310.8281 Q746.1406,310.0469 744.9531,310.0469 Q743.3438,310.0469 742.3594,311.2656 Q741.3906,312.4688 741.3906,314.5938 Q741.3906,316.8438 742.2969,317.9844 Q743.2188,319.125 744.9531,319.125 Q745.9844,319.125 748.0156,318.5313 Z " fill="#000000"/><text fill="#000000" font-family="sans-serif" font-size="14" lengthAdjust="spacing" textLength="169" x="758.5" y="319.3467">Clarinet Setup Operation</text><line style="stroke:#181818;stroke-width:0.5;" x1="730.5" x2="929.5" y1="330.5" y2="330.5"/><text fill="#000000" font-family="sans-serif" font-size="14" lengthAdjust="spacing" textLength="159" x="735.5" y="347.4951">operation_type : Select</text><text fill="#000000" font-family="sans-serif" font-size="14" lengthAdjust="spacing" textLength="107" x="735.5" y="363.792">section : Select</text><text fill="#000000" font-family="sans-serif" font-size="14" lengthAdjust="spacing" textLength="150" x="735.5" y="380.0889">component_ref : Data</text><text fill="#000000" font-family="sans-serif" font-size="14" lengthAdjust="spacing" textLength="88" x="735.5" y="396.3857">details : Text</text><text fill="#000000" font-family="sans-serif" font-size="14" lengthAdjust="spacing" textLength="131" x="735.5" y="412.6826">completed : Check</text><line style="stroke:#181818;stroke-width:0.5;" x1="730.5" x2="929.5" y1="419.9844" y2="419.9844"/></g><!--class Instrument Profile--><g id="elem_Instrument Profile"><rect fill="#F1F1F1" height="48" id="Instrument Profile" rx="2.5" ry="2.5" style="stroke:#181818;stroke-width:0.5;" width="153" x="46.5" y="124.5"/><ellipse cx="61.5" cy="140.5" fill="#ADD1B2" rx="11" ry="11" style="stroke:#181818;stroke-width:1.0;"/><path d="M65.0156,144.5313 L65.0156,146.5625 Q63.5313,147.1719 61.7031,147.1719 Q58.9844,147.1719 57.5313,145.4375 Q56.0781,143.6875 56.0781,140.5781 Q56.0781,137.5781 57.6563,135.7969 Q59.2344,134 61.9531,134 Q63.8594,134 65.5938,134.9219 L64.6406,136.8281 Q63.1406,136.0469 61.9531,136.0469 Q60.3438,136.0469 59.3594,137.2656 Q58.3906,138.4688 58.3906,140.5938 Q58.3906,142.8438 59.2969,143.9844 Q60.2188,145.125 61.9531,145.125 Q62.9844,145.125 65.0156,144.5313 Z " fill="#000000"/><text fill="#000000" font-family="sans-serif" font-size="14" lengthAdjust="spacing" textLength="121" x="75.5" y="145.3467">Instrument Profile</text><line style="stroke:#181818;stroke-width:0.5;" x1="47.5" x2="198.5" y1="156.5" y2="156.5"/><line style="stroke:#181818;stroke-width:0.5;" x1="47.5" x2="198.5" y1="164.5" y2="164.5"/></g><!--class Clarinet Inspection--><g id="elem_Clarinet Inspection"><rect codeLine="31" fill="#F9E79F" height="145.7813" id="Clarinet Inspection" rx="2.5" ry="2.5" style="stroke:#181818;stroke-width:0.5;" width="196" x="234" y="290"/><ellipse cx="265.2" cy="306" fill="#ADD1B2" rx="11" ry="11" style="stroke:#181818;stroke-width:1.0;"/><path d="M268.7156,310.0313 L268.7156,312.0625 Q267.2313,312.6719 265.4031,312.6719 Q262.6844,312.6719 261.2313,310.9375 Q259.7781,309.1875 259.7781,306.0781 Q259.7781,303.0781 261.3563,301.2969 Q262.9344,299.5 265.6531,299.5 Q267.5594,299.5 269.2938,300.4219 L268.3406,302.3281 Q266.8406,301.5469 265.6531,301.5469 Q264.0438,301.5469 263.0594,302.7656 Q262.0906,303.9688 262.0906,306.0938 Q262.0906,308.3438 262.9969,309.4844 Q263.9188,310.625 265.6531,310.625 Q266.6844,310.625 268.7156,310.0313 Z " fill="#000000"/><text fill="#000000" font-family="sans-serif" font-size="14" lengthAdjust="spacing" textLength="128" x="282.8" y="310.8467">Clarinet Inspection</text><line style="stroke:#181818;stroke-width:0.5;" x1="235" x2="429" y1="322" y2="322"/><text fill="#000000" font-family="sans-serif" font-size="14" lengthAdjust="spacing" textLength="164" x="240" y="338.9951">instrument_profile : Link</text><text fill="#000000" font-family="sans-serif" font-size="14" lengthAdjust="spacing" textLength="132" x="240" y="355.292">inspected_by : Link</text><text fill="#000000" font-family="sans-serif" font-size="14" lengthAdjust="spacing" textLength="156" x="240" y="371.5889">inspection_date : Date</text><text fill="#000000" font-family="sans-serif" font-size="14" lengthAdjust="spacing" textLength="171" x="240" y="387.8857">overall_condition : Select</text><text fill="#000000" font-family="sans-serif" font-size="14" lengthAdjust="spacing" textLength="184" x="240" y="404.1826">inspection_findings : Table</text><text fill="#000000" font-family="sans-serif" font-size="14" lengthAdjust="spacing" textLength="83" x="240" y="420.4795">notes : Text</text><line style="stroke:#181818;stroke-width:0.5;" x1="235" x2="429" y1="427.7813" y2="427.7813"/></g><!--class User--><g id="elem_User"><rect fill="#F1F1F1" height="48" id="User" rx="2.5" ry="2.5" style="stroke:#181818;stroke-width:0.5;" width="64" x="503" y="124.5"/><ellipse cx="518" cy="140.5" fill="#ADD1B2" rx="11" ry="11" style="stroke:#181818;stroke-width:1.0;"/><path d="M521.5156,144.5313 L521.5156,146.5625 Q520.0313,147.1719 518.2031,147.1719 Q515.4844,147.1719 514.0313,145.4375 Q512.5781,143.6875 512.5781,140.5781 Q512.5781,137.5781 514.1563,135.7969 Q515.7344,134 518.4531,134 Q520.3594,134 522.0938,134.9219 L521.1406,136.8281 Q519.6406,136.0469 518.4531,136.0469 Q516.8438,136.0469 515.8594,137.2656 Q514.8906,138.4688 514.8906,140.5938 Q514.8906,142.8438 515.7969,143.9844 Q516.7188,145.125 518.4531,145.125 Q519.4844,145.125 521.5156,144.5313 Z " fill="#000000"/><text fill="#000000" font-family="sans-serif" font-size="14" lengthAdjust="spacing" textLength="32" x="532" y="145.3467">User</text><line style="stroke:#181818;stroke-width:0.5;" x1="504" x2="566" y1="156.5" y2="156.5"/><line style="stroke:#181818;stroke-width:0.5;" x1="504" x2="566" y1="164.5" y2="164.5"/></g><!--class Consent Log Entry--><g id="elem_Consent Log Entry"><rect codeLine="39" fill="#F9E79F" height="48" id="Consent Log Entry" rx="2.5" ry="2.5" style="stroke:#181818;stroke-width:0.5;" width="159" x="1597.5" y="643.5"/><ellipse cx="1612.5" cy="659.5" fill="#ADD1B2" rx="11" ry="11" style="stroke:#181818;stroke-width:1.0;"/><path d="M1616.0156,663.5313 L1616.0156,665.5625 Q1614.5313,666.1719 1612.7031,666.1719 Q1609.9844,666.1719 1608.5313,664.4375 Q1607.0781,662.6875 1607.0781,659.5781 Q1607.0781,656.5781 1608.6563,654.7969 Q1610.2344,653 1612.9531,653 Q1614.8594,653 1616.5938,653.9219 L1615.6406,655.8281 Q1614.1406,655.0469 1612.9531,655.0469 Q1611.3438,655.0469 1610.3594,656.2656 Q1609.3906,657.4688 1609.3906,659.5938 Q1609.3906,661.8438 1610.2969,662.9844 Q1611.2188,664.125 1612.9531,664.125 Q1613.9844,664.125 1616.0156,663.5313 Z " fill="#000000"/><text fill="#000000" font-family="sans-serif" font-size="14" lengthAdjust="spacing" textLength="127" x="1626.5" y="664.3467">Consent Log Entry</text><line style="stroke:#181818;stroke-width:0.5;" x1="1598.5" x2="1755.5" y1="675.5" y2="675.5"/><line style="stroke:#181818;stroke-width:0.5;" x1="1598.5" x2="1755.5" y1="683.5" y2="683.5"/></g><!--class Clarinet Initial Setup--><g id="elem_Clarinet Initial Setup"><rect codeLine="49" fill="#F9E79F" height="308.75" id="Clarinet Initial Setup" rx="2.5" ry="2.5" style="stroke:#181818;stroke-width:0.5;" width="216" x="655" y="513"/><ellipse cx="692.05" cy="529" fill="#ADD1B2" rx="11" ry="11" style="stroke:#181818;stroke-width:1.0;"/><path d="M695.5656,533.0313 L695.5656,535.0625 Q694.0813,535.6719 692.2531,535.6719 Q689.5344,535.6719 688.0813,533.9375 Q686.6281,532.1875 686.6281,529.0781 Q686.6281,526.0781 688.2063,524.2969 Q689.7844,522.5 692.5031,522.5 Q694.4094,522.5 696.1438,523.4219 L695.1906,525.3281 Q693.6906,524.5469 692.5031,524.5469 Q690.8938,524.5469 689.9094,525.7656 Q688.9406,526.9688 688.9406,529.0938 Q688.9406,531.3438 689.8469,532.4844 Q690.7688,533.625 692.5031,533.625 Q693.5344,533.625 695.5656,533.0313 Z " fill="#000000"/><text fill="#000000" font-family="sans-serif" font-size="14" lengthAdjust="spacing" textLength="135" x="710.95" y="533.8467">Clarinet Initial Setup</text><line style="stroke:#181818;stroke-width:0.5;" x1="656" x2="870" y1="545" y2="545"/><text fill="#000000" font-family="sans-serif" font-size="14" lengthAdjust="spacing" textLength="164" x="661" y="561.9951">instrument_profile : Link</text><text fill="#000000" font-family="sans-serif" font-size="14" lengthAdjust="spacing" textLength="187" x="661" y="578.292">instrument_category : Data</text><text fill="#000000" font-family="sans-serif" font-size="14" lengthAdjust="spacing" textLength="88" x="661" y="594.5889">model : Data</text><text fill="#000000" font-family="sans-serif" font-size="14" lengthAdjust="spacing" textLength="142" x="661" y="610.8857">serial_number : Data</text><text fill="#000000" font-family="sans-serif" font-size="14" lengthAdjust="spacing" textLength="112" x="661" y="627.1826">inspection : Link</text><text fill="#000000" font-family="sans-serif" font-size="14" lengthAdjust="spacing" textLength="148" x="661" y="643.4795">setup_template : Link</text><text fill="#000000" font-family="sans-serif" font-size="14" lengthAdjust="spacing" textLength="124" x="661" y="659.7764">setup_date : Date</text><text fill="#000000" font-family="sans-serif" font-size="14" lengthAdjust="spacing" textLength="111" x="661" y="676.0732">technician : Link</text><text fill="#000000" font-family="sans-serif" font-size="14" lengthAdjust="spacing" textLength="112" x="661" y="692.3701">checklist : Table</text><text fill="#000000" font-family="sans-serif" font-size="14" lengthAdjust="spacing" textLength="155" x="661" y="708.667">materials_used : Table</text><text fill="#000000" font-family="sans-serif" font-size="14" lengthAdjust="spacing" textLength="204" x="661" y="724.9639">operations_performed : Table</text><text fill="#000000" font-family="sans-serif" font-size="14" lengthAdjust="spacing" textLength="192" x="661" y="741.2607">work_photos : Attach Image</text><text fill="#000000" font-family="sans-serif" font-size="14" lengthAdjust="spacing" textLength="165" x="661" y="757.5576">technical_tags : Tag List</text><text fill="#000000" font-family="sans-serif" font-size="14" lengthAdjust="spacing" textLength="127" x="661" y="773.8545">labor_hours : Float</text><text fill="#000000" font-family="sans-serif" font-size="14" lengthAdjust="spacing" textLength="99" x="661" y="790.1514">status : Select</text><text fill="#000000" font-family="sans-serif" font-size="14" lengthAdjust="spacing" textLength="136" x="661" y="806.4482">qa_inspection : Link</text><line style="stroke:#181818;stroke-width:0.5;" x1="656" x2="870" y1="813.75" y2="813.75"/></g><!--class Setup Template--><g id="elem_Setup Template"><rect codeLine="74" fill="#F9E79F" height="96.8906" id="Setup Template" rx="2.5" ry="2.5" style="stroke:#181818;stroke-width:0.5;" width="169" x="965.5" y="314.5"/><ellipse cx="992.65" cy="330.5" fill="#ADD1B2" rx="11" ry="11" style="stroke:#181818;stroke-width:1.0;"/><path d="M996.1656,334.5313 L996.1656,336.5625 Q994.6813,337.1719 992.8531,337.1719 Q990.1344,337.1719 988.6813,335.4375 Q987.2281,333.6875 987.2281,330.5781 Q987.2281,327.5781 988.8063,325.7969 Q990.3844,324 993.1031,324 Q995.0094,324 996.7438,324.9219 L995.7906,326.8281 Q994.2906,326.0469 993.1031,326.0469 Q991.4938,326.0469 990.5094,327.2656 Q989.5406,328.4688 989.5406,330.5938 Q989.5406,332.8438 990.4469,333.9844 Q991.3688,335.125 993.1031,335.125 Q994.1344,335.125 996.1656,334.5313 Z " fill="#000000"/><text fill="#000000" font-family="sans-serif" font-size="14" lengthAdjust="spacing" textLength="110" x="1009.35" y="335.3467">Setup Template</text><line style="stroke:#181818;stroke-width:0.5;" x1="966.5" x2="1133.5" y1="346.5" y2="346.5"/><text fill="#000000" font-family="sans-serif" font-size="14" lengthAdjust="spacing" textLength="152" x="971.5" y="363.4951">template_name : Data</text><text fill="#000000" font-family="sans-serif" font-size="14" lengthAdjust="spacing" textLength="140" x="971.5" y="379.792">clarinet_model : Link</text><text fill="#000000" font-family="sans-serif" font-size="14" lengthAdjust="spacing" textLength="157" x="971.5" y="396.0889">checklist_items : Table</text><line style="stroke:#181818;stroke-width:0.5;" x1="966.5" x2="1133.5" y1="403.3906" y2="403.3906"/></g><!--class Setup Checklist Item--><g id="elem_Setup Checklist Item"><rect codeLine="67" fill="#F9E79F" height="96.8906" id="Setup Checklist Item" rx="2.5" ry="2.5" style="stroke:#181818;stroke-width:0.5;" width="174" x="776" y="100"/><ellipse cx="791" cy="116" fill="#ADD1B2" rx="11" ry="11" style="stroke:#181818;stroke-width:1.0;"/><path d="M794.5156,120.0313 L794.5156,122.0625 Q793.0313,122.6719 791.2031,122.6719 Q788.4844,122.6719 787.0313,120.9375 Q785.5781,119.1875 785.5781,116.0781 Q785.5781,113.0781 787.1563,111.2969 Q788.7344,109.5 791.4531,109.5 Q793.3594,109.5 795.0938,110.4219 L794.1406,112.3281 Q792.6406,111.5469 791.4531,111.5469 Q789.8438,111.5469 788.8594,112.7656 Q787.8906,113.9688 787.8906,116.0938 Q787.8906,118.3438 788.7969,119.4844 Q789.7188,120.625 791.4531,120.625 Q792.4844,120.625 794.5156,120.0313 Z " fill="#000000"/><text fill="#000000" font-family="sans-serif" font-size="14" lengthAdjust="spacing" textLength="142" x="805" y="120.8467">Setup Checklist Item</text><line style="stroke:#181818;stroke-width:0.5;" x1="777" x2="949" y1="132" y2="132"/><text fill="#000000" font-family="sans-serif" font-size="14" lengthAdjust="spacing" textLength="74" x="782" y="148.9951">task : Data</text><text fill="#000000" font-family="sans-serif" font-size="14" lengthAdjust="spacing" textLength="131" x="782" y="165.292">completed : Check</text><text fill="#000000" font-family="sans-serif" font-size="14" lengthAdjust="spacing" textLength="83" x="782" y="181.5889">notes : Text</text><line style="stroke:#181818;stroke-width:0.5;" x1="777" x2="949" y1="188.8906" y2="188.8906"/></g><!--class Material Usage--><g id="elem_Material Usage"><rect codeLine="81" fill="#F9E79F" height="96.8906" id="Material Usage" rx="2.5" ry="2.5" style="stroke:#181818;stroke-width:0.5;" width="184" x="1396" y="314.5"/><ellipse cx="1433.95" cy="330.5" fill="#ADD1B2" rx="11" ry="11" style="stroke:#181818;stroke-width:1.0;"/><path d="M1437.4656,334.5313 L1437.4656,336.5625 Q1435.9813,337.1719 1434.1531,337.1719 Q1431.4344,337.1719 1429.9813,335.4375 Q1428.5281,333.6875 1428.5281,330.5781 Q1428.5281,327.5781 1430.1063,325.7969 Q1431.6844,324 1434.4031,324 Q1436.3094,324 1438.0438,324.9219 L1437.0906,326.8281 Q1435.5906,326.0469 1434.4031,326.0469 Q1432.7938,326.0469 1431.8094,327.2656 Q1430.8406,328.4688 1430.8406,330.5938 Q1430.8406,332.8438 1431.7469,333.9844 Q1432.6688,335.125 1434.4031,335.125 Q1435.4344,335.125 1437.4656,334.5313 Z " fill="#000000"/><text fill="#000000" font-family="sans-serif" font-size="14" lengthAdjust="spacing" textLength="101" x="1453.05" y="335.3467">Material Usage</text><line style="stroke:#181818;stroke-width:0.5;" x1="1397" x2="1579" y1="346.5" y2="346.5"/><text fill="#000000" font-family="sans-serif" font-size="14" lengthAdjust="spacing" textLength="70" x="1402" y="363.4951">item : Link</text><text fill="#000000" font-family="sans-serif" font-size="14" lengthAdjust="spacing" textLength="101" x="1402" y="379.792">quantity : Float</text><text fill="#000000" font-family="sans-serif" font-size="14" lengthAdjust="spacing" textLength="172" x="1402" y="396.0889">source_warehouse : Link</text><line style="stroke:#181818;stroke-width:0.5;" x1="1397" x2="1579" y1="403.3906" y2="403.3906"/></g><!--class Quality Inspection--><g id="elem_Quality Inspection"><rect fill="#F1F1F1" height="48" id="Quality Inspection" rx="2.5" ry="2.5" style="stroke:#181818;stroke-width:0.5;" width="154" x="1170" y="339"/><ellipse cx="1185" cy="355" fill="#ADD1B2" rx="11" ry="11" style="stroke:#181818;stroke-width:1.0;"/><path d="M1188.5156,359.0313 L1188.5156,361.0625 Q1187.0313,361.6719 1185.2031,361.6719 Q1182.4844,361.6719 1181.0313,359.9375 Q1179.5781,358.1875 1179.5781,355.0781 Q1179.5781,352.0781 1181.1563,350.2969 Q1182.7344,348.5 1185.4531,348.5 Q1187.3594,348.5 1189.0938,349.4219 L1188.1406,351.3281 Q1186.6406,350.5469 1185.4531,350.5469 Q1183.8438,350.5469 1182.8594,351.7656 Q1181.8906,352.9688 1181.8906,355.0938 Q1181.8906,357.3438 1182.7969,358.4844 Q1183.7188,359.625 1185.4531,359.625 Q1186.4844,359.625 1188.5156,359.0313 Z " fill="#000000"/><text fill="#000000" font-family="sans-serif" font-size="14" lengthAdjust="spacing" textLength="122" x="1199" y="359.8467">Quality Inspection</text><line style="stroke:#181818;stroke-width:0.5;" x1="1171" x2="1323" y1="371" y2="371"/><line style="stroke:#181818;stroke-width:0.5;" x1="1171" x2="1323" y1="379" y2="379"/></g><!--class Item Variant--><g id="elem_Item Variant"><rect fill="#F1F1F1" height="48" id="Item Variant" rx="2.5" ry="2.5" style="stroke:#181818;stroke-width:0.5;" width="113" x="1159.5" y="124.5"/><ellipse cx="1174.5" cy="140.5" fill="#ADD1B2" rx="11" ry="11" style="stroke:#181818;stroke-width:1.0;"/><path d="M1178.0156,144.5313 L1178.0156,146.5625 Q1176.5313,147.1719 1174.7031,147.1719 Q1171.9844,147.1719 1170.5313,145.4375 Q1169.0781,143.6875 1169.0781,140.5781 Q1169.0781,137.5781 1170.6563,135.7969 Q1172.2344,134 1174.9531,134 Q1176.8594,134 1178.5938,134.9219 L1177.6406,136.8281 Q1176.1406,136.0469 1174.9531,136.0469 Q1173.3438,136.0469 1172.3594,137.2656 Q1171.3906,138.4688 1171.3906,140.5938 Q1171.3906,142.8438 1172.2969,143.9844 Q1173.2188,145.125 1174.9531,145.125 Q1175.9844,145.125 1178.0156,144.5313 Z " fill="#000000"/><text fill="#000000" font-family="sans-serif" font-size="14" lengthAdjust="spacing" textLength="81" x="1188.5" y="145.3467">Item Variant</text><line style="stroke:#181818;stroke-width:0.5;" x1="1160.5" x2="1271.5" y1="156.5" y2="156.5"/><line style="stroke:#181818;stroke-width:0.5;" x1="1160.5" x2="1271.5" y1="164.5" y2="164.5"/></g><!--class Item--><g id="elem_Item"><rect fill="#F1F1F1" height="48" id="Item" rx="2.5" ry="2.5" style="stroke:#181818;stroke-width:0.5;" width="62" x="1454" y="124.5"/><ellipse cx="1469" cy="140.5" fill="#ADD1B2" rx="11" ry="11" style="stroke:#181818;stroke-width:1.0;"/><path d="M1472.5156,144.5313 L1472.5156,146.5625 Q1471.0313,147.1719 1469.2031,147.1719 Q1466.4844,147.1719 1465.0313,145.4375 Q1463.5781,143.6875 1463.5781,140.5781 Q1463.5781,137.5781 1465.1563,135.7969 Q1466.7344,134 1469.4531,134 Q1471.3594,134 1473.0938,134.9219 L1472.1406,136.8281 Q1470.6406,136.0469 1469.4531,136.0469 Q1467.8438,136.0469 1466.8594,137.2656 Q1465.8906,138.4688 1465.8906,140.5938 Q1465.8906,142.8438 1466.7969,143.9844 Q1467.7188,145.125 1469.4531,145.125 Q1470.4844,145.125 1472.5156,144.5313 Z " fill="#000000"/><text fill="#000000" font-family="sans-serif" font-size="14" lengthAdjust="spacing" textLength="30" x="1483" y="145.3467">Item</text><line style="stroke:#181818;stroke-width:0.5;" x1="1455" x2="1515" y1="156.5" y2="156.5"/><line style="stroke:#181818;stroke-width:0.5;" x1="1455" x2="1515" y1="164.5" y2="164.5"/></g><!--class Warehouse--><g id="elem_Warehouse"><rect fill="#F1F1F1" height="48" id="Warehouse" rx="2.5" ry="2.5" style="stroke:#181818;stroke-width:0.5;" width="111" x="1307.5" y="124.5"/><ellipse cx="1322.5" cy="140.5" fill="#ADD1B2" rx="11" ry="11" style="stroke:#181818;stroke-width:1.0;"/><path d="M1326.0156,144.5313 L1326.0156,146.5625 Q1324.5313,147.1719 1322.7031,147.1719 Q1319.9844,147.1719 1318.5313,145.4375 Q1317.0781,143.6875 1317.0781,140.5781 Q1317.0781,137.5781 1318.6563,135.7969 Q1320.2344,134 1322.9531,134 Q1324.8594,134 1326.5938,134.9219 L1325.6406,136.8281 Q1324.1406,136.0469 1322.9531,136.0469 Q1321.3438,136.0469 1320.3594,137.2656 Q1319.3906,138.4688 1319.3906,140.5938 Q1319.3906,142.8438 1320.2969,143.9844 Q1321.2188,145.125 1322.9531,145.125 Q1323.9844,145.125 1326.0156,144.5313 Z " fill="#000000"/><text fill="#000000" font-family="sans-serif" font-size="14" lengthAdjust="spacing" textLength="79" x="1336.5" y="145.3467">Warehouse</text><line style="stroke:#181818;stroke-width:0.5;" x1="1308.5" x2="1417.5" y1="156.5" y2="156.5"/><line style="stroke:#181818;stroke-width:0.5;" x1="1308.5" x2="1417.5" y1="164.5" y2="164.5"/></g><!--class Clarinet Setup Log--><g id="elem_Clarinet Setup Log"><rect codeLine="88" fill="#F9E79F" height="145.7813" id="Clarinet Setup Log" rx="2.5" ry="2.5" style="stroke:#181818;stroke-width:0.5;" width="158" x="1131" y="899"/><ellipse cx="1146" cy="915" fill="#ADD1B2" rx="11" ry="11" style="stroke:#181818;stroke-width:1.0;"/><path d="M1149.5156,919.0313 L1149.5156,921.0625 Q1148.0313,921.6719 1146.2031,921.6719 Q1143.4844,921.6719 1142.0313,919.9375 Q1140.5781,918.1875 1140.5781,915.0781 Q1140.5781,912.0781 1142.1563,910.2969 Q1143.7344,908.5 1146.4531,908.5 Q1148.3594,908.5 1150.0938,909.4219 L1149.1406,911.3281 Q1147.6406,910.5469 1146.4531,910.5469 Q1144.8438,910.5469 1143.8594,911.7656 Q1142.8906,912.9688 1142.8906,915.0938 Q1142.8906,917.3438 1143.7969,918.4844 Q1144.7188,919.625 1146.4531,919.625 Q1147.4844,919.625 1149.5156,919.0313 Z " fill="#000000"/><text fill="#000000" font-family="sans-serif" font-size="14" lengthAdjust="spacing" textLength="126" x="1160" y="919.8467">Clarinet Setup Log</text><line style="stroke:#181818;stroke-width:0.5;" x1="1132" x2="1288" y1="931" y2="931"/><text fill="#000000" font-family="sans-serif" font-size="14" lengthAdjust="spacing" textLength="121" x="1137" y="947.9951">initial_setup : Link</text><text fill="#000000" font-family="sans-serif" font-size="14" lengthAdjust="spacing" textLength="134" x="1137" y="964.292">log_time : Datetime</text><text fill="#000000" font-family="sans-serif" font-size="14" lengthAdjust="spacing" textLength="105" x="1137" y="980.5889">action_by : Link</text><text fill="#000000" font-family="sans-serif" font-size="14" lengthAdjust="spacing" textLength="114" x="1137" y="996.8857">log_type : Select</text><text fill="#000000" font-family="sans-serif" font-size="14" lengthAdjust="spacing" textLength="83" x="1137" y="1013.1826">notes : Text</text><text fill="#000000" font-family="sans-serif" font-size="14" lengthAdjust="spacing" textLength="144" x="1137" y="1029.4795">attachments : Attach</text><line style="stroke:#181818;stroke-width:0.5;" x1="1132" x2="1288" y1="1036.7813" y2="1036.7813"/></g><!--reverse link Instrument Profile to Clarinet Inspection--><g id="link_Instrument Profile_Clarinet Inspection"><path codeLine="28" d="M124.36,185.82 C126.92,209.14 133.52,238.89 150,260 C167.62,282.56 181.93,276.19 207,290 C215.77,294.83 224.86,299.91 233.94,305.05 " fill="none" id="Instrument Profile-backto-Clarinet Inspection" style="stroke:#181818;stroke-width:1.0;"/><polygon fill="#181818" points="123.26,172.61,119.7755,178.9234,124.2631,184.568,127.7476,178.2546,123.26,172.61" style="stroke:#181818;stroke-width:1.0;"/><text fill="#000000" font-family="sans-serif" font-size="13" lengthAdjust="spacing" textLength="116" x="151" y="256.0669">instrument_profile</text></g><!--reverse link User to Clarinet Inspection--><g id="link_User_Clarinet Inspection"><path codeLine="29" d="M501.4,181.67 C483.01,199.5 459.97,222.2 440,243 C425.6,257.99 410.44,274.34 396.17,289.98 " fill="none" id="User-backto-Clarinet Inspection" style="stroke:#181818;stroke-width:1.0;"/><polygon fill="#181818" points="510.81,172.57,503.7158,173.8632,502.181,180.9091,509.2752,179.6159,510.81,172.57" style="stroke:#181818;stroke-width:1.0;"/><text fill="#000000" font-family="sans-serif" font-size="13" lengthAdjust="spacing" textLength="84" x="441" y="256.0669">inspected_by</text></g><!--reverse link Inspection Finding to Clarinet Inspection--><g id="link_Inspection Finding_Clarinet Inspection"><path codeLine="30" d="M277.36,225.67 C274.72,237.01 274.15,248.69 277,260 C279.54,270.05 283.28,280.18 287.64,289.95 " fill="none" id="Inspection Finding-backto-Clarinet Inspection" style="stroke:#181818;stroke-width:1.0;"/><polygon fill="#181818" points="281.14,213.05,275.5875,217.6511,277.6991,224.5461,283.2516,219.945,281.14,213.05" style="stroke:#181818;stroke-width:1.0;"/><text fill="#000000" font-family="sans-serif" font-size="13" lengthAdjust="spacing" textLength="121" x="278" y="256.0669">inspection_findings</text></g><!--reverse link Instrument Profile to Clarinet Initial Setup--><g id="link_Instrument Profile_Clarinet Initial Setup"><path codeLine="41" d="M106.5,184.7 C81.91,242.88 44.03,360.18 98,436 C225.27,614.82 501.34,656.18 654.73,664.94 " fill="none" id="Instrument Profile-backto-Clarinet Initial Setup" style="stroke:#181818;stroke-width:1.0;"/><polygon fill="#181818" points="111.8,172.56,105.7322,176.4563,106.995,183.556,113.0628,179.6597,111.8,172.56" style="stroke:#181818;stroke-width:1.0;"/><text fill="#000000" font-family="sans-serif" font-size="13" lengthAdjust="spacing" textLength="116" x="99" y="367.5669">instrument_profile</text></g><!--reverse link Clarinet Inspection to Clarinet Initial Setup--><g id="link_Clarinet Inspection_Clarinet Initial Setup"><path codeLine="42" d="M388.59,446.68 C399.48,459.68 411.44,472.33 424,483 C493.23,541.83 584.36,589.87 654.7,622.01 " fill="none" id="Clarinet Inspection-backto-Clarinet Initial Setup" style="stroke:#181818;stroke-width:1.0;"/><polygon fill="#181818" points="380.09,436.22,380.7664,443.3993,387.6536,445.5362,386.9772,438.3569,380.09,436.22" style="stroke:#181818;stroke-width:1.0;"/><text fill="#000000" font-family="sans-serif" font-size="13" lengthAdjust="spacing" textLength="65" x="425" y="479.0669">inspection</text></g><!--reverse link Setup Template to Clarinet Initial Setup--><g id="link_Setup Template_Clarinet Initial Setup"><path codeLine="43" d="M989.42,420.88 C974.37,435.39 958.43,451.1 944,466 C919.94,490.84 894.72,518.01 871,544.1 " fill="none" id="Setup Template-backto-Clarinet Initial Setup" style="stroke:#181818;stroke-width:1.0;"/><polygon fill="#181818" points="999.15,411.54,992.0508,412.8056,990.4886,419.8454,997.5878,418.5798,999.15,411.54" style="stroke:#181818;stroke-width:1.0;"/><text fill="#000000" font-family="sans-serif" font-size="13" lengthAdjust="spacing" textLength="101" x="945" y="479.0669">setup_template</text></g><!--reverse link User to Clarinet Initial Setup--><g id="link_User_Clarinet Initial Setup"><path codeLine="44" d="M535.36,185.67 C536.49,252.35 541.1,391.86 560,436 C581.51,486.25 618.34,533.21 654.77,571.46 " fill="none" id="User-backto-Clarinet Initial Setup" style="stroke:#181818;stroke-width:1.0;"/><polygon fill="#181818" points="535.17,172.61,531.2561,178.6665,535.3414,184.6088,539.2553,178.5523,535.17,172.61" style="stroke:#181818;stroke-width:1.0;"/><text fill="#000000" font-family="sans-serif" font-size="13" lengthAdjust="spacing" textLength="65" x="561" y="367.5669">technician</text></g><!--reverse link Setup Checklist Item to Clarinet Initial Setup--><g id="link_Setup Checklist Item_Clarinet Initial Setup"><path codeLine="45" d="M764.3,190.31 C722.65,213.06 678.45,245.85 655,290 C618.23,359.21 636.46,442.41 667.61,512.98 " fill="none" id="Setup Checklist Item-backto-Clarinet Initial Setup" style="stroke:#181818;stroke-width:1.0;"/><polygon fill="#181818" points="775.96,184.16,768.7873,183.417,765.3427,189.7522,772.5154,190.4952,775.96,184.16" style="stroke:#181818;stroke-width:1.0;"/><text fill="#000000" font-family="sans-serif" font-size="13" lengthAdjust="spacing" textLength="55" x="656" y="367.5669">checklist</text></g><!--reverse link Material Usage to Clarinet Initial Setup--><g id="link_Material Usage_Clarinet Initial Setup"><path codeLine="46" d="M1387.49,417.17 C1372.47,424.05 1357,430.58 1342,436 C1288.27,455.42 1270.89,447.04 1217,466 C1200.31,471.87 1197.1,475.67 1181,483 C1076.24,530.72 955.79,583.36 871.19,619.98 " fill="none" id="Material Usage-backto-Clarinet Initial Setup" style="stroke:#181818;stroke-width:1.0;"/><polygon fill="#181818" points="1399.42,411.58,1392.2903,410.4997,1388.5509,416.6654,1395.6806,417.7458,1399.42,411.58" style="stroke:#181818;stroke-width:1.0;"/><text fill="#000000" font-family="sans-serif" font-size="13" lengthAdjust="spacing" textLength="98" x="1218" y="479.0669">materials_used</text></g><!--reverse link Clarinet Setup Operation to Clarinet Initial Setup--><g id="link_Clarinet Setup Operation_Clarinet Initial Setup"><path codeLine="47" d="M771.52,438.93 C766.85,447.69 762.85,456.8 760,466 C755.36,480.96 752.44,496.86 750.79,512.9 " fill="none" id="Clarinet Setup Operation-backto-Clarinet Initial Setup" style="stroke:#181818;stroke-width:1.0;"/><polygon fill="#181818" points="777.98,427.63,771.5284,430.8514,772.0207,438.0457,778.4722,434.8243,777.98,427.63" style="stroke:#181818;stroke-width:1.0;"/><text fill="#000000" font-family="sans-serif" font-size="13" lengthAdjust="spacing" textLength="142" x="761" y="479.0669">operations_performed</text></g><!--reverse link Quality Inspection to Clarinet Initial Setup--><g id="link_Quality Inspection_Clarinet Initial Setup"><path codeLine="48" d="M1209.31,395.55 C1192.38,408.92 1171.8,424.12 1152,436 C1124.72,452.37 1115.02,450.93 1087,466 C1013.3,505.62 933.32,555.04 871.27,594.91 " fill="none" id="Quality Inspection-backto-Clarinet Initial Setup" style="stroke:#181818;stroke-width:1.0;"/><polygon fill="#181818" points="1219.86,387.08,1212.6771,387.717,1210.5024,394.5924,1217.6854,393.9554,1219.86,387.08" style="stroke:#181818;stroke-width:1.0;"/><text fill="#000000" font-family="sans-serif" font-size="13" lengthAdjust="spacing" textLength="88" x="1088" y="479.0669">qa_inspection</text></g><!--reverse link Item Variant to Setup Template--><g id="link_Item Variant_Setup Template"><path codeLine="72" d="M1189.56,183.35 C1161.98,218.65 1118.51,274.3 1087.42,314.1 " fill="none" id="Item Variant-backto-Setup Template" style="stroke:#181818;stroke-width:1.0;"/><polygon fill="#181818" points="1197.92,172.65,1191.0743,174.9165,1190.5336,182.1073,1197.3792,179.8408,1197.92,172.65" style="stroke:#181818;stroke-width:1.0;"/><text fill="#000000" font-family="sans-serif" font-size="13" lengthAdjust="spacing" textLength="94" x="1143" y="256.0669">clarinet_model</text></g><!--reverse link Setup Checklist Item to Setup Template--><g id="link_Setup Checklist Item_Setup Template"><path codeLine="73" d="M913.9,207.34 C943.48,240.95 980.29,282.79 1008.17,314.47 " fill="none" id="Setup Checklist Item-backto-Setup Template" style="stroke:#181818;stroke-width:1.0;"/><polygon fill="#181818" points="904.97,197.19,905.9307,204.3368,912.8972,206.1988,911.9366,199.052,904.97,197.19" style="stroke:#181818;stroke-width:1.0;"/><text fill="#000000" font-family="sans-serif" font-size="13" lengthAdjust="spacing" textLength="98" x="957" y="256.0669">checklist_items</text></g><!--reverse link Item to Material Usage--><g id="link_Item_Material Usage"><path codeLine="79" d="M1485.51,185.67 C1486.01,221.05 1486.77,275.16 1487.32,314.1 " fill="none" id="Item-backto-Material Usage" style="stroke:#181818;stroke-width:1.0;"/><polygon fill="#181818" points="1485.33,172.65,1481.4161,178.7065,1485.5014,184.6488,1489.4153,178.5923,1485.33,172.65" style="stroke:#181818;stroke-width:1.0;"/><text fill="#000000" font-family="sans-serif" font-size="13" lengthAdjust="spacing" textLength="29" x="1487" y="256.0669">item</text></g><!--reverse link Warehouse to Material Usage--><g id="link_Warehouse_Material Usage"><path codeLine="80" d="M1352.42,185.55 C1347.84,208.06 1345.77,237.02 1357,260 C1367.44,281.36 1384.76,299.55 1403.44,314.39 " fill="none" id="Warehouse-backto-Material Usage" style="stroke:#181818;stroke-width:1.0;"/><polygon fill="#181818" points="1355.41,172.81,1350.1446,177.737,1352.6674,184.4924,1357.9328,179.5654,1355.41,172.81" style="stroke:#181818;stroke-width:1.0;"/><text fill="#000000" font-family="sans-serif" font-size="13" lengthAdjust="spacing" textLength="119" x="1358" y="256.0669">source_warehouse</text></g><!--reverse link Clarinet Initial Setup to Clarinet Setup Log--><g id="link_Clarinet Initial Setup_Clarinet Setup Log"><path codeLine="86" d="M882.16,749.14 C960.87,802.41 1061.85,870.74 1130.81,917.41 " fill="none" id="Clarinet Initial Setup-backto-Clarinet Setup Log" style="stroke:#181818;stroke-width:1.0;"/><polygon fill="#181818" points="871.21,741.73,873.9388,748.4048,881.1498,748.4532,878.4209,741.7783,871.21,741.73" style="stroke:#181818;stroke-width:1.0;"/><text fill="#000000" font-family="sans-serif" font-size="13" lengthAdjust="spacing" textLength="76" x="1053" y="865.0669">initial_setup</text></g><!--reverse link User to Clarinet Setup Log--><g id="link_User_Clarinet Setup Log"><path codeLine="87" d="M579.47,164.72 C624.08,179.38 695.01,201.04 758,213 C892.26,238.48 928.55,224.93 1064,243 C1079.53,245.07 1331.89,278.04 1342,290 C1419.44,381.64 1296.37,743.17 1238,898.95 " fill="none" id="User-backto-Clarinet Setup Log" style="stroke:#181818;stroke-width:1.0;"/><polygon fill="#181818" points="567.06,160.6,571.4931,166.2875,578.4481,164.3829,574.015,158.6954,567.06,160.6" style="stroke:#181818;stroke-width:1.0;"/><text fill="#000000" font-family="sans-serif" font-size="13" lengthAdjust="spacing" textLength="61" x="1361" y="479.0669">action_by</text></g><!--SRC=[bLPDRzim3BtxLmZURK1t7LeK1Rgk0GfqMBUcsr5WR2OH8akk9AyBXlxtKVwI_96alINKeqY-Hz8g8Tl11fd14eJXfJOEv2UXh3DLWSfnYwugsUNbGiiSpTKL-vTa4gnbwR8o2eokLCwMea1shK3khR0f-x0ul_rylY3eQm_6RAj49a2n1pHhRGfG6Sv27y0uoswqibLHEg7LBEfddJ1xTE0gUmHXsPVzCTIDBWgjs9so9MO-6bi8bGkrcOTFSJ6CiKmNfLP47BjWZoW9IaPXRONSxKkChHR_e15k7ziCqWN4UmvrY0ksnB_U3dL8Rl2v4WRpu1Bga624GaS7Nh3l9HeOayUOximpsMHjoDxKrq9nrtJm5HoGEKS7GjgGdCT9T7LQDrlCTfIL9wfj8VPWz5f84llZsLcKQA0o9SUevSe6dwHF5ir9B_yFSxxQ9xFYlC7Rqx5kHP_G6Nl4J4xpfGllXTerPtrM4wkFHl9YGoXwKQWFG4gUQSfXBC9CZfvvM4dlghJ3NecefvNrnD_h3RjLpko7hVmcRIWHa4qp7P9dbgFJzxJG96qwTOdKFKJ4ITTw4t7NmWzrnyZ9zNkdYrTtg1IMm7JNoGko3fwatoYiyOTFbbRcIS-YXLjUMSoJ8nDwug9-Q2qlcztfh_jHWVJRuntaFmEF-9zs-W3-ZcRlpZAgUAFDFkoAGkSemrzR4y9LLQpG17D8AbmxL7ji7mvG43dWUjsYQHag4XtCCHmTlsYpu-LME-rdxTevoBRihg0c2C6fB0VjR6ue2Uk7Ly9A6xxLbV472wcXNhNrroWUye4mNGtzEC_tRQoF0xiBT4xtyMHHfFuEzekK1-NQlXcF8_L-sngybl7e0CquTp0k26Q7nGJWe8pMoXKK6DKpI6D6uYP2BrXRNflPU6ff1z5Xalu6WwICnOCuIxfbo5ywO5V263cO5Czhd-5pHVGsd_XU_D6bGUs3apYSweP0MktDEgsHpIjjVYKEyEqxWZwMyy-66ZQS_2X0A4pg3NUY4mdzp_1AYJzwDN3qr1Zq8ddLy-GNI9WkekFrFm00]--></g></svg>