<?xml version="1.0" encoding="us-ascii" standalone="no"?><svg xmlns="http://www.w3.org/2000/svg" xmlns:xlink="http://www.w3.org/1999/xlink" contentStyleType="text/css" height="625px" preserveAspectRatio="none" style="width:1425px;height:625px;background:#FFFFFF;" version="1.1" viewBox="0 0 1425 625" width="1425px" zoomAndPan="magnify"><defs/><g><!--cluster repair_portal--><g id="cluster_repair_portal"><path d="M8.5,6 L109.5,6 A3.75,3.75 0 0 1 112,8.5 L119,28.2969 L1415.5,28.2969 A2.5,2.5 0 0 1 1418,30.7969 L1418,615.5 A2.5,2.5 0 0 1 1415.5,618 L8.5,618 A2.5,2.5 0 0 1 6,615.5 L6,8.5 A2.5,2.5 0 0 1 8.5,6 " fill="none" style="stroke:#000000;stroke-width:1.5;"/><line style="stroke:#000000;stroke-width:1.5;" x1="6" x2="119" y1="28.2969" y2="28.2969"/><text fill="#000000" font-family="sans-serif" font-size="14" font-weight="bold" lengthAdjust="spacing" textLength="100" x="10" y="20.9951">repair_portal</text></g><!--cluster service_planning--><g id="cluster_service_planning"><path d="M32.5,49 L165.5,49 A3.75,3.75 0 0 1 168,51.5 L175,71.2969 L1391.5,71.2969 A2.5,2.5 0 0 1 1394,73.7969 L1394,591.5 A2.5,2.5 0 0 1 1391.5,594 L32.5,594 A2.5,2.5 0 0 1 30,591.5 L30,51.5 A2.5,2.5 0 0 1 32.5,49 " fill="none" style="stroke:#000000;stroke-width:1.5;"/><line style="stroke:#000000;stroke-width:1.5;" x1="30" x2="175" y1="71.2969" y2="71.2969"/><text fill="#000000" font-family="sans-serif" font-size="14" font-weight="bold" lengthAdjust="spacing" textLength="132" x="34" y="63.9951">service_planning</text></g><!--class Unnamed--><g id="elem_Unnamed"><rect codeLine="4" fill="#E59866" height="48" id="Unnamed" rx="2.5" ry="2.5" style="stroke:#181818;stroke-width:0.5;" width="99" x="777.5" y="84"/><ellipse cx="792.5" cy="100" fill="#ADD1B2" rx="11" ry="11" style="stroke:#181818;stroke-width:1.0;"/><path d="M796.0156,104.0313 L796.0156,106.0625 Q794.5313,106.6719 792.7031,106.6719 Q789.9844,106.6719 788.5313,104.9375 Q787.0781,103.1875 787.0781,100.0781 Q787.0781,97.0781 788.6563,95.2969 Q790.2344,93.5 792.9531,93.5 Q794.8594,93.5 796.5938,94.4219 L795.6406,96.3281 Q794.1406,95.5469 792.9531,95.5469 Q791.3438,95.5469 790.3594,96.7656 Q789.3906,97.9688 789.3906,100.0938 Q789.3906,102.3438 790.2969,103.4844 Q791.2188,104.625 792.9531,104.625 Q793.9844,104.625 796.0156,104.0313 Z " fill="#000000"/><text fill="#000000" font-family="sans-serif" font-size="14" lengthAdjust="spacing" textLength="67" x="806.5" y="104.8467">Unnamed</text><line style="stroke:#181818;stroke-width:0.5;" x1="778.5" x2="875.5" y1="116" y2="116"/><line style="stroke:#181818;stroke-width:0.5;" x1="778.5" x2="875.5" y1="124" y2="124"/></g><!--class Repair Bay Utilization--><g id="elem_Repair Bay Utilization"><rect codeLine="6" fill="#E59866" height="48" id="Repair Bay Utilization" rx="2.5" ry="2.5" style="stroke:#181818;stroke-width:0.5;" width="175" x="911.5" y="84"/><ellipse cx="926.5" cy="100" fill="#ADD1B2" rx="11" ry="11" style="stroke:#181818;stroke-width:1.0;"/><path d="M930.0156,104.0313 L930.0156,106.0625 Q928.5313,106.6719 926.7031,106.6719 Q923.9844,106.6719 922.5313,104.9375 Q921.0781,103.1875 921.0781,100.0781 Q921.0781,97.0781 922.6563,95.2969 Q924.2344,93.5 926.9531,93.5 Q928.8594,93.5 930.5938,94.4219 L929.6406,96.3281 Q928.1406,95.5469 926.9531,95.5469 Q925.3438,95.5469 924.3594,96.7656 Q923.3906,97.9688 923.3906,100.0938 Q923.3906,102.3438 924.2969,103.4844 Q925.2188,104.625 926.9531,104.625 Q927.9844,104.625 930.0156,104.0313 Z " fill="#000000"/><text fill="#000000" font-family="sans-serif" font-size="14" lengthAdjust="spacing" textLength="143" x="940.5" y="104.8467">Repair Bay Utilization</text><line style="stroke:#181818;stroke-width:0.5;" x1="912.5" x2="1085.5" y1="116" y2="116"/><line style="stroke:#181818;stroke-width:0.5;" x1="912.5" x2="1085.5" y1="124" y2="124"/></g><!--class Scheduled Service Tasks By Day--><g id="elem_Scheduled Service Tasks By Day"><rect codeLine="8" fill="#E59866" height="48" id="Scheduled Service Tasks By Day" rx="2.5" ry="2.5" style="stroke:#181818;stroke-width:0.5;" width="256" x="1122" y="84"/><ellipse cx="1137" cy="100" fill="#ADD1B2" rx="11" ry="11" style="stroke:#181818;stroke-width:1.0;"/><path d="M1140.5156,104.0313 L1140.5156,106.0625 Q1139.0313,106.6719 1137.2031,106.6719 Q1134.4844,106.6719 1133.0313,104.9375 Q1131.5781,103.1875 1131.5781,100.0781 Q1131.5781,97.0781 1133.1563,95.2969 Q1134.7344,93.5 1137.4531,93.5 Q1139.3594,93.5 1141.0938,94.4219 L1140.1406,96.3281 Q1138.6406,95.5469 1137.4531,95.5469 Q1135.8438,95.5469 1134.8594,96.7656 Q1133.8906,97.9688 1133.8906,100.0938 Q1133.8906,102.3438 1134.7969,103.4844 Q1135.7188,104.625 1137.4531,104.625 Q1138.4844,104.625 1140.5156,104.0313 Z " fill="#000000"/><text fill="#000000" font-family="sans-serif" font-size="14" lengthAdjust="spacing" textLength="224" x="1151" y="104.8467">Scheduled Service Tasks By Day</text><line style="stroke:#181818;stroke-width:0.5;" x1="1123" x2="1377" y1="116" y2="116"/><line style="stroke:#181818;stroke-width:0.5;" x1="1123" x2="1377" y1="124" y2="124"/></g><!--class Item--><g id="elem_Item"><rect fill="#F1F1F1" height="48" id="Item" rx="2.5" ry="2.5" style="stroke:#181818;stroke-width:0.5;" width="62" x="680" y="84"/><ellipse cx="695" cy="100" fill="#ADD1B2" rx="11" ry="11" style="stroke:#181818;stroke-width:1.0;"/><path d="M698.5156,104.0313 L698.5156,106.0625 Q697.0313,106.6719 695.2031,106.6719 Q692.4844,106.6719 691.0313,104.9375 Q689.5781,103.1875 689.5781,100.0781 Q689.5781,97.0781 691.1563,95.2969 Q692.7344,93.5 695.4531,93.5 Q697.3594,93.5 699.0938,94.4219 L698.1406,96.3281 Q696.6406,95.5469 695.4531,95.5469 Q693.8438,95.5469 692.8594,96.7656 Q691.8906,97.9688 691.8906,100.0938 Q691.8906,102.3438 692.7969,103.4844 Q693.7188,104.625 695.4531,104.625 Q696.4844,104.625 698.5156,104.0313 Z " fill="#000000"/><text fill="#000000" font-family="sans-serif" font-size="14" lengthAdjust="spacing" textLength="30" x="709" y="104.8467">Item</text><line style="stroke:#181818;stroke-width:0.5;" x1="681" x2="741" y1="116" y2="116"/><line style="stroke:#181818;stroke-width:0.5;" x1="681" x2="741" y1="124" y2="124"/></g><!--class Estimate Line Item--><g id="elem_Estimate Line Item"><rect codeLine="11" fill="#E59866" height="129.4844" id="Estimate Line Item" rx="2.5" ry="2.5" style="stroke:#181818;stroke-width:0.5;" width="158" x="705" y="217.5"/><ellipse cx="720" cy="233.5" fill="#ADD1B2" rx="11" ry="11" style="stroke:#181818;stroke-width:1.0;"/><path d="M723.5156,237.5313 L723.5156,239.5625 Q722.0313,240.1719 720.2031,240.1719 Q717.4844,240.1719 716.0313,238.4375 Q714.5781,236.6875 714.5781,233.5781 Q714.5781,230.5781 716.1563,228.7969 Q717.7344,227 720.4531,227 Q722.3594,227 724.0938,227.9219 L723.1406,229.8281 Q721.6406,229.0469 720.4531,229.0469 Q718.8438,229.0469 717.8594,230.2656 Q716.8906,231.4688 716.8906,233.5938 Q716.8906,235.8438 717.7969,236.9844 Q718.7188,238.125 720.4531,238.125 Q721.4844,238.125 723.5156,237.5313 Z " fill="#000000"/><text fill="#000000" font-family="sans-serif" font-size="14" lengthAdjust="spacing" textLength="126" x="734" y="238.3467">Estimate Line Item</text><line style="stroke:#181818;stroke-width:0.5;" x1="706" x2="862" y1="249.5" y2="249.5"/><text fill="#000000" font-family="sans-serif" font-size="14" lengthAdjust="spacing" textLength="122" x="711" y="266.4951">description : Data</text><text fill="#000000" font-family="sans-serif" font-size="14" lengthAdjust="spacing" textLength="109" x="711" y="282.792">part_code : Link</text><text fill="#000000" font-family="sans-serif" font-size="14" lengthAdjust="spacing" textLength="86" x="711" y="299.0889">hours : Float</text><text fill="#000000" font-family="sans-serif" font-size="14" lengthAdjust="spacing" textLength="102" x="711" y="315.3857">rate : Currency</text><text fill="#000000" font-family="sans-serif" font-size="14" lengthAdjust="spacing" textLength="128" x="711" y="331.6826">amount : Currency</text><line style="stroke:#181818;stroke-width:0.5;" x1="706" x2="862" y1="338.9844" y2="338.9844"/></g><!--class Inspection Report--><g id="elem_Inspection Report"><rect fill="#F1F1F1" height="48" id="Inspection Report" rx="2.5" ry="2.5" style="stroke:#181818;stroke-width:0.5;" width="155" x="514.5" y="258"/><ellipse cx="529.5" cy="274" fill="#ADD1B2" rx="11" ry="11" style="stroke:#181818;stroke-width:1.0;"/><path d="M533.0156,278.0313 L533.0156,280.0625 Q531.5313,280.6719 529.7031,280.6719 Q526.9844,280.6719 525.5313,278.9375 Q524.0781,277.1875 524.0781,274.0781 Q524.0781,271.0781 525.6563,269.2969 Q527.2344,267.5 529.9531,267.5 Q531.8594,267.5 533.5938,268.4219 L532.6406,270.3281 Q531.1406,269.5469 529.9531,269.5469 Q528.3438,269.5469 527.3594,270.7656 Q526.3906,271.9688 526.3906,274.0938 Q526.3906,276.3438 527.2969,277.4844 Q528.2188,278.625 529.9531,278.625 Q530.9844,278.625 533.0156,278.0313 Z " fill="#000000"/><text fill="#000000" font-family="sans-serif" font-size="14" lengthAdjust="spacing" textLength="123" x="543.5" y="278.8467">Inspection Report</text><line style="stroke:#181818;stroke-width:0.5;" x1="515.5" x2="668.5" y1="290" y2="290"/><line style="stroke:#181818;stroke-width:0.5;" x1="515.5" x2="668.5" y1="298" y2="298"/></g><!--class Repair Estimate--><g id="elem_Repair Estimate"><rect codeLine="20" fill="#E59866" height="145.7813" id="Repair Estimate" rx="2.5" ry="2.5" style="stroke:#181818;stroke-width:0.5;" width="211" x="577.5" y="432"/><ellipse cx="624.75" cy="448" fill="#ADD1B2" rx="11" ry="11" style="stroke:#181818;stroke-width:1.0;"/><path d="M628.2656,452.0313 L628.2656,454.0625 Q626.7813,454.6719 624.9531,454.6719 Q622.2344,454.6719 620.7813,452.9375 Q619.3281,451.1875 619.3281,448.0781 Q619.3281,445.0781 620.9063,443.2969 Q622.4844,441.5 625.2031,441.5 Q627.1094,441.5 628.8438,442.4219 L627.8906,444.3281 Q626.3906,443.5469 625.2031,443.5469 Q623.5938,443.5469 622.6094,444.7656 Q621.6406,445.9688 621.6406,448.0938 Q621.6406,450.3438 622.5469,451.4844 Q623.4688,452.625 625.2031,452.625 Q626.2344,452.625 628.2656,452.0313 Z " fill="#000000"/><text fill="#000000" font-family="sans-serif" font-size="14" lengthAdjust="spacing" textLength="108" x="645.25" y="452.8467">Repair Estimate</text><line style="stroke:#181818;stroke-width:0.5;" x1="578.5" x2="787.5" y1="464" y2="464"/><text fill="#000000" font-family="sans-serif" font-size="14" lengthAdjust="spacing" textLength="157" x="583.5" y="480.9951">customer_name : Data</text><text fill="#000000" font-family="sans-serif" font-size="14" lengthAdjust="spacing" textLength="139" x="583.5" y="497.292">instrument_id : Data</text><text fill="#000000" font-family="sans-serif" font-size="14" lengthAdjust="spacing" textLength="186" x="583.5" y="513.5889">inspection_reference : Link</text><text fill="#000000" font-family="sans-serif" font-size="14" lengthAdjust="spacing" textLength="199" x="583.5" y="529.8857">estimated_completion : Date</text><text fill="#000000" font-family="sans-serif" font-size="14" lengthAdjust="spacing" textLength="120" x="583.5" y="546.1826">line_items : Table</text><text fill="#000000" font-family="sans-serif" font-size="14" lengthAdjust="spacing" textLength="142" x="583.5" y="562.4795">total_cost : Currency</text><line style="stroke:#181818;stroke-width:0.5;" x1="578.5" x2="787.5" y1="569.7813" y2="569.7813"/></g><!--class Tasks--><g id="elem_Tasks"><rect codeLine="28" fill="#E59866" height="80.5938" id="Tasks" rx="2.5" ry="2.5" style="stroke:#181818;stroke-width:0.5;" width="208" x="898" y="241.5"/><ellipse cx="977.25" cy="257.5" fill="#ADD1B2" rx="11" ry="11" style="stroke:#181818;stroke-width:1.0;"/><path d="M980.7656,261.5313 L980.7656,263.5625 Q979.2813,264.1719 977.4531,264.1719 Q974.7344,264.1719 973.2813,262.4375 Q971.8281,260.6875 971.8281,257.5781 Q971.8281,254.5781 973.4063,252.7969 Q974.9844,251 977.7031,251 Q979.6094,251 981.3438,251.9219 L980.3906,253.8281 Q978.8906,253.0469 977.7031,253.0469 Q976.0938,253.0469 975.1094,254.2656 Q974.1406,255.4688 974.1406,257.5938 Q974.1406,259.8438 975.0469,260.9844 Q975.9688,262.125 977.7031,262.125 Q978.7344,262.125 980.7656,261.5313 Z " fill="#000000"/><text fill="#000000" font-family="sans-serif" font-size="14" lengthAdjust="spacing" textLength="41" x="997.75" y="262.3467">Tasks</text><line style="stroke:#181818;stroke-width:0.5;" x1="899" x2="1105" y1="273.5" y2="273.5"/><text fill="#000000" font-family="sans-serif" font-size="14" lengthAdjust="spacing" textLength="196" x="904" y="290.4951">task_description : Small Text</text><text fill="#000000" font-family="sans-serif" font-size="14" lengthAdjust="spacing" textLength="147" x="904" y="306.792">task_due_date : Date</text><line style="stroke:#181818;stroke-width:0.5;" x1="899" x2="1105" y1="314.0938" y2="314.0938"/></g><!--class User--><g id="elem_User"><rect fill="#F1F1F1" height="48" id="User" rx="2.5" ry="2.5" style="stroke:#181818;stroke-width:0.5;" width="64" x="581" y="84"/><ellipse cx="596" cy="100" fill="#ADD1B2" rx="11" ry="11" style="stroke:#181818;stroke-width:1.0;"/><path d="M599.5156,104.0313 L599.5156,106.0625 Q598.0313,106.6719 596.2031,106.6719 Q593.4844,106.6719 592.0313,104.9375 Q590.5781,103.1875 590.5781,100.0781 Q590.5781,97.0781 592.1563,95.2969 Q593.7344,93.5 596.4531,93.5 Q598.3594,93.5 600.0938,94.4219 L599.1406,96.3281 Q597.6406,95.5469 596.4531,95.5469 Q594.8438,95.5469 593.8594,96.7656 Q592.8906,97.9688 592.8906,100.0938 Q592.8906,102.3438 593.7969,103.4844 Q594.7188,104.625 596.4531,104.625 Q597.4844,104.625 599.5156,104.0313 Z " fill="#000000"/><text fill="#000000" font-family="sans-serif" font-size="14" lengthAdjust="spacing" textLength="32" x="610" y="104.8467">User</text><line style="stroke:#181818;stroke-width:0.5;" x1="582" x2="644" y1="116" y2="116"/><line style="stroke:#181818;stroke-width:0.5;" x1="582" x2="644" y1="124" y2="124"/></g><!--class Service Task--><g id="elem_Service Task"><rect codeLine="34" fill="#E59866" height="129.4844" id="Service Task" rx="2.5" ry="2.5" style="stroke:#181818;stroke-width:0.5;" width="169" x="310.5" y="217.5"/><ellipse cx="348" cy="233.5" fill="#ADD1B2" rx="11" ry="11" style="stroke:#181818;stroke-width:1.0;"/><path d="M351.5156,237.5313 L351.5156,239.5625 Q350.0313,240.1719 348.2031,240.1719 Q345.4844,240.1719 344.0313,238.4375 Q342.5781,236.6875 342.5781,233.5781 Q342.5781,230.5781 344.1563,228.7969 Q345.7344,227 348.4531,227 Q350.3594,227 352.0938,227.9219 L351.1406,229.8281 Q349.6406,229.0469 348.4531,229.0469 Q346.8438,229.0469 345.8594,230.2656 Q344.8906,231.4688 344.8906,233.5938 Q344.8906,235.8438 345.7969,236.9844 Q346.7188,238.125 348.4531,238.125 Q349.4844,238.125 351.5156,237.5313 Z " fill="#000000"/><text fill="#000000" font-family="sans-serif" font-size="14" lengthAdjust="spacing" textLength="87" x="367" y="238.3467">Service Task</text><line style="stroke:#181818;stroke-width:0.5;" x1="311.5" x2="478.5" y1="249.5" y2="249.5"/><text fill="#000000" font-family="sans-serif" font-size="14" lengthAdjust="spacing" textLength="120" x="316.5" y="266.4951">task_name : Data</text><text fill="#000000" font-family="sans-serif" font-size="14" lengthAdjust="spacing" textLength="120" x="316.5" y="282.792">description : Text</text><text fill="#000000" font-family="sans-serif" font-size="14" lengthAdjust="spacing" textLength="157" x="316.5" y="299.0889">scheduled_date : Date</text><text fill="#000000" font-family="sans-serif" font-size="14" lengthAdjust="spacing" textLength="124" x="316.5" y="315.3857">assigned_to : Link</text><text fill="#000000" font-family="sans-serif" font-size="14" lengthAdjust="spacing" textLength="142" x="316.5" y="331.6826">workflow_state : Link</text><line style="stroke:#181818;stroke-width:0.5;" x1="311.5" x2="478.5" y1="338.9844" y2="338.9844"/></g><!--class Workflow State--><g id="elem_Workflow State"><rect fill="#F1F1F1" height="48" id="Workflow State" rx="2.5" ry="2.5" style="stroke:#181818;stroke-width:0.5;" width="134" x="412" y="84"/><ellipse cx="427" cy="100" fill="#ADD1B2" rx="11" ry="11" style="stroke:#181818;stroke-width:1.0;"/><path d="M430.5156,104.0313 L430.5156,106.0625 Q429.0313,106.6719 427.2031,106.6719 Q424.4844,106.6719 423.0313,104.9375 Q421.5781,103.1875 421.5781,100.0781 Q421.5781,97.0781 423.1563,95.2969 Q424.7344,93.5 427.4531,93.5 Q429.3594,93.5 431.0938,94.4219 L430.1406,96.3281 Q428.6406,95.5469 427.4531,95.5469 Q425.8438,95.5469 424.8594,96.7656 Q423.8906,97.9688 423.8906,100.0938 Q423.8906,102.3438 424.7969,103.4844 Q425.7188,104.625 427.4531,104.625 Q428.4844,104.625 430.5156,104.0313 Z " fill="#000000"/><text fill="#000000" font-family="sans-serif" font-size="14" lengthAdjust="spacing" textLength="102" x="441" y="104.8467">Workflow State</text><line style="stroke:#181818;stroke-width:0.5;" x1="413" x2="545" y1="116" y2="116"/><line style="stroke:#181818;stroke-width:0.5;" x1="413" x2="545" y1="124" y2="124"/></g><!--class Instrument Profile--><g id="elem_Instrument Profile"><rect fill="#F1F1F1" height="48" id="Instrument Profile" rx="2.5" ry="2.5" style="stroke:#181818;stroke-width:0.5;" width="153" x="223.5" y="84"/><ellipse cx="238.5" cy="100" fill="#ADD1B2" rx="11" ry="11" style="stroke:#181818;stroke-width:1.0;"/><path d="M242.0156,104.0313 L242.0156,106.0625 Q240.5313,106.6719 238.7031,106.6719 Q235.9844,106.6719 234.5313,104.9375 Q233.0781,103.1875 233.0781,100.0781 Q233.0781,97.0781 234.6563,95.2969 Q236.2344,93.5 238.9531,93.5 Q240.8594,93.5 242.5938,94.4219 L241.6406,96.3281 Q240.1406,95.5469 238.9531,95.5469 Q237.3438,95.5469 236.3594,96.7656 Q235.3906,97.9688 235.3906,100.0938 Q235.3906,102.3438 236.2969,103.4844 Q237.2188,104.625 238.9531,104.625 Q239.9844,104.625 242.0156,104.0313 Z " fill="#000000"/><text fill="#000000" font-family="sans-serif" font-size="14" lengthAdjust="spacing" textLength="121" x="252.5" y="104.8467">Instrument Profile</text><line style="stroke:#181818;stroke-width:0.5;" x1="224.5" x2="375.5" y1="116" y2="116"/><line style="stroke:#181818;stroke-width:0.5;" x1="224.5" x2="375.5" y1="124" y2="124"/></g><!--class Service Plan--><g id="elem_Service Plan"><rect codeLine="43" fill="#E59866" height="145.7813" id="Service Plan" rx="2.5" ry="2.5" style="stroke:#181818;stroke-width:0.5;" width="193" x="70.5" y="209"/><ellipse cx="121.25" cy="225" fill="#ADD1B2" rx="11" ry="11" style="stroke:#181818;stroke-width:1.0;"/><path d="M124.7656,229.0313 L124.7656,231.0625 Q123.2813,231.6719 121.4531,231.6719 Q118.7344,231.6719 117.2813,229.9375 Q115.8281,228.1875 115.8281,225.0781 Q115.8281,222.0781 117.4063,220.2969 Q118.9844,218.5 121.7031,218.5 Q123.6094,218.5 125.3438,219.4219 L124.3906,221.3281 Q122.8906,220.5469 121.7031,220.5469 Q120.0938,220.5469 119.1094,221.7656 Q118.1406,222.9688 118.1406,225.0938 Q118.1406,227.3438 119.0469,228.4844 Q119.9688,229.625 121.7031,229.625 Q122.7344,229.625 124.7656,229.0313 Z " fill="#000000"/><text fill="#000000" font-family="sans-serif" font-size="14" lengthAdjust="spacing" textLength="83" x="141.75" y="229.8467">Service Plan</text><line style="stroke:#181818;stroke-width:0.5;" x1="71.5" x2="262.5" y1="241" y2="241"/><text fill="#000000" font-family="sans-serif" font-size="14" lengthAdjust="spacing" textLength="113" x="76.5" y="257.9951">plan_date : Date</text><text fill="#000000" font-family="sans-serif" font-size="14" lengthAdjust="spacing" textLength="115" x="76.5" y="274.292">instrument : Link</text><text fill="#000000" font-family="sans-serif" font-size="14" lengthAdjust="spacing" textLength="181" x="76.5" y="290.5889">estimated_cost : Currency</text><text fill="#000000" font-family="sans-serif" font-size="14" lengthAdjust="spacing" textLength="127" x="76.5" y="306.8857">labor_hours : Float</text><text fill="#000000" font-family="sans-serif" font-size="14" lengthAdjust="spacing" textLength="123" x="76.5" y="323.1826">notes : Small Text</text><text fill="#000000" font-family="sans-serif" font-size="14" lengthAdjust="spacing" textLength="88" x="76.5" y="339.4795">tasks : Table</text><line style="stroke:#181818;stroke-width:0.5;" x1="71.5" x2="262.5" y1="346.7813" y2="346.7813"/></g><!--class Repair Task Log--><g id="elem_Repair Task Log"><rect fill="#F1F1F1" height="48" id="Repair Task Log" rx="2.5" ry="2.5" style="stroke:#181818;stroke-width:0.5;" width="142" x="46" y="84"/><ellipse cx="61" cy="100" fill="#ADD1B2" rx="11" ry="11" style="stroke:#181818;stroke-width:1.0;"/><path d="M64.5156,104.0313 L64.5156,106.0625 Q63.0313,106.6719 61.2031,106.6719 Q58.4844,106.6719 57.0313,104.9375 Q55.5781,103.1875 55.5781,100.0781 Q55.5781,97.0781 57.1563,95.2969 Q58.7344,93.5 61.4531,93.5 Q63.3594,93.5 65.0938,94.4219 L64.1406,96.3281 Q62.6406,95.5469 61.4531,95.5469 Q59.8438,95.5469 58.8594,96.7656 Q57.8906,97.9688 57.8906,100.0938 Q57.8906,102.3438 58.7969,103.4844 Q59.7188,104.625 61.4531,104.625 Q62.4844,104.625 64.5156,104.0313 Z " fill="#000000"/><text fill="#000000" font-family="sans-serif" font-size="14" lengthAdjust="spacing" textLength="110" x="75" y="104.8467">Repair Task Log</text><line style="stroke:#181818;stroke-width:0.5;" x1="47" x2="187" y1="116" y2="116"/><line style="stroke:#181818;stroke-width:0.5;" x1="47" x2="187" y1="124" y2="124"/></g><!--class Service Task Workflow--><g id="elem_Service Task Workflow"><rect codeLine="51" fill="#E59866" height="48" id="Service Task Workflow" rx="2.5" ry="2.5" style="stroke:#181818;stroke-width:0.5;" width="185" x="1141.5" y="258"/><ellipse cx="1156.5" cy="274" fill="#ADD1B2" rx="11" ry="11" style="stroke:#181818;stroke-width:1.0;"/><path d="M1160.0156,278.0313 L1160.0156,280.0625 Q1158.5313,280.6719 1156.7031,280.6719 Q1153.9844,280.6719 1152.5313,278.9375 Q1151.0781,277.1875 1151.0781,274.0781 Q1151.0781,271.0781 1152.6563,269.2969 Q1154.2344,267.5 1156.9531,267.5 Q1158.8594,267.5 1160.5938,268.4219 L1159.6406,270.3281 Q1158.1406,269.5469 1156.9531,269.5469 Q1155.3438,269.5469 1154.3594,270.7656 Q1153.3906,271.9688 1153.3906,274.0938 Q1153.3906,276.3438 1154.2969,277.4844 Q1155.2188,278.625 1156.9531,278.625 Q1157.9844,278.625 1160.0156,278.0313 Z " fill="#000000"/><text fill="#000000" font-family="sans-serif" font-size="14" lengthAdjust="spacing" textLength="153" x="1170.5" y="278.8467">Service Task Workflow</text><line style="stroke:#181818;stroke-width:0.5;" x1="1142.5" x2="1325.5" y1="290" y2="290"/><line style="stroke:#181818;stroke-width:0.5;" x1="1142.5" x2="1325.5" y1="298" y2="298"/></g><!--reverse link Item to Estimate Line Item--><g id="link_Item_Estimate Line Item"><path codeLine="10" d="M726.01,144.37 C734.91,165.33 746.45,192.53 756.9,217.14 " fill="none" id="Item-backto-Estimate Line Item" style="stroke:#181818;stroke-width:1.0;"/><polygon fill="#181818" points="720.85,132.2,719.5103,139.2856,725.5356,143.2474,726.8753,136.1618,720.85,132.2" style="stroke:#181818;stroke-width:1.0;"/><text fill="#000000" font-family="sans-serif" font-size="13" lengthAdjust="spacing" textLength="64" x="739" y="175.0669">part_code</text></g><!--reverse link Inspection Report to Repair Estimate--><g id="link_Inspection Report_Repair Estimate"><path codeLine="18" d="M589.26,319.52 C588.75,343.73 590.63,375.74 601,402 C605.05,412.25 610.51,422.28 616.7,431.8 " fill="none" id="Inspection Report-backto-Repair Estimate" style="stroke:#181818;stroke-width:1.0;"/><polygon fill="#181818" points="589.79,306.27,585.5557,312.107,589.3151,318.2606,593.5494,312.4236,589.79,306.27" style="stroke:#181818;stroke-width:1.0;"/><text fill="#000000" font-family="sans-serif" font-size="13" lengthAdjust="spacing" textLength="133" x="602" y="398.0669">inspection_reference</text></g><!--reverse link Estimate Line Item to Repair Estimate--><g id="link_Estimate Line Item_Repair Estimate"><path codeLine="19" d="M757.82,359.22 C752.32,373.6 746.28,388.38 740,402 C735.5,411.76 730.42,421.86 725.19,431.72 " fill="none" id="Estimate Line Item-backto-Repair Estimate" style="stroke:#181818;stroke-width:1.0;"/><polygon fill="#181818" points="762.51,346.74,756.6558,350.9505,758.2907,357.9738,764.145,353.7633,762.51,346.74" style="stroke:#181818;stroke-width:1.0;"/><text fill="#000000" font-family="sans-serif" font-size="13" lengthAdjust="spacing" textLength="65" x="747" y="398.0669">line_items</text></g><!--reverse link User to Service Task--><g id="link_User_Service Task"><path codeLine="32" d="M580.52,141.62 C567.92,153.76 553.13,167.41 539,179 C537.36,180.35 510.07,199.7 479.68,221.2 " fill="none" id="User-backto-Service Task" style="stroke:#181818;stroke-width:1.0;"/><polygon fill="#181818" points="590.11,132.26,583.0209,133.5807,581.5134,140.6325,588.6025,139.3118,590.11,132.26" style="stroke:#181818;stroke-width:1.0;"/><text fill="#000000" font-family="sans-serif" font-size="13" lengthAdjust="spacing" textLength="77" x="559" y="175.0669">assigned_to</text></g><!--reverse link Workflow State to Service Task--><g id="link_Workflow State_Service Task"><path codeLine="33" d="M452.06,142.77 C447.72,148.98 443.51,155.54 440,162 C430.61,179.27 422.31,198.92 415.48,217.2 " fill="none" id="Workflow State-backto-Service Task" style="stroke:#181818;stroke-width:1.0;"/><polygon fill="#181818" points="459.88,132.09,453.1106,134.575,452.8008,141.7794,459.5702,139.2944,459.88,132.09" style="stroke:#181818;stroke-width:1.0;"/><text fill="#000000" font-family="sans-serif" font-size="13" lengthAdjust="spacing" textLength="93" x="441" y="175.0669">workflow_state</text></g><!--reverse link Instrument Profile to Service Plan--><g id="link_Instrument Profile_Service Plan"><path codeLine="41" d="M273.99,142.63 C259.4,161.51 240.6,185.81 222.85,208.78 " fill="none" id="Instrument Profile-backto-Service Plan" style="stroke:#181818;stroke-width:1.0;"/><polygon fill="#181818" points="282.06,132.2,275.2269,134.5041,274.7256,141.6977,281.5587,139.3937,282.06,132.2" style="stroke:#181818;stroke-width:1.0;"/><text fill="#000000" font-family="sans-serif" font-size="13" lengthAdjust="spacing" textLength="70" x="257" y="175.0669">instrument</text></g><!--reverse link Repair Task Log to Service Plan--><g id="link_Repair Task Log_Service Plan"><path codeLine="42" d="M127.4,144.77 C132.79,163.32 139.58,186.67 146.01,208.78 " fill="none" id="Repair Task Log-backto-Service Plan" style="stroke:#181818;stroke-width:1.0;"/><polygon fill="#181818" points="123.74,132.2,121.5733,139.0779,127.0889,143.7232,129.2555,136.8453,123.74,132.2" style="stroke:#181818;stroke-width:1.0;"/><text fill="#000000" font-family="sans-serif" font-size="13" lengthAdjust="spacing" textLength="34" x="137" y="175.0669">tasks</text></g><!--SRC=[ZLJ1Rjim3BtdAmZlDg2xhTYAeeUkBJ2WXs99iAF0samgH9OCYLwN3VdtKROSMwuBx6ZoaNnyV7A3vG7t19uQr5urpZEQJu7yBrsIQWnQg-qUhgyVdAd8tzp0trLfC0GejjPYJLK17-u_V_roUIcPq__aVdIZu1QFi6Ljz1zaxUmYT5s-KDKQgc3TCu8DXaE0soFSuJ4lARuprGLylBY0uZwmhf497hKbw1DNqA1dLRgAXlPBiB4bG4MXzBg9zAJy3XabUEuY8QaxIEZ5jJx8vuDnoFBjOyyh-DPwJxOyIWHhrrgUnY9X6negk-wYYIYVs2U11dQHkZv3bQSTnHQqMkJ_NWSZ4AK54cPt647JrSisiAl9gtZ7SNdXmRwjoRBILHP-Gs-KXzA4IcIh6qEZdYJPaPZ4DlXiOf2Ts53WOQPPejwv82VC4bBvmTOr6WCR-itdV4kgwe_JJPSZRCNhIRMfnw9aCahlhT1cjof-Ed_O6VSAQ-x4MgnuJI0L8kZiuWprXdIkSBv28X-6Tv2nXod3KUwSn13l_PQE1q_UxRIPh_4appsvBG5NWqiYTtXq-tSguY9Xlc-VdEuR_oUp5SPPouR97I1smMVdrVp5MSSKbau-ckgqT0uOpfh_Iqx_0000]--></g></svg>