<?xml version="1.0" encoding="us-ascii" standalone="no"?><svg xmlns="http://www.w3.org/2000/svg" xmlns:xlink="http://www.w3.org/1999/xlink" contentStyleType="text/css" height="402px" preserveAspectRatio="none" style="width:1319px;height:402px;background:#FFFFFF;" version="1.1" viewBox="0 0 1319 402" width="1319px" zoomAndPan="magnify"><defs/><g><!--cluster repair_portal--><g id="cluster_repair_portal"><path d="M8.5,6 L109.5,6 A3.75,3.75 0 0 1 112,8.5 L119,28.2969 L1309.5,28.2969 A2.5,2.5 0 0 1 1312,30.7969 L1312,392.5 A2.5,2.5 0 0 1 1309.5,395 L8.5,395 A2.5,2.5 0 0 1 6,392.5 L6,8.5 A2.5,2.5 0 0 1 8.5,6 " fill="none" style="stroke:#000000;stroke-width:1.5;"/><line style="stroke:#000000;stroke-width:1.5;" x1="6" x2="119" y1="28.2969" y2="28.2969"/><text fill="#000000" font-family="sans-serif" font-size="14" font-weight="bold" lengthAdjust="spacing" textLength="100" x="10" y="20.9951">repair_portal</text></g><!--cluster qa--><g id="cluster_qa"><path d="M32.5,49 L52.5,49 A3.75,3.75 0 0 1 55,51.5 L62,71.2969 L1285.5,71.2969 A2.5,2.5 0 0 1 1288,73.7969 L1288,368.5 A2.5,2.5 0 0 1 1285.5,371 L32.5,371 A2.5,2.5 0 0 1 30,368.5 L30,51.5 A2.5,2.5 0 0 1 32.5,49 " fill="none" style="stroke:#000000;stroke-width:1.5;"/><line style="stroke:#000000;stroke-width:1.5;" x1="30" x2="62" y1="71.2969" y2="71.2969"/><text fill="#000000" font-family="sans-serif" font-size="14" font-weight="bold" lengthAdjust="spacing" textLength="19" x="34" y="63.9951">qa</text></g><!--class Qa Failure Rate--><g id="elem_Qa Failure Rate"><rect codeLine="2" fill="#D2B4DE" height="48" id="Qa Failure Rate" rx="2.5" ry="2.5" style="stroke:#181818;stroke-width:0.5;" width="136" x="678" y="84"/><ellipse cx="693" cy="100" fill="#ADD1B2" rx="11" ry="11" style="stroke:#181818;stroke-width:1.0;"/><path d="M696.5156,104.0313 L696.5156,106.0625 Q695.0313,106.6719 693.2031,106.6719 Q690.4844,106.6719 689.0313,104.9375 Q687.5781,103.1875 687.5781,100.0781 Q687.5781,97.0781 689.1563,95.2969 Q690.7344,93.5 693.4531,93.5 Q695.3594,93.5 697.0938,94.4219 L696.1406,96.3281 Q694.6406,95.5469 693.4531,95.5469 Q691.8438,95.5469 690.8594,96.7656 Q689.8906,97.9688 689.8906,100.0938 Q689.8906,102.3438 690.7969,103.4844 Q691.7188,104.625 693.4531,104.625 Q694.4844,104.625 696.5156,104.0313 Z " fill="#000000"/><text fill="#000000" font-family="sans-serif" font-size="14" lengthAdjust="spacing" textLength="104" x="707" y="104.8467">Qa Failure Rate</text><line style="stroke:#181818;stroke-width:0.5;" x1="679" x2="813" y1="116" y2="116"/><line style="stroke:#181818;stroke-width:0.5;" x1="679" x2="813" y1="124" y2="124"/></g><!--class Inspection Kpi Report--><g id="elem_Inspection Kpi Report"><rect codeLine="4" fill="#D2B4DE" height="48" id="Inspection Kpi Report" rx="2.5" ry="2.5" style="stroke:#181818;stroke-width:0.5;" width="180" x="849" y="84"/><ellipse cx="864" cy="100" fill="#ADD1B2" rx="11" ry="11" style="stroke:#181818;stroke-width:1.0;"/><path d="M867.5156,104.0313 L867.5156,106.0625 Q866.0313,106.6719 864.2031,106.6719 Q861.4844,106.6719 860.0313,104.9375 Q858.5781,103.1875 858.5781,100.0781 Q858.5781,97.0781 860.1563,95.2969 Q861.7344,93.5 864.4531,93.5 Q866.3594,93.5 868.0938,94.4219 L867.1406,96.3281 Q865.6406,95.5469 864.4531,95.5469 Q862.8438,95.5469 861.8594,96.7656 Q860.8906,97.9688 860.8906,100.0938 Q860.8906,102.3438 861.7969,103.4844 Q862.7188,104.625 864.4531,104.625 Q865.4844,104.625 867.5156,104.0313 Z " fill="#000000"/><text fill="#000000" font-family="sans-serif" font-size="14" lengthAdjust="spacing" textLength="148" x="878" y="104.8467">Inspection Kpi Report</text><line style="stroke:#181818;stroke-width:0.5;" x1="850" x2="1028" y1="116" y2="116"/><line style="stroke:#181818;stroke-width:0.5;" x1="850" x2="1028" y1="124" y2="124"/></g><!--class Qa Failures By Technician--><g id="elem_Qa Failures By Technician"><rect codeLine="6" fill="#D2B4DE" height="48" id="Qa Failures By Technician" rx="2.5" ry="2.5" style="stroke:#181818;stroke-width:0.5;" width="208" x="1064" y="84"/><ellipse cx="1079" cy="100" fill="#ADD1B2" rx="11" ry="11" style="stroke:#181818;stroke-width:1.0;"/><path d="M1082.5156,104.0313 L1082.5156,106.0625 Q1081.0313,106.6719 1079.2031,106.6719 Q1076.4844,106.6719 1075.0313,104.9375 Q1073.5781,103.1875 1073.5781,100.0781 Q1073.5781,97.0781 1075.1563,95.2969 Q1076.7344,93.5 1079.4531,93.5 Q1081.3594,93.5 1083.0938,94.4219 L1082.1406,96.3281 Q1080.6406,95.5469 1079.4531,95.5469 Q1077.8438,95.5469 1076.8594,96.7656 Q1075.8906,97.9688 1075.8906,100.0938 Q1075.8906,102.3438 1076.7969,103.4844 Q1077.7188,104.625 1079.4531,104.625 Q1080.4844,104.625 1082.5156,104.0313 Z " fill="#000000"/><text fill="#000000" font-family="sans-serif" font-size="14" lengthAdjust="spacing" textLength="176" x="1093" y="104.8467">Qa Failures By Technician</text><line style="stroke:#181818;stroke-width:0.5;" x1="1065" x2="1271" y1="116" y2="116"/><line style="stroke:#181818;stroke-width:0.5;" x1="1065" x2="1271" y1="124" y2="124"/></g><!--class User--><g id="elem_User"><rect fill="#F1F1F1" height="48" id="User" rx="2.5" ry="2.5" style="stroke:#181818;stroke-width:0.5;" width="64" x="579" y="84"/><ellipse cx="594" cy="100" fill="#ADD1B2" rx="11" ry="11" style="stroke:#181818;stroke-width:1.0;"/><path d="M597.5156,104.0313 L597.5156,106.0625 Q596.0313,106.6719 594.2031,106.6719 Q591.4844,106.6719 590.0313,104.9375 Q588.5781,103.1875 588.5781,100.0781 Q588.5781,97.0781 590.1563,95.2969 Q591.7344,93.5 594.4531,93.5 Q596.3594,93.5 598.0938,94.4219 L597.1406,96.3281 Q595.6406,95.5469 594.4531,95.5469 Q592.8438,95.5469 591.8594,96.7656 Q590.8906,97.9688 590.8906,100.0938 Q590.8906,102.3438 591.7969,103.4844 Q592.7188,104.625 594.4531,104.625 Q595.4844,104.625 597.5156,104.0313 Z " fill="#000000"/><text fill="#000000" font-family="sans-serif" font-size="14" lengthAdjust="spacing" textLength="32" x="608" y="104.8467">User</text><line style="stroke:#181818;stroke-width:0.5;" x1="580" x2="642" y1="116" y2="116"/><line style="stroke:#181818;stroke-width:0.5;" x1="580" x2="642" y1="124" y2="124"/></g><!--class Final Qa Checklist--><g id="elem_Final Qa Checklist"><rect codeLine="12" fill="#D2B4DE" height="145.7813" id="Final Qa Checklist" rx="2.5" ry="2.5" style="stroke:#181818;stroke-width:0.5;" width="171" x="301.5" y="209"/><ellipse cx="324.6" cy="225" fill="#ADD1B2" rx="11" ry="11" style="stroke:#181818;stroke-width:1.0;"/><path d="M328.1156,229.0313 L328.1156,231.0625 Q326.6313,231.6719 324.8031,231.6719 Q322.0844,231.6719 320.6313,229.9375 Q319.1781,228.1875 319.1781,225.0781 Q319.1781,222.0781 320.7563,220.2969 Q322.3344,218.5 325.0531,218.5 Q326.9594,218.5 328.6938,219.4219 L327.7406,221.3281 Q326.2406,220.5469 325.0531,220.5469 Q323.4438,220.5469 322.4594,221.7656 Q321.4906,222.9688 321.4906,225.0938 Q321.4906,227.3438 322.3969,228.4844 Q323.3188,229.625 325.0531,229.625 Q326.0844,229.625 328.1156,229.0313 Z " fill="#000000"/><text fill="#000000" font-family="sans-serif" font-size="14" lengthAdjust="spacing" textLength="121" x="340.4" y="229.8467">Final Qa Checklist</text><line style="stroke:#181818;stroke-width:0.5;" x1="302.5" x2="471.5" y1="241" y2="241"/><text fill="#000000" font-family="sans-serif" font-size="14" lengthAdjust="spacing" textLength="135" x="307.5" y="257.9951">qa_technician : Link</text><text fill="#000000" font-family="sans-serif" font-size="14" lengthAdjust="spacing" textLength="134" x="307.5" y="274.292">related_repair : Link</text><text fill="#000000" font-family="sans-serif" font-size="14" lengthAdjust="spacing" textLength="157" x="307.5" y="290.5889">checklist_items : Table</text><text fill="#000000" font-family="sans-serif" font-size="14" lengthAdjust="spacing" textLength="159" x="307.5" y="306.8857">overall_passed : Check</text><text fill="#000000" font-family="sans-serif" font-size="14" lengthAdjust="spacing" textLength="117" x="307.5" y="323.1826">comments : Text</text><text fill="#000000" font-family="sans-serif" font-size="14" lengthAdjust="spacing" textLength="142" x="307.5" y="339.4795">workflow_state : Link</text><line style="stroke:#181818;stroke-width:0.5;" x1="302.5" x2="471.5" y1="346.7813" y2="346.7813"/></g><!--class Repair Log--><g id="elem_Repair Log"><rect fill="#F1F1F1" height="48" id="Repair Log" rx="2.5" ry="2.5" style="stroke:#181818;stroke-width:0.5;" width="105" x="438.5" y="84"/><ellipse cx="453.5" cy="100" fill="#ADD1B2" rx="11" ry="11" style="stroke:#181818;stroke-width:1.0;"/><path d="M457.0156,104.0313 L457.0156,106.0625 Q455.5313,106.6719 453.7031,106.6719 Q450.9844,106.6719 449.5313,104.9375 Q448.0781,103.1875 448.0781,100.0781 Q448.0781,97.0781 449.6563,95.2969 Q451.2344,93.5 453.9531,93.5 Q455.8594,93.5 457.5938,94.4219 L456.6406,96.3281 Q455.1406,95.5469 453.9531,95.5469 Q452.3438,95.5469 451.3594,96.7656 Q450.3906,97.9688 450.3906,100.0938 Q450.3906,102.3438 451.2969,103.4844 Q452.2188,104.625 453.9531,104.625 Q454.9844,104.625 457.0156,104.0313 Z " fill="#000000"/><text fill="#000000" font-family="sans-serif" font-size="14" lengthAdjust="spacing" textLength="73" x="467.5" y="104.8467">Repair Log</text><line style="stroke:#181818;stroke-width:0.5;" x1="439.5" x2="542.5" y1="116" y2="116"/><line style="stroke:#181818;stroke-width:0.5;" x1="439.5" x2="542.5" y1="124" y2="124"/></g><!--class Final QA Checklist Item--><g id="elem_Final QA Checklist Item"><rect fill="#F1F1F1" height="48" id="Final QA Checklist Item" rx="2.5" ry="2.5" style="stroke:#181818;stroke-width:0.5;" width="188" x="215" y="84"/><ellipse cx="230" cy="100" fill="#ADD1B2" rx="11" ry="11" style="stroke:#181818;stroke-width:1.0;"/><path d="M233.5156,104.0313 L233.5156,106.0625 Q232.0313,106.6719 230.2031,106.6719 Q227.4844,106.6719 226.0313,104.9375 Q224.5781,103.1875 224.5781,100.0781 Q224.5781,97.0781 226.1563,95.2969 Q227.7344,93.5 230.4531,93.5 Q232.3594,93.5 234.0938,94.4219 L233.1406,96.3281 Q231.6406,95.5469 230.4531,95.5469 Q228.8438,95.5469 227.8594,96.7656 Q226.8906,97.9688 226.8906,100.0938 Q226.8906,102.3438 227.7969,103.4844 Q228.7188,104.625 230.4531,104.625 Q231.4844,104.625 233.5156,104.0313 Z " fill="#000000"/><text fill="#000000" font-family="sans-serif" font-size="14" lengthAdjust="spacing" textLength="156" x="244" y="104.8467">Final QA Checklist Item</text><line style="stroke:#181818;stroke-width:0.5;" x1="216" x2="402" y1="116" y2="116"/><line style="stroke:#181818;stroke-width:0.5;" x1="216" x2="402" y1="124" y2="124"/></g><!--class Workflow State--><g id="elem_Workflow State"><rect fill="#F1F1F1" height="48" id="Workflow State" rx="2.5" ry="2.5" style="stroke:#181818;stroke-width:0.5;" width="134" x="46" y="84"/><ellipse cx="61" cy="100" fill="#ADD1B2" rx="11" ry="11" style="stroke:#181818;stroke-width:1.0;"/><path d="M64.5156,104.0313 L64.5156,106.0625 Q63.0313,106.6719 61.2031,106.6719 Q58.4844,106.6719 57.0313,104.9375 Q55.5781,103.1875 55.5781,100.0781 Q55.5781,97.0781 57.1563,95.2969 Q58.7344,93.5 61.4531,93.5 Q63.3594,93.5 65.0938,94.4219 L64.1406,96.3281 Q62.6406,95.5469 61.4531,95.5469 Q59.8438,95.5469 58.8594,96.7656 Q57.8906,97.9688 57.8906,100.0938 Q57.8906,102.3438 58.7969,103.4844 Q59.7188,104.625 61.4531,104.625 Q62.4844,104.625 64.5156,104.0313 Z " fill="#000000"/><text fill="#000000" font-family="sans-serif" font-size="14" lengthAdjust="spacing" textLength="102" x="75" y="104.8467">Workflow State</text><line style="stroke:#181818;stroke-width:0.5;" x1="47" x2="179" y1="116" y2="116"/><line style="stroke:#181818;stroke-width:0.5;" x1="47" x2="179" y1="124" y2="124"/></g><!--class Final Qa Checklist Item--><g id="elem_Final Qa Checklist Item"><rect codeLine="20" fill="#D2B4DE" height="96.8906" id="Final Qa Checklist Item" rx="2.5" ry="2.5" style="stroke:#181818;stroke-width:0.5;" width="187" x="652.5" y="233.5"/><ellipse cx="667.5" cy="249.5" fill="#ADD1B2" rx="11" ry="11" style="stroke:#181818;stroke-width:1.0;"/><path d="M671.0156,253.5313 L671.0156,255.5625 Q669.5313,256.1719 667.7031,256.1719 Q664.9844,256.1719 663.5313,254.4375 Q662.0781,252.6875 662.0781,249.5781 Q662.0781,246.5781 663.6563,244.7969 Q665.2344,243 667.9531,243 Q669.8594,243 671.5938,243.9219 L670.6406,245.8281 Q669.1406,245.0469 667.9531,245.0469 Q666.3438,245.0469 665.3594,246.2656 Q664.3906,247.4688 664.3906,249.5938 Q664.3906,251.8438 665.2969,252.9844 Q666.2188,254.125 667.9531,254.125 Q668.9844,254.125 671.0156,253.5313 Z " fill="#000000"/><text fill="#000000" font-family="sans-serif" font-size="14" lengthAdjust="spacing" textLength="155" x="681.5" y="254.3467">Final Qa Checklist Item</text><line style="stroke:#181818;stroke-width:0.5;" x1="653.5" x2="838.5" y1="265.5" y2="265.5"/><text fill="#000000" font-family="sans-serif" font-size="14" lengthAdjust="spacing" textLength="122" x="658.5" y="282.4951">description : Data</text><text fill="#000000" font-family="sans-serif" font-size="14" lengthAdjust="spacing" textLength="108" x="658.5" y="298.792">passed : Check</text><text fill="#000000" font-family="sans-serif" font-size="14" lengthAdjust="spacing" textLength="123" x="658.5" y="315.0889">notes : Small Text</text><line style="stroke:#181818;stroke-width:0.5;" x1="653.5" x2="838.5" y1="322.3906" y2="322.3906"/></g><!--class QC Certificate--><g id="elem_QC Certificate"><rect codeLine="25" fill="#D2B4DE" height="48" id="QC Certificate" rx="2.5" ry="2.5" style="stroke:#181818;stroke-width:0.5;" width="126" x="875" y="258"/><ellipse cx="890" cy="274" fill="#ADD1B2" rx="11" ry="11" style="stroke:#181818;stroke-width:1.0;"/><path d="M893.5156,278.0313 L893.5156,280.0625 Q892.0313,280.6719 890.2031,280.6719 Q887.4844,280.6719 886.0313,278.9375 Q884.5781,277.1875 884.5781,274.0781 Q884.5781,271.0781 886.1563,269.2969 Q887.7344,267.5 890.4531,267.5 Q892.3594,267.5 894.0938,268.4219 L893.1406,270.3281 Q891.6406,269.5469 890.4531,269.5469 Q888.8438,269.5469 887.8594,270.7656 Q886.8906,271.9688 886.8906,274.0938 Q886.8906,276.3438 887.7969,277.4844 Q888.7188,278.625 890.4531,278.625 Q891.4844,278.625 893.5156,278.0313 Z " fill="#000000"/><text fill="#000000" font-family="sans-serif" font-size="14" lengthAdjust="spacing" textLength="94" x="904" y="278.8467">QC Certificate</text><line style="stroke:#181818;stroke-width:0.5;" x1="876" x2="1000" y1="290" y2="290"/><line style="stroke:#181818;stroke-width:0.5;" x1="876" x2="1000" y1="298" y2="298"/></g><!--class Quality Inspection--><g id="elem_Quality Inspection"><rect codeLine="27" fill="#D2B4DE" height="48" id="Quality Inspection" rx="2.5" ry="2.5" style="stroke:#181818;stroke-width:0.5;" width="154" x="1036" y="258"/><ellipse cx="1051" cy="274" fill="#ADD1B2" rx="11" ry="11" style="stroke:#181818;stroke-width:1.0;"/><path d="M1054.5156,278.0313 L1054.5156,280.0625 Q1053.0313,280.6719 1051.2031,280.6719 Q1048.4844,280.6719 1047.0313,278.9375 Q1045.5781,277.1875 1045.5781,274.0781 Q1045.5781,271.0781 1047.1563,269.2969 Q1048.7344,267.5 1051.4531,267.5 Q1053.3594,267.5 1055.0938,268.4219 L1054.1406,270.3281 Q1052.6406,269.5469 1051.4531,269.5469 Q1049.8438,269.5469 1048.8594,270.7656 Q1047.8906,271.9688 1047.8906,274.0938 Q1047.8906,276.3438 1048.7969,277.4844 Q1049.7188,278.625 1051.4531,278.625 Q1052.4844,278.625 1054.5156,278.0313 Z " fill="#000000"/><text fill="#000000" font-family="sans-serif" font-size="14" lengthAdjust="spacing" textLength="122" x="1065" y="278.8467">Quality Inspection</text><line style="stroke:#181818;stroke-width:0.5;" x1="1037" x2="1189" y1="290" y2="290"/><line style="stroke:#181818;stroke-width:0.5;" x1="1037" x2="1189" y1="298" y2="298"/></g><!--reverse link User to Final Qa Checklist--><g id="link_User_Final Qa Checklist"><path codeLine="8" d="M588.22,142.97 C579.07,155.17 567.88,168.5 556,179 C531.09,201.02 500.8,220.99 472.77,237.31 " fill="none" id="User-backto-Final Qa Checklist" style="stroke:#181818;stroke-width:1.0;"/><polygon fill="#181818" points="596,132.2,589.2443,134.7221,588.9741,141.9282,595.7298,139.406,596,132.2" style="stroke:#181818;stroke-width:1.0;"/><text fill="#000000" font-family="sans-serif" font-size="13" lengthAdjust="spacing" textLength="88" x="572" y="175.0669">qa_technician</text></g><!--reverse link Repair Log to Final Qa Checklist--><g id="link_Repair Log_Final Qa Checklist"><path codeLine="9" d="M470.18,143.43 C458.84,162.19 444.36,186.14 430.67,208.78 " fill="none" id="Repair Log-backto-Final Qa Checklist" style="stroke:#181818;stroke-width:1.0;"/><polygon fill="#181818" points="476.97,132.2,470.4426,135.2649,470.7612,142.4689,477.2886,139.4041,476.97,132.2" style="stroke:#181818;stroke-width:1.0;"/><text fill="#000000" font-family="sans-serif" font-size="13" lengthAdjust="spacing" textLength="89" x="458" y="175.0669">related_repair</text></g><!--reverse link Final QA Checklist Item to Final Qa Checklist--><g id="link_Final QA Checklist Item_Final Qa Checklist"><path codeLine="10" d="M307.84,145.36 C308.48,156.42 310.19,168.44 314,179 C317.66,189.14 322.63,199.17 328.27,208.76 " fill="none" id="Final QA Checklist Item-backto-Final Qa Checklist" style="stroke:#181818;stroke-width:1.0;"/><polygon fill="#181818" points="307.54,132.03,303.6795,138.1207,307.8168,144.0268,311.6774,137.9361,307.54,132.03" style="stroke:#181818;stroke-width:1.0;"/><text fill="#000000" font-family="sans-serif" font-size="13" lengthAdjust="spacing" textLength="98" x="315" y="175.0669">checklist_items</text></g><!--reverse link Workflow State to Final Qa Checklist--><g id="link_Workflow State_Final Qa Checklist"><path codeLine="11" d="M152.34,140.42 C168.6,152.93 187.86,167.14 206,179 C236.34,198.84 270.75,218.82 301.36,235.78 " fill="none" id="Workflow State-backto-Final Qa Checklist" style="stroke:#181818;stroke-width:1.0;"/><polygon fill="#181818" points="141.61,132.08,143.893,138.9202,151.0851,139.4436,148.8021,132.6035,141.61,132.08" style="stroke:#181818;stroke-width:1.0;"/><text fill="#000000" font-family="sans-serif" font-size="13" lengthAdjust="spacing" textLength="93" x="207" y="175.0669">workflow_state</text></g><!--SRC=[VP9FJm8n4CNl-oaczMQ21-E94181IOXS-6CyRiRk09FjjgKj8Z5yTxkBwxeA73lzlVTc9cDHvhWcS6IHNMgD2wZkjWYztjYeZ5o_3v-9LEWzY1d265dj7C4S0mcu6TqF7aPFaJZMp4HxIpAmqV1i6UPKMfub6pSFWmCiIMuqIqRTfiMB9oVWjjC1CMQD2g9mk26PA_RHkGjRJCEFE17pQXIOclLLbICLPyZIq-H9JJqs54m25LSzPFr8EQ8-4Q_6vIjbzh08rOAkQFVVQEfBj5xAERRP1hHdZIvJrdaijuTfwdyQZ1zBV5CKVymxELGgjJ6MilXH1POIKnIaGyNIHuYLTgUr-V5ooz-B-zrtHbuwjjLTT6640MFnNxOsWShWHH5REyKtvpA48Rd0AvQNRc-sGyNX0CqDjh7Z5m00]--></g></svg>