<?xml version="1.0" encoding="us-ascii" standalone="no"?><svg xmlns="http://www.w3.org/2000/svg" xmlns:xlink="http://www.w3.org/1999/xlink" contentStyleType="text/css" height="1250px" preserveAspectRatio="none" style="width:2291px;height:1250px;background:#FFFFFF;" version="1.1" viewBox="0 0 2291 1250" width="2291px" zoomAndPan="magnify"><defs/><g><!--cluster repair_portal--><g id="cluster_repair_portal"><path d="M8.5,6 L109.5,6 A3.75,3.75 0 0 1 112,8.5 L119,28.2969 L2281.5,28.2969 A2.5,2.5 0 0 1 2284,30.7969 L2284,1240.5 A2.5,2.5 0 0 1 2281.5,1243 L8.5,1243 A2.5,2.5 0 0 1 6,1240.5 L6,8.5 A2.5,2.5 0 0 1 8.5,6 " fill="none" style="stroke:#000000;stroke-width:1.5;"/><line style="stroke:#000000;stroke-width:1.5;" x1="6" x2="119" y1="28.2969" y2="28.2969"/><text fill="#000000" font-family="sans-serif" font-size="14" font-weight="bold" lengthAdjust="spacing" textLength="100" x="10" y="20.9951">repair_portal</text></g><!--cluster intake--><g id="cluster_intake"><path d="M32.5,49 L81.5,49 A3.75,3.75 0 0 1 84,51.5 L91,71.2969 L2257.5,71.2969 A2.5,2.5 0 0 1 2260,73.7969 L2260,1216.5 A2.5,2.5 0 0 1 2257.5,1219 L32.5,1219 A2.5,2.5 0 0 1 30,1216.5 L30,51.5 A2.5,2.5 0 0 1 32.5,49 " fill="none" style="stroke:#000000;stroke-width:1.5;"/><line style="stroke:#000000;stroke-width:1.5;" x1="30" x2="91" y1="71.2969" y2="71.2969"/><text fill="#000000" font-family="sans-serif" font-size="14" font-weight="bold" lengthAdjust="spacing" textLength="48" x="34" y="63.9951">intake</text></g><!--class Cancelled--><g id="elem_Cancelled"><rect codeLine="2" fill="#A9DFBF" height="48" id="Cancelled" rx="2.5" ry="2.5" style="stroke:#181818;stroke-width:0.5;" width="100" x="1588" y="108.5"/><ellipse cx="1603" cy="124.5" fill="#ADD1B2" rx="11" ry="11" style="stroke:#181818;stroke-width:1.0;"/><path d="M1606.5156,128.5313 L1606.5156,130.5625 Q1605.0313,131.1719 1603.2031,131.1719 Q1600.4844,131.1719 1599.0313,129.4375 Q1597.5781,127.6875 1597.5781,124.5781 Q1597.5781,121.5781 1599.1563,119.7969 Q1600.7344,118 1603.4531,118 Q1605.3594,118 1607.0938,118.9219 L1606.1406,120.8281 Q1604.6406,120.0469 1603.4531,120.0469 Q1601.8438,120.0469 1600.8594,121.2656 Q1599.8906,122.4688 1599.8906,124.5938 Q1599.8906,126.8438 1600.7969,127.9844 Q1601.7188,129.125 1603.4531,129.125 Q1604.4844,129.125 1606.5156,128.5313 Z " fill="#000000"/><text fill="#000000" font-family="sans-serif" font-size="14" lengthAdjust="spacing" textLength="68" x="1617" y="129.3467">Cancelled</text><line style="stroke:#181818;stroke-width:0.5;" x1="1589" x2="1687" y1="140.5" y2="140.5"/><line style="stroke:#181818;stroke-width:0.5;" x1="1589" x2="1687" y1="148.5" y2="148.5"/></g><!--class Setup--><g id="elem_Setup"><rect codeLine="4" fill="#A9DFBF" height="48" id="Setup" rx="2.5" ry="2.5" style="stroke:#181818;stroke-width:0.5;" width="73" x="1723.5" y="108.5"/><ellipse cx="1738.5" cy="124.5" fill="#ADD1B2" rx="11" ry="11" style="stroke:#181818;stroke-width:1.0;"/><path d="M1742.0156,128.5313 L1742.0156,130.5625 Q1740.5313,131.1719 1738.7031,131.1719 Q1735.9844,131.1719 1734.5313,129.4375 Q1733.0781,127.6875 1733.0781,124.5781 Q1733.0781,121.5781 1734.6563,119.7969 Q1736.2344,118 1738.9531,118 Q1740.8594,118 1742.5938,118.9219 L1741.6406,120.8281 Q1740.1406,120.0469 1738.9531,120.0469 Q1737.3438,120.0469 1736.3594,121.2656 Q1735.3906,122.4688 1735.3906,124.5938 Q1735.3906,126.8438 1736.2969,127.9844 Q1737.2188,129.125 1738.9531,129.125 Q1739.9844,129.125 1742.0156,128.5313 Z " fill="#000000"/><text fill="#000000" font-family="sans-serif" font-size="14" lengthAdjust="spacing" textLength="41" x="1752.5" y="129.3467">Setup</text><line style="stroke:#181818;stroke-width:0.5;" x1="1724.5" x2="1795.5" y1="140.5" y2="140.5"/><line style="stroke:#181818;stroke-width:0.5;" x1="1724.5" x2="1795.5" y1="148.5" y2="148.5"/></g><!--class New--><g id="elem_New"><rect codeLine="6" fill="#A9DFBF" height="48" id="New" rx="2.5" ry="2.5" style="stroke:#181818;stroke-width:0.5;" width="62" x="1832" y="108.5"/><ellipse cx="1847" cy="124.5" fill="#ADD1B2" rx="11" ry="11" style="stroke:#181818;stroke-width:1.0;"/><path d="M1850.5156,128.5313 L1850.5156,130.5625 Q1849.0313,131.1719 1847.2031,131.1719 Q1844.4844,131.1719 1843.0313,129.4375 Q1841.5781,127.6875 1841.5781,124.5781 Q1841.5781,121.5781 1843.1563,119.7969 Q1844.7344,118 1847.4531,118 Q1849.3594,118 1851.0938,118.9219 L1850.1406,120.8281 Q1848.6406,120.0469 1847.4531,120.0469 Q1845.8438,120.0469 1844.8594,121.2656 Q1843.8906,122.4688 1843.8906,124.5938 Q1843.8906,126.8438 1844.7969,127.9844 Q1845.7188,129.125 1847.4531,129.125 Q1848.4844,129.125 1850.5156,128.5313 Z " fill="#000000"/><text fill="#000000" font-family="sans-serif" font-size="14" lengthAdjust="spacing" textLength="30" x="1861" y="129.3467">New</text><line style="stroke:#181818;stroke-width:0.5;" x1="1833" x2="1893" y1="140.5" y2="140.5"/><line style="stroke:#181818;stroke-width:0.5;" x1="1833" x2="1893" y1="148.5" y2="148.5"/></g><!--class QC--><g id="elem_QC"><rect codeLine="8" fill="#A9DFBF" height="48" id="QC" rx="2.5" ry="2.5" style="stroke:#181818;stroke-width:0.5;" width="53" x="1929.5" y="108.5"/><ellipse cx="1944.5" cy="124.5" fill="#ADD1B2" rx="11" ry="11" style="stroke:#181818;stroke-width:1.0;"/><path d="M1948.0156,128.5313 L1948.0156,130.5625 Q1946.5313,131.1719 1944.7031,131.1719 Q1941.9844,131.1719 1940.5313,129.4375 Q1939.0781,127.6875 1939.0781,124.5781 Q1939.0781,121.5781 1940.6563,119.7969 Q1942.2344,118 1944.9531,118 Q1946.8594,118 1948.5938,118.9219 L1947.6406,120.8281 Q1946.1406,120.0469 1944.9531,120.0469 Q1943.3438,120.0469 1942.3594,121.2656 Q1941.3906,122.4688 1941.3906,124.5938 Q1941.3906,126.8438 1942.2969,127.9844 Q1943.2188,129.125 1944.9531,129.125 Q1945.9844,129.125 1948.0156,128.5313 Z " fill="#000000"/><text fill="#000000" font-family="sans-serif" font-size="14" lengthAdjust="spacing" textLength="21" x="1958.5" y="129.3467">QC</text><line style="stroke:#181818;stroke-width:0.5;" x1="1930.5" x2="1981.5" y1="140.5" y2="140.5"/><line style="stroke:#181818;stroke-width:0.5;" x1="1930.5" x2="1981.5" y1="148.5" y2="148.5"/></g><!--class Flagged--><g id="elem_Flagged"><rect codeLine="10" fill="#A9DFBF" height="48" id="Flagged" rx="2.5" ry="2.5" style="stroke:#181818;stroke-width:0.5;" width="87" x="2017.5" y="108.5"/><ellipse cx="2032.5" cy="124.5" fill="#ADD1B2" rx="11" ry="11" style="stroke:#181818;stroke-width:1.0;"/><path d="M2036.0156,128.5313 L2036.0156,130.5625 Q2034.5313,131.1719 2032.7031,131.1719 Q2029.9844,131.1719 2028.5313,129.4375 Q2027.0781,127.6875 2027.0781,124.5781 Q2027.0781,121.5781 2028.6563,119.7969 Q2030.2344,118 2032.9531,118 Q2034.8594,118 2036.5938,118.9219 L2035.6406,120.8281 Q2034.1406,120.0469 2032.9531,120.0469 Q2031.3438,120.0469 2030.3594,121.2656 Q2029.3906,122.4688 2029.3906,124.5938 Q2029.3906,126.8438 2030.2969,127.9844 Q2031.2188,129.125 2032.9531,129.125 Q2033.9844,129.125 2036.0156,128.5313 Z " fill="#000000"/><text fill="#000000" font-family="sans-serif" font-size="14" lengthAdjust="spacing" textLength="55" x="2046.5" y="129.3467">Flagged</text><line style="stroke:#181818;stroke-width:0.5;" x1="2018.5" x2="2103.5" y1="140.5" y2="140.5"/><line style="stroke:#181818;stroke-width:0.5;" x1="2018.5" x2="2103.5" y1="148.5" y2="148.5"/></g><!--class Inspection--><g id="elem_Inspection"><rect codeLine="12" fill="#A9DFBF" height="48" id="Inspection" rx="2.5" ry="2.5" style="stroke:#181818;stroke-width:0.5;" width="104" x="2140" y="108.5"/><ellipse cx="2155" cy="124.5" fill="#ADD1B2" rx="11" ry="11" style="stroke:#181818;stroke-width:1.0;"/><path d="M2158.5156,128.5313 L2158.5156,130.5625 Q2157.0313,131.1719 2155.2031,131.1719 Q2152.4844,131.1719 2151.0313,129.4375 Q2149.5781,127.6875 2149.5781,124.5781 Q2149.5781,121.5781 2151.1563,119.7969 Q2152.7344,118 2155.4531,118 Q2157.3594,118 2159.0938,118.9219 L2158.1406,120.8281 Q2156.6406,120.0469 2155.4531,120.0469 Q2153.8438,120.0469 2152.8594,121.2656 Q2151.8906,122.4688 2151.8906,124.5938 Q2151.8906,126.8438 2152.7969,127.9844 Q2153.7188,129.125 2155.4531,129.125 Q2156.4844,129.125 2158.5156,128.5313 Z " fill="#000000"/><text fill="#000000" font-family="sans-serif" font-size="14" lengthAdjust="spacing" textLength="72" x="2169" y="129.3467">Inspection</text><line style="stroke:#181818;stroke-width:0.5;" x1="2141" x2="2243" y1="140.5" y2="140.5"/><line style="stroke:#181818;stroke-width:0.5;" x1="2141" x2="2243" y1="148.5" y2="148.5"/></g><!--class Escalated--><g id="elem_Escalated"><rect codeLine="14" fill="#A9DFBF" height="48" id="Escalated" rx="2.5" ry="2.5" style="stroke:#181818;stroke-width:0.5;" width="99" x="1384.5" y="461.5"/><ellipse cx="1399.5" cy="477.5" fill="#ADD1B2" rx="11" ry="11" style="stroke:#181818;stroke-width:1.0;"/><path d="M1403.0156,481.5313 L1403.0156,483.5625 Q1401.5313,484.1719 1399.7031,484.1719 Q1396.9844,484.1719 1395.5313,482.4375 Q1394.0781,480.6875 1394.0781,477.5781 Q1394.0781,474.5781 1395.6563,472.7969 Q1397.2344,471 1399.9531,471 Q1401.8594,471 1403.5938,471.9219 L1402.6406,473.8281 Q1401.1406,473.0469 1399.9531,473.0469 Q1398.3438,473.0469 1397.3594,474.2656 Q1396.3906,475.4688 1396.3906,477.5938 Q1396.3906,479.8438 1397.2969,480.9844 Q1398.2188,482.125 1399.9531,482.125 Q1400.9844,482.125 1403.0156,481.5313 Z " fill="#000000"/><text fill="#000000" font-family="sans-serif" font-size="14" lengthAdjust="spacing" textLength="67" x="1413.5" y="482.3467">Escalated</text><line style="stroke:#181818;stroke-width:0.5;" x1="1385.5" x2="1482.5" y1="493.5" y2="493.5"/><line style="stroke:#181818;stroke-width:0.5;" x1="1385.5" x2="1482.5" y1="501.5" y2="501.5"/></g><!--class Hold--><g id="elem_Hold"><rect codeLine="16" fill="#A9DFBF" height="48" id="Hold" rx="2.5" ry="2.5" style="stroke:#181818;stroke-width:0.5;" width="63" x="1518.5" y="461.5"/><ellipse cx="1533.5" cy="477.5" fill="#ADD1B2" rx="11" ry="11" style="stroke:#181818;stroke-width:1.0;"/><path d="M1537.0156,481.5313 L1537.0156,483.5625 Q1535.5313,484.1719 1533.7031,484.1719 Q1530.9844,484.1719 1529.5313,482.4375 Q1528.0781,480.6875 1528.0781,477.5781 Q1528.0781,474.5781 1529.6563,472.7969 Q1531.2344,471 1533.9531,471 Q1535.8594,471 1537.5938,471.9219 L1536.6406,473.8281 Q1535.1406,473.0469 1533.9531,473.0469 Q1532.3438,473.0469 1531.3594,474.2656 Q1530.3906,475.4688 1530.3906,477.5938 Q1530.3906,479.8438 1531.2969,480.9844 Q1532.2188,482.125 1533.9531,482.125 Q1534.9844,482.125 1537.0156,481.5313 Z " fill="#000000"/><text fill="#000000" font-family="sans-serif" font-size="14" lengthAdjust="spacing" textLength="31" x="1547.5" y="482.3467">Hold</text><line style="stroke:#181818;stroke-width:0.5;" x1="1519.5" x2="1580.5" y1="493.5" y2="493.5"/><line style="stroke:#181818;stroke-width:0.5;" x1="1519.5" x2="1580.5" y1="501.5" y2="501.5"/></g><!--class Received--><g id="elem_Received"><rect codeLine="18" fill="#A9DFBF" height="48" id="Received" rx="2.5" ry="2.5" style="stroke:#181818;stroke-width:0.5;" width="96" x="1617" y="461.5"/><ellipse cx="1632" cy="477.5" fill="#ADD1B2" rx="11" ry="11" style="stroke:#181818;stroke-width:1.0;"/><path d="M1635.5156,481.5313 L1635.5156,483.5625 Q1634.0313,484.1719 1632.2031,484.1719 Q1629.4844,484.1719 1628.0313,482.4375 Q1626.5781,480.6875 1626.5781,477.5781 Q1626.5781,474.5781 1628.1563,472.7969 Q1629.7344,471 1632.4531,471 Q1634.3594,471 1636.0938,471.9219 L1635.1406,473.8281 Q1633.6406,473.0469 1632.4531,473.0469 Q1630.8438,473.0469 1629.8594,474.2656 Q1628.8906,475.4688 1628.8906,477.5938 Q1628.8906,479.8438 1629.7969,480.9844 Q1630.7188,482.125 1632.4531,482.125 Q1633.4844,482.125 1635.5156,481.5313 Z " fill="#000000"/><text fill="#000000" font-family="sans-serif" font-size="14" lengthAdjust="spacing" textLength="64" x="1646" y="482.3467">Received</text><line style="stroke:#181818;stroke-width:0.5;" x1="1618" x2="1712" y1="493.5" y2="493.5"/><line style="stroke:#181818;stroke-width:0.5;" x1="1618" x2="1712" y1="501.5" y2="501.5"/></g><!--class Confirmed--><g id="elem_Confirmed"><rect codeLine="20" fill="#A9DFBF" height="48" id="Confirmed" rx="2.5" ry="2.5" style="stroke:#181818;stroke-width:0.5;" width="103" x="1748.5" y="461.5"/><ellipse cx="1763.5" cy="477.5" fill="#ADD1B2" rx="11" ry="11" style="stroke:#181818;stroke-width:1.0;"/><path d="M1767.0156,481.5313 L1767.0156,483.5625 Q1765.5313,484.1719 1763.7031,484.1719 Q1760.9844,484.1719 1759.5313,482.4375 Q1758.0781,480.6875 1758.0781,477.5781 Q1758.0781,474.5781 1759.6563,472.7969 Q1761.2344,471 1763.9531,471 Q1765.8594,471 1767.5938,471.9219 L1766.6406,473.8281 Q1765.1406,473.0469 1763.9531,473.0469 Q1762.3438,473.0469 1761.3594,474.2656 Q1760.3906,475.4688 1760.3906,477.5938 Q1760.3906,479.8438 1761.2969,480.9844 Q1762.2188,482.125 1763.9531,482.125 Q1764.9844,482.125 1767.0156,481.5313 Z " fill="#000000"/><text fill="#000000" font-family="sans-serif" font-size="14" lengthAdjust="spacing" textLength="71" x="1777.5" y="482.3467">Confirmed</text><line style="stroke:#181818;stroke-width:0.5;" x1="1749.5" x2="1850.5" y1="493.5" y2="493.5"/><line style="stroke:#181818;stroke-width:0.5;" x1="1749.5" x2="1850.5" y1="501.5" y2="501.5"/></g><!--class Loaners Outstanding--><g id="elem_Loaners Outstanding"><rect codeLine="22" fill="#A9DFBF" height="48" id="Loaners Outstanding" rx="2.5" ry="2.5" style="stroke:#181818;stroke-width:0.5;" width="176" x="1887" y="461.5"/><ellipse cx="1902" cy="477.5" fill="#ADD1B2" rx="11" ry="11" style="stroke:#181818;stroke-width:1.0;"/><path d="M1905.5156,481.5313 L1905.5156,483.5625 Q1904.0313,484.1719 1902.2031,484.1719 Q1899.4844,484.1719 1898.0313,482.4375 Q1896.5781,480.6875 1896.5781,477.5781 Q1896.5781,474.5781 1898.1563,472.7969 Q1899.7344,471 1902.4531,471 Q1904.3594,471 1906.0938,471.9219 L1905.1406,473.8281 Q1903.6406,473.0469 1902.4531,473.0469 Q1900.8438,473.0469 1899.8594,474.2656 Q1898.8906,475.4688 1898.8906,477.5938 Q1898.8906,479.8438 1899.7969,480.9844 Q1900.7188,482.125 1902.4531,482.125 Q1903.4844,482.125 1905.5156,481.5313 Z " fill="#000000"/><text fill="#000000" font-family="sans-serif" font-size="14" lengthAdjust="spacing" textLength="144" x="1916" y="482.3467">Loaners Outstanding</text><line style="stroke:#181818;stroke-width:0.5;" x1="1888" x2="2062" y1="493.5" y2="493.5"/><line style="stroke:#181818;stroke-width:0.5;" x1="1888" x2="2062" y1="501.5" y2="501.5"/></g><!--class Loaner Turnover--><g id="elem_Loaner Turnover"><rect codeLine="24" fill="#A9DFBF" height="48" id="Loaner Turnover" rx="2.5" ry="2.5" style="stroke:#181818;stroke-width:0.5;" width="145" x="2098.5" y="461.5"/><ellipse cx="2113.5" cy="477.5" fill="#ADD1B2" rx="11" ry="11" style="stroke:#181818;stroke-width:1.0;"/><path d="M2117.0156,481.5313 L2117.0156,483.5625 Q2115.5313,484.1719 2113.7031,484.1719 Q2110.9844,484.1719 2109.5313,482.4375 Q2108.0781,480.6875 2108.0781,477.5781 Q2108.0781,474.5781 2109.6563,472.7969 Q2111.2344,471 2113.9531,471 Q2115.8594,471 2117.5938,471.9219 L2116.6406,473.8281 Q2115.1406,473.0469 2113.9531,473.0469 Q2112.3438,473.0469 2111.3594,474.2656 Q2110.3906,475.4688 2110.3906,477.5938 Q2110.3906,479.8438 2111.2969,480.9844 Q2112.2188,482.125 2113.9531,482.125 Q2114.9844,482.125 2117.0156,481.5313 Z " fill="#000000"/><text fill="#000000" font-family="sans-serif" font-size="14" lengthAdjust="spacing" textLength="113" x="2127.5" y="482.3467">Loaner Turnover</text><line style="stroke:#181818;stroke-width:0.5;" x1="2099.5" x2="2242.5" y1="493.5" y2="493.5"/><line style="stroke:#181818;stroke-width:0.5;" x1="2099.5" x2="2242.5" y1="501.5" y2="501.5"/></g><!--class Intake By Day--><g id="elem_Intake By Day"><rect codeLine="26" fill="#A9DFBF" height="48" id="Intake By Day" rx="2.5" ry="2.5" style="stroke:#181818;stroke-width:0.5;" width="125" x="1039.5" y="839"/><ellipse cx="1054.5" cy="855" fill="#ADD1B2" rx="11" ry="11" style="stroke:#181818;stroke-width:1.0;"/><path d="M1058.0156,859.0313 L1058.0156,861.0625 Q1056.5313,861.6719 1054.7031,861.6719 Q1051.9844,861.6719 1050.5313,859.9375 Q1049.0781,858.1875 1049.0781,855.0781 Q1049.0781,852.0781 1050.6563,850.2969 Q1052.2344,848.5 1054.9531,848.5 Q1056.8594,848.5 1058.5938,849.4219 L1057.6406,851.3281 Q1056.1406,850.5469 1054.9531,850.5469 Q1053.3438,850.5469 1052.3594,851.7656 Q1051.3906,852.9688 1051.3906,855.0938 Q1051.3906,857.3438 1052.2969,858.4844 Q1053.2188,859.625 1054.9531,859.625 Q1055.9844,859.625 1058.0156,859.0313 Z " fill="#000000"/><text fill="#000000" font-family="sans-serif" font-size="14" lengthAdjust="spacing" textLength="93" x="1068.5" y="859.8467">Intake By Day</text><line style="stroke:#181818;stroke-width:0.5;" x1="1040.5" x2="1163.5" y1="871" y2="871"/><line style="stroke:#181818;stroke-width:0.5;" x1="1040.5" x2="1163.5" y1="879" y2="879"/></g><!--class Follow Up Compliance--><g id="elem_Follow Up Compliance"><rect codeLine="32" fill="#A9DFBF" height="48" id="Follow Up Compliance" rx="2.5" ry="2.5" style="stroke:#181818;stroke-width:0.5;" width="183" x="1199.5" y="839"/><ellipse cx="1214.5" cy="855" fill="#ADD1B2" rx="11" ry="11" style="stroke:#181818;stroke-width:1.0;"/><path d="M1218.0156,859.0313 L1218.0156,861.0625 Q1216.5313,861.6719 1214.7031,861.6719 Q1211.9844,861.6719 1210.5313,859.9375 Q1209.0781,858.1875 1209.0781,855.0781 Q1209.0781,852.0781 1210.6563,850.2969 Q1212.2344,848.5 1214.9531,848.5 Q1216.8594,848.5 1218.5938,849.4219 L1217.6406,851.3281 Q1216.1406,850.5469 1214.9531,850.5469 Q1213.3438,850.5469 1212.3594,851.7656 Q1211.3906,852.9688 1211.3906,855.0938 Q1211.3906,857.3438 1212.2969,858.4844 Q1213.2188,859.625 1214.9531,859.625 Q1215.9844,859.625 1218.0156,859.0313 Z " fill="#000000"/><text fill="#000000" font-family="sans-serif" font-size="14" lengthAdjust="spacing" textLength="151" x="1228.5" y="859.8467">Follow Up Compliance</text><line style="stroke:#181818;stroke-width:0.5;" x1="1200.5" x2="1381.5" y1="871" y2="871"/><line style="stroke:#181818;stroke-width:0.5;" x1="1200.5" x2="1381.5" y1="879" y2="879"/></g><!--class Upcoming Appointments--><g id="elem_Upcoming Appointments"><rect codeLine="30" fill="#A9DFBF" height="48" id="Upcoming Appointments" rx="2.5" ry="2.5" style="stroke:#181818;stroke-width:0.5;" width="203" x="1417.5" y="839"/><ellipse cx="1432.5" cy="855" fill="#ADD1B2" rx="11" ry="11" style="stroke:#181818;stroke-width:1.0;"/><path d="M1436.0156,859.0313 L1436.0156,861.0625 Q1434.5313,861.6719 1432.7031,861.6719 Q1429.9844,861.6719 1428.5313,859.9375 Q1427.0781,858.1875 1427.0781,855.0781 Q1427.0781,852.0781 1428.6563,850.2969 Q1430.2344,848.5 1432.9531,848.5 Q1434.8594,848.5 1436.5938,849.4219 L1435.6406,851.3281 Q1434.1406,850.5469 1432.9531,850.5469 Q1431.3438,850.5469 1430.3594,851.7656 Q1429.3906,852.9688 1429.3906,855.0938 Q1429.3906,857.3438 1430.2969,858.4844 Q1431.2188,859.625 1432.9531,859.625 Q1433.9844,859.625 1436.0156,859.0313 Z " fill="#000000"/><text fill="#000000" font-family="sans-serif" font-size="14" lengthAdjust="spacing" textLength="171" x="1446.5" y="859.8467">Upcoming Appointments</text><line style="stroke:#181818;stroke-width:0.5;" x1="1418.5" x2="1619.5" y1="871" y2="871"/><line style="stroke:#181818;stroke-width:0.5;" x1="1418.5" x2="1619.5" y1="879" y2="879"/></g><!--class Deposit Balance Aging--><g id="elem_Deposit Balance Aging"><rect codeLine="34" fill="#A9DFBF" height="48" id="Deposit Balance Aging" rx="2.5" ry="2.5" style="stroke:#181818;stroke-width:0.5;" width="188" x="1656" y="839"/><ellipse cx="1671" cy="855" fill="#ADD1B2" rx="11" ry="11" style="stroke:#181818;stroke-width:1.0;"/><path d="M1674.5156,859.0313 L1674.5156,861.0625 Q1673.0313,861.6719 1671.2031,861.6719 Q1668.4844,861.6719 1667.0313,859.9375 Q1665.5781,858.1875 1665.5781,855.0781 Q1665.5781,852.0781 1667.1563,850.2969 Q1668.7344,848.5 1671.4531,848.5 Q1673.3594,848.5 1675.0938,849.4219 L1674.1406,851.3281 Q1672.6406,850.5469 1671.4531,850.5469 Q1669.8438,850.5469 1668.8594,851.7656 Q1667.8906,852.9688 1667.8906,855.0938 Q1667.8906,857.3438 1668.7969,858.4844 Q1669.7188,859.625 1671.4531,859.625 Q1672.4844,859.625 1674.5156,859.0313 Z " fill="#000000"/><text fill="#000000" font-family="sans-serif" font-size="14" lengthAdjust="spacing" textLength="156" x="1685" y="859.8467">Deposit Balance Aging</text><line style="stroke:#181818;stroke-width:0.5;" x1="1657" x2="1843" y1="871" y2="871"/><line style="stroke:#181818;stroke-width:0.5;" x1="1657" x2="1843" y1="879" y2="879"/></g><!--class Loaner Return Flags--><g id="elem_Loaner Return Flags"><rect codeLine="36" fill="#A9DFBF" height="48" id="Loaner Return Flags" rx="2.5" ry="2.5" style="stroke:#181818;stroke-width:0.5;" width="170" x="1879" y="839"/><ellipse cx="1894" cy="855" fill="#ADD1B2" rx="11" ry="11" style="stroke:#181818;stroke-width:1.0;"/><path d="M1897.5156,859.0313 L1897.5156,861.0625 Q1896.0313,861.6719 1894.2031,861.6719 Q1891.4844,861.6719 1890.0313,859.9375 Q1888.5781,858.1875 1888.5781,855.0781 Q1888.5781,852.0781 1890.1563,850.2969 Q1891.7344,848.5 1894.4531,848.5 Q1896.3594,848.5 1898.0938,849.4219 L1897.1406,851.3281 Q1895.6406,850.5469 1894.4531,850.5469 Q1892.8438,850.5469 1891.8594,851.7656 Q1890.8906,852.9688 1890.8906,855.0938 Q1890.8906,857.3438 1891.7969,858.4844 Q1892.7188,859.625 1894.4531,859.625 Q1895.4844,859.625 1897.5156,859.0313 Z " fill="#000000"/><text fill="#000000" font-family="sans-serif" font-size="14" lengthAdjust="spacing" textLength="138" x="1908" y="859.8467">Loaner Return Flags</text><line style="stroke:#181818;stroke-width:0.5;" x1="1880" x2="2048" y1="871" y2="871"/><line style="stroke:#181818;stroke-width:0.5;" x1="1880" x2="2048" y1="879" y2="879"/></g><!--class Customer--><g id="elem_Customer"><rect fill="#F1F1F1" height="48" id="Customer" rx="2.5" ry="2.5" style="stroke:#181818;stroke-width:0.5;" width="100" x="1453" y="108.5"/><ellipse cx="1468" cy="124.5" fill="#ADD1B2" rx="11" ry="11" style="stroke:#181818;stroke-width:1.0;"/><path d="M1471.5156,128.5313 L1471.5156,130.5625 Q1470.0313,131.1719 1468.2031,131.1719 Q1465.4844,131.1719 1464.0313,129.4375 Q1462.5781,127.6875 1462.5781,124.5781 Q1462.5781,121.5781 1464.1563,119.7969 Q1465.7344,118 1468.4531,118 Q1470.3594,118 1472.0938,118.9219 L1471.1406,120.8281 Q1469.6406,120.0469 1468.4531,120.0469 Q1466.8438,120.0469 1465.8594,121.2656 Q1464.8906,122.4688 1464.8906,124.5938 Q1464.8906,126.8438 1465.7969,127.9844 Q1466.7188,129.125 1468.4531,129.125 Q1469.4844,129.125 1471.5156,128.5313 Z " fill="#000000"/><text fill="#000000" font-family="sans-serif" font-size="14" lengthAdjust="spacing" textLength="68" x="1482" y="129.3467">Customer</text><line style="stroke:#181818;stroke-width:0.5;" x1="1454" x2="1552" y1="140.5" y2="140.5"/><line style="stroke:#181818;stroke-width:0.5;" x1="1454" x2="1552" y1="148.5" y2="148.5"/></g><!--class Clarinet Intake Request--><g id="elem_Clarinet Intake Request"><rect codeLine="39" fill="#A9DFBF" height="162.0781" id="Clarinet Intake Request" rx="2.5" ry="2.5" style="stroke:#181818;stroke-width:0.5;" width="222" x="860" y="404.5"/><ellipse cx="888.05" cy="420.5" fill="#ADD1B2" rx="11" ry="11" style="stroke:#181818;stroke-width:1.0;"/><path d="M891.5656,424.5313 L891.5656,426.5625 Q890.0813,427.1719 888.2531,427.1719 Q885.5344,427.1719 884.0813,425.4375 Q882.6281,423.6875 882.6281,420.5781 Q882.6281,417.5781 884.2063,415.7969 Q885.7844,414 888.5031,414 Q890.4094,414 892.1438,414.9219 L891.1906,416.8281 Q889.6906,416.0469 888.5031,416.0469 Q886.8938,416.0469 885.9094,417.2656 Q884.9406,418.4688 884.9406,420.5938 Q884.9406,422.8438 885.8469,423.9844 Q886.7688,425.125 888.5031,425.125 Q889.5344,425.125 891.5656,424.5313 Z " fill="#000000"/><text fill="#000000" font-family="sans-serif" font-size="14" lengthAdjust="spacing" textLength="161" x="904.95" y="425.3467">Clarinet Intake Request</text><line style="stroke:#181818;stroke-width:0.5;" x1="861" x2="1081" y1="436.5" y2="436.5"/><text fill="#000000" font-family="sans-serif" font-size="14" lengthAdjust="spacing" textLength="142" x="866" y="453.4951">serial_number : Data</text><text fill="#000000" font-family="sans-serif" font-size="14" lengthAdjust="spacing" textLength="106" x="866" y="469.792">customer : Link</text><text fill="#000000" font-family="sans-serif" font-size="14" lengthAdjust="spacing" textLength="198" x="866" y="486.0889">instrument_category : Select</text><text fill="#000000" font-family="sans-serif" font-size="14" lengthAdjust="spacing" textLength="143" x="866" y="502.3857">received_date : Date</text><text fill="#000000" font-family="sans-serif" font-size="14" lengthAdjust="spacing" textLength="111" x="866" y="518.6826">due_date : Date</text><text fill="#000000" font-family="sans-serif" font-size="14" lengthAdjust="spacing" textLength="156" x="866" y="534.9795">customer_notes : Text</text><text fill="#000000" font-family="sans-serif" font-size="14" lengthAdjust="spacing" textLength="210" x="866" y="551.2764">inspection_completed : Check</text><line style="stroke:#181818;stroke-width:0.5;" x1="861" x2="1081" y1="558.5781" y2="558.5781"/></g><!--class Overdue Intakes--><g id="elem_Overdue Intakes"><rect codeLine="48" fill="#A9DFBF" height="48" id="Overdue Intakes" rx="2.5" ry="2.5" style="stroke:#181818;stroke-width:0.5;" width="145" x="2084.5" y="839"/><ellipse cx="2099.5" cy="855" fill="#ADD1B2" rx="11" ry="11" style="stroke:#181818;stroke-width:1.0;"/><path d="M2103.0156,859.0313 L2103.0156,861.0625 Q2101.5313,861.6719 2099.7031,861.6719 Q2096.9844,861.6719 2095.5313,859.9375 Q2094.0781,858.1875 2094.0781,855.0781 Q2094.0781,852.0781 2095.6563,850.2969 Q2097.2344,848.5 2099.9531,848.5 Q2101.8594,848.5 2103.5938,849.4219 L2102.6406,851.3281 Q2101.1406,850.5469 2099.9531,850.5469 Q2098.3438,850.5469 2097.3594,851.7656 Q2096.3906,852.9688 2096.3906,855.0938 Q2096.3906,857.3438 2097.2969,858.4844 Q2098.2188,859.625 2099.9531,859.625 Q2100.9844,859.625 2103.0156,859.0313 Z " fill="#000000"/><text fill="#000000" font-family="sans-serif" font-size="14" lengthAdjust="spacing" textLength="113" x="2113.5" y="859.8467">Overdue Intakes</text><line style="stroke:#181818;stroke-width:0.5;" x1="2085.5" x2="2228.5" y1="871" y2="871"/><line style="stroke:#181818;stroke-width:0.5;" x1="2085.5" x2="2228.5" y1="879" y2="879"/></g><!--class Appointments By Week--><g id="elem_Appointments By Week"><rect codeLine="50" fill="#A9DFBF" height="48" id="Appointments By Week" rx="2.5" ry="2.5" style="stroke:#181818;stroke-width:0.5;" width="193" x="965.5" y="1021.5"/><ellipse cx="980.5" cy="1037.5" fill="#ADD1B2" rx="11" ry="11" style="stroke:#181818;stroke-width:1.0;"/><path d="M984.0156,1041.5313 L984.0156,1043.5625 Q982.5313,1044.1719 980.7031,1044.1719 Q977.9844,1044.1719 976.5313,1042.4375 Q975.0781,1040.6875 975.0781,1037.5781 Q975.0781,1034.5781 976.6563,1032.7969 Q978.2344,1031 980.9531,1031 Q982.8594,1031 984.5938,1031.9219 L983.6406,1033.8281 Q982.1406,1033.0469 980.9531,1033.0469 Q979.3438,1033.0469 978.3594,1034.2656 Q977.3906,1035.4688 977.3906,1037.5938 Q977.3906,1039.8438 978.2969,1040.9844 Q979.2188,1042.125 980.9531,1042.125 Q981.9844,1042.125 984.0156,1041.5313 Z " fill="#000000"/><text fill="#000000" font-family="sans-serif" font-size="14" lengthAdjust="spacing" textLength="161" x="994.5" y="1042.3467">Appointments By Week</text><line style="stroke:#181818;stroke-width:0.5;" x1="966.5" x2="1157.5" y1="1053.5" y2="1053.5"/><line style="stroke:#181818;stroke-width:0.5;" x1="966.5" x2="1157.5" y1="1061.5" y2="1061.5"/></g><!--class Intakes Due Soon--><g id="elem_Intakes Due Soon"><rect codeLine="52" fill="#A9DFBF" height="48" id="Intakes Due Soon" rx="2.5" ry="2.5" style="stroke:#181818;stroke-width:0.5;" width="155" x="1193.5" y="1021.5"/><ellipse cx="1208.5" cy="1037.5" fill="#ADD1B2" rx="11" ry="11" style="stroke:#181818;stroke-width:1.0;"/><path d="M1212.0156,1041.5313 L1212.0156,1043.5625 Q1210.5313,1044.1719 1208.7031,1044.1719 Q1205.9844,1044.1719 1204.5313,1042.4375 Q1203.0781,1040.6875 1203.0781,1037.5781 Q1203.0781,1034.5781 1204.6563,1032.7969 Q1206.2344,1031 1208.9531,1031 Q1210.8594,1031 1212.5938,1031.9219 L1211.6406,1033.8281 Q1210.1406,1033.0469 1208.9531,1033.0469 Q1207.3438,1033.0469 1206.3594,1034.2656 Q1205.3906,1035.4688 1205.3906,1037.5938 Q1205.3906,1039.8438 1206.2969,1040.9844 Q1207.2188,1042.125 1208.9531,1042.125 Q1209.9844,1042.125 1212.0156,1041.5313 Z " fill="#000000"/><text fill="#000000" font-family="sans-serif" font-size="14" lengthAdjust="spacing" textLength="123" x="1222.5" y="1042.3467">Intakes Due Soon</text><line style="stroke:#181818;stroke-width:0.5;" x1="1194.5" x2="1347.5" y1="1053.5" y2="1053.5"/><line style="stroke:#181818;stroke-width:0.5;" x1="1194.5" x2="1347.5" y1="1061.5" y2="1061.5"/></g><!--class Avg Intake To Repair Time--><g id="elem_Avg Intake To Repair Time"><rect codeLine="54" fill="#A9DFBF" height="48" id="Avg Intake To Repair Time" rx="2.5" ry="2.5" style="stroke:#181818;stroke-width:0.5;" width="211" x="1383.5" y="1021.5"/><ellipse cx="1398.5" cy="1037.5" fill="#ADD1B2" rx="11" ry="11" style="stroke:#181818;stroke-width:1.0;"/><path d="M1402.0156,1041.5313 L1402.0156,1043.5625 Q1400.5313,1044.1719 1398.7031,1044.1719 Q1395.9844,1044.1719 1394.5313,1042.4375 Q1393.0781,1040.6875 1393.0781,1037.5781 Q1393.0781,1034.5781 1394.6563,1032.7969 Q1396.2344,1031 1398.9531,1031 Q1400.8594,1031 1402.5938,1031.9219 L1401.6406,1033.8281 Q1400.1406,1033.0469 1398.9531,1033.0469 Q1397.3438,1033.0469 1396.3594,1034.2656 Q1395.3906,1035.4688 1395.3906,1037.5938 Q1395.3906,1039.8438 1396.2969,1040.9844 Q1397.2188,1042.125 1398.9531,1042.125 Q1399.9844,1042.125 1402.0156,1041.5313 Z " fill="#000000"/><text fill="#000000" font-family="sans-serif" font-size="14" lengthAdjust="spacing" textLength="179" x="1412.5" y="1042.3467">Avg Intake To Repair Time</text><line style="stroke:#181818;stroke-width:0.5;" x1="1384.5" x2="1593.5" y1="1053.5" y2="1053.5"/><line style="stroke:#181818;stroke-width:0.5;" x1="1384.5" x2="1593.5" y1="1061.5" y2="1061.5"/></g><!--class Loaners Checked Out--><g id="elem_Loaners Checked Out"><rect codeLine="56" fill="#A9DFBF" height="48" id="Loaners Checked Out" rx="2.5" ry="2.5" style="stroke:#181818;stroke-width:0.5;" width="182" x="1630" y="1021.5"/><ellipse cx="1645" cy="1037.5" fill="#ADD1B2" rx="11" ry="11" style="stroke:#181818;stroke-width:1.0;"/><path d="M1648.5156,1041.5313 L1648.5156,1043.5625 Q1647.0313,1044.1719 1645.2031,1044.1719 Q1642.4844,1044.1719 1641.0313,1042.4375 Q1639.5781,1040.6875 1639.5781,1037.5781 Q1639.5781,1034.5781 1641.1563,1032.7969 Q1642.7344,1031 1645.4531,1031 Q1647.3594,1031 1649.0938,1031.9219 L1648.1406,1033.8281 Q1646.6406,1033.0469 1645.4531,1033.0469 Q1643.8438,1033.0469 1642.8594,1034.2656 Q1641.8906,1035.4688 1641.8906,1037.5938 Q1641.8906,1039.8438 1642.7969,1040.9844 Q1643.7188,1042.125 1645.4531,1042.125 Q1646.4844,1042.125 1648.5156,1041.5313 Z " fill="#000000"/><text fill="#000000" font-family="sans-serif" font-size="14" lengthAdjust="spacing" textLength="150" x="1659" y="1042.3467">Loaners Checked Out</text><line style="stroke:#181818;stroke-width:0.5;" x1="1631" x2="1811" y1="1053.5" y2="1053.5"/><line style="stroke:#181818;stroke-width:0.5;" x1="1631" x2="1811" y1="1061.5" y2="1061.5"/></g><!--class Intake Checklist Item--><g id="elem_Intake Checklist Item"><rect codeLine="58" fill="#A9DFBF" height="96.8906" id="Intake Checklist Item" rx="2.5" ry="2.5" style="stroke:#181818;stroke-width:0.5;" width="175" x="1847.5" y="997"/><ellipse cx="1862.5" cy="1013" fill="#ADD1B2" rx="11" ry="11" style="stroke:#181818;stroke-width:1.0;"/><path d="M1866.0156,1017.0313 L1866.0156,1019.0625 Q1864.5313,1019.6719 1862.7031,1019.6719 Q1859.9844,1019.6719 1858.5313,1017.9375 Q1857.0781,1016.1875 1857.0781,1013.0781 Q1857.0781,1010.0781 1858.6563,1008.2969 Q1860.2344,1006.5 1862.9531,1006.5 Q1864.8594,1006.5 1866.5938,1007.4219 L1865.6406,1009.3281 Q1864.1406,1008.5469 1862.9531,1008.5469 Q1861.3438,1008.5469 1860.3594,1009.7656 Q1859.3906,1010.9688 1859.3906,1013.0938 Q1859.3906,1015.3438 1860.2969,1016.4844 Q1861.2188,1017.625 1862.9531,1017.625 Q1863.9844,1017.625 1866.0156,1017.0313 Z " fill="#000000"/><text fill="#000000" font-family="sans-serif" font-size="14" lengthAdjust="spacing" textLength="143" x="1876.5" y="1017.8467">Intake Checklist Item</text><line style="stroke:#181818;stroke-width:0.5;" x1="1848.5" x2="2021.5" y1="1029" y2="1029"/><text fill="#000000" font-family="sans-serif" font-size="14" lengthAdjust="spacing" textLength="124" x="1853.5" y="1045.9951">check_item : Data</text><text fill="#000000" font-family="sans-serif" font-size="14" lengthAdjust="spacing" textLength="117" x="1853.5" y="1062.292">checked : Check</text><text fill="#000000" font-family="sans-serif" font-size="14" lengthAdjust="spacing" textLength="157" x="1853.5" y="1078.5889">comments : Small Text</text><line style="stroke:#181818;stroke-width:0.5;" x1="1848.5" x2="2021.5" y1="1085.8906" y2="1085.8906"/></g><!--class Intake Accessory Item--><g id="elem_Intake Accessory Item"><rect codeLine="63" fill="#A9DFBF" height="96.8906" id="Intake Accessory Item" rx="2.5" ry="2.5" style="stroke:#181818;stroke-width:0.5;" width="183" x="670.5" y="84"/><ellipse cx="685.5" cy="100" fill="#ADD1B2" rx="11" ry="11" style="stroke:#181818;stroke-width:1.0;"/><path d="M689.0156,104.0313 L689.0156,106.0625 Q687.5313,106.6719 685.7031,106.6719 Q682.9844,106.6719 681.5313,104.9375 Q680.0781,103.1875 680.0781,100.0781 Q680.0781,97.0781 681.6563,95.2969 Q683.2344,93.5 685.9531,93.5 Q687.8594,93.5 689.5938,94.4219 L688.6406,96.3281 Q687.1406,95.5469 685.9531,95.5469 Q684.3438,95.5469 683.3594,96.7656 Q682.3906,97.9688 682.3906,100.0938 Q682.3906,102.3438 683.2969,103.4844 Q684.2188,104.625 685.9531,104.625 Q686.9844,104.625 689.0156,104.0313 Z " fill="#000000"/><text fill="#000000" font-family="sans-serif" font-size="14" lengthAdjust="spacing" textLength="151" x="699.5" y="104.8467">Intake Accessory Item</text><line style="stroke:#181818;stroke-width:0.5;" x1="671.5" x2="852.5" y1="116" y2="116"/><text fill="#000000" font-family="sans-serif" font-size="14" lengthAdjust="spacing" textLength="115" x="676.5" y="132.9951">accessory : Data</text><text fill="#000000" font-family="sans-serif" font-size="14" lengthAdjust="spacing" textLength="85" x="676.5" y="149.292">quantity : Int</text><text fill="#000000" font-family="sans-serif" font-size="14" lengthAdjust="spacing" textLength="123" x="676.5" y="165.5889">notes : Small Text</text><line style="stroke:#181818;stroke-width:0.5;" x1="671.5" x2="852.5" y1="172.8906" y2="172.8906"/></g><!--class Loaner Instrument--><g id="elem_Loaner Instrument"><rect codeLine="80" fill="#A9DFBF" height="145.7813" id="Loaner Instrument" rx="2.5" ry="2.5" style="stroke:#181818;stroke-width:0.5;" width="210" x="615" y="412.5"/><ellipse cx="653.4" cy="428.5" fill="#ADD1B2" rx="11" ry="11" style="stroke:#181818;stroke-width:1.0;"/><path d="M656.9156,432.5313 L656.9156,434.5625 Q655.4313,435.1719 653.6031,435.1719 Q650.8844,435.1719 649.4313,433.4375 Q647.9781,431.6875 647.9781,428.5781 Q647.9781,425.5781 649.5563,423.7969 Q651.1344,422 653.8531,422 Q655.7594,422 657.4938,422.9219 L656.5406,424.8281 Q655.0406,424.0469 653.8531,424.0469 Q652.2438,424.0469 651.2594,425.2656 Q650.2906,426.4688 650.2906,428.5938 Q650.2906,430.8438 651.1969,431.9844 Q652.1188,433.125 653.8531,433.125 Q654.8844,433.125 656.9156,432.5313 Z " fill="#000000"/><text fill="#000000" font-family="sans-serif" font-size="14" lengthAdjust="spacing" textLength="126" x="672.6" y="433.3467">Loaner Instrument</text><line style="stroke:#181818;stroke-width:0.5;" x1="616" x2="824" y1="444.5" y2="444.5"/><text fill="#000000" font-family="sans-serif" font-size="14" lengthAdjust="spacing" textLength="131" x="621" y="461.4951">loaner_serial : Data</text><text fill="#000000" font-family="sans-serif" font-size="14" lengthAdjust="spacing" textLength="112" x="621" y="477.792">item_code : Link</text><text fill="#000000" font-family="sans-serif" font-size="14" lengthAdjust="spacing" textLength="107" x="621" y="494.0889">issued_to : Link</text><text fill="#000000" font-family="sans-serif" font-size="14" lengthAdjust="spacing" textLength="130" x="621" y="510.3857">issued_date : Date</text><text fill="#000000" font-family="sans-serif" font-size="14" lengthAdjust="spacing" textLength="198" x="621" y="526.6826">expected_return_date : Date</text><text fill="#000000" font-family="sans-serif" font-size="14" lengthAdjust="spacing" textLength="117" x="621" y="542.9795">returned : Check</text><line style="stroke:#181818;stroke-width:0.5;" x1="616" x2="824" y1="550.2813" y2="550.2813"/></g><!--class Loaner Return Check--><g id="elem_Loaner Return Check"><rect codeLine="70" fill="#A9DFBF" height="145.7813" id="Loaner Return Check" rx="2.5" ry="2.5" style="stroke:#181818;stroke-width:0.5;" width="213" x="447.5" y="790"/><ellipse cx="478.25" cy="806" fill="#ADD1B2" rx="11" ry="11" style="stroke:#181818;stroke-width:1.0;"/><path d="M481.7656,810.0313 L481.7656,812.0625 Q480.2813,812.6719 478.4531,812.6719 Q475.7344,812.6719 474.2813,810.9375 Q472.8281,809.1875 472.8281,806.0781 Q472.8281,803.0781 474.4063,801.2969 Q475.9844,799.5 478.7031,799.5 Q480.6094,799.5 482.3438,800.4219 L481.3906,802.3281 Q479.8906,801.5469 478.7031,801.5469 Q477.0938,801.5469 476.1094,802.7656 Q475.1406,803.9688 475.1406,806.0938 Q475.1406,808.3438 476.0469,809.4844 Q476.9688,810.625 478.7031,810.625 Q479.7344,810.625 481.7656,810.0313 Z " fill="#000000"/><text fill="#000000" font-family="sans-serif" font-size="14" lengthAdjust="spacing" textLength="146" x="495.75" y="810.8467">Loaner Return Check</text><line style="stroke:#181818;stroke-width:0.5;" x1="448.5" x2="659.5" y1="822" y2="822"/><text fill="#000000" font-family="sans-serif" font-size="14" lengthAdjust="spacing" textLength="131" x="453.5" y="838.9951">linked_loaner : Link</text><text fill="#000000" font-family="sans-serif" font-size="14" lengthAdjust="spacing" textLength="154" x="453.5" y="855.292">condition_notes : Text</text><text fill="#000000" font-family="sans-serif" font-size="14" lengthAdjust="spacing" textLength="201" x="453.5" y="871.5889">return_photos : Attach Image</text><text fill="#000000" font-family="sans-serif" font-size="14" lengthAdjust="spacing" textLength="160" x="453.5" y="887.8857">damage_found : Check</text><text fill="#000000" font-family="sans-serif" font-size="14" lengthAdjust="spacing" textLength="126" x="453.5" y="904.1826">return_date : Date</text><text fill="#000000" font-family="sans-serif" font-size="14" lengthAdjust="spacing" textLength="142" x="453.5" y="920.4795">workflow_state : Link</text><line style="stroke:#181818;stroke-width:0.5;" x1="448.5" x2="659.5" y1="927.7813" y2="927.7813"/></g><!--class Workflow State--><g id="elem_Workflow State"><rect fill="#F1F1F1" height="48" id="Workflow State" rx="2.5" ry="2.5" style="stroke:#181818;stroke-width:0.5;" width="134" x="1187" y="108.5"/><ellipse cx="1202" cy="124.5" fill="#ADD1B2" rx="11" ry="11" style="stroke:#181818;stroke-width:1.0;"/><path d="M1205.5156,128.5313 L1205.5156,130.5625 Q1204.0313,131.1719 1202.2031,131.1719 Q1199.4844,131.1719 1198.0313,129.4375 Q1196.5781,127.6875 1196.5781,124.5781 Q1196.5781,121.5781 1198.1563,119.7969 Q1199.7344,118 1202.4531,118 Q1204.3594,118 1206.0938,118.9219 L1205.1406,120.8281 Q1203.6406,120.0469 1202.4531,120.0469 Q1200.8438,120.0469 1199.8594,121.2656 Q1198.8906,122.4688 1198.8906,124.5938 Q1198.8906,126.8438 1199.7969,127.9844 Q1200.7188,129.125 1202.4531,129.125 Q1203.4844,129.125 1205.5156,128.5313 Z " fill="#000000"/><text fill="#000000" font-family="sans-serif" font-size="14" lengthAdjust="spacing" textLength="102" x="1216" y="129.3467">Workflow State</text><line style="stroke:#181818;stroke-width:0.5;" x1="1188" x2="1320" y1="140.5" y2="140.5"/><line style="stroke:#181818;stroke-width:0.5;" x1="1188" x2="1320" y1="148.5" y2="148.5"/></g><!--class Item--><g id="elem_Item"><rect fill="#F1F1F1" height="48" id="Item" rx="2.5" ry="2.5" style="stroke:#181818;stroke-width:0.5;" width="62" x="1356" y="108.5"/><ellipse cx="1371" cy="124.5" fill="#ADD1B2" rx="11" ry="11" style="stroke:#181818;stroke-width:1.0;"/><path d="M1374.5156,128.5313 L1374.5156,130.5625 Q1373.0313,131.1719 1371.2031,131.1719 Q1368.4844,131.1719 1367.0313,129.4375 Q1365.5781,127.6875 1365.5781,124.5781 Q1365.5781,121.5781 1367.1563,119.7969 Q1368.7344,118 1371.4531,118 Q1373.3594,118 1375.0938,118.9219 L1374.1406,120.8281 Q1372.6406,120.0469 1371.4531,120.0469 Q1369.8438,120.0469 1368.8594,121.2656 Q1367.8906,122.4688 1367.8906,124.5938 Q1367.8906,126.8438 1368.7969,127.9844 Q1369.7188,129.125 1371.4531,129.125 Q1372.4844,129.125 1374.5156,128.5313 Z " fill="#000000"/><text fill="#000000" font-family="sans-serif" font-size="14" lengthAdjust="spacing" textLength="30" x="1385" y="129.3467">Item</text><line style="stroke:#181818;stroke-width:0.5;" x1="1357" x2="1417" y1="140.5" y2="140.5"/><line style="stroke:#181818;stroke-width:0.5;" x1="1357" x2="1417" y1="148.5" y2="148.5"/></g><!--class Customer Consent Form--><g id="elem_Customer Consent Form"><rect codeLine="89" fill="#A9DFBF" height="113.1875" id="Customer Consent Form" rx="2.5" ry="2.5" style="stroke:#181818;stroke-width:0.5;" width="232" x="1117" y="429"/><ellipse cx="1145.5" cy="445" fill="#ADD1B2" rx="11" ry="11" style="stroke:#181818;stroke-width:1.0;"/><path d="M1149.0156,449.0313 L1149.0156,451.0625 Q1147.5313,451.6719 1145.7031,451.6719 Q1142.9844,451.6719 1141.5313,449.9375 Q1140.0781,448.1875 1140.0781,445.0781 Q1140.0781,442.0781 1141.6563,440.2969 Q1143.2344,438.5 1145.9531,438.5 Q1147.8594,438.5 1149.5938,439.4219 L1148.6406,441.3281 Q1147.1406,440.5469 1145.9531,440.5469 Q1144.3438,440.5469 1143.3594,441.7656 Q1142.3906,442.9688 1142.3906,445.0938 Q1142.3906,447.3438 1143.2969,448.4844 Q1144.2188,449.625 1145.9531,449.625 Q1146.9844,449.625 1149.0156,449.0313 Z " fill="#000000"/><text fill="#000000" font-family="sans-serif" font-size="14" lengthAdjust="spacing" textLength="170" x="1162.5" y="449.8467">Customer Consent Form</text><line style="stroke:#181818;stroke-width:0.5;" x1="1118" x2="1348" y1="461" y2="461"/><text fill="#000000" font-family="sans-serif" font-size="14" lengthAdjust="spacing" textLength="106" x="1123" y="477.9951">customer : Link</text><text fill="#000000" font-family="sans-serif" font-size="14" lengthAdjust="spacing" textLength="168" x="1123" y="494.292">consent_signed : Check</text><text fill="#000000" font-family="sans-serif" font-size="14" lengthAdjust="spacing" textLength="144" x="1123" y="510.5889">signature : Signature</text><text fill="#000000" font-family="sans-serif" font-size="14" lengthAdjust="spacing" textLength="220" x="1123" y="526.8857">authorization_notes : Small Text</text><line style="stroke:#181818;stroke-width:0.5;" x1="1118" x2="1348" y1="534.1875" y2="534.1875"/></g><!--class Quality Inspection--><g id="elem_Quality Inspection"><rect fill="#F1F1F1" height="48" id="Quality Inspection" rx="2.5" ry="2.5" style="stroke:#181818;stroke-width:0.5;" width="154" x="46" y="108.5"/><ellipse cx="61" cy="124.5" fill="#ADD1B2" rx="11" ry="11" style="stroke:#181818;stroke-width:1.0;"/><path d="M64.5156,128.5313 L64.5156,130.5625 Q63.0313,131.1719 61.2031,131.1719 Q58.4844,131.1719 57.0313,129.4375 Q55.5781,127.6875 55.5781,124.5781 Q55.5781,121.5781 57.1563,119.7969 Q58.7344,118 61.4531,118 Q63.3594,118 65.0938,118.9219 L64.1406,120.8281 Q62.6406,120.0469 61.4531,120.0469 Q59.8438,120.0469 58.8594,121.2656 Q57.8906,122.4688 57.8906,124.5938 Q57.8906,126.8438 58.7969,127.9844 Q59.7188,129.125 61.4531,129.125 Q62.4844,129.125 64.5156,128.5313 Z " fill="#000000"/><text fill="#000000" font-family="sans-serif" font-size="14" lengthAdjust="spacing" textLength="122" x="75" y="129.3467">Quality Inspection</text><line style="stroke:#181818;stroke-width:0.5;" x1="47" x2="199" y1="140.5" y2="140.5"/><line style="stroke:#181818;stroke-width:0.5;" x1="47" x2="199" y1="148.5" y2="148.5"/></g><!--class Clarinet Intake--><g id="elem_Clarinet Intake"><rect codeLine="105" fill="#A9DFBF" height="455.4219" id="Clarinet Intake" rx="2.5" ry="2.5" style="stroke:#181818;stroke-width:0.5;" width="210" x="205" y="258"/><ellipse cx="256.75" cy="274" fill="#ADD1B2" rx="11" ry="11" style="stroke:#181818;stroke-width:1.0;"/><path d="M260.2656,278.0313 L260.2656,280.0625 Q258.7813,280.6719 256.9531,280.6719 Q254.2344,280.6719 252.7813,278.9375 Q251.3281,277.1875 251.3281,274.0781 Q251.3281,271.0781 252.9063,269.2969 Q254.4844,267.5 257.2031,267.5 Q259.1094,267.5 260.8438,268.4219 L259.8906,270.3281 Q258.3906,269.5469 257.2031,269.5469 Q255.5938,269.5469 254.6094,270.7656 Q253.6406,271.9688 253.6406,274.0938 Q253.6406,276.3438 254.5469,277.4844 Q255.4688,278.625 257.2031,278.625 Q258.2344,278.625 260.2656,278.0313 Z " fill="#000000"/><text fill="#000000" font-family="sans-serif" font-size="14" lengthAdjust="spacing" textLength="98" x="277.25" y="278.8467">Clarinet Intake</text><line style="stroke:#181818;stroke-width:0.5;" x1="206" x2="414" y1="290" y2="290"/><text fill="#000000" font-family="sans-serif" font-size="14" lengthAdjust="spacing" textLength="156" x="211" y="306.9951">naming_series : Select</text><text fill="#000000" font-family="sans-serif" font-size="14" lengthAdjust="spacing" textLength="106" x="211" y="323.292">intake_id : Data</text><text fill="#000000" font-family="sans-serif" font-size="14" lengthAdjust="spacing" textLength="135" x="211" y="339.5889">intake_type : Select</text><text fill="#000000" font-family="sans-serif" font-size="14" lengthAdjust="spacing" textLength="142" x="211" y="355.8857">serial_number : Data</text><text fill="#000000" font-family="sans-serif" font-size="14" lengthAdjust="spacing" textLength="163" x="211" y="372.1826">quality_inspection : Link</text><text fill="#000000" font-family="sans-serif" font-size="14" lengthAdjust="spacing" textLength="144" x="211" y="388.4795">stock_status : Select</text><text fill="#000000" font-family="sans-serif" font-size="14" lengthAdjust="spacing" textLength="145" x="211" y="404.7764">repair_status : Select</text><text fill="#000000" font-family="sans-serif" font-size="14" lengthAdjust="spacing" textLength="132" x="211" y="421.0732">inspected_by : Link</text><text fill="#000000" font-family="sans-serif" font-size="14" lengthAdjust="spacing" textLength="80" x="211" y="437.3701">brand : Link</text><text fill="#000000" font-family="sans-serif" font-size="14" lengthAdjust="spacing" textLength="88" x="211" y="453.667">model : Data</text><text fill="#000000" font-family="sans-serif" font-size="14" lengthAdjust="spacing" textLength="198" x="211" y="469.9639">instrument_category : Select</text><text fill="#000000" font-family="sans-serif" font-size="14" lengthAdjust="spacing" textLength="149" x="211" y="486.2607">purchase_order : Link</text><text fill="#000000" font-family="sans-serif" font-size="14" lengthAdjust="spacing" textLength="160" x="211" y="502.5576">purchase_receipt : Link</text><text fill="#000000" font-family="sans-serif" font-size="14" lengthAdjust="spacing" textLength="117" x="211" y="518.8545">warehouse : Link</text><text fill="#000000" font-family="sans-serif" font-size="14" lengthAdjust="spacing" textLength="143" x="211" y="535.1514">received_date : Date</text><text fill="#000000" font-family="sans-serif" font-size="14" lengthAdjust="spacing" textLength="122" x="211" y="551.4482">received_by : Link</text><text fill="#000000" font-family="sans-serif" font-size="14" lengthAdjust="spacing" textLength="106" x="211" y="567.7451">customer : Link</text><text fill="#000000" font-family="sans-serif" font-size="14" lengthAdjust="spacing" textLength="148" x="211" y="584.042">repair_priority : Select</text><text fill="#000000" font-family="sans-serif" font-size="14" lengthAdjust="spacing" textLength="111" x="211" y="600.3389">due_date : Date</text><text fill="#000000" font-family="sans-serif" font-size="14" lengthAdjust="spacing" textLength="156" x="211" y="616.6357">customer_notes : Text</text><text fill="#000000" font-family="sans-serif" font-size="14" lengthAdjust="spacing" textLength="112" x="211" y="632.9326">checklist : Table</text><text fill="#000000" font-family="sans-serif" font-size="14" lengthAdjust="spacing" textLength="193" x="211" y="649.2295">initial_photos : Attach Image</text><text fill="#000000" font-family="sans-serif" font-size="14" lengthAdjust="spacing" textLength="144" x="211" y="665.5264">attachments : Attach</text><text fill="#000000" font-family="sans-serif" font-size="14" lengthAdjust="spacing" textLength="154" x="211" y="681.8232">condition_notes : Text</text><text fill="#000000" font-family="sans-serif" font-size="14" lengthAdjust="spacing" textLength="142" x="211" y="698.1201">workflow_state : Link</text><line style="stroke:#181818;stroke-width:0.5;" x1="206" x2="414" y1="705.4219" y2="705.4219"/></g><!--class User--><g id="elem_User"><rect fill="#F1F1F1" height="48" id="User" rx="2.5" ry="2.5" style="stroke:#181818;stroke-width:0.5;" width="64" x="235" y="108.5"/><ellipse cx="250" cy="124.5" fill="#ADD1B2" rx="11" ry="11" style="stroke:#181818;stroke-width:1.0;"/><path d="M253.5156,128.5313 L253.5156,130.5625 Q252.0313,131.1719 250.2031,131.1719 Q247.4844,131.1719 246.0313,129.4375 Q244.5781,127.6875 244.5781,124.5781 Q244.5781,121.5781 246.1563,119.7969 Q247.7344,118 250.4531,118 Q252.3594,118 254.0938,118.9219 L253.1406,120.8281 Q251.6406,120.0469 250.4531,120.0469 Q248.8438,120.0469 247.8594,121.2656 Q246.8906,122.4688 246.8906,124.5938 Q246.8906,126.8438 247.7969,127.9844 Q248.7188,129.125 250.4531,129.125 Q251.4844,129.125 253.5156,128.5313 Z " fill="#000000"/><text fill="#000000" font-family="sans-serif" font-size="14" lengthAdjust="spacing" textLength="32" x="264" y="129.3467">User</text><line style="stroke:#181818;stroke-width:0.5;" x1="236" x2="298" y1="140.5" y2="140.5"/><line style="stroke:#181818;stroke-width:0.5;" x1="236" x2="298" y1="148.5" y2="148.5"/></g><!--class Supplier--><g id="elem_Supplier"><rect fill="#F1F1F1" height="48" id="Supplier" rx="2.5" ry="2.5" style="stroke:#181818;stroke-width:0.5;" width="88" x="1064" y="108.5"/><ellipse cx="1079" cy="124.5" fill="#ADD1B2" rx="11" ry="11" style="stroke:#181818;stroke-width:1.0;"/><path d="M1082.5156,128.5313 L1082.5156,130.5625 Q1081.0313,131.1719 1079.2031,131.1719 Q1076.4844,131.1719 1075.0313,129.4375 Q1073.5781,127.6875 1073.5781,124.5781 Q1073.5781,121.5781 1075.1563,119.7969 Q1076.7344,118 1079.4531,118 Q1081.3594,118 1083.0938,118.9219 L1082.1406,120.8281 Q1080.6406,120.0469 1079.4531,120.0469 Q1077.8438,120.0469 1076.8594,121.2656 Q1075.8906,122.4688 1075.8906,124.5938 Q1075.8906,126.8438 1076.7969,127.9844 Q1077.7188,129.125 1079.4531,129.125 Q1080.4844,129.125 1082.5156,128.5313 Z " fill="#000000"/><text fill="#000000" font-family="sans-serif" font-size="14" lengthAdjust="spacing" textLength="56" x="1093" y="129.3467">Supplier</text><line style="stroke:#181818;stroke-width:0.5;" x1="1065" x2="1151" y1="140.5" y2="140.5"/><line style="stroke:#181818;stroke-width:0.5;" x1="1065" x2="1151" y1="148.5" y2="148.5"/></g><!--class Purchase Order--><g id="elem_Purchase Order"><rect fill="#F1F1F1" height="48" id="Purchase Order" rx="2.5" ry="2.5" style="stroke:#181818;stroke-width:0.5;" width="140" x="889" y="108.5"/><ellipse cx="904" cy="124.5" fill="#ADD1B2" rx="11" ry="11" style="stroke:#181818;stroke-width:1.0;"/><path d="M907.5156,128.5313 L907.5156,130.5625 Q906.0313,131.1719 904.2031,131.1719 Q901.4844,131.1719 900.0313,129.4375 Q898.5781,127.6875 898.5781,124.5781 Q898.5781,121.5781 900.1563,119.7969 Q901.7344,118 904.4531,118 Q906.3594,118 908.0938,118.9219 L907.1406,120.8281 Q905.6406,120.0469 904.4531,120.0469 Q902.8438,120.0469 901.8594,121.2656 Q900.8906,122.4688 900.8906,124.5938 Q900.8906,126.8438 901.7969,127.9844 Q902.7188,129.125 904.4531,129.125 Q905.4844,129.125 907.5156,128.5313 Z " fill="#000000"/><text fill="#000000" font-family="sans-serif" font-size="14" lengthAdjust="spacing" textLength="108" x="918" y="129.3467">Purchase Order</text><line style="stroke:#181818;stroke-width:0.5;" x1="890" x2="1028" y1="140.5" y2="140.5"/><line style="stroke:#181818;stroke-width:0.5;" x1="890" x2="1028" y1="148.5" y2="148.5"/></g><!--class Purchase Receipt--><g id="elem_Purchase Receipt"><rect fill="#F1F1F1" height="48" id="Purchase Receipt" rx="2.5" ry="2.5" style="stroke:#181818;stroke-width:0.5;" width="154" x="481" y="108.5"/><ellipse cx="496" cy="124.5" fill="#ADD1B2" rx="11" ry="11" style="stroke:#181818;stroke-width:1.0;"/><path d="M499.5156,128.5313 L499.5156,130.5625 Q498.0313,131.1719 496.2031,131.1719 Q493.4844,131.1719 492.0313,129.4375 Q490.5781,127.6875 490.5781,124.5781 Q490.5781,121.5781 492.1563,119.7969 Q493.7344,118 496.4531,118 Q498.3594,118 500.0938,118.9219 L499.1406,120.8281 Q497.6406,120.0469 496.4531,120.0469 Q494.8438,120.0469 493.8594,121.2656 Q492.8906,122.4688 492.8906,124.5938 Q492.8906,126.8438 493.7969,127.9844 Q494.7188,129.125 496.4531,129.125 Q497.4844,129.125 499.5156,128.5313 Z " fill="#000000"/><text fill="#000000" font-family="sans-serif" font-size="14" lengthAdjust="spacing" textLength="122" x="510" y="129.3467">Purchase Receipt</text><line style="stroke:#181818;stroke-width:0.5;" x1="482" x2="634" y1="140.5" y2="140.5"/><line style="stroke:#181818;stroke-width:0.5;" x1="482" x2="634" y1="148.5" y2="148.5"/></g><!--class Warehouse--><g id="elem_Warehouse"><rect fill="#F1F1F1" height="48" id="Warehouse" rx="2.5" ry="2.5" style="stroke:#181818;stroke-width:0.5;" width="111" x="334.5" y="108.5"/><ellipse cx="349.5" cy="124.5" fill="#ADD1B2" rx="11" ry="11" style="stroke:#181818;stroke-width:1.0;"/><path d="M353.0156,128.5313 L353.0156,130.5625 Q351.5313,131.1719 349.7031,131.1719 Q346.9844,131.1719 345.5313,129.4375 Q344.0781,127.6875 344.0781,124.5781 Q344.0781,121.5781 345.6563,119.7969 Q347.2344,118 349.9531,118 Q351.8594,118 353.5938,118.9219 L352.6406,120.8281 Q351.1406,120.0469 349.9531,120.0469 Q348.3438,120.0469 347.3594,121.2656 Q346.3906,122.4688 346.3906,124.5938 Q346.3906,126.8438 347.2969,127.9844 Q348.2188,129.125 349.9531,129.125 Q350.9844,129.125 353.0156,128.5313 Z " fill="#000000"/><text fill="#000000" font-family="sans-serif" font-size="14" lengthAdjust="spacing" textLength="79" x="363.5" y="129.3467">Warehouse</text><line style="stroke:#181818;stroke-width:0.5;" x1="335.5" x2="444.5" y1="140.5" y2="140.5"/><line style="stroke:#181818;stroke-width:0.5;" x1="335.5" x2="444.5" y1="148.5" y2="148.5"/></g><!--class Appointment Workflow--><g id="elem_Appointment Workflow"><rect codeLine="132" fill="#A9DFBF" height="48" id="Appointment Workflow" rx="2.5" ry="2.5" style="stroke:#181818;stroke-width:0.5;" width="187" x="2057.5" y="1021.5"/><ellipse cx="2072.5" cy="1037.5" fill="#ADD1B2" rx="11" ry="11" style="stroke:#181818;stroke-width:1.0;"/><path d="M2076.0156,1041.5313 L2076.0156,1043.5625 Q2074.5313,1044.1719 2072.7031,1044.1719 Q2069.9844,1044.1719 2068.5313,1042.4375 Q2067.0781,1040.6875 2067.0781,1037.5781 Q2067.0781,1034.5781 2068.6563,1032.7969 Q2070.2344,1031 2072.9531,1031 Q2074.8594,1031 2076.5938,1031.9219 L2075.6406,1033.8281 Q2074.1406,1033.0469 2072.9531,1033.0469 Q2071.3438,1033.0469 2070.3594,1034.2656 Q2069.3906,1035.4688 2069.3906,1037.5938 Q2069.3906,1039.8438 2070.2969,1040.9844 Q2071.2188,1042.125 2072.9531,1042.125 Q2073.9844,1042.125 2076.0156,1041.5313 Z " fill="#000000"/><text fill="#000000" font-family="sans-serif" font-size="14" lengthAdjust="spacing" textLength="155" x="2086.5" y="1042.3467">Appointment Workflow</text><line style="stroke:#181818;stroke-width:0.5;" x1="2058.5" x2="2243.5" y1="1053.5" y2="1053.5"/><line style="stroke:#181818;stroke-width:0.5;" x1="2058.5" x2="2243.5" y1="1061.5" y2="1061.5"/></g><!--class Loaner Return Check Workflow--><g id="elem_Loaner Return Check Workflow"><rect codeLine="134" fill="#A9DFBF" height="48" id="Loaner Return Check Workflow" rx="2.5" ry="2.5" style="stroke:#181818;stroke-width:0.5;" width="244" x="940" y="1155"/><ellipse cx="955" cy="1171" fill="#ADD1B2" rx="11" ry="11" style="stroke:#181818;stroke-width:1.0;"/><path d="M958.5156,1175.0313 L958.5156,1177.0625 Q957.0313,1177.6719 955.2031,1177.6719 Q952.4844,1177.6719 951.0313,1175.9375 Q949.5781,1174.1875 949.5781,1171.0781 Q949.5781,1168.0781 951.1563,1166.2969 Q952.7344,1164.5 955.4531,1164.5 Q957.3594,1164.5 959.0938,1165.4219 L958.1406,1167.3281 Q956.6406,1166.5469 955.4531,1166.5469 Q953.8438,1166.5469 952.8594,1167.7656 Q951.8906,1168.9688 951.8906,1171.0938 Q951.8906,1173.3438 952.7969,1174.4844 Q953.7188,1175.625 955.4531,1175.625 Q956.4844,1175.625 958.5156,1175.0313 Z " fill="#000000"/><text fill="#000000" font-family="sans-serif" font-size="14" lengthAdjust="spacing" textLength="212" x="969" y="1175.8467">Loaner Return Check Workflow</text><line style="stroke:#181818;stroke-width:0.5;" x1="941" x2="1183" y1="1187" y2="1187"/><line style="stroke:#181818;stroke-width:0.5;" x1="941" x2="1183" y1="1195" y2="1195"/></g><!--class Clarinet Intake Workflow--><g id="elem_Clarinet Intake Workflow"><rect codeLine="136" fill="#A9DFBF" height="48" id="Clarinet Intake Workflow" rx="2.5" ry="2.5" style="stroke:#181818;stroke-width:0.5;" width="196" x="1219" y="1155"/><ellipse cx="1234" cy="1171" fill="#ADD1B2" rx="11" ry="11" style="stroke:#181818;stroke-width:1.0;"/><path d="M1237.5156,1175.0313 L1237.5156,1177.0625 Q1236.0313,1177.6719 1234.2031,1177.6719 Q1231.4844,1177.6719 1230.0313,1175.9375 Q1228.5781,1174.1875 1228.5781,1171.0781 Q1228.5781,1168.0781 1230.1563,1166.2969 Q1231.7344,1164.5 1234.4531,1164.5 Q1236.3594,1164.5 1238.0938,1165.4219 L1237.1406,1167.3281 Q1235.6406,1166.5469 1234.4531,1166.5469 Q1232.8438,1166.5469 1231.8594,1167.7656 Q1230.8906,1168.9688 1230.8906,1171.0938 Q1230.8906,1173.3438 1231.7969,1174.4844 Q1232.7188,1175.625 1234.4531,1175.625 Q1235.4844,1175.625 1237.5156,1175.0313 Z " fill="#000000"/><text fill="#000000" font-family="sans-serif" font-size="14" lengthAdjust="spacing" textLength="164" x="1248" y="1175.8467">Clarinet Intake Workflow</text><line style="stroke:#181818;stroke-width:0.5;" x1="1220" x2="1414" y1="1187" y2="1187"/><line style="stroke:#181818;stroke-width:0.5;" x1="1220" x2="1414" y1="1195" y2="1195"/></g><!--class Intake Receipt--><g id="elem_Intake Receipt"><rect codeLine="138" fill="#A9DFBF" height="48" id="Intake Receipt" rx="2.5" ry="2.5" style="stroke:#181818;stroke-width:0.5;" width="131" x="1450.5" y="1155"/><ellipse cx="1465.5" cy="1171" fill="#ADD1B2" rx="11" ry="11" style="stroke:#181818;stroke-width:1.0;"/><path d="M1469.0156,1175.0313 L1469.0156,1177.0625 Q1467.5313,1177.6719 1465.7031,1177.6719 Q1462.9844,1177.6719 1461.5313,1175.9375 Q1460.0781,1174.1875 1460.0781,1171.0781 Q1460.0781,1168.0781 1461.6563,1166.2969 Q1463.2344,1164.5 1465.9531,1164.5 Q1467.8594,1164.5 1469.5938,1165.4219 L1468.6406,1167.3281 Q1467.1406,1166.5469 1465.9531,1166.5469 Q1464.3438,1166.5469 1463.3594,1167.7656 Q1462.3906,1168.9688 1462.3906,1171.0938 Q1462.3906,1173.3438 1463.2969,1174.4844 Q1464.2188,1175.625 1465.9531,1175.625 Q1466.9844,1175.625 1469.0156,1175.0313 Z " fill="#000000"/><text fill="#000000" font-family="sans-serif" font-size="14" lengthAdjust="spacing" textLength="99" x="1479.5" y="1175.8467">Intake Receipt</text><line style="stroke:#181818;stroke-width:0.5;" x1="1451.5" x2="1580.5" y1="1187" y2="1187"/><line style="stroke:#181818;stroke-width:0.5;" x1="1451.5" x2="1580.5" y1="1195" y2="1195"/></g><!--reverse link Customer to Clarinet Intake Request--><g id="link_Customer_Clarinet Intake Request"><path codeLine="38" d="M1503.86,170.06 C1502.24,190.22 1496.5,213.95 1480,228 C1415.51,282.92 1171.5,212.58 1100,258 C1047.76,291.18 1014.53,353.55 994.89,404.44 " fill="none" id="Customer-backto-Clarinet Intake Request" style="stroke:#181818;stroke-width:1.0;"/><polygon fill="#181818" points="1504.4,156.84,1500.1593,162.6724,1503.912,168.8301,1508.1527,162.9977,1504.4,156.84" style="stroke:#181818;stroke-width:1.0;"/><text fill="#000000" font-family="sans-serif" font-size="13" lengthAdjust="spacing" textLength="61" x="1493" y="224.0669">customer</text></g><!--reverse link Loaner Instrument to Loaner Return Check--><g id="link_Loaner Instrument_Loaner Return Check"><path codeLine="68" d="M682.69,570.9 C653.57,636.77 613.55,727.29 585.91,789.82 " fill="none" id="Loaner Instrument-backto-Loaner Return Check" style="stroke:#181818;stroke-width:1.0;"/><polygon fill="#181818" points="687.99,558.9,681.9048,562.7692,683.1359,569.8744,689.2211,566.0052,687.99,558.9" style="stroke:#181818;stroke-width:1.0;"/><text fill="#000000" font-family="sans-serif" font-size="13" lengthAdjust="spacing" textLength="84" x="604" y="756.0669">linked_loaner</text></g><!--reverse link Workflow State to Loaner Return Check--><g id="link_Workflow State_Loaner Return Check"><path codeLine="69" d="M1213.73,165.28 C1198.41,178.49 1181.42,194.55 1168,211 C1162.46,217.79 1165.51,223.47 1158,228 C1095.6,265.61 553.32,205.32 503,258 C433.16,331.11 486.4,613.26 503,713 C507.26,738.62 515.39,765.75 523.92,789.73 " fill="none" id="Workflow State-backto-Loaner Return Check" style="stroke:#181818;stroke-width:1.0;"/><polygon fill="#181818" points="1224.01,156.63,1216.8439,157.4345,1214.8304,164.3588,1221.9965,163.5543,1224.01,156.63" style="stroke:#181818;stroke-width:1.0;"/><text fill="#000000" font-family="sans-serif" font-size="13" lengthAdjust="spacing" textLength="93" x="504" y="490.0669">workflow_state</text></g><!--reverse link Item to Loaner Instrument--><g id="link_Item_Loaner Instrument"><path codeLine="78" d="M1359.01,166.29 C1352.91,171.88 1346.13,177.13 1339,181 C1283.83,210.93 1260.43,190.8 1201,211 C1184.25,216.69 1182.07,223.33 1165,228 C1095.68,246.96 902.99,218.43 843,258 C789.31,293.42 757.13,360.48 739.24,412.48 " fill="none" id="Item-backto-Loaner Instrument" style="stroke:#181818;stroke-width:1.0;"/><polygon fill="#181818" points="1368.58,156.72,1361.5089,158.1342,1360.0947,165.2053,1367.1658,163.7911,1368.58,156.72" style="stroke:#181818;stroke-width:1.0;"/><text fill="#000000" font-family="sans-serif" font-size="13" lengthAdjust="spacing" textLength="67" x="1202" y="224.0669">item_code</text></g><!--reverse link Customer to Loaner Instrument--><g id="link_Customer_Loaner Instrument"><path codeLine="79" d="M1466.16,164.93 C1436.36,189.62 1396.3,220.96 1377,228 C1265.34,268.73 943.4,194.39 843,258 C788.47,292.54 756.34,360.07 738.68,412.45 " fill="none" id="Customer-backto-Loaner Instrument" style="stroke:#181818;stroke-width:1.0;"/><polygon fill="#181818" points="1476.22,156.53,1469.0509,157.3073,1467.0111,164.2239,1474.1802,163.4466,1476.22,156.53" style="stroke:#181818;stroke-width:1.0;"/><text fill="#000000" font-family="sans-serif" font-size="13" lengthAdjust="spacing" textLength="61" x="1406" y="224.0669">issued_to</text></g><!--reverse link Customer to Customer Consent Form--><g id="link_Customer_Customer Consent Form"><path codeLine="88" d="M1547.95,165.31 C1561.88,177.8 1575.54,193.38 1583,211 C1585.95,217.96 1587.96,222.3 1583,228 C1519.35,301.1 1447.68,204.3 1367,258 C1306.53,298.25 1269.48,375.88 1250.09,428.92 " fill="none" id="Customer-backto-Customer Consent Form" style="stroke:#181818;stroke-width:1.0;"/><polygon fill="#181818" points="1537.83,156.78,1539.8435,163.7043,1547.0096,164.5088,1544.9961,157.5845,1537.83,156.78" style="stroke:#181818;stroke-width:1.0;"/><text fill="#000000" font-family="sans-serif" font-size="13" lengthAdjust="spacing" textLength="61" x="1587" y="224.0669">customer</text></g><!--reverse link Quality Inspection to Clarinet Intake--><g id="link_Quality Inspection_Clarinet Intake"><path codeLine="95" d="M110.43,169.21 C106,187.23 103.53,209.19 110,228 C129.51,284.74 167.27,338.56 204.78,382.12 " fill="none" id="Quality Inspection-backto-Clarinet Intake" style="stroke:#181818;stroke-width:1.0;"/><polygon fill="#181818" points="114.01,156.61,108.5269,161.2935,110.7412,168.1562,116.2243,163.4727,114.01,156.61" style="stroke:#181818;stroke-width:1.0;"/><text fill="#000000" font-family="sans-serif" font-size="13" lengthAdjust="spacing" textLength="114" x="111" y="224.0669">quality_inspection</text></g><!--reverse link User to Clarinet Intake--><g id="link_User_Clarinet Intake"><path codeLine="96" d="M246.18,168.2 C237.94,185.73 231.04,207.56 234,228 C235.43,237.88 237.16,247.91 239.13,258 " fill="none" id="User-backto-Clarinet Intake" style="stroke:#181818;stroke-width:1.0;"/><polygon fill="#181818" points="252.15,156.56,245.8542,160.076,246.6782,167.2399,252.9741,163.7239,252.15,156.56" style="stroke:#181818;stroke-width:1.0;"/><text fill="#000000" font-family="sans-serif" font-size="13" lengthAdjust="spacing" textLength="84" x="235" y="224.0669">inspected_by</text></g><!--reverse link User to Clarinet Intake--><g id="link_User_Clarinet Intake"><path codeLine="101" d="M298.67,166.78 C308.8,179.59 318.75,195.01 324,211 C328.93,226.02 332.34,241.75 334.55,257.76 " fill="none" id="User-backto-Clarinet Intake-1" style="stroke:#181818;stroke-width:1.0;"/><polygon fill="#181818" points="290.21,156.68,290.9923,163.8485,297.9104,165.8835,297.128,158.715,290.21,156.68" style="stroke:#181818;stroke-width:1.0;"/><text fill="#000000" font-family="sans-serif" font-size="13" lengthAdjust="spacing" textLength="76" x="330" y="224.0669">received_by</text></g><!--reverse link Supplier to Clarinet Intake--><g id="link_Supplier_Clarinet Intake"><path codeLine="97" d="M1072.06,164.78 C1064.14,170.71 1055.56,176.46 1047,181 C987.15,212.74 968.54,215.25 902,228 C801.39,247.28 529.11,204.1 442,258 C432.42,263.93 423.46,270.83 415.09,278.45 " fill="none" id="Supplier-backto-Clarinet Intake" style="stroke:#181818;stroke-width:1.0;"/><polygon fill="#181818" points="1082.36,156.69,1075.17,157.2419,1072.9141,164.091,1080.1041,163.5391,1082.36,156.69" style="stroke:#181818;stroke-width:1.0;"/><text fill="#000000" font-family="sans-serif" font-size="13" lengthAdjust="spacing" textLength="37" x="978" y="224.0669">brand</text></g><!--reverse link Purchase Order to Clarinet Intake--><g id="link_Purchase Order_Clarinet Intake"><path codeLine="98" d="M908.25,162.94 C896.24,169.33 883.34,175.74 871,181 C808.3,207.75 791.69,213.89 725,228 C663.13,241.09 495.09,223.64 442,258 C432.45,264.18 423.5,271.32 415.14,279.16 " fill="none" id="Purchase Order-backto-Clarinet Intake" style="stroke:#181818;stroke-width:1.0;"/><polygon fill="#181818" points="919.9,156.6,912.7181,155.9521,909.3577,162.3324,916.5396,162.9803,919.9,156.6" style="stroke:#181818;stroke-width:1.0;"/><text fill="#000000" font-family="sans-serif" font-size="13" lengthAdjust="spacing" textLength="100" x="793" y="224.0669">purchase_order</text></g><!--reverse link Purchase Receipt to Clarinet Intake--><g id="link_Purchase Receipt_Clarinet Intake"><path codeLine="99" d="M540.24,168.07 C529.12,187.36 513.42,210.88 495,228 C475.18,246.43 461.26,238.98 442,258 C432.61,267.27 423.65,277.35 415.15,287.94 " fill="none" id="Purchase Receipt-backto-Clarinet Intake" style="stroke:#181818;stroke-width:1.0;"/><polygon fill="#181818" points="546.56,156.71,540.1485,160.0103,540.7289,167.198,547.1405,163.8977,546.56,156.71" style="stroke:#181818;stroke-width:1.0;"/><text fill="#000000" font-family="sans-serif" font-size="13" lengthAdjust="spacing" textLength="110" x="510" y="224.0669">purchase_receipt</text></g><!--reverse link Warehouse to Clarinet Intake--><g id="link_Warehouse_Clarinet Intake"><path codeLine="100" d="M407.15,168.66 C413.76,186.34 418.9,208.17 415,228 C413.05,237.91 410.71,247.93 408.06,257.96 " fill="none" id="Warehouse-backto-Clarinet Intake" style="stroke:#181818;stroke-width:1.0;"/><polygon fill="#181818" points="402.18,156.61,400.7709,163.6821,406.757,167.7029,408.1661,160.6308,402.18,156.61" style="stroke:#181818;stroke-width:1.0;"/><text fill="#000000" font-family="sans-serif" font-size="13" lengthAdjust="spacing" textLength="69" x="417" y="224.0669">warehouse</text></g><!--reverse link Customer to Clarinet Intake--><g id="link_Customer_Clarinet Intake"><path codeLine="102" d="M1464.9,164.33 C1455.83,170.56 1445.9,176.56 1436,181 C1381.9,205.27 1361.55,190.25 1306,211 C1290.91,216.64 1289.55,223.83 1274,228 C1184.66,251.98 521.36,210.47 442,258 C432.43,263.73 423.49,270.44 415.14,277.88 " fill="none" id="Customer-backto-Clarinet Intake" style="stroke:#181818;stroke-width:1.0;"/><polygon fill="#181818" points="1475.48,156.7,1468.274,156.9702,1465.7518,163.7259,1472.9579,163.4557,1475.48,156.7" style="stroke:#181818;stroke-width:1.0;"/><text fill="#000000" font-family="sans-serif" font-size="13" lengthAdjust="spacing" textLength="61" x="1307" y="224.0669">customer</text></g><!--reverse link Intake Accessory Item to Clarinet Intake--><g id="link_Intake Accessory Item_Clarinet Intake"><path codeLine="103" d="M696.7,188.86 C676.17,203.71 652.66,218.32 629,228 C551.1,259.88 511.42,210.4 442,258 C432.43,264.56 423.45,272.07 415.05,280.26 " fill="none" id="Intake Accessory Item-backto-Clarinet Intake" style="stroke:#181818;stroke-width:1.0;"/><polygon fill="#181818" points="707.15,181.1,699.9482,181.4668,697.5169,188.2556,704.7187,187.8889,707.15,181.1" style="stroke:#181818;stroke-width:1.0;"/><text fill="#000000" font-family="sans-serif" font-size="13" lengthAdjust="spacing" textLength="55" x="661" y="224.0669">checklist</text></g><!--reverse link Workflow State to Clarinet Intake--><g id="link_Workflow State_Clarinet Intake"><path codeLine="104" d="M1206.15,163.28 C1194.59,169.7 1182.08,176.04 1170,181 C1122.72,200.4 1106.96,193.35 1059,211 C1042.39,217.11 1040.16,223.68 1023,228 C960.31,243.77 497.2,224.36 442,258 C432.48,263.8 423.57,270.57 415.25,278.06 " fill="none" id="Workflow State-backto-Clarinet Intake" style="stroke:#181818;stroke-width:1.0;"/><polygon fill="#181818" points="1217.79,156.61,1210.5954,156.1217,1207.3776,162.575,1214.5721,163.0633,1217.79,156.61" style="stroke:#181818;stroke-width:1.0;"/><text fill="#000000" font-family="sans-serif" font-size="13" lengthAdjust="spacing" textLength="93" x="1060" y="224.0669">workflow_state</text></g><!--SRC=[fLPBRzim3BxdLmZPRK1tNr4KIDC5Ar2iQvEYHqDHs4I8BBbwDCs6_lTHjcLByQC5ThF9JvH8VdmKbEtf5eY6WdAT5KfRAhvnQUaUoCN5GeaDwCjBydV213M6JETKCX02DbFoPVRzUd6rGDrxq2x1kg9NymiElVBxUQzu8UXsEt39ZJG5CCkLx5N_C8mAQWSE_qIFUXKFm82_3foQA_dCTJwWlLLKWZRapbbZgTnmkHt1aPNJKhs27d2k3FtLaLpJOtzeb13gG1uBCbTv8RXFI2_miM0gnxUGML4eJ6aEqfh_CtaDXJBSaYkCC6B8RFk1hmz822s9J-V9rTEvCrRbFWnVpyumn89gBi6IEW8FyEB0s2av9wn6DjaOWhRs2J6WEHMPTFaQtt6EuRGKnS4MIcwvtAE4IsEryy796D9cg_GHbKiGo35KwveNsGQLbHr0ySR1YIHOpgIoO52-WZTRsQ_fcZ4VNK1gedQ-0xPlutM7X42RjKlzQOhpw1do1B0V8P4XrsXmgGRgPFQw3G5SAOoXRm1anNCOvNZvR7G0kJx6tn8ckC4SMSZJp32lopZAexJKPaDSKABoob7CHKw5gC9vUi-CCJ36fwnx3srqpJKlZahBhPUW0HI4N2LN1FBUDCoeEPgIkdofvwT08Y51HAcTJ9-KtZ_xUbfQPCRuqKEDpOp7zXTF3OvTIsvigSmKDf-IQISSrAMbhDWfgxnuPYrbEtAJO-_tPAR-8tjMJiOfg4-bD4zV7Ex6e5K9Y9sDutTEVCAn0ZRGAVr-k34ENRJg92WnAWb9gSwgicyptjmQ5Nomt16bdiARhriKzyQX4YQbt6bfeTVW-33uOB9GEkzjQFt0f6WwVOjLsCpmhKmgnmieFiu_TXc-VJqukrEQ_w49GrBctpigV7t4CxQlFNilNYfirZQuoVJH33NqCgSL4aEwFawcIrVWh1d3hpLEqydqjzDiHmsGExqPWnSrBbCU5vqhPtjXFt5ILqWiOgfXfvo1uKE70Fd8xMQ4UA_7nrx2Zg4cDtWmDDs17jJdGs__wG1Z9ahgbugoq2e2XKbPROqPtqJLLudiiO0OEJ2RkuHgsOuXmQ7XN-bCEfxBnRMhYBdMcYaPrVxcs1ZYPZ6-2gJyQgsSigVLD1HfHGFxHCIHgCGxHH_sTCsnactokizl90rFl8Yk1PIku-30d0oD25h-XebSASScpj2OwAuo973r4tjasUB63vmkXwFWPe6i-qCCUVy7]--></g></svg>