<?xml version="1.0" encoding="us-ascii" standalone="no"?><svg xmlns="http://www.w3.org/2000/svg" xmlns:xlink="http://www.w3.org/1999/xlink" contentStyleType="text/css" height="695px" preserveAspectRatio="none" style="width:1877px;height:695px;background:#FFFFFF;" version="1.1" viewBox="0 0 1877 695" width="1877px" zoomAndPan="magnify"><defs/><g><!--cluster repair_portal--><g id="cluster_repair_portal"><path d="M8.5,6 L109.5,6 A3.75,3.75 0 0 1 112,8.5 L119,28.2969 L1867.5,28.2969 A2.5,2.5 0 0 1 1870,30.7969 L1870,685.5 A2.5,2.5 0 0 1 1867.5,688 L8.5,688 A2.5,2.5 0 0 1 6,685.5 L6,8.5 A2.5,2.5 0 0 1 8.5,6 " fill="none" style="stroke:#000000;stroke-width:1.5;"/><line style="stroke:#000000;stroke-width:1.5;" x1="6" x2="119" y1="28.2969" y2="28.2969"/><text fill="#000000" font-family="sans-serif" font-size="14" font-weight="bold" lengthAdjust="spacing" textLength="100" x="10" y="20.9951">repair_portal</text></g><!--cluster inspection--><g id="cluster_inspection"><path d="M32.5,49 L115.5,49 A3.75,3.75 0 0 1 118,51.5 L125,71.2969 L1843.5,71.2969 A2.5,2.5 0 0 1 1846,73.7969 L1846,661.5 A2.5,2.5 0 0 1 1843.5,664 L32.5,664 A2.5,2.5 0 0 1 30,661.5 L30,51.5 A2.5,2.5 0 0 1 32.5,49 " fill="none" style="stroke:#000000;stroke-width:1.5;"/><line style="stroke:#000000;stroke-width:1.5;" x1="30" x2="125" y1="71.2969" y2="71.2969"/><text fill="#000000" font-family="sans-serif" font-size="14" font-weight="bold" lengthAdjust="spacing" textLength="82" x="34" y="63.9951">inspection</text></g><!--class technician_dashboard--><g id="elem_technician_dashboard"><rect codeLine="2" fill="#AED6F1" height="48" id="technician_dashboard" rx="2.5" ry="2.5" style="stroke:#181818;stroke-width:0.5;" width="184" x="1383" y="157.5"/><ellipse cx="1398" cy="173.5" fill="#ADD1B2" rx="11" ry="11" style="stroke:#181818;stroke-width:1.0;"/><path d="M1401.5156,177.5313 L1401.5156,179.5625 Q1400.0313,180.1719 1398.2031,180.1719 Q1395.4844,180.1719 1394.0313,178.4375 Q1392.5781,176.6875 1392.5781,173.5781 Q1392.5781,170.5781 1394.1563,168.7969 Q1395.7344,167 1398.4531,167 Q1400.3594,167 1402.0938,167.9219 L1401.1406,169.8281 Q1399.6406,169.0469 1398.4531,169.0469 Q1396.8438,169.0469 1395.8594,170.2656 Q1394.8906,171.4688 1394.8906,173.5938 Q1394.8906,175.8438 1395.7969,176.9844 Q1396.7188,178.125 1398.4531,178.125 Q1399.4844,178.125 1401.5156,177.5313 Z " fill="#000000"/><text fill="#000000" font-family="sans-serif" font-size="14" lengthAdjust="spacing" textLength="152" x="1412" y="178.3467">technician_dashboard</text><line style="stroke:#181818;stroke-width:0.5;" x1="1384" x2="1566" y1="189.5" y2="189.5"/><line style="stroke:#181818;stroke-width:0.5;" x1="1384" x2="1566" y1="197.5" y2="197.5"/></g><!--class Inspection Finding--><g id="elem_Inspection Finding"><rect codeLine="4" fill="#AED6F1" height="113.1875" id="Inspection Finding" rx="2.5" ry="2.5" style="stroke:#181818;stroke-width:0.5;" width="176" x="334" y="125"/><ellipse cx="357.1" cy="141" fill="#ADD1B2" rx="11" ry="11" style="stroke:#181818;stroke-width:1.0;"/><path d="M360.6156,145.0313 L360.6156,147.0625 Q359.1313,147.6719 357.3031,147.6719 Q354.5844,147.6719 353.1313,145.9375 Q351.6781,144.1875 351.6781,141.0781 Q351.6781,138.0781 353.2563,136.2969 Q354.8344,134.5 357.5531,134.5 Q359.4594,134.5 361.1938,135.4219 L360.2406,137.3281 Q358.7406,136.5469 357.5531,136.5469 Q355.9438,136.5469 354.9594,137.7656 Q353.9906,138.9688 353.9906,141.0938 Q353.9906,143.3438 354.8969,144.4844 Q355.8188,145.625 357.5531,145.625 Q358.5844,145.625 360.6156,145.0313 Z " fill="#000000"/><text fill="#000000" font-family="sans-serif" font-size="14" lengthAdjust="spacing" textLength="126" x="372.9" y="145.8467">Inspection Finding</text><line style="stroke:#181818;stroke-width:0.5;" x1="335" x2="509" y1="157" y2="157"/><text fill="#000000" font-family="sans-serif" font-size="14" lengthAdjust="spacing" textLength="75" x="340" y="173.9951">area : Data</text><text fill="#000000" font-family="sans-serif" font-size="14" lengthAdjust="spacing" textLength="164" x="340" y="190.292">observation : Small Text</text><text fill="#000000" font-family="sans-serif" font-size="14" lengthAdjust="spacing" textLength="109" x="340" y="206.5889">severity : Select</text><text fill="#000000" font-family="sans-serif" font-size="14" lengthAdjust="spacing" textLength="145" x="340" y="222.8857">image : Attach Image</text><line style="stroke:#181818;stroke-width:0.5;" x1="335" x2="509" y1="230.1875" y2="230.1875"/></g><!--class Quality Procedure--><g id="elem_Quality Procedure"><rect fill="#F1F1F1" height="48" id="Quality Procedure" rx="2.5" ry="2.5" style="stroke:#181818;stroke-width:0.5;" width="154" x="1194" y="157.5"/><ellipse cx="1209" cy="173.5" fill="#ADD1B2" rx="11" ry="11" style="stroke:#181818;stroke-width:1.0;"/><path d="M1212.5156,177.5313 L1212.5156,179.5625 Q1211.0313,180.1719 1209.2031,180.1719 Q1206.4844,180.1719 1205.0313,178.4375 Q1203.5781,176.6875 1203.5781,173.5781 Q1203.5781,170.5781 1205.1563,168.7969 Q1206.7344,167 1209.4531,167 Q1211.3594,167 1213.0938,167.9219 L1212.1406,169.8281 Q1210.6406,169.0469 1209.4531,169.0469 Q1207.8438,169.0469 1206.8594,170.2656 Q1205.8906,171.4688 1205.8906,173.5938 Q1205.8906,175.8438 1206.7969,176.9844 Q1207.7188,178.125 1209.4531,178.125 Q1210.4844,178.125 1212.5156,177.5313 Z " fill="#000000"/><text fill="#000000" font-family="sans-serif" font-size="14" lengthAdjust="spacing" textLength="122" x="1223" y="178.3467">Quality Procedure</text><line style="stroke:#181818;stroke-width:0.5;" x1="1195" x2="1347" y1="189.5" y2="189.5"/><line style="stroke:#181818;stroke-width:0.5;" x1="1195" x2="1347" y1="197.5" y2="197.5"/></g><!--class Inspection Report--><g id="elem_Inspection Report"><rect codeLine="15" fill="#AED6F1" height="292.4531" id="Inspection Report" rx="2.5" ry="2.5" style="stroke:#181818;stroke-width:0.5;" width="256" x="774" y="356"/><ellipse cx="836.25" cy="372" fill="#ADD1B2" rx="11" ry="11" style="stroke:#181818;stroke-width:1.0;"/><path d="M839.7656,376.0313 L839.7656,378.0625 Q838.2813,378.6719 836.4531,378.6719 Q833.7344,378.6719 832.2813,376.9375 Q830.8281,375.1875 830.8281,372.0781 Q830.8281,369.0781 832.4063,367.2969 Q833.9844,365.5 836.7031,365.5 Q838.6094,365.5 840.3438,366.4219 L839.3906,368.3281 Q837.8906,367.5469 836.7031,367.5469 Q835.0938,367.5469 834.1094,368.7656 Q833.1406,369.9688 833.1406,372.0938 Q833.1406,374.3438 834.0469,375.4844 Q834.9688,376.625 836.7031,376.625 Q837.7344,376.625 839.7656,376.0313 Z " fill="#000000"/><text fill="#000000" font-family="sans-serif" font-size="14" lengthAdjust="spacing" textLength="123" x="856.75" y="376.8467">Inspection Report</text><line style="stroke:#181818;stroke-width:0.5;" x1="775" x2="1029" y1="388" y2="388"/><text fill="#000000" font-family="sans-serif" font-size="14" lengthAdjust="spacing" textLength="156" x="780" y="404.9951">inspection_date : Date</text><text fill="#000000" font-family="sans-serif" font-size="14" lengthAdjust="spacing" textLength="139" x="780" y="421.292">instrument_id : Data</text><text fill="#000000" font-family="sans-serif" font-size="14" lengthAdjust="spacing" textLength="157" x="780" y="437.5889">customer_name : Data</text><text fill="#000000" font-family="sans-serif" font-size="14" lengthAdjust="spacing" textLength="165" x="780" y="453.8857">inspection_type : Select</text><text fill="#000000" font-family="sans-serif" font-size="14" lengthAdjust="spacing" textLength="112" x="780" y="470.1826">procedure : Link</text><text fill="#000000" font-family="sans-serif" font-size="14" lengthAdjust="spacing" textLength="99" x="780" y="486.4795">status : Select</text><text fill="#000000" font-family="sans-serif" font-size="14" lengthAdjust="spacing" textLength="216" x="780" y="502.7764">preliminary_estimate : Currency</text><text fill="#000000" font-family="sans-serif" font-size="14" lengthAdjust="spacing" textLength="164" x="780" y="519.0732">clarinet_intake_ref : Link</text><text fill="#000000" font-family="sans-serif" font-size="14" lengthAdjust="spacing" textLength="244" x="780" y="535.3701">legacy_clarinet_inspection_id : Data</text><text fill="#000000" font-family="sans-serif" font-size="14" lengthAdjust="spacing" textLength="191" x="780" y="551.667">inspection_checklist : Table</text><text fill="#000000" font-family="sans-serif" font-size="14" lengthAdjust="spacing" textLength="184" x="780" y="567.9639">inspection_findings : Table</text><text fill="#000000" font-family="sans-serif" font-size="14" lengthAdjust="spacing" textLength="148" x="780" y="584.2607">qc_certificate : Attach</text><text fill="#000000" font-family="sans-serif" font-size="14" lengthAdjust="spacing" textLength="214" x="780" y="600.5576">non_conformance_report : Link</text><text fill="#000000" font-family="sans-serif" font-size="14" lengthAdjust="spacing" textLength="191" x="780" y="616.8545">digital_signature : Signature</text><text fill="#000000" font-family="sans-serif" font-size="14" lengthAdjust="spacing" textLength="199" x="780" y="633.1514">flag_for_reinspection : Check</text><line style="stroke:#181818;stroke-width:0.5;" x1="775" x2="1029" y1="640.4531" y2="640.4531"/></g><!--class Clarinet Intake--><g id="elem_Clarinet Intake"><rect fill="#F1F1F1" height="48" id="Clarinet Intake" rx="2.5" ry="2.5" style="stroke:#181818;stroke-width:0.5;" width="130" x="1029" y="157.5"/><ellipse cx="1044" cy="173.5" fill="#ADD1B2" rx="11" ry="11" style="stroke:#181818;stroke-width:1.0;"/><path d="M1047.5156,177.5313 L1047.5156,179.5625 Q1046.0313,180.1719 1044.2031,180.1719 Q1041.4844,180.1719 1040.0313,178.4375 Q1038.5781,176.6875 1038.5781,173.5781 Q1038.5781,170.5781 1040.1563,168.7969 Q1041.7344,167 1044.4531,167 Q1046.3594,167 1048.0938,167.9219 L1047.1406,169.8281 Q1045.6406,169.0469 1044.4531,169.0469 Q1042.8438,169.0469 1041.8594,170.2656 Q1040.8906,171.4688 1040.8906,173.5938 Q1040.8906,175.8438 1041.7969,176.9844 Q1042.7188,178.125 1044.4531,178.125 Q1045.4844,178.125 1047.5156,177.5313 Z " fill="#000000"/><text fill="#000000" font-family="sans-serif" font-size="14" lengthAdjust="spacing" textLength="98" x="1058" y="178.3467">Clarinet Intake</text><line style="stroke:#181818;stroke-width:0.5;" x1="1030" x2="1158" y1="189.5" y2="189.5"/><line style="stroke:#181818;stroke-width:0.5;" x1="1030" x2="1158" y1="197.5" y2="197.5"/></g><!--class Inspection Checklist Item--><g id="elem_Inspection Checklist Item"><rect codeLine="43" fill="#AED6F1" height="194.6719" id="Inspection Checklist Item" rx="2.5" ry="2.5" style="stroke:#181818;stroke-width:0.5;" width="205" x="788.5" y="84"/><ellipse cx="803.5" cy="100" fill="#ADD1B2" rx="11" ry="11" style="stroke:#181818;stroke-width:1.0;"/><path d="M807.0156,104.0313 L807.0156,106.0625 Q805.5313,106.6719 803.7031,106.6719 Q800.9844,106.6719 799.5313,104.9375 Q798.0781,103.1875 798.0781,100.0781 Q798.0781,97.0781 799.6563,95.2969 Q801.2344,93.5 803.9531,93.5 Q805.8594,93.5 807.5938,94.4219 L806.6406,96.3281 Q805.1406,95.5469 803.9531,95.5469 Q802.3438,95.5469 801.3594,96.7656 Q800.3906,97.9688 800.3906,100.0938 Q800.3906,102.3438 801.2969,103.4844 Q802.2188,104.625 803.9531,104.625 Q804.9844,104.625 807.0156,104.0313 Z " fill="#000000"/><text fill="#000000" font-family="sans-serif" font-size="14" lengthAdjust="spacing" textLength="173" x="817.5" y="104.8467">Inspection Checklist Item</text><line style="stroke:#181818;stroke-width:0.5;" x1="789.5" x2="992.5" y1="116" y2="116"/><text fill="#000000" font-family="sans-serif" font-size="14" lengthAdjust="spacing" textLength="100" x="794.5" y="132.9951">sequence : Int</text><text fill="#000000" font-family="sans-serif" font-size="14" lengthAdjust="spacing" textLength="75" x="794.5" y="149.292">area : Data</text><text fill="#000000" font-family="sans-serif" font-size="14" lengthAdjust="spacing" textLength="89" x="794.5" y="165.5889">criteria : Text</text><text fill="#000000" font-family="sans-serif" font-size="14" lengthAdjust="spacing" textLength="81" x="794.5" y="181.8857">value : Data</text><text fill="#000000" font-family="sans-serif" font-size="14" lengthAdjust="spacing" textLength="114" x="794.5" y="198.1826">pass_fail : Select</text><text fill="#000000" font-family="sans-serif" font-size="14" lengthAdjust="spacing" textLength="109" x="794.5" y="214.4795">severity : Select</text><text fill="#000000" font-family="sans-serif" font-size="14" lengthAdjust="spacing" textLength="160" x="794.5" y="230.7764">corrective_action : Text</text><text fill="#000000" font-family="sans-serif" font-size="14" lengthAdjust="spacing" textLength="144" x="794.5" y="247.0732">photo : Attach Image</text><text fill="#000000" font-family="sans-serif" font-size="14" lengthAdjust="spacing" textLength="123" x="794.5" y="263.3701">notes : Small Text</text><line style="stroke:#181818;stroke-width:0.5;" x1="789.5" x2="992.5" y1="270.6719" y2="270.6719"/></g><!--class Non Conformance Report--><g id="elem_Non Conformance Report"><rect fill="#F1F1F1" height="48" id="Non Conformance Report" rx="2.5" ry="2.5" style="stroke:#181818;stroke-width:0.5;" width="208" x="545" y="157.5"/><ellipse cx="560" cy="173.5" fill="#ADD1B2" rx="11" ry="11" style="stroke:#181818;stroke-width:1.0;"/><path d="M563.5156,177.5313 L563.5156,179.5625 Q562.0313,180.1719 560.2031,180.1719 Q557.4844,180.1719 556.0313,178.4375 Q554.5781,176.6875 554.5781,173.5781 Q554.5781,170.5781 556.1563,168.7969 Q557.7344,167 560.4531,167 Q562.3594,167 564.0938,167.9219 L563.1406,169.8281 Q561.6406,169.0469 560.4531,169.0469 Q558.8438,169.0469 557.8594,170.2656 Q556.8906,171.4688 556.8906,173.5938 Q556.8906,175.8438 557.7969,176.9844 Q558.7188,178.125 560.4531,178.125 Q561.4844,178.125 563.5156,177.5313 Z " fill="#000000"/><text fill="#000000" font-family="sans-serif" font-size="14" lengthAdjust="spacing" textLength="176" x="574" y="178.3467">Non Conformance Report</text><line style="stroke:#181818;stroke-width:0.5;" x1="546" x2="752" y1="189.5" y2="189.5"/><line style="stroke:#181818;stroke-width:0.5;" x1="546" x2="752" y1="197.5" y2="197.5"/></g><!--class Instrument Profile--><g id="elem_Instrument Profile"><rect fill="#F1F1F1" height="48" id="Instrument Profile" rx="2.5" ry="2.5" style="stroke:#181818;stroke-width:0.5;" width="153" x="145.5" y="157.5"/><ellipse cx="160.5" cy="173.5" fill="#ADD1B2" rx="11" ry="11" style="stroke:#181818;stroke-width:1.0;"/><path d="M164.0156,177.5313 L164.0156,179.5625 Q162.5313,180.1719 160.7031,180.1719 Q157.9844,180.1719 156.5313,178.4375 Q155.0781,176.6875 155.0781,173.5781 Q155.0781,170.5781 156.6563,168.7969 Q158.2344,167 160.9531,167 Q162.8594,167 164.5938,167.9219 L163.6406,169.8281 Q162.1406,169.0469 160.9531,169.0469 Q159.3438,169.0469 158.3594,170.2656 Q157.3906,171.4688 157.3906,173.5938 Q157.3906,175.8438 158.2969,176.9844 Q159.2188,178.125 160.9531,178.125 Q161.9844,178.125 164.0156,177.5313 Z " fill="#000000"/><text fill="#000000" font-family="sans-serif" font-size="14" lengthAdjust="spacing" textLength="121" x="174.5" y="178.3467">Instrument Profile</text><line style="stroke:#181818;stroke-width:0.5;" x1="146.5" x2="297.5" y1="189.5" y2="189.5"/><line style="stroke:#181818;stroke-width:0.5;" x1="146.5" x2="297.5" y1="197.5" y2="197.5"/></g><!--class Clarinet Inspection--><g id="elem_Clarinet Inspection"><rect codeLine="35" fill="#AED6F1" height="145.7813" id="Clarinet Inspection" rx="2.5" ry="2.5" style="stroke:#181818;stroke-width:0.5;" width="196" x="117" y="429"/><ellipse cx="148.2" cy="445" fill="#ADD1B2" rx="11" ry="11" style="stroke:#181818;stroke-width:1.0;"/><path d="M151.7156,449.0313 L151.7156,451.0625 Q150.2313,451.6719 148.4031,451.6719 Q145.6844,451.6719 144.2313,449.9375 Q142.7781,448.1875 142.7781,445.0781 Q142.7781,442.0781 144.3563,440.2969 Q145.9344,438.5 148.6531,438.5 Q150.5594,438.5 152.2938,439.4219 L151.3406,441.3281 Q149.8406,440.5469 148.6531,440.5469 Q147.0438,440.5469 146.0594,441.7656 Q145.0906,442.9688 145.0906,445.0938 Q145.0906,447.3438 145.9969,448.4844 Q146.9188,449.625 148.6531,449.625 Q149.6844,449.625 151.7156,449.0313 Z " fill="#000000"/><text fill="#000000" font-family="sans-serif" font-size="14" lengthAdjust="spacing" textLength="128" x="165.8" y="449.8467">Clarinet Inspection</text><line style="stroke:#181818;stroke-width:0.5;" x1="118" x2="312" y1="461" y2="461"/><text fill="#000000" font-family="sans-serif" font-size="14" lengthAdjust="spacing" textLength="164" x="123" y="477.9951">instrument_profile : Link</text><text fill="#000000" font-family="sans-serif" font-size="14" lengthAdjust="spacing" textLength="132" x="123" y="494.292">inspected_by : Link</text><text fill="#000000" font-family="sans-serif" font-size="14" lengthAdjust="spacing" textLength="156" x="123" y="510.5889">inspection_date : Date</text><text fill="#000000" font-family="sans-serif" font-size="14" lengthAdjust="spacing" textLength="171" x="123" y="526.8857">overall_condition : Select</text><text fill="#000000" font-family="sans-serif" font-size="14" lengthAdjust="spacing" textLength="184" x="123" y="543.1826">inspection_findings : Table</text><text fill="#000000" font-family="sans-serif" font-size="14" lengthAdjust="spacing" textLength="83" x="123" y="559.4795">notes : Text</text><line style="stroke:#181818;stroke-width:0.5;" x1="118" x2="312" y1="566.7813" y2="566.7813"/></g><!--class User--><g id="elem_User"><rect fill="#F1F1F1" height="48" id="User" rx="2.5" ry="2.5" style="stroke:#181818;stroke-width:0.5;" width="64" x="46" y="157.5"/><ellipse cx="61" cy="173.5" fill="#ADD1B2" rx="11" ry="11" style="stroke:#181818;stroke-width:1.0;"/><path d="M64.5156,177.5313 L64.5156,179.5625 Q63.0313,180.1719 61.2031,180.1719 Q58.4844,180.1719 57.0313,178.4375 Q55.5781,176.6875 55.5781,173.5781 Q55.5781,170.5781 57.1563,168.7969 Q58.7344,167 61.4531,167 Q63.3594,167 65.0938,167.9219 L64.1406,169.8281 Q62.6406,169.0469 61.4531,169.0469 Q59.8438,169.0469 58.8594,170.2656 Q57.8906,171.4688 57.8906,173.5938 Q57.8906,175.8438 58.7969,176.9844 Q59.7188,178.125 61.4531,178.125 Q62.4844,178.125 64.5156,177.5313 Z " fill="#000000"/><text fill="#000000" font-family="sans-serif" font-size="14" lengthAdjust="spacing" textLength="32" x="75" y="178.3467">User</text><line style="stroke:#181818;stroke-width:0.5;" x1="47" x2="109" y1="189.5" y2="189.5"/><line style="stroke:#181818;stroke-width:0.5;" x1="47" x2="109" y1="197.5" y2="197.5"/></g><!--class Customer External Work Log--><g id="elem_Customer External Work Log"><rect codeLine="54" fill="#AED6F1" height="96.8906" id="Customer External Work Log" rx="2.5" ry="2.5" style="stroke:#181818;stroke-width:0.5;" width="227" x="1602.5" y="133"/><ellipse cx="1617.5" cy="149" fill="#ADD1B2" rx="11" ry="11" style="stroke:#181818;stroke-width:1.0;"/><path d="M1621.0156,153.0313 L1621.0156,155.0625 Q1619.5313,155.6719 1617.7031,155.6719 Q1614.9844,155.6719 1613.5313,153.9375 Q1612.0781,152.1875 1612.0781,149.0781 Q1612.0781,146.0781 1613.6563,144.2969 Q1615.2344,142.5 1617.9531,142.5 Q1619.8594,142.5 1621.5938,143.4219 L1620.6406,145.3281 Q1619.1406,144.5469 1617.9531,144.5469 Q1616.3438,144.5469 1615.3594,145.7656 Q1614.3906,146.9688 1614.3906,149.0938 Q1614.3906,151.3438 1615.2969,152.4844 Q1616.2188,153.625 1617.9531,153.625 Q1618.9844,153.625 1621.0156,153.0313 Z " fill="#000000"/><text fill="#000000" font-family="sans-serif" font-size="14" lengthAdjust="spacing" textLength="195" x="1631.5" y="153.8467">Customer External Work Log</text><line style="stroke:#181818;stroke-width:0.5;" x1="1603.5" x2="1828.5" y1="165" y2="165"/><text fill="#000000" font-family="sans-serif" font-size="14" lengthAdjust="spacing" textLength="160" x="1608.5" y="181.9951">work_description : Text</text><text fill="#000000" font-family="sans-serif" font-size="14" lengthAdjust="spacing" textLength="156" x="1608.5" y="198.292">date_performed : Date</text><text fill="#000000" font-family="sans-serif" font-size="14" lengthAdjust="spacing" textLength="140" x="1608.5" y="214.5889">performed_by : Data</text><line style="stroke:#181818;stroke-width:0.5;" x1="1603.5" x2="1828.5" y1="221.8906" y2="221.8906"/></g><!--class Key Measurement--><g id="elem_Key Measurement"><rect codeLine="59" fill="#AED6F1" height="129.4844" id="Key Measurement" rx="2.5" ry="2.5" style="stroke:#181818;stroke-width:0.5;" width="157" x="1396.5" y="437.5"/><ellipse cx="1411.5" cy="453.5" fill="#ADD1B2" rx="11" ry="11" style="stroke:#181818;stroke-width:1.0;"/><path d="M1415.0156,457.5313 L1415.0156,459.5625 Q1413.5313,460.1719 1411.7031,460.1719 Q1408.9844,460.1719 1407.5313,458.4375 Q1406.0781,456.6875 1406.0781,453.5781 Q1406.0781,450.5781 1407.6563,448.7969 Q1409.2344,447 1411.9531,447 Q1413.8594,447 1415.5938,447.9219 L1414.6406,449.8281 Q1413.1406,449.0469 1411.9531,449.0469 Q1410.3438,449.0469 1409.3594,450.2656 Q1408.3906,451.4688 1408.3906,453.5938 Q1408.3906,455.8438 1409.2969,456.9844 Q1410.2188,458.125 1411.9531,458.125 Q1412.9844,458.125 1415.0156,457.5313 Z " fill="#000000"/><text fill="#000000" font-family="sans-serif" font-size="14" lengthAdjust="spacing" textLength="125" x="1425.5" y="458.3467">Key Measurement</text><line style="stroke:#181818;stroke-width:0.5;" x1="1397.5" x2="1552.5" y1="469.5" y2="469.5"/><text fill="#000000" font-family="sans-serif" font-size="14" lengthAdjust="spacing" textLength="90" x="1402.5" y="486.4951">pad_id : Data</text><text fill="#000000" font-family="sans-serif" font-size="14" lengthAdjust="spacing" textLength="117" x="1402.5" y="502.792">pad_name : Data</text><text fill="#000000" font-family="sans-serif" font-size="14" lengthAdjust="spacing" textLength="123" x="1402.5" y="519.0889">height_mm : Float</text><text fill="#000000" font-family="sans-serif" font-size="14" lengthAdjust="spacing" textLength="134" x="1402.5" y="535.3857">seal_status : Select</text><text fill="#000000" font-family="sans-serif" font-size="14" lengthAdjust="spacing" textLength="123" x="1402.5" y="551.6826">notes : Small Text</text><line style="stroke:#181818;stroke-width:0.5;" x1="1397.5" x2="1552.5" y1="558.9844" y2="558.9844"/></g><!--reverse link Quality Procedure to Inspection Report--><g id="link_Quality Procedure_Inspection Report"><path codeLine="10" d="M1250.94,217.05 C1231.93,247.93 1201.24,293.22 1167,326 C1126.38,364.89 1076.06,400.57 1030.22,429.43 " fill="none" id="Quality Procedure-backto-Inspection Report" style="stroke:#181818;stroke-width:1.0;"/><polygon fill="#181818" points="1257.88,205.58,1251.3526,208.6449,1251.6712,215.8489,1258.1986,212.7841,1257.88,205.58" style="stroke:#181818;stroke-width:1.0;"/><text fill="#000000" font-family="sans-serif" font-size="13" lengthAdjust="spacing" textLength="65" x="1181" y="322.0669">procedure</text></g><!--reverse link Clarinet Intake to Inspection Report--><g id="link_Clarinet Intake_Inspection Report"><path codeLine="11" d="M1081.34,217.9 C1070.09,247.63 1052.32,290.78 1032,326 C1026.33,335.83 1020.19,345.77 1013.79,355.64 " fill="none" id="Clarinet Intake-backto-Inspection Report" style="stroke:#181818;stroke-width:1.0;"/><polygon fill="#181818" points="1085.89,205.65,1080.0504,209.8808,1081.7098,216.8984,1087.5493,212.6676,1085.89,205.65" style="stroke:#181818;stroke-width:1.0;"/><text fill="#000000" font-family="sans-serif" font-size="13" lengthAdjust="spacing" textLength="117" x="1041" y="322.0669">clarinet_intake_ref</text></g><!--reverse link Inspection Checklist Item to Inspection Report--><g id="link_Inspection Checklist Item_Inspection Report"><path codeLine="12" d="M894.8,292.58 C895.51,313 896.25,334.61 896.99,355.88 " fill="none" id="Inspection Checklist Item-backto-Inspection Report" style="stroke:#181818;stroke-width:1.0;"/><polygon fill="#181818" points="894.35,279.36,890.5636,285.497,894.7722,291.3526,898.5586,285.2156,894.35,279.36" style="stroke:#181818;stroke-width:1.0;"/><text fill="#000000" font-family="sans-serif" font-size="13" lengthAdjust="spacing" textLength="127" x="896" y="322.0669">inspection_checklist</text></g><!--reverse link Inspection Finding to Inspection Report--><g id="link_Inspection Finding_Inspection Report"><path codeLine="13" d="M492.44,247.03 C504.27,257.75 516.45,268.72 528,279 C551.77,300.16 555.89,307.82 582,326 C642.28,367.98 713.63,407.84 773.65,438.89 " fill="none" id="Inspection Finding-backto-Inspection Report" style="stroke:#181818;stroke-width:1.0;"/><polygon fill="#181818" points="482.61,238.1,484.3631,245.0948,491.4941,246.1668,489.741,239.1721,482.61,238.1" style="stroke:#181818;stroke-width:1.0;"/><text fill="#000000" font-family="sans-serif" font-size="13" lengthAdjust="spacing" textLength="121" x="583" y="322.0669">inspection_findings</text></g><!--reverse link Non Conformance Report to Inspection Report--><g id="link_Non Conformance Report_Inspection Report"><path codeLine="14" d="M663.65,217.68 C677.07,247.88 698.66,291.81 724,326 C738.84,346.02 755.99,365.88 773.67,384.63 " fill="none" id="Non Conformance Report-backto-Inspection Report" style="stroke:#181818;stroke-width:1.0;"/><polygon fill="#181818" points="658.41,205.65,657.144,212.7491,663.2101,216.6481,664.4761,209.549,658.41,205.65" style="stroke:#181818;stroke-width:1.0;"/><text fill="#000000" font-family="sans-serif" font-size="13" lengthAdjust="spacing" textLength="161" x="725" y="322.0669">non_conformance_report</text></g><!--reverse link Instrument Profile to Clarinet Inspection--><g id="link_Instrument Profile_Clarinet Inspection"><path codeLine="32" d="M218.37,218.78 C216.03,244.05 213.2,278.54 212,309 C210.44,348.64 210.97,392.92 212,428.95 " fill="none" id="Instrument Profile-backto-Clarinet Inspection" style="stroke:#181818;stroke-width:1.0;"/><polygon fill="#181818" points="219.61,205.78,215.0548,211.3702,218.463,217.7251,223.0182,212.1349,219.61,205.78" style="stroke:#181818;stroke-width:1.0;"/><text fill="#000000" font-family="sans-serif" font-size="13" lengthAdjust="spacing" textLength="116" x="213" y="322.0669">instrument_profile</text></g><!--reverse link User to Clarinet Inspection--><g id="link_User_Clarinet Inspection"><path codeLine="33" d="M85.24,218.65 C91.76,248.16 102.54,290.62 117,326 C131.36,361.14 151.25,398.08 169.37,428.92 " fill="none" id="User-backto-Clarinet Inspection" style="stroke:#181818;stroke-width:1.0;"/><polygon fill="#181818" points="82.47,205.69,79.8108,212.3929,84.9753,217.4256,87.6345,210.7227,82.47,205.69" style="stroke:#181818;stroke-width:1.0;"/><text fill="#000000" font-family="sans-serif" font-size="13" lengthAdjust="spacing" textLength="84" x="118" y="322.0669">inspected_by</text></g><!--reverse link Inspection Finding to Clarinet Inspection--><g id="link_Inspection Finding_Clarinet Inspection"><path codeLine="34" d="M381.9,249.35 C367.1,273.64 350.02,301.21 334,326 C311.97,360.1 286.78,397.37 265.27,428.71 " fill="none" id="Inspection Finding-backto-Clarinet Inspection" style="stroke:#181818;stroke-width:1.0;"/><polygon fill="#181818" points="388.75,238.08,382.2151,241.1289,382.5161,248.3337,389.0509,245.2848,388.75,238.08" style="stroke:#181818;stroke-width:1.0;"/><text fill="#000000" font-family="sans-serif" font-size="13" lengthAdjust="spacing" textLength="121" x="344" y="322.0669">inspection_findings</text></g><!--SRC=[ZLHDRzim3BtdLmZURK07xB93K1GeqWO8rWtRsc57WP5eMuWikPASrHZwtqV5iIqdRhQRpIyzyf6l1h630fd36fJZjNK1z0TbV8qYA6lOzVNQQedkveRzMGWDthCie2YD4WeCb-3BhGKdC_Rkzlxkq_eZXRtsWPknpbePgKoHXZ463e4jsHq4e3-xzUZsS0XViiSAj6PF-1B8vN6FJeKssb5JIRAfAW9VijiGG9Hi4t_fwUnx0pg6VdDMe6mSPkpzrTK4p0-CZMQKNFT1YsobmIc3WMrCWDt5B74CvUeGoXtcYpHoLQBOQUMfLi3gKgLnqbpqIOlPkVrNZRoBzeliQuHXJMvT1KRW4Fvs6HCnZ1dKLFJCKDcdf4mc62G4x4Z5pX5SKw6XOScHQz7uO2jqt425epaf4zeQKxe7fiZueCmkRaM0qFXf46fLAGEkvUW3hSW1owfn3ereuyFdr8q5DHOWMfx4371Iy7EaaVS9jXgdxfwFnFiik40NLAv41wxRN_BC4p2YawfGT9tSgy9GuuT9FFRVvCyr59ooAJ4vu6MtZV4oDWCNyJXofVibJrQ_ppikLizTtSKlifzqe__CYdye-RQziCgNioVBV5p1sOoJ9Jp1EmulHNLcFLzRItf3-XFvaAfNf45vBX9iRC33VvIkEIayLOUq1O_F3SPxNKOPEfD8GI98GWXzUSRse9laW6fwZEUWT8ftJZs5fPCWF7laq2_AiMHTsc1FXNNiAn7ceRlLyPpP_GlXCw3PB-jsxC6U2FvlidA9dlgefu_6yVCQNTn-b2CHWwdZxT3cyEndRDaN14_x7rcVlbM3d5nj_9-gJOcgA0ElAZAjjOLkLl72peHbjldNlm00]--></g></svg>