<?xml version="1.0" encoding="us-ascii" standalone="no"?><svg xmlns="http://www.w3.org/2000/svg" xmlns:xlink="http://www.w3.org/1999/xlink" contentStyleType="text/css" height="695px" preserveAspectRatio="none" style="width:1589px;height:695px;background:#FFFFFF;" version="1.1" viewBox="0 0 1589 695" width="1589px" zoomAndPan="magnify"><defs/><g><!--cluster repair_portal--><g id="cluster_repair_portal"><path d="M8.5,6 L109.5,6 A3.75,3.75 0 0 1 112,8.5 L119,28.2969 L1579.5,28.2969 A2.5,2.5 0 0 1 1582,30.7969 L1582,685.5 A2.5,2.5 0 0 1 1579.5,688 L8.5,688 A2.5,2.5 0 0 1 6,685.5 L6,8.5 A2.5,2.5 0 0 1 8.5,6 " fill="none" style="stroke:#000000;stroke-width:1.5;"/><line style="stroke:#000000;stroke-width:1.5;" x1="6" x2="119" y1="28.2969" y2="28.2969"/><text fill="#000000" font-family="sans-serif" font-size="14" font-weight="bold" lengthAdjust="spacing" textLength="100" x="10" y="20.9951">repair_portal</text></g><!--cluster inspection--><g id="cluster_inspection"><path d="M32.5,49 L115.5,49 A3.75,3.75 0 0 1 118,51.5 L125,71.2969 L1555.5,71.2969 A2.5,2.5 0 0 1 1558,73.7969 L1558,661.5 A2.5,2.5 0 0 1 1555.5,664 L32.5,664 A2.5,2.5 0 0 1 30,661.5 L30,51.5 A2.5,2.5 0 0 1 32.5,49 " fill="none" style="stroke:#000000;stroke-width:1.5;"/><line style="stroke:#000000;stroke-width:1.5;" x1="30" x2="125" y1="71.2969" y2="71.2969"/><text fill="#000000" font-family="sans-serif" font-size="14" font-weight="bold" lengthAdjust="spacing" textLength="82" x="34" y="63.9951">inspection</text></g><!--class technician_dashboard--><g id="elem_technician_dashboard"><rect codeLine="2" fill="#AED6F1" height="48" id="technician_dashboard" rx="2.5" ry="2.5" style="stroke:#181818;stroke-width:0.5;" width="184" x="1095" y="157.5"/><ellipse cx="1110" cy="173.5" fill="#ADD1B2" rx="11" ry="11" style="stroke:#181818;stroke-width:1.0;"/><path d="M1113.5156,177.5313 L1113.5156,179.5625 Q1112.0313,180.1719 1110.2031,180.1719 Q1107.4844,180.1719 1106.0313,178.4375 Q1104.5781,176.6875 1104.5781,173.5781 Q1104.5781,170.5781 1106.1563,168.7969 Q1107.7344,167 1110.4531,167 Q1112.3594,167 1114.0938,167.9219 L1113.1406,169.8281 Q1111.6406,169.0469 1110.4531,169.0469 Q1108.8438,169.0469 1107.8594,170.2656 Q1106.8906,171.4688 1106.8906,173.5938 Q1106.8906,175.8438 1107.7969,176.9844 Q1108.7188,178.125 1110.4531,178.125 Q1111.4844,178.125 1113.5156,177.5313 Z " fill="#000000"/><text fill="#000000" font-family="sans-serif" font-size="14" lengthAdjust="spacing" textLength="152" x="1124" y="178.3467">technician_dashboard</text><line style="stroke:#181818;stroke-width:0.5;" x1="1096" x2="1278" y1="189.5" y2="189.5"/><line style="stroke:#181818;stroke-width:0.5;" x1="1096" x2="1278" y1="197.5" y2="197.5"/></g><!--class Inspection Finding--><g id="elem_Inspection Finding"><rect codeLine="4" fill="#AED6F1" height="113.1875" id="Inspection Finding" rx="2.5" ry="2.5" style="stroke:#181818;stroke-width:0.5;" width="176" x="884" y="125"/><ellipse cx="907.1" cy="141" fill="#ADD1B2" rx="11" ry="11" style="stroke:#181818;stroke-width:1.0;"/><path d="M910.6156,145.0313 L910.6156,147.0625 Q909.1313,147.6719 907.3031,147.6719 Q904.5844,147.6719 903.1313,145.9375 Q901.6781,144.1875 901.6781,141.0781 Q901.6781,138.0781 903.2563,136.2969 Q904.8344,134.5 907.5531,134.5 Q909.4594,134.5 911.1938,135.4219 L910.2406,137.3281 Q908.7406,136.5469 907.5531,136.5469 Q905.9438,136.5469 904.9594,137.7656 Q903.9906,138.9688 903.9906,141.0938 Q903.9906,143.3438 904.8969,144.4844 Q905.8188,145.625 907.5531,145.625 Q908.5844,145.625 910.6156,145.0313 Z " fill="#000000"/><text fill="#000000" font-family="sans-serif" font-size="14" lengthAdjust="spacing" textLength="126" x="922.9" y="145.8467">Inspection Finding</text><line style="stroke:#181818;stroke-width:0.5;" x1="885" x2="1059" y1="157" y2="157"/><text fill="#000000" font-family="sans-serif" font-size="14" lengthAdjust="spacing" textLength="75" x="890" y="173.9951">area : Data</text><text fill="#000000" font-family="sans-serif" font-size="14" lengthAdjust="spacing" textLength="164" x="890" y="190.292">observation : Small Text</text><text fill="#000000" font-family="sans-serif" font-size="14" lengthAdjust="spacing" textLength="109" x="890" y="206.5889">severity : Select</text><text fill="#000000" font-family="sans-serif" font-size="14" lengthAdjust="spacing" textLength="145" x="890" y="222.8857">image : Attach Image</text><line style="stroke:#181818;stroke-width:0.5;" x1="885" x2="1059" y1="230.1875" y2="230.1875"/></g><!--class Quality Procedure--><g id="elem_Quality Procedure"><rect fill="#F1F1F1" height="48" id="Quality Procedure" rx="2.5" ry="2.5" style="stroke:#181818;stroke-width:0.5;" width="154" x="695" y="157.5"/><ellipse cx="710" cy="173.5" fill="#ADD1B2" rx="11" ry="11" style="stroke:#181818;stroke-width:1.0;"/><path d="M713.5156,177.5313 L713.5156,179.5625 Q712.0313,180.1719 710.2031,180.1719 Q707.4844,180.1719 706.0313,178.4375 Q704.5781,176.6875 704.5781,173.5781 Q704.5781,170.5781 706.1563,168.7969 Q707.7344,167 710.4531,167 Q712.3594,167 714.0938,167.9219 L713.1406,169.8281 Q711.6406,169.0469 710.4531,169.0469 Q708.8438,169.0469 707.8594,170.2656 Q706.8906,171.4688 706.8906,173.5938 Q706.8906,175.8438 707.7969,176.9844 Q708.7188,178.125 710.4531,178.125 Q711.4844,178.125 713.5156,177.5313 Z " fill="#000000"/><text fill="#000000" font-family="sans-serif" font-size="14" lengthAdjust="spacing" textLength="122" x="724" y="178.3467">Quality Procedure</text><line style="stroke:#181818;stroke-width:0.5;" x1="696" x2="848" y1="189.5" y2="189.5"/><line style="stroke:#181818;stroke-width:0.5;" x1="696" x2="848" y1="197.5" y2="197.5"/></g><!--class Inspection Report--><g id="elem_Inspection Report"><rect codeLine="15" fill="#AED6F1" height="292.4531" id="Inspection Report" rx="2.5" ry="2.5" style="stroke:#181818;stroke-width:0.5;" width="256" x="467" y="356"/><ellipse cx="529.25" cy="372" fill="#ADD1B2" rx="11" ry="11" style="stroke:#181818;stroke-width:1.0;"/><path d="M532.7656,376.0313 L532.7656,378.0625 Q531.2813,378.6719 529.4531,378.6719 Q526.7344,378.6719 525.2813,376.9375 Q523.8281,375.1875 523.8281,372.0781 Q523.8281,369.0781 525.4063,367.2969 Q526.9844,365.5 529.7031,365.5 Q531.6094,365.5 533.3438,366.4219 L532.3906,368.3281 Q530.8906,367.5469 529.7031,367.5469 Q528.0938,367.5469 527.1094,368.7656 Q526.1406,369.9688 526.1406,372.0938 Q526.1406,374.3438 527.0469,375.4844 Q527.9688,376.625 529.7031,376.625 Q530.7344,376.625 532.7656,376.0313 Z " fill="#000000"/><text fill="#000000" font-family="sans-serif" font-size="14" lengthAdjust="spacing" textLength="123" x="549.75" y="376.8467">Inspection Report</text><line style="stroke:#181818;stroke-width:0.5;" x1="468" x2="722" y1="388" y2="388"/><text fill="#000000" font-family="sans-serif" font-size="14" lengthAdjust="spacing" textLength="156" x="473" y="404.9951">inspection_date : Date</text><text fill="#000000" font-family="sans-serif" font-size="14" lengthAdjust="spacing" textLength="139" x="473" y="421.292">instrument_id : Data</text><text fill="#000000" font-family="sans-serif" font-size="14" lengthAdjust="spacing" textLength="157" x="473" y="437.5889">customer_name : Data</text><text fill="#000000" font-family="sans-serif" font-size="14" lengthAdjust="spacing" textLength="165" x="473" y="453.8857">inspection_type : Select</text><text fill="#000000" font-family="sans-serif" font-size="14" lengthAdjust="spacing" textLength="112" x="473" y="470.1826">procedure : Link</text><text fill="#000000" font-family="sans-serif" font-size="14" lengthAdjust="spacing" textLength="99" x="473" y="486.4795">status : Select</text><text fill="#000000" font-family="sans-serif" font-size="14" lengthAdjust="spacing" textLength="216" x="473" y="502.7764">preliminary_estimate : Currency</text><text fill="#000000" font-family="sans-serif" font-size="14" lengthAdjust="spacing" textLength="164" x="473" y="519.0732">clarinet_intake_ref : Link</text><text fill="#000000" font-family="sans-serif" font-size="14" lengthAdjust="spacing" textLength="244" x="473" y="535.3701">legacy_clarinet_inspection_id : Data</text><text fill="#000000" font-family="sans-serif" font-size="14" lengthAdjust="spacing" textLength="191" x="473" y="551.667">inspection_checklist : Table</text><text fill="#000000" font-family="sans-serif" font-size="14" lengthAdjust="spacing" textLength="184" x="473" y="567.9639">inspection_findings : Table</text><text fill="#000000" font-family="sans-serif" font-size="14" lengthAdjust="spacing" textLength="148" x="473" y="584.2607">qc_certificate : Attach</text><text fill="#000000" font-family="sans-serif" font-size="14" lengthAdjust="spacing" textLength="214" x="473" y="600.5576">non_conformance_report : Link</text><text fill="#000000" font-family="sans-serif" font-size="14" lengthAdjust="spacing" textLength="191" x="473" y="616.8545">digital_signature : Signature</text><text fill="#000000" font-family="sans-serif" font-size="14" lengthAdjust="spacing" textLength="199" x="473" y="633.1514">flag_for_reinspection : Check</text><line style="stroke:#181818;stroke-width:0.5;" x1="468" x2="722" y1="640.4531" y2="640.4531"/></g><!--class Clarinet Intake--><g id="elem_Clarinet Intake"><rect fill="#F1F1F1" height="48" id="Clarinet Intake" rx="2.5" ry="2.5" style="stroke:#181818;stroke-width:0.5;" width="130" x="530" y="157.5"/><ellipse cx="545" cy="173.5" fill="#ADD1B2" rx="11" ry="11" style="stroke:#181818;stroke-width:1.0;"/><path d="M548.5156,177.5313 L548.5156,179.5625 Q547.0313,180.1719 545.2031,180.1719 Q542.4844,180.1719 541.0313,178.4375 Q539.5781,176.6875 539.5781,173.5781 Q539.5781,170.5781 541.1563,168.7969 Q542.7344,167 545.4531,167 Q547.3594,167 549.0938,167.9219 L548.1406,169.8281 Q546.6406,169.0469 545.4531,169.0469 Q543.8438,169.0469 542.8594,170.2656 Q541.8906,171.4688 541.8906,173.5938 Q541.8906,175.8438 542.7969,176.9844 Q543.7188,178.125 545.4531,178.125 Q546.4844,178.125 548.5156,177.5313 Z " fill="#000000"/><text fill="#000000" font-family="sans-serif" font-size="14" lengthAdjust="spacing" textLength="98" x="559" y="178.3467">Clarinet Intake</text><line style="stroke:#181818;stroke-width:0.5;" x1="531" x2="659" y1="189.5" y2="189.5"/><line style="stroke:#181818;stroke-width:0.5;" x1="531" x2="659" y1="197.5" y2="197.5"/></g><!--class Inspection Checklist Item--><g id="elem_Inspection Checklist Item"><rect codeLine="32" fill="#AED6F1" height="194.6719" id="Inspection Checklist Item" rx="2.5" ry="2.5" style="stroke:#181818;stroke-width:0.5;" width="205" x="289.5" y="84"/><ellipse cx="304.5" cy="100" fill="#ADD1B2" rx="11" ry="11" style="stroke:#181818;stroke-width:1.0;"/><path d="M308.0156,104.0313 L308.0156,106.0625 Q306.5313,106.6719 304.7031,106.6719 Q301.9844,106.6719 300.5313,104.9375 Q299.0781,103.1875 299.0781,100.0781 Q299.0781,97.0781 300.6563,95.2969 Q302.2344,93.5 304.9531,93.5 Q306.8594,93.5 308.5938,94.4219 L307.6406,96.3281 Q306.1406,95.5469 304.9531,95.5469 Q303.3438,95.5469 302.3594,96.7656 Q301.3906,97.9688 301.3906,100.0938 Q301.3906,102.3438 302.2969,103.4844 Q303.2188,104.625 304.9531,104.625 Q305.9844,104.625 308.0156,104.0313 Z " fill="#000000"/><text fill="#000000" font-family="sans-serif" font-size="14" lengthAdjust="spacing" textLength="173" x="318.5" y="104.8467">Inspection Checklist Item</text><line style="stroke:#181818;stroke-width:0.5;" x1="290.5" x2="493.5" y1="116" y2="116"/><text fill="#000000" font-family="sans-serif" font-size="14" lengthAdjust="spacing" textLength="100" x="295.5" y="132.9951">sequence : Int</text><text fill="#000000" font-family="sans-serif" font-size="14" lengthAdjust="spacing" textLength="75" x="295.5" y="149.292">area : Data</text><text fill="#000000" font-family="sans-serif" font-size="14" lengthAdjust="spacing" textLength="89" x="295.5" y="165.5889">criteria : Text</text><text fill="#000000" font-family="sans-serif" font-size="14" lengthAdjust="spacing" textLength="81" x="295.5" y="181.8857">value : Data</text><text fill="#000000" font-family="sans-serif" font-size="14" lengthAdjust="spacing" textLength="114" x="295.5" y="198.1826">pass_fail : Select</text><text fill="#000000" font-family="sans-serif" font-size="14" lengthAdjust="spacing" textLength="109" x="295.5" y="214.4795">severity : Select</text><text fill="#000000" font-family="sans-serif" font-size="14" lengthAdjust="spacing" textLength="160" x="295.5" y="230.7764">corrective_action : Text</text><text fill="#000000" font-family="sans-serif" font-size="14" lengthAdjust="spacing" textLength="144" x="295.5" y="247.0732">photo : Attach Image</text><text fill="#000000" font-family="sans-serif" font-size="14" lengthAdjust="spacing" textLength="123" x="295.5" y="263.3701">notes : Small Text</text><line style="stroke:#181818;stroke-width:0.5;" x1="290.5" x2="493.5" y1="270.6719" y2="270.6719"/></g><!--class Non Conformance Report--><g id="elem_Non Conformance Report"><rect fill="#F1F1F1" height="48" id="Non Conformance Report" rx="2.5" ry="2.5" style="stroke:#181818;stroke-width:0.5;" width="208" x="46" y="157.5"/><ellipse cx="61" cy="173.5" fill="#ADD1B2" rx="11" ry="11" style="stroke:#181818;stroke-width:1.0;"/><path d="M64.5156,177.5313 L64.5156,179.5625 Q63.0313,180.1719 61.2031,180.1719 Q58.4844,180.1719 57.0313,178.4375 Q55.5781,176.6875 55.5781,173.5781 Q55.5781,170.5781 57.1563,168.7969 Q58.7344,167 61.4531,167 Q63.3594,167 65.0938,167.9219 L64.1406,169.8281 Q62.6406,169.0469 61.4531,169.0469 Q59.8438,169.0469 58.8594,170.2656 Q57.8906,171.4688 57.8906,173.5938 Q57.8906,175.8438 58.7969,176.9844 Q59.7188,178.125 61.4531,178.125 Q62.4844,178.125 64.5156,177.5313 Z " fill="#000000"/><text fill="#000000" font-family="sans-serif" font-size="14" lengthAdjust="spacing" textLength="176" x="75" y="178.3467">Non Conformance Report</text><line style="stroke:#181818;stroke-width:0.5;" x1="47" x2="253" y1="189.5" y2="189.5"/><line style="stroke:#181818;stroke-width:0.5;" x1="47" x2="253" y1="197.5" y2="197.5"/></g><!--class Customer External Work Log--><g id="elem_Customer External Work Log"><rect codeLine="43" fill="#AED6F1" height="96.8906" id="Customer External Work Log" rx="2.5" ry="2.5" style="stroke:#181818;stroke-width:0.5;" width="227" x="1314.5" y="133"/><ellipse cx="1329.5" cy="149" fill="#ADD1B2" rx="11" ry="11" style="stroke:#181818;stroke-width:1.0;"/><path d="M1333.0156,153.0313 L1333.0156,155.0625 Q1331.5313,155.6719 1329.7031,155.6719 Q1326.9844,155.6719 1325.5313,153.9375 Q1324.0781,152.1875 1324.0781,149.0781 Q1324.0781,146.0781 1325.6563,144.2969 Q1327.2344,142.5 1329.9531,142.5 Q1331.8594,142.5 1333.5938,143.4219 L1332.6406,145.3281 Q1331.1406,144.5469 1329.9531,144.5469 Q1328.3438,144.5469 1327.3594,145.7656 Q1326.3906,146.9688 1326.3906,149.0938 Q1326.3906,151.3438 1327.2969,152.4844 Q1328.2188,153.625 1329.9531,153.625 Q1330.9844,153.625 1333.0156,153.0313 Z " fill="#000000"/><text fill="#000000" font-family="sans-serif" font-size="14" lengthAdjust="spacing" textLength="195" x="1343.5" y="153.8467">Customer External Work Log</text><line style="stroke:#181818;stroke-width:0.5;" x1="1315.5" x2="1540.5" y1="165" y2="165"/><text fill="#000000" font-family="sans-serif" font-size="14" lengthAdjust="spacing" textLength="160" x="1320.5" y="181.9951">work_description : Text</text><text fill="#000000" font-family="sans-serif" font-size="14" lengthAdjust="spacing" textLength="156" x="1320.5" y="198.292">date_performed : Date</text><text fill="#000000" font-family="sans-serif" font-size="14" lengthAdjust="spacing" textLength="140" x="1320.5" y="214.5889">performed_by : Data</text><line style="stroke:#181818;stroke-width:0.5;" x1="1315.5" x2="1540.5" y1="221.8906" y2="221.8906"/></g><!--class Key Measurement--><g id="elem_Key Measurement"><rect codeLine="48" fill="#AED6F1" height="129.4844" id="Key Measurement" rx="2.5" ry="2.5" style="stroke:#181818;stroke-width:0.5;" width="157" x="1108.5" y="437.5"/><ellipse cx="1123.5" cy="453.5" fill="#ADD1B2" rx="11" ry="11" style="stroke:#181818;stroke-width:1.0;"/><path d="M1127.0156,457.5313 L1127.0156,459.5625 Q1125.5313,460.1719 1123.7031,460.1719 Q1120.9844,460.1719 1119.5313,458.4375 Q1118.0781,456.6875 1118.0781,453.5781 Q1118.0781,450.5781 1119.6563,448.7969 Q1121.2344,447 1123.9531,447 Q1125.8594,447 1127.5938,447.9219 L1126.6406,449.8281 Q1125.1406,449.0469 1123.9531,449.0469 Q1122.3438,449.0469 1121.3594,450.2656 Q1120.3906,451.4688 1120.3906,453.5938 Q1120.3906,455.8438 1121.2969,456.9844 Q1122.2188,458.125 1123.9531,458.125 Q1124.9844,458.125 1127.0156,457.5313 Z " fill="#000000"/><text fill="#000000" font-family="sans-serif" font-size="14" lengthAdjust="spacing" textLength="125" x="1137.5" y="458.3467">Key Measurement</text><line style="stroke:#181818;stroke-width:0.5;" x1="1109.5" x2="1264.5" y1="469.5" y2="469.5"/><text fill="#000000" font-family="sans-serif" font-size="14" lengthAdjust="spacing" textLength="90" x="1114.5" y="486.4951">pad_id : Data</text><text fill="#000000" font-family="sans-serif" font-size="14" lengthAdjust="spacing" textLength="117" x="1114.5" y="502.792">pad_name : Data</text><text fill="#000000" font-family="sans-serif" font-size="14" lengthAdjust="spacing" textLength="123" x="1114.5" y="519.0889">height_mm : Float</text><text fill="#000000" font-family="sans-serif" font-size="14" lengthAdjust="spacing" textLength="134" x="1114.5" y="535.3857">seal_status : Select</text><text fill="#000000" font-family="sans-serif" font-size="14" lengthAdjust="spacing" textLength="123" x="1114.5" y="551.6826">notes : Small Text</text><line style="stroke:#181818;stroke-width:0.5;" x1="1109.5" x2="1264.5" y1="558.9844" y2="558.9844"/></g><!--reverse link Quality Procedure to Inspection Report--><g id="link_Quality Procedure_Inspection Report"><path codeLine="10" d="M762.67,218.4 C754.19,248.17 740.22,291.12 722,326 C716.78,335.98 711.05,346.03 704.98,355.98 " fill="none" id="Quality Procedure-backto-Inspection Report" style="stroke:#181818;stroke-width:1.0;"/><polygon fill="#181818" points="766.17,205.72,760.7181,210.4398,762.978,217.2877,768.4299,212.5678,766.17,205.72" style="stroke:#181818;stroke-width:1.0;"/><text fill="#000000" font-family="sans-serif" font-size="13" lengthAdjust="spacing" textLength="65" x="730" y="322.0669">procedure</text></g><!--reverse link Clarinet Intake to Inspection Report--><g id="link_Clarinet Intake_Inspection Report"><path codeLine="11" d="M595,218.93 C595,252.7 595,305.23 595,355.84 " fill="none" id="Clarinet Intake-backto-Inspection Report" style="stroke:#181818;stroke-width:1.0;"/><polygon fill="#181818" points="595,205.66,591,211.66,595,217.66,599,211.66,595,205.66" style="stroke:#181818;stroke-width:1.0;"/><text fill="#000000" font-family="sans-serif" font-size="13" lengthAdjust="spacing" textLength="117" x="596" y="322.0669">clarinet_intake_ref</text></g><!--reverse link Inspection Checklist Item to Inspection Report--><g id="link_Inspection Checklist Item_Inspection Report"><path codeLine="12" d="M438.44,290.7 C444.61,302.82 451.18,314.82 458,326 C464.03,335.88 470.52,345.85 477.29,355.75 " fill="none" id="Inspection Checklist Item-backto-Inspection Report" style="stroke:#181818;stroke-width:1.0;"/><polygon fill="#181818" points="432.64,279.06,431.735,286.2141,437.9907,289.801,438.8957,282.6469,432.64,279.06" style="stroke:#181818;stroke-width:1.0;"/><text fill="#000000" font-family="sans-serif" font-size="13" lengthAdjust="spacing" textLength="127" x="459" y="322.0669">inspection_checklist</text></g><!--reverse link Inspection Finding to Inspection Report--><g id="link_Inspection Finding_Inspection Report"><path codeLine="13" d="M902.77,247.19 C890.94,257.93 878.7,268.87 867,279 C820.81,319.01 769.09,361.73 723.25,398.9 " fill="none" id="Inspection Finding-backto-Inspection Report" style="stroke:#181818;stroke-width:1.0;"/><polygon fill="#181818" points="912.58,238.23,905.4524,239.3242,903.721,246.3244,910.8486,245.2302,912.58,238.23" style="stroke:#181818;stroke-width:1.0;"/><text fill="#000000" font-family="sans-serif" font-size="13" lengthAdjust="spacing" textLength="121" x="831" y="322.0669">inspection_findings</text></g><!--reverse link Non Conformance Report to Inspection Report--><g id="link_Non Conformance Report_Inspection Report"><path codeLine="14" d="M174.76,216.3 C198.73,247.42 237.33,293.55 278,326 C335.49,371.87 406.65,412.37 466.97,442.82 " fill="none" id="Non Conformance Report-backto-Inspection Report" style="stroke:#181818;stroke-width:1.0;"/><polygon fill="#181818" points="166.62,205.56,167.0596,212.7577,173.8726,215.1203,173.4331,207.9226,166.62,205.56" style="stroke:#181818;stroke-width:1.0;"/><text fill="#000000" font-family="sans-serif" font-size="13" lengthAdjust="spacing" textLength="161" x="279" y="322.0669">non_conformance_report</text></g><!--SRC=[ZLJ1Qjmm4BtlLmZtLaYXbnwM40YRB2nDIzi4UXIpqjWMbYL7ahSn9V_UqNfjoxjEwCsQUJDwe_V63OWA2cGE6r2EDzO5q9-KyGsAeAnXrzTRgoMwcnlsToKqUC-oWA8qIYWmN88lznQSpDY7s_kxBzlF17iTWBkfprOPgKoHmXW3Xy3Mx0u2qCdkFRe37E5hzbY3rkm9NmAbF1xGgT35E6fgIJ5LH-9hTXi2Y9Bjuf6kpdwse2FqXxC2PUimOn-lhcPaVc4SDAFYPW2jieq6fmm6jZC1gdUhn0dArH7A7UQh5BafKLHQUUeLi7wlq_JIN0n5gyLt-wyUUO_sg-nxf65DRbqDHk08VxkDYHoc2XegPXQa74fI9HCE4WBsecAV2AwjqT1ZoKbhqVfWQtJSG8rJE6aJkWPJkKUbAFYWJ1LT4I2qVWv2hMfbm7KSVI2B7BbiMkVGY2vUV2dTr51Z0QBZ2MQaav9V4esoJx3NE4yFUYJPPy45kg1o9NfolNyfiop0n4wgGj5sSgyAGuCVN-9n-APyhg7WL4s5oGAlUpSkBkMvJrD5FJwt69spZWjniQo2rf5MCaPEEte0tIPIDdGPpq7fL9-bFHQMn24-1-GmK3wrR4eRxFcAnuSAwEU_Y76wpSbOxFw5-1dGxBTr5NkmPx-UFnJb4ZtDqSmlZVxb3Rge0yh9oME8xxjXpF7QhzYnRmYUb8XUdz_LW9pv9vxdlYzH5MNWTKsXhRRGlrNK-iBYYyE__WC0]--></g></svg>