<?xml version="1.0" encoding="us-ascii" standalone="no"?><svg xmlns="http://www.w3.org/2000/svg" xmlns:xlink="http://www.w3.org/1999/xlink" contentStyleType="text/css" height="1554px" preserveAspectRatio="none" style="width:3296px;height:1554px;background:#FFFFFF;" version="1.1" viewBox="0 0 3296 1554" width="3296px" zoomAndPan="magnify"><defs/><g><!--cluster repair_portal--><g id="cluster_repair_portal"><path d="M10.17,6 L111.17,6 A3.75,3.75 0 0 1 113.67,8.5 L120.67,28.2969 L3287.17,28.2969 A2.5,2.5 0 0 1 3289.67,30.7969 L3289.67,1544.5 A2.5,2.5 0 0 1 3287.17,1547 L10.17,1547 A2.5,2.5 0 0 1 7.67,1544.5 L7.67,8.5 A2.5,2.5 0 0 1 10.17,6 " fill="none" style="stroke:#000000;stroke-width:1.5;"/><line style="stroke:#000000;stroke-width:1.5;" x1="7.67" x2="120.67" y1="28.2969" y2="28.2969"/><text fill="#000000" font-family="sans-serif" font-size="14" font-weight="bold" lengthAdjust="spacing" textLength="100" x="11.67" y="20.9951">repair_portal</text></g><!--cluster instrument_profile--><g id="cluster_instrument_profile"><path d="M34.17,49 L179.17,49 A3.75,3.75 0 0 1 181.67,51.5 L188.67,71.2969 L3263.17,71.2969 A2.5,2.5 0 0 1 3265.67,73.7969 L3265.67,1520.5 A2.5,2.5 0 0 1 3263.17,1523 L34.17,1523 A2.5,2.5 0 0 1 31.67,1520.5 L31.67,51.5 A2.5,2.5 0 0 1 34.17,49 " fill="none" style="stroke:#000000;stroke-width:1.5;"/><line style="stroke:#000000;stroke-width:1.5;" x1="31.67" x2="188.67" y1="71.2969" y2="71.2969"/><text fill="#000000" font-family="sans-serif" font-size="14" font-weight="bold" lengthAdjust="spacing" textLength="144" x="35.67" y="63.9951">instrument_profile</text></g><!--class Waiting On Player--><g id="elem_Waiting On Player"><rect codeLine="2" fill="#F5CBA7" height="48" id="Waiting On Player" rx="2.5" ry="2.5" style="stroke:#181818;stroke-width:0.5;" width="151" x="2175.17" y="116.5"/><ellipse cx="2190.17" cy="132.5" fill="#ADD1B2" rx="11" ry="11" style="stroke:#181818;stroke-width:1.0;"/><path d="M2193.6856,136.5313 L2193.6856,138.5625 Q2192.2013,139.1719 2190.3731,139.1719 Q2187.6544,139.1719 2186.2013,137.4375 Q2184.7481,135.6875 2184.7481,132.5781 Q2184.7481,129.5781 2186.3263,127.7969 Q2187.9044,126 2190.6231,126 Q2192.5294,126 2194.2638,126.9219 L2193.3106,128.8281 Q2191.8106,128.0469 2190.6231,128.0469 Q2189.0138,128.0469 2188.0294,129.2656 Q2187.0606,130.4688 2187.0606,132.5938 Q2187.0606,134.8438 2187.9669,135.9844 Q2188.8888,137.125 2190.6231,137.125 Q2191.6544,137.125 2193.6856,136.5313 Z " fill="#000000"/><text fill="#000000" font-family="sans-serif" font-size="14" lengthAdjust="spacing" textLength="119" x="2204.17" y="137.3467">Waiting On Player</text><line style="stroke:#181818;stroke-width:0.5;" x1="2176.17" x2="2325.17" y1="148.5" y2="148.5"/><line style="stroke:#181818;stroke-width:0.5;" x1="2176.17" x2="2325.17" y1="156.5" y2="156.5"/></g><!--class Waiting On Client--><g id="elem_Waiting On Client"><rect codeLine="4" fill="#F5CBA7" height="48" id="Waiting On Client" rx="2.5" ry="2.5" style="stroke:#181818;stroke-width:0.5;" width="149" x="2361.17" y="116.5"/><ellipse cx="2376.17" cy="132.5" fill="#ADD1B2" rx="11" ry="11" style="stroke:#181818;stroke-width:1.0;"/><path d="M2379.6856,136.5313 L2379.6856,138.5625 Q2378.2013,139.1719 2376.3731,139.1719 Q2373.6544,139.1719 2372.2013,137.4375 Q2370.7481,135.6875 2370.7481,132.5781 Q2370.7481,129.5781 2372.3263,127.7969 Q2373.9044,126 2376.6231,126 Q2378.5294,126 2380.2638,126.9219 L2379.3106,128.8281 Q2377.8106,128.0469 2376.6231,128.0469 Q2375.0138,128.0469 2374.0294,129.2656 Q2373.0606,130.4688 2373.0606,132.5938 Q2373.0606,134.8438 2373.9669,135.9844 Q2374.8888,137.125 2376.6231,137.125 Q2377.6544,137.125 2379.6856,136.5313 Z " fill="#000000"/><text fill="#000000" font-family="sans-serif" font-size="14" lengthAdjust="spacing" textLength="117" x="2390.17" y="137.3467">Waiting On Client</text><line style="stroke:#181818;stroke-width:0.5;" x1="2362.17" x2="2509.17" y1="148.5" y2="148.5"/><line style="stroke:#181818;stroke-width:0.5;" x1="2362.17" x2="2509.17" y1="156.5" y2="156.5"/></g><!--class Archived--><g id="elem_Archived"><rect codeLine="6" fill="#F5CBA7" height="48" id="Archived" rx="2.5" ry="2.5" style="stroke:#181818;stroke-width:0.5;" width="91" x="2545.17" y="116.5"/><ellipse cx="2560.17" cy="132.5" fill="#ADD1B2" rx="11" ry="11" style="stroke:#181818;stroke-width:1.0;"/><path d="M2563.6856,136.5313 L2563.6856,138.5625 Q2562.2013,139.1719 2560.3731,139.1719 Q2557.6544,139.1719 2556.2013,137.4375 Q2554.7481,135.6875 2554.7481,132.5781 Q2554.7481,129.5781 2556.3263,127.7969 Q2557.9044,126 2560.6231,126 Q2562.5294,126 2564.2638,126.9219 L2563.3106,128.8281 Q2561.8106,128.0469 2560.6231,128.0469 Q2559.0138,128.0469 2558.0294,129.2656 Q2557.0606,130.4688 2557.0606,132.5938 Q2557.0606,134.8438 2557.9669,135.9844 Q2558.8888,137.125 2560.6231,137.125 Q2561.6544,137.125 2563.6856,136.5313 Z " fill="#000000"/><text fill="#000000" font-family="sans-serif" font-size="14" lengthAdjust="spacing" textLength="59" x="2574.17" y="137.3467">Archived</text><line style="stroke:#181818;stroke-width:0.5;" x1="2546.17" x2="2635.17" y1="148.5" y2="148.5"/><line style="stroke:#181818;stroke-width:0.5;" x1="2546.17" x2="2635.17" y1="156.5" y2="156.5"/></g><!--class Draft--><g id="elem_Draft"><rect codeLine="8" fill="#F5CBA7" height="48" id="Draft" rx="2.5" ry="2.5" style="stroke:#181818;stroke-width:0.5;" width="65" x="2671.17" y="116.5"/><ellipse cx="2686.17" cy="132.5" fill="#ADD1B2" rx="11" ry="11" style="stroke:#181818;stroke-width:1.0;"/><path d="M2689.6856,136.5313 L2689.6856,138.5625 Q2688.2013,139.1719 2686.3731,139.1719 Q2683.6544,139.1719 2682.2013,137.4375 Q2680.7481,135.6875 2680.7481,132.5781 Q2680.7481,129.5781 2682.3263,127.7969 Q2683.9044,126 2686.6231,126 Q2688.5294,126 2690.2638,126.9219 L2689.3106,128.8281 Q2687.8106,128.0469 2686.6231,128.0469 Q2685.0138,128.0469 2684.0294,129.2656 Q2683.0606,130.4688 2683.0606,132.5938 Q2683.0606,134.8438 2683.9669,135.9844 Q2684.8888,137.125 2686.6231,137.125 Q2687.6544,137.125 2689.6856,136.5313 Z " fill="#000000"/><text fill="#000000" font-family="sans-serif" font-size="14" lengthAdjust="spacing" textLength="33" x="2700.17" y="137.3467">Draft</text><line style="stroke:#181818;stroke-width:0.5;" x1="2672.17" x2="2735.17" y1="148.5" y2="148.5"/><line style="stroke:#181818;stroke-width:0.5;" x1="2672.17" x2="2735.17" y1="156.5" y2="156.5"/></g><!--class Resolved--><g id="elem_Resolved"><rect codeLine="10" fill="#F5CBA7" height="48" id="Resolved" rx="2.5" ry="2.5" style="stroke:#181818;stroke-width:0.5;" width="96" x="2771.67" y="116.5"/><ellipse cx="2786.67" cy="132.5" fill="#ADD1B2" rx="11" ry="11" style="stroke:#181818;stroke-width:1.0;"/><path d="M2790.1856,136.5313 L2790.1856,138.5625 Q2788.7013,139.1719 2786.8731,139.1719 Q2784.1544,139.1719 2782.7013,137.4375 Q2781.2481,135.6875 2781.2481,132.5781 Q2781.2481,129.5781 2782.8263,127.7969 Q2784.4044,126 2787.1231,126 Q2789.0294,126 2790.7638,126.9219 L2789.8106,128.8281 Q2788.3106,128.0469 2787.1231,128.0469 Q2785.5138,128.0469 2784.5294,129.2656 Q2783.5606,130.4688 2783.5606,132.5938 Q2783.5606,134.8438 2784.4669,135.9844 Q2785.3888,137.125 2787.1231,137.125 Q2788.1544,137.125 2790.1856,136.5313 Z " fill="#000000"/><text fill="#000000" font-family="sans-serif" font-size="14" lengthAdjust="spacing" textLength="64" x="2800.67" y="137.3467">Resolved</text><line style="stroke:#181818;stroke-width:0.5;" x1="2772.67" x2="2866.67" y1="148.5" y2="148.5"/><line style="stroke:#181818;stroke-width:0.5;" x1="2772.67" x2="2866.67" y1="156.5" y2="156.5"/></g><!--class In Progress--><g id="elem_In Progress"><rect codeLine="12" fill="#F5CBA7" height="48" id="In Progress" rx="2.5" ry="2.5" style="stroke:#181818;stroke-width:0.5;" width="110" x="2902.67" y="116.5"/><ellipse cx="2917.67" cy="132.5" fill="#ADD1B2" rx="11" ry="11" style="stroke:#181818;stroke-width:1.0;"/><path d="M2921.1856,136.5313 L2921.1856,138.5625 Q2919.7013,139.1719 2917.8731,139.1719 Q2915.1544,139.1719 2913.7013,137.4375 Q2912.2481,135.6875 2912.2481,132.5781 Q2912.2481,129.5781 2913.8263,127.7969 Q2915.4044,126 2918.1231,126 Q2920.0294,126 2921.7638,126.9219 L2920.8106,128.8281 Q2919.3106,128.0469 2918.1231,128.0469 Q2916.5138,128.0469 2915.5294,129.2656 Q2914.5606,130.4688 2914.5606,132.5938 Q2914.5606,134.8438 2915.4669,135.9844 Q2916.3888,137.125 2918.1231,137.125 Q2919.1544,137.125 2921.1856,136.5313 Z " fill="#000000"/><text fill="#000000" font-family="sans-serif" font-size="14" lengthAdjust="spacing" textLength="78" x="2931.67" y="137.3467">In Progress</text><line style="stroke:#181818;stroke-width:0.5;" x1="2903.67" x2="3011.67" y1="148.5" y2="148.5"/><line style="stroke:#181818;stroke-width:0.5;" x1="2903.67" x2="3011.67" y1="156.5" y2="156.5"/></g><!--class Ready For Use--><g id="elem_Ready For Use"><rect codeLine="14" fill="#F5CBA7" height="48" id="Ready For Use" rx="2.5" ry="2.5" style="stroke:#181818;stroke-width:0.5;" width="132" x="2184.67" y="445"/><ellipse cx="2199.67" cy="461" fill="#ADD1B2" rx="11" ry="11" style="stroke:#181818;stroke-width:1.0;"/><path d="M2203.1856,465.0313 L2203.1856,467.0625 Q2201.7013,467.6719 2199.8731,467.6719 Q2197.1544,467.6719 2195.7013,465.9375 Q2194.2481,464.1875 2194.2481,461.0781 Q2194.2481,458.0781 2195.8263,456.2969 Q2197.4044,454.5 2200.1231,454.5 Q2202.0294,454.5 2203.7638,455.4219 L2202.8106,457.3281 Q2201.3106,456.5469 2200.1231,456.5469 Q2198.5138,456.5469 2197.5294,457.7656 Q2196.5606,458.9688 2196.5606,461.0938 Q2196.5606,463.3438 2197.4669,464.4844 Q2198.3888,465.625 2200.1231,465.625 Q2201.1544,465.625 2203.1856,465.0313 Z " fill="#000000"/><text fill="#000000" font-family="sans-serif" font-size="14" lengthAdjust="spacing" textLength="100" x="2213.67" y="465.8467">Ready For Use</text><line style="stroke:#181818;stroke-width:0.5;" x1="2185.67" x2="2315.67" y1="477" y2="477"/><line style="stroke:#181818;stroke-width:0.5;" x1="2185.67" x2="2315.67" y1="485" y2="485"/></g><!--class Closed--><g id="elem_Closed"><rect codeLine="16" fill="#F5CBA7" height="48" id="Closed" rx="2.5" ry="2.5" style="stroke:#181818;stroke-width:0.5;" width="80" x="2351.67" y="445"/><ellipse cx="2366.67" cy="461" fill="#ADD1B2" rx="11" ry="11" style="stroke:#181818;stroke-width:1.0;"/><path d="M2370.1856,465.0313 L2370.1856,467.0625 Q2368.7013,467.6719 2366.8731,467.6719 Q2364.1544,467.6719 2362.7013,465.9375 Q2361.2481,464.1875 2361.2481,461.0781 Q2361.2481,458.0781 2362.8263,456.2969 Q2364.4044,454.5 2367.1231,454.5 Q2369.0294,454.5 2370.7638,455.4219 L2369.8106,457.3281 Q2368.3106,456.5469 2367.1231,456.5469 Q2365.5138,456.5469 2364.5294,457.7656 Q2363.5606,458.9688 2363.5606,461.0938 Q2363.5606,463.3438 2364.4669,464.4844 Q2365.3888,465.625 2367.1231,465.625 Q2368.1544,465.625 2370.1856,465.0313 Z " fill="#000000"/><text fill="#000000" font-family="sans-serif" font-size="14" lengthAdjust="spacing" textLength="48" x="2380.67" y="465.8467">Closed</text><line style="stroke:#181818;stroke-width:0.5;" x1="2352.67" x2="2430.67" y1="477" y2="477"/><line style="stroke:#181818;stroke-width:0.5;" x1="2352.67" x2="2430.67" y1="485" y2="485"/></g><!--class Open--><g id="elem_Open"><rect codeLine="18" fill="#F5CBA7" height="48" id="Open" rx="2.5" ry="2.5" style="stroke:#181818;stroke-width:0.5;" width="70" x="2466.67" y="445"/><ellipse cx="2481.67" cy="461" fill="#ADD1B2" rx="11" ry="11" style="stroke:#181818;stroke-width:1.0;"/><path d="M2485.1856,465.0313 L2485.1856,467.0625 Q2483.7013,467.6719 2481.8731,467.6719 Q2479.1544,467.6719 2477.7013,465.9375 Q2476.2481,464.1875 2476.2481,461.0781 Q2476.2481,458.0781 2477.8263,456.2969 Q2479.4044,454.5 2482.1231,454.5 Q2484.0294,454.5 2485.7638,455.4219 L2484.8106,457.3281 Q2483.3106,456.5469 2482.1231,456.5469 Q2480.5138,456.5469 2479.5294,457.7656 Q2478.5606,458.9688 2478.5606,461.0938 Q2478.5606,463.3438 2479.4669,464.4844 Q2480.3888,465.625 2482.1231,465.625 Q2483.1544,465.625 2485.1856,465.0313 Z " fill="#000000"/><text fill="#000000" font-family="sans-serif" font-size="14" lengthAdjust="spacing" textLength="38" x="2495.67" y="465.8467">Open</text><line style="stroke:#181818;stroke-width:0.5;" x1="2467.67" x2="2535.67" y1="477" y2="477"/><line style="stroke:#181818;stroke-width:0.5;" x1="2467.67" x2="2535.67" y1="485" y2="485"/></g><!--class Instrument Profile Report--><g id="elem_Instrument Profile Report"><rect codeLine="20" fill="#F5CBA7" height="48" id="Instrument Profile Report" rx="2.5" ry="2.5" style="stroke:#181818;stroke-width:0.5;" width="204" x="2571.67" y="445"/><ellipse cx="2586.67" cy="461" fill="#ADD1B2" rx="11" ry="11" style="stroke:#181818;stroke-width:1.0;"/><path d="M2590.1856,465.0313 L2590.1856,467.0625 Q2588.7013,467.6719 2586.8731,467.6719 Q2584.1544,467.6719 2582.7013,465.9375 Q2581.2481,464.1875 2581.2481,461.0781 Q2581.2481,458.0781 2582.8263,456.2969 Q2584.4044,454.5 2587.1231,454.5 Q2589.0294,454.5 2590.7638,455.4219 L2589.8106,457.3281 Q2588.3106,456.5469 2587.1231,456.5469 Q2585.5138,456.5469 2584.5294,457.7656 Q2583.5606,458.9688 2583.5606,461.0938 Q2583.5606,463.3438 2584.4669,464.4844 Q2585.3888,465.625 2587.1231,465.625 Q2588.1544,465.625 2590.1856,465.0313 Z " fill="#000000"/><text fill="#000000" font-family="sans-serif" font-size="14" lengthAdjust="spacing" textLength="172" x="2600.67" y="465.8467">Instrument Profile Report</text><line style="stroke:#181818;stroke-width:0.5;" x1="2572.67" x2="2774.67" y1="477" y2="477"/><line style="stroke:#181818;stroke-width:0.5;" x1="2572.67" x2="2774.67" y1="485" y2="485"/></g><!--class Warranty Status Report--><g id="elem_Warranty Status Report"><rect codeLine="22" fill="#F5CBA7" height="48" id="Warranty Status Report" rx="2.5" ry="2.5" style="stroke:#181818;stroke-width:0.5;" width="191" x="2811.17" y="445"/><ellipse cx="2826.17" cy="461" fill="#ADD1B2" rx="11" ry="11" style="stroke:#181818;stroke-width:1.0;"/><path d="M2829.6856,465.0313 L2829.6856,467.0625 Q2828.2013,467.6719 2826.3731,467.6719 Q2823.6544,467.6719 2822.2013,465.9375 Q2820.7481,464.1875 2820.7481,461.0781 Q2820.7481,458.0781 2822.3263,456.2969 Q2823.9044,454.5 2826.6231,454.5 Q2828.5294,454.5 2830.2638,455.4219 L2829.3106,457.3281 Q2827.8106,456.5469 2826.6231,456.5469 Q2825.0138,456.5469 2824.0294,457.7656 Q2823.0606,458.9688 2823.0606,461.0938 Q2823.0606,463.3438 2823.9669,464.4844 Q2824.8888,465.625 2826.6231,465.625 Q2827.6544,465.625 2829.6856,465.0313 Z " fill="#000000"/><text fill="#000000" font-family="sans-serif" font-size="14" lengthAdjust="spacing" textLength="159" x="2840.17" y="465.8467">Warranty Status Report</text><line style="stroke:#181818;stroke-width:0.5;" x1="2812.17" x2="3001.17" y1="477" y2="477"/><line style="stroke:#181818;stroke-width:0.5;" x1="2812.17" x2="3001.17" y1="485" y2="485"/></g><!--class Instrument Service History--><g id="elem_Instrument Service History"><rect codeLine="24" fill="#F5CBA7" height="48" id="Instrument Service History" rx="2.5" ry="2.5" style="stroke:#181818;stroke-width:0.5;" width="212" x="3037.67" y="445"/><ellipse cx="3052.67" cy="461" fill="#ADD1B2" rx="11" ry="11" style="stroke:#181818;stroke-width:1.0;"/><path d="M3056.1856,465.0313 L3056.1856,467.0625 Q3054.7013,467.6719 3052.8731,467.6719 Q3050.1544,467.6719 3048.7013,465.9375 Q3047.2481,464.1875 3047.2481,461.0781 Q3047.2481,458.0781 3048.8263,456.2969 Q3050.4044,454.5 3053.1231,454.5 Q3055.0294,454.5 3056.7638,455.4219 L3055.8106,457.3281 Q3054.3106,456.5469 3053.1231,456.5469 Q3051.5138,456.5469 3050.5294,457.7656 Q3049.5606,458.9688 3049.5606,461.0938 Q3049.5606,463.3438 3050.4669,464.4844 Q3051.3888,465.625 3053.1231,465.625 Q3054.1544,465.625 3056.1856,465.0313 Z " fill="#000000"/><text fill="#000000" font-family="sans-serif" font-size="14" lengthAdjust="spacing" textLength="180" x="3066.67" y="465.8467">Instrument Service History</text><line style="stroke:#181818;stroke-width:0.5;" x1="3038.67" x2="3248.67" y1="477" y2="477"/><line style="stroke:#181818;stroke-width:0.5;" x1="3038.67" x2="3248.67" y1="485" y2="485"/></g><!--class Instrument Inventory Report--><g id="elem_Instrument Inventory Report"><rect codeLine="26" fill="#F5CBA7" height="48" id="Instrument Inventory Report" rx="2.5" ry="2.5" style="stroke:#181818;stroke-width:0.5;" width="225" x="1783.17" y="806"/><ellipse cx="1798.17" cy="822" fill="#ADD1B2" rx="11" ry="11" style="stroke:#181818;stroke-width:1.0;"/><path d="M1801.6856,826.0313 L1801.6856,828.0625 Q1800.2013,828.6719 1798.3731,828.6719 Q1795.6544,828.6719 1794.2013,826.9375 Q1792.7481,825.1875 1792.7481,822.0781 Q1792.7481,819.0781 1794.3263,817.2969 Q1795.9044,815.5 1798.6231,815.5 Q1800.5294,815.5 1802.2638,816.4219 L1801.3106,818.3281 Q1799.8106,817.5469 1798.6231,817.5469 Q1797.0138,817.5469 1796.0294,818.7656 Q1795.0606,819.9688 1795.0606,822.0938 Q1795.0606,824.3438 1795.9669,825.4844 Q1796.8888,826.625 1798.6231,826.625 Q1799.6544,826.625 1801.6856,826.0313 Z " fill="#000000"/><text fill="#000000" font-family="sans-serif" font-size="14" lengthAdjust="spacing" textLength="193" x="1812.17" y="826.8467">Instrument Inventory Report</text><line style="stroke:#181818;stroke-width:0.5;" x1="1784.17" x2="2007.17" y1="838" y2="838"/><line style="stroke:#181818;stroke-width:0.5;" x1="1784.17" x2="2007.17" y1="846" y2="846"/></g><!--class Pending Client Instruments--><g id="elem_Pending Client Instruments"><rect codeLine="28" fill="#F5CBA7" height="48" id="Pending Client Instruments" rx="2.5" ry="2.5" style="stroke:#181818;stroke-width:0.5;" width="219" x="2043.17" y="806"/><ellipse cx="2058.17" cy="822" fill="#ADD1B2" rx="11" ry="11" style="stroke:#181818;stroke-width:1.0;"/><path d="M2061.6856,826.0313 L2061.6856,828.0625 Q2060.2013,828.6719 2058.3731,828.6719 Q2055.6544,828.6719 2054.2013,826.9375 Q2052.7481,825.1875 2052.7481,822.0781 Q2052.7481,819.0781 2054.3263,817.2969 Q2055.9044,815.5 2058.6231,815.5 Q2060.5294,815.5 2062.2638,816.4219 L2061.3106,818.3281 Q2059.8106,817.5469 2058.6231,817.5469 Q2057.0138,817.5469 2056.0294,818.7656 Q2055.0606,819.9688 2055.0606,822.0938 Q2055.0606,824.3438 2055.9669,825.4844 Q2056.8888,826.625 2058.6231,826.625 Q2059.6544,826.625 2061.6856,826.0313 Z " fill="#000000"/><text fill="#000000" font-family="sans-serif" font-size="14" lengthAdjust="spacing" textLength="187" x="2072.17" y="826.8467">Pending Client Instruments</text><line style="stroke:#181818;stroke-width:0.5;" x1="2044.17" x2="2261.17" y1="838" y2="838"/><line style="stroke:#181818;stroke-width:0.5;" x1="2044.17" x2="2261.17" y1="846" y2="846"/></g><!--class Instrument Profile--><g id="elem_Instrument Profile"><rect codeLine="118" fill="#F5CBA7" height="390.2344" id="Instrument Profile" rx="2.5" ry="2.5" style="stroke:#181818;stroke-width:0.5;" width="237" x="702.17" y="274"/><ellipse cx="755.92" cy="290" fill="#ADD1B2" rx="11" ry="11" style="stroke:#181818;stroke-width:1.0;"/><path d="M759.4356,294.0313 L759.4356,296.0625 Q757.9513,296.6719 756.1231,296.6719 Q753.4044,296.6719 751.9513,294.9375 Q750.4981,293.1875 750.4981,290.0781 Q750.4981,287.0781 752.0763,285.2969 Q753.6544,283.5 756.3731,283.5 Q758.2794,283.5 760.0138,284.4219 L759.0606,286.3281 Q757.5606,285.5469 756.3731,285.5469 Q754.7638,285.5469 753.7794,286.7656 Q752.8106,287.9688 752.8106,290.0938 Q752.8106,292.3438 753.7169,293.4844 Q754.6388,294.625 756.3731,294.625 Q757.4044,294.625 759.4356,294.0313 Z " fill="#000000"/><text fill="#000000" font-family="sans-serif" font-size="14" lengthAdjust="spacing" textLength="121" x="776.42" y="294.8467">Instrument Profile</text><line style="stroke:#181818;stroke-width:0.5;" x1="703.17" x2="938.17" y1="306" y2="306"/><text fill="#000000" font-family="sans-serif" font-size="14" lengthAdjust="spacing" textLength="142" x="708.17" y="322.9951">serial_number : Data</text><text fill="#000000" font-family="sans-serif" font-size="14" lengthAdjust="spacing" textLength="99" x="708.17" y="339.292">status : Select</text><text fill="#000000" font-family="sans-serif" font-size="14" lengthAdjust="spacing" textLength="148" x="708.17" y="355.5889">profile_status : Select</text><text fill="#000000" font-family="sans-serif" font-size="14" lengthAdjust="spacing" textLength="85" x="708.17" y="371.8857">brand : Data</text><text fill="#000000" font-family="sans-serif" font-size="14" lengthAdjust="spacing" textLength="88" x="708.17" y="388.1826">model : Data</text><text fill="#000000" font-family="sans-serif" font-size="14" lengthAdjust="spacing" textLength="198" x="708.17" y="404.4795">instrument_category : Select</text><text fill="#000000" font-family="sans-serif" font-size="14" lengthAdjust="spacing" textLength="83" x="708.17" y="420.7764">owner : Link</text><text fill="#000000" font-family="sans-serif" font-size="14" lengthAdjust="spacing" textLength="177" x="708.17" y="437.0732">purchase_receipt : Attach</text><text fill="#000000" font-family="sans-serif" font-size="14" lengthAdjust="spacing" textLength="182" x="708.17" y="453.3701">external_work_logs : Table</text><text fill="#000000" font-family="sans-serif" font-size="14" lengthAdjust="spacing" textLength="172" x="708.17" y="469.667">condition_images : Table</text><text fill="#000000" font-family="sans-serif" font-size="14" lengthAdjust="spacing" textLength="213" x="708.17" y="485.9639">repair_preferences : Small Text</text><text fill="#000000" font-family="sans-serif" font-size="14" lengthAdjust="spacing" textLength="179" x="708.17" y="502.2607">verification_status : Select</text><text fill="#000000" font-family="sans-serif" font-size="14" lengthAdjust="spacing" textLength="161" x="708.17" y="518.5576">technician_notes : Text</text><text fill="#000000" font-family="sans-serif" font-size="14" lengthAdjust="spacing" textLength="193" x="708.17" y="534.8545">ownership_transfer_to : Link</text><text fill="#000000" font-family="sans-serif" font-size="14" lengthAdjust="spacing" textLength="225" x="708.17" y="551.1514">anonymize_for_research : Check</text><text fill="#000000" font-family="sans-serif" font-size="14" lengthAdjust="spacing" textLength="136" x="708.17" y="567.4482">consent_log : Table</text><text fill="#000000" font-family="sans-serif" font-size="14" lengthAdjust="spacing" textLength="175" x="708.17" y="583.7451">document_history : Table</text><text fill="#000000" font-family="sans-serif" font-size="14" lengthAdjust="spacing" textLength="133" x="708.17" y="600.042">is_archived : Check</text><text fill="#000000" font-family="sans-serif" font-size="14" lengthAdjust="spacing" textLength="101" x="708.17" y="616.3389">qr_code : Data</text><text fill="#000000" font-family="sans-serif" font-size="14" lengthAdjust="spacing" textLength="142" x="708.17" y="632.6357">workflow_state : Link</text><text fill="#000000" font-family="sans-serif" font-size="14" lengthAdjust="spacing" textLength="130" x="708.17" y="648.9326">player_profile : Link</text><line style="stroke:#181818;stroke-width:0.5;" x1="703.17" x2="938.17" y1="656.2344" y2="656.2344"/></g><!--class Technician Verification Workspace--><g id="elem_Technician Verification Workspace"><rect codeLine="32" fill="#F5CBA7" height="48" id="Technician Verification Workspace" rx="2.5" ry="2.5" style="stroke:#181818;stroke-width:0.5;" width="267" x="2297.17" y="806"/><ellipse cx="2312.17" cy="822" fill="#ADD1B2" rx="11" ry="11" style="stroke:#181818;stroke-width:1.0;"/><path d="M2315.6856,826.0313 L2315.6856,828.0625 Q2314.2013,828.6719 2312.3731,828.6719 Q2309.6544,828.6719 2308.2013,826.9375 Q2306.7481,825.1875 2306.7481,822.0781 Q2306.7481,819.0781 2308.3263,817.2969 Q2309.9044,815.5 2312.6231,815.5 Q2314.5294,815.5 2316.2638,816.4219 L2315.3106,818.3281 Q2313.8106,817.5469 2312.6231,817.5469 Q2311.0138,817.5469 2310.0294,818.7656 Q2309.0606,819.9688 2309.0606,822.0938 Q2309.0606,824.3438 2309.9669,825.4844 Q2310.8888,826.625 2312.6231,826.625 Q2313.6544,826.625 2315.6856,826.0313 Z " fill="#000000"/><text fill="#000000" font-family="sans-serif" font-size="14" lengthAdjust="spacing" textLength="235" x="2326.17" y="826.8467">Technician Verification Workspace</text><line style="stroke:#181818;stroke-width:0.5;" x1="2298.17" x2="2563.17" y1="838" y2="838"/><line style="stroke:#181818;stroke-width:0.5;" x1="2298.17" x2="2563.17" y1="846" y2="846"/></g><!--class Instrument Setup--><g id="elem_Instrument Setup"><rect codeLine="34" fill="#F5CBA7" height="48" id="Instrument Setup" rx="2.5" ry="2.5" style="stroke:#181818;stroke-width:0.5;" width="152" x="2599.67" y="806"/><ellipse cx="2614.67" cy="822" fill="#ADD1B2" rx="11" ry="11" style="stroke:#181818;stroke-width:1.0;"/><path d="M2618.1856,826.0313 L2618.1856,828.0625 Q2616.7013,828.6719 2614.8731,828.6719 Q2612.1544,828.6719 2610.7013,826.9375 Q2609.2481,825.1875 2609.2481,822.0781 Q2609.2481,819.0781 2610.8263,817.2969 Q2612.4044,815.5 2615.1231,815.5 Q2617.0294,815.5 2618.7638,816.4219 L2617.8106,818.3281 Q2616.3106,817.5469 2615.1231,817.5469 Q2613.5138,817.5469 2612.5294,818.7656 Q2611.5606,819.9688 2611.5606,822.0938 Q2611.5606,824.3438 2612.4669,825.4844 Q2613.3888,826.625 2615.1231,826.625 Q2616.1544,826.625 2618.1856,826.0313 Z " fill="#000000"/><text fill="#000000" font-family="sans-serif" font-size="14" lengthAdjust="spacing" textLength="120" x="2628.67" y="826.8467">Instrument Setup</text><line style="stroke:#181818;stroke-width:0.5;" x1="2600.67" x2="2750.67" y1="838" y2="838"/><line style="stroke:#181818;stroke-width:0.5;" x1="2600.67" x2="2750.67" y1="846" y2="846"/></g><!--class Instrument Profile Workspace--><g id="elem_Instrument Profile Workspace"><rect codeLine="36" fill="#F5CBA7" height="48" id="Instrument Profile Workspace" rx="2.5" ry="2.5" style="stroke:#181818;stroke-width:0.5;" width="234" x="2786.67" y="806"/><ellipse cx="2801.67" cy="822" fill="#ADD1B2" rx="11" ry="11" style="stroke:#181818;stroke-width:1.0;"/><path d="M2805.1856,826.0313 L2805.1856,828.0625 Q2803.7013,828.6719 2801.8731,828.6719 Q2799.1544,828.6719 2797.7013,826.9375 Q2796.2481,825.1875 2796.2481,822.0781 Q2796.2481,819.0781 2797.8263,817.2969 Q2799.4044,815.5 2802.1231,815.5 Q2804.0294,815.5 2805.7638,816.4219 L2804.8106,818.3281 Q2803.3106,817.5469 2802.1231,817.5469 Q2800.5138,817.5469 2799.5294,818.7656 Q2798.5606,819.9688 2798.5606,822.0938 Q2798.5606,824.3438 2799.4669,825.4844 Q2800.3888,826.625 2802.1231,826.625 Q2803.1544,826.625 2805.1856,826.0313 Z " fill="#000000"/><text fill="#000000" font-family="sans-serif" font-size="14" lengthAdjust="spacing" textLength="202" x="2815.67" y="826.8467">Instrument Profile Workspace</text><line style="stroke:#181818;stroke-width:0.5;" x1="2787.67" x2="3019.67" y1="838" y2="838"/><line style="stroke:#181818;stroke-width:0.5;" x1="2787.67" x2="3019.67" y1="846" y2="846"/></g><!--class Instrument Intake Batch--><g id="elem_Instrument Intake Batch"><rect codeLine="143" fill="#F5CBA7" height="145.7813" id="Instrument Intake Batch" rx="2.5" ry="2.5" style="stroke:#181818;stroke-width:0.5;" width="197" x="48.17" y="396"/><ellipse cx="63.17" cy="412" fill="#ADD1B2" rx="11" ry="11" style="stroke:#181818;stroke-width:1.0;"/><path d="M66.6856,416.0313 L66.6856,418.0625 Q65.2013,418.6719 63.3731,418.6719 Q60.6544,418.6719 59.2013,416.9375 Q57.7481,415.1875 57.7481,412.0781 Q57.7481,409.0781 59.3263,407.2969 Q60.9044,405.5 63.6231,405.5 Q65.5294,405.5 67.2638,406.4219 L66.3106,408.3281 Q64.8106,407.5469 63.6231,407.5469 Q62.0138,407.5469 61.0294,408.7656 Q60.0606,409.9688 60.0606,412.0938 Q60.0606,414.3438 60.9669,415.4844 Q61.8888,416.625 63.6231,416.625 Q64.6544,416.625 66.6856,416.0313 Z " fill="#000000"/><text fill="#000000" font-family="sans-serif" font-size="14" lengthAdjust="spacing" textLength="165" x="77.17" y="416.8467">Instrument Intake Batch</text><line style="stroke:#181818;stroke-width:0.5;" x1="49.17" x2="244.17" y1="428" y2="428"/><text fill="#000000" font-family="sans-serif" font-size="14" lengthAdjust="spacing" textLength="77" x="54.17" y="444.9951">date : Date</text><text fill="#000000" font-family="sans-serif" font-size="14" lengthAdjust="spacing" textLength="168" x="54.17" y="461.292">instrument_type : Select</text><text fill="#000000" font-family="sans-serif" font-size="14" lengthAdjust="spacing" textLength="95" x="54.17" y="477.5889">supplier : Link</text><text fill="#000000" font-family="sans-serif" font-size="14" lengthAdjust="spacing" textLength="174" x="54.17" y="493.8857">add_to_inventory : Check</text><text fill="#000000" font-family="sans-serif" font-size="14" lengthAdjust="spacing" textLength="158" x="54.17" y="510.1826">create_profiles : Check</text><text fill="#000000" font-family="sans-serif" font-size="14" lengthAdjust="spacing" textLength="99" x="54.17" y="526.4795">entries : Table</text><line style="stroke:#181818;stroke-width:0.5;" x1="49.17" x2="244.17" y1="533.7813" y2="533.7813"/></g><!--class Client Instrument Profile--><g id="elem_Client Instrument Profile"><rect codeLine="187" fill="#F5CBA7" height="259.8594" id="Client Instrument Profile" rx="2.5" ry="2.5" style="stroke:#181818;stroke-width:0.5;" width="237" x="48.17" y="996"/><ellipse cx="81.62" cy="1012" fill="#ADD1B2" rx="11" ry="11" style="stroke:#181818;stroke-width:1.0;"/><path d="M85.1356,1016.0313 L85.1356,1018.0625 Q83.6513,1018.6719 81.8231,1018.6719 Q79.1044,1018.6719 77.6513,1016.9375 Q76.1981,1015.1875 76.1981,1012.0781 Q76.1981,1009.0781 77.7763,1007.2969 Q79.3544,1005.5 82.0731,1005.5 Q83.9794,1005.5 85.7138,1006.4219 L84.7606,1008.3281 Q83.2606,1007.5469 82.0731,1007.5469 Q80.4638,1007.5469 79.4794,1008.7656 Q78.5106,1009.9688 78.5106,1012.0938 Q78.5106,1014.3438 79.4169,1015.4844 Q80.3388,1016.625 82.0731,1016.625 Q83.1044,1016.625 85.1356,1016.0313 Z " fill="#000000"/><text fill="#000000" font-family="sans-serif" font-size="14" lengthAdjust="spacing" textLength="164" x="99.72" y="1016.8467">Client Instrument Profile</text><line style="stroke:#181818;stroke-width:0.5;" x1="49.17" x2="284.17" y1="1028" y2="1028"/><text fill="#000000" font-family="sans-serif" font-size="14" lengthAdjust="spacing" textLength="83" x="54.17" y="1044.9951">owner : Link</text><text fill="#000000" font-family="sans-serif" font-size="14" lengthAdjust="spacing" textLength="170" x="54.17" y="1061.292">instrument_model : Data</text><text fill="#000000" font-family="sans-serif" font-size="14" lengthAdjust="spacing" textLength="142" x="54.17" y="1077.5889">serial_number : Data</text><text fill="#000000" font-family="sans-serif" font-size="14" lengthAdjust="spacing" textLength="198" x="54.17" y="1093.8857">instrument_category : Select</text><text fill="#000000" font-family="sans-serif" font-size="14" lengthAdjust="spacing" textLength="177" x="54.17" y="1110.1826">purchase_receipt : Attach</text><text fill="#000000" font-family="sans-serif" font-size="14" lengthAdjust="spacing" textLength="182" x="54.17" y="1126.4795">external_work_logs : Table</text><text fill="#000000" font-family="sans-serif" font-size="14" lengthAdjust="spacing" textLength="172" x="54.17" y="1142.7764">condition_images : Table</text><text fill="#000000" font-family="sans-serif" font-size="14" lengthAdjust="spacing" textLength="213" x="54.17" y="1159.0732">repair_preferences : Small Text</text><text fill="#000000" font-family="sans-serif" font-size="14" lengthAdjust="spacing" textLength="179" x="54.17" y="1175.3701">verification_status : Select</text><text fill="#000000" font-family="sans-serif" font-size="14" lengthAdjust="spacing" textLength="161" x="54.17" y="1191.667">technician_notes : Text</text><text fill="#000000" font-family="sans-serif" font-size="14" lengthAdjust="spacing" textLength="193" x="54.17" y="1207.9639">ownership_transfer_to : Link</text><text fill="#000000" font-family="sans-serif" font-size="14" lengthAdjust="spacing" textLength="225" x="54.17" y="1224.2607">anonymize_for_research : Check</text><text fill="#000000" font-family="sans-serif" font-size="14" lengthAdjust="spacing" textLength="136" x="54.17" y="1240.5576">consent_log : Table</text><line style="stroke:#181818;stroke-width:0.5;" x1="49.17" x2="284.17" y1="1247.8594" y2="1247.8594"/></g><!--class Instrument Registration--><g id="elem_Instrument Registration"><rect codeLine="42" fill="#F5CBA7" height="48" id="Instrument Registration" rx="2.5" ry="2.5" style="stroke:#181818;stroke-width:0.5;" width="194" x="3055.67" y="806"/><ellipse cx="3070.67" cy="822" fill="#ADD1B2" rx="11" ry="11" style="stroke:#181818;stroke-width:1.0;"/><path d="M3074.1856,826.0313 L3074.1856,828.0625 Q3072.7013,828.6719 3070.8731,828.6719 Q3068.1544,828.6719 3066.7013,826.9375 Q3065.2481,825.1875 3065.2481,822.0781 Q3065.2481,819.0781 3066.8263,817.2969 Q3068.4044,815.5 3071.1231,815.5 Q3073.0294,815.5 3074.7638,816.4219 L3073.8106,818.3281 Q3072.3106,817.5469 3071.1231,817.5469 Q3069.5138,817.5469 3068.5294,818.7656 Q3067.5606,819.9688 3067.5606,822.0938 Q3067.5606,824.3438 3068.4669,825.4844 Q3069.3888,826.625 3071.1231,826.625 Q3072.1544,826.625 3074.1856,826.0313 Z " fill="#000000"/><text fill="#000000" font-family="sans-serif" font-size="14" lengthAdjust="spacing" textLength="162" x="3084.67" y="826.8467">Instrument Registration</text><line style="stroke:#181818;stroke-width:0.5;" x1="3056.67" x2="3248.67" y1="838" y2="838"/><line style="stroke:#181818;stroke-width:0.5;" x1="3056.67" x2="3248.67" y1="846" y2="846"/></g><!--class Instrument Status Change--><g id="elem_Instrument Status Change"><rect codeLine="44" fill="#F5CBA7" height="48" id="Instrument Status Change" rx="2.5" ry="2.5" style="stroke:#181818;stroke-width:0.5;" width="213" x="1789.17" y="1102"/><ellipse cx="1804.17" cy="1118" fill="#ADD1B2" rx="11" ry="11" style="stroke:#181818;stroke-width:1.0;"/><path d="M1807.6856,1122.0313 L1807.6856,1124.0625 Q1806.2013,1124.6719 1804.3731,1124.6719 Q1801.6544,1124.6719 1800.2013,1122.9375 Q1798.7481,1121.1875 1798.7481,1118.0781 Q1798.7481,1115.0781 1800.3263,1113.2969 Q1801.9044,1111.5 1804.6231,1111.5 Q1806.5294,1111.5 1808.2638,1112.4219 L1807.3106,1114.3281 Q1805.8106,1113.5469 1804.6231,1113.5469 Q1803.0138,1113.5469 1802.0294,1114.7656 Q1801.0606,1115.9688 1801.0606,1118.0938 Q1801.0606,1120.3438 1801.9669,1121.4844 Q1802.8888,1122.625 1804.6231,1122.625 Q1805.6544,1122.625 1807.6856,1122.0313 Z " fill="#000000"/><text fill="#000000" font-family="sans-serif" font-size="14" lengthAdjust="spacing" textLength="181" x="1818.17" y="1122.8467">Instrument Status Change</text><line style="stroke:#181818;stroke-width:0.5;" x1="1790.17" x2="2001.17" y1="1134" y2="1134"/><line style="stroke:#181818;stroke-width:0.5;" x1="1790.17" x2="2001.17" y1="1142" y2="1142"/></g><!--class Unnamed--><g id="elem_Unnamed"><rect codeLine="208" fill="#F5CBA7" height="48" id="Unnamed" rx="2.5" ry="2.5" style="stroke:#181818;stroke-width:0.5;" width="99" x="2037.17" y="1102"/><ellipse cx="2052.17" cy="1118" fill="#ADD1B2" rx="11" ry="11" style="stroke:#181818;stroke-width:1.0;"/><path d="M2055.6856,1122.0313 L2055.6856,1124.0625 Q2054.2013,1124.6719 2052.3731,1124.6719 Q2049.6544,1124.6719 2048.2013,1122.9375 Q2046.7481,1121.1875 2046.7481,1118.0781 Q2046.7481,1115.0781 2048.3263,1113.2969 Q2049.9044,1111.5 2052.6231,1111.5 Q2054.5294,1111.5 2056.2638,1112.4219 L2055.3106,1114.3281 Q2053.8106,1113.5469 2052.6231,1113.5469 Q2051.0138,1113.5469 2050.0294,1114.7656 Q2049.0606,1115.9688 2049.0606,1118.0938 Q2049.0606,1120.3438 2049.9669,1121.4844 Q2050.8888,1122.625 2052.6231,1122.625 Q2053.6544,1122.625 2055.6856,1122.0313 Z " fill="#000000"/><text fill="#000000" font-family="sans-serif" font-size="14" lengthAdjust="spacing" textLength="67" x="2066.17" y="1122.8467">Unnamed</text><line style="stroke:#181818;stroke-width:0.5;" x1="2038.17" x2="2135.17" y1="1134" y2="1134"/><line style="stroke:#181818;stroke-width:0.5;" x1="2038.17" x2="2135.17" y1="1142" y2="1142"/></g><!--class Instrument Profile Dashboard--><g id="elem_Instrument Profile Dashboard"><rect codeLine="52" fill="#F5CBA7" height="48" id="Instrument Profile Dashboard" rx="2.5" ry="2.5" style="stroke:#181818;stroke-width:0.5;" width="233" x="2171.17" y="1102"/><ellipse cx="2186.17" cy="1118" fill="#ADD1B2" rx="11" ry="11" style="stroke:#181818;stroke-width:1.0;"/><path d="M2189.6856,1122.0313 L2189.6856,1124.0625 Q2188.2013,1124.6719 2186.3731,1124.6719 Q2183.6544,1124.6719 2182.2013,1122.9375 Q2180.7481,1121.1875 2180.7481,1118.0781 Q2180.7481,1115.0781 2182.3263,1113.2969 Q2183.9044,1111.5 2186.6231,1111.5 Q2188.5294,1111.5 2190.2638,1112.4219 L2189.3106,1114.3281 Q2187.8106,1113.5469 2186.6231,1113.5469 Q2185.0138,1113.5469 2184.0294,1114.7656 Q2183.0606,1115.9688 2183.0606,1118.0938 Q2183.0606,1120.3438 2183.9669,1121.4844 Q2184.8888,1122.625 2186.6231,1122.625 Q2187.6544,1122.625 2189.6856,1122.0313 Z " fill="#000000"/><text fill="#000000" font-family="sans-serif" font-size="14" lengthAdjust="spacing" textLength="201" x="2200.17" y="1122.8467">Instrument Profile Dashboard</text><line style="stroke:#181818;stroke-width:0.5;" x1="2172.17" x2="2403.17" y1="1134" y2="1134"/><line style="stroke:#181818;stroke-width:0.5;" x1="2172.17" x2="2403.17" y1="1142" y2="1142"/></g><!--class Instrument Status Distribution--><g id="elem_Instrument Status Distribution"><rect codeLine="54" fill="#F5CBA7" height="48" id="Instrument Status Distribution" rx="2.5" ry="2.5" style="stroke:#181818;stroke-width:0.5;" width="238" x="2439.67" y="1102"/><ellipse cx="2454.67" cy="1118" fill="#ADD1B2" rx="11" ry="11" style="stroke:#181818;stroke-width:1.0;"/><path d="M2458.1856,1122.0313 L2458.1856,1124.0625 Q2456.7013,1124.6719 2454.8731,1124.6719 Q2452.1544,1124.6719 2450.7013,1122.9375 Q2449.2481,1121.1875 2449.2481,1118.0781 Q2449.2481,1115.0781 2450.8263,1113.2969 Q2452.4044,1111.5 2455.1231,1111.5 Q2457.0294,1111.5 2458.7638,1112.4219 L2457.8106,1114.3281 Q2456.3106,1113.5469 2455.1231,1113.5469 Q2453.5138,1113.5469 2452.5294,1114.7656 Q2451.5606,1115.9688 2451.5606,1118.0938 Q2451.5606,1120.3438 2452.4669,1121.4844 Q2453.3888,1122.625 2455.1231,1122.625 Q2456.1544,1122.625 2458.1856,1122.0313 Z " fill="#000000"/><text fill="#000000" font-family="sans-serif" font-size="14" lengthAdjust="spacing" textLength="206" x="2468.67" y="1122.8467">Instrument Status Distribution</text><line style="stroke:#181818;stroke-width:0.5;" x1="2440.67" x2="2676.67" y1="1134" y2="1134"/><line style="stroke:#181818;stroke-width:0.5;" x1="2440.67" x2="2676.67" y1="1142" y2="1142"/></g><!--class Warranty Distribution--><g id="elem_Warranty Distribution"><rect codeLine="56" fill="#F5CBA7" height="48" id="Warranty Distribution" rx="2.5" ry="2.5" style="stroke:#181818;stroke-width:0.5;" width="175" x="2713.17" y="1102"/><ellipse cx="2728.17" cy="1118" fill="#ADD1B2" rx="11" ry="11" style="stroke:#181818;stroke-width:1.0;"/><path d="M2731.6856,1122.0313 L2731.6856,1124.0625 Q2730.2013,1124.6719 2728.3731,1124.6719 Q2725.6544,1124.6719 2724.2013,1122.9375 Q2722.7481,1121.1875 2722.7481,1118.0781 Q2722.7481,1115.0781 2724.3263,1113.2969 Q2725.9044,1111.5 2728.6231,1111.5 Q2730.5294,1111.5 2732.2638,1112.4219 L2731.3106,1114.3281 Q2729.8106,1113.5469 2728.6231,1113.5469 Q2727.0138,1113.5469 2726.0294,1114.7656 Q2725.0606,1115.9688 2725.0606,1118.0938 Q2725.0606,1120.3438 2725.9669,1121.4844 Q2726.8888,1122.625 2728.6231,1122.625 Q2729.6544,1122.625 2731.6856,1122.0313 Z " fill="#000000"/><text fill="#000000" font-family="sans-serif" font-size="14" lengthAdjust="spacing" textLength="143" x="2742.17" y="1122.8467">Warranty Distribution</text><line style="stroke:#181818;stroke-width:0.5;" x1="2714.17" x2="2887.17" y1="1134" y2="1134"/><line style="stroke:#181818;stroke-width:0.5;" x1="2714.17" x2="2887.17" y1="1142" y2="1142"/></g><!--class Instrument--><g id="elem_Instrument"><rect fill="#F1F1F1" height="48" id="Instrument" rx="2.5" ry="2.5" style="stroke:#181818;stroke-width:0.5;" width="107" x="2042.17" y="445"/><ellipse cx="2057.17" cy="461" fill="#ADD1B2" rx="11" ry="11" style="stroke:#181818;stroke-width:1.0;"/><path d="M2060.6856,465.0313 L2060.6856,467.0625 Q2059.2013,467.6719 2057.3731,467.6719 Q2054.6544,467.6719 2053.2013,465.9375 Q2051.7481,464.1875 2051.7481,461.0781 Q2051.7481,458.0781 2053.3263,456.2969 Q2054.9044,454.5 2057.6231,454.5 Q2059.5294,454.5 2061.2638,455.4219 L2060.3106,457.3281 Q2058.8106,456.5469 2057.6231,456.5469 Q2056.0138,456.5469 2055.0294,457.7656 Q2054.0606,458.9688 2054.0606,461.0938 Q2054.0606,463.3438 2054.9669,464.4844 Q2055.8888,465.625 2057.6231,465.625 Q2058.6544,465.625 2060.6856,465.0313 Z " fill="#000000"/><text fill="#000000" font-family="sans-serif" font-size="14" lengthAdjust="spacing" textLength="75" x="2071.17" y="465.8467">Instrument</text><line style="stroke:#181818;stroke-width:0.5;" x1="2043.17" x2="2148.17" y1="477" y2="477"/><line style="stroke:#181818;stroke-width:0.5;" x1="2043.17" x2="2148.17" y1="485" y2="485"/></g><!--class Instrument Condition Record--><g id="elem_Instrument Condition Record"><rect codeLine="62" fill="#F5CBA7" height="129.4844" id="Instrument Condition Record" rx="2.5" ry="2.5" style="stroke:#181818;stroke-width:0.5;" width="231" x="1517.17" y="765.5"/><ellipse cx="1532.17" cy="781.5" fill="#ADD1B2" rx="11" ry="11" style="stroke:#181818;stroke-width:1.0;"/><path d="M1535.6856,785.5313 L1535.6856,787.5625 Q1534.2013,788.1719 1532.3731,788.1719 Q1529.6544,788.1719 1528.2013,786.4375 Q1526.7481,784.6875 1526.7481,781.5781 Q1526.7481,778.5781 1528.3263,776.7969 Q1529.9044,775 1532.6231,775 Q1534.5294,775 1536.2638,775.9219 L1535.3106,777.8281 Q1533.8106,777.0469 1532.6231,777.0469 Q1531.0138,777.0469 1530.0294,778.2656 Q1529.0606,779.4688 1529.0606,781.5938 Q1529.0606,783.8438 1529.9669,784.9844 Q1530.8888,786.125 1532.6231,786.125 Q1533.6544,786.125 1535.6856,785.5313 Z " fill="#000000"/><text fill="#000000" font-family="sans-serif" font-size="14" lengthAdjust="spacing" textLength="199" x="1546.17" y="786.3467">Instrument Condition Record</text><line style="stroke:#181818;stroke-width:0.5;" x1="1518.17" x2="1747.17" y1="797.5" y2="797.5"/><text fill="#000000" font-family="sans-serif" font-size="14" lengthAdjust="spacing" textLength="115" x="1523.17" y="814.4951">instrument : Link</text><text fill="#000000" font-family="sans-serif" font-size="14" lengthAdjust="spacing" textLength="120" x="1523.17" y="830.792">condition : Select</text><text fill="#000000" font-family="sans-serif" font-size="14" lengthAdjust="spacing" textLength="149" x="1523.17" y="847.0889">date_of_record : Date</text><text fill="#000000" font-family="sans-serif" font-size="14" lengthAdjust="spacing" textLength="126" x="1523.17" y="863.3857">recorded_by : Link</text><text fill="#000000" font-family="sans-serif" font-size="14" lengthAdjust="spacing" textLength="83" x="1523.17" y="879.6826">notes : Text</text><line style="stroke:#181818;stroke-width:0.5;" x1="1518.17" x2="1747.17" y1="886.9844" y2="886.9844"/></g><!--class User--><g id="elem_User"><rect fill="#F1F1F1" height="48" id="User" rx="2.5" ry="2.5" style="stroke:#181818;stroke-width:0.5;" width="64" x="1577.67" y="445"/><ellipse cx="1592.67" cy="461" fill="#ADD1B2" rx="11" ry="11" style="stroke:#181818;stroke-width:1.0;"/><path d="M1596.1856,465.0313 L1596.1856,467.0625 Q1594.7013,467.6719 1592.8731,467.6719 Q1590.1544,467.6719 1588.7013,465.9375 Q1587.2481,464.1875 1587.2481,461.0781 Q1587.2481,458.0781 1588.8263,456.2969 Q1590.4044,454.5 1593.1231,454.5 Q1595.0294,454.5 1596.7638,455.4219 L1595.8106,457.3281 Q1594.3106,456.5469 1593.1231,456.5469 Q1591.5138,456.5469 1590.5294,457.7656 Q1589.5606,458.9688 1589.5606,461.0938 Q1589.5606,463.3438 1590.4669,464.4844 Q1591.3888,465.625 1593.1231,465.625 Q1594.1544,465.625 1596.1856,465.0313 Z " fill="#000000"/><text fill="#000000" font-family="sans-serif" font-size="14" lengthAdjust="spacing" textLength="32" x="1606.67" y="465.8467">User</text><line style="stroke:#181818;stroke-width:0.5;" x1="1578.67" x2="1640.67" y1="477" y2="477"/><line style="stroke:#181818;stroke-width:0.5;" x1="1578.67" x2="1640.67" y1="485" y2="485"/></g><!--class Intake Entry--><g id="elem_Intake Entry"><rect codeLine="69" fill="#F5CBA7" height="113.1875" id="Intake Entry" rx="2.5" ry="2.5" style="stroke:#181818;stroke-width:0.5;" width="154" x="47.67" y="84"/><ellipse cx="81.12" cy="100" fill="#ADD1B2" rx="11" ry="11" style="stroke:#181818;stroke-width:1.0;"/><path d="M84.6356,104.0313 L84.6356,106.0625 Q83.1513,106.6719 81.3231,106.6719 Q78.6044,106.6719 77.1513,104.9375 Q75.6981,103.1875 75.6981,100.0781 Q75.6981,97.0781 77.2763,95.2969 Q78.8544,93.5 81.5731,93.5 Q83.4794,93.5 85.2138,94.4219 L84.2606,96.3281 Q82.7606,95.5469 81.5731,95.5469 Q79.9638,95.5469 78.9794,96.7656 Q78.0106,97.9688 78.0106,100.0938 Q78.0106,102.3438 78.9169,103.4844 Q79.8388,104.625 81.5731,104.625 Q82.6044,104.625 84.6356,104.0313 Z " fill="#000000"/><text fill="#000000" font-family="sans-serif" font-size="14" lengthAdjust="spacing" textLength="81" x="99.22" y="104.8467">Intake Entry</text><line style="stroke:#181818;stroke-width:0.5;" x1="48.67" x2="200.67" y1="116" y2="116"/><text fill="#000000" font-family="sans-serif" font-size="14" lengthAdjust="spacing" textLength="142" x="53.67" y="132.9951">serial_number : Data</text><text fill="#000000" font-family="sans-serif" font-size="14" lengthAdjust="spacing" textLength="137" x="53.67" y="149.292">manufacturer : Data</text><text fill="#000000" font-family="sans-serif" font-size="14" lengthAdjust="spacing" textLength="83" x="53.67" y="165.5889">notes : Text</text><text fill="#000000" font-family="sans-serif" font-size="14" lengthAdjust="spacing" textLength="99" x="53.67" y="181.8857">image : Attach</text><line style="stroke:#181818;stroke-width:0.5;" x1="48.67" x2="200.67" y1="189.1875" y2="189.1875"/></g><!--class event_type--><g id="elem_event_type"><rect fill="#F1F1F1" height="48" id="event_type" rx="2.5" ry="2.5" style="stroke:#181818;stroke-width:0.5;" width="108" x="1898.67" y="445"/><ellipse cx="1913.67" cy="461" fill="#ADD1B2" rx="11" ry="11" style="stroke:#181818;stroke-width:1.0;"/><path d="M1917.1856,465.0313 L1917.1856,467.0625 Q1915.7013,467.6719 1913.8731,467.6719 Q1911.1544,467.6719 1909.7013,465.9375 Q1908.2481,464.1875 1908.2481,461.0781 Q1908.2481,458.0781 1909.8263,456.2969 Q1911.4044,454.5 1914.1231,454.5 Q1916.0294,454.5 1917.7638,455.4219 L1916.8106,457.3281 Q1915.3106,456.5469 1914.1231,456.5469 Q1912.5138,456.5469 1911.5294,457.7656 Q1910.5606,458.9688 1910.5606,461.0938 Q1910.5606,463.3438 1911.4669,464.4844 Q1912.3888,465.625 1914.1231,465.625 Q1915.1544,465.625 1917.1856,465.0313 Z " fill="#000000"/><text fill="#000000" font-family="sans-serif" font-size="14" lengthAdjust="spacing" textLength="76" x="1927.67" y="465.8467">event_type</text><line style="stroke:#181818;stroke-width:0.5;" x1="1899.67" x2="2005.67" y1="477" y2="477"/><line style="stroke:#181818;stroke-width:0.5;" x1="1899.67" x2="2005.67" y1="485" y2="485"/></g><!--class Document History--><g id="elem_Document History"><rect codeLine="77" fill="#F5CBA7" height="162.0781" id="Document History" rx="2.5" ry="2.5" style="stroke:#181818;stroke-width:0.5;" width="260" x="1221.67" y="749"/><ellipse cx="1285.42" cy="765" fill="#ADD1B2" rx="11" ry="11" style="stroke:#181818;stroke-width:1.0;"/><path d="M1288.9356,769.0313 L1288.9356,771.0625 Q1287.4513,771.6719 1285.6231,771.6719 Q1282.9044,771.6719 1281.4513,769.9375 Q1279.9981,768.1875 1279.9981,765.0781 Q1279.9981,762.0781 1281.5763,760.2969 Q1283.1544,758.5 1285.8731,758.5 Q1287.7794,758.5 1289.5138,759.4219 L1288.5606,761.3281 Q1287.0606,760.5469 1285.8731,760.5469 Q1284.2638,760.5469 1283.2794,761.7656 Q1282.3106,762.9688 1282.3106,765.0938 Q1282.3106,767.3438 1283.2169,768.4844 Q1284.1388,769.625 1285.8731,769.625 Q1286.9044,769.625 1288.9356,769.0313 Z " fill="#000000"/><text fill="#000000" font-family="sans-serif" font-size="14" lengthAdjust="spacing" textLength="124" x="1305.92" y="769.8467">Document History</text><line style="stroke:#181818;stroke-width:0.5;" x1="1222.67" x2="1480.67" y1="781" y2="781"/><text fill="#000000" font-family="sans-serif" font-size="14" lengthAdjust="spacing" textLength="153" x="1227.67" y="797.9951">event_date : Datetime</text><text fill="#000000" font-family="sans-serif" font-size="14" lengthAdjust="spacing" textLength="132" x="1227.67" y="814.292">event_type : Select</text><text fill="#000000" font-family="sans-serif" font-size="14" lengthAdjust="spacing" textLength="248" x="1227.67" y="830.5889">reference_document : Dynamic Link</text><text fill="#000000" font-family="sans-serif" font-size="14" lengthAdjust="spacing" textLength="146" x="1227.67" y="846.8857">summary : Small Text</text><text fill="#000000" font-family="sans-serif" font-size="14" lengthAdjust="spacing" textLength="135" x="1227.67" y="863.1826">performed_by : Link</text><text fill="#000000" font-family="sans-serif" font-size="14" lengthAdjust="spacing" textLength="99" x="1227.67" y="879.4795">media : Attach</text><text fill="#000000" font-family="sans-serif" font-size="14" lengthAdjust="spacing" textLength="153" x="1227.67" y="895.7764">action_source : Select</text><line style="stroke:#181818;stroke-width:0.5;" x1="1222.67" x2="1480.67" y1="903.0781" y2="903.0781"/></g><!--class Consent Log--><g id="elem_Consent Log"><rect codeLine="87" fill="#F5CBA7" height="113.1875" id="Consent Log" rx="2.5" ry="2.5" style="stroke:#181818;stroke-width:0.5;" width="213" x="973.17" y="773.5"/><ellipse cx="1031.42" cy="789.5" fill="#ADD1B2" rx="11" ry="11" style="stroke:#181818;stroke-width:1.0;"/><path d="M1034.9356,793.5313 L1034.9356,795.5625 Q1033.4513,796.1719 1031.6231,796.1719 Q1028.9044,796.1719 1027.4513,794.4375 Q1025.9981,792.6875 1025.9981,789.5781 Q1025.9981,786.5781 1027.5763,784.7969 Q1029.1544,783 1031.8731,783 Q1033.7794,783 1035.5138,783.9219 L1034.5606,785.8281 Q1033.0606,785.0469 1031.8731,785.0469 Q1030.2638,785.0469 1029.2794,786.2656 Q1028.3106,787.4688 1028.3106,789.5938 Q1028.3106,791.8438 1029.2169,792.9844 Q1030.1388,794.125 1031.8731,794.125 Q1032.9044,794.125 1034.9356,793.5313 Z " fill="#000000"/><text fill="#000000" font-family="sans-serif" font-size="14" lengthAdjust="spacing" textLength="88" x="1051.92" y="794.3467">Consent Log</text><line style="stroke:#181818;stroke-width:0.5;" x1="974.17" x2="1185.17" y1="805.5" y2="805.5"/><text fill="#000000" font-family="sans-serif" font-size="14" lengthAdjust="spacing" textLength="164" x="979.17" y="822.4951">consent_given_by : Link</text><text fill="#000000" font-family="sans-serif" font-size="14" lengthAdjust="spacing" textLength="201" x="979.17" y="838.792">consent_datetime : Datetime</text><text fill="#000000" font-family="sans-serif" font-size="14" lengthAdjust="spacing" textLength="150" x="979.17" y="855.0889">consent_type : Select</text><text fill="#000000" font-family="sans-serif" font-size="14" lengthAdjust="spacing" textLength="123" x="979.17" y="871.3857">notes : Small Text</text><line style="stroke:#181818;stroke-width:0.5;" x1="974.17" x2="1185.17" y1="878.6875" y2="878.6875"/></g><!--class Warranty Modification Log--><g id="elem_Warranty Modification Log"><rect codeLine="95" fill="#F5CBA7" height="178.375" id="Warranty Modification Log" rx="2.5" ry="2.5" style="stroke:#181818;stroke-width:0.5;" width="209" x="729.17" y="741"/><ellipse cx="745.07" cy="757" fill="#ADD1B2" rx="11" ry="11" style="stroke:#181818;stroke-width:1.0;"/><path d="M748.5856,761.0313 L748.5856,763.0625 Q747.1012,763.6719 745.2731,763.6719 Q742.5544,763.6719 741.1012,761.9375 Q739.6481,760.1875 739.6481,757.0781 Q739.6481,754.0781 741.2262,752.2969 Q742.8044,750.5 745.5231,750.5 Q747.4294,750.5 749.1637,751.4219 L748.2106,753.3281 Q746.7106,752.5469 745.5231,752.5469 Q743.9137,752.5469 742.9294,753.7656 Q741.9606,754.9688 741.9606,757.0938 Q741.9606,759.3438 742.8669,760.4844 Q743.7887,761.625 745.5231,761.625 Q746.5544,761.625 748.5856,761.0313 Z " fill="#000000"/><text fill="#000000" font-family="sans-serif" font-size="14" lengthAdjust="spacing" textLength="175" x="759.27" y="761.8467">Warranty Modification Log</text><line style="stroke:#181818;stroke-width:0.5;" x1="730.17" x2="937.17" y1="773" y2="773"/><text fill="#000000" font-family="sans-serif" font-size="14" lengthAdjust="spacing" textLength="164" x="735.17" y="789.9951">instrument_profile : Link</text><text fill="#000000" font-family="sans-serif" font-size="14" lengthAdjust="spacing" textLength="122" x="735.17" y="806.292">modified_by : Link</text><text fill="#000000" font-family="sans-serif" font-size="14" lengthAdjust="spacing" textLength="197" x="735.17" y="822.5889">modification_date : Datetime</text><text fill="#000000" font-family="sans-serif" font-size="14" lengthAdjust="spacing" textLength="143" x="735.17" y="838.8857">old_start_date : Date</text><text fill="#000000" font-family="sans-serif" font-size="14" lengthAdjust="spacing" textLength="151" x="735.17" y="855.1826">new_start_date : Date</text><text fill="#000000" font-family="sans-serif" font-size="14" lengthAdjust="spacing" textLength="139" x="735.17" y="871.4795">old_end_date : Date</text><text fill="#000000" font-family="sans-serif" font-size="14" lengthAdjust="spacing" textLength="147" x="735.17" y="887.7764">new_end_date : Date</text><text fill="#000000" font-family="sans-serif" font-size="14" lengthAdjust="spacing" textLength="93" x="735.17" y="904.0732">reason : Data</text><line style="stroke:#181818;stroke-width:0.5;" x1="730.17" x2="937.17" y1="911.375" y2="911.375"/></g><!--class Pad Condition--><g id="elem_Pad Condition"><rect codeLine="202" fill="#F5CBA7" height="113.1875" id="Pad Condition" rx="2.5" ry="2.5" style="stroke:#181818;stroke-width:0.5;" width="173" x="1372.17" y="84"/><ellipse cx="1407.42" cy="100" fill="#ADD1B2" rx="11" ry="11" style="stroke:#181818;stroke-width:1.0;"/><path d="M1410.9356,104.0313 L1410.9356,106.0625 Q1409.4513,106.6719 1407.6231,106.6719 Q1404.9044,106.6719 1403.4513,104.9375 Q1401.9981,103.1875 1401.9981,100.0781 Q1401.9981,97.0781 1403.5763,95.2969 Q1405.1544,93.5 1407.8731,93.5 Q1409.7794,93.5 1411.5138,94.4219 L1410.5606,96.3281 Q1409.0606,95.5469 1407.8731,95.5469 Q1406.2638,95.5469 1405.2794,96.7656 Q1404.3106,97.9688 1404.3106,100.0938 Q1404.3106,102.3438 1405.2169,103.4844 Q1406.1388,104.625 1407.8731,104.625 Q1408.9044,104.625 1410.9356,104.0313 Z " fill="#000000"/><text fill="#000000" font-family="sans-serif" font-size="14" lengthAdjust="spacing" textLength="96" x="1425.92" y="104.8467">Pad Condition</text><line style="stroke:#181818;stroke-width:0.5;" x1="1373.17" x2="1544.17" y1="116" y2="116"/><text fill="#000000" font-family="sans-serif" font-size="14" lengthAdjust="spacing" textLength="90" x="1378.17" y="132.9951">pad_id : Data</text><text fill="#000000" font-family="sans-serif" font-size="14" lengthAdjust="spacing" textLength="117" x="1378.17" y="149.292">pad_name : Data</text><text fill="#000000" font-family="sans-serif" font-size="14" lengthAdjust="spacing" textLength="99" x="1378.17" y="165.5889">status : Select</text><text fill="#000000" font-family="sans-serif" font-size="14" lengthAdjust="spacing" textLength="161" x="1378.17" y="181.8857">technician_notes : Text</text><line style="stroke:#181818;stroke-width:0.5;" x1="1373.17" x2="1544.17" y1="189.1875" y2="189.1875"/></g><!--class Repair Log--><g id="elem_Repair Log"><rect codeLine="106" fill="#F5CBA7" height="80.5938" id="Repair Log" rx="2.5" ry="2.5" style="stroke:#181818;stroke-width:0.5;" width="168" x="1374.67" y="428.5"/><ellipse cx="1418.02" cy="444.5" fill="#ADD1B2" rx="11" ry="11" style="stroke:#181818;stroke-width:1.0;"/><path d="M1421.5356,448.5313 L1421.5356,450.5625 Q1420.0513,451.1719 1418.2231,451.1719 Q1415.5044,451.1719 1414.0513,449.4375 Q1412.5981,447.6875 1412.5981,444.5781 Q1412.5981,441.5781 1414.1763,439.7969 Q1415.7544,438 1418.4731,438 Q1420.3794,438 1422.1138,438.9219 L1421.1606,440.8281 Q1419.6606,440.0469 1418.4731,440.0469 Q1416.8638,440.0469 1415.8794,441.2656 Q1414.9106,442.4688 1414.9106,444.5938 Q1414.9106,446.8438 1415.8169,447.9844 Q1416.7388,449.125 1418.4731,449.125 Q1419.5044,449.125 1421.5356,448.5313 Z " fill="#000000"/><text fill="#000000" font-family="sans-serif" font-size="14" lengthAdjust="spacing" textLength="73" x="1438.32" y="449.3467">Repair Log</text><line style="stroke:#181818;stroke-width:0.5;" x1="1375.67" x2="1541.67" y1="460.5" y2="460.5"/><text fill="#000000" font-family="sans-serif" font-size="14" lengthAdjust="spacing" textLength="156" x="1380.67" y="477.4951">pad_conditions : Table</text><text fill="#000000" font-family="sans-serif" font-size="14" lengthAdjust="spacing" textLength="151" x="1380.67" y="493.792">pad_map_view : HTML</text><line style="stroke:#181818;stroke-width:0.5;" x1="1375.67" x2="1541.67" y1="501.0938" y2="501.0938"/></g><!--class Customer--><g id="elem_Customer"><rect fill="#F1F1F1" height="48" id="Customer" rx="2.5" ry="2.5" style="stroke:#181818;stroke-width:0.5;" width="100" x="536.67" y="116.5"/><ellipse cx="551.67" cy="132.5" fill="#ADD1B2" rx="11" ry="11" style="stroke:#181818;stroke-width:1.0;"/><path d="M555.1856,136.5313 L555.1856,138.5625 Q553.7013,139.1719 551.8731,139.1719 Q549.1544,139.1719 547.7013,137.4375 Q546.2481,135.6875 546.2481,132.5781 Q546.2481,129.5781 547.8263,127.7969 Q549.4044,126 552.1231,126 Q554.0294,126 555.7638,126.9219 L554.8106,128.8281 Q553.3106,128.0469 552.1231,128.0469 Q550.5138,128.0469 549.5294,129.2656 Q548.5606,130.4688 548.5606,132.5938 Q548.5606,134.8438 549.4669,135.9844 Q550.3888,137.125 552.1231,137.125 Q553.1544,137.125 555.1856,136.5313 Z " fill="#000000"/><text fill="#000000" font-family="sans-serif" font-size="14" lengthAdjust="spacing" textLength="68" x="565.67" y="137.3467">Customer</text><line style="stroke:#181818;stroke-width:0.5;" x1="537.67" x2="635.67" y1="148.5" y2="148.5"/><line style="stroke:#181818;stroke-width:0.5;" x1="537.67" x2="635.67" y1="156.5" y2="156.5"/></g><!--class Customer External Work Log--><g id="elem_Customer External Work Log"><rect codeLine="174" fill="#F5CBA7" height="145.7813" id="Customer External Work Log" rx="2.5" ry="2.5" style="stroke:#181818;stroke-width:0.5;" width="227" x="159.17" y="757"/><ellipse cx="174.17" cy="773" fill="#ADD1B2" rx="11" ry="11" style="stroke:#181818;stroke-width:1.0;"/><path d="M177.6856,777.0313 L177.6856,779.0625 Q176.2013,779.6719 174.3731,779.6719 Q171.6544,779.6719 170.2013,777.9375 Q168.7481,776.1875 168.7481,773.0781 Q168.7481,770.0781 170.3263,768.2969 Q171.9044,766.5 174.6231,766.5 Q176.5294,766.5 178.2638,767.4219 L177.3106,769.3281 Q175.8106,768.5469 174.6231,768.5469 Q173.0138,768.5469 172.0294,769.7656 Q171.0606,770.9688 171.0606,773.0938 Q171.0606,775.3438 171.9669,776.4844 Q172.8888,777.625 174.6231,777.625 Q175.6544,777.625 177.6856,777.0313 Z " fill="#000000"/><text fill="#000000" font-family="sans-serif" font-size="14" lengthAdjust="spacing" textLength="195" x="188.17" y="777.8467">Customer External Work Log</text><line style="stroke:#181818;stroke-width:0.5;" x1="160.17" x2="385.17" y1="789" y2="789"/><text fill="#000000" font-family="sans-serif" font-size="14" lengthAdjust="spacing" textLength="164" x="165.17" y="805.9951">instrument_profile : Link</text><text fill="#000000" font-family="sans-serif" font-size="14" lengthAdjust="spacing" textLength="133" x="165.17" y="822.292">service_date : Date</text><text fill="#000000" font-family="sans-serif" font-size="14" lengthAdjust="spacing" textLength="142" x="165.17" y="838.5889">service_type : Select</text><text fill="#000000" font-family="sans-serif" font-size="14" lengthAdjust="spacing" textLength="139" x="165.17" y="854.8857">service_notes : Text</text><text fill="#000000" font-family="sans-serif" font-size="14" lengthAdjust="spacing" textLength="188" x="165.17" y="871.1826">external_shop_name : Data</text><text fill="#000000" font-family="sans-serif" font-size="14" lengthAdjust="spacing" textLength="191" x="165.17" y="887.4795">receipt_attachment : Attach</text><line style="stroke:#181818;stroke-width:0.5;" x1="160.17" x2="385.17" y1="894.7813" y2="894.7813"/></g><!--class Image Log Entry--><g id="elem_Image Log Entry"><rect fill="#F1F1F1" height="48" id="Image Log Entry" rx="2.5" ry="2.5" style="stroke:#181818;stroke-width:0.5;" width="142" x="359.67" y="116.5"/><ellipse cx="374.67" cy="132.5" fill="#ADD1B2" rx="11" ry="11" style="stroke:#181818;stroke-width:1.0;"/><path d="M378.1856,136.5313 L378.1856,138.5625 Q376.7013,139.1719 374.8731,139.1719 Q372.1544,139.1719 370.7013,137.4375 Q369.2481,135.6875 369.2481,132.5781 Q369.2481,129.5781 370.8263,127.7969 Q372.4044,126 375.1231,126 Q377.0294,126 378.7638,126.9219 L377.8106,128.8281 Q376.3106,128.0469 375.1231,128.0469 Q373.5138,128.0469 372.5294,129.2656 Q371.5606,130.4688 371.5606,132.5938 Q371.5606,134.8438 372.4669,135.9844 Q373.3888,137.125 375.1231,137.125 Q376.1544,137.125 378.1856,136.5313 Z " fill="#000000"/><text fill="#000000" font-family="sans-serif" font-size="14" lengthAdjust="spacing" textLength="110" x="388.67" y="137.3467">Image Log Entry</text><line style="stroke:#181818;stroke-width:0.5;" x1="360.67" x2="500.67" y1="148.5" y2="148.5"/><line style="stroke:#181818;stroke-width:0.5;" x1="360.67" x2="500.67" y1="156.5" y2="156.5"/></g><!--class Consent Log Entry--><g id="elem_Consent Log Entry"><rect codeLine="151" fill="#F5CBA7" height="80.5938" id="Consent Log Entry" rx="2.5" ry="2.5" style="stroke:#181818;stroke-width:0.5;" width="162" x="1173.67" y="100"/><ellipse cx="1190.02" cy="116" fill="#ADD1B2" rx="11" ry="11" style="stroke:#181818;stroke-width:1.0;"/><path d="M1193.5356,120.0313 L1193.5356,122.0625 Q1192.0513,122.6719 1190.2231,122.6719 Q1187.5044,122.6719 1186.0513,120.9375 Q1184.5981,119.1875 1184.5981,116.0781 Q1184.5981,113.0781 1186.1763,111.2969 Q1187.7544,109.5 1190.4731,109.5 Q1192.3794,109.5 1194.1138,110.4219 L1193.1606,112.3281 Q1191.6606,111.5469 1190.4731,111.5469 Q1188.8638,111.5469 1187.8794,112.7656 Q1186.9106,113.9688 1186.9106,116.0938 Q1186.9106,118.3438 1187.8169,119.4844 Q1188.7388,120.625 1190.4731,120.625 Q1191.5044,120.625 1193.5356,120.0313 Z " fill="#000000"/><text fill="#000000" font-family="sans-serif" font-size="14" lengthAdjust="spacing" textLength="127" x="1204.32" y="120.8467">Consent Log Entry</text><line style="stroke:#181818;stroke-width:0.5;" x1="1174.67" x2="1334.67" y1="132" y2="132"/><text fill="#000000" font-family="sans-serif" font-size="14" lengthAdjust="spacing" textLength="150" x="1179.67" y="148.9951">consent_type : Select</text><text fill="#000000" font-family="sans-serif" font-size="14" lengthAdjust="spacing" textLength="121" x="1179.67" y="165.292">date_given : Date</text><line style="stroke:#181818;stroke-width:0.5;" x1="1174.67" x2="1334.67" y1="172.5938" y2="172.5938"/></g><!--class Instrument Document History--><g id="elem_Instrument Document History"><rect codeLine="166" fill="#F5CBA7" height="129.4844" id="Instrument Document History" rx="2.5" ry="2.5" style="stroke:#181818;stroke-width:0.5;" width="235" x="421.17" y="765.5"/><ellipse cx="436.17" cy="781.5" fill="#ADD1B2" rx="11" ry="11" style="stroke:#181818;stroke-width:1.0;"/><path d="M439.6856,785.5313 L439.6856,787.5625 Q438.2013,788.1719 436.3731,788.1719 Q433.6544,788.1719 432.2013,786.4375 Q430.7481,784.6875 430.7481,781.5781 Q430.7481,778.5781 432.3263,776.7969 Q433.9044,775 436.6231,775 Q438.5294,775 440.2638,775.9219 L439.3106,777.8281 Q437.8106,777.0469 436.6231,777.0469 Q435.0138,777.0469 434.0294,778.2656 Q433.0606,779.4688 433.0606,781.5938 Q433.0606,783.8438 433.9669,784.9844 Q434.8888,786.125 436.6231,786.125 Q437.6544,786.125 439.6856,785.5313 Z " fill="#000000"/><text fill="#000000" font-family="sans-serif" font-size="14" lengthAdjust="spacing" textLength="203" x="450.17" y="786.3467">Instrument Document History</text><line style="stroke:#181818;stroke-width:0.5;" x1="422.17" x2="655.17" y1="797.5" y2="797.5"/><text fill="#000000" font-family="sans-serif" font-size="14" lengthAdjust="spacing" textLength="153" x="427.17" y="814.4951">event_date : Datetime</text><text fill="#000000" font-family="sans-serif" font-size="14" lengthAdjust="spacing" textLength="132" x="427.17" y="830.792">event_type : Select</text><text fill="#000000" font-family="sans-serif" font-size="14" lengthAdjust="spacing" textLength="140" x="427.17" y="847.0889">reference_doc : Link</text><text fill="#000000" font-family="sans-serif" font-size="14" lengthAdjust="spacing" textLength="146" x="427.17" y="863.3857">summary : Small Text</text><text fill="#000000" font-family="sans-serif" font-size="14" lengthAdjust="spacing" textLength="71" x="427.17" y="879.6826">user : Link</text><line style="stroke:#181818;stroke-width:0.5;" x1="422.17" x2="655.17" y1="886.9844" y2="886.9844"/></g><!--class Workflow State--><g id="elem_Workflow State"><rect fill="#F1F1F1" height="48" id="Workflow State" rx="2.5" ry="2.5" style="stroke:#181818;stroke-width:0.5;" width="134" x="920.67" y="116.5"/><ellipse cx="935.67" cy="132.5" fill="#ADD1B2" rx="11" ry="11" style="stroke:#181818;stroke-width:1.0;"/><path d="M939.1856,136.5313 L939.1856,138.5625 Q937.7013,139.1719 935.8731,139.1719 Q933.1544,139.1719 931.7013,137.4375 Q930.2481,135.6875 930.2481,132.5781 Q930.2481,129.5781 931.8263,127.7969 Q933.4044,126 936.1231,126 Q938.0294,126 939.7638,126.9219 L938.8106,128.8281 Q937.3106,128.0469 936.1231,128.0469 Q934.5138,128.0469 933.5294,129.2656 Q932.5606,130.4688 932.5606,132.5938 Q932.5606,134.8438 933.4669,135.9844 Q934.3888,137.125 936.1231,137.125 Q937.1544,137.125 939.1856,136.5313 Z " fill="#000000"/><text fill="#000000" font-family="sans-serif" font-size="14" lengthAdjust="spacing" textLength="102" x="949.67" y="137.3467">Workflow State</text><line style="stroke:#181818;stroke-width:0.5;" x1="921.67" x2="1053.67" y1="148.5" y2="148.5"/><line style="stroke:#181818;stroke-width:0.5;" x1="921.67" x2="1053.67" y1="156.5" y2="156.5"/></g><!--class Player Profile--><g id="elem_Player Profile"><rect fill="#F1F1F1" height="48" id="Player Profile" rx="2.5" ry="2.5" style="stroke:#181818;stroke-width:0.5;" width="119" x="766.17" y="116.5"/><ellipse cx="781.17" cy="132.5" fill="#ADD1B2" rx="11" ry="11" style="stroke:#181818;stroke-width:1.0;"/><path d="M784.6856,136.5313 L784.6856,138.5625 Q783.2013,139.1719 781.3731,139.1719 Q778.6544,139.1719 777.2013,137.4375 Q775.7481,135.6875 775.7481,132.5781 Q775.7481,129.5781 777.3263,127.7969 Q778.9044,126 781.6231,126 Q783.5294,126 785.2638,126.9219 L784.3106,128.8281 Q782.8106,128.0469 781.6231,128.0469 Q780.0138,128.0469 779.0294,129.2656 Q778.0606,130.4688 778.0606,132.5938 Q778.0606,134.8438 778.9669,135.9844 Q779.8888,137.125 781.6231,137.125 Q782.6544,137.125 784.6856,136.5313 Z " fill="#000000"/><text fill="#000000" font-family="sans-serif" font-size="14" lengthAdjust="spacing" textLength="87" x="795.17" y="137.3467">Player Profile</text><line style="stroke:#181818;stroke-width:0.5;" x1="767.17" x2="884.17" y1="148.5" y2="148.5"/><line style="stroke:#181818;stroke-width:0.5;" x1="767.17" x2="884.17" y1="156.5" y2="156.5"/></g><!--class Supplier--><g id="elem_Supplier"><rect fill="#F1F1F1" height="48" id="Supplier" rx="2.5" ry="2.5" style="stroke:#181818;stroke-width:0.5;" width="88" x="236.67" y="116.5"/><ellipse cx="251.67" cy="132.5" fill="#ADD1B2" rx="11" ry="11" style="stroke:#181818;stroke-width:1.0;"/><path d="M255.1856,136.5313 L255.1856,138.5625 Q253.7013,139.1719 251.8731,139.1719 Q249.1544,139.1719 247.7013,137.4375 Q246.2481,135.6875 246.2481,132.5781 Q246.2481,129.5781 247.8263,127.7969 Q249.4044,126 252.1231,126 Q254.0294,126 255.7638,126.9219 L254.8106,128.8281 Q253.3106,128.0469 252.1231,128.0469 Q250.5138,128.0469 249.5294,129.2656 Q248.5606,130.4688 248.5606,132.5938 Q248.5606,134.8438 249.4669,135.9844 Q250.3888,137.125 252.1231,137.125 Q253.1544,137.125 255.1856,136.5313 Z " fill="#000000"/><text fill="#000000" font-family="sans-serif" font-size="14" lengthAdjust="spacing" textLength="56" x="265.67" y="137.3467">Supplier</text><line style="stroke:#181818;stroke-width:0.5;" x1="237.67" x2="323.67" y1="148.5" y2="148.5"/><line style="stroke:#181818;stroke-width:0.5;" x1="237.67" x2="323.67" y1="156.5" y2="156.5"/></g><!--class External Work Logs--><g id="elem_External Work Logs"><rect codeLine="155" fill="#F5CBA7" height="96.8906" id="External Work Logs" rx="2.5" ry="2.5" style="stroke:#181818;stroke-width:0.5;" width="172" x="2923.67" y="1077.5"/><ellipse cx="2942.72" cy="1093.5" fill="#ADD1B2" rx="11" ry="11" style="stroke:#181818;stroke-width:1.0;"/><path d="M2946.2356,1097.5313 L2946.2356,1099.5625 Q2944.7513,1100.1719 2942.9231,1100.1719 Q2940.2044,1100.1719 2938.7513,1098.4375 Q2937.2981,1096.6875 2937.2981,1093.5781 Q2937.2981,1090.5781 2938.8763,1088.7969 Q2940.4544,1087 2943.1731,1087 Q2945.0794,1087 2946.8138,1087.9219 L2945.8606,1089.8281 Q2944.3606,1089.0469 2943.1731,1089.0469 Q2941.5638,1089.0469 2940.5794,1090.2656 Q2939.6106,1091.4688 2939.6106,1093.5938 Q2939.6106,1095.8438 2940.5169,1096.9844 Q2941.4388,1098.125 2943.1731,1098.125 Q2944.2044,1098.125 2946.2356,1097.5313 Z " fill="#000000"/><text fill="#000000" font-family="sans-serif" font-size="14" lengthAdjust="spacing" textLength="131" x="2957.62" y="1098.3467">External Work Logs</text><line style="stroke:#181818;stroke-width:0.5;" x1="2924.67" x2="3094.67" y1="1109.5" y2="1109.5"/><text fill="#000000" font-family="sans-serif" font-size="14" lengthAdjust="spacing" textLength="160" x="2929.67" y="1126.4951">description : Small Text</text><text fill="#000000" font-family="sans-serif" font-size="14" lengthAdjust="spacing" textLength="140" x="2929.67" y="1142.792">performed_by : Data</text><text fill="#000000" font-family="sans-serif" font-size="14" lengthAdjust="spacing" textLength="77" x="2929.67" y="1159.0889">date : Date</text><line style="stroke:#181818;stroke-width:0.5;" x1="2924.67" x2="3094.67" y1="1166.3906" y2="1166.3906"/></g><!--class Service Logs--><g id="elem_Service Logs"><rect codeLine="160" fill="#F5CBA7" height="80.5938" id="Service Logs" rx="2.5" ry="2.5" style="stroke:#181818;stroke-width:0.5;" width="168" x="1811.67" y="1317"/><ellipse cx="1848.72" cy="1333" fill="#ADD1B2" rx="11" ry="11" style="stroke:#181818;stroke-width:1.0;"/><path d="M1852.2356,1337.0313 L1852.2356,1339.0625 Q1850.7513,1339.6719 1848.9231,1339.6719 Q1846.2044,1339.6719 1844.7513,1337.9375 Q1843.2981,1336.1875 1843.2981,1333.0781 Q1843.2981,1330.0781 1844.8763,1328.2969 Q1846.4544,1326.5 1849.1731,1326.5 Q1851.0794,1326.5 1852.8138,1327.4219 L1851.8606,1329.3281 Q1850.3606,1328.5469 1849.1731,1328.5469 Q1847.5638,1328.5469 1846.5794,1329.7656 Q1845.6106,1330.9688 1845.6106,1333.0938 Q1845.6106,1335.3438 1846.5169,1336.4844 Q1847.4388,1337.625 1849.1731,1337.625 Q1850.2044,1337.625 1852.2356,1337.0313 Z " fill="#000000"/><text fill="#000000" font-family="sans-serif" font-size="14" lengthAdjust="spacing" textLength="87" x="1867.62" y="1337.8467">Service Logs</text><line style="stroke:#181818;stroke-width:0.5;" x1="1812.67" x2="1978.67" y1="1349" y2="1349"/><text fill="#000000" font-family="sans-serif" font-size="14" lengthAdjust="spacing" textLength="156" x="1817.67" y="1365.9951">log_details : Small Text</text><text fill="#000000" font-family="sans-serif" font-size="14" lengthAdjust="spacing" textLength="105" x="1817.67" y="1382.292">log_date : Date</text><line style="stroke:#181818;stroke-width:0.5;" x1="1812.67" x2="1978.67" y1="1389.5938" y2="1389.5938"/></g><!--class Instrument Profile Setup--><g id="elem_Instrument Profile Setup"><rect codeLine="210" fill="#F5CBA7" height="48" id="Instrument Profile Setup" rx="2.5" ry="2.5" style="stroke:#181818;stroke-width:0.5;" width="198" x="2014.67" y="1333.5"/><ellipse cx="2029.67" cy="1349.5" fill="#ADD1B2" rx="11" ry="11" style="stroke:#181818;stroke-width:1.0;"/><path d="M2033.1856,1353.5313 L2033.1856,1355.5625 Q2031.7013,1356.1719 2029.8731,1356.1719 Q2027.1544,1356.1719 2025.7013,1354.4375 Q2024.2481,1352.6875 2024.2481,1349.5781 Q2024.2481,1346.5781 2025.8263,1344.7969 Q2027.4044,1343 2030.1231,1343 Q2032.0294,1343 2033.7638,1343.9219 L2032.8106,1345.8281 Q2031.3106,1345.0469 2030.1231,1345.0469 Q2028.5138,1345.0469 2027.5294,1346.2656 Q2026.5606,1347.4688 2026.5606,1349.5938 Q2026.5606,1351.8438 2027.4669,1352.9844 Q2028.3888,1354.125 2030.1231,1354.125 Q2031.1544,1354.125 2033.1856,1353.5313 Z " fill="#000000"/><text fill="#000000" font-family="sans-serif" font-size="14" lengthAdjust="spacing" textLength="166" x="2043.67" y="1354.3467">Instrument Profile Setup</text><line style="stroke:#181818;stroke-width:0.5;" x1="2015.67" x2="2211.67" y1="1365.5" y2="1365.5"/><line style="stroke:#181818;stroke-width:0.5;" x1="2015.67" x2="2211.67" y1="1373.5" y2="1373.5"/></g><!--class Instrument Profile Workflow--><g id="elem_Instrument Profile Workflow"><rect codeLine="212" fill="#F5CBA7" height="48" id="Instrument Profile Workflow" rx="2.5" ry="2.5" style="stroke:#181818;stroke-width:0.5;" width="219" x="2248.17" y="1333.5"/><ellipse cx="2263.17" cy="1349.5" fill="#ADD1B2" rx="11" ry="11" style="stroke:#181818;stroke-width:1.0;"/><path d="M2266.6856,1353.5313 L2266.6856,1355.5625 Q2265.2013,1356.1719 2263.3731,1356.1719 Q2260.6544,1356.1719 2259.2013,1354.4375 Q2257.7481,1352.6875 2257.7481,1349.5781 Q2257.7481,1346.5781 2259.3263,1344.7969 Q2260.9044,1343 2263.6231,1343 Q2265.5294,1343 2267.2638,1343.9219 L2266.3106,1345.8281 Q2264.8106,1345.0469 2263.6231,1345.0469 Q2262.0138,1345.0469 2261.0294,1346.2656 Q2260.0606,1347.4688 2260.0606,1349.5938 Q2260.0606,1351.8438 2260.9669,1352.9844 Q2261.8888,1354.125 2263.6231,1354.125 Q2264.6544,1354.125 2266.6856,1353.5313 Z " fill="#000000"/><text fill="#000000" font-family="sans-serif" font-size="14" lengthAdjust="spacing" textLength="187" x="2277.17" y="1354.3467">Instrument Profile Workflow</text><line style="stroke:#181818;stroke-width:0.5;" x1="2249.17" x2="2466.17" y1="1365.5" y2="1365.5"/><line style="stroke:#181818;stroke-width:0.5;" x1="2249.17" x2="2466.17" y1="1373.5" y2="1373.5"/></g><!--class Instrument Tag--><g id="elem_Instrument Tag"><rect codeLine="214" fill="#F5CBA7" height="48" id="Instrument Tag" rx="2.5" ry="2.5" style="stroke:#181818;stroke-width:0.5;" width="137" x="2502.17" y="1333.5"/><ellipse cx="2517.17" cy="1349.5" fill="#ADD1B2" rx="11" ry="11" style="stroke:#181818;stroke-width:1.0;"/><path d="M2520.6856,1353.5313 L2520.6856,1355.5625 Q2519.2013,1356.1719 2517.3731,1356.1719 Q2514.6544,1356.1719 2513.2013,1354.4375 Q2511.7481,1352.6875 2511.7481,1349.5781 Q2511.7481,1346.5781 2513.3263,1344.7969 Q2514.9044,1343 2517.6231,1343 Q2519.5294,1343 2521.2638,1343.9219 L2520.3106,1345.8281 Q2518.8106,1345.0469 2517.6231,1345.0469 Q2516.0138,1345.0469 2515.0294,1346.2656 Q2514.0606,1347.4688 2514.0606,1349.5938 Q2514.0606,1351.8438 2514.9669,1352.9844 Q2515.8888,1354.125 2517.6231,1354.125 Q2518.6544,1354.125 2520.6856,1353.5313 Z " fill="#000000"/><text fill="#000000" font-family="sans-serif" font-size="14" lengthAdjust="spacing" textLength="105" x="2531.17" y="1354.3467">Instrument Tag</text><line style="stroke:#181818;stroke-width:0.5;" x1="2503.17" x2="2638.17" y1="1365.5" y2="1365.5"/><line style="stroke:#181818;stroke-width:0.5;" x1="2503.17" x2="2638.17" y1="1373.5" y2="1373.5"/></g><!--class Instrument Qr Tag--><g id="elem_Instrument Qr Tag"><rect codeLine="216" fill="#F5CBA7" height="48" id="Instrument Qr Tag" rx="2.5" ry="2.5" style="stroke:#181818;stroke-width:0.5;" width="157" x="2674.17" y="1333.5"/><ellipse cx="2689.17" cy="1349.5" fill="#ADD1B2" rx="11" ry="11" style="stroke:#181818;stroke-width:1.0;"/><path d="M2692.6856,1353.5313 L2692.6856,1355.5625 Q2691.2013,1356.1719 2689.3731,1356.1719 Q2686.6544,1356.1719 2685.2013,1354.4375 Q2683.7481,1352.6875 2683.7481,1349.5781 Q2683.7481,1346.5781 2685.3263,1344.7969 Q2686.9044,1343 2689.6231,1343 Q2691.5294,1343 2693.2638,1343.9219 L2692.3106,1345.8281 Q2690.8106,1345.0469 2689.6231,1345.0469 Q2688.0138,1345.0469 2687.0294,1346.2656 Q2686.0606,1347.4688 2686.0606,1349.5938 Q2686.0606,1351.8438 2686.9669,1352.9844 Q2687.8888,1354.125 2689.6231,1354.125 Q2690.6544,1354.125 2692.6856,1353.5313 Z " fill="#000000"/><text fill="#000000" font-family="sans-serif" font-size="14" lengthAdjust="spacing" textLength="125" x="2703.17" y="1354.3467">Instrument Qr Tag</text><line style="stroke:#181818;stroke-width:0.5;" x1="2675.17" x2="2830.17" y1="1365.5" y2="1365.5"/><line style="stroke:#181818;stroke-width:0.5;" x1="2675.17" x2="2830.17" y1="1373.5" y2="1373.5"/></g><!--class Instrument Profile Summary--><g id="elem_Instrument Profile Summary"><rect codeLine="218" fill="#F5CBA7" height="48" id="Instrument Profile Summary" rx="2.5" ry="2.5" style="stroke:#181818;stroke-width:0.5;" width="221" x="2866.17" y="1333.5"/><ellipse cx="2881.17" cy="1349.5" fill="#ADD1B2" rx="11" ry="11" style="stroke:#181818;stroke-width:1.0;"/><path d="M2884.6856,1353.5313 L2884.6856,1355.5625 Q2883.2013,1356.1719 2881.3731,1356.1719 Q2878.6544,1356.1719 2877.2013,1354.4375 Q2875.7481,1352.6875 2875.7481,1349.5781 Q2875.7481,1346.5781 2877.3263,1344.7969 Q2878.9044,1343 2881.6231,1343 Q2883.5294,1343 2885.2638,1343.9219 L2884.3106,1345.8281 Q2882.8106,1345.0469 2881.6231,1345.0469 Q2880.0138,1345.0469 2879.0294,1346.2656 Q2878.0606,1347.4688 2878.0606,1349.5938 Q2878.0606,1351.8438 2878.9669,1352.9844 Q2879.8888,1354.125 2881.6231,1354.125 Q2882.6544,1354.125 2884.6856,1353.5313 Z " fill="#000000"/><text fill="#000000" font-family="sans-serif" font-size="14" lengthAdjust="spacing" textLength="189" x="2895.17" y="1354.3467">Instrument Profile Summary</text><line style="stroke:#181818;stroke-width:0.5;" x1="2867.17" x2="3086.17" y1="1365.5" y2="1365.5"/><line style="stroke:#181818;stroke-width:0.5;" x1="2867.17" x2="3086.17" y1="1373.5" y2="1373.5"/></g><!--class Instrument Summary--><g id="elem_Instrument Summary"><rect codeLine="220" fill="#F5CBA7" height="48" id="Instrument Summary" rx="2.5" ry="2.5" style="stroke:#181818;stroke-width:0.5;" width="175" x="1808.17" y="1459"/><ellipse cx="1823.17" cy="1475" fill="#ADD1B2" rx="11" ry="11" style="stroke:#181818;stroke-width:1.0;"/><path d="M1826.6856,1479.0313 L1826.6856,1481.0625 Q1825.2013,1481.6719 1823.3731,1481.6719 Q1820.6544,1481.6719 1819.2013,1479.9375 Q1817.7481,1478.1875 1817.7481,1475.0781 Q1817.7481,1472.0781 1819.3263,1470.2969 Q1820.9044,1468.5 1823.6231,1468.5 Q1825.5294,1468.5 1827.2638,1469.4219 L1826.3106,1471.3281 Q1824.8106,1470.5469 1823.6231,1470.5469 Q1822.0138,1470.5469 1821.0294,1471.7656 Q1820.0606,1472.9688 1820.0606,1475.0938 Q1820.0606,1477.3438 1820.9669,1478.4844 Q1821.8888,1479.625 1823.6231,1479.625 Q1824.6544,1479.625 1826.6856,1479.0313 Z " fill="#000000"/><text fill="#000000" font-family="sans-serif" font-size="14" lengthAdjust="spacing" textLength="143" x="1837.17" y="1479.8467">Instrument Summary</text><line style="stroke:#181818;stroke-width:0.5;" x1="1809.17" x2="1982.17" y1="1491" y2="1491"/><line style="stroke:#181818;stroke-width:0.5;" x1="1809.17" x2="1982.17" y1="1499" y2="1499"/></g><!--class Instrument Profile Auto Status--><g id="elem_Instrument Profile Auto Status"><rect codeLine="222" fill="#F5CBA7" height="48" id="Instrument Profile Auto Status" rx="2.5" ry="2.5" style="stroke:#181818;stroke-width:0.5;" width="237" x="2018.17" y="1459"/><ellipse cx="2033.17" cy="1475" fill="#ADD1B2" rx="11" ry="11" style="stroke:#181818;stroke-width:1.0;"/><path d="M2036.6856,1479.0313 L2036.6856,1481.0625 Q2035.2013,1481.6719 2033.3731,1481.6719 Q2030.6544,1481.6719 2029.2013,1479.9375 Q2027.7481,1478.1875 2027.7481,1475.0781 Q2027.7481,1472.0781 2029.3263,1470.2969 Q2030.9044,1468.5 2033.6231,1468.5 Q2035.5294,1468.5 2037.2638,1469.4219 L2036.3106,1471.3281 Q2034.8106,1470.5469 2033.6231,1470.5469 Q2032.0138,1470.5469 2031.0294,1471.7656 Q2030.0606,1472.9688 2030.0606,1475.0938 Q2030.0606,1477.3438 2030.9669,1478.4844 Q2031.8888,1479.625 2033.6231,1479.625 Q2034.6544,1479.625 2036.6856,1479.0313 Z " fill="#000000"/><text fill="#000000" font-family="sans-serif" font-size="14" lengthAdjust="spacing" textLength="205" x="2047.17" y="1479.8467">Instrument Profile Auto Status</text><line style="stroke:#181818;stroke-width:0.5;" x1="2019.17" x2="2254.17" y1="1491" y2="1491"/><line style="stroke:#181818;stroke-width:0.5;" x1="2019.17" x2="2254.17" y1="1499" y2="1499"/></g><!--reverse link Instrument to Instrument Condition Record--><g id="link_Instrument_Instrument Condition Record"><path codeLine="60" d="M2113.9,505.04 C2138.16,557.11 2172.34,654.78 2120.67,711 C2067.1,769.29 1840.45,715.02 1765.67,741 C1748.41,747 1731.21,755.75 1715.18,765.44 " fill="none" id="Instrument-backto-Instrument Condition Record" style="stroke:#181818;stroke-width:1.0;"/><polygon fill="#181818" points="2108.16,493.14,2107.1673,500.2824,2113.3785,503.9459,2114.3712,496.8035,2108.16,493.14" style="stroke:#181818;stroke-width:1.0;"/><text fill="#000000" font-family="sans-serif" font-size="13" lengthAdjust="spacing" textLength="70" x="2132.67" y="707.0669">instrument</text></g><!--reverse link User to Instrument Condition Record--><g id="link_User_Instrument Condition Record"><path codeLine="61" d="M1652.85,498.82 C1705.02,536.53 1790.09,608.04 1824.67,694 C1837.18,725.1 1794.64,724.13 1765.67,741 C1752.63,748.6 1739.12,756.94 1725.92,765.38 " fill="none" id="User-backto-Instrument Condition Record" style="stroke:#181818;stroke-width:1.0;"/><polygon fill="#181818" points="1641.93,491.07,1644.5055,497.8055,1651.7135,498.0186,1649.138,491.2832,1641.93,491.07" style="stroke:#181818;stroke-width:1.0;"/><text fill="#000000" font-family="sans-serif" font-size="13" lengthAdjust="spacing" textLength="79" x="1827.67" y="707.0669">recorded_by</text></g><!--reverse link event_type to Document History--><g id="link_event_type_Document History"><path codeLine="75" d="M1959.46,506.29 C1967.14,559.75 1972.07,658.96 1915.67,711 C1847.55,773.85 1588.1,713.24 1499.67,741 C1492.4,743.28 1485.1,745.98 1477.87,749 " fill="none" id="event_type-backto-Document History" style="stroke:#181818;stroke-width:1.0;"/><polygon fill="#181818" points="1957.38,493.12,1954.3651,499.6706,1959.2522,504.973,1962.2671,498.4224,1957.38,493.12" style="stroke:#181818;stroke-width:1.0;"/><text fill="#000000" font-family="sans-serif" font-size="13" lengthAdjust="spacing" textLength="133" x="1929.67" y="707.0669">reference_document</text></g><!--reverse link User to Document History--><g id="link_User_Document History"><path codeLine="76" d="M1639.79,503.38 C1681.52,553.74 1746.17,649.76 1693.67,711 C1665.28,744.12 1540.72,726.25 1499.67,741 C1493.06,743.38 1486.41,746.06 1479.8,748.97 " fill="none" id="User-backto-Document History" style="stroke:#181818;stroke-width:1.0;"/><polygon fill="#181818" points="1631.28,493.36,1632.1178,500.5223,1639.0514,502.5036,1638.2136,495.3413,1631.28,493.36" style="stroke:#181818;stroke-width:1.0;"/><text fill="#000000" font-family="sans-serif" font-size="13" lengthAdjust="spacing" textLength="89" x="1704.67" y="707.0669">performed_by</text></g><!--reverse link User to Consent Log--><g id="link_User_Consent Log"><path codeLine="86" d="M1611.5,506.5 C1612.01,561.94 1603.52,665.68 1537.67,711 C1476.46,753.12 1274.42,715.41 1204.67,741 C1183.87,748.63 1163.33,760.65 1145.11,773.38 " fill="none" id="User-backto-Consent Log" style="stroke:#181818;stroke-width:1.0;"/><polygon fill="#181818" points="1611.2,493.2,1607.3396,499.2908,1611.4772,505.1968,1615.3375,499.106,1611.2,493.2" style="stroke:#181818;stroke-width:1.0;"/><text fill="#000000" font-family="sans-serif" font-size="13" lengthAdjust="spacing" textLength="114" x="1553.67" y="707.0669">consent_given_by</text></g><!--reverse link Instrument Profile to Warranty Modification Log--><g id="link_Instrument Profile_Warranty Modification Log"><path codeLine="93" d="M949.71,550.48 C997.33,587.72 1045.93,636.52 1071.67,694 C1101.56,760.73 1004.34,718.15 955.67,741 C949.88,743.72 944.08,746.72 938.32,749.94 " fill="none" id="Instrument Profile-backto-Warranty Modification Log" style="stroke:#181818;stroke-width:1.0;"/><polygon fill="#181818" points="939.25,542.47,941.5797,549.2944,948.7752,549.7687,946.4455,542.9443,939.25,542.47" style="stroke:#181818;stroke-width:1.0;"/><text fill="#000000" font-family="sans-serif" font-size="13" lengthAdjust="spacing" textLength="116" x="1077.67" y="707.0669">instrument_profile</text></g><!--reverse link User to Warranty Modification Log--><g id="link_User_Warranty Modification Log"><path codeLine="94" d="M1610.81,506.29 C1610.12,549.67 1602.16,621.72 1560.67,664 C1525.18,700.17 1497.78,675.33 1450.67,694 C1435.7,699.93 1434.16,706.6 1418.67,711 C1220.29,767.3 1149.74,671.3 955.67,741 C949.89,743.07 944.15,745.51 938.48,748.22 " fill="none" id="User-backto-Warranty Modification Log" style="stroke:#181818;stroke-width:1.0;"/><polygon fill="#181818" points="1610.81,493.28,1606.81,499.28,1610.81,505.28,1614.81,499.28,1610.81,493.28" style="stroke:#181818;stroke-width:1.0;"/><text fill="#000000" font-family="sans-serif" font-size="13" lengthAdjust="spacing" textLength="77" x="1451.67" y="707.0669">modified_by</text></g><!--reverse link Pad Condition to Repair Log--><g id="link_Pad Condition_Repair Log"><path codeLine="105" d="M1458.67,210.47 C1458.67,276.67 1458.67,374.36 1458.67,428.4 " fill="none" id="Pad Condition-backto-Repair Log" style="stroke:#181818;stroke-width:1.0;"/><polygon fill="#181818" points="1458.67,197.26,1454.67,203.26,1458.67,209.26,1462.67,203.26,1458.67,197.26" style="stroke:#181818;stroke-width:1.0;"/><text fill="#000000" font-family="sans-serif" font-size="13" lengthAdjust="spacing" textLength="96" x="1459.67" y="240.0669">pad_conditions</text></g><!--reverse link Customer to Instrument Profile--><g id="link_Customer_Instrument Profile"><path codeLine="110" d="M646.43,171.28 C670.39,185.54 696.75,204.45 715.67,227 C727.7,241.33 738.57,257.26 748.34,273.89 " fill="none" id="Customer-backto-Instrument Profile" style="stroke:#181818;stroke-width:1.0;"/><polygon fill="#181818" points="634.9,164.67,638.1117,171.1264,645.3067,170.645,642.095,164.1886,634.9,164.67" style="stroke:#181818;stroke-width:1.0;"/><text fill="#000000" font-family="sans-serif" font-size="13" lengthAdjust="spacing" textLength="38" x="729.67" y="240.0669">owner</text></g><!--reverse link Customer to Instrument Profile--><g id="link_Customer_Instrument Profile"><path codeLine="113" d="M568.4,176.96 C560.52,197.26 555.06,222.83 564.67,244 C593.34,307.19 649.63,359.56 702.13,397.74 " fill="none" id="Customer-backto-Instrument Profile-1" style="stroke:#181818;stroke-width:1.0;"/><polygon fill="#181818" points="573.66,164.78,567.6091,168.7026,568.9028,175.7967,574.9536,171.8741,573.66,164.78" style="stroke:#181818;stroke-width:1.0;"/><text fill="#000000" font-family="sans-serif" font-size="13" lengthAdjust="spacing" textLength="141" x="565.67" y="240.0669">ownership_transfer_to</text></g><!--reverse link Customer External Work Log to Instrument Profile--><g id="link_Customer External Work Log_Instrument Profile"><path codeLine="111" d="M381.61,750.77 C388.9,747.13 396.29,743.82 403.67,741 C493.79,706.55 534.28,757.76 618.67,711 C649.35,694 677.36,670.35 702.1,644.47 " fill="none" id="Customer External Work Log-backto-Instrument Profile" style="stroke:#181818;stroke-width:1.0;"/><polygon fill="#181818" points="369.85,756.97,377.0227,757.713,380.4673,751.3778,373.2946,750.6348,369.85,756.97" style="stroke:#181818;stroke-width:1.0;"/><text fill="#000000" font-family="sans-serif" font-size="13" lengthAdjust="spacing" textLength="121" x="640.67" y="707.0669">external_work_logs</text></g><!--reverse link Instrument Profile to Customer External Work Log--><g id="link_Instrument Profile_Customer External Work Log"><path codeLine="173" d="M690.77,561.78 C623.25,608.25 538.71,664.51 460.67,711 C436.07,725.65 428.25,726.33 403.67,741 C395.2,746.05 386.52,751.43 377.86,756.93 " fill="none" id="Instrument Profile-backto-Customer External Work Log" style="stroke:#181818;stroke-width:1.0;"/><polygon fill="#181818" points="701.89,554.11,694.6797,554.2199,692.008,560.9179,699.2183,560.8079,701.89,554.11" style="stroke:#181818;stroke-width:1.0;"/><text fill="#000000" font-family="sans-serif" font-size="13" lengthAdjust="spacing" textLength="116" x="480.67" y="707.0669">instrument_profile</text></g><!--reverse link Image Log Entry to Instrument Profile--><g id="link_Image Log Entry_Instrument Profile"><path codeLine="112" d="M425.18,177.71 C423.87,198.57 425.55,224.44 437.67,244 C496.92,339.59 613.16,399.01 702.12,432.42 " fill="none" id="Image Log Entry-backto-Instrument Profile" style="stroke:#181818;stroke-width:1.0;"/><polygon fill="#181818" points="426.43,164.53,421.8809,170.1252,425.296,176.4763,429.8451,170.8811,426.43,164.53" style="stroke:#181818;stroke-width:1.0;"/><text fill="#000000" font-family="sans-serif" font-size="13" lengthAdjust="spacing" textLength="112" x="438.67" y="240.0669">condition_images</text></g><!--reverse link Consent Log Entry to Instrument Profile--><g id="link_Consent Log Entry_Instrument Profile"><path codeLine="114" d="M1191.25,189.21 C1125.32,238.81 1020.59,317.6 939.26,378.78 " fill="none" id="Consent Log Entry-backto-Instrument Profile" style="stroke:#181818;stroke-width:1.0;"/><polygon fill="#181818" points="1201.89,181.21,1194.6906,181.6211,1192.3011,188.4248,1199.5005,188.0137,1201.89,181.21" style="stroke:#181818;stroke-width:1.0;"/><text fill="#000000" font-family="sans-serif" font-size="13" lengthAdjust="spacing" textLength="77" x="1138.67" y="240.0669">consent_log</text></g><!--reverse link Instrument Document History to Instrument Profile--><g id="link_Instrument Document History_Instrument Profile"><path codeLine="115" d="M647.39,759.12 C659.41,752.57 671.66,746.38 683.67,741 C725.24,722.37 751.73,745.33 781.67,711 C793.72,697.18 802.81,681.16 809.59,664.06 " fill="none" id="Instrument Document History-backto-Instrument Profile" style="stroke:#181818;stroke-width:1.0;"/><polygon fill="#181818" points="635.95,765.49,643.1383,766.0636,646.4324,759.6489,639.2442,759.0753,635.95,765.49" style="stroke:#181818;stroke-width:1.0;"/><text fill="#000000" font-family="sans-serif" font-size="13" lengthAdjust="spacing" textLength="115" x="793.67" y="707.0669">document_history</text></g><!--reverse link Instrument Profile to Instrument Document History--><g id="link_Instrument Profile_Instrument Document History"><path codeLine="164" d="M935.06,677.33 C932.36,689.27 926.81,700.62 917.67,711 C883.04,750.36 733.16,723.69 683.67,741 C665.74,747.27 647.64,755.97 630.6,765.47 " fill="none" id="Instrument Profile-backto-Instrument Document History" style="stroke:#181818;stroke-width:1.0;"/><polygon fill="#181818" points="936.91,664.16,932.1176,669.5482,935.248,676.0444,940.0405,670.6562,936.91,664.16" style="stroke:#181818;stroke-width:1.0;"/><text fill="#000000" font-family="sans-serif" font-size="13" lengthAdjust="spacing" textLength="91" x="929.67" y="707.0669">reference_doc</text></g><!--reverse link Workflow State to Instrument Profile--><g id="link_Workflow State_Instrument Profile"><path codeLine="116" d="M969.72,176.59 C957.13,201.21 939.19,236.28 920.1,273.61 " fill="none" id="Workflow State-backto-Instrument Profile" style="stroke:#181818;stroke-width:1.0;"/><polygon fill="#181818" points="975.79,164.72,969.4942,168.236,970.3182,175.3999,976.6141,171.8839,975.79,164.72" style="stroke:#181818;stroke-width:1.0;"/><text fill="#000000" font-family="sans-serif" font-size="13" lengthAdjust="spacing" textLength="93" x="943.67" y="240.0669">workflow_state</text></g><!--reverse link Player Profile to Instrument Profile--><g id="link_Player Profile_Instrument Profile"><path codeLine="117" d="M825.11,177.96 C824.74,202.5 824.21,236.96 823.65,273.61 " fill="none" id="Player Profile-backto-Instrument Profile" style="stroke:#181818;stroke-width:1.0;"/><polygon fill="#181818" points="825.31,164.72,821.2181,170.6577,825.1252,176.7186,829.2171,170.7809,825.31,164.72" style="stroke:#181818;stroke-width:1.0;"/><text fill="#000000" font-family="sans-serif" font-size="13" lengthAdjust="spacing" textLength="85" x="824.67" y="240.0669">player_profile</text></g><!--reverse link Supplier to Instrument Intake Batch--><g id="link_Supplier_Instrument Intake Batch"><path codeLine="141" d="M253.5,174.97 C242.16,190.16 229.58,208.78 220.67,227 C194.18,281.16 174.77,346.81 162.49,395.91 " fill="none" id="Supplier-backto-Instrument Intake Batch" style="stroke:#181818;stroke-width:1.0;"/><polygon fill="#181818" points="261.47,164.56,254.6461,166.8911,254.1733,174.0867,260.9972,171.7556,261.47,164.56" style="stroke:#181818;stroke-width:1.0;"/><text fill="#000000" font-family="sans-serif" font-size="13" lengthAdjust="spacing" textLength="50" x="221.67" y="240.0669">supplier</text></g><!--reverse link Intake Entry to Instrument Intake Batch--><g id="link_Intake Entry_Instrument Intake Batch"><path codeLine="142" d="M126.96,210.19 C127.45,221.49 128.02,233.08 128.67,244 C131.7,294.82 136.32,352.04 140.12,395.92 " fill="none" id="Intake Entry-backto-Instrument Intake Batch" style="stroke:#181818;stroke-width:1.0;"/><polygon fill="#181818" points="126.42,197.11,122.6741,203.2718,126.9212,209.0995,130.6671,202.9377,126.42,197.11" style="stroke:#181818;stroke-width:1.0;"/><text fill="#000000" font-family="sans-serif" font-size="13" lengthAdjust="spacing" textLength="44" x="129.67" y="240.0669">entries</text></g><!--reverse link User to Instrument Document History--><g id="link_User_Instrument Document History"><path codeLine="165" d="M1611.91,506.13 C1612.49,550.56 1605.96,624.88 1560.67,664 C1510.8,707.07 1330.47,682.04 1265.67,694 C1237.15,699.26 1231.29,706.31 1202.67,711 C986.91,746.33 922.62,683.57 711.67,741 C690.05,746.89 667.99,755.65 647.17,765.41 " fill="none" id="User-backto-Instrument Document History" style="stroke:#181818;stroke-width:1.0;"/><polygon fill="#181818" points="1611.52,493.11,1607.693,499.2218,1611.8627,505.1051,1615.6897,498.9933,1611.52,493.11" style="stroke:#181818;stroke-width:1.0;"/><text fill="#000000" font-family="sans-serif" font-size="13" lengthAdjust="spacing" textLength="28" x="1266.67" y="707.0669">user</text></g><!--reverse link Customer to Client Instrument Profile--><g id="link_Customer_Client Instrument Profile"><path codeLine="182" d="M553.45,173.36 C543.21,181.93 531.5,190.6 519.67,197 C479.98,218.47 454.57,195.09 422.67,227 C278.95,370.76 417.78,507.82 287.67,664 C284.06,668.33 202.84,708.74 197.67,711 C161.35,726.88 136.51,708.6 113.67,741 C61.92,814.44 78.55,915.71 106.33,995.82 " fill="none" id="Customer-backto-Client Instrument Profile" style="stroke:#181818;stroke-width:1.0;"/><polygon fill="#181818" points="563.53,164.55,556.3796,165.4833,554.4909,172.4427,561.6414,171.5094,563.53,164.55" style="stroke:#181818;stroke-width:1.0;"/><text fill="#000000" font-family="sans-serif" font-size="13" lengthAdjust="spacing" textLength="38" x="231.67" y="707.0669">owner</text></g><!--reverse link Customer to Client Instrument Profile--><g id="link_Customer_Client Instrument Profile"><path codeLine="185" d="M571.49,176.83 C523.75,287.57 377.78,622.98 343.67,664 C332.16,677.84 294.13,703.69 277.67,711 C221.1,736.12 180.44,692.75 141.67,741 C110.97,779.21 123.68,899.8 140.12,995.76 " fill="none" id="Customer-backto-Client Instrument Profile-1" style="stroke:#181818;stroke-width:1.0;"/><polygon fill="#181818" points="576.69,164.76,570.6471,168.6948,571.955,175.7863,577.9979,171.8515,576.69,164.76" style="stroke:#181818;stroke-width:1.0;"/><text fill="#000000" font-family="sans-serif" font-size="13" lengthAdjust="spacing" textLength="141" x="306.67" y="707.0669">ownership_transfer_to</text></g><!--reverse link Customer External Work Log to Client Instrument Profile--><g id="link_Customer External Work Log_Client Instrument Profile"><path codeLine="183" d="M242.13,915.71 C233.1,940.75 223.01,968.74 213.22,995.9 " fill="none" id="Customer External Work Log-backto-Client Instrument Profile" style="stroke:#181818;stroke-width:1.0;"/><polygon fill="#181818" points="246.6,903.3,240.8004,907.5854,242.5256,914.5871,248.3252,910.3017,246.6,903.3" style="stroke:#181818;stroke-width:1.0;"/><text fill="#000000" font-family="sans-serif" font-size="13" lengthAdjust="spacing" textLength="121" x="229.67" y="962.0669">external_work_logs</text></g><!--reverse link Image Log Entry to Client Instrument Profile--><g id="link_Image Log Entry_Client Instrument Profile"><path codeLine="184" d="M383.86,171.88 C351.84,193.12 314.35,219.04 309.67,227 C260.18,311.2 329.8,593.05 262.67,664 C206.03,723.87 135,632.92 79.67,694 C6,775.33 42.5,901.22 88.67,995.98 " fill="none" id="Image Log Entry-backto-Client Instrument Profile" style="stroke:#181818;stroke-width:1.0;"/><polygon fill="#181818" points="394.9,164.6,387.689,164.5626,384.8811,171.2046,392.0921,171.2419,394.9,164.6" style="stroke:#181818;stroke-width:1.0;"/><text fill="#000000" font-family="sans-serif" font-size="13" lengthAdjust="spacing" textLength="112" x="80.67" y="707.0669">condition_images</text></g><!--reverse link Consent Log Entry to Client Instrument Profile--><g id="link_Consent Log Entry_Client Instrument Profile"><path codeLine="186" d="M1268.21,193.76 C1299.55,320.23 1369.28,637.74 1299.67,711 C1254.61,758.42 761.46,698.57 711.67,741 C650.1,793.47 725.63,857 673.67,919 C575.87,1035.68 401.84,1087.01 285.35,1109.07 " fill="none" id="Consent Log Entry-backto-Client Instrument Profile" style="stroke:#181818;stroke-width:1.0;"/><polygon fill="#181818" points="1265.03,181.07,1262.6083,187.8623,1267.9466,192.7102,1270.3684,185.9179,1265.03,181.07" style="stroke:#181818;stroke-width:1.0;"/><text fill="#000000" font-family="sans-serif" font-size="13" lengthAdjust="spacing" textLength="77" x="1310.67" y="707.0669">consent_log</text></g><!--SRC=[xLXBRzms4BxxLn3RMu7qLXGmWW3EEaOCE8XhEysHu4gpAy8IgPBKRhQ5_tk7Uf6KgCSMwAsdNP4pmvcFy_YaaYMlx014GScuegLKXkM_SA6DgWeGXfPAxdaEvFtxEvcde3vy87zV9JdJcco-CswuE92lWZpcx0ngGtww-tNxyUOtb7cBI6rpZZQZKZSgoVWHqkZchMBxkDeJQ9bFgTsZNqeU56WzeSpICxcJYdpJ49NOvb9F6FzQWfWujGFFdbw3zmGMs0bqb6B2dCcpOQRISwAUuMTGHvu0-SoraUgy97ulZlY3WdFc7q6azfwQIo9ENQyCCohs0aacUCAP87-0udkUCCEb8D-bUjKbIs0vL5ELQu5URVLU6FOAv2CpIJPnymCKPgFqn9xWW9UYwYWNOslkV9inSOWR_YO4AoOoS6xlShyx26-PpdQIgNIbyxSsMhwh9kFjCtnHCXgGT-I6_FpkNU33LcBErldq18cqFbyJrxokDbZNQfsMglz1IdVdIAnZ3USYyKv4GmzSlE9QqcjSOmhda1XSJ9a1AlUqEGntRd41rxt3dGKX3MXyV84Vnh-0Ed4_2HEMFI4OAcSv5LMn0zNOPhXSC57jMM8gvQy6nZ62mWw1Qt9Z34ioYphOZa7DkOGMlrkPD27sFSU2jWS58W6Qjhi1v36L4jHUgY80UYpdnzLuOg5h0JEyW7xTUkX3F7R9QfqniNZI8Qkhec3AGlrSi3plGF1TSzU0pvmvQ0X1BF5QgPQLIhoZtuBGCM6qFVj17cpKIVD83pZYX1Tv8EO7FLG84ajtW5WaGb2wtI4itNrx0GUbvRf4xNvVirzawdfs6yoO7GIXp-eMzLfm-pFoyIBhEOcx8sTrkDYOYwGFiXcg3LD1Qbcau1HTj_8u8IFIurK5JDULNrSR0lt8KjT3MfoUQihL0LEobFOzGpk6ucHyC49fMyTibqExKR2I7ZcSSFdpovS7U_wsmi8gOhsml_Th8ay2b9CbdtuOK8BbzLHjV9ZHXbQQdb2QvlAWCR_gjeAQNR-QqU_3eNKpqfSuhJDUKfovGcFnKoEl_C9QTtPTDUXrK1JZnZHZfEitD6k4hpOMjtqkJ_MeX5dbKojgKmzJQDFmwK5LnbNBMhGlnLK4O79Qw6QeUvsZjKl7Epi4FFK6ZKmXTuzUlM8Dma4s3RTJhk_D5Mk9pJHZ6kne15uQl-6ECyjB-67QU5lTEqq_4lImunyzHXe9qFJSbGxcPJJhN3HCI74k-5z0SQ1WI1eOXeVxsmmIlubZC9x3mmpojhYch7r3yipygR0BfE103zF8WpV8aMuT6yDpLPR8T2Cr5ZBaQnoQZUJLW88iwU6Qug0luE0DJtBTrCkauLZhdFAWJrEy2ihxDnuFT6pBoBzQ4BItq_hOu_qMcSynoZKrRMkULu_kBehUugYfwa7ee1E51T0onnb-qbwvZrL_IlT-EBQF6KTJC8pdesgejm9hqmHXjaaEYE4K3OyfLYWPIPN_Z26wn9aWXTOXhruc0PcRcb7Ar6NOZDvQ-gERsnwGa6vrL3Fj-g2bzLrMPxAazaNCvLZRb2chMt9Bgjsxmc1GpxmwhoSPiqRMSurPCukKOpcIzSnZoPEUW5po0M8qHxqq6SpZYO6_CAR_dylU1xAGn0_vEFUua7qEIsXz5F_o-yxb7yeiKLYIVs679P7VrHgftikcpIv-N5edrbczgV2QcmzIeShRFm00]--></g></svg>