<?xml version="1.0" encoding="us-ascii" standalone="no"?><svg xmlns="http://www.w3.org/2000/svg" xmlns:xlink="http://www.w3.org/1999/xlink" contentStyleType="text/css" height="402px" preserveAspectRatio="none" style="width:1006px;height:402px;background:#FFFFFF;" version="1.1" viewBox="0 0 1006 402" width="1006px" zoomAndPan="magnify"><defs/><g><!--cluster repair_portal--><g id="cluster_repair_portal"><path d="M8.5,6 L109.5,6 A3.75,3.75 0 0 1 112,8.5 L119,28.2969 L996.5,28.2969 A2.5,2.5 0 0 1 999,30.7969 L999,392.5 A2.5,2.5 0 0 1 996.5,395 L8.5,395 A2.5,2.5 0 0 1 6,392.5 L6,8.5 A2.5,2.5 0 0 1 8.5,6 " fill="none" style="stroke:#000000;stroke-width:1.5;"/><line style="stroke:#000000;stroke-width:1.5;" x1="6" x2="119" y1="28.2969" y2="28.2969"/><text fill="#000000" font-family="sans-serif" font-size="14" font-weight="bold" lengthAdjust="spacing" textLength="100" x="10" y="20.9951">repair_portal</text></g><!--cluster enhancements--><g id="cluster_enhancements"><path d="M32.5,49 L150.5,49 A3.75,3.75 0 0 1 153,51.5 L160,71.2969 L972.5,71.2969 A2.5,2.5 0 0 1 975,73.7969 L975,368.5 A2.5,2.5 0 0 1 972.5,371 L32.5,371 A2.5,2.5 0 0 1 30,368.5 L30,51.5 A2.5,2.5 0 0 1 32.5,49 " fill="none" style="stroke:#000000;stroke-width:1.5;"/><line style="stroke:#000000;stroke-width:1.5;" x1="30" x2="160" y1="71.2969" y2="71.2969"/><text fill="#000000" font-family="sans-serif" font-size="14" font-weight="bold" lengthAdjust="spacing" textLength="117" x="34" y="63.9951">enhancements</text></g><!--class Top Upgrade Requests--><g id="elem_Top Upgrade Requests"><rect codeLine="2" fill="#A9DFBF" height="48" id="Top Upgrade Requests" rx="2.5" ry="2.5" style="stroke:#181818;stroke-width:0.5;" width="193" x="513.5" y="100.5"/><ellipse cx="528.5" cy="116.5" fill="#ADD1B2" rx="11" ry="11" style="stroke:#181818;stroke-width:1.0;"/><path d="M532.0156,120.5313 L532.0156,122.5625 Q530.5313,123.1719 528.7031,123.1719 Q525.9844,123.1719 524.5313,121.4375 Q523.0781,119.6875 523.0781,116.5781 Q523.0781,113.5781 524.6563,111.7969 Q526.2344,110 528.9531,110 Q530.8594,110 532.5938,110.9219 L531.6406,112.8281 Q530.1406,112.0469 528.9531,112.0469 Q527.3438,112.0469 526.3594,113.2656 Q525.3906,114.4688 525.3906,116.5938 Q525.3906,118.8438 526.2969,119.9844 Q527.2188,121.125 528.9531,121.125 Q529.9844,121.125 532.0156,120.5313 Z " fill="#000000"/><text fill="#000000" font-family="sans-serif" font-size="14" lengthAdjust="spacing" textLength="161" x="542.5" y="121.3467">Top Upgrade Requests</text><line style="stroke:#181818;stroke-width:0.5;" x1="514.5" x2="705.5" y1="132.5" y2="132.5"/><line style="stroke:#181818;stroke-width:0.5;" x1="514.5" x2="705.5" y1="140.5" y2="140.5"/></g><!--class Upgrade Conversion Rates--><g id="elem_Upgrade Conversion Rates"><rect codeLine="4" fill="#A9DFBF" height="48" id="Upgrade Conversion Rates" rx="2.5" ry="2.5" style="stroke:#181818;stroke-width:0.5;" width="217" x="741.5" y="100.5"/><ellipse cx="756.5" cy="116.5" fill="#ADD1B2" rx="11" ry="11" style="stroke:#181818;stroke-width:1.0;"/><path d="M760.0156,120.5313 L760.0156,122.5625 Q758.5313,123.1719 756.7031,123.1719 Q753.9844,123.1719 752.5313,121.4375 Q751.0781,119.6875 751.0781,116.5781 Q751.0781,113.5781 752.6563,111.7969 Q754.2344,110 756.9531,110 Q758.8594,110 760.5938,110.9219 L759.6406,112.8281 Q758.1406,112.0469 756.9531,112.0469 Q755.3438,112.0469 754.3594,113.2656 Q753.3906,114.4688 753.3906,116.5938 Q753.3906,118.8438 754.2969,119.9844 Q755.2188,121.125 756.9531,121.125 Q757.9844,121.125 760.0156,120.5313 Z " fill="#000000"/><text fill="#000000" font-family="sans-serif" font-size="14" lengthAdjust="spacing" textLength="185" x="770.5" y="121.3467">Upgrade Conversion Rates</text><line style="stroke:#181818;stroke-width:0.5;" x1="742.5" x2="957.5" y1="132.5" y2="132.5"/><line style="stroke:#181818;stroke-width:0.5;" x1="742.5" x2="957.5" y1="140.5" y2="140.5"/></g><!--class Upgrade Requests Over Time--><g id="elem_Upgrade Requests Over Time"><rect codeLine="6" fill="#A9DFBF" height="48" id="Upgrade Requests Over Time" rx="2.5" ry="2.5" style="stroke:#181818;stroke-width:0.5;" width="236" x="356" y="274.5"/><ellipse cx="371" cy="290.5" fill="#ADD1B2" rx="11" ry="11" style="stroke:#181818;stroke-width:1.0;"/><path d="M374.5156,294.5313 L374.5156,296.5625 Q373.0313,297.1719 371.2031,297.1719 Q368.4844,297.1719 367.0313,295.4375 Q365.5781,293.6875 365.5781,290.5781 Q365.5781,287.5781 367.1563,285.7969 Q368.7344,284 371.4531,284 Q373.3594,284 375.0938,284.9219 L374.1406,286.8281 Q372.6406,286.0469 371.4531,286.0469 Q369.8438,286.0469 368.8594,287.2656 Q367.8906,288.4688 367.8906,290.5938 Q367.8906,292.8438 368.7969,293.9844 Q369.7188,295.125 371.4531,295.125 Q372.4844,295.125 374.5156,294.5313 Z " fill="#000000"/><text fill="#000000" font-family="sans-serif" font-size="14" lengthAdjust="spacing" textLength="204" x="385" y="295.3467">Upgrade Requests Over Time</text><line style="stroke:#181818;stroke-width:0.5;" x1="357" x2="591" y1="306.5" y2="306.5"/><line style="stroke:#181818;stroke-width:0.5;" x1="357" x2="591" y1="314.5" y2="314.5"/></g><!--class Customer--><g id="elem_Customer"><rect fill="#F1F1F1" height="48" id="Customer" rx="2.5" ry="2.5" style="stroke:#181818;stroke-width:0.5;" width="100" x="378" y="100.5"/><ellipse cx="393" cy="116.5" fill="#ADD1B2" rx="11" ry="11" style="stroke:#181818;stroke-width:1.0;"/><path d="M396.5156,120.5313 L396.5156,122.5625 Q395.0313,123.1719 393.2031,123.1719 Q390.4844,123.1719 389.0313,121.4375 Q387.5781,119.6875 387.5781,116.5781 Q387.5781,113.5781 389.1563,111.7969 Q390.7344,110 393.4531,110 Q395.3594,110 397.0938,110.9219 L396.1406,112.8281 Q394.6406,112.0469 393.4531,112.0469 Q391.8438,112.0469 390.8594,113.2656 Q389.8906,114.4688 389.8906,116.5938 Q389.8906,118.8438 390.7969,119.9844 Q391.7188,121.125 393.4531,121.125 Q394.4844,121.125 396.5156,120.5313 Z " fill="#000000"/><text fill="#000000" font-family="sans-serif" font-size="14" lengthAdjust="spacing" textLength="68" x="407" y="121.3467">Customer</text><line style="stroke:#181818;stroke-width:0.5;" x1="379" x2="477" y1="132.5" y2="132.5"/><line style="stroke:#181818;stroke-width:0.5;" x1="379" x2="477" y1="140.5" y2="140.5"/></g><!--class Customer Upgrade Request--><g id="elem_Customer Upgrade Request"><rect codeLine="11" fill="#A9DFBF" height="113.1875" id="Customer Upgrade Request" rx="2.5" ry="2.5" style="stroke:#181818;stroke-width:0.5;" width="226" x="95" y="242"/><ellipse cx="110" cy="258" fill="#ADD1B2" rx="11" ry="11" style="stroke:#181818;stroke-width:1.0;"/><path d="M113.5156,262.0313 L113.5156,264.0625 Q112.0313,264.6719 110.2031,264.6719 Q107.4844,264.6719 106.0313,262.9375 Q104.5781,261.1875 104.5781,258.0781 Q104.5781,255.0781 106.1563,253.2969 Q107.7344,251.5 110.4531,251.5 Q112.3594,251.5 114.0938,252.4219 L113.1406,254.3281 Q111.6406,253.5469 110.4531,253.5469 Q108.8438,253.5469 107.8594,254.7656 Q106.8906,255.9688 106.8906,258.0938 Q106.8906,260.3438 107.7969,261.4844 Q108.7188,262.625 110.4531,262.625 Q111.4844,262.625 113.5156,262.0313 Z " fill="#000000"/><text fill="#000000" font-family="sans-serif" font-size="14" lengthAdjust="spacing" textLength="194" x="124" y="262.8467">Customer Upgrade Request</text><line style="stroke:#181818;stroke-width:0.5;" x1="96" x2="320" y1="274" y2="274"/><text fill="#000000" font-family="sans-serif" font-size="14" lengthAdjust="spacing" textLength="106" x="101" y="290.9951">customer : Link</text><text fill="#000000" font-family="sans-serif" font-size="14" lengthAdjust="spacing" textLength="112" x="101" y="307.292">item_code : Link</text><text fill="#000000" font-family="sans-serif" font-size="14" lengthAdjust="spacing" textLength="196" x="101" y="323.5889">requested_upgrades : Table</text><text fill="#000000" font-family="sans-serif" font-size="14" lengthAdjust="spacing" textLength="123" x="101" y="339.8857">notes : Small Text</text><line style="stroke:#181818;stroke-width:0.5;" x1="96" x2="320" y1="347.1875" y2="347.1875"/></g><!--class Item--><g id="elem_Item"><rect fill="#F1F1F1" height="48" id="Item" rx="2.5" ry="2.5" style="stroke:#181818;stroke-width:0.5;" width="62" x="281" y="100.5"/><ellipse cx="296" cy="116.5" fill="#ADD1B2" rx="11" ry="11" style="stroke:#181818;stroke-width:1.0;"/><path d="M299.5156,120.5313 L299.5156,122.5625 Q298.0313,123.1719 296.2031,123.1719 Q293.4844,123.1719 292.0313,121.4375 Q290.5781,119.6875 290.5781,116.5781 Q290.5781,113.5781 292.1563,111.7969 Q293.7344,110 296.4531,110 Q298.3594,110 300.0938,110.9219 L299.1406,112.8281 Q297.6406,112.0469 296.4531,112.0469 Q294.8438,112.0469 293.8594,113.2656 Q292.8906,114.4688 292.8906,116.5938 Q292.8906,118.8438 293.7969,119.9844 Q294.7188,121.125 296.4531,121.125 Q297.4844,121.125 299.5156,120.5313 Z " fill="#000000"/><text fill="#000000" font-family="sans-serif" font-size="14" lengthAdjust="spacing" textLength="30" x="310" y="121.3467">Item</text><line style="stroke:#181818;stroke-width:0.5;" x1="282" x2="342" y1="132.5" y2="132.5"/><line style="stroke:#181818;stroke-width:0.5;" x1="282" x2="342" y1="140.5" y2="140.5"/></g><!--class Upgrade Option--><g id="elem_Upgrade Option"><rect codeLine="17" fill="#A9DFBF" height="80.5938" id="Upgrade Option" rx="2.5" ry="2.5" style="stroke:#181818;stroke-width:0.5;" width="199" x="46.5" y="84"/><ellipse cx="87.6" cy="100" fill="#ADD1B2" rx="11" ry="11" style="stroke:#181818;stroke-width:1.0;"/><path d="M91.1156,104.0313 L91.1156,106.0625 Q89.6313,106.6719 87.8031,106.6719 Q85.0844,106.6719 83.6313,104.9375 Q82.1781,103.1875 82.1781,100.0781 Q82.1781,97.0781 83.7563,95.2969 Q85.3344,93.5 88.0531,93.5 Q89.9594,93.5 91.6938,94.4219 L90.7406,96.3281 Q89.2406,95.5469 88.0531,95.5469 Q86.4438,95.5469 85.4594,96.7656 Q84.4906,97.9688 84.4906,100.0938 Q84.4906,102.3438 85.3969,103.4844 Q86.3188,104.625 88.0531,104.625 Q89.0844,104.625 91.1156,104.0313 Z " fill="#000000"/><text fill="#000000" font-family="sans-serif" font-size="14" lengthAdjust="spacing" textLength="109" x="107.4" y="104.8467">Upgrade Option</text><line style="stroke:#181818;stroke-width:0.5;" x1="47.5" x2="244.5" y1="116" y2="116"/><text fill="#000000" font-family="sans-serif" font-size="14" lengthAdjust="spacing" textLength="187" x="52.5" y="132.9951">upgrade_description : Data</text><text fill="#000000" font-family="sans-serif" font-size="14" lengthAdjust="spacing" textLength="123" x="52.5" y="149.292">notes : Small Text</text><line style="stroke:#181818;stroke-width:0.5;" x1="47.5" x2="244.5" y1="156.5938" y2="156.5938"/></g><!--class Customer Upgrade Request Auto Validation--><g id="elem_Customer Upgrade Request Auto Validation"><rect codeLine="21" fill="#A9DFBF" height="48" id="Customer Upgrade Request Auto Validation" rx="2.5" ry="2.5" style="stroke:#181818;stroke-width:0.5;" width="332" x="627" y="274.5"/><ellipse cx="642" cy="290.5" fill="#ADD1B2" rx="11" ry="11" style="stroke:#181818;stroke-width:1.0;"/><path d="M645.5156,294.5313 L645.5156,296.5625 Q644.0313,297.1719 642.2031,297.1719 Q639.4844,297.1719 638.0313,295.4375 Q636.5781,293.6875 636.5781,290.5781 Q636.5781,287.5781 638.1563,285.7969 Q639.7344,284 642.4531,284 Q644.3594,284 646.0938,284.9219 L645.1406,286.8281 Q643.6406,286.0469 642.4531,286.0469 Q640.8438,286.0469 639.8594,287.2656 Q638.8906,288.4688 638.8906,290.5938 Q638.8906,292.8438 639.7969,293.9844 Q640.7188,295.125 642.4531,295.125 Q643.4844,295.125 645.5156,294.5313 Z " fill="#000000"/><text fill="#000000" font-family="sans-serif" font-size="14" lengthAdjust="spacing" textLength="300" x="656" y="295.3467">Customer Upgrade Request Auto Validation</text><line style="stroke:#181818;stroke-width:0.5;" x1="628" x2="958" y1="306.5" y2="306.5"/><line style="stroke:#181818;stroke-width:0.5;" x1="628" x2="958" y1="314.5" y2="314.5"/></g><!--reverse link Customer to Customer Upgrade Request--><g id="link_Customer_Customer Upgrade Request"><path codeLine="8" d="M405.98,159.58 C393.81,176.68 377.61,196.91 360,212 C347.47,222.74 333.39,232.78 318.98,241.93 " fill="none" id="Customer-backto-Customer Upgrade Request" style="stroke:#181818;stroke-width:1.0;"/><polygon fill="#181818" points="413.37,148.87,406.6697,151.5356,406.5532,158.7458,413.2535,156.0802,413.37,148.87" style="stroke:#181818;stroke-width:1.0;"/><text fill="#000000" font-family="sans-serif" font-size="13" lengthAdjust="spacing" textLength="61" x="378" y="208.0669">customer</text></g><!--reverse link Item to Customer Upgrade Request--><g id="link_Item_Customer Upgrade Request"><path codeLine="9" d="M299.3,160.85 C292.92,176.93 284.52,195.92 275,212 C269.04,222.06 262.04,232.26 254.85,241.95 " fill="none" id="Item-backto-Customer Upgrade Request" style="stroke:#181818;stroke-width:1.0;"/><polygon fill="#181818" points="303.97,148.69,298.0867,152.8597,299.6729,159.8942,305.5562,155.7245,303.97,148.69" style="stroke:#181818;stroke-width:1.0;"/><text fill="#000000" font-family="sans-serif" font-size="13" lengthAdjust="spacing" textLength="67" x="284" y="208.0669">item_code</text></g><!--reverse link Upgrade Option to Customer Upgrade Request--><g id="link_Upgrade Option_Customer Upgrade Request"><path codeLine="10" d="M133.09,178.22 C132.34,189.59 133.17,201.38 137,212 C140.74,222.34 146.33,232.32 152.76,241.58 " fill="none" id="Upgrade Option-backto-Customer Upgrade Request" style="stroke:#181818;stroke-width:1.0;"/><polygon fill="#181818" points="134.61,165.15,129.9445,170.6484,133.2255,177.0699,137.891,171.5714,134.61,165.15" style="stroke:#181818;stroke-width:1.0;"/><text fill="#000000" font-family="sans-serif" font-size="13" lengthAdjust="spacing" textLength="132" x="138" y="208.0669">requested_upgrades</text></g><!--SRC=[ZL1DQm8n4BtlhnZYhM3l5H6iib0e27RRwp9D1XlCLvFPKYZxtnlKhArYwoqpxsFUIq2vnGr1f80wji57HdDBxWsT94kE4qodjJUAucm6NvKqc1A8nWTu3fk8Yc1DxnqbJW96yxjbVLzdMb-8XRJmxeDYqjx16fd-9XT7M6KDDDhIRxfOT8czfIZWPZo6OJoD9602ye1Lue79NY7GcTPAhwWQygm2v-1NQEF-IQhjzc0grIwhZiLW29kj7hNRvisGvhWwFvAn1byDPT1vtirF5es1XZxv_7jBdP-N3rPjTfDHxmZPPOcC_vXUAWRpZZsyeD4AJy_rLVyD]--></g></svg>