<?xml version="1.0" encoding="us-ascii" standalone="no"?><svg xmlns="http://www.w3.org/2000/svg" xmlns:xlink="http://www.w3.org/1999/xlink" contentStyleType="text/css" height="788px" preserveAspectRatio="none" style="width:1666px;height:788px;background:#FFFFFF;" version="1.1" viewBox="0 0 1666 788" width="1666px" zoomAndPan="magnify"><defs/><g><!--cluster repair_portal--><g id="cluster_repair_portal"><path d="M8.5,6 L109.5,6 A3.75,3.75 0 0 1 112,8.5 L119,28.2969 L1656.5,28.2969 A2.5,2.5 0 0 1 1659,30.7969 L1659,778.5 A2.5,2.5 0 0 1 1656.5,781 L8.5,781 A2.5,2.5 0 0 1 6,778.5 L6,8.5 A2.5,2.5 0 0 1 8.5,6 " fill="none" style="stroke:#000000;stroke-width:1.5;"/><line style="stroke:#000000;stroke-width:1.5;" x1="6" x2="119" y1="28.2969" y2="28.2969"/><text fill="#000000" font-family="sans-serif" font-size="14" font-weight="bold" lengthAdjust="spacing" textLength="100" x="10" y="20.9951">repair_portal</text></g><!--cluster client_profile--><g id="cluster_client_profile"><path d="M32.5,49 L134.5,49 A3.75,3.75 0 0 1 137,51.5 L144,71.2969 L1632.5,71.2969 A2.5,2.5 0 0 1 1635,73.7969 L1635,754.5 A2.5,2.5 0 0 1 1632.5,757 L32.5,757 A2.5,2.5 0 0 1 30,754.5 L30,51.5 A2.5,2.5 0 0 1 32.5,49 " fill="none" style="stroke:#000000;stroke-width:1.5;"/><line style="stroke:#000000;stroke-width:1.5;" x1="30" x2="144" y1="71.2969" y2="71.2969"/><text fill="#000000" font-family="sans-serif" font-size="14" font-weight="bold" lengthAdjust="spacing" textLength="101" x="34" y="63.9951">client_profile</text></g><!--class Active--><g id="elem_Active"><rect codeLine="2" fill="#D2B4DE" height="48" id="Active" rx="2.5" ry="2.5" style="stroke:#181818;stroke-width:0.5;" width="73" x="1197.5" y="133"/><ellipse cx="1212.5" cy="149" fill="#ADD1B2" rx="11" ry="11" style="stroke:#181818;stroke-width:1.0;"/><path d="M1216.0156,153.0313 L1216.0156,155.0625 Q1214.5313,155.6719 1212.7031,155.6719 Q1209.9844,155.6719 1208.5313,153.9375 Q1207.0781,152.1875 1207.0781,149.0781 Q1207.0781,146.0781 1208.6563,144.2969 Q1210.2344,142.5 1212.9531,142.5 Q1214.8594,142.5 1216.5938,143.4219 L1215.6406,145.3281 Q1214.1406,144.5469 1212.9531,144.5469 Q1211.3438,144.5469 1210.3594,145.7656 Q1209.3906,146.9688 1209.3906,149.0938 Q1209.3906,151.3438 1210.2969,152.4844 Q1211.2188,153.625 1212.9531,153.625 Q1213.9844,153.625 1216.0156,153.0313 Z " fill="#000000"/><text fill="#000000" font-family="sans-serif" font-size="14" lengthAdjust="spacing" textLength="41" x="1226.5" y="153.8467">Active</text><line style="stroke:#181818;stroke-width:0.5;" x1="1198.5" x2="1269.5" y1="165" y2="165"/><line style="stroke:#181818;stroke-width:0.5;" x1="1198.5" x2="1269.5" y1="173" y2="173"/></g><!--class Archived--><g id="elem_Archived"><rect codeLine="4" fill="#D2B4DE" height="48" id="Archived" rx="2.5" ry="2.5" style="stroke:#181818;stroke-width:0.5;" width="91" x="1305.5" y="133"/><ellipse cx="1320.5" cy="149" fill="#ADD1B2" rx="11" ry="11" style="stroke:#181818;stroke-width:1.0;"/><path d="M1324.0156,153.0313 L1324.0156,155.0625 Q1322.5313,155.6719 1320.7031,155.6719 Q1317.9844,155.6719 1316.5313,153.9375 Q1315.0781,152.1875 1315.0781,149.0781 Q1315.0781,146.0781 1316.6563,144.2969 Q1318.2344,142.5 1320.9531,142.5 Q1322.8594,142.5 1324.5938,143.4219 L1323.6406,145.3281 Q1322.1406,144.5469 1320.9531,144.5469 Q1319.3438,144.5469 1318.3594,145.7656 Q1317.3906,146.9688 1317.3906,149.0938 Q1317.3906,151.3438 1318.2969,152.4844 Q1319.2188,153.625 1320.9531,153.625 Q1321.9844,153.625 1324.0156,153.0313 Z " fill="#000000"/><text fill="#000000" font-family="sans-serif" font-size="14" lengthAdjust="spacing" textLength="59" x="1334.5" y="153.8467">Archived</text><line style="stroke:#181818;stroke-width:0.5;" x1="1306.5" x2="1395.5" y1="165" y2="165"/><line style="stroke:#181818;stroke-width:0.5;" x1="1306.5" x2="1395.5" y1="173" y2="173"/></g><!--class Draft--><g id="elem_Draft"><rect codeLine="6" fill="#D2B4DE" height="48" id="Draft" rx="2.5" ry="2.5" style="stroke:#181818;stroke-width:0.5;" width="65" x="1431.5" y="133"/><ellipse cx="1446.5" cy="149" fill="#ADD1B2" rx="11" ry="11" style="stroke:#181818;stroke-width:1.0;"/><path d="M1450.0156,153.0313 L1450.0156,155.0625 Q1448.5313,155.6719 1446.7031,155.6719 Q1443.9844,155.6719 1442.5313,153.9375 Q1441.0781,152.1875 1441.0781,149.0781 Q1441.0781,146.0781 1442.6563,144.2969 Q1444.2344,142.5 1446.9531,142.5 Q1448.8594,142.5 1450.5938,143.4219 L1449.6406,145.3281 Q1448.1406,144.5469 1446.9531,144.5469 Q1445.3438,144.5469 1444.3594,145.7656 Q1443.3906,146.9688 1443.3906,149.0938 Q1443.3906,151.3438 1444.2969,152.4844 Q1445.2188,153.625 1446.9531,153.625 Q1447.9844,153.625 1450.0156,153.0313 Z " fill="#000000"/><text fill="#000000" font-family="sans-serif" font-size="14" lengthAdjust="spacing" textLength="33" x="1460.5" y="153.8467">Draft</text><line style="stroke:#181818;stroke-width:0.5;" x1="1432.5" x2="1495.5" y1="165" y2="165"/><line style="stroke:#181818;stroke-width:0.5;" x1="1432.5" x2="1495.5" y1="173" y2="173"/></g><!--class Deleted--><g id="elem_Deleted"><rect codeLine="8" fill="#D2B4DE" height="48" id="Deleted" rx="2.5" ry="2.5" style="stroke:#181818;stroke-width:0.5;" width="87" x="1531.5" y="133"/><ellipse cx="1546.5" cy="149" fill="#ADD1B2" rx="11" ry="11" style="stroke:#181818;stroke-width:1.0;"/><path d="M1550.0156,153.0313 L1550.0156,155.0625 Q1548.5313,155.6719 1546.7031,155.6719 Q1543.9844,155.6719 1542.5313,153.9375 Q1541.0781,152.1875 1541.0781,149.0781 Q1541.0781,146.0781 1542.6563,144.2969 Q1544.2344,142.5 1546.9531,142.5 Q1548.8594,142.5 1550.5938,143.4219 L1549.6406,145.3281 Q1548.1406,144.5469 1546.9531,144.5469 Q1545.3438,144.5469 1544.3594,145.7656 Q1543.3906,146.9688 1543.3906,149.0938 Q1543.3906,151.3438 1544.2969,152.4844 Q1545.2188,153.625 1546.9531,153.625 Q1547.9844,153.625 1550.0156,153.0313 Z " fill="#000000"/><text fill="#000000" font-family="sans-serif" font-size="14" lengthAdjust="spacing" textLength="55" x="1560.5" y="153.8467">Deleted</text><line style="stroke:#181818;stroke-width:0.5;" x1="1532.5" x2="1617.5" y1="165" y2="165"/><line style="stroke:#181818;stroke-width:0.5;" x1="1532.5" x2="1617.5" y1="173" y2="173"/></g><!--class Client Profile--><g id="elem_Client Profile"><rect codeLine="46" fill="#D2B4DE" height="292.4531" id="Client Profile" rx="2.5" ry="2.5" style="stroke:#181818;stroke-width:0.5;" width="265" x="383.5" y="307"/><ellipse cx="469.25" cy="323" fill="#ADD1B2" rx="11" ry="11" style="stroke:#181818;stroke-width:1.0;"/><path d="M472.7656,327.0313 L472.7656,329.0625 Q471.2813,329.6719 469.4531,329.6719 Q466.7344,329.6719 465.2813,327.9375 Q463.8281,326.1875 463.8281,323.0781 Q463.8281,320.0781 465.4063,318.2969 Q466.9844,316.5 469.7031,316.5 Q471.6094,316.5 473.3438,317.4219 L472.3906,319.3281 Q470.8906,318.5469 469.7031,318.5469 Q468.0938,318.5469 467.1094,319.7656 Q466.1406,320.9688 466.1406,323.0938 Q466.1406,325.3438 467.0469,326.4844 Q467.9688,327.625 469.7031,327.625 Q470.7344,327.625 472.7656,327.0313 Z " fill="#000000"/><text fill="#000000" font-family="sans-serif" font-size="14" lengthAdjust="spacing" textLength="85" x="489.75" y="327.8467">Client Profile</text><line style="stroke:#181818;stroke-width:0.5;" x1="384.5" x2="647.5" y1="339" y2="339"/><text fill="#000000" font-family="sans-serif" font-size="14" lengthAdjust="spacing" textLength="145" x="389.5" y="355.9951">naming_series : Data</text><text fill="#000000" font-family="sans-serif" font-size="14" lengthAdjust="spacing" textLength="177" x="389.5" y="372.292">client_profile_name : Data</text><text fill="#000000" font-family="sans-serif" font-size="14" lengthAdjust="spacing" textLength="238" x="389.5" y="388.5889">client_profile_image : Attach Image</text><text fill="#000000" font-family="sans-serif" font-size="14" lengthAdjust="spacing" textLength="253" x="389.5" y="404.8857">client_profile_description : Small Text</text><text fill="#000000" font-family="sans-serif" font-size="14" lengthAdjust="spacing" textLength="163" x="389.5" y="421.1826">client_profile_type : Link</text><text fill="#000000" font-family="sans-serif" font-size="14" lengthAdjust="spacing" textLength="128" x="389.5" y="437.4795">client_name : Data</text><text fill="#000000" font-family="sans-serif" font-size="14" lengthAdjust="spacing" textLength="106" x="389.5" y="453.7764">customer : Link</text><text fill="#000000" font-family="sans-serif" font-size="14" lengthAdjust="spacing" textLength="81" x="389.5" y="470.0732">email : Data</text><text fill="#000000" font-family="sans-serif" font-size="14" lengthAdjust="spacing" textLength="90" x="389.5" y="486.3701">phone : Data</text><text fill="#000000" font-family="sans-serif" font-size="14" lengthAdjust="spacing" textLength="240" x="389.5" y="502.667">preferred_contact_method : Select</text><text fill="#000000" font-family="sans-serif" font-size="14" lengthAdjust="spacing" textLength="177" x="389.5" y="518.9639">instruments_owned : Link</text><text fill="#000000" font-family="sans-serif" font-size="14" lengthAdjust="spacing" textLength="130" x="389.5" y="535.2607">player_profile : Link</text><text fill="#000000" font-family="sans-serif" font-size="14" lengthAdjust="spacing" textLength="136" x="389.5" y="551.5576">consent_log : Table</text><text fill="#000000" font-family="sans-serif" font-size="14" lengthAdjust="spacing" textLength="205" x="389.5" y="567.8545">technician_notes : Text Editor</text><text fill="#000000" font-family="sans-serif" font-size="14" lengthAdjust="spacing" textLength="132" x="389.5" y="584.1514">profile_status : Link</text><line style="stroke:#181818;stroke-width:0.5;" x1="384.5" x2="647.5" y1="591.4531" y2="591.4531"/></g><!--class Unnamed--><g id="elem_Unnamed"><rect codeLine="12" fill="#D2B4DE" height="48" id="Unnamed" rx="2.5" ry="2.5" style="stroke:#181818;stroke-width:0.5;" width="99" x="933.5" y="429"/><ellipse cx="948.5" cy="445" fill="#ADD1B2" rx="11" ry="11" style="stroke:#181818;stroke-width:1.0;"/><path d="M952.0156,449.0313 L952.0156,451.0625 Q950.5313,451.6719 948.7031,451.6719 Q945.9844,451.6719 944.5313,449.9375 Q943.0781,448.1875 943.0781,445.0781 Q943.0781,442.0781 944.6563,440.2969 Q946.2344,438.5 948.9531,438.5 Q950.8594,438.5 952.5938,439.4219 L951.6406,441.3281 Q950.1406,440.5469 948.9531,440.5469 Q947.3438,440.5469 946.3594,441.7656 Q945.3906,442.9688 945.3906,445.0938 Q945.3906,447.3438 946.2969,448.4844 Q947.2188,449.625 948.9531,449.625 Q949.9844,449.625 952.0156,449.0313 Z " fill="#000000"/><text fill="#000000" font-family="sans-serif" font-size="14" lengthAdjust="spacing" textLength="67" x="962.5" y="449.8467">Unnamed</text><line style="stroke:#181818;stroke-width:0.5;" x1="934.5" x2="1031.5" y1="461" y2="461"/><line style="stroke:#181818;stroke-width:0.5;" x1="934.5" x2="1031.5" y1="469" y2="469"/></g><!--class client-portal--><g id="elem_client-portal"><rect codeLine="14" fill="#D2B4DE" height="48" id="client-portal" rx="2.5" ry="2.5" style="stroke:#181818;stroke-width:0.5;" width="113" x="1067.5" y="429"/><ellipse cx="1082.5" cy="445" fill="#ADD1B2" rx="11" ry="11" style="stroke:#181818;stroke-width:1.0;"/><path d="M1086.0156,449.0313 L1086.0156,451.0625 Q1084.5313,451.6719 1082.7031,451.6719 Q1079.9844,451.6719 1078.5313,449.9375 Q1077.0781,448.1875 1077.0781,445.0781 Q1077.0781,442.0781 1078.6563,440.2969 Q1080.2344,438.5 1082.9531,438.5 Q1084.8594,438.5 1086.5938,439.4219 L1085.6406,441.3281 Q1084.1406,440.5469 1082.9531,440.5469 Q1081.3438,440.5469 1080.3594,441.7656 Q1079.3906,442.9688 1079.3906,445.0938 Q1079.3906,447.3438 1080.2969,448.4844 Q1081.2188,449.625 1082.9531,449.625 Q1083.9844,449.625 1086.0156,449.0313 Z " fill="#000000"/><text fill="#000000" font-family="sans-serif" font-size="14" lengthAdjust="spacing" textLength="81" x="1096.5" y="449.8467">client-portal</text><line style="stroke:#181818;stroke-width:0.5;" x1="1068.5" x2="1179.5" y1="461" y2="461"/><line style="stroke:#181818;stroke-width:0.5;" x1="1068.5" x2="1179.5" y1="469" y2="469"/></g><!--class Client Profile Setup Actions--><g id="elem_Client Profile Setup Actions"><rect codeLine="16" fill="#D2B4DE" height="48" id="Client Profile Setup Actions" rx="2.5" ry="2.5" style="stroke:#181818;stroke-width:0.5;" width="217" x="1215.5" y="429"/><ellipse cx="1230.5" cy="445" fill="#ADD1B2" rx="11" ry="11" style="stroke:#181818;stroke-width:1.0;"/><path d="M1234.0156,449.0313 L1234.0156,451.0625 Q1232.5313,451.6719 1230.7031,451.6719 Q1227.9844,451.6719 1226.5313,449.9375 Q1225.0781,448.1875 1225.0781,445.0781 Q1225.0781,442.0781 1226.6563,440.2969 Q1228.2344,438.5 1230.9531,438.5 Q1232.8594,438.5 1234.5938,439.4219 L1233.6406,441.3281 Q1232.1406,440.5469 1230.9531,440.5469 Q1229.3438,440.5469 1228.3594,441.7656 Q1227.3906,442.9688 1227.3906,445.0938 Q1227.3906,447.3438 1228.2969,448.4844 Q1229.2188,449.625 1230.9531,449.625 Q1231.9844,449.625 1234.0156,449.0313 Z " fill="#000000"/><text fill="#000000" font-family="sans-serif" font-size="14" lengthAdjust="spacing" textLength="185" x="1244.5" y="449.8467">Client Profile Setup Actions</text><line style="stroke:#181818;stroke-width:0.5;" x1="1216.5" x2="1431.5" y1="461" y2="461"/><line style="stroke:#181818;stroke-width:0.5;" x1="1216.5" x2="1431.5" y1="469" y2="469"/></g><!--class Client Dashboard--><g id="elem_Client Dashboard"><rect codeLine="18" fill="#D2B4DE" height="48" id="Client Dashboard" rx="2.5" ry="2.5" style="stroke:#181818;stroke-width:0.5;" width="151" x="1467.5" y="429"/><ellipse cx="1482.5" cy="445" fill="#ADD1B2" rx="11" ry="11" style="stroke:#181818;stroke-width:1.0;"/><path d="M1486.0156,449.0313 L1486.0156,451.0625 Q1484.5313,451.6719 1482.7031,451.6719 Q1479.9844,451.6719 1478.5313,449.9375 Q1477.0781,448.1875 1477.0781,445.0781 Q1477.0781,442.0781 1478.6563,440.2969 Q1480.2344,438.5 1482.9531,438.5 Q1484.8594,438.5 1486.5938,439.4219 L1485.6406,441.3281 Q1484.1406,440.5469 1482.9531,440.5469 Q1481.3438,440.5469 1480.3594,441.7656 Q1479.3906,442.9688 1479.3906,445.0938 Q1479.3906,447.3438 1480.2969,448.4844 Q1481.2188,449.625 1482.9531,449.625 Q1483.9844,449.625 1486.0156,449.0313 Z " fill="#000000"/><text fill="#000000" font-family="sans-serif" font-size="14" lengthAdjust="spacing" textLength="119" x="1496.5" y="449.8467">Client Dashboard</text><line style="stroke:#181818;stroke-width:0.5;" x1="1468.5" x2="1617.5" y1="461" y2="461"/><line style="stroke:#181818;stroke-width:0.5;" x1="1468.5" x2="1617.5" y1="469" y2="469"/></g><!--class Consent Log--><g id="elem_Consent Log"><rect codeLine="20" fill="#D2B4DE" height="96.8906" id="Consent Log" rx="2.5" ry="2.5" style="stroke:#181818;stroke-width:0.5;" width="162" x="746" y="108.5"/><ellipse cx="779.9" cy="124.5" fill="#ADD1B2" rx="11" ry="11" style="stroke:#181818;stroke-width:1.0;"/><path d="M783.4156,128.5313 L783.4156,130.5625 Q781.9313,131.1719 780.1031,131.1719 Q777.3844,131.1719 775.9313,129.4375 Q774.4781,127.6875 774.4781,124.5781 Q774.4781,121.5781 776.0563,119.7969 Q777.6344,118 780.3531,118 Q782.2594,118 783.9938,118.9219 L783.0406,120.8281 Q781.5406,120.0469 780.3531,120.0469 Q778.7438,120.0469 777.7594,121.2656 Q776.7906,122.4688 776.7906,124.5938 Q776.7906,126.8438 777.6969,127.9844 Q778.6188,129.125 780.3531,129.125 Q781.3844,129.125 783.4156,128.5313 Z " fill="#000000"/><text fill="#000000" font-family="sans-serif" font-size="14" lengthAdjust="spacing" textLength="88" x="798.1" y="129.3467">Consent Log</text><line style="stroke:#181818;stroke-width:0.5;" x1="747" x2="907" y1="140.5" y2="140.5"/><text fill="#000000" font-family="sans-serif" font-size="14" lengthAdjust="spacing" textLength="150" x="752" y="157.4951">consent_type : Select</text><text fill="#000000" font-family="sans-serif" font-size="14" lengthAdjust="spacing" textLength="121" x="752" y="173.792">date_given : Date</text><text fill="#000000" font-family="sans-serif" font-size="14" lengthAdjust="spacing" textLength="123" x="752" y="190.0889">notes : Small Text</text><line style="stroke:#181818;stroke-width:0.5;" x1="747" x2="907" y1="197.3906" y2="197.3906"/></g><!--class Client Profile Type--><g id="elem_Client Profile Type"><rect codeLine="25" fill="#D2B4DE" height="145.7813" id="Client Profile Type" rx="2.5" ry="2.5" style="stroke:#181818;stroke-width:0.5;" width="172" x="539" y="84"/><ellipse cx="561.65" cy="100" fill="#ADD1B2" rx="11" ry="11" style="stroke:#181818;stroke-width:1.0;"/><path d="M565.1656,104.0313 L565.1656,106.0625 Q563.6813,106.6719 561.8531,106.6719 Q559.1344,106.6719 557.6813,104.9375 Q556.2281,103.1875 556.2281,100.0781 Q556.2281,97.0781 557.8063,95.2969 Q559.3844,93.5 562.1031,93.5 Q564.0094,93.5 565.7438,94.4219 L564.7906,96.3281 Q563.2906,95.5469 562.1031,95.5469 Q560.4938,95.5469 559.5094,96.7656 Q558.5406,97.9688 558.5406,100.0938 Q558.5406,102.3438 559.4469,103.4844 Q560.3688,104.625 562.1031,104.625 Q563.1344,104.625 565.1656,104.0313 Z " fill="#000000"/><text fill="#000000" font-family="sans-serif" font-size="14" lengthAdjust="spacing" textLength="123" x="577.35" y="104.8467">Client Profile Type</text><line style="stroke:#181818;stroke-width:0.5;" x1="540" x2="710" y1="116" y2="116"/><text fill="#000000" font-family="sans-serif" font-size="14" lengthAdjust="spacing" textLength="145" x="545" y="132.9951">naming_series : Data</text><text fill="#000000" font-family="sans-serif" font-size="14" lengthAdjust="spacing" textLength="121" x="545" y="149.292">type_name : Data</text><text fill="#000000" font-family="sans-serif" font-size="14" lengthAdjust="spacing" textLength="122" x="545" y="165.5889">is_default : Check</text><text fill="#000000" font-family="sans-serif" font-size="14" lengthAdjust="spacing" textLength="145" x="545" y="181.8857">portal_visible : Check</text><text fill="#000000" font-family="sans-serif" font-size="14" lengthAdjust="spacing" textLength="160" x="545" y="198.1826">description : Small Text</text><text fill="#000000" font-family="sans-serif" font-size="14" lengthAdjust="spacing" textLength="83" x="545" y="214.4795">color : Color</text><line style="stroke:#181818;stroke-width:0.5;" x1="540" x2="710" y1="221.7813" y2="221.7813"/></g><!--class User--><g id="elem_User"><rect fill="#F1F1F1" height="48" id="User" rx="2.5" ry="2.5" style="stroke:#181818;stroke-width:0.5;" width="64" x="1098" y="133"/><ellipse cx="1113" cy="149" fill="#ADD1B2" rx="11" ry="11" style="stroke:#181818;stroke-width:1.0;"/><path d="M1116.5156,153.0313 L1116.5156,155.0625 Q1115.0313,155.6719 1113.2031,155.6719 Q1110.4844,155.6719 1109.0313,153.9375 Q1107.5781,152.1875 1107.5781,149.0781 Q1107.5781,146.0781 1109.1563,144.2969 Q1110.7344,142.5 1113.4531,142.5 Q1115.3594,142.5 1117.0938,143.4219 L1116.1406,145.3281 Q1114.6406,144.5469 1113.4531,144.5469 Q1111.8438,144.5469 1110.8594,145.7656 Q1109.8906,146.9688 1109.8906,149.0938 Q1109.8906,151.3438 1110.7969,152.4844 Q1111.7188,153.625 1113.4531,153.625 Q1114.4844,153.625 1116.5156,153.0313 Z " fill="#000000"/><text fill="#000000" font-family="sans-serif" font-size="14" lengthAdjust="spacing" textLength="32" x="1127" y="153.8467">User</text><line style="stroke:#181818;stroke-width:0.5;" x1="1099" x2="1161" y1="165" y2="165"/><line style="stroke:#181818;stroke-width:0.5;" x1="1099" x2="1161" y1="173" y2="173"/></g><!--class Consent Log Entry--><g id="elem_Consent Log Entry"><rect codeLine="34" fill="#D2B4DE" height="113.1875" id="Consent Log Entry" rx="2.5" ry="2.5" style="stroke:#181818;stroke-width:0.5;" width="159" x="739.5" y="396.5"/><ellipse cx="754.5" cy="412.5" fill="#ADD1B2" rx="11" ry="11" style="stroke:#181818;stroke-width:1.0;"/><path d="M758.0156,416.5313 L758.0156,418.5625 Q756.5313,419.1719 754.7031,419.1719 Q751.9844,419.1719 750.5313,417.4375 Q749.0781,415.6875 749.0781,412.5781 Q749.0781,409.5781 750.6563,407.7969 Q752.2344,406 754.9531,406 Q756.8594,406 758.5938,406.9219 L757.6406,408.8281 Q756.1406,408.0469 754.9531,408.0469 Q753.3438,408.0469 752.3594,409.2656 Q751.3906,410.4688 751.3906,412.5938 Q751.3906,414.8438 752.2969,415.9844 Q753.2188,417.125 754.9531,417.125 Q755.9844,417.125 758.0156,416.5313 Z " fill="#000000"/><text fill="#000000" font-family="sans-serif" font-size="14" lengthAdjust="spacing" textLength="127" x="768.5" y="417.3467">Consent Log Entry</text><line style="stroke:#181818;stroke-width:0.5;" x1="740.5" x2="897.5" y1="428.5" y2="428.5"/><text fill="#000000" font-family="sans-serif" font-size="14" lengthAdjust="spacing" textLength="119" x="745.5" y="445.4951">entry_date : Date</text><text fill="#000000" font-family="sans-serif" font-size="14" lengthAdjust="spacing" textLength="110" x="745.5" y="461.792">method : Select</text><text fill="#000000" font-family="sans-serif" font-size="14" lengthAdjust="spacing" textLength="111" x="745.5" y="478.0889">technician : Link</text><text fill="#000000" font-family="sans-serif" font-size="14" lengthAdjust="spacing" textLength="123" x="745.5" y="494.3857">notes : Small Text</text><line style="stroke:#181818;stroke-width:0.5;" x1="740.5" x2="897.5" y1="501.6875" y2="501.6875"/></g><!--class Customer--><g id="elem_Customer"><rect fill="#F1F1F1" height="48" id="Customer" rx="2.5" ry="2.5" style="stroke:#181818;stroke-width:0.5;" width="100" x="235" y="133"/><ellipse cx="250" cy="149" fill="#ADD1B2" rx="11" ry="11" style="stroke:#181818;stroke-width:1.0;"/><path d="M253.5156,153.0313 L253.5156,155.0625 Q252.0313,155.6719 250.2031,155.6719 Q247.4844,155.6719 246.0313,153.9375 Q244.5781,152.1875 244.5781,149.0781 Q244.5781,146.0781 246.1563,144.2969 Q247.7344,142.5 250.4531,142.5 Q252.3594,142.5 254.0938,143.4219 L253.1406,145.3281 Q251.6406,144.5469 250.4531,144.5469 Q248.8438,144.5469 247.8594,145.7656 Q246.8906,146.9688 246.8906,149.0938 Q246.8906,151.3438 247.7969,152.4844 Q248.7188,153.625 250.4531,153.625 Q251.4844,153.625 253.5156,153.0313 Z " fill="#000000"/><text fill="#000000" font-family="sans-serif" font-size="14" lengthAdjust="spacing" textLength="68" x="264" y="153.8467">Customer</text><line style="stroke:#181818;stroke-width:0.5;" x1="236" x2="334" y1="165" y2="165"/><line style="stroke:#181818;stroke-width:0.5;" x1="236" x2="334" y1="173" y2="173"/></g><!--class Instrument Profile--><g id="elem_Instrument Profile"><rect fill="#F1F1F1" height="48" id="Instrument Profile" rx="2.5" ry="2.5" style="stroke:#181818;stroke-width:0.5;" width="153" x="46.5" y="133"/><ellipse cx="61.5" cy="149" fill="#ADD1B2" rx="11" ry="11" style="stroke:#181818;stroke-width:1.0;"/><path d="M65.0156,153.0313 L65.0156,155.0625 Q63.5313,155.6719 61.7031,155.6719 Q58.9844,155.6719 57.5313,153.9375 Q56.0781,152.1875 56.0781,149.0781 Q56.0781,146.0781 57.6563,144.2969 Q59.2344,142.5 61.9531,142.5 Q63.8594,142.5 65.5938,143.4219 L64.6406,145.3281 Q63.1406,144.5469 61.9531,144.5469 Q60.3438,144.5469 59.3594,145.7656 Q58.3906,146.9688 58.3906,149.0938 Q58.3906,151.3438 59.2969,152.4844 Q60.2188,153.625 61.9531,153.625 Q62.9844,153.625 65.0156,153.0313 Z " fill="#000000"/><text fill="#000000" font-family="sans-serif" font-size="14" lengthAdjust="spacing" textLength="121" x="75.5" y="153.8467">Instrument Profile</text><line style="stroke:#181818;stroke-width:0.5;" x1="47.5" x2="198.5" y1="165" y2="165"/><line style="stroke:#181818;stroke-width:0.5;" x1="47.5" x2="198.5" y1="173" y2="173"/></g><!--class Player Profile--><g id="elem_Player Profile"><rect fill="#F1F1F1" height="48" id="Player Profile" rx="2.5" ry="2.5" style="stroke:#181818;stroke-width:0.5;" width="119" x="943.5" y="133"/><ellipse cx="958.5" cy="149" fill="#ADD1B2" rx="11" ry="11" style="stroke:#181818;stroke-width:1.0;"/><path d="M962.0156,153.0313 L962.0156,155.0625 Q960.5313,155.6719 958.7031,155.6719 Q955.9844,155.6719 954.5313,153.9375 Q953.0781,152.1875 953.0781,149.0781 Q953.0781,146.0781 954.6563,144.2969 Q956.2344,142.5 958.9531,142.5 Q960.8594,142.5 962.5938,143.4219 L961.6406,145.3281 Q960.1406,144.5469 958.9531,144.5469 Q957.3438,144.5469 956.3594,145.7656 Q955.3906,146.9688 955.3906,149.0938 Q955.3906,151.3438 956.2969,152.4844 Q957.2188,153.625 958.9531,153.625 Q959.9844,153.625 962.0156,153.0313 Z " fill="#000000"/><text fill="#000000" font-family="sans-serif" font-size="14" lengthAdjust="spacing" textLength="87" x="972.5" y="153.8467">Player Profile</text><line style="stroke:#181818;stroke-width:0.5;" x1="944.5" x2="1061.5" y1="165" y2="165"/><line style="stroke:#181818;stroke-width:0.5;" x1="944.5" x2="1061.5" y1="173" y2="173"/></g><!--class Workflow State--><g id="elem_Workflow State"><rect fill="#F1F1F1" height="48" id="Workflow State" rx="2.5" ry="2.5" style="stroke:#181818;stroke-width:0.5;" width="134" x="370" y="133"/><ellipse cx="385" cy="149" fill="#ADD1B2" rx="11" ry="11" style="stroke:#181818;stroke-width:1.0;"/><path d="M388.5156,153.0313 L388.5156,155.0625 Q387.0313,155.6719 385.2031,155.6719 Q382.4844,155.6719 381.0313,153.9375 Q379.5781,152.1875 379.5781,149.0781 Q379.5781,146.0781 381.1563,144.2969 Q382.7344,142.5 385.4531,142.5 Q387.3594,142.5 389.0938,143.4219 L388.1406,145.3281 Q386.6406,144.5469 385.4531,144.5469 Q383.8438,144.5469 382.8594,145.7656 Q381.8906,146.9688 381.8906,149.0938 Q381.8906,151.3438 382.7969,152.4844 Q383.7188,153.625 385.4531,153.625 Q386.4844,153.625 388.5156,153.0313 Z " fill="#000000"/><text fill="#000000" font-family="sans-serif" font-size="14" lengthAdjust="spacing" textLength="102" x="399" y="153.8467">Workflow State</text><line style="stroke:#181818;stroke-width:0.5;" x1="371" x2="503" y1="165" y2="165"/><line style="stroke:#181818;stroke-width:0.5;" x1="371" x2="503" y1="173" y2="173"/></g><!--class Instruments Owned--><g id="elem_Instruments Owned"><rect codeLine="63" fill="#D2B4DE" height="80.5938" id="Instruments Owned" rx="2.5" ry="2.5" style="stroke:#181818;stroke-width:0.5;" width="199" x="883.5" y="660"/><ellipse cx="912.45" cy="676" fill="#ADD1B2" rx="11" ry="11" style="stroke:#181818;stroke-width:1.0;"/><path d="M915.9656,680.0313 L915.9656,682.0625 Q914.4813,682.6719 912.6531,682.6719 Q909.9344,682.6719 908.4813,680.9375 Q907.0281,679.1875 907.0281,676.0781 Q907.0281,673.0781 908.6063,671.2969 Q910.1844,669.5 912.9031,669.5 Q914.8094,669.5 916.5438,670.4219 L915.5906,672.3281 Q914.0906,671.5469 912.9031,671.5469 Q911.2938,671.5469 910.3094,672.7656 Q909.3406,673.9688 909.3406,676.0938 Q909.3406,678.3438 910.2469,679.4844 Q911.1688,680.625 912.9031,680.625 Q913.9344,680.625 915.9656,680.0313 Z " fill="#000000"/><text fill="#000000" font-family="sans-serif" font-size="14" lengthAdjust="spacing" textLength="136" x="929.55" y="680.8467">Instruments Owned</text><line style="stroke:#181818;stroke-width:0.5;" x1="884.5" x2="1081.5" y1="692" y2="692"/><text fill="#000000" font-family="sans-serif" font-size="14" lengthAdjust="spacing" textLength="187" x="889.5" y="708.9951">instrument_category : Data</text><text fill="#000000" font-family="sans-serif" font-size="14" lengthAdjust="spacing" textLength="142" x="889.5" y="725.292">serial_number : Data</text><line style="stroke:#181818;stroke-width:0.5;" x1="884.5" x2="1081.5" y1="732.5938" y2="732.5938"/></g><!--class Client Profile Workflow--><g id="elem_Client Profile Workflow"><rect codeLine="67" fill="#D2B4DE" height="48" id="Client Profile Workflow" rx="2.5" ry="2.5" style="stroke:#181818;stroke-width:0.5;" width="183" x="1117.5" y="676.5"/><ellipse cx="1132.5" cy="692.5" fill="#ADD1B2" rx="11" ry="11" style="stroke:#181818;stroke-width:1.0;"/><path d="M1136.0156,696.5313 L1136.0156,698.5625 Q1134.5313,699.1719 1132.7031,699.1719 Q1129.9844,699.1719 1128.5313,697.4375 Q1127.0781,695.6875 1127.0781,692.5781 Q1127.0781,689.5781 1128.6563,687.7969 Q1130.2344,686 1132.9531,686 Q1134.8594,686 1136.5938,686.9219 L1135.6406,688.8281 Q1134.1406,688.0469 1132.9531,688.0469 Q1131.3438,688.0469 1130.3594,689.2656 Q1129.3906,690.4688 1129.3906,692.5938 Q1129.3906,694.8438 1130.2969,695.9844 Q1131.2188,697.125 1132.9531,697.125 Q1133.9844,697.125 1136.0156,696.5313 Z " fill="#000000"/><text fill="#000000" font-family="sans-serif" font-size="14" lengthAdjust="spacing" textLength="151" x="1146.5" y="697.3467">Client Profile Workflow</text><line style="stroke:#181818;stroke-width:0.5;" x1="1118.5" x2="1299.5" y1="708.5" y2="708.5"/><line style="stroke:#181818;stroke-width:0.5;" x1="1118.5" x2="1299.5" y1="716.5" y2="716.5"/></g><!--reverse link User to Consent Log Entry--><g id="link_User_Consent Log Entry"><path codeLine="33" d="M1118.73,193.69 C1108.31,220.73 1090.15,256.6 1062,277 C1008.36,315.88 970.97,270.04 916,307 C883.58,328.8 859.2,365.45 842.99,396.45 " fill="none" id="User-backto-Consent Log Entry" style="stroke:#181818;stroke-width:1.0;"/><polygon fill="#181818" points="1123.22,181.23,1117.4204,185.5154,1119.1456,192.5171,1124.9452,188.2317,1123.22,181.23" style="stroke:#181818;stroke-width:1.0;"/><text fill="#000000" font-family="sans-serif" font-size="13" lengthAdjust="spacing" textLength="65" x="1079" y="273.0669">technician</text></g><!--reverse link Client Profile Type to Client Profile--><g id="link_Client Profile Type_Client Profile"><path codeLine="40" d="M593.64,242.59 C586.16,262.77 577.96,284.87 569.79,306.91 " fill="none" id="Client Profile Type-backto-Client Profile" style="stroke:#181818;stroke-width:1.0;"/><polygon fill="#181818" points="598.2,230.3,592.3604,234.5308,594.0198,241.5484,599.8593,237.3176,598.2,230.3" style="stroke:#181818;stroke-width:1.0;"/><text fill="#000000" font-family="sans-serif" font-size="13" lengthAdjust="spacing" textLength="115" x="587" y="273.0669">client_profile_type</text></g><!--reverse link Customer to Client Profile--><g id="link_Customer_Client Profile"><path codeLine="41" d="M311.17,191.31 C333.73,220.02 367.94,263.56 401.98,306.88 " fill="none" id="Customer-backto-Client Profile" style="stroke:#181818;stroke-width:1.0;"/><polygon fill="#181818" points="303.13,181.07,303.6881,188.2595,310.5392,190.5095,309.9811,183.32,303.13,181.07" style="stroke:#181818;stroke-width:1.0;"/><text fill="#000000" font-family="sans-serif" font-size="13" lengthAdjust="spacing" textLength="61" x="374" y="273.0669">customer</text></g><!--reverse link Instrument Profile to Client Profile--><g id="link_Instrument Profile_Client Profile"><path codeLine="42" d="M149.01,191.48 C169.61,216.73 199.99,251.29 231,277 C277.6,315.63 333.51,351.82 383.41,381.15 " fill="none" id="Instrument Profile-backto-Client Profile" style="stroke:#181818;stroke-width:1.0;"/><polygon fill="#181818" points="140.8,181.28,141.442,188.4625,148.3188,190.6324,147.6769,183.4499,140.8,181.28" style="stroke:#181818;stroke-width:1.0;"/><text fill="#000000" font-family="sans-serif" font-size="13" lengthAdjust="spacing" textLength="125" x="232" y="273.0669">instruments_owned</text></g><!--reverse link Player Profile to Client Profile--><g id="link_Player Profile_Client Profile"><path codeLine="43" d="M973.3,190.49 C959.81,203.94 943.06,218.95 926,230 C880.69,259.34 864.59,258.17 814,277 C773.69,292 760.46,287.74 722,307 C697.36,319.34 672.38,334.38 648.7,350.06 " fill="none" id="Player Profile-backto-Client Profile" style="stroke:#181818;stroke-width:1.0;"/><polygon fill="#181818" points="982.52,181.04,975.4682,182.5475,974.1475,189.6366,981.1993,188.1291,982.52,181.04" style="stroke:#181818;stroke-width:1.0;"/><text fill="#000000" font-family="sans-serif" font-size="13" lengthAdjust="spacing" textLength="85" x="865" y="273.0669">player_profile</text></g><!--reverse link Consent Log to Client Profile--><g id="link_Consent Log_Client Profile"><path codeLine="44" d="M772.78,215.16 C753.55,235.02 731.57,257.26 711,277 C691.14,296.05 669.78,315.88 648.73,335.04 " fill="none" id="Consent Log-backto-Client Profile" style="stroke:#181818;stroke-width:1.0;"/><polygon fill="#181818" points="781.98,205.63,774.9353,207.1703,773.6477,214.2655,780.6924,212.7252,781.98,205.63" style="stroke:#181818;stroke-width:1.0;"/><text fill="#000000" font-family="sans-serif" font-size="13" lengthAdjust="spacing" textLength="77" x="728" y="273.0669">consent_log</text></g><!--reverse link Workflow State to Client Profile--><g id="link_Workflow State_Client Profile"><path codeLine="45" d="M446.68,194.01 C454.39,222.7 465.72,264.89 477,306.88 " fill="none" id="Workflow State-backto-Client Profile" style="stroke:#181818;stroke-width:1.0;"/><polygon fill="#181818" points="443.2,181.07,440.8999,187.9044,446.3239,192.6562,448.624,185.8218,443.2,181.07" style="stroke:#181818;stroke-width:1.0;"/><text fill="#000000" font-family="sans-serif" font-size="13" lengthAdjust="spacing" textLength="86" x="468" y="273.0669">profile_status</text></g><!--SRC=[ZLJ1QkCm4BtdAmRlRI5xMFOKIg7RPA5Gs49JzYWKUMABo9AHnks6fV- -8pkfh2HkUpAUUJDwy-P9hLGxMI5uRANsedMUfFccZ4PBelLkgmt2rTKlPqhqrzVmRwQC306A6qNw6Gluilp-yyTonOdNjvHNDUVAYycbbrkwd463D55rsnE2Xu7GHSYJjRAPA1_ccG_JVU80U4JgMeWpEXlUArZAK6-Sz1EqkJgYxbqrpWEe8I5eto8i-3Y3YZXUIa9HiNYMeql-uPXrX2626caChF4lJT9USxly8DP4sqe4zBflmZqbX-Ev8kgLGZg84hUoCyInsnhLZeE3Ok9P1xqnE4gK69JNRTGdfnPdCyv7QFmorUA9Jo_WwtoU2G8hItvVC91GrLOhBUq5tOwmyL0OGo9gbLHga6fNZhLCRJbwh-rkIilBAWvyJtotWFngz0la1bqWrwGfpwiEW5bnPmFvhido4qNw3Hg4Ux5Opee78_VeFwniUzYHv2ptuHJ5WoMDgsR57-TtM-DUu95Otkbp3Ye4HdNXuyiwwSSJLNDddYHr4n-i1TmGILN3NVmzHxrdqFCL9eSSaYSC3kjBC6oaDWdGriwEyAt7BNgFfM1LcIM9StkURJSrpzStufPMnC6rv2kP-LmSxHq7XLMfYIyWd6pfsExj3KcE3F0x4iatbdWAnLwedD-dGUCU-NsmNRFfrUd3Kw_JqLJvK_dw7m00]--></g></svg>