<?xml version="1.0" encoding="us-ascii" standalone="no"?><svg xmlns="http://www.w3.org/2000/svg" xmlns:xlink="http://www.w3.org/1999/xlink" contentStyleType="text/css" height="1397px" preserveAspectRatio="none" style="width:2281px;height:1397px;background:#FFFFFF;" version="1.1" viewBox="0 0 2281 1397" width="2281px" zoomAndPan="magnify"><defs/><g><!--cluster repair_portal--><g id="cluster_repair_portal"><path d="M8.5,6 L109.5,6 A3.75,3.75 0 0 1 112,8.5 L119,28.2969 L2271.5,28.2969 A2.5,2.5 0 0 1 2274,30.7969 L2274,1387.5 A2.5,2.5 0 0 1 2271.5,1390 L8.5,1390 A2.5,2.5 0 0 1 6,1387.5 L6,8.5 A2.5,2.5 0 0 1 8.5,6 " fill="none" style="stroke:#000000;stroke-width:1.5;"/><line style="stroke:#000000;stroke-width:1.5;" x1="6" x2="119" y1="28.2969" y2="28.2969"/><text fill="#000000" font-family="sans-serif" font-size="14" font-weight="bold" lengthAdjust="spacing" textLength="100" x="10" y="20.9951">repair_portal</text></g><!--cluster intake--><g id="cluster_intake"><path d="M32.5,49 L81.5,49 A3.75,3.75 0 0 1 84,51.5 L91,71.2969 L2247.5,71.2969 A2.5,2.5 0 0 1 2250,73.7969 L2250,1363.5 A2.5,2.5 0 0 1 2247.5,1366 L32.5,1366 A2.5,2.5 0 0 1 30,1363.5 L30,51.5 A2.5,2.5 0 0 1 32.5,49 " fill="none" style="stroke:#000000;stroke-width:1.5;"/><line style="stroke:#000000;stroke-width:1.5;" x1="30" x2="91" y1="71.2969" y2="71.2969"/><text fill="#000000" font-family="sans-serif" font-size="14" font-weight="bold" lengthAdjust="spacing" textLength="48" x="34" y="63.9951">intake</text></g><!--class Cancelled--><g id="elem_Cancelled"><rect codeLine="2" fill="#A9DFBF" height="48" id="Cancelled" rx="2.5" ry="2.5" style="stroke:#181818;stroke-width:0.5;" width="100" x="1578" y="108.5"/><ellipse cx="1593" cy="124.5" fill="#ADD1B2" rx="11" ry="11" style="stroke:#181818;stroke-width:1.0;"/><path d="M1596.5156,128.5313 L1596.5156,130.5625 Q1595.0313,131.1719 1593.2031,131.1719 Q1590.4844,131.1719 1589.0313,129.4375 Q1587.5781,127.6875 1587.5781,124.5781 Q1587.5781,121.5781 1589.1563,119.7969 Q1590.7344,118 1593.4531,118 Q1595.3594,118 1597.0938,118.9219 L1596.1406,120.8281 Q1594.6406,120.0469 1593.4531,120.0469 Q1591.8438,120.0469 1590.8594,121.2656 Q1589.8906,122.4688 1589.8906,124.5938 Q1589.8906,126.8438 1590.7969,127.9844 Q1591.7188,129.125 1593.4531,129.125 Q1594.4844,129.125 1596.5156,128.5313 Z " fill="#000000"/><text fill="#000000" font-family="sans-serif" font-size="14" lengthAdjust="spacing" textLength="68" x="1607" y="129.3467">Cancelled</text><line style="stroke:#181818;stroke-width:0.5;" x1="1579" x2="1677" y1="140.5" y2="140.5"/><line style="stroke:#181818;stroke-width:0.5;" x1="1579" x2="1677" y1="148.5" y2="148.5"/></g><!--class Setup--><g id="elem_Setup"><rect codeLine="4" fill="#A9DFBF" height="48" id="Setup" rx="2.5" ry="2.5" style="stroke:#181818;stroke-width:0.5;" width="73" x="1713.5" y="108.5"/><ellipse cx="1728.5" cy="124.5" fill="#ADD1B2" rx="11" ry="11" style="stroke:#181818;stroke-width:1.0;"/><path d="M1732.0156,128.5313 L1732.0156,130.5625 Q1730.5313,131.1719 1728.7031,131.1719 Q1725.9844,131.1719 1724.5313,129.4375 Q1723.0781,127.6875 1723.0781,124.5781 Q1723.0781,121.5781 1724.6563,119.7969 Q1726.2344,118 1728.9531,118 Q1730.8594,118 1732.5938,118.9219 L1731.6406,120.8281 Q1730.1406,120.0469 1728.9531,120.0469 Q1727.3438,120.0469 1726.3594,121.2656 Q1725.3906,122.4688 1725.3906,124.5938 Q1725.3906,126.8438 1726.2969,127.9844 Q1727.2188,129.125 1728.9531,129.125 Q1729.9844,129.125 1732.0156,128.5313 Z " fill="#000000"/><text fill="#000000" font-family="sans-serif" font-size="14" lengthAdjust="spacing" textLength="41" x="1742.5" y="129.3467">Setup</text><line style="stroke:#181818;stroke-width:0.5;" x1="1714.5" x2="1785.5" y1="140.5" y2="140.5"/><line style="stroke:#181818;stroke-width:0.5;" x1="1714.5" x2="1785.5" y1="148.5" y2="148.5"/></g><!--class New--><g id="elem_New"><rect codeLine="6" fill="#A9DFBF" height="48" id="New" rx="2.5" ry="2.5" style="stroke:#181818;stroke-width:0.5;" width="62" x="1822" y="108.5"/><ellipse cx="1837" cy="124.5" fill="#ADD1B2" rx="11" ry="11" style="stroke:#181818;stroke-width:1.0;"/><path d="M1840.5156,128.5313 L1840.5156,130.5625 Q1839.0313,131.1719 1837.2031,131.1719 Q1834.4844,131.1719 1833.0313,129.4375 Q1831.5781,127.6875 1831.5781,124.5781 Q1831.5781,121.5781 1833.1563,119.7969 Q1834.7344,118 1837.4531,118 Q1839.3594,118 1841.0938,118.9219 L1840.1406,120.8281 Q1838.6406,120.0469 1837.4531,120.0469 Q1835.8438,120.0469 1834.8594,121.2656 Q1833.8906,122.4688 1833.8906,124.5938 Q1833.8906,126.8438 1834.7969,127.9844 Q1835.7188,129.125 1837.4531,129.125 Q1838.4844,129.125 1840.5156,128.5313 Z " fill="#000000"/><text fill="#000000" font-family="sans-serif" font-size="14" lengthAdjust="spacing" textLength="30" x="1851" y="129.3467">New</text><line style="stroke:#181818;stroke-width:0.5;" x1="1823" x2="1883" y1="140.5" y2="140.5"/><line style="stroke:#181818;stroke-width:0.5;" x1="1823" x2="1883" y1="148.5" y2="148.5"/></g><!--class QC--><g id="elem_QC"><rect codeLine="8" fill="#A9DFBF" height="48" id="QC" rx="2.5" ry="2.5" style="stroke:#181818;stroke-width:0.5;" width="53" x="1919.5" y="108.5"/><ellipse cx="1934.5" cy="124.5" fill="#ADD1B2" rx="11" ry="11" style="stroke:#181818;stroke-width:1.0;"/><path d="M1938.0156,128.5313 L1938.0156,130.5625 Q1936.5313,131.1719 1934.7031,131.1719 Q1931.9844,131.1719 1930.5313,129.4375 Q1929.0781,127.6875 1929.0781,124.5781 Q1929.0781,121.5781 1930.6563,119.7969 Q1932.2344,118 1934.9531,118 Q1936.8594,118 1938.5938,118.9219 L1937.6406,120.8281 Q1936.1406,120.0469 1934.9531,120.0469 Q1933.3438,120.0469 1932.3594,121.2656 Q1931.3906,122.4688 1931.3906,124.5938 Q1931.3906,126.8438 1932.2969,127.9844 Q1933.2188,129.125 1934.9531,129.125 Q1935.9844,129.125 1938.0156,128.5313 Z " fill="#000000"/><text fill="#000000" font-family="sans-serif" font-size="14" lengthAdjust="spacing" textLength="21" x="1948.5" y="129.3467">QC</text><line style="stroke:#181818;stroke-width:0.5;" x1="1920.5" x2="1971.5" y1="140.5" y2="140.5"/><line style="stroke:#181818;stroke-width:0.5;" x1="1920.5" x2="1971.5" y1="148.5" y2="148.5"/></g><!--class Flagged--><g id="elem_Flagged"><rect codeLine="10" fill="#A9DFBF" height="48" id="Flagged" rx="2.5" ry="2.5" style="stroke:#181818;stroke-width:0.5;" width="87" x="2007.5" y="108.5"/><ellipse cx="2022.5" cy="124.5" fill="#ADD1B2" rx="11" ry="11" style="stroke:#181818;stroke-width:1.0;"/><path d="M2026.0156,128.5313 L2026.0156,130.5625 Q2024.5313,131.1719 2022.7031,131.1719 Q2019.9844,131.1719 2018.5313,129.4375 Q2017.0781,127.6875 2017.0781,124.5781 Q2017.0781,121.5781 2018.6563,119.7969 Q2020.2344,118 2022.9531,118 Q2024.8594,118 2026.5938,118.9219 L2025.6406,120.8281 Q2024.1406,120.0469 2022.9531,120.0469 Q2021.3438,120.0469 2020.3594,121.2656 Q2019.3906,122.4688 2019.3906,124.5938 Q2019.3906,126.8438 2020.2969,127.9844 Q2021.2188,129.125 2022.9531,129.125 Q2023.9844,129.125 2026.0156,128.5313 Z " fill="#000000"/><text fill="#000000" font-family="sans-serif" font-size="14" lengthAdjust="spacing" textLength="55" x="2036.5" y="129.3467">Flagged</text><line style="stroke:#181818;stroke-width:0.5;" x1="2008.5" x2="2093.5" y1="140.5" y2="140.5"/><line style="stroke:#181818;stroke-width:0.5;" x1="2008.5" x2="2093.5" y1="148.5" y2="148.5"/></g><!--class Inspection--><g id="elem_Inspection"><rect codeLine="12" fill="#A9DFBF" height="48" id="Inspection" rx="2.5" ry="2.5" style="stroke:#181818;stroke-width:0.5;" width="104" x="2130" y="108.5"/><ellipse cx="2145" cy="124.5" fill="#ADD1B2" rx="11" ry="11" style="stroke:#181818;stroke-width:1.0;"/><path d="M2148.5156,128.5313 L2148.5156,130.5625 Q2147.0313,131.1719 2145.2031,131.1719 Q2142.4844,131.1719 2141.0313,129.4375 Q2139.5781,127.6875 2139.5781,124.5781 Q2139.5781,121.5781 2141.1563,119.7969 Q2142.7344,118 2145.4531,118 Q2147.3594,118 2149.0938,118.9219 L2148.1406,120.8281 Q2146.6406,120.0469 2145.4531,120.0469 Q2143.8438,120.0469 2142.8594,121.2656 Q2141.8906,122.4688 2141.8906,124.5938 Q2141.8906,126.8438 2142.7969,127.9844 Q2143.7188,129.125 2145.4531,129.125 Q2146.4844,129.125 2148.5156,128.5313 Z " fill="#000000"/><text fill="#000000" font-family="sans-serif" font-size="14" lengthAdjust="spacing" textLength="72" x="2159" y="129.3467">Inspection</text><line style="stroke:#181818;stroke-width:0.5;" x1="2131" x2="2233" y1="140.5" y2="140.5"/><line style="stroke:#181818;stroke-width:0.5;" x1="2131" x2="2233" y1="148.5" y2="148.5"/></g><!--class Escalated--><g id="elem_Escalated"><rect codeLine="14" fill="#A9DFBF" height="48" id="Escalated" rx="2.5" ry="2.5" style="stroke:#181818;stroke-width:0.5;" width="99" x="1374.5" y="559.5"/><ellipse cx="1389.5" cy="575.5" fill="#ADD1B2" rx="11" ry="11" style="stroke:#181818;stroke-width:1.0;"/><path d="M1393.0156,579.5313 L1393.0156,581.5625 Q1391.5313,582.1719 1389.7031,582.1719 Q1386.9844,582.1719 1385.5313,580.4375 Q1384.0781,578.6875 1384.0781,575.5781 Q1384.0781,572.5781 1385.6563,570.7969 Q1387.2344,569 1389.9531,569 Q1391.8594,569 1393.5938,569.9219 L1392.6406,571.8281 Q1391.1406,571.0469 1389.9531,571.0469 Q1388.3438,571.0469 1387.3594,572.2656 Q1386.3906,573.4688 1386.3906,575.5938 Q1386.3906,577.8438 1387.2969,578.9844 Q1388.2188,580.125 1389.9531,580.125 Q1390.9844,580.125 1393.0156,579.5313 Z " fill="#000000"/><text fill="#000000" font-family="sans-serif" font-size="14" lengthAdjust="spacing" textLength="67" x="1403.5" y="580.3467">Escalated</text><line style="stroke:#181818;stroke-width:0.5;" x1="1375.5" x2="1472.5" y1="591.5" y2="591.5"/><line style="stroke:#181818;stroke-width:0.5;" x1="1375.5" x2="1472.5" y1="599.5" y2="599.5"/></g><!--class Hold--><g id="elem_Hold"><rect codeLine="16" fill="#A9DFBF" height="48" id="Hold" rx="2.5" ry="2.5" style="stroke:#181818;stroke-width:0.5;" width="63" x="1508.5" y="559.5"/><ellipse cx="1523.5" cy="575.5" fill="#ADD1B2" rx="11" ry="11" style="stroke:#181818;stroke-width:1.0;"/><path d="M1527.0156,579.5313 L1527.0156,581.5625 Q1525.5313,582.1719 1523.7031,582.1719 Q1520.9844,582.1719 1519.5313,580.4375 Q1518.0781,578.6875 1518.0781,575.5781 Q1518.0781,572.5781 1519.6563,570.7969 Q1521.2344,569 1523.9531,569 Q1525.8594,569 1527.5938,569.9219 L1526.6406,571.8281 Q1525.1406,571.0469 1523.9531,571.0469 Q1522.3438,571.0469 1521.3594,572.2656 Q1520.3906,573.4688 1520.3906,575.5938 Q1520.3906,577.8438 1521.2969,578.9844 Q1522.2188,580.125 1523.9531,580.125 Q1524.9844,580.125 1527.0156,579.5313 Z " fill="#000000"/><text fill="#000000" font-family="sans-serif" font-size="14" lengthAdjust="spacing" textLength="31" x="1537.5" y="580.3467">Hold</text><line style="stroke:#181818;stroke-width:0.5;" x1="1509.5" x2="1570.5" y1="591.5" y2="591.5"/><line style="stroke:#181818;stroke-width:0.5;" x1="1509.5" x2="1570.5" y1="599.5" y2="599.5"/></g><!--class Received--><g id="elem_Received"><rect codeLine="18" fill="#A9DFBF" height="48" id="Received" rx="2.5" ry="2.5" style="stroke:#181818;stroke-width:0.5;" width="96" x="1607" y="559.5"/><ellipse cx="1622" cy="575.5" fill="#ADD1B2" rx="11" ry="11" style="stroke:#181818;stroke-width:1.0;"/><path d="M1625.5156,579.5313 L1625.5156,581.5625 Q1624.0313,582.1719 1622.2031,582.1719 Q1619.4844,582.1719 1618.0313,580.4375 Q1616.5781,578.6875 1616.5781,575.5781 Q1616.5781,572.5781 1618.1563,570.7969 Q1619.7344,569 1622.4531,569 Q1624.3594,569 1626.0938,569.9219 L1625.1406,571.8281 Q1623.6406,571.0469 1622.4531,571.0469 Q1620.8438,571.0469 1619.8594,572.2656 Q1618.8906,573.4688 1618.8906,575.5938 Q1618.8906,577.8438 1619.7969,578.9844 Q1620.7188,580.125 1622.4531,580.125 Q1623.4844,580.125 1625.5156,579.5313 Z " fill="#000000"/><text fill="#000000" font-family="sans-serif" font-size="14" lengthAdjust="spacing" textLength="64" x="1636" y="580.3467">Received</text><line style="stroke:#181818;stroke-width:0.5;" x1="1608" x2="1702" y1="591.5" y2="591.5"/><line style="stroke:#181818;stroke-width:0.5;" x1="1608" x2="1702" y1="599.5" y2="599.5"/></g><!--class Confirmed--><g id="elem_Confirmed"><rect codeLine="20" fill="#A9DFBF" height="48" id="Confirmed" rx="2.5" ry="2.5" style="stroke:#181818;stroke-width:0.5;" width="103" x="1738.5" y="559.5"/><ellipse cx="1753.5" cy="575.5" fill="#ADD1B2" rx="11" ry="11" style="stroke:#181818;stroke-width:1.0;"/><path d="M1757.0156,579.5313 L1757.0156,581.5625 Q1755.5313,582.1719 1753.7031,582.1719 Q1750.9844,582.1719 1749.5313,580.4375 Q1748.0781,578.6875 1748.0781,575.5781 Q1748.0781,572.5781 1749.6563,570.7969 Q1751.2344,569 1753.9531,569 Q1755.8594,569 1757.5938,569.9219 L1756.6406,571.8281 Q1755.1406,571.0469 1753.9531,571.0469 Q1752.3438,571.0469 1751.3594,572.2656 Q1750.3906,573.4688 1750.3906,575.5938 Q1750.3906,577.8438 1751.2969,578.9844 Q1752.2188,580.125 1753.9531,580.125 Q1754.9844,580.125 1757.0156,579.5313 Z " fill="#000000"/><text fill="#000000" font-family="sans-serif" font-size="14" lengthAdjust="spacing" textLength="71" x="1767.5" y="580.3467">Confirmed</text><line style="stroke:#181818;stroke-width:0.5;" x1="1739.5" x2="1840.5" y1="591.5" y2="591.5"/><line style="stroke:#181818;stroke-width:0.5;" x1="1739.5" x2="1840.5" y1="599.5" y2="599.5"/></g><!--class Loaners Outstanding--><g id="elem_Loaners Outstanding"><rect codeLine="22" fill="#A9DFBF" height="48" id="Loaners Outstanding" rx="2.5" ry="2.5" style="stroke:#181818;stroke-width:0.5;" width="176" x="1877" y="559.5"/><ellipse cx="1892" cy="575.5" fill="#ADD1B2" rx="11" ry="11" style="stroke:#181818;stroke-width:1.0;"/><path d="M1895.5156,579.5313 L1895.5156,581.5625 Q1894.0313,582.1719 1892.2031,582.1719 Q1889.4844,582.1719 1888.0313,580.4375 Q1886.5781,578.6875 1886.5781,575.5781 Q1886.5781,572.5781 1888.1563,570.7969 Q1889.7344,569 1892.4531,569 Q1894.3594,569 1896.0938,569.9219 L1895.1406,571.8281 Q1893.6406,571.0469 1892.4531,571.0469 Q1890.8438,571.0469 1889.8594,572.2656 Q1888.8906,573.4688 1888.8906,575.5938 Q1888.8906,577.8438 1889.7969,578.9844 Q1890.7188,580.125 1892.4531,580.125 Q1893.4844,580.125 1895.5156,579.5313 Z " fill="#000000"/><text fill="#000000" font-family="sans-serif" font-size="14" lengthAdjust="spacing" textLength="144" x="1906" y="580.3467">Loaners Outstanding</text><line style="stroke:#181818;stroke-width:0.5;" x1="1878" x2="2052" y1="591.5" y2="591.5"/><line style="stroke:#181818;stroke-width:0.5;" x1="1878" x2="2052" y1="599.5" y2="599.5"/></g><!--class Loaner Turnover--><g id="elem_Loaner Turnover"><rect codeLine="24" fill="#A9DFBF" height="48" id="Loaner Turnover" rx="2.5" ry="2.5" style="stroke:#181818;stroke-width:0.5;" width="145" x="2088.5" y="559.5"/><ellipse cx="2103.5" cy="575.5" fill="#ADD1B2" rx="11" ry="11" style="stroke:#181818;stroke-width:1.0;"/><path d="M2107.0156,579.5313 L2107.0156,581.5625 Q2105.5313,582.1719 2103.7031,582.1719 Q2100.9844,582.1719 2099.5313,580.4375 Q2098.0781,578.6875 2098.0781,575.5781 Q2098.0781,572.5781 2099.6563,570.7969 Q2101.2344,569 2103.9531,569 Q2105.8594,569 2107.5938,569.9219 L2106.6406,571.8281 Q2105.1406,571.0469 2103.9531,571.0469 Q2102.3438,571.0469 2101.3594,572.2656 Q2100.3906,573.4688 2100.3906,575.5938 Q2100.3906,577.8438 2101.2969,578.9844 Q2102.2188,580.125 2103.9531,580.125 Q2104.9844,580.125 2107.0156,579.5313 Z " fill="#000000"/><text fill="#000000" font-family="sans-serif" font-size="14" lengthAdjust="spacing" textLength="113" x="2117.5" y="580.3467">Loaner Turnover</text><line style="stroke:#181818;stroke-width:0.5;" x1="2089.5" x2="2232.5" y1="591.5" y2="591.5"/><line style="stroke:#181818;stroke-width:0.5;" x1="2089.5" x2="2232.5" y1="599.5" y2="599.5"/></g><!--class Intake By Day--><g id="elem_Intake By Day"><rect codeLine="26" fill="#A9DFBF" height="48" id="Intake By Day" rx="2.5" ry="2.5" style="stroke:#181818;stroke-width:0.5;" width="125" x="1085.5" y="1035"/><ellipse cx="1100.5" cy="1051" fill="#ADD1B2" rx="11" ry="11" style="stroke:#181818;stroke-width:1.0;"/><path d="M1104.0156,1055.0313 L1104.0156,1057.0625 Q1102.5313,1057.6719 1100.7031,1057.6719 Q1097.9844,1057.6719 1096.5313,1055.9375 Q1095.0781,1054.1875 1095.0781,1051.0781 Q1095.0781,1048.0781 1096.6563,1046.2969 Q1098.2344,1044.5 1100.9531,1044.5 Q1102.8594,1044.5 1104.5938,1045.4219 L1103.6406,1047.3281 Q1102.1406,1046.5469 1100.9531,1046.5469 Q1099.3438,1046.5469 1098.3594,1047.7656 Q1097.3906,1048.9688 1097.3906,1051.0938 Q1097.3906,1053.3438 1098.2969,1054.4844 Q1099.2188,1055.625 1100.9531,1055.625 Q1101.9844,1055.625 1104.0156,1055.0313 Z " fill="#000000"/><text fill="#000000" font-family="sans-serif" font-size="14" lengthAdjust="spacing" textLength="93" x="1114.5" y="1055.8467">Intake By Day</text><line style="stroke:#181818;stroke-width:0.5;" x1="1086.5" x2="1209.5" y1="1067" y2="1067"/><line style="stroke:#181818;stroke-width:0.5;" x1="1086.5" x2="1209.5" y1="1075" y2="1075"/></g><!--class Follow Up Compliance--><g id="elem_Follow Up Compliance"><rect codeLine="32" fill="#A9DFBF" height="48" id="Follow Up Compliance" rx="2.5" ry="2.5" style="stroke:#181818;stroke-width:0.5;" width="183" x="1245.5" y="1035"/><ellipse cx="1260.5" cy="1051" fill="#ADD1B2" rx="11" ry="11" style="stroke:#181818;stroke-width:1.0;"/><path d="M1264.0156,1055.0313 L1264.0156,1057.0625 Q1262.5313,1057.6719 1260.7031,1057.6719 Q1257.9844,1057.6719 1256.5313,1055.9375 Q1255.0781,1054.1875 1255.0781,1051.0781 Q1255.0781,1048.0781 1256.6563,1046.2969 Q1258.2344,1044.5 1260.9531,1044.5 Q1262.8594,1044.5 1264.5938,1045.4219 L1263.6406,1047.3281 Q1262.1406,1046.5469 1260.9531,1046.5469 Q1259.3438,1046.5469 1258.3594,1047.7656 Q1257.3906,1048.9688 1257.3906,1051.0938 Q1257.3906,1053.3438 1258.2969,1054.4844 Q1259.2188,1055.625 1260.9531,1055.625 Q1261.9844,1055.625 1264.0156,1055.0313 Z " fill="#000000"/><text fill="#000000" font-family="sans-serif" font-size="14" lengthAdjust="spacing" textLength="151" x="1274.5" y="1055.8467">Follow Up Compliance</text><line style="stroke:#181818;stroke-width:0.5;" x1="1246.5" x2="1427.5" y1="1067" y2="1067"/><line style="stroke:#181818;stroke-width:0.5;" x1="1246.5" x2="1427.5" y1="1075" y2="1075"/></g><!--class Upcoming Appointments--><g id="elem_Upcoming Appointments"><rect codeLine="30" fill="#A9DFBF" height="48" id="Upcoming Appointments" rx="2.5" ry="2.5" style="stroke:#181818;stroke-width:0.5;" width="203" x="1463.5" y="1035"/><ellipse cx="1478.5" cy="1051" fill="#ADD1B2" rx="11" ry="11" style="stroke:#181818;stroke-width:1.0;"/><path d="M1482.0156,1055.0313 L1482.0156,1057.0625 Q1480.5313,1057.6719 1478.7031,1057.6719 Q1475.9844,1057.6719 1474.5313,1055.9375 Q1473.0781,1054.1875 1473.0781,1051.0781 Q1473.0781,1048.0781 1474.6563,1046.2969 Q1476.2344,1044.5 1478.9531,1044.5 Q1480.8594,1044.5 1482.5938,1045.4219 L1481.6406,1047.3281 Q1480.1406,1046.5469 1478.9531,1046.5469 Q1477.3438,1046.5469 1476.3594,1047.7656 Q1475.3906,1048.9688 1475.3906,1051.0938 Q1475.3906,1053.3438 1476.2969,1054.4844 Q1477.2188,1055.625 1478.9531,1055.625 Q1479.9844,1055.625 1482.0156,1055.0313 Z " fill="#000000"/><text fill="#000000" font-family="sans-serif" font-size="14" lengthAdjust="spacing" textLength="171" x="1492.5" y="1055.8467">Upcoming Appointments</text><line style="stroke:#181818;stroke-width:0.5;" x1="1464.5" x2="1665.5" y1="1067" y2="1067"/><line style="stroke:#181818;stroke-width:0.5;" x1="1464.5" x2="1665.5" y1="1075" y2="1075"/></g><!--class Deposit Balance Aging--><g id="elem_Deposit Balance Aging"><rect codeLine="34" fill="#A9DFBF" height="48" id="Deposit Balance Aging" rx="2.5" ry="2.5" style="stroke:#181818;stroke-width:0.5;" width="188" x="1702" y="1035"/><ellipse cx="1717" cy="1051" fill="#ADD1B2" rx="11" ry="11" style="stroke:#181818;stroke-width:1.0;"/><path d="M1720.5156,1055.0313 L1720.5156,1057.0625 Q1719.0313,1057.6719 1717.2031,1057.6719 Q1714.4844,1057.6719 1713.0313,1055.9375 Q1711.5781,1054.1875 1711.5781,1051.0781 Q1711.5781,1048.0781 1713.1563,1046.2969 Q1714.7344,1044.5 1717.4531,1044.5 Q1719.3594,1044.5 1721.0938,1045.4219 L1720.1406,1047.3281 Q1718.6406,1046.5469 1717.4531,1046.5469 Q1715.8438,1046.5469 1714.8594,1047.7656 Q1713.8906,1048.9688 1713.8906,1051.0938 Q1713.8906,1053.3438 1714.7969,1054.4844 Q1715.7188,1055.625 1717.4531,1055.625 Q1718.4844,1055.625 1720.5156,1055.0313 Z " fill="#000000"/><text fill="#000000" font-family="sans-serif" font-size="14" lengthAdjust="spacing" textLength="156" x="1731" y="1055.8467">Deposit Balance Aging</text><line style="stroke:#181818;stroke-width:0.5;" x1="1703" x2="1889" y1="1067" y2="1067"/><line style="stroke:#181818;stroke-width:0.5;" x1="1703" x2="1889" y1="1075" y2="1075"/></g><!--class Loaner Return Flags--><g id="elem_Loaner Return Flags"><rect codeLine="36" fill="#A9DFBF" height="48" id="Loaner Return Flags" rx="2.5" ry="2.5" style="stroke:#181818;stroke-width:0.5;" width="170" x="1925" y="1035"/><ellipse cx="1940" cy="1051" fill="#ADD1B2" rx="11" ry="11" style="stroke:#181818;stroke-width:1.0;"/><path d="M1943.5156,1055.0313 L1943.5156,1057.0625 Q1942.0313,1057.6719 1940.2031,1057.6719 Q1937.4844,1057.6719 1936.0313,1055.9375 Q1934.5781,1054.1875 1934.5781,1051.0781 Q1934.5781,1048.0781 1936.1563,1046.2969 Q1937.7344,1044.5 1940.4531,1044.5 Q1942.3594,1044.5 1944.0938,1045.4219 L1943.1406,1047.3281 Q1941.6406,1046.5469 1940.4531,1046.5469 Q1938.8438,1046.5469 1937.8594,1047.7656 Q1936.8906,1048.9688 1936.8906,1051.0938 Q1936.8906,1053.3438 1937.7969,1054.4844 Q1938.7188,1055.625 1940.4531,1055.625 Q1941.4844,1055.625 1943.5156,1055.0313 Z " fill="#000000"/><text fill="#000000" font-family="sans-serif" font-size="14" lengthAdjust="spacing" textLength="138" x="1954" y="1055.8467">Loaner Return Flags</text><line style="stroke:#181818;stroke-width:0.5;" x1="1926" x2="2094" y1="1067" y2="1067"/><line style="stroke:#181818;stroke-width:0.5;" x1="1926" x2="2094" y1="1075" y2="1075"/></g><!--class Intake--><g id="elem_Intake"><rect codeLine="38" fill="#A9DFBF" height="48" id="Intake" rx="2.5" ry="2.5" style="stroke:#181818;stroke-width:0.5;" width="74" x="2130" y="1035"/><ellipse cx="2145" cy="1051" fill="#ADD1B2" rx="11" ry="11" style="stroke:#181818;stroke-width:1.0;"/><path d="M2148.5156,1055.0313 L2148.5156,1057.0625 Q2147.0313,1057.6719 2145.2031,1057.6719 Q2142.4844,1057.6719 2141.0313,1055.9375 Q2139.5781,1054.1875 2139.5781,1051.0781 Q2139.5781,1048.0781 2141.1563,1046.2969 Q2142.7344,1044.5 2145.4531,1044.5 Q2147.3594,1044.5 2149.0938,1045.4219 L2148.1406,1047.3281 Q2146.6406,1046.5469 2145.4531,1046.5469 Q2143.8438,1046.5469 2142.8594,1047.7656 Q2141.8906,1048.9688 2141.8906,1051.0938 Q2141.8906,1053.3438 2142.7969,1054.4844 Q2143.7188,1055.625 2145.4531,1055.625 Q2146.4844,1055.625 2148.5156,1055.0313 Z " fill="#000000"/><text fill="#000000" font-family="sans-serif" font-size="14" lengthAdjust="spacing" textLength="42" x="2159" y="1055.8467">Intake</text><line style="stroke:#181818;stroke-width:0.5;" x1="2131" x2="2203" y1="1067" y2="1067"/><line style="stroke:#181818;stroke-width:0.5;" x1="2131" x2="2203" y1="1075" y2="1075"/></g><!--class Customer--><g id="elem_Customer"><rect fill="#F1F1F1" height="48" id="Customer" rx="2.5" ry="2.5" style="stroke:#181818;stroke-width:0.5;" width="100" x="1443" y="108.5"/><ellipse cx="1458" cy="124.5" fill="#ADD1B2" rx="11" ry="11" style="stroke:#181818;stroke-width:1.0;"/><path d="M1461.5156,128.5313 L1461.5156,130.5625 Q1460.0313,131.1719 1458.2031,131.1719 Q1455.4844,131.1719 1454.0313,129.4375 Q1452.5781,127.6875 1452.5781,124.5781 Q1452.5781,121.5781 1454.1563,119.7969 Q1455.7344,118 1458.4531,118 Q1460.3594,118 1462.0938,118.9219 L1461.1406,120.8281 Q1459.6406,120.0469 1458.4531,120.0469 Q1456.8438,120.0469 1455.8594,121.2656 Q1454.8906,122.4688 1454.8906,124.5938 Q1454.8906,126.8438 1455.7969,127.9844 Q1456.7188,129.125 1458.4531,129.125 Q1459.4844,129.125 1461.5156,128.5313 Z " fill="#000000"/><text fill="#000000" font-family="sans-serif" font-size="14" lengthAdjust="spacing" textLength="68" x="1472" y="129.3467">Customer</text><line style="stroke:#181818;stroke-width:0.5;" x1="1444" x2="1542" y1="140.5" y2="140.5"/><line style="stroke:#181818;stroke-width:0.5;" x1="1444" x2="1542" y1="148.5" y2="148.5"/></g><!--class Clarinet Intake Request--><g id="elem_Clarinet Intake Request"><rect codeLine="41" fill="#A9DFBF" height="162.0781" id="Clarinet Intake Request" rx="2.5" ry="2.5" style="stroke:#181818;stroke-width:0.5;" width="222" x="1117" y="502.5"/><ellipse cx="1145.05" cy="518.5" fill="#ADD1B2" rx="11" ry="11" style="stroke:#181818;stroke-width:1.0;"/><path d="M1148.5656,522.5313 L1148.5656,524.5625 Q1147.0813,525.1719 1145.2531,525.1719 Q1142.5344,525.1719 1141.0813,523.4375 Q1139.6281,521.6875 1139.6281,518.5781 Q1139.6281,515.5781 1141.2063,513.7969 Q1142.7844,512 1145.5031,512 Q1147.4094,512 1149.1438,512.9219 L1148.1906,514.8281 Q1146.6906,514.0469 1145.5031,514.0469 Q1143.8938,514.0469 1142.9094,515.2656 Q1141.9406,516.4688 1141.9406,518.5938 Q1141.9406,520.8438 1142.8469,521.9844 Q1143.7688,523.125 1145.5031,523.125 Q1146.5344,523.125 1148.5656,522.5313 Z " fill="#000000"/><text fill="#000000" font-family="sans-serif" font-size="14" lengthAdjust="spacing" textLength="161" x="1161.95" y="523.3467">Clarinet Intake Request</text><line style="stroke:#181818;stroke-width:0.5;" x1="1118" x2="1338" y1="534.5" y2="534.5"/><text fill="#000000" font-family="sans-serif" font-size="14" lengthAdjust="spacing" textLength="142" x="1123" y="551.4951">serial_number : Data</text><text fill="#000000" font-family="sans-serif" font-size="14" lengthAdjust="spacing" textLength="106" x="1123" y="567.792">customer : Link</text><text fill="#000000" font-family="sans-serif" font-size="14" lengthAdjust="spacing" textLength="198" x="1123" y="584.0889">instrument_category : Select</text><text fill="#000000" font-family="sans-serif" font-size="14" lengthAdjust="spacing" textLength="143" x="1123" y="600.3857">received_date : Date</text><text fill="#000000" font-family="sans-serif" font-size="14" lengthAdjust="spacing" textLength="111" x="1123" y="616.6826">due_date : Date</text><text fill="#000000" font-family="sans-serif" font-size="14" lengthAdjust="spacing" textLength="156" x="1123" y="632.9795">customer_notes : Text</text><text fill="#000000" font-family="sans-serif" font-size="14" lengthAdjust="spacing" textLength="210" x="1123" y="649.2764">inspection_completed : Check</text><line style="stroke:#181818;stroke-width:0.5;" x1="1118" x2="1338" y1="656.5781" y2="656.5781"/></g><!--class Overdue Intakes--><g id="elem_Overdue Intakes"><rect codeLine="50" fill="#A9DFBF" height="48" id="Overdue Intakes" rx="2.5" ry="2.5" style="stroke:#181818;stroke-width:0.5;" width="145" x="985.5" y="1193"/><ellipse cx="1000.5" cy="1209" fill="#ADD1B2" rx="11" ry="11" style="stroke:#181818;stroke-width:1.0;"/><path d="M1004.0156,1213.0313 L1004.0156,1215.0625 Q1002.5313,1215.6719 1000.7031,1215.6719 Q997.9844,1215.6719 996.5313,1213.9375 Q995.0781,1212.1875 995.0781,1209.0781 Q995.0781,1206.0781 996.6563,1204.2969 Q998.2344,1202.5 1000.9531,1202.5 Q1002.8594,1202.5 1004.5938,1203.4219 L1003.6406,1205.3281 Q1002.1406,1204.5469 1000.9531,1204.5469 Q999.3438,1204.5469 998.3594,1205.7656 Q997.3906,1206.9688 997.3906,1209.0938 Q997.3906,1211.3438 998.2969,1212.4844 Q999.2188,1213.625 1000.9531,1213.625 Q1001.9844,1213.625 1004.0156,1213.0313 Z " fill="#000000"/><text fill="#000000" font-family="sans-serif" font-size="14" lengthAdjust="spacing" textLength="113" x="1014.5" y="1213.8467">Overdue Intakes</text><line style="stroke:#181818;stroke-width:0.5;" x1="986.5" x2="1129.5" y1="1225" y2="1225"/><line style="stroke:#181818;stroke-width:0.5;" x1="986.5" x2="1129.5" y1="1233" y2="1233"/></g><!--class Appointments By Week--><g id="elem_Appointments By Week"><rect codeLine="52" fill="#A9DFBF" height="48" id="Appointments By Week" rx="2.5" ry="2.5" style="stroke:#181818;stroke-width:0.5;" width="193" x="1165.5" y="1193"/><ellipse cx="1180.5" cy="1209" fill="#ADD1B2" rx="11" ry="11" style="stroke:#181818;stroke-width:1.0;"/><path d="M1184.0156,1213.0313 L1184.0156,1215.0625 Q1182.5313,1215.6719 1180.7031,1215.6719 Q1177.9844,1215.6719 1176.5313,1213.9375 Q1175.0781,1212.1875 1175.0781,1209.0781 Q1175.0781,1206.0781 1176.6563,1204.2969 Q1178.2344,1202.5 1180.9531,1202.5 Q1182.8594,1202.5 1184.5938,1203.4219 L1183.6406,1205.3281 Q1182.1406,1204.5469 1180.9531,1204.5469 Q1179.3438,1204.5469 1178.3594,1205.7656 Q1177.3906,1206.9688 1177.3906,1209.0938 Q1177.3906,1211.3438 1178.2969,1212.4844 Q1179.2188,1213.625 1180.9531,1213.625 Q1181.9844,1213.625 1184.0156,1213.0313 Z " fill="#000000"/><text fill="#000000" font-family="sans-serif" font-size="14" lengthAdjust="spacing" textLength="161" x="1194.5" y="1213.8467">Appointments By Week</text><line style="stroke:#181818;stroke-width:0.5;" x1="1166.5" x2="1357.5" y1="1225" y2="1225"/><line style="stroke:#181818;stroke-width:0.5;" x1="1166.5" x2="1357.5" y1="1233" y2="1233"/></g><!--class Intakes Due Soon--><g id="elem_Intakes Due Soon"><rect codeLine="54" fill="#A9DFBF" height="48" id="Intakes Due Soon" rx="2.5" ry="2.5" style="stroke:#181818;stroke-width:0.5;" width="155" x="1393.5" y="1193"/><ellipse cx="1408.5" cy="1209" fill="#ADD1B2" rx="11" ry="11" style="stroke:#181818;stroke-width:1.0;"/><path d="M1412.0156,1213.0313 L1412.0156,1215.0625 Q1410.5313,1215.6719 1408.7031,1215.6719 Q1405.9844,1215.6719 1404.5313,1213.9375 Q1403.0781,1212.1875 1403.0781,1209.0781 Q1403.0781,1206.0781 1404.6563,1204.2969 Q1406.2344,1202.5 1408.9531,1202.5 Q1410.8594,1202.5 1412.5938,1203.4219 L1411.6406,1205.3281 Q1410.1406,1204.5469 1408.9531,1204.5469 Q1407.3438,1204.5469 1406.3594,1205.7656 Q1405.3906,1206.9688 1405.3906,1209.0938 Q1405.3906,1211.3438 1406.2969,1212.4844 Q1407.2188,1213.625 1408.9531,1213.625 Q1409.9844,1213.625 1412.0156,1213.0313 Z " fill="#000000"/><text fill="#000000" font-family="sans-serif" font-size="14" lengthAdjust="spacing" textLength="123" x="1422.5" y="1213.8467">Intakes Due Soon</text><line style="stroke:#181818;stroke-width:0.5;" x1="1394.5" x2="1547.5" y1="1225" y2="1225"/><line style="stroke:#181818;stroke-width:0.5;" x1="1394.5" x2="1547.5" y1="1233" y2="1233"/></g><!--class Avg Intake To Repair Time--><g id="elem_Avg Intake To Repair Time"><rect codeLine="56" fill="#A9DFBF" height="48" id="Avg Intake To Repair Time" rx="2.5" ry="2.5" style="stroke:#181818;stroke-width:0.5;" width="211" x="1583.5" y="1193"/><ellipse cx="1598.5" cy="1209" fill="#ADD1B2" rx="11" ry="11" style="stroke:#181818;stroke-width:1.0;"/><path d="M1602.0156,1213.0313 L1602.0156,1215.0625 Q1600.5313,1215.6719 1598.7031,1215.6719 Q1595.9844,1215.6719 1594.5313,1213.9375 Q1593.0781,1212.1875 1593.0781,1209.0781 Q1593.0781,1206.0781 1594.6563,1204.2969 Q1596.2344,1202.5 1598.9531,1202.5 Q1600.8594,1202.5 1602.5938,1203.4219 L1601.6406,1205.3281 Q1600.1406,1204.5469 1598.9531,1204.5469 Q1597.3438,1204.5469 1596.3594,1205.7656 Q1595.3906,1206.9688 1595.3906,1209.0938 Q1595.3906,1211.3438 1596.2969,1212.4844 Q1597.2188,1213.625 1598.9531,1213.625 Q1599.9844,1213.625 1602.0156,1213.0313 Z " fill="#000000"/><text fill="#000000" font-family="sans-serif" font-size="14" lengthAdjust="spacing" textLength="179" x="1612.5" y="1213.8467">Avg Intake To Repair Time</text><line style="stroke:#181818;stroke-width:0.5;" x1="1584.5" x2="1793.5" y1="1225" y2="1225"/><line style="stroke:#181818;stroke-width:0.5;" x1="1584.5" x2="1793.5" y1="1233" y2="1233"/></g><!--class Loaners Checked Out--><g id="elem_Loaners Checked Out"><rect codeLine="58" fill="#A9DFBF" height="48" id="Loaners Checked Out" rx="2.5" ry="2.5" style="stroke:#181818;stroke-width:0.5;" width="182" x="1830" y="1193"/><ellipse cx="1845" cy="1209" fill="#ADD1B2" rx="11" ry="11" style="stroke:#181818;stroke-width:1.0;"/><path d="M1848.5156,1213.0313 L1848.5156,1215.0625 Q1847.0313,1215.6719 1845.2031,1215.6719 Q1842.4844,1215.6719 1841.0313,1213.9375 Q1839.5781,1212.1875 1839.5781,1209.0781 Q1839.5781,1206.0781 1841.1563,1204.2969 Q1842.7344,1202.5 1845.4531,1202.5 Q1847.3594,1202.5 1849.0938,1203.4219 L1848.1406,1205.3281 Q1846.6406,1204.5469 1845.4531,1204.5469 Q1843.8438,1204.5469 1842.8594,1205.7656 Q1841.8906,1206.9688 1841.8906,1209.0938 Q1841.8906,1211.3438 1842.7969,1212.4844 Q1843.7188,1213.625 1845.4531,1213.625 Q1846.4844,1213.625 1848.5156,1213.0313 Z " fill="#000000"/><text fill="#000000" font-family="sans-serif" font-size="14" lengthAdjust="spacing" textLength="150" x="1859" y="1213.8467">Loaners Checked Out</text><line style="stroke:#181818;stroke-width:0.5;" x1="1831" x2="2011" y1="1225" y2="1225"/><line style="stroke:#181818;stroke-width:0.5;" x1="1831" x2="2011" y1="1233" y2="1233"/></g><!--class Intake Checklist Item--><g id="elem_Intake Checklist Item"><rect codeLine="60" fill="#A9DFBF" height="96.8906" id="Intake Checklist Item" rx="2.5" ry="2.5" style="stroke:#181818;stroke-width:0.5;" width="175" x="191.5" y="84"/><ellipse cx="206.5" cy="100" fill="#ADD1B2" rx="11" ry="11" style="stroke:#181818;stroke-width:1.0;"/><path d="M210.0156,104.0313 L210.0156,106.0625 Q208.5313,106.6719 206.7031,106.6719 Q203.9844,106.6719 202.5313,104.9375 Q201.0781,103.1875 201.0781,100.0781 Q201.0781,97.0781 202.6563,95.2969 Q204.2344,93.5 206.9531,93.5 Q208.8594,93.5 210.5938,94.4219 L209.6406,96.3281 Q208.1406,95.5469 206.9531,95.5469 Q205.3438,95.5469 204.3594,96.7656 Q203.3906,97.9688 203.3906,100.0938 Q203.3906,102.3438 204.2969,103.4844 Q205.2188,104.625 206.9531,104.625 Q207.9844,104.625 210.0156,104.0313 Z " fill="#000000"/><text fill="#000000" font-family="sans-serif" font-size="14" lengthAdjust="spacing" textLength="143" x="220.5" y="104.8467">Intake Checklist Item</text><line style="stroke:#181818;stroke-width:0.5;" x1="192.5" x2="365.5" y1="116" y2="116"/><text fill="#000000" font-family="sans-serif" font-size="14" lengthAdjust="spacing" textLength="124" x="197.5" y="132.9951">check_item : Data</text><text fill="#000000" font-family="sans-serif" font-size="14" lengthAdjust="spacing" textLength="117" x="197.5" y="149.292">checked : Check</text><text fill="#000000" font-family="sans-serif" font-size="14" lengthAdjust="spacing" textLength="157" x="197.5" y="165.5889">comments : Small Text</text><line style="stroke:#181818;stroke-width:0.5;" x1="192.5" x2="365.5" y1="172.8906" y2="172.8906"/></g><!--class Loaner Instrument--><g id="elem_Loaner Instrument"><rect codeLine="77" fill="#A9DFBF" height="145.7813" id="Loaner Instrument" rx="2.5" ry="2.5" style="stroke:#181818;stroke-width:0.5;" width="210" x="605" y="510.5"/><ellipse cx="643.4" cy="526.5" fill="#ADD1B2" rx="11" ry="11" style="stroke:#181818;stroke-width:1.0;"/><path d="M646.9156,530.5313 L646.9156,532.5625 Q645.4313,533.1719 643.6031,533.1719 Q640.8844,533.1719 639.4313,531.4375 Q637.9781,529.6875 637.9781,526.5781 Q637.9781,523.5781 639.5563,521.7969 Q641.1344,520 643.8531,520 Q645.7594,520 647.4938,520.9219 L646.5406,522.8281 Q645.0406,522.0469 643.8531,522.0469 Q642.2438,522.0469 641.2594,523.2656 Q640.2906,524.4688 640.2906,526.5938 Q640.2906,528.8438 641.1969,529.9844 Q642.1188,531.125 643.8531,531.125 Q644.8844,531.125 646.9156,530.5313 Z " fill="#000000"/><text fill="#000000" font-family="sans-serif" font-size="14" lengthAdjust="spacing" textLength="126" x="662.6" y="531.3467">Loaner Instrument</text><line style="stroke:#181818;stroke-width:0.5;" x1="606" x2="814" y1="542.5" y2="542.5"/><text fill="#000000" font-family="sans-serif" font-size="14" lengthAdjust="spacing" textLength="131" x="611" y="559.4951">loaner_serial : Data</text><text fill="#000000" font-family="sans-serif" font-size="14" lengthAdjust="spacing" textLength="112" x="611" y="575.792">item_code : Link</text><text fill="#000000" font-family="sans-serif" font-size="14" lengthAdjust="spacing" textLength="107" x="611" y="592.0889">issued_to : Link</text><text fill="#000000" font-family="sans-serif" font-size="14" lengthAdjust="spacing" textLength="130" x="611" y="608.3857">issued_date : Date</text><text fill="#000000" font-family="sans-serif" font-size="14" lengthAdjust="spacing" textLength="198" x="611" y="624.6826">expected_return_date : Date</text><text fill="#000000" font-family="sans-serif" font-size="14" lengthAdjust="spacing" textLength="117" x="611" y="640.9795">returned : Check</text><line style="stroke:#181818;stroke-width:0.5;" x1="606" x2="814" y1="648.2813" y2="648.2813"/></g><!--class Loaner Return Check--><g id="elem_Loaner Return Check"><rect codeLine="67" fill="#A9DFBF" height="145.7813" id="Loaner Return Check" rx="2.5" ry="2.5" style="stroke:#181818;stroke-width:0.5;" width="213" x="437.5" y="986"/><ellipse cx="468.25" cy="1002" fill="#ADD1B2" rx="11" ry="11" style="stroke:#181818;stroke-width:1.0;"/><path d="M471.7656,1006.0313 L471.7656,1008.0625 Q470.2813,1008.6719 468.4531,1008.6719 Q465.7344,1008.6719 464.2813,1006.9375 Q462.8281,1005.1875 462.8281,1002.0781 Q462.8281,999.0781 464.4063,997.2969 Q465.9844,995.5 468.7031,995.5 Q470.6094,995.5 472.3438,996.4219 L471.3906,998.3281 Q469.8906,997.5469 468.7031,997.5469 Q467.0938,997.5469 466.1094,998.7656 Q465.1406,999.9688 465.1406,1002.0938 Q465.1406,1004.3438 466.0469,1005.4844 Q466.9688,1006.625 468.7031,1006.625 Q469.7344,1006.625 471.7656,1006.0313 Z " fill="#000000"/><text fill="#000000" font-family="sans-serif" font-size="14" lengthAdjust="spacing" textLength="146" x="485.75" y="1006.8467">Loaner Return Check</text><line style="stroke:#181818;stroke-width:0.5;" x1="438.5" x2="649.5" y1="1018" y2="1018"/><text fill="#000000" font-family="sans-serif" font-size="14" lengthAdjust="spacing" textLength="131" x="443.5" y="1034.9951">linked_loaner : Link</text><text fill="#000000" font-family="sans-serif" font-size="14" lengthAdjust="spacing" textLength="154" x="443.5" y="1051.292">condition_notes : Text</text><text fill="#000000" font-family="sans-serif" font-size="14" lengthAdjust="spacing" textLength="201" x="443.5" y="1067.5889">return_photos : Attach Image</text><text fill="#000000" font-family="sans-serif" font-size="14" lengthAdjust="spacing" textLength="160" x="443.5" y="1083.8857">damage_found : Check</text><text fill="#000000" font-family="sans-serif" font-size="14" lengthAdjust="spacing" textLength="126" x="443.5" y="1100.1826">return_date : Date</text><text fill="#000000" font-family="sans-serif" font-size="14" lengthAdjust="spacing" textLength="142" x="443.5" y="1116.4795">workflow_state : Link</text><line style="stroke:#181818;stroke-width:0.5;" x1="438.5" x2="649.5" y1="1123.7813" y2="1123.7813"/></g><!--class Workflow State--><g id="elem_Workflow State"><rect fill="#F1F1F1" height="48" id="Workflow State" rx="2.5" ry="2.5" style="stroke:#181818;stroke-width:0.5;" width="134" x="1177" y="108.5"/><ellipse cx="1192" cy="124.5" fill="#ADD1B2" rx="11" ry="11" style="stroke:#181818;stroke-width:1.0;"/><path d="M1195.5156,128.5313 L1195.5156,130.5625 Q1194.0313,131.1719 1192.2031,131.1719 Q1189.4844,131.1719 1188.0313,129.4375 Q1186.5781,127.6875 1186.5781,124.5781 Q1186.5781,121.5781 1188.1563,119.7969 Q1189.7344,118 1192.4531,118 Q1194.3594,118 1196.0938,118.9219 L1195.1406,120.8281 Q1193.6406,120.0469 1192.4531,120.0469 Q1190.8438,120.0469 1189.8594,121.2656 Q1188.8906,122.4688 1188.8906,124.5938 Q1188.8906,126.8438 1189.7969,127.9844 Q1190.7188,129.125 1192.4531,129.125 Q1193.4844,129.125 1195.5156,128.5313 Z " fill="#000000"/><text fill="#000000" font-family="sans-serif" font-size="14" lengthAdjust="spacing" textLength="102" x="1206" y="129.3467">Workflow State</text><line style="stroke:#181818;stroke-width:0.5;" x1="1178" x2="1310" y1="140.5" y2="140.5"/><line style="stroke:#181818;stroke-width:0.5;" x1="1178" x2="1310" y1="148.5" y2="148.5"/></g><!--class Item--><g id="elem_Item"><rect fill="#F1F1F1" height="48" id="Item" rx="2.5" ry="2.5" style="stroke:#181818;stroke-width:0.5;" width="62" x="1346" y="108.5"/><ellipse cx="1361" cy="124.5" fill="#ADD1B2" rx="11" ry="11" style="stroke:#181818;stroke-width:1.0;"/><path d="M1364.5156,128.5313 L1364.5156,130.5625 Q1363.0313,131.1719 1361.2031,131.1719 Q1358.4844,131.1719 1357.0313,129.4375 Q1355.5781,127.6875 1355.5781,124.5781 Q1355.5781,121.5781 1357.1563,119.7969 Q1358.7344,118 1361.4531,118 Q1363.3594,118 1365.0938,118.9219 L1364.1406,120.8281 Q1362.6406,120.0469 1361.4531,120.0469 Q1359.8438,120.0469 1358.8594,121.2656 Q1357.8906,122.4688 1357.8906,124.5938 Q1357.8906,126.8438 1358.7969,127.9844 Q1359.7188,129.125 1361.4531,129.125 Q1362.4844,129.125 1364.5156,128.5313 Z " fill="#000000"/><text fill="#000000" font-family="sans-serif" font-size="14" lengthAdjust="spacing" textLength="30" x="1375" y="129.3467">Item</text><line style="stroke:#181818;stroke-width:0.5;" x1="1347" x2="1407" y1="140.5" y2="140.5"/><line style="stroke:#181818;stroke-width:0.5;" x1="1347" x2="1407" y1="148.5" y2="148.5"/></g><!--class Customer Consent Form--><g id="elem_Customer Consent Form"><rect codeLine="86" fill="#A9DFBF" height="113.1875" id="Customer Consent Form" rx="2.5" ry="2.5" style="stroke:#181818;stroke-width:0.5;" width="232" x="850" y="527"/><ellipse cx="878.5" cy="543" fill="#ADD1B2" rx="11" ry="11" style="stroke:#181818;stroke-width:1.0;"/><path d="M882.0156,547.0313 L882.0156,549.0625 Q880.5313,549.6719 878.7031,549.6719 Q875.9844,549.6719 874.5313,547.9375 Q873.0781,546.1875 873.0781,543.0781 Q873.0781,540.0781 874.6563,538.2969 Q876.2344,536.5 878.9531,536.5 Q880.8594,536.5 882.5938,537.4219 L881.6406,539.3281 Q880.1406,538.5469 878.9531,538.5469 Q877.3438,538.5469 876.3594,539.7656 Q875.3906,540.9688 875.3906,543.0938 Q875.3906,545.3438 876.2969,546.4844 Q877.2188,547.625 878.9531,547.625 Q879.9844,547.625 882.0156,547.0313 Z " fill="#000000"/><text fill="#000000" font-family="sans-serif" font-size="14" lengthAdjust="spacing" textLength="170" x="895.5" y="547.8467">Customer Consent Form</text><line style="stroke:#181818;stroke-width:0.5;" x1="851" x2="1081" y1="559" y2="559"/><text fill="#000000" font-family="sans-serif" font-size="14" lengthAdjust="spacing" textLength="106" x="856" y="575.9951">customer : Link</text><text fill="#000000" font-family="sans-serif" font-size="14" lengthAdjust="spacing" textLength="168" x="856" y="592.292">consent_signed : Check</text><text fill="#000000" font-family="sans-serif" font-size="14" lengthAdjust="spacing" textLength="144" x="856" y="608.5889">signature : Signature</text><text fill="#000000" font-family="sans-serif" font-size="14" lengthAdjust="spacing" textLength="220" x="856" y="624.8857">authorization_notes : Small Text</text><line style="stroke:#181818;stroke-width:0.5;" x1="851" x2="1081" y1="632.1875" y2="632.1875"/></g><!--class Supplier--><g id="elem_Supplier"><rect fill="#F1F1F1" height="48" id="Supplier" rx="2.5" ry="2.5" style="stroke:#181818;stroke-width:0.5;" width="88" x="865" y="108.5"/><ellipse cx="880" cy="124.5" fill="#ADD1B2" rx="11" ry="11" style="stroke:#181818;stroke-width:1.0;"/><path d="M883.5156,128.5313 L883.5156,130.5625 Q882.0313,131.1719 880.2031,131.1719 Q877.4844,131.1719 876.0313,129.4375 Q874.5781,127.6875 874.5781,124.5781 Q874.5781,121.5781 876.1563,119.7969 Q877.7344,118 880.4531,118 Q882.3594,118 884.0938,118.9219 L883.1406,120.8281 Q881.6406,120.0469 880.4531,120.0469 Q878.8438,120.0469 877.8594,121.2656 Q876.8906,122.4688 876.8906,124.5938 Q876.8906,126.8438 877.7969,127.9844 Q878.7188,129.125 880.4531,129.125 Q881.4844,129.125 883.5156,128.5313 Z " fill="#000000"/><text fill="#000000" font-family="sans-serif" font-size="14" lengthAdjust="spacing" textLength="56" x="894" y="129.3467">Supplier</text><line style="stroke:#181818;stroke-width:0.5;" x1="866" x2="952" y1="140.5" y2="140.5"/><line style="stroke:#181818;stroke-width:0.5;" x1="866" x2="952" y1="148.5" y2="148.5"/></g><!--class Clarinet Intake--><g id="elem_Clarinet Intake"><rect codeLine="103" fill="#A9DFBF" height="650.9844" id="Clarinet Intake" rx="2.5" ry="2.5" style="stroke:#181818;stroke-width:0.5;" width="216" x="189" y="258"/><ellipse cx="243.75" cy="274" fill="#ADD1B2" rx="11" ry="11" style="stroke:#181818;stroke-width:1.0;"/><path d="M247.2656,278.0313 L247.2656,280.0625 Q245.7813,280.6719 243.9531,280.6719 Q241.2344,280.6719 239.7813,278.9375 Q238.3281,277.1875 238.3281,274.0781 Q238.3281,271.0781 239.9063,269.2969 Q241.4844,267.5 244.2031,267.5 Q246.1094,267.5 247.8438,268.4219 L246.8906,270.3281 Q245.3906,269.5469 244.2031,269.5469 Q242.5938,269.5469 241.6094,270.7656 Q240.6406,271.9688 240.6406,274.0938 Q240.6406,276.3438 241.5469,277.4844 Q242.4688,278.625 244.2031,278.625 Q245.2344,278.625 247.2656,278.0313 Z " fill="#000000"/><text fill="#000000" font-family="sans-serif" font-size="14" lengthAdjust="spacing" textLength="98" x="264.25" y="278.8467">Clarinet Intake</text><line style="stroke:#181818;stroke-width:0.5;" x1="190" x2="404" y1="290" y2="290"/><text fill="#000000" font-family="sans-serif" font-size="14" lengthAdjust="spacing" textLength="156" x="195" y="306.9951">naming_series : Select</text><text fill="#000000" font-family="sans-serif" font-size="14" lengthAdjust="spacing" textLength="106" x="195" y="323.292">intake_id : Data</text><text fill="#000000" font-family="sans-serif" font-size="14" lengthAdjust="spacing" textLength="135" x="195" y="339.5889">intake_type : Select</text><text fill="#000000" font-family="sans-serif" font-size="14" lengthAdjust="spacing" textLength="142" x="195" y="355.8857">serial_number : Data</text><text fill="#000000" font-family="sans-serif" font-size="14" lengthAdjust="spacing" textLength="80" x="195" y="372.1826">brand : Link</text><text fill="#000000" font-family="sans-serif" font-size="14" lengthAdjust="spacing" textLength="88" x="195" y="388.4795">model : Data</text><text fill="#000000" font-family="sans-serif" font-size="14" lengthAdjust="spacing" textLength="151" x="195" y="404.7764">body_material : Select</text><text fill="#000000" font-family="sans-serif" font-size="14" lengthAdjust="spacing" textLength="133" x="195" y="421.0732">key_plating : Select</text><text fill="#000000" font-family="sans-serif" font-size="14" lengthAdjust="spacing" textLength="135" x="195" y="437.3701">year_estimated : Int</text><text fill="#000000" font-family="sans-serif" font-size="14" lengthAdjust="spacing" textLength="198" x="195" y="453.667">instrument_category : Select</text><text fill="#000000" font-family="sans-serif" font-size="14" lengthAdjust="spacing" textLength="95" x="195" y="469.9639">supplier : Link</text><text fill="#000000" font-family="sans-serif" font-size="14" lengthAdjust="spacing" textLength="149" x="195" y="486.2607">purchase_order : Link</text><text fill="#000000" font-family="sans-serif" font-size="14" lengthAdjust="spacing" textLength="160" x="195" y="502.5576">purchase_receipt : Link</text><text fill="#000000" font-family="sans-serif" font-size="14" lengthAdjust="spacing" textLength="117" x="195" y="518.8545">warehouse : Link</text><text fill="#000000" font-family="sans-serif" font-size="14" lengthAdjust="spacing" textLength="143" x="195" y="535.1514">received_date : Date</text><text fill="#000000" font-family="sans-serif" font-size="14" lengthAdjust="spacing" textLength="122" x="195" y="551.4482">received_by : Link</text><text fill="#000000" font-family="sans-serif" font-size="14" lengthAdjust="spacing" textLength="164" x="195" y="567.7451">instrument_profile : Link</text><text fill="#000000" font-family="sans-serif" font-size="14" lengthAdjust="spacing" textLength="144" x="195" y="584.042">stock_status : Select</text><text fill="#000000" font-family="sans-serif" font-size="14" lengthAdjust="spacing" textLength="123" x="195" y="600.3389">qc_status : Select</text><text fill="#000000" font-family="sans-serif" font-size="14" lengthAdjust="spacing" textLength="186" x="195" y="616.6357">inspection_date : Datetime</text><text fill="#000000" font-family="sans-serif" font-size="14" lengthAdjust="spacing" textLength="132" x="195" y="632.9326">inspected_by : Link</text><text fill="#000000" font-family="sans-serif" font-size="14" lengthAdjust="spacing" textLength="106" x="195" y="649.2295">customer : Link</text><text fill="#000000" font-family="sans-serif" font-size="14" lengthAdjust="spacing" textLength="148" x="195" y="665.5264">repair_priority : Select</text><text fill="#000000" font-family="sans-serif" font-size="14" lengthAdjust="spacing" textLength="111" x="195" y="681.8232">due_date : Date</text><text fill="#000000" font-family="sans-serif" font-size="14" lengthAdjust="spacing" textLength="156" x="195" y="698.1201">customer_notes : Text</text><text fill="#000000" font-family="sans-serif" font-size="14" lengthAdjust="spacing" textLength="182" x="195" y="714.417">follow_up_due_date : Date</text><text fill="#000000" font-family="sans-serif" font-size="14" lengthAdjust="spacing" textLength="202" x="195" y="730.7139">follow_up_completed : Check</text><text fill="#000000" font-family="sans-serif" font-size="14" lengthAdjust="spacing" textLength="112" x="195" y="747.0107">checklist : Table</text><text fill="#000000" font-family="sans-serif" font-size="14" lengthAdjust="spacing" textLength="193" x="195" y="763.3076">initial_photos : Attach Image</text><text fill="#000000" font-family="sans-serif" font-size="14" lengthAdjust="spacing" textLength="144" x="195" y="779.6045">attachments : Attach</text><text fill="#000000" font-family="sans-serif" font-size="14" lengthAdjust="spacing" textLength="154" x="195" y="795.9014">condition_notes : Text</text><text fill="#000000" font-family="sans-serif" font-size="14" lengthAdjust="spacing" textLength="136" x="195" y="812.1982">intake_duration : Int</text><text fill="#000000" font-family="sans-serif" font-size="14" lengthAdjust="spacing" textLength="142" x="195" y="828.4951">workflow_state : Link</text><text fill="#000000" font-family="sans-serif" font-size="14" lengthAdjust="spacing" textLength="121" x="195" y="844.792">created_by : Data</text><text fill="#000000" font-family="sans-serif" font-size="14" lengthAdjust="spacing" textLength="170" x="195" y="861.0889">creation_date : Datetime</text><text fill="#000000" font-family="sans-serif" font-size="14" lengthAdjust="spacing" textLength="158" x="195" y="877.3857">last_modified_by : Data</text><text fill="#000000" font-family="sans-serif" font-size="14" lengthAdjust="spacing" textLength="204" x="195" y="893.6826">last_modified_date : Datetime</text><line style="stroke:#181818;stroke-width:0.5;" x1="190" x2="404" y1="900.9844" y2="900.9844"/></g><!--class Purchase Order--><g id="elem_Purchase Order"><rect fill="#F1F1F1" height="48" id="Purchase Order" rx="2.5" ry="2.5" style="stroke:#181818;stroke-width:0.5;" width="140" x="690" y="108.5"/><ellipse cx="705" cy="124.5" fill="#ADD1B2" rx="11" ry="11" style="stroke:#181818;stroke-width:1.0;"/><path d="M708.5156,128.5313 L708.5156,130.5625 Q707.0313,131.1719 705.2031,131.1719 Q702.4844,131.1719 701.0313,129.4375 Q699.5781,127.6875 699.5781,124.5781 Q699.5781,121.5781 701.1563,119.7969 Q702.7344,118 705.4531,118 Q707.3594,118 709.0938,118.9219 L708.1406,120.8281 Q706.6406,120.0469 705.4531,120.0469 Q703.8438,120.0469 702.8594,121.2656 Q701.8906,122.4688 701.8906,124.5938 Q701.8906,126.8438 702.7969,127.9844 Q703.7188,129.125 705.4531,129.125 Q706.4844,129.125 708.5156,128.5313 Z " fill="#000000"/><text fill="#000000" font-family="sans-serif" font-size="14" lengthAdjust="spacing" textLength="108" x="719" y="129.3467">Purchase Order</text><line style="stroke:#181818;stroke-width:0.5;" x1="691" x2="829" y1="140.5" y2="140.5"/><line style="stroke:#181818;stroke-width:0.5;" x1="691" x2="829" y1="148.5" y2="148.5"/></g><!--class Purchase Receipt--><g id="elem_Purchase Receipt"><rect fill="#F1F1F1" height="48" id="Purchase Receipt" rx="2.5" ry="2.5" style="stroke:#181818;stroke-width:0.5;" width="154" x="501" y="108.5"/><ellipse cx="516" cy="124.5" fill="#ADD1B2" rx="11" ry="11" style="stroke:#181818;stroke-width:1.0;"/><path d="M519.5156,128.5313 L519.5156,130.5625 Q518.0313,131.1719 516.2031,131.1719 Q513.4844,131.1719 512.0313,129.4375 Q510.5781,127.6875 510.5781,124.5781 Q510.5781,121.5781 512.1563,119.7969 Q513.7344,118 516.4531,118 Q518.3594,118 520.0938,118.9219 L519.1406,120.8281 Q517.6406,120.0469 516.4531,120.0469 Q514.8438,120.0469 513.8594,121.2656 Q512.8906,122.4688 512.8906,124.5938 Q512.8906,126.8438 513.7969,127.9844 Q514.7188,129.125 516.4531,129.125 Q517.4844,129.125 519.5156,128.5313 Z " fill="#000000"/><text fill="#000000" font-family="sans-serif" font-size="14" lengthAdjust="spacing" textLength="122" x="530" y="129.3467">Purchase Receipt</text><line style="stroke:#181818;stroke-width:0.5;" x1="502" x2="654" y1="140.5" y2="140.5"/><line style="stroke:#181818;stroke-width:0.5;" x1="502" x2="654" y1="148.5" y2="148.5"/></g><!--class Warehouse--><g id="elem_Warehouse"><rect fill="#F1F1F1" height="48" id="Warehouse" rx="2.5" ry="2.5" style="stroke:#181818;stroke-width:0.5;" width="111" x="45.5" y="108.5"/><ellipse cx="60.5" cy="124.5" fill="#ADD1B2" rx="11" ry="11" style="stroke:#181818;stroke-width:1.0;"/><path d="M64.0156,128.5313 L64.0156,130.5625 Q62.5313,131.1719 60.7031,131.1719 Q57.9844,131.1719 56.5313,129.4375 Q55.0781,127.6875 55.0781,124.5781 Q55.0781,121.5781 56.6563,119.7969 Q58.2344,118 60.9531,118 Q62.8594,118 64.5938,118.9219 L63.6406,120.8281 Q62.1406,120.0469 60.9531,120.0469 Q59.3438,120.0469 58.3594,121.2656 Q57.3906,122.4688 57.3906,124.5938 Q57.3906,126.8438 58.2969,127.9844 Q59.2188,129.125 60.9531,129.125 Q61.9844,129.125 64.0156,128.5313 Z " fill="#000000"/><text fill="#000000" font-family="sans-serif" font-size="14" lengthAdjust="spacing" textLength="79" x="74.5" y="129.3467">Warehouse</text><line style="stroke:#181818;stroke-width:0.5;" x1="46.5" x2="155.5" y1="140.5" y2="140.5"/><line style="stroke:#181818;stroke-width:0.5;" x1="46.5" x2="155.5" y1="148.5" y2="148.5"/></g><!--class User--><g id="elem_User"><rect fill="#F1F1F1" height="48" id="User" rx="2.5" ry="2.5" style="stroke:#181818;stroke-width:0.5;" width="64" x="402" y="108.5"/><ellipse cx="417" cy="124.5" fill="#ADD1B2" rx="11" ry="11" style="stroke:#181818;stroke-width:1.0;"/><path d="M420.5156,128.5313 L420.5156,130.5625 Q419.0313,131.1719 417.2031,131.1719 Q414.4844,131.1719 413.0313,129.4375 Q411.5781,127.6875 411.5781,124.5781 Q411.5781,121.5781 413.1563,119.7969 Q414.7344,118 417.4531,118 Q419.3594,118 421.0938,118.9219 L420.1406,120.8281 Q418.6406,120.0469 417.4531,120.0469 Q415.8438,120.0469 414.8594,121.2656 Q413.8906,122.4688 413.8906,124.5938 Q413.8906,126.8438 414.7969,127.9844 Q415.7188,129.125 417.4531,129.125 Q418.4844,129.125 420.5156,128.5313 Z " fill="#000000"/><text fill="#000000" font-family="sans-serif" font-size="14" lengthAdjust="spacing" textLength="32" x="431" y="129.3467">User</text><line style="stroke:#181818;stroke-width:0.5;" x1="403" x2="465" y1="140.5" y2="140.5"/><line style="stroke:#181818;stroke-width:0.5;" x1="403" x2="465" y1="148.5" y2="148.5"/></g><!--class Instrument Profile--><g id="elem_Instrument Profile"><rect fill="#F1F1F1" height="48" id="Instrument Profile" rx="2.5" ry="2.5" style="stroke:#181818;stroke-width:0.5;" width="153" x="988.5" y="108.5"/><ellipse cx="1003.5" cy="124.5" fill="#ADD1B2" rx="11" ry="11" style="stroke:#181818;stroke-width:1.0;"/><path d="M1007.0156,128.5313 L1007.0156,130.5625 Q1005.5313,131.1719 1003.7031,131.1719 Q1000.9844,131.1719 999.5313,129.4375 Q998.0781,127.6875 998.0781,124.5781 Q998.0781,121.5781 999.6563,119.7969 Q1001.2344,118 1003.9531,118 Q1005.8594,118 1007.5938,118.9219 L1006.6406,120.8281 Q1005.1406,120.0469 1003.9531,120.0469 Q1002.3438,120.0469 1001.3594,121.2656 Q1000.3906,122.4688 1000.3906,124.5938 Q1000.3906,126.8438 1001.2969,127.9844 Q1002.2188,129.125 1003.9531,129.125 Q1004.9844,129.125 1007.0156,128.5313 Z " fill="#000000"/><text fill="#000000" font-family="sans-serif" font-size="14" lengthAdjust="spacing" textLength="121" x="1017.5" y="129.3467">Instrument Profile</text><line style="stroke:#181818;stroke-width:0.5;" x1="989.5" x2="1140.5" y1="140.5" y2="140.5"/><line style="stroke:#181818;stroke-width:0.5;" x1="989.5" x2="1140.5" y1="148.5" y2="148.5"/></g><!--class Appointment Workflow--><g id="elem_Appointment Workflow"><rect codeLine="142" fill="#A9DFBF" height="48" id="Appointment Workflow" rx="2.5" ry="2.5" style="stroke:#181818;stroke-width:0.5;" width="187" x="2047.5" y="1193"/><ellipse cx="2062.5" cy="1209" fill="#ADD1B2" rx="11" ry="11" style="stroke:#181818;stroke-width:1.0;"/><path d="M2066.0156,1213.0313 L2066.0156,1215.0625 Q2064.5313,1215.6719 2062.7031,1215.6719 Q2059.9844,1215.6719 2058.5313,1213.9375 Q2057.0781,1212.1875 2057.0781,1209.0781 Q2057.0781,1206.0781 2058.6563,1204.2969 Q2060.2344,1202.5 2062.9531,1202.5 Q2064.8594,1202.5 2066.5938,1203.4219 L2065.6406,1205.3281 Q2064.1406,1204.5469 2062.9531,1204.5469 Q2061.3438,1204.5469 2060.3594,1205.7656 Q2059.3906,1206.9688 2059.3906,1209.0938 Q2059.3906,1211.3438 2060.2969,1212.4844 Q2061.2188,1213.625 2062.9531,1213.625 Q2063.9844,1213.625 2066.0156,1213.0313 Z " fill="#000000"/><text fill="#000000" font-family="sans-serif" font-size="14" lengthAdjust="spacing" textLength="155" x="2076.5" y="1213.8467">Appointment Workflow</text><line style="stroke:#181818;stroke-width:0.5;" x1="2048.5" x2="2233.5" y1="1225" y2="1225"/><line style="stroke:#181818;stroke-width:0.5;" x1="2048.5" x2="2233.5" y1="1233" y2="1233"/></g><!--class Loaner Return Check Workflow--><g id="elem_Loaner Return Check Workflow"><rect codeLine="144" fill="#A9DFBF" height="48" id="Loaner Return Check Workflow" rx="2.5" ry="2.5" style="stroke:#181818;stroke-width:0.5;" width="244" x="936" y="1302"/><ellipse cx="951" cy="1318" fill="#ADD1B2" rx="11" ry="11" style="stroke:#181818;stroke-width:1.0;"/><path d="M954.5156,1322.0313 L954.5156,1324.0625 Q953.0313,1324.6719 951.2031,1324.6719 Q948.4844,1324.6719 947.0313,1322.9375 Q945.5781,1321.1875 945.5781,1318.0781 Q945.5781,1315.0781 947.1563,1313.2969 Q948.7344,1311.5 951.4531,1311.5 Q953.3594,1311.5 955.0938,1312.4219 L954.1406,1314.3281 Q952.6406,1313.5469 951.4531,1313.5469 Q949.8438,1313.5469 948.8594,1314.7656 Q947.8906,1315.9688 947.8906,1318.0938 Q947.8906,1320.3438 948.7969,1321.4844 Q949.7188,1322.625 951.4531,1322.625 Q952.4844,1322.625 954.5156,1322.0313 Z " fill="#000000"/><text fill="#000000" font-family="sans-serif" font-size="14" lengthAdjust="spacing" textLength="212" x="965" y="1322.8467">Loaner Return Check Workflow</text><line style="stroke:#181818;stroke-width:0.5;" x1="937" x2="1179" y1="1334" y2="1334"/><line style="stroke:#181818;stroke-width:0.5;" x1="937" x2="1179" y1="1342" y2="1342"/></g><!--class Clarinet Intake Workflow--><g id="elem_Clarinet Intake Workflow"><rect codeLine="146" fill="#A9DFBF" height="48" id="Clarinet Intake Workflow" rx="2.5" ry="2.5" style="stroke:#181818;stroke-width:0.5;" width="196" x="1215" y="1302"/><ellipse cx="1230" cy="1318" fill="#ADD1B2" rx="11" ry="11" style="stroke:#181818;stroke-width:1.0;"/><path d="M1233.5156,1322.0313 L1233.5156,1324.0625 Q1232.0313,1324.6719 1230.2031,1324.6719 Q1227.4844,1324.6719 1226.0313,1322.9375 Q1224.5781,1321.1875 1224.5781,1318.0781 Q1224.5781,1315.0781 1226.1563,1313.2969 Q1227.7344,1311.5 1230.4531,1311.5 Q1232.3594,1311.5 1234.0938,1312.4219 L1233.1406,1314.3281 Q1231.6406,1313.5469 1230.4531,1313.5469 Q1228.8438,1313.5469 1227.8594,1314.7656 Q1226.8906,1315.9688 1226.8906,1318.0938 Q1226.8906,1320.3438 1227.7969,1321.4844 Q1228.7188,1322.625 1230.4531,1322.625 Q1231.4844,1322.625 1233.5156,1322.0313 Z " fill="#000000"/><text fill="#000000" font-family="sans-serif" font-size="14" lengthAdjust="spacing" textLength="164" x="1244" y="1322.8467">Clarinet Intake Workflow</text><line style="stroke:#181818;stroke-width:0.5;" x1="1216" x2="1410" y1="1334" y2="1334"/><line style="stroke:#181818;stroke-width:0.5;" x1="1216" x2="1410" y1="1342" y2="1342"/></g><!--class Intake Receipt--><g id="elem_Intake Receipt"><rect codeLine="148" fill="#A9DFBF" height="48" id="Intake Receipt" rx="2.5" ry="2.5" style="stroke:#181818;stroke-width:0.5;" width="131" x="1446.5" y="1302"/><ellipse cx="1461.5" cy="1318" fill="#ADD1B2" rx="11" ry="11" style="stroke:#181818;stroke-width:1.0;"/><path d="M1465.0156,1322.0313 L1465.0156,1324.0625 Q1463.5313,1324.6719 1461.7031,1324.6719 Q1458.9844,1324.6719 1457.5313,1322.9375 Q1456.0781,1321.1875 1456.0781,1318.0781 Q1456.0781,1315.0781 1457.6563,1313.2969 Q1459.2344,1311.5 1461.9531,1311.5 Q1463.8594,1311.5 1465.5938,1312.4219 L1464.6406,1314.3281 Q1463.1406,1313.5469 1461.9531,1313.5469 Q1460.3438,1313.5469 1459.3594,1314.7656 Q1458.3906,1315.9688 1458.3906,1318.0938 Q1458.3906,1320.3438 1459.2969,1321.4844 Q1460.2188,1322.625 1461.9531,1322.625 Q1462.9844,1322.625 1465.0156,1322.0313 Z " fill="#000000"/><text fill="#000000" font-family="sans-serif" font-size="14" lengthAdjust="spacing" textLength="99" x="1475.5" y="1322.8467">Intake Receipt</text><line style="stroke:#181818;stroke-width:0.5;" x1="1447.5" x2="1576.5" y1="1334" y2="1334"/><line style="stroke:#181818;stroke-width:0.5;" x1="1447.5" x2="1576.5" y1="1342" y2="1342"/></g><!--reverse link Customer to Clarinet Intake Request--><g id="link_Customer_Clarinet Intake Request"><path codeLine="40" d="M1532.07,164.3 C1541.2,170.48 1551.14,176.46 1561,181 C1611.53,204.26 1714.45,186.87 1677,228 C1628.91,280.81 1414.16,215.18 1357,258 C1280.1,315.61 1248.97,426.28 1236.42,502.21 " fill="none" id="Customer-backto-Clarinet Intake Request" style="stroke:#181818;stroke-width:1.0;"/><polygon fill="#181818" points="1521.4,156.74,1523.9858,163.4715,1531.1941,163.6736,1528.6083,156.9421,1521.4,156.74" style="stroke:#181818;stroke-width:1.0;"/><text fill="#000000" font-family="sans-serif" font-size="13" lengthAdjust="spacing" textLength="61" x="1686" y="224.0669">customer</text></g><!--reverse link Loaner Instrument to Loaner Return Check--><g id="link_Loaner Instrument_Loaner Return Check"><path codeLine="65" d="M680.36,669.05 C648.72,759.29 599.14,900.73 569.28,985.88 " fill="none" id="Loaner Instrument-backto-Loaner Return Check" style="stroke:#181818;stroke-width:1.0;"/><polygon fill="#181818" points="684.7,656.67,678.9364,661.0037,680.7199,667.9907,686.4836,663.6571,684.7,656.67" style="stroke:#181818;stroke-width:1.0;"/><text fill="#000000" font-family="sans-serif" font-size="13" lengthAdjust="spacing" textLength="84" x="586" y="952.0669">linked_loaner</text></g><!--reverse link Workflow State to Loaner Return Check--><g id="link_Workflow State_Loaner Return Check"><path codeLine="66" d="M1253.19,169.82 C1255.87,189.69 1254.83,213.2 1240,228 C1181.12,286.75 549.63,198.02 492,258 C391.78,362.32 467.83,766.37 492,909 C496.35,934.66 504.63,961.8 513.33,985.78 " fill="none" id="Workflow State-backto-Loaner Return Check" style="stroke:#181818;stroke-width:1.0;"/><polygon fill="#181818" points="1250.86,156.8,1247.9842,163.4128,1252.9823,168.6108,1255.8581,161.998,1250.86,156.8" style="stroke:#181818;stroke-width:1.0;"/><text fill="#000000" font-family="sans-serif" font-size="13" lengthAdjust="spacing" textLength="93" x="493" y="588.0669">workflow_state</text></g><!--reverse link Item to Loaner Instrument--><g id="link_Item_Loaner Instrument"><path codeLine="75" d="M1348.2,166.25 C1326.3,188.49 1294.03,215.97 1259,228 C1169.03,258.89 908.26,201.14 832,258 C752.63,317.18 724.89,434.29 715.2,510.45 " fill="none" id="Item-backto-Loaner Instrument" style="stroke:#181818;stroke-width:1.0;"/><polygon fill="#181818" points="1357.22,156.78,1350.185,158.3641,1348.9415,165.4671,1355.9765,163.8831,1357.22,156.78" style="stroke:#181818;stroke-width:1.0;"/><text fill="#000000" font-family="sans-serif" font-size="13" lengthAdjust="spacing" textLength="67" x="1293" y="224.0669">item_code</text></g><!--reverse link Customer to Loaner Instrument--><g id="link_Customer_Loaner Instrument"><path codeLine="76" d="M1494.48,169.55 C1493.22,189.91 1487.8,214.01 1471,228 C1416.38,273.49 889.47,216.18 832,258 C751.82,316.34 724.31,433.99 714.89,510.44 " fill="none" id="Customer-backto-Loaner Instrument" style="stroke:#181818;stroke-width:1.0;"/><polygon fill="#181818" points="1494.78,156.54,1490.6426,162.4461,1494.5032,168.5368,1498.6405,162.6307,1494.78,156.54" style="stroke:#181818;stroke-width:1.0;"/><text fill="#000000" font-family="sans-serif" font-size="13" lengthAdjust="spacing" textLength="61" x="1484" y="224.0669">issued_to</text></g><!--reverse link Customer to Customer Consent Form--><g id="link_Customer_Customer Consent Form"><path codeLine="85" d="M1538.5,165.21 C1552.61,177.68 1566.43,193.29 1574,211 C1576.97,217.95 1579.17,222.49 1574,228 C1501.76,304.95 1185.83,196.57 1100,258 C1012.27,320.79 981.8,451.88 971.34,526.8 " fill="none" id="Customer-backto-Customer Consent Form" style="stroke:#181818;stroke-width:1.0;"/><polygon fill="#181818" points="1528.26,156.69,1530.3115,163.6031,1537.4819,164.3683,1535.4304,157.4552,1528.26,156.69" style="stroke:#181818;stroke-width:1.0;"/><text fill="#000000" font-family="sans-serif" font-size="13" lengthAdjust="spacing" textLength="61" x="1578" y="224.0669">customer</text></g><!--reverse link Supplier to Clarinet Intake--><g id="link_Supplier_Clarinet Intake"><path codeLine="92" d="M875.13,165.43 C849.51,187.4 812.3,214.89 774,228 C701.82,252.7 493.55,212.93 432,258 C422.4,265.03 413.48,272.87 405.19,281.36 " fill="none" id="Supplier-backto-Clarinet Intake" style="stroke:#181818;stroke-width:1.0;"/><polygon fill="#181818" points="885.03,156.72,877.884,157.6866,876.0277,164.6547,883.1737,163.6881,885.03,156.72" style="stroke:#181818;stroke-width:1.0;"/><text fill="#000000" font-family="sans-serif" font-size="13" lengthAdjust="spacing" textLength="37" x="812" y="224.0669">brand</text></g><!--reverse link Supplier to Clarinet Intake--><g id="link_Supplier_Clarinet Intake"><path codeLine="93" d="M899.23,169.2 C891.57,190 878.66,214.67 858,228 C778.26,279.46 509.05,202.59 432,258 C422.34,264.95 413.37,272.72 405.04,281.15 " fill="none" id="Supplier-backto-Clarinet Intake-1" style="stroke:#181818;stroke-width:1.0;"/><polygon fill="#181818" points="903.44,156.58,897.7464,161.0052,899.6413,167.9629,905.3349,163.5377,903.44,156.58" style="stroke:#181818;stroke-width:1.0;"/><text fill="#000000" font-family="sans-serif" font-size="13" lengthAdjust="spacing" textLength="50" x="877" y="224.0669">supplier</text></g><!--reverse link Purchase Order to Clarinet Intake--><g id="link_Purchase Order_Clarinet Intake"><path codeLine="94" d="M726.83,165.43 C702.75,186.69 668.31,213.32 633,228 C549.6,262.67 503.22,202.45 432,258 C422.38,265.5 413.43,273.82 405.12,282.77 " fill="none" id="Purchase Order-backto-Clarinet Intake" style="stroke:#181818;stroke-width:1.0;"/><polygon fill="#181818" points="736.5,156.7,729.3665,157.7552,727.5969,164.7458,734.7304,163.6906,736.5,156.7" style="stroke:#181818;stroke-width:1.0;"/><text fill="#000000" font-family="sans-serif" font-size="13" lengthAdjust="spacing" textLength="100" x="665" y="224.0669">purchase_order</text></g><!--reverse link Purchase Receipt to Clarinet Intake--><g id="link_Purchase Receipt_Clarinet Intake"><path codeLine="95" d="M553.5,167.16 C538.05,186.71 516.75,210.8 494,228 C469.58,246.46 453.03,235.75 432,258 C422.47,268.09 413.56,278.95 405.24,290.36 " fill="none" id="Purchase Receipt-backto-Clarinet Intake" style="stroke:#181818;stroke-width:1.0;"/><polygon fill="#181818" points="561.46,156.84,554.6305,159.1546,554.1403,166.349,560.9698,164.0344,561.46,156.84" style="stroke:#181818;stroke-width:1.0;"/><text fill="#000000" font-family="sans-serif" font-size="13" lengthAdjust="spacing" textLength="110" x="514" y="224.0669">purchase_receipt</text></g><!--reverse link Warehouse to Clarinet Intake--><g id="link_Warehouse_Clarinet Intake"><path codeLine="96" d="M100.67,169.6 C101.36,187.48 103.47,209.21 109,228 C127.53,290.99 157.89,355.65 188.87,412.21 " fill="none" id="Warehouse-backto-Clarinet Intake" style="stroke:#181818;stroke-width:1.0;"/><polygon fill="#181818" points="100.39,156.5,96.5228,162.5864,100.6537,168.4971,104.5209,162.4107,100.39,156.5" style="stroke:#181818;stroke-width:1.0;"/><text fill="#000000" font-family="sans-serif" font-size="13" lengthAdjust="spacing" textLength="69" x="110" y="224.0669">warehouse</text></g><!--reverse link User to Clarinet Intake--><g id="link_User_Clarinet Intake"><path codeLine="97" d="M404.06,166.11 C397.84,171.63 391.02,176.9 384,181 C344.66,203.97 313.09,174.38 286,211 C275.26,225.53 266.99,241.32 260.8,257.93 " fill="none" id="User-backto-Clarinet Intake" style="stroke:#181818;stroke-width:1.0;"/><polygon fill="#181818" points="413.91,156.72,406.8069,157.9635,405.2229,164.9985,412.3259,163.755,413.91,156.72" style="stroke:#181818;stroke-width:1.0;"/><text fill="#000000" font-family="sans-serif" font-size="13" lengthAdjust="spacing" textLength="76" x="287" y="224.0669">received_by</text></g><!--reverse link User to Clarinet Intake--><g id="link_User_Clarinet Intake"><path codeLine="99" d="M419.48,169.04 C414.33,182.14 408.66,197.16 404,211 C398.86,226.27 393.74,241.93 388.69,257.8 " fill="none" id="User-backto-Clarinet Intake-1" style="stroke:#181818;stroke-width:1.0;"/><polygon fill="#181818" points="424.4,156.7,418.4661,160.7974,419.9661,167.8508,425.9,163.7534,424.4,156.7" style="stroke:#181818;stroke-width:1.0;"/><text fill="#000000" font-family="sans-serif" font-size="13" lengthAdjust="spacing" textLength="84" x="405" y="224.0669">inspected_by</text></g><!--reverse link Instrument Profile to Clarinet Intake--><g id="link_Instrument Profile_Clarinet Intake"><path codeLine="98" d="M1032.52,165.6 C1008.16,187.46 972.79,214.74 936,228 C830.45,266.03 523.45,192.99 432,258 C422.43,264.81 413.53,272.42 405.26,280.69 " fill="none" id="Instrument Profile-backto-Clarinet Intake" style="stroke:#181818;stroke-width:1.0;"/><polygon fill="#181818" points="1042.26,156.62,1035.1376,157.7474,1033.4388,164.7555,1040.5613,163.6282,1042.26,156.62" style="stroke:#181818;stroke-width:1.0;"/><text fill="#000000" font-family="sans-serif" font-size="13" lengthAdjust="spacing" textLength="116" x="973" y="224.0669">instrument_profile</text></g><!--reverse link Customer to Clarinet Intake--><g id="link_Customer_Clarinet Intake"><path codeLine="100" d="M1456.52,165.05 C1427,189.81 1387.27,221.19 1368,228 C1269.89,262.67 517.63,198.88 432,258 C422.33,264.67 413.36,272.18 405.02,280.35 " fill="none" id="Customer-backto-Clarinet Intake" style="stroke:#181818;stroke-width:1.0;"/><polygon fill="#181818" points="1466.48,156.62,1459.3152,157.4356,1457.3124,164.363,1464.4772,163.5474,1466.48,156.62" style="stroke:#181818;stroke-width:1.0;"/><text fill="#000000" font-family="sans-serif" font-size="13" lengthAdjust="spacing" textLength="61" x="1397" y="224.0669">customer</text></g><!--reverse link Intake Checklist Item to Clarinet Intake--><g id="link_Intake Checklist Item_Clarinet Intake"><path codeLine="101" d="M201.14,191.31 C196.36,197.46 192.19,204.04 189,211 C185.85,217.87 187.89,220.53 189,228 C190.47,237.86 192.16,247.83 194.03,257.86 " fill="none" id="Intake Checklist Item-backto-Clarinet Intake" style="stroke:#181818;stroke-width:1.0;"/><polygon fill="#181818" points="209.71,181.36,202.7627,183.2925,201.8745,190.4487,208.8218,188.5162,209.71,181.36" style="stroke:#181818;stroke-width:1.0;"/><text fill="#000000" font-family="sans-serif" font-size="13" lengthAdjust="spacing" textLength="55" x="190" y="224.0669">checklist</text></g><!--reverse link Workflow State to Clarinet Intake--><g id="link_Workflow State_Clarinet Intake"><path codeLine="102" d="M1207.56,164.99 C1179.62,187.06 1139,214.88 1098,228 C1027.45,250.58 492.68,215.52 432,258 C422.38,264.74 413.44,272.29 405.14,280.51 " fill="none" id="Workflow State-backto-Clarinet Intake" style="stroke:#181818;stroke-width:1.0;"/><polygon fill="#181818" points="1217.99,156.55,1210.8101,157.2203,1208.6674,164.1057,1215.8472,163.4354,1217.99,156.55" style="stroke:#181818;stroke-width:1.0;"/><text fill="#000000" font-family="sans-serif" font-size="13" lengthAdjust="spacing" textLength="93" x="1138" y="224.0669">workflow_state</text></g><!--SRC=[fLR1Rjiu4BtxAmZtja3tla5Hm77Ms015quqJz4ZGqjWcJ94iIINrBlhlEvH8YRGf9S3Ux9at8_BDc-5eLftO0OW1pRYXMXd7nEzSEdO2ykdJHeaQpEVFvDz59PYrPBbciW8Xe5wI3wi_xZQt6_JzYjujk5ONFL_XjMZ_UrqqRmGx72O-SY-jXifn9OlkFst517CJmN_XZOgEHwY0lqn4hPNSSzDCUBye9i5Oyj0wwvYikJpCuCXJQwHw0JDnkOxwspEvO-SoDKe8zKgUDLchHWlk2r84FkjADNWMij9QOKaRaCx-lvHte9NbZjmYmuWXgyCRTtr4GHX9V3djp7rprtBTMgSQpz1l7pyY-u8PBi6HGCuZ_6Z1kYMv8LL03eMQWexv2R5WE1DKjiqEZtY3J3k6vfWBBL-uFA65I-jCwtcZ5IhgeCmPdLiGA3zqco0PMgEppmDehbkuiCJCL2e75krFyDFr-OEIQUM91rGjUjT7g4uZHG-e5SmPhbIcCIsn5yztWDCCtvRSOSAjccYXrSiX4lYaa4C_6yWJRs1M_jsnyGBO1dFIxc22MwoHWoQlJELzbACzAKj86tb1YshwYs8j6YP4JoVg9eZkVYXR450knYwD5u_0AcFrHETTBByhSzhxFjWwBDjyw6l0KkknPT47S7g_x8kZpYg5GwEJmOL0J9U9wgDoofjNph7gIEuRdDbUQSp_e7lLofIV49LhC3zn_3QIrbSXlMpAtmtnrK1vrd3LbsMujIrUqQaBKb9KHaddfdrFZbKVlffqOynyPSfl2ZzzKw6vo4DlpFhiQjx4GO1Zt-A1oKQPfZXjoi1CqLT3fUgnrFA3p6Jj3GmFvm-xZR_HpbftL8R_mpA5vChVjXhdzjJ4z6VV6NoPtWEq0R5OVcjDTMGMo8Efvo9qm57bSKbSzwPgzuv8qoEn2Pc1esejJ0UzHiXY-MpdpZNCvzrviHprHxuPjUTYvWl9tDSzzgrFXKaUlZN_VcLAcfgAau4HDp6lIdmLPzKLC5MjP7vnw9go5rjyylhDaF8wwTJUvCuQKkJ48zl9S6o61ZiywVgTgi-qmLE6OJ1aEy6PQjpg_3gJcC_03CNtdViOdnOly_Qx7HK-7YDNSC4Uz3bw1X6Efebr855XSRC82Xjzg0ny17snsepx7rN1cAmGoMUH41YT5z- -7abn-pSSvupBk7h_ChFlbaZQQdeTC_gkznmoQjedOplH7nqVHDJFrDF7khzn3UYTSozfK6dTccwC3b8fFukOo00RY8kRYBULcSQUSXJ5pFVy8YZtN4QM5ZWI6_iTYtL7uNp0vKey2nxMvZ2uKyYl_m00]--></g></svg>