<?xml version="1.0" encoding="us-ascii" standalone="no"?><svg xmlns="http://www.w3.org/2000/svg" xmlns:xlink="http://www.w3.org/1999/xlink" contentStyleType="text/css" height="560px" preserveAspectRatio="none" style="width:1191px;height:560px;background:#FFFFFF;" version="1.1" viewBox="0 0 1191 560" width="1191px" zoomAndPan="magnify"><defs/><g><!--cluster repair_portal--><g id="cluster_repair_portal"><path d="M8.5,6 L109.5,6 A3.75,3.75 0 0 1 112,8.5 L119,28.2969 L1181.5,28.2969 A2.5,2.5 0 0 1 1184,30.7969 L1184,550.5 A2.5,2.5 0 0 1 1181.5,553 L8.5,553 A2.5,2.5 0 0 1 6,550.5 L6,8.5 A2.5,2.5 0 0 1 8.5,6 " fill="none" style="stroke:#000000;stroke-width:1.5;"/><line style="stroke:#000000;stroke-width:1.5;" x1="6" x2="119" y1="28.2969" y2="28.2969"/><text fill="#000000" font-family="sans-serif" font-size="14" font-weight="bold" lengthAdjust="spacing" textLength="100" x="10" y="20.9951">repair_portal</text></g><!--cluster tools--><g id="cluster_tools"><path d="M32.5,49 L72.5,49 A3.75,3.75 0 0 1 75,51.5 L82,71.2969 L1157.5,71.2969 A2.5,2.5 0 0 1 1160,73.7969 L1160,526.5 A2.5,2.5 0 0 1 1157.5,529 L32.5,529 A2.5,2.5 0 0 1 30,526.5 L30,51.5 A2.5,2.5 0 0 1 32.5,49 " fill="none" style="stroke:#000000;stroke-width:1.5;"/><line style="stroke:#000000;stroke-width:1.5;" x1="30" x2="82" y1="71.2969" y2="71.2969"/><text fill="#000000" font-family="sans-serif" font-size="14" font-weight="bold" lengthAdjust="spacing" textLength="39" x="34" y="63.9951">tools</text></g><!--class Retired--><g id="elem_Retired"><rect codeLine="2" fill="#AED6F1" height="48" id="Retired" rx="2.5" ry="2.5" style="stroke:#181818;stroke-width:0.5;" width="82" x="549" y="84"/><ellipse cx="564" cy="100" fill="#ADD1B2" rx="11" ry="11" style="stroke:#181818;stroke-width:1.0;"/><path d="M567.5156,104.0313 L567.5156,106.0625 Q566.0313,106.6719 564.2031,106.6719 Q561.4844,106.6719 560.0313,104.9375 Q558.5781,103.1875 558.5781,100.0781 Q558.5781,97.0781 560.1563,95.2969 Q561.7344,93.5 564.4531,93.5 Q566.3594,93.5 568.0938,94.4219 L567.1406,96.3281 Q565.6406,95.5469 564.4531,95.5469 Q562.8438,95.5469 561.8594,96.7656 Q560.8906,97.9688 560.8906,100.0938 Q560.8906,102.3438 561.7969,103.4844 Q562.7188,104.625 564.4531,104.625 Q565.4844,104.625 567.5156,104.0313 Z " fill="#000000"/><text fill="#000000" font-family="sans-serif" font-size="14" lengthAdjust="spacing" textLength="50" x="578" y="104.8467">Retired</text><line style="stroke:#181818;stroke-width:0.5;" x1="550" x2="630" y1="116" y2="116"/><line style="stroke:#181818;stroke-width:0.5;" x1="550" x2="630" y1="124" y2="124"/></g><!--class Available--><g id="elem_Available"><rect codeLine="4" fill="#AED6F1" height="48" id="Available" rx="2.5" ry="2.5" style="stroke:#181818;stroke-width:0.5;" width="91" x="666.5" y="84"/><ellipse cx="681.5" cy="100" fill="#ADD1B2" rx="11" ry="11" style="stroke:#181818;stroke-width:1.0;"/><path d="M685.0156,104.0313 L685.0156,106.0625 Q683.5313,106.6719 681.7031,106.6719 Q678.9844,106.6719 677.5313,104.9375 Q676.0781,103.1875 676.0781,100.0781 Q676.0781,97.0781 677.6563,95.2969 Q679.2344,93.5 681.9531,93.5 Q683.8594,93.5 685.5938,94.4219 L684.6406,96.3281 Q683.1406,95.5469 681.9531,95.5469 Q680.3438,95.5469 679.3594,96.7656 Q678.3906,97.9688 678.3906,100.0938 Q678.3906,102.3438 679.2969,103.4844 Q680.2188,104.625 681.9531,104.625 Q682.9844,104.625 685.0156,104.0313 Z " fill="#000000"/><text fill="#000000" font-family="sans-serif" font-size="14" lengthAdjust="spacing" textLength="59" x="695.5" y="104.8467">Available</text><line style="stroke:#181818;stroke-width:0.5;" x1="667.5" x2="756.5" y1="116" y2="116"/><line style="stroke:#181818;stroke-width:0.5;" x1="667.5" x2="756.5" y1="124" y2="124"/></g><!--class Out For Calibration--><g id="elem_Out For Calibration"><rect codeLine="6" fill="#AED6F1" height="48" id="Out For Calibration" rx="2.5" ry="2.5" style="stroke:#181818;stroke-width:0.5;" width="159" x="792.5" y="84"/><ellipse cx="807.5" cy="100" fill="#ADD1B2" rx="11" ry="11" style="stroke:#181818;stroke-width:1.0;"/><path d="M811.0156,104.0313 L811.0156,106.0625 Q809.5313,106.6719 807.7031,106.6719 Q804.9844,106.6719 803.5313,104.9375 Q802.0781,103.1875 802.0781,100.0781 Q802.0781,97.0781 803.6563,95.2969 Q805.2344,93.5 807.9531,93.5 Q809.8594,93.5 811.5938,94.4219 L810.6406,96.3281 Q809.1406,95.5469 807.9531,95.5469 Q806.3438,95.5469 805.3594,96.7656 Q804.3906,97.9688 804.3906,100.0938 Q804.3906,102.3438 805.2969,103.4844 Q806.2188,104.625 807.9531,104.625 Q808.9844,104.625 811.0156,104.0313 Z " fill="#000000"/><text fill="#000000" font-family="sans-serif" font-size="14" lengthAdjust="spacing" textLength="127" x="821.5" y="104.8467">Out For Calibration</text><line style="stroke:#181818;stroke-width:0.5;" x1="793.5" x2="950.5" y1="116" y2="116"/><line style="stroke:#181818;stroke-width:0.5;" x1="793.5" x2="950.5" y1="124" y2="124"/></g><!--class Overdue Tool Calibrations--><g id="elem_Overdue Tool Calibrations"><rect codeLine="8" fill="#AED6F1" height="48" id="Overdue Tool Calibrations" rx="2.5" ry="2.5" style="stroke:#181818;stroke-width:0.5;" width="209" x="485.5" y="282.5"/><ellipse cx="500.5" cy="298.5" fill="#ADD1B2" rx="11" ry="11" style="stroke:#181818;stroke-width:1.0;"/><path d="M504.0156,302.5313 L504.0156,304.5625 Q502.5313,305.1719 500.7031,305.1719 Q497.9844,305.1719 496.5313,303.4375 Q495.0781,301.6875 495.0781,298.5781 Q495.0781,295.5781 496.6563,293.7969 Q498.2344,292 500.9531,292 Q502.8594,292 504.5938,292.9219 L503.6406,294.8281 Q502.1406,294.0469 500.9531,294.0469 Q499.3438,294.0469 498.3594,295.2656 Q497.3906,296.4688 497.3906,298.5938 Q497.3906,300.8438 498.2969,301.9844 Q499.2188,303.125 500.9531,303.125 Q501.9844,303.125 504.0156,302.5313 Z " fill="#000000"/><text fill="#000000" font-family="sans-serif" font-size="14" lengthAdjust="spacing" textLength="177" x="514.5" y="303.3467">Overdue Tool Calibrations</text><line style="stroke:#181818;stroke-width:0.5;" x1="486.5" x2="693.5" y1="314.5" y2="314.5"/><line style="stroke:#181818;stroke-width:0.5;" x1="486.5" x2="693.5" y1="322.5" y2="322.5"/></g><!--class Repair Tools & Utilities--><g id="elem_Repair Tools &amp; Utilities"><rect codeLine="10" fill="#AED6F1" height="48" id="Repair Tools &amp; Utilities" rx="2.5" ry="2.5" style="stroke:#181818;stroke-width:0.5;" width="187" x="729.5" y="282.5"/><ellipse cx="744.5" cy="298.5" fill="#ADD1B2" rx="11" ry="11" style="stroke:#181818;stroke-width:1.0;"/><path d="M748.0156,302.5313 L748.0156,304.5625 Q746.5313,305.1719 744.7031,305.1719 Q741.9844,305.1719 740.5313,303.4375 Q739.0781,301.6875 739.0781,298.5781 Q739.0781,295.5781 740.6563,293.7969 Q742.2344,292 744.9531,292 Q746.8594,292 748.5938,292.9219 L747.6406,294.8281 Q746.1406,294.0469 744.9531,294.0469 Q743.3438,294.0469 742.3594,295.2656 Q741.3906,296.4688 741.3906,298.5938 Q741.3906,300.8438 742.2969,301.9844 Q743.2188,303.125 744.9531,303.125 Q745.9844,303.125 748.0156,302.5313 Z " fill="#000000"/><text fill="#000000" font-family="sans-serif" font-size="14" lengthAdjust="spacing" textLength="155" x="758.5" y="303.3467">Repair Tools &amp; Utilities</text><line style="stroke:#181818;stroke-width:0.5;" x1="730.5" x2="915.5" y1="314.5" y2="314.5"/><line style="stroke:#181818;stroke-width:0.5;" x1="730.5" x2="915.5" y1="322.5" y2="322.5"/></g><!--class Overdue Tools By Type--><g id="elem_Overdue Tools By Type"><rect codeLine="12" fill="#AED6F1" height="48" id="Overdue Tools By Type" rx="2.5" ry="2.5" style="stroke:#181818;stroke-width:0.5;" width="192" x="952" y="282.5"/><ellipse cx="967" cy="298.5" fill="#ADD1B2" rx="11" ry="11" style="stroke:#181818;stroke-width:1.0;"/><path d="M970.5156,302.5313 L970.5156,304.5625 Q969.0313,305.1719 967.2031,305.1719 Q964.4844,305.1719 963.0313,303.4375 Q961.5781,301.6875 961.5781,298.5781 Q961.5781,295.5781 963.1563,293.7969 Q964.7344,292 967.4531,292 Q969.3594,292 971.0938,292.9219 L970.1406,294.8281 Q968.6406,294.0469 967.4531,294.0469 Q965.8438,294.0469 964.8594,295.2656 Q963.8906,296.4688 963.8906,298.5938 Q963.8906,300.8438 964.7969,301.9844 Q965.7188,303.125 967.4531,303.125 Q968.4844,303.125 970.5156,302.5313 Z " fill="#000000"/><text fill="#000000" font-family="sans-serif" font-size="14" lengthAdjust="spacing" textLength="160" x="981" y="303.3467">Overdue Tools By Type</text><line style="stroke:#181818;stroke-width:0.5;" x1="953" x2="1143" y1="314.5" y2="314.5"/><line style="stroke:#181818;stroke-width:0.5;" x1="953" x2="1143" y1="322.5" y2="322.5"/></g><!--class Workflow State--><g id="elem_Workflow State"><rect fill="#F1F1F1" height="48" id="Workflow State" rx="2.5" ry="2.5" style="stroke:#181818;stroke-width:0.5;" width="134" x="282" y="84"/><ellipse cx="297" cy="100" fill="#ADD1B2" rx="11" ry="11" style="stroke:#181818;stroke-width:1.0;"/><path d="M300.5156,104.0313 L300.5156,106.0625 Q299.0313,106.6719 297.2031,106.6719 Q294.4844,106.6719 293.0313,104.9375 Q291.5781,103.1875 291.5781,100.0781 Q291.5781,97.0781 293.1563,95.2969 Q294.7344,93.5 297.4531,93.5 Q299.3594,93.5 301.0938,94.4219 L300.1406,96.3281 Q298.6406,95.5469 297.4531,95.5469 Q295.8438,95.5469 294.8594,96.7656 Q293.8906,97.9688 293.8906,100.0938 Q293.8906,102.3438 294.7969,103.4844 Q295.7188,104.625 297.4531,104.625 Q298.4844,104.625 300.5156,104.0313 Z " fill="#000000"/><text fill="#000000" font-family="sans-serif" font-size="14" lengthAdjust="spacing" textLength="102" x="311" y="104.8467">Workflow State</text><line style="stroke:#181818;stroke-width:0.5;" x1="283" x2="415" y1="116" y2="116"/><line style="stroke:#181818;stroke-width:0.5;" x1="283" x2="415" y1="124" y2="124"/></g><!--class Tool--><g id="elem_Tool"><rect codeLine="15" fill="#AED6F1" height="194.6719" id="Tool" rx="2.5" ry="2.5" style="stroke:#181818;stroke-width:0.5;" width="203" x="247.5" y="209"/><ellipse cx="329.75" cy="225" fill="#ADD1B2" rx="11" ry="11" style="stroke:#181818;stroke-width:1.0;"/><path d="M333.2656,229.0313 L333.2656,231.0625 Q331.7813,231.6719 329.9531,231.6719 Q327.2344,231.6719 325.7813,229.9375 Q324.3281,228.1875 324.3281,225.0781 Q324.3281,222.0781 325.9063,220.2969 Q327.4844,218.5 330.2031,218.5 Q332.1094,218.5 333.8438,219.4219 L332.8906,221.3281 Q331.3906,220.5469 330.2031,220.5469 Q328.5938,220.5469 327.6094,221.7656 Q326.6406,222.9688 326.6406,225.0938 Q326.6406,227.3438 327.5469,228.4844 Q328.4688,229.625 330.2031,229.625 Q331.2344,229.625 333.2656,229.0313 Z " fill="#000000"/><text fill="#000000" font-family="sans-serif" font-size="14" lengthAdjust="spacing" textLength="30" x="350.25" y="229.8467">Tool</text><line style="stroke:#181818;stroke-width:0.5;" x1="248.5" x2="449.5" y1="241" y2="241"/><text fill="#000000" font-family="sans-serif" font-size="14" lengthAdjust="spacing" textLength="117" x="253.5" y="257.9951">tool_name : Data</text><text fill="#000000" font-family="sans-serif" font-size="14" lengthAdjust="spacing" textLength="119" x="253.5" y="274.292">tool_type : Select</text><text fill="#000000" font-family="sans-serif" font-size="14" lengthAdjust="spacing" textLength="99" x="253.5" y="290.5889">location : Data</text><text fill="#000000" font-family="sans-serif" font-size="14" lengthAdjust="spacing" textLength="125" x="253.5" y="306.8857">in_service : Check</text><text fill="#000000" font-family="sans-serif" font-size="14" lengthAdjust="spacing" textLength="191" x="253.5" y="323.1826">requires_calibration : Check</text><text fill="#000000" font-family="sans-serif" font-size="14" lengthAdjust="spacing" textLength="144" x="253.5" y="339.4795">last_calibrated : Date</text><text fill="#000000" font-family="sans-serif" font-size="14" lengthAdjust="spacing" textLength="110" x="253.5" y="355.7764">next_due : Date</text><text fill="#000000" font-family="sans-serif" font-size="14" lengthAdjust="spacing" textLength="123" x="253.5" y="372.0732">notes : Small Text</text><text fill="#000000" font-family="sans-serif" font-size="14" lengthAdjust="spacing" textLength="142" x="253.5" y="388.3701">workflow_state : Link</text><line style="stroke:#181818;stroke-width:0.5;" x1="248.5" x2="449.5" y1="395.6719" y2="395.6719"/></g><!--class Employee--><g id="elem_Employee"><rect fill="#F1F1F1" height="48" id="Employee" rx="2.5" ry="2.5" style="stroke:#181818;stroke-width:0.5;" width="100" x="79" y="84"/><ellipse cx="94" cy="100" fill="#ADD1B2" rx="11" ry="11" style="stroke:#181818;stroke-width:1.0;"/><path d="M97.5156,104.0313 L97.5156,106.0625 Q96.0313,106.6719 94.2031,106.6719 Q91.4844,106.6719 90.0313,104.9375 Q88.5781,103.1875 88.5781,100.0781 Q88.5781,97.0781 90.1563,95.2969 Q91.7344,93.5 94.4531,93.5 Q96.3594,93.5 98.0938,94.4219 L97.1406,96.3281 Q95.6406,95.5469 94.4531,95.5469 Q92.8438,95.5469 91.8594,96.7656 Q90.8906,97.9688 90.8906,100.0938 Q90.8906,102.3438 91.7969,103.4844 Q92.7188,104.625 94.4531,104.625 Q95.4844,104.625 97.5156,104.0313 Z " fill="#000000"/><text fill="#000000" font-family="sans-serif" font-size="14" lengthAdjust="spacing" textLength="68" x="108" y="104.8467">Employee</text><line style="stroke:#181818;stroke-width:0.5;" x1="80" x2="178" y1="116" y2="116"/><line style="stroke:#181818;stroke-width:0.5;" x1="80" x2="178" y1="124" y2="124"/></g><!--class Tool Calibration Log--><g id="elem_Tool Calibration Log"><rect codeLine="27" fill="#AED6F1" height="113.1875" id="Tool Calibration Log" rx="2.5" ry="2.5" style="stroke:#181818;stroke-width:0.5;" width="167" x="45.5" y="250"/><ellipse cx="60.5" cy="266" fill="#ADD1B2" rx="11" ry="11" style="stroke:#181818;stroke-width:1.0;"/><path d="M64.0156,270.0313 L64.0156,272.0625 Q62.5313,272.6719 60.7031,272.6719 Q57.9844,272.6719 56.5313,270.9375 Q55.0781,269.1875 55.0781,266.0781 Q55.0781,263.0781 56.6563,261.2969 Q58.2344,259.5 60.9531,259.5 Q62.8594,259.5 64.5938,260.4219 L63.6406,262.3281 Q62.1406,261.5469 60.9531,261.5469 Q59.3438,261.5469 58.3594,262.7656 Q57.3906,263.9688 57.3906,266.0938 Q57.3906,268.3438 58.2969,269.4844 Q59.2188,270.625 60.9531,270.625 Q61.9844,270.625 64.0156,270.0313 Z " fill="#000000"/><text fill="#000000" font-family="sans-serif" font-size="14" lengthAdjust="spacing" textLength="135" x="74.5" y="270.8467">Tool Calibration Log</text><line style="stroke:#181818;stroke-width:0.5;" x1="46.5" x2="211.5" y1="282" y2="282"/><text fill="#000000" font-family="sans-serif" font-size="14" lengthAdjust="spacing" textLength="117" x="51.5" y="298.9951">tool_name : Data</text><text fill="#000000" font-family="sans-serif" font-size="14" lengthAdjust="spacing" textLength="154" x="51.5" y="315.292">calibration_date : Date</text><text fill="#000000" font-family="sans-serif" font-size="14" lengthAdjust="spacing" textLength="130" x="51.5" y="331.5889">calibrated_by : Link</text><text fill="#000000" font-family="sans-serif" font-size="14" lengthAdjust="spacing" textLength="110" x="51.5" y="347.8857">next_due : Date</text><line style="stroke:#181818;stroke-width:0.5;" x1="46.5" x2="211.5" y1="355.1875" y2="355.1875"/></g><!--class Tool Lifecycle--><g id="elem_Tool Lifecycle"><rect codeLine="33" fill="#AED6F1" height="48" id="Tool Lifecycle" rx="2.5" ry="2.5" style="stroke:#181818;stroke-width:0.5;" width="124" x="528" y="465"/><ellipse cx="543" cy="481" fill="#ADD1B2" rx="11" ry="11" style="stroke:#181818;stroke-width:1.0;"/><path d="M546.5156,485.0313 L546.5156,487.0625 Q545.0313,487.6719 543.2031,487.6719 Q540.4844,487.6719 539.0313,485.9375 Q537.5781,484.1875 537.5781,481.0781 Q537.5781,478.0781 539.1563,476.2969 Q540.7344,474.5 543.4531,474.5 Q545.3594,474.5 547.0938,475.4219 L546.1406,477.3281 Q544.6406,476.5469 543.4531,476.5469 Q541.8438,476.5469 540.8594,477.7656 Q539.8906,478.9688 539.8906,481.0938 Q539.8906,483.3438 540.7969,484.4844 Q541.7188,485.625 543.4531,485.625 Q544.4844,485.625 546.5156,485.0313 Z " fill="#000000"/><text fill="#000000" font-family="sans-serif" font-size="14" lengthAdjust="spacing" textLength="92" x="557" y="485.8467">Tool Lifecycle</text><line style="stroke:#181818;stroke-width:0.5;" x1="529" x2="651" y1="497" y2="497"/><line style="stroke:#181818;stroke-width:0.5;" x1="529" x2="651" y1="505" y2="505"/></g><!--reverse link Workflow State to Tool--><g id="link_Workflow State_Tool"><path codeLine="14" d="M349,145.37 C349,163.37 349,186.05 349,208.63 " fill="none" id="Workflow State-backto-Tool" style="stroke:#181818;stroke-width:1.0;"/><polygon fill="#181818" points="349,132.31,345,138.31,349,144.31,353,138.31,349,132.31" style="stroke:#181818;stroke-width:1.0;"/><text fill="#000000" font-family="sans-serif" font-size="13" lengthAdjust="spacing" textLength="93" x="350" y="175.0669">workflow_state</text></g><!--reverse link Employee to Tool Calibration Log--><g id="link_Employee_Tool Calibration Log"><path codeLine="26" d="M129,145.61 C129,174.89 129,216.42 129,249.82 " fill="none" id="Employee-backto-Tool Calibration Log" style="stroke:#181818;stroke-width:1.0;"/><polygon fill="#181818" points="129,132.31,125,138.31,129,144.31,133,138.31,129,132.31" style="stroke:#181818;stroke-width:1.0;"/><text fill="#000000" font-family="sans-serif" font-size="13" lengthAdjust="spacing" textLength="85" x="130" y="175.0669">calibrated_by</text></g><!--SRC=[XPBDQy904CNl_Ik657eeMEYbXoA2zUCa5DJIux9kHhjaaartHsqe_k-TLTF43_3wVczdthoar2RJAmIFfRPUbSwpfYTsZW9qksD7AVfU3txl3EaG89aYMuzf0lVzqV1b_2naLxF-HblI2yAhz7tDC7OU1fhimckshhZksw1FrmXpoT0sXwlkwJxttXpW0JxOacMBuURe06yLpAloB6powNos9BU56MiM-DZfG18V9F0AsoDK8S9wx84sKm1YVwhGESgReMPTIopxH9eXeM4HoPdzROtD5YgWtrWJVOClD9c87h_NqdfGfgcZXIK5_oDC3yDGG84_hEB1ZU8OGqoGQoAO2nVnz2gX4rjaiOjHNfAhiDr2-ul0nArYAyrgjQZQfLoQRvJKka-bXop7u2SxweYN5-vEra_i4arbpd_8tHy0]--></g></svg>