<?xml version="1.0" encoding="us-ascii" standalone="no"?><svg xmlns="http://www.w3.org/2000/svg" xmlns:xlink="http://www.w3.org/1999/xlink" contentStyleType="text/css" height="499px" preserveAspectRatio="none" style="width:2465px;height:499px;background:#FFFFFF;" version="1.1" viewBox="0 0 2465 499" width="2465px" zoomAndPan="magnify"><defs/><g><!--cluster repair_portal--><g id="cluster_repair_portal"><path d="M8.5,6 L109.5,6 A3.75,3.75 0 0 1 112,8.5 L119,28.2969 L2455.5,28.2969 A2.5,2.5 0 0 1 2458,30.7969 L2458,489.5 A2.5,2.5 0 0 1 2455.5,492 L8.5,492 A2.5,2.5 0 0 1 6,489.5 L6,8.5 A2.5,2.5 0 0 1 8.5,6 " fill="none" style="stroke:#000000;stroke-width:1.5;"/><line style="stroke:#000000;stroke-width:1.5;" x1="6" x2="119" y1="28.2969" y2="28.2969"/><text fill="#000000" font-family="sans-serif" font-size="14" font-weight="bold" lengthAdjust="spacing" textLength="100" x="10" y="20.9951">repair_portal</text></g><!--cluster lab--><g id="cluster_lab"><path d="M32.5,49 L56.5,49 A3.75,3.75 0 0 1 59,51.5 L66,71.2969 L2431.5,71.2969 A2.5,2.5 0 0 1 2434,73.7969 L2434,465.5 A2.5,2.5 0 0 1 2431.5,468 L32.5,468 A2.5,2.5 0 0 1 30,465.5 L30,51.5 A2.5,2.5 0 0 1 32.5,49 " fill="none" style="stroke:#000000;stroke-width:1.5;"/><line style="stroke:#000000;stroke-width:1.5;" x1="30" x2="66" y1="71.2969" y2="71.2969"/><text fill="#000000" font-family="sans-serif" font-size="14" font-weight="bold" lengthAdjust="spacing" textLength="23" x="34" y="63.9951">lab</text></g><!--class Lab Dashboard--><g id="elem_Lab Dashboard"><rect codeLine="2" fill="#F5CBA7" height="48" id="Lab Dashboard" rx="2.5" ry="2.5" style="stroke:#181818;stroke-width:0.5;" width="136" x="2282" y="116.5"/><ellipse cx="2297" cy="132.5" fill="#ADD1B2" rx="11" ry="11" style="stroke:#181818;stroke-width:1.0;"/><path d="M2300.5156,136.5313 L2300.5156,138.5625 Q2299.0313,139.1719 2297.2031,139.1719 Q2294.4844,139.1719 2293.0313,137.4375 Q2291.5781,135.6875 2291.5781,132.5781 Q2291.5781,129.5781 2293.1563,127.7969 Q2294.7344,126 2297.4531,126 Q2299.3594,126 2301.0938,126.9219 L2300.1406,128.8281 Q2298.6406,128.0469 2297.4531,128.0469 Q2295.8438,128.0469 2294.8594,129.2656 Q2293.8906,130.4688 2293.8906,132.5938 Q2293.8906,134.8438 2294.7969,135.9844 Q2295.7188,137.125 2297.4531,137.125 Q2298.4844,137.125 2300.5156,136.5313 Z " fill="#000000"/><text fill="#000000" font-family="sans-serif" font-size="14" lengthAdjust="spacing" textLength="104" x="2311" y="137.3467">Lab Dashboard</text><line style="stroke:#181818;stroke-width:0.5;" x1="2283" x2="2417" y1="148.5" y2="148.5"/><line style="stroke:#181818;stroke-width:0.5;" x1="2283" x2="2417" y1="156.5" y2="156.5"/></g><!--class Impedance Peak--><g id="elem_Impedance Peak"><rect codeLine="4" fill="#F5CBA7" height="96.8906" id="Impedance Peak" rx="2.5" ry="2.5" style="stroke:#181818;stroke-width:0.5;" width="147" x="2099.5" y="92"/><ellipse cx="2114.5" cy="108" fill="#ADD1B2" rx="11" ry="11" style="stroke:#181818;stroke-width:1.0;"/><path d="M2118.0156,112.0313 L2118.0156,114.0625 Q2116.5313,114.6719 2114.7031,114.6719 Q2111.9844,114.6719 2110.5313,112.9375 Q2109.0781,111.1875 2109.0781,108.0781 Q2109.0781,105.0781 2110.6563,103.2969 Q2112.2344,101.5 2114.9531,101.5 Q2116.8594,101.5 2118.5938,102.4219 L2117.6406,104.3281 Q2116.1406,103.5469 2114.9531,103.5469 Q2113.3438,103.5469 2112.3594,104.7656 Q2111.3906,105.9688 2111.3906,108.0938 Q2111.3906,110.3438 2112.2969,111.4844 Q2113.2188,112.625 2114.9531,112.625 Q2115.9844,112.625 2118.0156,112.0313 Z " fill="#000000"/><text fill="#000000" font-family="sans-serif" font-size="14" lengthAdjust="spacing" textLength="115" x="2128.5" y="112.8467">Impedance Peak</text><line style="stroke:#181818;stroke-width:0.5;" x1="2100.5" x2="2245.5" y1="124" y2="124"/><text fill="#000000" font-family="sans-serif" font-size="14" lengthAdjust="spacing" textLength="115" x="2105.5" y="140.9951">frequency : Float</text><text fill="#000000" font-family="sans-serif" font-size="14" lengthAdjust="spacing" textLength="123" x="2105.5" y="157.292">impedance : Float</text><text fill="#000000" font-family="sans-serif" font-size="14" lengthAdjust="spacing" textLength="101" x="2105.5" y="173.5889">q_factor : Float</text><line style="stroke:#181818;stroke-width:0.5;" x1="2100.5" x2="2245.5" y1="180.8906" y2="180.8906"/></g><!--class Instrument Profile--><g id="elem_Instrument Profile"><rect fill="#F1F1F1" height="48" id="Instrument Profile" rx="2.5" ry="2.5" style="stroke:#181818;stroke-width:0.5;" width="153" x="820.5" y="116.5"/><ellipse cx="835.5" cy="132.5" fill="#ADD1B2" rx="11" ry="11" style="stroke:#181818;stroke-width:1.0;"/><path d="M839.0156,136.5313 L839.0156,138.5625 Q837.5313,139.1719 835.7031,139.1719 Q832.9844,139.1719 831.5313,137.4375 Q830.0781,135.6875 830.0781,132.5781 Q830.0781,129.5781 831.6563,127.7969 Q833.2344,126 835.9531,126 Q837.8594,126 839.5938,126.9219 L838.6406,128.8281 Q837.1406,128.0469 835.9531,128.0469 Q834.3438,128.0469 833.3594,129.2656 Q832.3906,130.4688 832.3906,132.5938 Q832.3906,134.8438 833.2969,135.9844 Q834.2188,137.125 835.9531,137.125 Q836.9844,137.125 839.0156,136.5313 Z " fill="#000000"/><text fill="#000000" font-family="sans-serif" font-size="14" lengthAdjust="spacing" textLength="121" x="849.5" y="137.3467">Instrument Profile</text><line style="stroke:#181818;stroke-width:0.5;" x1="821.5" x2="972.5" y1="148.5" y2="148.5"/><line style="stroke:#181818;stroke-width:0.5;" x1="821.5" x2="972.5" y1="156.5" y2="156.5"/></g><!--class Leak Test--><g id="elem_Leak Test"><rect codeLine="13" fill="#F5CBA7" height="162.0781" id="Leak Test" rx="2.5" ry="2.5" style="stroke:#181818;stroke-width:0.5;" width="227" x="960.5" y="282"/><ellipse cx="1036.25" cy="298" fill="#ADD1B2" rx="11" ry="11" style="stroke:#181818;stroke-width:1.0;"/><path d="M1039.7656,302.0313 L1039.7656,304.0625 Q1038.2813,304.6719 1036.4531,304.6719 Q1033.7344,304.6719 1032.2813,302.9375 Q1030.8281,301.1875 1030.8281,298.0781 Q1030.8281,295.0781 1032.4063,293.2969 Q1033.9844,291.5 1036.7031,291.5 Q1038.6094,291.5 1040.3438,292.4219 L1039.3906,294.3281 Q1037.8906,293.5469 1036.7031,293.5469 Q1035.0938,293.5469 1034.1094,294.7656 Q1033.1406,295.9688 1033.1406,298.0938 Q1033.1406,300.3438 1034.0469,301.4844 Q1034.9688,302.625 1036.7031,302.625 Q1037.7344,302.625 1039.7656,302.0313 Z " fill="#000000"/><text fill="#000000" font-family="sans-serif" font-size="14" lengthAdjust="spacing" textLength="67" x="1056.75" y="302.8467">Leak Test</text><line style="stroke:#181818;stroke-width:0.5;" x1="961.5" x2="1186.5" y1="314" y2="314"/><text fill="#000000" font-family="sans-serif" font-size="14" lengthAdjust="spacing" textLength="115" x="966.5" y="330.9951">instrument : Link</text><text fill="#000000" font-family="sans-serif" font-size="14" lengthAdjust="spacing" textLength="81" x="966.5" y="347.292">player : Link</text><text fill="#000000" font-family="sans-serif" font-size="14" lengthAdjust="spacing" textLength="123" x="966.5" y="363.5889">repair_order : Link</text><text fill="#000000" font-family="sans-serif" font-size="14" lengthAdjust="spacing" textLength="147" x="966.5" y="379.8857">session_type : Select</text><text fill="#000000" font-family="sans-serif" font-size="14" lengthAdjust="spacing" textLength="147" x="966.5" y="396.1826">json_data : Long Text</text><text fill="#000000" font-family="sans-serif" font-size="14" lengthAdjust="spacing" textLength="215" x="966.5" y="412.4795">plot_attachment : Attach Image</text><text fill="#000000" font-family="sans-serif" font-size="14" lengthAdjust="spacing" textLength="111" x="966.5" y="428.7764">readings : Table</text><line style="stroke:#181818;stroke-width:0.5;" x1="961.5" x2="1186.5" y1="436.0781" y2="436.0781"/></g><!--class Player Profile--><g id="elem_Player Profile"><rect fill="#F1F1F1" height="48" id="Player Profile" rx="2.5" ry="2.5" style="stroke:#181818;stroke-width:0.5;" width="119" x="1285.5" y="116.5"/><ellipse cx="1300.5" cy="132.5" fill="#ADD1B2" rx="11" ry="11" style="stroke:#181818;stroke-width:1.0;"/><path d="M1304.0156,136.5313 L1304.0156,138.5625 Q1302.5313,139.1719 1300.7031,139.1719 Q1297.9844,139.1719 1296.5313,137.4375 Q1295.0781,135.6875 1295.0781,132.5781 Q1295.0781,129.5781 1296.6563,127.7969 Q1298.2344,126 1300.9531,126 Q1302.8594,126 1304.5938,126.9219 L1303.6406,128.8281 Q1302.1406,128.0469 1300.9531,128.0469 Q1299.3438,128.0469 1298.3594,129.2656 Q1297.3906,130.4688 1297.3906,132.5938 Q1297.3906,134.8438 1298.2969,135.9844 Q1299.2188,137.125 1300.9531,137.125 Q1301.9844,137.125 1304.0156,136.5313 Z " fill="#000000"/><text fill="#000000" font-family="sans-serif" font-size="14" lengthAdjust="spacing" textLength="87" x="1314.5" y="137.3467">Player Profile</text><line style="stroke:#181818;stroke-width:0.5;" x1="1286.5" x2="1403.5" y1="148.5" y2="148.5"/><line style="stroke:#181818;stroke-width:0.5;" x1="1286.5" x2="1403.5" y1="156.5" y2="156.5"/></g><!--class Repair Request--><g id="elem_Repair Request"><rect fill="#F1F1F1" height="48" id="Repair Request" rx="2.5" ry="2.5" style="stroke:#181818;stroke-width:0.5;" width="139" x="1717.5" y="116.5"/><ellipse cx="1732.5" cy="132.5" fill="#ADD1B2" rx="11" ry="11" style="stroke:#181818;stroke-width:1.0;"/><path d="M1736.0156,136.5313 L1736.0156,138.5625 Q1734.5313,139.1719 1732.7031,139.1719 Q1729.9844,139.1719 1728.5313,137.4375 Q1727.0781,135.6875 1727.0781,132.5781 Q1727.0781,129.5781 1728.6563,127.7969 Q1730.2344,126 1732.9531,126 Q1734.8594,126 1736.5938,126.9219 L1735.6406,128.8281 Q1734.1406,128.0469 1732.9531,128.0469 Q1731.3438,128.0469 1730.3594,129.2656 Q1729.3906,130.4688 1729.3906,132.5938 Q1729.3906,134.8438 1730.2969,135.9844 Q1731.2188,137.125 1732.9531,137.125 Q1733.9844,137.125 1736.0156,136.5313 Z " fill="#000000"/><text fill="#000000" font-family="sans-serif" font-size="14" lengthAdjust="spacing" textLength="107" x="1746.5" y="137.3467">Repair Request</text><line style="stroke:#181818;stroke-width:0.5;" x1="1718.5" x2="1855.5" y1="148.5" y2="148.5"/><line style="stroke:#181818;stroke-width:0.5;" x1="1718.5" x2="1855.5" y1="156.5" y2="156.5"/></g><!--class Leak Reading--><g id="elem_Leak Reading"><rect codeLine="61" fill="#F5CBA7" height="96.8906" id="Leak Reading" rx="2.5" ry="2.5" style="stroke:#181818;stroke-width:0.5;" width="173" x="612.5" y="92"/><ellipse cx="649.1" cy="108" fill="#ADD1B2" rx="11" ry="11" style="stroke:#181818;stroke-width:1.0;"/><path d="M652.6156,112.0313 L652.6156,114.0625 Q651.1313,114.6719 649.3031,114.6719 Q646.5844,114.6719 645.1313,112.9375 Q643.6781,111.1875 643.6781,108.0781 Q643.6781,105.0781 645.2563,103.2969 Q646.8344,101.5 649.5531,101.5 Q651.4594,101.5 653.1938,102.4219 L652.2406,104.3281 Q650.7406,103.5469 649.5531,103.5469 Q647.9438,103.5469 646.9594,104.7656 Q645.9906,105.9688 645.9906,108.0938 Q645.9906,110.3438 646.8969,111.4844 Q647.8188,112.625 649.5531,112.625 Q650.5844,112.625 652.6156,112.0313 Z " fill="#000000"/><text fill="#000000" font-family="sans-serif" font-size="14" lengthAdjust="spacing" textLength="93" x="667.9" y="112.8467">Leak Reading</text><line style="stroke:#181818;stroke-width:0.5;" x1="613.5" x2="784.5" y1="124" y2="124"/><text fill="#000000" font-family="sans-serif" font-size="14" lengthAdjust="spacing" textLength="114" x="618.5" y="140.9951">tone_hole : Data</text><text fill="#000000" font-family="sans-serif" font-size="14" lengthAdjust="spacing" textLength="120" x="618.5" y="157.292">leak_score : Float</text><text fill="#000000" font-family="sans-serif" font-size="14" lengthAdjust="spacing" textLength="161" x="618.5" y="173.5889">time_logged : Datetime</text><line style="stroke:#181818;stroke-width:0.5;" x1="613.5" x2="784.5" y1="180.8906" y2="180.8906"/></g><!--class Measurement Session--><g id="elem_Measurement Session"><rect codeLine="25" fill="#F5CBA7" height="129.4844" id="Measurement Session" rx="2.5" ry="2.5" style="stroke:#181818;stroke-width:0.5;" width="187" x="127.5" y="298.5"/><ellipse cx="142.5" cy="314.5" fill="#ADD1B2" rx="11" ry="11" style="stroke:#181818;stroke-width:1.0;"/><path d="M146.0156,318.5313 L146.0156,320.5625 Q144.5313,321.1719 142.7031,321.1719 Q139.9844,321.1719 138.5313,319.4375 Q137.0781,317.6875 137.0781,314.5781 Q137.0781,311.5781 138.6563,309.7969 Q140.2344,308 142.9531,308 Q144.8594,308 146.5938,308.9219 L145.6406,310.8281 Q144.1406,310.0469 142.9531,310.0469 Q141.3438,310.0469 140.3594,311.2656 Q139.3906,312.4688 139.3906,314.5938 Q139.3906,316.8438 140.2969,317.9844 Q141.2188,319.125 142.9531,319.125 Q143.9844,319.125 146.0156,318.5313 Z " fill="#000000"/><text fill="#000000" font-family="sans-serif" font-size="14" lengthAdjust="spacing" textLength="155" x="156.5" y="319.3467">Measurement Session</text><line style="stroke:#181818;stroke-width:0.5;" x1="128.5" x2="313.5" y1="330.5" y2="330.5"/><text fill="#000000" font-family="sans-serif" font-size="14" lengthAdjust="spacing" textLength="115" x="133.5" y="347.4951">instrument : Link</text><text fill="#000000" font-family="sans-serif" font-size="14" lengthAdjust="spacing" textLength="111" x="133.5" y="363.792">technician : Link</text><text fill="#000000" font-family="sans-serif" font-size="14" lengthAdjust="spacing" textLength="77" x="133.5" y="380.0889">date : Date</text><text fill="#000000" font-family="sans-serif" font-size="14" lengthAdjust="spacing" textLength="83" x="133.5" y="396.3857">notes : Text</text><text fill="#000000" font-family="sans-serif" font-size="14" lengthAdjust="spacing" textLength="156" x="133.5" y="412.6826">measurements : Table</text><line style="stroke:#181818;stroke-width:0.5;" x1="128.5" x2="313.5" y1="419.9844" y2="419.9844"/></g><!--class User--><g id="elem_User"><rect fill="#F1F1F1" height="48" id="User" rx="2.5" ry="2.5" style="stroke:#181818;stroke-width:0.5;" width="64" x="250" y="116.5"/><ellipse cx="265" cy="132.5" fill="#ADD1B2" rx="11" ry="11" style="stroke:#181818;stroke-width:1.0;"/><path d="M268.5156,136.5313 L268.5156,138.5625 Q267.0313,139.1719 265.2031,139.1719 Q262.4844,139.1719 261.0313,137.4375 Q259.5781,135.6875 259.5781,132.5781 Q259.5781,129.5781 261.1563,127.7969 Q262.7344,126 265.4531,126 Q267.3594,126 269.0938,126.9219 L268.1406,128.8281 Q266.6406,128.0469 265.4531,128.0469 Q263.8438,128.0469 262.8594,129.2656 Q261.8906,130.4688 261.8906,132.5938 Q261.8906,134.8438 262.7969,135.9844 Q263.7188,137.125 265.4531,137.125 Q266.4844,137.125 268.5156,136.5313 Z " fill="#000000"/><text fill="#000000" font-family="sans-serif" font-size="14" lengthAdjust="spacing" textLength="32" x="279" y="137.3467">User</text><line style="stroke:#181818;stroke-width:0.5;" x1="251" x2="313" y1="148.5" y2="148.5"/><line style="stroke:#181818;stroke-width:0.5;" x1="251" x2="313" y1="156.5" y2="156.5"/></g><!--class Measurement Entry--><g id="elem_Measurement Entry"><rect codeLine="104" fill="#F5CBA7" height="113.1875" id="Measurement Entry" rx="2.5" ry="2.5" style="stroke:#181818;stroke-width:0.5;" width="169" x="45.5" y="84"/><ellipse cx="61.4" cy="100" fill="#ADD1B2" rx="11" ry="11" style="stroke:#181818;stroke-width:1.0;"/><path d="M64.9156,104.0313 L64.9156,106.0625 Q63.4313,106.6719 61.6031,106.6719 Q58.8844,106.6719 57.4313,104.9375 Q55.9781,103.1875 55.9781,100.0781 Q55.9781,97.0781 57.5563,95.2969 Q59.1344,93.5 61.8531,93.5 Q63.7594,93.5 65.4938,94.4219 L64.5406,96.3281 Q63.0406,95.5469 61.8531,95.5469 Q60.2438,95.5469 59.2594,96.7656 Q58.2906,97.9688 58.2906,100.0938 Q58.2906,102.3438 59.1969,103.4844 Q60.1188,104.625 61.8531,104.625 Q62.8844,104.625 64.9156,104.0313 Z " fill="#000000"/><text fill="#000000" font-family="sans-serif" font-size="14" lengthAdjust="spacing" textLength="135" x="75.6" y="104.8467">Measurement Entry</text><line style="stroke:#181818;stroke-width:0.5;" x1="46.5" x2="213.5" y1="116" y2="116"/><text fill="#000000" font-family="sans-serif" font-size="14" lengthAdjust="spacing" textLength="116" x="51.5" y="132.9951">parameter : Data</text><text fill="#000000" font-family="sans-serif" font-size="14" lengthAdjust="spacing" textLength="82" x="51.5" y="149.292">value : Float</text><text fill="#000000" font-family="sans-serif" font-size="14" lengthAdjust="spacing" textLength="71" x="51.5" y="165.5889">unit : Data</text><text fill="#000000" font-family="sans-serif" font-size="14" lengthAdjust="spacing" textLength="157" x="51.5" y="181.8857">comments : Small Text</text><line style="stroke:#181818;stroke-width:0.5;" x1="46.5" x2="213.5" y1="189.1875" y2="189.1875"/></g><!--class Instrument Wellness Score--><g id="elem_Instrument Wellness Score"><rect codeLine="33" fill="#F5CBA7" height="178.375" id="Instrument Wellness Score" rx="2.5" ry="2.5" style="stroke:#181818;stroke-width:0.5;" width="217" x="417.5" y="274"/><ellipse cx="432.5" cy="290" fill="#ADD1B2" rx="11" ry="11" style="stroke:#181818;stroke-width:1.0;"/><path d="M436.0156,294.0313 L436.0156,296.0625 Q434.5313,296.6719 432.7031,296.6719 Q429.9844,296.6719 428.5313,294.9375 Q427.0781,293.1875 427.0781,290.0781 Q427.0781,287.0781 428.6563,285.2969 Q430.2344,283.5 432.9531,283.5 Q434.8594,283.5 436.5938,284.4219 L435.6406,286.3281 Q434.1406,285.5469 432.9531,285.5469 Q431.3438,285.5469 430.3594,286.7656 Q429.3906,287.9688 429.3906,290.0938 Q429.3906,292.3438 430.2969,293.4844 Q431.2188,294.625 432.9531,294.625 Q433.9844,294.625 436.0156,294.0313 Z " fill="#000000"/><text fill="#000000" font-family="sans-serif" font-size="14" lengthAdjust="spacing" textLength="185" x="446.5" y="294.8467">Instrument Wellness Score</text><line style="stroke:#181818;stroke-width:0.5;" x1="418.5" x2="633.5" y1="306" y2="306"/><text fill="#000000" font-family="sans-serif" font-size="14" lengthAdjust="spacing" textLength="115" x="423.5" y="322.9951">instrument : Link</text><text fill="#000000" font-family="sans-serif" font-size="14" lengthAdjust="spacing" textLength="154" x="423.5" y="339.292">evaluation_date : Date</text><text fill="#000000" font-family="sans-serif" font-size="14" lengthAdjust="spacing" textLength="161" x="423.5" y="355.5889">intonation_score : Float</text><text fill="#000000" font-family="sans-serif" font-size="14" lengthAdjust="spacing" textLength="169" x="423.5" y="371.8857">impedance_score : Float</text><text fill="#000000" font-family="sans-serif" font-size="14" lengthAdjust="spacing" textLength="120" x="423.5" y="388.1826">leak_score : Float</text><text fill="#000000" font-family="sans-serif" font-size="14" lengthAdjust="spacing" textLength="124" x="423.5" y="404.4795">tone_score : Float</text><text fill="#000000" font-family="sans-serif" font-size="14" lengthAdjust="spacing" textLength="136" x="423.5" y="420.7764">overall_score : Float</text><text fill="#000000" font-family="sans-serif" font-size="14" lengthAdjust="spacing" textLength="83" x="423.5" y="437.0732">notes : Text</text><line style="stroke:#181818;stroke-width:0.5;" x1="418.5" x2="633.5" y1="444.375" y2="444.375"/></g><!--class Intonation Session--><g id="elem_Intonation Session"><rect codeLine="47" fill="#F5CBA7" height="162.0781" id="Intonation Session" rx="2.5" ry="2.5" style="stroke:#181818;stroke-width:0.5;" width="227" x="1687.5" y="282"/><ellipse cx="1732.75" cy="298" fill="#ADD1B2" rx="11" ry="11" style="stroke:#181818;stroke-width:1.0;"/><path d="M1736.2656,302.0313 L1736.2656,304.0625 Q1734.7813,304.6719 1732.9531,304.6719 Q1730.2344,304.6719 1728.7813,302.9375 Q1727.3281,301.1875 1727.3281,298.0781 Q1727.3281,295.0781 1728.9063,293.2969 Q1730.4844,291.5 1733.2031,291.5 Q1735.1094,291.5 1736.8438,292.4219 L1735.8906,294.3281 Q1734.3906,293.5469 1733.2031,293.5469 Q1731.5938,293.5469 1730.6094,294.7656 Q1729.6406,295.9688 1729.6406,298.0938 Q1729.6406,300.3438 1730.5469,301.4844 Q1731.4688,302.625 1733.2031,302.625 Q1734.2344,302.625 1736.2656,302.0313 Z " fill="#000000"/><text fill="#000000" font-family="sans-serif" font-size="14" lengthAdjust="spacing" textLength="128" x="1753.25" y="302.8467">Intonation Session</text><line style="stroke:#181818;stroke-width:0.5;" x1="1688.5" x2="1913.5" y1="314" y2="314"/><text fill="#000000" font-family="sans-serif" font-size="14" lengthAdjust="spacing" textLength="115" x="1693.5" y="330.9951">instrument : Link</text><text fill="#000000" font-family="sans-serif" font-size="14" lengthAdjust="spacing" textLength="81" x="1693.5" y="347.292">player : Link</text><text fill="#000000" font-family="sans-serif" font-size="14" lengthAdjust="spacing" textLength="123" x="1693.5" y="363.5889">repair_order : Link</text><text fill="#000000" font-family="sans-serif" font-size="14" lengthAdjust="spacing" textLength="147" x="1693.5" y="379.8857">session_type : Select</text><text fill="#000000" font-family="sans-serif" font-size="14" lengthAdjust="spacing" textLength="147" x="1693.5" y="396.1826">json_data : Long Text</text><text fill="#000000" font-family="sans-serif" font-size="14" lengthAdjust="spacing" textLength="215" x="1693.5" y="412.4795">plot_attachment : Attach Image</text><text fill="#000000" font-family="sans-serif" font-size="14" lengthAdjust="spacing" textLength="91" x="1693.5" y="428.7764">notes : Table</text><line style="stroke:#181818;stroke-width:0.5;" x1="1688.5" x2="1913.5" y1="436.0781" y2="436.0781"/></g><!--class Intonation Note--><g id="elem_Intonation Note"><rect codeLine="56" fill="#F5CBA7" height="96.8906" id="Intonation Note" rx="2.5" ry="2.5" style="stroke:#181818;stroke-width:0.5;" width="173" x="1891.5" y="92"/><ellipse cx="1922.25" cy="108" fill="#ADD1B2" rx="11" ry="11" style="stroke:#181818;stroke-width:1.0;"/><path d="M1925.7656,112.0313 L1925.7656,114.0625 Q1924.2813,114.6719 1922.4531,114.6719 Q1919.7344,114.6719 1918.2813,112.9375 Q1916.8281,111.1875 1916.8281,108.0781 Q1916.8281,105.0781 1918.4063,103.2969 Q1919.9844,101.5 1922.7031,101.5 Q1924.6094,101.5 1926.3438,102.4219 L1925.3906,104.3281 Q1923.8906,103.5469 1922.7031,103.5469 Q1921.0938,103.5469 1920.1094,104.7656 Q1919.1406,105.9688 1919.1406,108.0938 Q1919.1406,110.3438 1920.0469,111.4844 Q1920.9688,112.625 1922.7031,112.625 Q1923.7344,112.625 1925.7656,112.0313 Z " fill="#000000"/><text fill="#000000" font-family="sans-serif" font-size="14" lengthAdjust="spacing" textLength="106" x="1939.75" y="112.8467">Intonation Note</text><line style="stroke:#181818;stroke-width:0.5;" x1="1892.5" x2="2063.5" y1="124" y2="124"/><text fill="#000000" font-family="sans-serif" font-size="14" lengthAdjust="spacing" textLength="123" x="1897.5" y="140.9951">note_name : Data</text><text fill="#000000" font-family="sans-serif" font-size="14" lengthAdjust="spacing" textLength="131" x="1897.5" y="157.292">cents_offset : Float</text><text fill="#000000" font-family="sans-serif" font-size="14" lengthAdjust="spacing" textLength="161" x="1897.5" y="173.5889">time_logged : Datetime</text><line style="stroke:#181818;stroke-width:0.5;" x1="1892.5" x2="2063.5" y1="180.8906" y2="180.8906"/></g><!--class Reed Match Result--><g id="elem_Reed Match Result"><rect codeLine="69" fill="#F5CBA7" height="162.0781" id="Reed Match Result" rx="2.5" ry="2.5" style="stroke:#181818;stroke-width:0.5;" width="227" x="1231.5" y="282"/><ellipse cx="1275.3" cy="298" fill="#ADD1B2" rx="11" ry="11" style="stroke:#181818;stroke-width:1.0;"/><path d="M1278.8156,302.0313 L1278.8156,304.0625 Q1277.3313,304.6719 1275.5031,304.6719 Q1272.7844,304.6719 1271.3313,302.9375 Q1269.8781,301.1875 1269.8781,298.0781 Q1269.8781,295.0781 1271.4563,293.2969 Q1273.0344,291.5 1275.7531,291.5 Q1277.6594,291.5 1279.3938,292.4219 L1278.4406,294.3281 Q1276.9406,293.5469 1275.7531,293.5469 Q1274.1438,293.5469 1273.1594,294.7656 Q1272.1906,295.9688 1272.1906,298.0938 Q1272.1906,300.3438 1273.0969,301.4844 Q1274.0188,302.625 1275.7531,302.625 Q1276.7844,302.625 1278.8156,302.0313 Z " fill="#000000"/><text fill="#000000" font-family="sans-serif" font-size="14" lengthAdjust="spacing" textLength="131" x="1295.7" y="302.8467">Reed Match Result</text><line style="stroke:#181818;stroke-width:0.5;" x1="1232.5" x2="1457.5" y1="314" y2="314"/><text fill="#000000" font-family="sans-serif" font-size="14" lengthAdjust="spacing" textLength="115" x="1237.5" y="330.9951">instrument : Link</text><text fill="#000000" font-family="sans-serif" font-size="14" lengthAdjust="spacing" textLength="81" x="1237.5" y="347.292">player : Link</text><text fill="#000000" font-family="sans-serif" font-size="14" lengthAdjust="spacing" textLength="123" x="1237.5" y="363.5889">repair_order : Link</text><text fill="#000000" font-family="sans-serif" font-size="14" lengthAdjust="spacing" textLength="147" x="1237.5" y="379.8857">session_type : Select</text><text fill="#000000" font-family="sans-serif" font-size="14" lengthAdjust="spacing" textLength="147" x="1237.5" y="396.1826">json_data : Long Text</text><text fill="#000000" font-family="sans-serif" font-size="14" lengthAdjust="spacing" textLength="215" x="1237.5" y="412.4795">plot_attachment : Attach Image</text><text fill="#000000" font-family="sans-serif" font-size="14" lengthAdjust="spacing" textLength="194" x="1237.5" y="428.7764">recommended_reeds : Data</text><line style="stroke:#181818;stroke-width:0.5;" x1="1232.5" x2="1457.5" y1="436.0781" y2="436.0781"/></g><!--class Impedance Snapshot--><g id="elem_Impedance Snapshot"><rect codeLine="82" fill="#F5CBA7" height="162.0781" id="Impedance Snapshot" rx="2.5" ry="2.5" style="stroke:#181818;stroke-width:0.5;" width="227" x="2064.5" y="282"/><ellipse cx="2101.1" cy="298" fill="#ADD1B2" rx="11" ry="11" style="stroke:#181818;stroke-width:1.0;"/><path d="M2104.6156,302.0313 L2104.6156,304.0625 Q2103.1313,304.6719 2101.3031,304.6719 Q2098.5844,304.6719 2097.1313,302.9375 Q2095.6781,301.1875 2095.6781,298.0781 Q2095.6781,295.0781 2097.2563,293.2969 Q2098.8344,291.5 2101.5531,291.5 Q2103.4594,291.5 2105.1938,292.4219 L2104.2406,294.3281 Q2102.7406,293.5469 2101.5531,293.5469 Q2099.9438,293.5469 2098.9594,294.7656 Q2097.9906,295.9688 2097.9906,298.0938 Q2097.9906,300.3438 2098.8969,301.4844 Q2099.8188,302.625 2101.5531,302.625 Q2102.5844,302.625 2104.6156,302.0313 Z " fill="#000000"/><text fill="#000000" font-family="sans-serif" font-size="14" lengthAdjust="spacing" textLength="147" x="2119.9" y="302.8467">Impedance Snapshot</text><line style="stroke:#181818;stroke-width:0.5;" x1="2065.5" x2="2290.5" y1="314" y2="314"/><text fill="#000000" font-family="sans-serif" font-size="14" lengthAdjust="spacing" textLength="115" x="2070.5" y="330.9951">instrument : Link</text><text fill="#000000" font-family="sans-serif" font-size="14" lengthAdjust="spacing" textLength="81" x="2070.5" y="347.292">player : Link</text><text fill="#000000" font-family="sans-serif" font-size="14" lengthAdjust="spacing" textLength="123" x="2070.5" y="363.5889">repair_order : Link</text><text fill="#000000" font-family="sans-serif" font-size="14" lengthAdjust="spacing" textLength="147" x="2070.5" y="379.8857">session_type : Select</text><text fill="#000000" font-family="sans-serif" font-size="14" lengthAdjust="spacing" textLength="147" x="2070.5" y="396.1826">json_data : Long Text</text><text fill="#000000" font-family="sans-serif" font-size="14" lengthAdjust="spacing" textLength="215" x="2070.5" y="412.4795">plot_attachment : Attach Image</text><text fill="#000000" font-family="sans-serif" font-size="14" lengthAdjust="spacing" textLength="93" x="2070.5" y="428.7764">peaks : Table</text><line style="stroke:#181818;stroke-width:0.5;" x1="2065.5" x2="2290.5" y1="436.0781" y2="436.0781"/></g><!--class Tone Fitness--><g id="elem_Tone Fitness"><rect codeLine="95" fill="#F5CBA7" height="162.0781" id="Tone Fitness" rx="2.5" ry="2.5" style="stroke:#181818;stroke-width:0.5;" width="227" x="679.5" y="282"/><ellipse cx="743.75" cy="298" fill="#ADD1B2" rx="11" ry="11" style="stroke:#181818;stroke-width:1.0;"/><path d="M747.2656,302.0313 L747.2656,304.0625 Q745.7813,304.6719 743.9531,304.6719 Q741.2344,304.6719 739.7813,302.9375 Q738.3281,301.1875 738.3281,298.0781 Q738.3281,295.0781 739.9063,293.2969 Q741.4844,291.5 744.2031,291.5 Q746.1094,291.5 747.8438,292.4219 L746.8906,294.3281 Q745.3906,293.5469 744.2031,293.5469 Q742.5938,293.5469 741.6094,294.7656 Q740.6406,295.9688 740.6406,298.0938 Q740.6406,300.3438 741.5469,301.4844 Q742.4688,302.625 744.2031,302.625 Q745.2344,302.625 747.2656,302.0313 Z " fill="#000000"/><text fill="#000000" font-family="sans-serif" font-size="14" lengthAdjust="spacing" textLength="90" x="764.25" y="302.8467">Tone Fitness</text><line style="stroke:#181818;stroke-width:0.5;" x1="680.5" x2="905.5" y1="314" y2="314"/><text fill="#000000" font-family="sans-serif" font-size="14" lengthAdjust="spacing" textLength="115" x="685.5" y="330.9951">instrument : Link</text><text fill="#000000" font-family="sans-serif" font-size="14" lengthAdjust="spacing" textLength="81" x="685.5" y="347.292">player : Link</text><text fill="#000000" font-family="sans-serif" font-size="14" lengthAdjust="spacing" textLength="123" x="685.5" y="363.5889">repair_order : Link</text><text fill="#000000" font-family="sans-serif" font-size="14" lengthAdjust="spacing" textLength="147" x="685.5" y="379.8857">session_type : Select</text><text fill="#000000" font-family="sans-serif" font-size="14" lengthAdjust="spacing" textLength="147" x="685.5" y="396.1826">json_data : Long Text</text><text fill="#000000" font-family="sans-serif" font-size="14" lengthAdjust="spacing" textLength="215" x="685.5" y="412.4795">plot_attachment : Attach Image</text><text fill="#000000" font-family="sans-serif" font-size="14" lengthAdjust="spacing" textLength="99" x="685.5" y="428.7764">entries : Table</text><line style="stroke:#181818;stroke-width:0.5;" x1="680.5" x2="905.5" y1="436.0781" y2="436.0781"/></g><!--class Tone Fitness Entry--><g id="elem_Tone Fitness Entry"><rect codeLine="110" fill="#F5CBA7" height="96.8906" id="Tone Fitness Entry" rx="2.5" ry="2.5" style="stroke:#181818;stroke-width:0.5;" width="177" x="349.5" y="92"/><ellipse cx="371.7" cy="108" fill="#ADD1B2" rx="11" ry="11" style="stroke:#181818;stroke-width:1.0;"/><path d="M375.2156,112.0313 L375.2156,114.0625 Q373.7313,114.6719 371.9031,114.6719 Q369.1844,114.6719 367.7313,112.9375 Q366.2781,111.1875 366.2781,108.0781 Q366.2781,105.0781 367.8563,103.2969 Q369.4344,101.5 372.1531,101.5 Q374.0594,101.5 375.7938,102.4219 L374.8406,104.3281 Q373.3406,103.5469 372.1531,103.5469 Q370.5438,103.5469 369.5594,104.7656 Q368.5906,105.9688 368.5906,108.0938 Q368.5906,110.3438 369.4969,111.4844 Q370.4188,112.625 372.1531,112.625 Q373.1844,112.625 375.2156,112.0313 Z " fill="#000000"/><text fill="#000000" font-family="sans-serif" font-size="14" lengthAdjust="spacing" textLength="129" x="387.3" y="112.8467">Tone Fitness Entry</text><line style="stroke:#181818;stroke-width:0.5;" x1="350.5" x2="525.5" y1="124" y2="124"/><text fill="#000000" font-family="sans-serif" font-size="14" lengthAdjust="spacing" textLength="165" x="355.5" y="140.9951">reading_time : Datetime</text><text fill="#000000" font-family="sans-serif" font-size="14" lengthAdjust="spacing" textLength="103" x="355.5" y="157.292">centroid : Float</text><text fill="#000000" font-family="sans-serif" font-size="14" lengthAdjust="spacing" textLength="94" x="355.5" y="173.5889">spread : Float</text><line style="stroke:#181818;stroke-width:0.5;" x1="350.5" x2="525.5" y1="180.8906" y2="180.8906"/></g><!--reverse link Instrument Profile to Leak Test--><g id="link_Instrument Profile_Leak Test"><path codeLine="9" d="M861.62,174.49 C843.77,195.21 828.8,222.07 844,244 C865.63,275.21 889.72,257.67 924,274 C935.99,279.71 948.29,286.06 960.44,292.66 " fill="none" id="Instrument Profile-backto-Leak Test" style="stroke:#181818;stroke-width:1.0;"/><polygon fill="#181818" points="870.5,164.86,863.4931,166.564,862.371,173.6872,869.3779,171.9833,870.5,164.86" style="stroke:#181818;stroke-width:1.0;"/><text fill="#000000" font-family="sans-serif" font-size="13" lengthAdjust="spacing" textLength="70" x="845" y="240.0669">instrument</text></g><!--reverse link Player Profile to Leak Test--><g id="link_Player Profile_Leak Test"><path codeLine="10" d="M1308.66,173.25 C1285.05,193.71 1253.46,220.74 1225,244 C1209.8,256.42 1193.59,269.38 1177.63,281.98 " fill="none" id="Player Profile-backto-Leak Test" style="stroke:#181818;stroke-width:1.0;"/><polygon fill="#181818" points="1318.59,164.63,1311.4374,165.5463,1309.5322,172.5012,1316.6848,171.5849,1318.59,164.63" style="stroke:#181818;stroke-width:1.0;"/><text fill="#000000" font-family="sans-serif" font-size="13" lengthAdjust="spacing" textLength="39" x="1245" y="240.0669">player</text></g><!--reverse link Repair Request to Leak Test--><g id="link_Repair Request_Leak Test"><path codeLine="11" d="M1767.97,175.97 C1752.88,199.6 1729.46,229.25 1700,244 C1603.25,292.46 1317,240.85 1214,274 C1205.26,276.81 1196.51,280.3 1187.9,284.25 " fill="none" id="Repair Request-backto-Leak Test" style="stroke:#181818;stroke-width:1.0;"/><polygon fill="#181818" points="1774.89,164.61,1768.3505,167.649,1768.6406,174.8543,1775.1801,171.8153,1774.89,164.61" style="stroke:#181818;stroke-width:1.0;"/><text fill="#000000" font-family="sans-serif" font-size="13" lengthAdjust="spacing" textLength="78" x="1725" y="240.0669">repair_order</text></g><!--reverse link Leak Reading to Leak Test--><g id="link_Leak Reading_Leak Test"><path codeLine="12" d="M729.77,200.48 C741,216.86 755.15,233.12 772,244 C829.85,281.36 859.62,249.57 924,274 C936.14,278.61 948.43,284.15 960.48,290.18 " fill="none" id="Leak Reading-backto-Leak Test" style="stroke:#181818;stroke-width:1.0;"/><polygon fill="#181818" points="722.47,189.18,722.3689,196.3904,728.9857,199.257,729.0869,192.0466,722.47,189.18" style="stroke:#181818;stroke-width:1.0;"/><text fill="#000000" font-family="sans-serif" font-size="13" lengthAdjust="spacing" textLength="55" x="773" y="240.0669">readings</text></g><!--reverse link Instrument Profile to Measurement Session--><g id="link_Instrument Profile_Measurement Session"><path codeLine="22" d="M854.75,171.89 C839.2,181.56 820.98,191.24 803,197 C656,244.08 604.32,180.94 457,227 C405.53,243.09 352.99,271.71 310.6,298.47 " fill="none" id="Instrument Profile-backto-Measurement Session" style="stroke:#181818;stroke-width:1.0;"/><polygon fill="#181818" points="866.07,164.55,858.8596,164.4489,855.993,171.0657,863.2034,171.1669,866.07,164.55" style="stroke:#181818;stroke-width:1.0;"/><text fill="#000000" font-family="sans-serif" font-size="13" lengthAdjust="spacing" textLength="70" x="458" y="240.0669">instrument</text></g><!--reverse link User to Measurement Session--><g id="link_User_Measurement Session"><path codeLine="23" d="M249.12,174.88 C236.85,189.6 224.36,207.89 218,227 C210.52,249.47 209.41,275.22 210.81,298.17 " fill="none" id="User-backto-Measurement Session" style="stroke:#181818;stroke-width:1.0;"/><polygon fill="#181818" points="257.92,164.83,250.9577,166.7078,250.0133,173.8568,256.9756,171.979,257.92,164.83" style="stroke:#181818;stroke-width:1.0;"/><text fill="#000000" font-family="sans-serif" font-size="13" lengthAdjust="spacing" textLength="65" x="219" y="240.0669">technician</text></g><!--reverse link Measurement Entry to Measurement Session--><g id="link_Measurement Entry_Measurement Session"><path codeLine="24" d="M103.19,209.96 C101.89,221.52 102.66,233.25 107,244 C115.06,263.94 128.28,282.38 142.92,298.47 " fill="none" id="Measurement Entry-backto-Measurement Session" style="stroke:#181818;stroke-width:1.0;"/><polygon fill="#181818" points="105.45,197.03,100.4745,202.2496,103.3789,208.8499,108.3544,203.6303,105.45,197.03" style="stroke:#181818;stroke-width:1.0;"/><text fill="#000000" font-family="sans-serif" font-size="13" lengthAdjust="spacing" textLength="98" x="108" y="240.0669">measurements</text></g><!--reverse link Instrument Profile to Instrument Wellness Score--><g id="link_Instrument Profile_Instrument Wellness Score"><path codeLine="32" d="M854.27,171.8 C838.79,181.37 820.74,191 803,197 C749.57,215.06 592.15,188.43 551,227 C537.87,239.31 530.31,256.1 526.18,273.66 " fill="none" id="Instrument Profile-backto-Instrument Wellness Score" style="stroke:#181818;stroke-width:1.0;"/><polygon fill="#181818" points="865.55,164.55,858.3401,164.4203,855.4473,171.0258,862.6572,171.1554,865.55,164.55" style="stroke:#181818;stroke-width:1.0;"/><text fill="#000000" font-family="sans-serif" font-size="13" lengthAdjust="spacing" textLength="70" x="552" y="240.0669">instrument</text></g><!--reverse link Instrument Profile to Intonation Session--><g id="link_Instrument Profile_Intonation Session"><path codeLine="43" d="M943.65,171.71 C988.38,200.41 1050.98,239.81 1064,244 C1238.76,300.28 1295.01,243.2 1476,274 C1547.17,286.11 1625.31,307.02 1687.13,325.41 " fill="none" id="Instrument Profile-backto-Intonation Session" style="stroke:#181818;stroke-width:1.0;"/><polygon fill="#181818" points="932.71,164.67,935.5967,171.2781,942.8067,171.1551,939.9201,164.547,932.71,164.67" style="stroke:#181818;stroke-width:1.0;"/><text fill="#000000" font-family="sans-serif" font-size="13" lengthAdjust="spacing" textLength="70" x="1065" y="240.0669">instrument</text></g><!--reverse link Player Profile to Intonation Session--><g id="link_Player Profile_Intonation Session"><path codeLine="44" d="M1363.79,176.21 C1377.5,198.51 1398.01,226.48 1423,244 C1465.99,274.14 1592.26,310.32 1687.12,334.61 " fill="none" id="Player Profile-backto-Intonation Session" style="stroke:#181818;stroke-width:1.0;"/><polygon fill="#181818" points="1357.07,164.83,1356.6768,172.0304,1363.1721,175.1627,1363.5653,167.9623,1357.07,164.83" style="stroke:#181818;stroke-width:1.0;"/><text fill="#000000" font-family="sans-serif" font-size="13" lengthAdjust="spacing" textLength="39" x="1424" y="240.0669">player</text></g><!--reverse link Repair Request to Intonation Session--><g id="link_Repair Request_Intonation Session"><path codeLine="45" d="M1831.9,171.85 C1845.22,180.38 1859.99,189.4 1874,197 C1902.32,212.37 1922.56,199.91 1940,227 C1957.85,254.72 1941.66,281 1914.88,302.88 " fill="none" id="Repair Request-backto-Intonation Session" style="stroke:#181818;stroke-width:1.0;"/><polygon fill="#181818" points="1820.62,164.52,1823.4765,171.1412,1830.687,171.051,1827.8305,164.4298,1820.62,164.52" style="stroke:#181818;stroke-width:1.0;"/><text fill="#000000" font-family="sans-serif" font-size="13" lengthAdjust="spacing" textLength="78" x="1946" y="240.0669">repair_order</text></g><!--reverse link Intonation Note to Intonation Session--><g id="link_Intonation Note_Intonation Session"><path codeLine="46" d="M2076.41,194.08 C2078.29,195.07 2080.15,196.04 2082,197 C2108.09,210.59 2125.62,201.92 2141,227 C2144.95,233.44 2145.46,237.9 2141,244 C2115.13,279.41 2088.54,259.95 2047,274 C2003.6,288.68 1956.16,305.48 1914.61,320.43 " fill="none" id="Intonation Note-backto-Intonation Session" style="stroke:#181818;stroke-width:1.0;"/><polygon fill="#181818" points="2064.76,187.96,2068.2107,194.2919,2075.3827,193.5419,2071.932,187.21,2064.76,187.96" style="stroke:#181818;stroke-width:1.0;"/><text fill="#000000" font-family="sans-serif" font-size="13" lengthAdjust="spacing" textLength="36" x="2145" y="240.0669">notes</text></g><!--reverse link Instrument Profile to Reed Match Result--><g id="link_Instrument Profile_Reed Match Result"><path codeLine="66" d="M908.04,176.93 C917.13,199.92 932.41,228.4 956,244 C1048.98,305.48 1099.93,236.77 1205,274 C1213.79,277.12 1222.61,280.86 1231.31,285.02 " fill="none" id="Instrument Profile-backto-Reed Match Result" style="stroke:#181818;stroke-width:1.0;"/><polygon fill="#181818" points="903.5,164.5,901.8091,171.51,907.6295,175.7671,909.3204,168.757,903.5,164.5" style="stroke:#181818;stroke-width:1.0;"/><text fill="#000000" font-family="sans-serif" font-size="13" lengthAdjust="spacing" textLength="70" x="957" y="240.0669">instrument</text></g><!--reverse link Player Profile to Reed Match Result--><g id="link_Player Profile_Reed Match Result"><path codeLine="67" d="M1343.44,177.8 C1342.87,193 1342.28,210.85 1342,227 C1341.69,244.7 1341.82,263.7 1342.17,281.69 " fill="none" id="Player Profile-backto-Reed Match Result" style="stroke:#181818;stroke-width:1.0;"/><polygon fill="#181818" points="1343.97,164.72,1339.7357,170.557,1343.4951,176.7106,1347.7294,170.8736,1343.97,164.72" style="stroke:#181818;stroke-width:1.0;"/><text fill="#000000" font-family="sans-serif" font-size="13" lengthAdjust="spacing" textLength="39" x="1343" y="240.0669">player</text></g><!--reverse link Repair Request to Reed Match Result--><g id="link_Repair Request_Reed Match Result"><path codeLine="68" d="M1812.94,175.58 C1825.98,197.14 1835.97,224.51 1820,244 C1776.9,296.58 1736.18,258.44 1670,274 C1599.44,290.59 1520.98,311.75 1458.83,329.17 " fill="none" id="Repair Request-backto-Reed Match Result" style="stroke:#181818;stroke-width:1.0;"/><polygon fill="#181818" points="1805.74,164.6,1805.6851,171.8109,1812.3201,174.635,1812.3751,167.4241,1805.74,164.6" style="stroke:#181818;stroke-width:1.0;"/><text fill="#000000" font-family="sans-serif" font-size="13" lengthAdjust="spacing" textLength="78" x="1828" y="240.0669">repair_order</text></g><!--reverse link Instrument Profile to Impedance Snapshot--><g id="link_Instrument Profile_Impedance Snapshot"><path codeLine="78" d="M986.82,154.94 C1147.52,178.98 1467.64,226.88 1468,227 C1483.29,232.04 1484.52,239.57 1500,244 C1685.03,296.97 1743.62,234.55 1932,274 C1976.28,283.27 2023.41,298.68 2064.43,314.03 " fill="none" id="Instrument Profile-backto-Impedance Snapshot" style="stroke:#181818;stroke-width:1.0;"/><polygon fill="#181818" points="973.65,152.97,978.9955,157.81,985.5192,154.7372,980.1736,149.8972,973.65,152.97" style="stroke:#181818;stroke-width:1.0;"/><text fill="#000000" font-family="sans-serif" font-size="13" lengthAdjust="spacing" textLength="70" x="1501" y="240.0669">instrument</text></g><!--reverse link Player Profile to Impedance Snapshot--><g id="link_Player Profile_Impedance Snapshot"><path codeLine="79" d="M1417.38,154.23 C1488.99,166.5 1601.79,184.91 1700,197 C1773.74,206.08 1965.15,196.72 2033,227 C2061.58,239.76 2088.17,260.5 2110.56,281.95 " fill="none" id="Player Profile-backto-Impedance Snapshot" style="stroke:#181818;stroke-width:1.0;"/><polygon fill="#181818" points="1404.51,152.02,1409.7467,156.9776,1416.337,154.0505,1411.1003,149.0929,1404.51,152.02" style="stroke:#181818;stroke-width:1.0;"/><text fill="#000000" font-family="sans-serif" font-size="13" lengthAdjust="spacing" textLength="39" x="2062" y="240.0669">player</text></g><!--reverse link Repair Request to Impedance Snapshot--><g id="link_Repair Request_Impedance Snapshot"><path codeLine="80" d="M1826.26,172.12 C1840.54,181.7 1857.29,191.25 1874,197 C1940.7,219.94 2142.54,174.82 2190,227 C2203.54,241.88 2206.69,261.88 2204.89,281.92 " fill="none" id="Repair Request-backto-Impedance Snapshot" style="stroke:#181818;stroke-width:1.0;"/><polygon fill="#181818" points="1815.39,164.5,1818.0128,171.2172,1825.222,171.3798,1822.5993,164.6625,1815.39,164.5" style="stroke:#181818;stroke-width:1.0;"/><text fill="#000000" font-family="sans-serif" font-size="13" lengthAdjust="spacing" textLength="78" x="2200" y="240.0669">repair_order</text></g><!--reverse link Impedance Peak to Impedance Snapshot--><g id="link_Impedance Peak_Impedance Snapshot"><path codeLine="81" d="M2258.2,193.52 C2260.48,194.71 2262.75,195.87 2265,197 C2296.74,212.88 2319.17,197.57 2339,227 C2362.54,261.94 2332.07,292.83 2291.53,316.22 " fill="none" id="Impedance Peak-backto-Impedance Snapshot" style="stroke:#181818;stroke-width:1.0;"/><polygon fill="#181818" points="2246.75,187.36,2250.1416,193.7237,2257.3203,193.0406,2253.9287,186.6768,2246.75,187.36" style="stroke:#181818;stroke-width:1.0;"/><text fill="#000000" font-family="sans-serif" font-size="13" lengthAdjust="spacing" textLength="38" x="2346" y="240.0669">peaks</text></g><!--reverse link Instrument Profile to Tone Fitness--><g id="link_Instrument Profile_Tone Fitness"><path codeLine="91" d="M853.31,171.68 C837.99,181.05 820.28,190.6 803,197 C731.88,223.37 683.69,168.84 635,227 C622.96,241.39 646.77,266.36 679.3,290.95 " fill="none" id="Instrument Profile-backto-Tone Fitness" style="stroke:#181818;stroke-width:1.0;"/><polygon fill="#181818" points="864.52,164.59,857.311,164.4141,854.376,171.0009,861.585,171.1768,864.52,164.59" style="stroke:#181818;stroke-width:1.0;"/><text fill="#000000" font-family="sans-serif" font-size="13" lengthAdjust="spacing" textLength="70" x="636" y="240.0669">instrument</text></g><!--reverse link Player Profile to Tone Fitness--><g id="link_Player Profile_Tone Fitness"><path codeLine="92" d="M1286.56,170.71 C1253.95,187.1 1212.63,208.01 1176,227 C1161.7,234.41 1159.3,238.96 1144,244 C1058.21,272.26 1028.17,243.93 943,274 C930.9,278.27 918.68,283.55 906.72,289.38 " fill="none" id="Player Profile-backto-Tone Fitness" style="stroke:#181818;stroke-width:1.0;"/><polygon fill="#181818" points="1298.61,164.66,1291.4537,163.7726,1287.8822,170.0371,1295.0384,170.9245,1298.61,164.66" style="stroke:#181818;stroke-width:1.0;"/><text fill="#000000" font-family="sans-serif" font-size="13" lengthAdjust="spacing" textLength="39" x="1177" y="240.0669">player</text></g><!--reverse link Repair Request to Tone Fitness--><g id="link_Repair Request_Tone Fitness"><path codeLine="93" d="M1726.47,170.45 C1692.66,186.78 1649.83,207.72 1612,227 C1597.65,234.31 1595.53,239.74 1580,244 C1306.67,318.97 1214.69,193.28 943,274 C930.84,277.61 918.64,282.41 906.73,287.9 " fill="none" id="Repair Request-backto-Tone Fitness" style="stroke:#181818;stroke-width:1.0;"/><polygon fill="#181818" points="1738.5,164.65,1731.3581,163.6536,1727.6914,169.8629,1734.8334,170.8593,1738.5,164.65" style="stroke:#181818;stroke-width:1.0;"/><text fill="#000000" font-family="sans-serif" font-size="13" lengthAdjust="spacing" textLength="78" x="1613" y="240.0669">repair_order</text></g><!--reverse link Tone Fitness Entry to Tone Fitness--><g id="link_Tone Fitness Entry_Tone Fitness"><path codeLine="94" d="M338.87,190.99 C318.82,207.2 308.35,225.76 325,244 C374.19,297.9 582.84,250.72 652,274 C661.16,277.08 670.34,280.87 679.37,285.12 " fill="none" id="Tone Fitness Entry-backto-Tone Fitness" style="stroke:#181818;stroke-width:1.0;"/><polygon fill="#181818" points="349.4,183.23,342.1971,183.573,339.7433,190.3538,346.9463,190.0108,349.4,183.23" style="stroke:#181818;stroke-width:1.0;"/><text fill="#000000" font-family="sans-serif" font-size="13" lengthAdjust="spacing" textLength="44" x="326" y="240.0669">entries</text></g><!--SRC=[pLPDYzim4BtdLmZtLjZUIg4i2zjk0u7T4fAK7it4dYHgPCahAKj3oN_lI7PisLQyEUOKFFCcC_FcIoLaUzWYqrW2rscfj0NnIS2QtTzFbSXHFpomVvDCW34iUIRv4vZTMe7E4_PX-ldxjySlf3-T4REYn1naXcoEi0yXZ6qqlXvGPaVsbKs50aiotk1RsMkwWSmgtOXEasGcZTM70gLbSwqsN632FjxTKKZaXgtGs8JWl45Dahc08-enTEaHasJXSsSB5vtJ394rEqhd3kzL2uISosqSxLMcOQrLXdIqmPBDCvTxabKXjT-XurPgq1YkP6gFfUDjYG8pHzmVGy8SB3Yeabjo-jVwVrKs1MiXszNk7lq7cnLKU- -cYfWqArWB76Ny1S4SD7hDiegap_qlWteSRJ7RIPvna9CEv8Uq-ZXkMhJYXk8ez3sosnXQ6R7dA7sY7_gIog8dfU8nz7mLLO7YDmeXAJAsp9J67c7duRaCVoyNV0Dn0Ckh1WXIuD8gMIcC-wlOx0qqWZfs8AJ_6IBL6seGOY3lC3TEqJc-IyqK7UIusUX4nqswenrWVb86evO-nRPqGyYD3djJchfzXnbKgOVXEvjKGb4t5f0eSrEGgit6e0sxX1UO2hNTObutePEqRhhBC_JX-skdHE0ZteUNF5nkiWKIzWKiiR10Sn3N7OkerMYBHIqw7LQp407Ux6d8L46g7FDKKzJcN9tHeMwk-b92QNRgEiBZPkD37JNf3NNlJJBcYm1c-9Pf8JTQ9H_tLITfHLF6fjowut9LKVe6e-NeWxk52BMTIzytesWqRvThLtsZ9QXZ7YxMoFCcJA44JNlL-jZgjUTkURZn3fBROF7wUVGla6L1j_TyOoDanVpLRxtKBSrmVrORNIkU1vvDwU31G_pq7m00]--></g></svg>